<svg width="1488" height="774" viewBox="0 0 1488 774" version="1.1" xmlns="http://www.w3.org/2000/svg" xmlns:xlink="http://www.w3.org/1999/xlink">
<title>Frame</title>
<desc>Created using Figma</desc>
<g id="Canvas" transform="matrix(2 0 0 2 658 792)">
<clipPath id="clip-0" clip-rule="evenodd">
<path d="M -329 -396L 415 -396L 415 -9L -329 -9L -329 -396Z" fill="#FFFFFF"/>
</clipPath>
<g id="Frame" clip-path="url(#clip-0)">
<path d="M -329 -396L 415 -396L 415 -9L -329 -9L -329 -396Z" fill="#FFFFFF"/>
<g id="Well Fit">
<use xlink:href="#path0_stroke" transform="translate(96 -345)" fill="#2F80ED"/>
</g>
<g id="Axes">
<g id="Line">
<use xlink:href="#path1_stroke" transform="matrix(6.12323e-17 1 -1 6.12323e-17 -281 -367)"/>
</g>
<g id="Line">
<use xlink:href="#path1_stroke" transform="matrix(-1 1.22465e-16 -1.22465e-16 -1 13 -73)"/>
</g>
</g>
<g id="Points">
<g id="Ellipse">
<use xlink:href="#path2_fill" transform="translate(-119 -102)" fill="#EB5757"/>
</g>
<g id="Ellipse">
<use xlink:href="#path2_fill" transform="translate(-42 -138)" fill="#EB5757"/>
</g>
<g id="Ellipse">
<use xlink:href="#path2_fill" transform="translate(-66 -203)" fill="#EB5757"/>
</g>
<g id="Ellipse">
<use xlink:href="#path2_fill" transform="translate(-11 -231)" fill="#EB5757"/>
</g>
<g id="Ellipse">
<use xlink:href="#path2_fill" transform="translate(-11 -231)" fill="#EB5757"/>
</g>
<g id="Ellipse">
<use xlink:href="#path2_fill" transform="translate(-54 -234)" fill="#EB5757"/>
</g>
<g id="Ellipse">
<use xlink:href="#path2_fill" transform="translate(-7 -283)" fill="#EB5757"/>
</g>
<g id="Ellipse">
<use xlink:href="#path2_fill" transform="translate(-26 -313)" fill="#EB5757"/>
</g>
<g id="Ellipse">
<use xlink:href="#path2_fill" transform="translate(-135 -130)" fill="#EB5757"/>
</g>
<g id="Ellipse">
<use xlink:href="#path2_fill" transform="translate(-30 -203)" fill="#EB5757"/>
</g>
<g id="Ellipse">
<use xlink:href="#path2_fill" transform="translate(-196 -195)" fill="#EB5757"/>
</g>
<g id="Ellipse">
<use xlink:href="#path2_fill" transform="translate(-178 -160)" fill="#EB5757"/>
</g>
<g id="Ellipse">
<use xlink:href="#path2_fill" transform="translate(-192 -117)" fill="#EB5757"/>
</g>
<g id="Ellipse">
<use xlink:href="#path2_fill" transform="translate(-223 -253)" fill="#EB5757"/>
</g>
<g id="Ellipse">
<use xlink:href="#path3_fill" transform="translate(-241 -325)" fill="#EB5757"/>
</g>
<g id="Ellipse">
<use xlink:href="#path2_fill" transform="translate(-252 -279)" fill="#EB5757"/>
</g>
<g id="Ellipse">
<use xlink:href="#path2_fill" transform="translate(-223 -168)" fill="#EB5757"/>
</g>
</g>
<g id="Overfit">
<use xlink:href="#path4_stroke" transform="translate(-247.5 -321.801)" fill="#2F80ED"/>
</g>
<g id="Axes">
<g id="Line">
<use xlink:href="#path1_stroke" transform="matrix(6.12323e-17 1 -1 6.12323e-17 67 -367)"/>
</g>
<g id="Line">
<use xlink:href="#path1_stroke" transform="matrix(-1 1.22465e-16 -1.22465e-16 -1 361 -73)"/>
</g>
</g>
<g id="Points">
<g id="Ellipse">
<use xlink:href="#path2_fill" transform="translate(229 -102)" fill="#EB5757"/>
</g>
<g id="Ellipse">
<use xlink:href="#path2_fill" transform="translate(306 -138)" fill="#EB5757"/>
</g>
<g id="Ellipse">
<use xlink:href="#path2_fill" transform="translate(282 -203)" fill="#EB5757"/>
</g>
<g id="Ellipse">
<use xlink:href="#path2_fill" transform="translate(337 -231)" fill="#EB5757"/>
</g>
<g id="Ellipse">
<use xlink:href="#path2_fill" transform="translate(337 -231)" fill="#EB5757"/>
</g>
<g id="Ellipse">
<use xlink:href="#path2_fill" transform="translate(294 -234)" fill="#EB5757"/>
</g>
<g id="Ellipse">
<use xlink:href="#path2_fill" transform="translate(341 -283)" fill="#EB5757"/>
</g>
<g id="Ellipse">
<use xlink:href="#path2_fill" transform="translate(322 -313)" fill="#EB5757"/>
</g>
<g id="Ellipse">
<use xlink:href="#path2_fill" transform="translate(213 -130)" fill="#EB5757"/>
</g>
<g id="Ellipse">
<use xlink:href="#path2_fill" transform="translate(318 -203)" fill="#EB5757"/>
</g>
<g id="Ellipse">
<use xlink:href="#path2_fill" transform="translate(152 -195)" fill="#EB5757"/>
</g>
<g id="Ellipse">
<use xlink:href="#path2_fill" transform="translate(170 -160)" fill="#EB5757"/>
</g>
<g id="Ellipse">
<use xlink:href="#path2_fill" transform="translate(156 -117)" fill="#EB5757"/>
</g>
<g id="Ellipse">
<use xlink:href="#path2_fill" transform="translate(125 -253)" fill="#EB5757"/>
</g>
<g id="Ellipse">
<use xlink:href="#path3_fill" transform="translate(107 -325)" fill="#EB5757"/>
</g>
<g id="Ellipse">
<use xlink:href="#path2_fill" transform="translate(96 -279)" fill="#EB5757"/>
</g>
<g id="Ellipse">
<use xlink:href="#path2_fill" transform="translate(125 -168)" fill="#EB5757"/>
</g>
</g>
<g id="An overfit model">
<use xlink:href="#path5_fill" transform="translate(-209 -60)"/>
</g>
<g id="A well-fit model">
<use xlink:href="#path6_fill" transform="translate(144 -60)"/>
</g>
</g>
</g>
<defs>
<path id="path0_stroke" d="M 0 0C -0.992597 0.121457 -0.992462 0.122556 -0.992217 0.124555C -0.991987 0.126425 -0.991631 0.129326 -0.991171 0.133058C -0.990268 0.140394 -0.988887 0.151579 -0.987075 0.166194C -0.983484 0.195163 -0.978038 0.238902 -0.970818 0.296391C -0.956443 0.410843 -0.934703 0.582439 -0.905655 0.807742C -0.847695 1.25728 -0.759934 1.9261 -0.641644 2.79632C -0.405353 4.53456 -0.0456399 7.08798 0.445845 10.3333C 1.42816 16.8194 2.94102 26.0958 5.05668 37.2181C 9.28641 59.4528 15.9419 89.1396 25.6117 118.81C 35.2827 148.477 48.022 178.245 64.3732 200.56C 80.7488 222.897 100.916 238 125.5 238L 125.5 236C 101.834 236 82.1887 221.478 65.9862 199.378C 49.7592 177.255 37.1548 147.773 27.5133 118.19C 17.8706 88.6104 11.2448 59.0472 7.02145 36.8444C 4.91054 25.7479 3.40388 16.5087 2.4233 10.0339C 1.93334 6.79874 1.57576 4.26037 1.34013 2.52692C 1.22246 1.6613 1.1356 0.99931 1.07793 0.551999C 1.04916 0.328877 1.02783 0.160538 1.01359 0.0471604C 1.00651 -0.00926512 1.00126 -0.0514135 0.997732 -0.0798542C 0.995985 -0.0939441 0.994702 -0.104343 0.993831 -0.111417C 0.993403 -0.114889 0.993095 -0.117398 0.992881 -0.119138C 0.992683 -0.120748 0.992597 -0.121457 0 0ZM 125.5 238C 150.086 238 170.129 222.895 186.318 200.556C 202.481 178.24 214.97 148.47 224.391 118.803C 233.81 89.132 240.215 59.4449 244.257 37.2101C 246.279 26.0877 247.714 16.8113 248.641 10.3252C 249.105 7.07979 249.444 4.52634 249.665 2.78809C 249.776 1.91787 249.858 1.24904 249.912 0.799497C 249.94 0.57419 249.96 0.402589 249.973 0.288136C 249.98 0.230645 249.985 0.186903 249.988 0.157934C 249.99 0.143318 249.991 0.132131 249.992 0.124796C 249.993 0.121063 249.993 0.118161 249.993 0.116291C 249.993 0.114291 249.994 0.113192 249 0C 248.006 -0.113192 248.006 -0.112483 248.006 -0.110874C 248.006 -0.109135 248.006 -0.106625 248.005 -0.103154C 248.004 -0.0960809 248.003 -0.0856828 248.002 -0.0715938C 247.998 -0.0431538 247.993 -0.00100786 247.987 0.0554161C 247.974 0.168792 247.954 0.337126 247.927 0.560245C 247.873 1.00755 247.792 1.66953 247.681 2.53515C 247.46 4.26858 247.124 6.80693 246.661 10.042C 245.736 16.5169 244.307 25.756 242.29 36.8524C 238.254 59.0551 231.877 88.618 222.484 118.197C 213.093 147.78 200.738 177.26 184.698 199.382C 168.684 221.48 149.164 236 125.5 236L 125.5 238Z"/>
<path id="path1_stroke" d="M 0 -2.22045e-16L 294 -2.22045e-16L 294 -3L 0 -3L 0 -2.22045e-16Z"/>
<path id="path2_fill" d="M 8 4C 8 6.20914 6.20914 8 4 8C 1.79086 8 0 6.20914 0 4C 0 1.79086 1.79086 0 4 0C 6.20914 0 8 1.79086 8 4Z"/>
<path id="path3_fill" d="M 8 4C 8 6.20914 6.20914 8 4 8C 1.79086 8 0 6.20914 0 4C 0 1.79086 1.79086 0 4 0C 6.20914 0 8 1.79086 8 4Z"/>
<path id="path4_stroke" d="M 29.0001 71.8011L 30.0001 71.8076L 30.0003 71.7794L 29.9988 71.7512L 29.0001 71.8011ZM 185 121.801L 185.924 122.184L 185.95 122.12L 185.968 122.053L 185 121.801ZM 221.5 121.801L 222.499 121.847L 222.501 121.812L 222.5 121.778L 221.5 121.801ZM 197.5 91.5562L 197.746 90.5871L 197.5 91.5562ZM 0 47.3012C 0.999374 47.3366 0.999378 47.3365 0.999389 47.3361C 0.999403 47.3357 0.999423 47.3352 0.999451 47.3344C 0.99951 47.3328 0.999595 47.3304 0.999713 47.3271C 0.999956 47.3204 1.00031 47.3107 1.00081 47.2974C 1.0018 47.2706 1.00329 47.231 1.00535 47.1783C 1.00947 47.0724 1.01574 46.9163 1.02448 46.7119C 1.042 46.302 1.06915 45.7045 1.10806 44.9451C 1.18602 43.4239 1.31037 41.2688 1.49734 38.71C 1.87158 33.5869 2.49236 26.8933 3.48804 20.5179C 4.48726 14.1166 5.84542 8.17172 7.64771 4.49953C 8.5615 2.63768 9.4926 1.56587 10.3626 1.17534C 11.0898 0.848936 12.0226 0.899651 13.3415 2.05369L 14.6585 0.548539C 12.9774 -0.92242 11.2227 -1.40295 9.54363 -0.649276C 8.00742 0.040276 6.81351 1.65988 5.8523 3.61835C 3.9046 7.5868 2.51275 13.7982 1.51197 20.2094C 0.507644 26.6465 -0.121577 33.4217 -0.49734 38.5643C -0.685368 41.1383 -0.811019 43.3151 -0.889314 44.8428C -0.928521 45.6079 -0.956061 46.2139 -0.973697 46.6265C -0.98254 46.8334 -0.988964 46.9933 -0.993139 47.1005C -0.995238 47.1544 -0.996798 47.1958 -0.997816 47.2232C -0.99833 47.237 -0.99872 47.2477 -0.998973 47.2547C -0.999102 47.2582 -0.999203 47.261 -0.999267 47.2628C -0.9993 47.2637 -0.999327 47.2645 -0.999344 47.265C -0.999363 47.2655 -0.999374 47.2658 0 47.3012ZM 13.3415 2.05369C 16.0908 4.45933 18.4695 9.89636 20.4426 17.0136C 22.3997 24.0689 23.8872 32.4878 25.0094 40.6253C 26.1318 48.7609 26.879 56.561 27.3471 62.3428C 27.581 65.2313 27.7445 67.6074 27.8498 69.2659C 27.9023 70.094 27.9402 70.7401 27.9651 71.181C 27.9774 71.4009 27.9865 71.5684 27.9925 71.6817C 27.9955 71.7381 27.9977 71.7804 27.9992 71.809C 27.9999 71.8232 28.0005 71.8337 28.0008 71.8409C 28.001 71.8444 28.0011 71.8469 28.0012 71.8487C 28.0013 71.8495 28.0013 71.8501 28.0013 71.8506C 28.0013 71.8509 28.0013 71.8511 29.0001 71.8011C 29.9988 71.7512 29.9988 71.7509 29.9988 71.7503C 29.9988 71.7498 29.9987 71.749 29.9987 71.7481C 29.9986 71.7462 29.9985 71.7433 29.9983 71.7395C 29.9979 71.7321 29.9973 71.7208 29.9966 71.7061C 29.9951 71.677 29.9928 71.6331 29.9897 71.5757C 29.9836 71.4613 29.9744 71.2906 29.9619 71.0685C 29.9369 70.6253 29.8986 69.9721 29.8457 69.1391C 29.7401 67.4754 29.5754 65.0819 29.3406 62.1814C 28.8712 56.385 28.1183 48.5288 26.9907 40.352C 25.8629 32.177 24.3503 23.6271 22.3699 16.4793C 20.4055 9.39337 17.9092 3.3929 14.6585 0.548539L 13.3415 2.05369ZM 29.0001 71.8011C 28.0001 71.7947 28.0001 71.795 28.0001 71.7956C 28.0001 71.7962 28.0001 71.797 28.0001 71.7982C 28.0001 71.8006 28.0001 71.8041 28 71.8088C 28 71.8182 27.9999 71.8323 27.9998 71.8509C 27.9995 71.8882 27.9992 71.9439 27.9987 72.0174C 27.9978 72.1643 27.9964 72.3825 27.9946 72.6674C 27.9911 73.2371 27.986 74.0739 27.9796 75.1419C 27.9669 77.2777 27.9493 80.3386 27.9298 84.038C 27.8907 91.4368 27.8439 101.391 27.8126 111.611C 27.7501 132.05 27.7505 153.581 28.0018 157.86L 29.9984 157.743C 29.7497 153.522 29.7501 132.053 29.8126 111.617C 29.8438 101.399 29.8907 91.4468 29.9298 84.0486C 29.9493 80.3496 29.9669 77.2894 29.9796 75.1538C 29.9859 74.086 29.991 73.2494 29.9946 72.6798C 29.9964 72.395 29.9977 72.1769 29.9987 72.03C 29.9991 71.9566 29.9995 71.901 29.9997 71.8637C 29.9998 71.8451 29.9999 71.8311 30 71.8217C 30 71.817 30 71.8135 30.0001 71.8111C 30.0001 71.8099 30.0001 71.809 30.0001 71.8085C 30.0001 71.8079 30.0001 71.8076 29.0001 71.8011ZM 28.0018 157.86C 28.034 158.406 28.1302 159.04 28.4919 159.488C 28.7081 159.756 29.0222 159.96 29.4145 160.006C 29.7735 160.048 30.0864 159.944 30.3125 159.833C 30.7457 159.619 31.1529 159.23 31.5137 158.825C 31.883 158.411 32.3072 157.859 32.7465 157.238C 34.482 154.779 36.8261 150.754 39.4127 146.578C 42 142.401 44.8126 138.093 47.542 134.975C 48.8958 133.425 50.1514 132.238 51.3701 131.484C 52.5566 130.744 53.4921 130.559 54.2324 130.765L 54.7677 128.838C 53.258 128.418 51.7249 128.905 50.3118 129.787C 48.9308 130.654 47.4559 132.037 46.0364 133.659C 43.2188 136.885 40.3127 141.327 37.7125 145.525C 35.1116 149.724 32.7994 153.698 31.113 156.084C 30.6969 156.673 30.3428 157.135 30.0219 157.493C 29.6925 157.862 29.4977 158.005 29.4279 158.039C 29.4025 158.052 29.4888 158.001 29.6473 158.02C 29.839 158.042 29.9787 158.146 30.0481 158.232C 30.1161 158.316 30.0287 158.258 29.9984 157.743L 28.0018 157.86ZM 54.2324 130.765C 54.4756 130.832 54.7804 131.037 55.1132 131.56C 55.477 132.124 55.7597 132.859 56.0247 133.881C 56.5712 135.964 56.878 138.811 57.0323 142.276C 57.3438 149.227 57.0008 158.356 56.6259 167.699C 56.2509 177.041 55.8439 186.589 56.0316 194.302C 56.1262 198.166 56.3748 201.621 56.8511 204.342C 57.3211 207.02 58.0522 209.268 59.293 210.508L 60.7072 209.094C 59.948 208.335 59.2884 206.66 58.821 203.997C 58.3598 201.376 58.1239 198.07 58.031 194.253C 57.8438 186.607 58.2492 177.124 58.6243 167.779C 58.9993 158.434 59.3438 149.22 59.0303 142.186C 58.8722 138.659 58.5383 135.603 57.9599 133.376C 57.6624 132.243 57.2614 131.22 56.8011 130.487C 56.3097 129.714 55.6496 129.083 54.7677 128.838L 54.2324 130.765ZM 59.293 210.508C 60.3709 211.586 61.5053 212.275 62.7 212.348C 63.9425 212.424 64.9879 211.822 65.8274 210.894C 67.4378 209.115 68.6525 205.752 69.6602 201.534C 71.6939 193.013 73.0779 180.073 74.4947 166.404L 72.5054 166.198C 71.0889 179.863 69.7229 192.673 67.715 201.069C 66.7019 205.309 65.5728 208.195 64.3447 209.552C 63.7649 210.192 63.2673 210.379 62.8217 210.352C 62.3282 210.322 61.6293 210.016 60.7072 209.094L 59.293 210.508ZM 74.4947 166.404C 74.8402 163.072 75.7268 161.296 76.7634 160.469C 77.7394 159.69 79.1105 159.558 81.0064 160.22C 84.867 161.568 89.942 165.896 95.0858 171.338C 100.192 176.739 105.199 183.053 108.95 188.191C 110.823 190.756 112.366 193.005 113.447 194.698C 113.985 195.539 114.395 196.219 114.676 196.736C 114.813 196.987 114.904 197.169 114.967 197.317C 115.048 197.507 115 197.458 115 197.301L 117 197.301C 117 196.995 116.874 196.69 116.805 196.53C 116.718 196.328 116.586 196.062 116.432 195.779C 116.13 195.225 115.685 194.485 115.133 193.621C 114.034 191.901 112.456 189.601 110.566 187.012C 106.791 181.841 101.704 175.43 96.5393 169.964C 91.4123 164.54 86.0394 159.859 81.6656 158.332C 79.4443 157.557 77.2516 157.521 75.516 158.906C 73.841 160.242 72.8683 162.697 72.5054 166.198L 74.4947 166.404ZM 115 197.301C 115 197.788 115.202 198.524 115.46 199.302C 115.733 200.123 116.136 201.177 116.633 202.358C 117.624 204.71 119.037 207.682 120.686 210.683C 122.335 213.681 124.257 216.772 126.249 219.345C 128.234 221.908 130.386 224.089 132.545 225.192L 133.455 223.411C 131.698 222.513 129.766 220.62 127.83 218.12C 125.899 215.63 124.061 212.671 122.439 209.72C 120.817 206.77 119.449 203.892 118.476 201.582C 117.992 200.432 117.617 199.451 117.358 198.671C 117.23 198.287 117.14 197.98 117.077 197.72C 117.016 197.474 117.003 197.231 117 197.301L 115 197.301ZM 132.545 225.192C 133.586 225.723 134.669 225.208 135.472 224.612C 136.295 223.994 137.267 222.958 138.274 221.657C 140.263 219.086 142.671 215.19 145.304 210.459C 150.559 201.012 156.832 188.04 162.846 174.969C 168.86 161.898 174.631 148.699 178.895 138.774C 181.028 133.811 182.785 129.663 184.009 126.758C 184.62 125.305 185.099 124.161 185.425 123.382C 185.588 122.992 185.713 122.692 185.796 122.491C 185.838 122.39 185.87 122.313 185.892 122.262C 185.902 122.236 185.91 122.217 185.916 122.204C 185.918 122.197 185.92 122.193 185.922 122.189C 185.922 122.188 185.923 122.186 185.923 122.186C 185.924 122.185 185.924 122.184 185 121.801C 184.076 121.418 184.076 121.419 184.076 121.419C 184.076 121.42 184.075 121.421 184.074 121.423C 184.073 121.426 184.071 121.431 184.068 121.437C 184.063 121.45 184.055 121.469 184.045 121.495C 184.023 121.546 183.992 121.622 183.95 121.722C 183.866 121.924 183.742 122.222 183.579 122.611C 183.254 123.389 182.776 124.53 182.165 125.981C 180.943 128.885 179.188 133.026 177.058 137.985C 172.796 147.904 167.036 161.079 161.029 174.133C 155.023 187.187 148.785 200.09 143.556 209.487C 140.946 214.178 138.619 217.946 136.693 220.433C 135.743 221.662 134.962 222.504 134.278 223.007C 133.962 223.245 133.784 223.345 133.579 223.393C 133.495 223.419 133.511 223.418 133.46 223.411C 133.419 223.413 133.482 223.431 133.455 223.411L 132.545 225.192ZM 210.5 188.801C 211.372 188.801 212.097 188.346 212.665 187.751C 213.193 187.19 213.724 186.346 214.175 185.39C 215.051 183.518 215.858 180.837 216.569 177.71C 217.984 171.48 219.118 163.172 219.995 154.907C 220.871 146.642 221.498 138.372 221.904 132.179C 222.108 129.081 222.256 126.498 222.354 124.691C 222.403 123.787 222.439 123.076 222.463 122.592C 222.475 122.349 222.484 122.163 222.49 122.038C 222.493 121.975 222.495 121.927 222.497 121.895C 222.498 121.879 222.498 121.867 222.498 121.859C 222.499 121.855 222.499 121.852 222.499 121.85C 222.499 121.849 222.499 121.848 222.499 121.847C 222.499 121.847 222.499 121.847 221.5 121.801C 220.501 121.756 220.501 121.756 220.501 121.756C 220.501 121.757 220.501 121.758 220.501 121.759C 220.501 121.761 220.501 121.763 220.501 121.767C 220.5 121.775 220.5 121.787 220.499 121.803C 220.497 121.834 220.495 121.881 220.492 121.943C 220.486 122.068 220.478 122.252 220.466 122.493C 220.442 122.976 220.406 123.682 220.357 124.583C 220.259 126.386 220.111 128.958 219.908 132.048C 219.503 138.231 218.879 146.461 218.006 154.696C 217.132 162.931 216.016 171.123 214.619 177.267C 213.924 180.328 213.183 182.803 212.364 184.54C 211.967 185.39 211.613 185.964 211.219 186.37C 210.864 186.741 210.628 186.801 210.5 186.801L 210.5 188.801ZM 221.5 121.801C 222.5 121.778 222.5 121.778 222.5 121.777C 222.5 121.776 222.5 121.775 222.5 121.773C 222.5 121.77 222.5 121.765 222.499 121.759C 222.499 121.746 222.499 121.726 222.498 121.7C 222.497 121.648 222.495 121.57 222.493 121.468C 222.488 121.263 222.482 120.959 222.473 120.562C 222.457 119.768 222.433 118.603 222.405 117.121C 222.35 114.156 222.277 109.923 222.211 104.843C 222.078 94.6813 221.969 81.1444 222.063 67.6206C 222.156 54.0969 222.452 40.6114 223.131 30.5324C 223.469 25.4997 223.898 21.3621 224.444 18.4846C 224.714 17.0619 224.988 16.0316 225.299 15.3356C 225.446 15.0014 225.566 14.8336 225.633 14.7652C 225.688 14.7082 225.61 14.8126 225.423 14.7983L 225.577 12.8041C 224.984 12.7585 224.517 13.0446 224.201 13.3689C 223.896 13.6817 223.66 14.0947 223.469 14.5278C 223.102 15.3662 222.764 16.6157 222.48 18.1119C 221.919 21.0723 221.476 25.3293 221.135 30.3981C 220.454 40.5223 220.156 54.068 220.063 67.6068C 219.969 81.1455 220.078 94.7024 220.211 104.869C 220.278 109.953 220.35 114.192 220.406 117.159C 220.433 118.643 220.457 119.809 220.474 120.604C 220.482 121.001 220.489 121.307 220.493 121.512C 220.496 121.615 220.497 121.693 220.499 121.745C 220.499 121.771 220.5 121.791 220.5 121.804C 220.5 121.811 220.5 121.816 220.5 121.819C 220.5 121.821 220.5 121.822 220.5 121.823C 220.5 121.824 220.5 121.824 221.5 121.801ZM 225.423 14.7983C 225.316 14.79 225.478 14.7461 225.835 15.3215C 226.18 15.8692 226.504 16.6483 226.853 17.7335C 227.566 19.9356 228.237 23.054 228.89 26.8458C 230.198 34.4443 231.382 44.5397 232.506 54.6616C 233.631 64.7836 234.695 74.9224 235.76 82.5642C 236.293 86.3899 236.833 89.625 237.379 91.9092C 237.656 93.0636 237.956 94.0414 238.253 94.7153C 238.413 95.0703 238.621 95.4285 238.812 95.664C 239.023 95.9181 239.377 96.2381 239.89 96.2951L 240.111 94.3073C 240.342 94.3331 240.416 94.4656 240.35 94.3857C 240.263 94.2872 240.196 94.1649 240.081 93.9027C 239.83 93.3423 239.586 92.5388 239.324 91.4432C 238.793 89.2274 238.27 86.0875 237.741 82.2882C 236.68 74.68 235.619 64.5688 234.494 54.4408C 233.369 44.3127 232.177 34.1581 230.861 26.5066C 230.201 22.6734 229.497 19.4168 228.756 17.1189C 228.379 15.9541 227.957 14.9519 227.534 14.2653C 227.124 13.6063 226.497 12.8749 225.577 12.8041L 225.423 14.7983ZM 239.89 96.2951C 240.735 96.389 241.304 95.8156 241.617 95.3593C 241.916 94.9136 242.21 94.2322 242.441 93.4827C 242.888 92.0243 243.273 89.9118 243.593 87.4371C 244.23 82.5067 244.655 75.8858 244.937 69.2813C 245.218 62.6769 245.359 56.0533 245.43 51.0888C 245.465 48.6055 245.482 46.5331 245.491 45.0836C 245.496 44.3584 245.498 43.7877 245.499 43.3991C 245.5 43.2046 245.5 43.0551 245.5 42.9546C 245.5 42.9042 245.5 42.8659 245.5 42.8403C 245.5 42.8274 245.5 42.8177 245.5 42.8112C 245.5 42.8079 245.5 42.8054 245.5 42.8038C 245.5 42.803 245.5 42.8023 245.5 42.8019C 245.5 42.8014 245.5 42.8012 244.5 42.8012C 243.5 42.8012 243.5 42.8014 243.5 42.8017C 243.5 42.8021 243.5 42.8027 243.5 42.8035C 243.5 42.805 243.5 42.8074 243.5 42.8105C 243.5 42.8169 243.5 42.8263 243.5 42.8389C 243.5 42.8643 243.5 42.902 243.5 42.9519C 243.5 43.0519 243.5 43.1999 243.499 43.3935C 243.498 43.781 243.496 44.3485 243.491 45.0715C 243.483 46.5185 243.465 48.5828 243.43 51.0605C 243.36 56.0179 243.219 62.613 242.939 69.1961C 242.658 75.7791 242.239 82.3145 241.61 87.1809C 241.297 89.6046 240.945 91.5508 240.53 92.8951C 240.331 93.5469 240.162 93.9529 239.967 94.2287C 239.786 94.4939 239.828 94.2759 240.111 94.3073L 239.89 96.2951ZM 185.968 122.053C 188.916 110.723 191.349 103.062 193.382 98.2993C 194.397 95.9218 195.278 94.3513 196.025 93.4314C 196.816 92.4566 197.196 92.5108 197.254 92.5254L 197.746 90.5871C 196.465 90.2614 195.352 91.0872 194.472 92.1709C 193.548 93.3095 192.58 95.0845 191.543 97.5144C 189.474 102.366 186.995 110.168 184.032 121.549L 185.968 122.053ZM 197.254 92.5254C 197.376 92.5566 197.686 92.7372 198.094 93.479C 198.503 94.2168 198.86 95.224 199.212 96.5726C 199.927 99.3018 200.492 103.081 200.967 107.621C 201.92 116.718 202.474 128.651 203.028 140.545C 203.581 152.439 204.135 164.295 205.084 173.177C 205.56 177.627 206.146 181.391 206.881 184.025C 207.256 185.361 207.711 186.509 208.2 187.283C 208.703 188.071 209.45 188.801 210.5 188.801L 210.5 186.801C 210.484 186.801 210.262 186.796 209.885 186.206C 209.492 185.601 209.152 184.726 208.807 183.486C 208.101 180.967 207.543 177.367 207.073 172.964C 206.129 164.142 205.579 152.346 205.025 140.452C 204.472 128.559 203.914 116.567 202.956 107.413C 202.476 102.828 201.886 98.9001 201.147 96.0668C 200.771 94.6342 200.327 93.3964 199.847 92.5161C 199.365 91.6398 198.699 90.8293 197.746 90.5871L 197.254 92.5254Z"/>
<path id="path5_fill" d="M 11.5977 17.5469L 4.44922 17.5469L 2.84375 22L 0.523438 22L 7.03906 4.9375L 9.00781 4.9375L 15.5352 22L 13.2266 22L 11.5977 17.5469ZM 5.12891 15.6953L 10.9297 15.6953L 8.02344 7.71484L 5.12891 15.6953ZM 19.543 9.32031L 19.6133 10.9141C 20.582 9.69531 21.8477 9.08594 23.4102 9.08594C 26.0898 9.08594 27.4414 10.5977 27.4648 13.6211L 27.4648 22L 25.2969 22L 25.2969 13.6094C 25.2891 12.6953 25.0781 12.0195 24.6641 11.582C 24.2578 11.1445 23.6211 10.9258 22.7539 10.9258C 22.0508 10.9258 21.4336 11.1133 20.9023 11.4883C 20.3711 11.8633 19.957 12.3555 19.6602 12.9648L 19.6602 22L 17.4922 22L 17.4922 9.32031L 19.543 9.32031ZM 36.1133 15.543C 36.1133 14.3008 36.3555 13.1836 36.8398 12.1914C 37.332 11.1992 38.0117 10.4336 38.8789 9.89453C 39.7539 9.35547 40.75 9.08594 41.8672 9.08594C 43.5938 9.08594 44.9883 9.68359 46.0508 10.8789C 47.1211 12.0742 47.6562 13.6641 47.6562 15.6484L 47.6562 15.8008C 47.6562 17.0352 47.418 18.1445 46.9414 19.1289C 46.4727 20.1055 45.7969 20.8672 44.9141 21.4141C 44.0391 21.9609 43.0312 22.2344 41.8906 22.2344C 40.1719 22.2344 38.7773 21.6367 37.707 20.4414C 36.6445 19.2461 36.1133 17.6641 36.1133 15.6953L 36.1133 15.543ZM 38.293 15.8008C 38.293 17.207 38.6172 18.3359 39.2656 19.1875C 39.9219 20.0391 40.7969 20.4648 41.8906 20.4648C 42.9922 20.4648 43.8672 20.0352 44.5156 19.1758C 45.1641 18.3086 45.4883 17.0977 45.4883 15.543C 45.4883 14.1523 45.1562 13.0273 44.4922 12.168C 43.8359 11.3008 42.9609 10.8672 41.8672 10.8672C 40.7969 10.8672 39.9336 11.293 39.2773 12.1445C 38.6211 12.9961 38.293 14.2148 38.293 15.8008ZM 54.3711 19.0586L 57.5117 9.32031L 59.7266 9.32031L 55.1797 22L 53.5273 22L 48.9336 9.32031L 51.1484 9.32031L 54.3711 19.0586ZM 66.9102 22.2344C 65.1914 22.2344 63.793 21.6719 62.7148 20.5469C 61.6367 19.4141 61.0977 17.9023 61.0977 16.0117L 61.0977 15.6133C 61.0977 14.3555 61.3359 13.2344 61.8125 12.25C 62.2969 11.2578 62.9688 10.4844 63.8281 9.92969C 64.6953 9.36719 65.6328 9.08594 66.6406 9.08594C 68.2891 9.08594 69.5703 9.62891 70.4844 10.7148C 71.3984 11.8008 71.8555 13.3555 71.8555 15.3789L 71.8555 16.2812L 63.2656 16.2812C 63.2969 17.5312 63.6602 18.543 64.3555 19.3164C 65.0586 20.082 65.9492 20.4648 67.0273 20.4648C 67.793 20.4648 68.4414 20.3086 68.9727 19.9961C 69.5039 19.6836 69.9688 19.2695 70.3672 18.7539L 71.6914 19.7852C 70.6289 21.418 69.0352 22.2344 66.9102 22.2344ZM 66.6406 10.8672C 65.7656 10.8672 65.0312 11.1875 64.4375 11.8281C 63.8438 12.4609 63.4766 13.3516 63.3359 14.5L 69.6875 14.5L 69.6875 14.3359C 69.625 13.2344 69.3281 12.3828 68.7969 11.7812C 68.2656 11.1719 67.5469 10.8672 66.6406 10.8672ZM 80.5039 11.2656C 80.1758 11.2109 79.8203 11.1836 79.4375 11.1836C 78.0156 11.1836 77.0508 11.7891 76.543 13L 76.543 22L 74.375 22L 74.375 9.32031L 76.4844 9.32031L 76.5195 10.7852C 77.2305 9.65234 78.2383 9.08594 79.543 9.08594C 79.9648 9.08594 80.2852 9.14062 80.5039 9.25L 80.5039 11.2656ZM 83.2344 22L 83.2344 10.9961L 81.2305 10.9961L 81.2305 9.32031L 83.2344 9.32031L 83.2344 8.24219C 83.2344 6.82812 83.6367 5.72656 84.4414 4.9375C 85.2539 4.14844 86.3984 3.75391 87.875 3.75391C 88.75 3.75391 89.8555 3.99219 91.1914 4.46875L 90.8281 6.29688C 89.8516 5.90625 88.9219 5.71094 88.0391 5.71094C 87.1094 5.71094 86.4375 5.92188 86.0234 6.34375C 85.6172 6.75781 85.4141 7.38281 85.4141 8.21875L 85.4141 9.32031L 88.0039 9.32031L 88.0039 10.9961L 85.4141 10.9961L 85.4141 22L 83.2344 22ZM 92.2695 22L 90.0898 22L 90.0898 9.32031L 92.2695 9.32031L 92.2695 22ZM 98.7383 6.25L 98.7383 9.32031L 101.105 9.32031L 101.105 10.9961L 98.7383 10.9961L 98.7383 18.8594C 98.7383 19.3672 98.8438 19.75 99.0547 20.0078C 99.2656 20.2578 99.625 20.3828 100.133 20.3828C 100.383 20.3828 100.727 20.3359 101.164 20.2422L 101.164 22C 100.594 22.1562 100.039 22.2344 99.5 22.2344C 98.5312 22.2344 97.8008 21.9414 97.3086 21.3555C 96.8164 20.7695 96.5703 19.9375 96.5703 18.8594L 96.5703 10.9961L 94.2617 10.9961L 94.2617 9.32031L 96.5703 9.32031L 96.5703 6.25L 98.7383 6.25ZM 111.641 9.32031L 111.699 10.7266C 112.629 9.63281 113.883 9.08594 115.461 9.08594C 117.234 9.08594 118.441 9.76562 119.082 11.125C 119.504 10.5156 120.051 10.0234 120.723 9.64844C 121.402 9.27344 122.203 9.08594 123.125 9.08594C 125.906 9.08594 127.32 10.5586 127.367 13.5039L 127.367 22L 125.199 22L 125.199 13.6328C 125.199 12.7266 124.992 12.0508 124.578 11.6055C 124.164 11.1523 123.469 10.9258 122.492 10.9258C 121.688 10.9258 121.02 11.168 120.488 11.6523C 119.957 12.1289 119.648 12.7734 119.562 13.5859L 119.562 22L 117.383 22L 117.383 13.6914C 117.383 11.8477 116.48 10.9258 114.676 10.9258C 113.254 10.9258 112.281 11.5312 111.758 12.7422L 111.758 22L 109.59 22L 109.59 9.32031L 111.641 9.32031ZM 130.074 15.543C 130.074 14.3008 130.316 13.1836 130.801 12.1914C 131.293 11.1992 131.973 10.4336 132.84 9.89453C 133.715 9.35547 134.711 9.08594 135.828 9.08594C 137.555 9.08594 138.949 9.68359 140.012 10.8789C 141.082 12.0742 141.617 13.6641 141.617 15.6484L 141.617 15.8008C 141.617 17.0352 141.379 18.1445 140.902 19.1289C 140.434 20.1055 139.758 20.8672 138.875 21.4141C 138 21.9609 136.992 22.2344 135.852 22.2344C 134.133 22.2344 132.738 21.6367 131.668 20.4414C 130.605 19.2461 130.074 17.6641 130.074 15.6953L 130.074 15.543ZM 132.254 15.8008C 132.254 17.207 132.578 18.3359 133.227 19.1875C 133.883 20.0391 134.758 20.4648 135.852 20.4648C 136.953 20.4648 137.828 20.0352 138.477 19.1758C 139.125 18.3086 139.449 17.0977 139.449 15.543C 139.449 14.1523 139.117 13.0273 138.453 12.168C 137.797 11.3008 136.922 10.8672 135.828 10.8672C 134.758 10.8672 133.895 11.293 133.238 12.1445C 132.582 12.9961 132.254 14.2148 132.254 15.8008ZM 143.809 15.5547C 143.809 13.6094 144.27 12.0469 145.191 10.8672C 146.113 9.67969 147.32 9.08594 148.812 9.08594C 150.297 9.08594 151.473 9.59375 152.34 10.6094L 152.34 4L 154.508 4L 154.508 22L 152.516 22L 152.41 20.6406C 151.543 21.7031 150.336 22.2344 148.789 22.2344C 147.32 22.2344 146.121 21.6328 145.191 20.4297C 144.27 19.2266 143.809 17.6562 143.809 15.7188L 143.809 15.5547ZM 145.977 15.8008C 145.977 17.2383 146.273 18.3633 146.867 19.1758C 147.461 19.9883 148.281 20.3945 149.328 20.3945C 150.703 20.3945 151.707 19.7773 152.34 18.543L 152.34 12.7188C 151.691 11.5234 150.695 10.9258 149.352 10.9258C 148.289 10.9258 147.461 11.3359 146.867 12.1562C 146.273 12.9766 145.977 14.1914 145.977 15.8008ZM 163.145 22.2344C 161.426 22.2344 160.027 21.6719 158.949 20.5469C 157.871 19.4141 157.332 17.9023 157.332 16.0117L 157.332 15.6133C 157.332 14.3555 157.57 13.2344 158.047 12.25C 158.531 11.2578 159.203 10.4844 160.062 9.92969C 160.93 9.36719 161.867 9.08594 162.875 9.08594C 164.523 9.08594 165.805 9.62891 166.719 10.7148C 167.633 11.8008 168.09 13.3555 168.09 15.3789L 168.09 16.2812L 159.5 16.2812C 159.531 17.5312 159.895 18.543 160.59 19.3164C 161.293 20.082 162.184 20.4648 163.262 20.4648C 164.027 20.4648 164.676 20.3086 165.207 19.9961C 165.738 19.6836 166.203 19.2695 166.602 18.7539L 167.926 19.7852C 166.863 21.418 165.27 22.2344 163.145 22.2344ZM 162.875 10.8672C 162 10.8672 161.266 11.1875 160.672 11.8281C 160.078 12.4609 159.711 13.3516 159.57 14.5L 165.922 14.5L 165.922 14.3359C 165.859 13.2344 165.562 12.3828 165.031 11.7812C 164.5 11.1719 163.781 10.8672 162.875 10.8672ZM 172.965 22L 170.797 22L 170.797 4L 172.965 4L 172.965 22Z"/>
<path id="path6_fill" d="M 11.5898 17.5469L 4.44141 17.5469L 2.83594 22L 0.515625 22L 7.03125 4.9375L 9 4.9375L 15.5273 22L 13.2188 22L 11.5898 17.5469ZM 5.12109 15.6953L 10.9219 15.6953L 8.01562 7.71484L 5.12109 15.6953ZM 34.6641 19.0117L 37.1016 9.32031L 39.2695 9.32031L 35.5781 22L 33.8203 22L 30.7383 12.3906L 27.7383 22L 25.9805 22L 22.3008 9.32031L 24.457 9.32031L 26.9531 18.8125L 29.9062 9.32031L 31.6523 9.32031L 34.6641 19.0117ZM 46.7461 22.2344C 45.0273 22.2344 43.6289 21.6719 42.5508 20.5469C 41.4727 19.4141 40.9336 17.9023 40.9336 16.0117L 40.9336 15.6133C 40.9336 14.3555 41.1719 13.2344 41.6484 12.25C 42.1328 11.2578 42.8047 10.4844 43.6641 9.92969C 44.5312 9.36719 45.4688 9.08594 46.4766 9.08594C 48.125 9.08594 49.4062 9.62891 50.3203 10.7148C 51.2344 11.8008 51.6914 13.3555 51.6914 15.3789L 51.6914 16.2812L 43.1016 16.2812C 43.1328 17.5312 43.4961 18.543 44.1914 19.3164C 44.8945 20.082 45.7852 20.4648 46.8633 20.4648C 47.6289 20.4648 48.2773 20.3086 48.8086 19.9961C 49.3398 19.6836 49.8047 19.2695 50.2031 18.7539L 51.5273 19.7852C 50.4648 21.418 48.8711 22.2344 46.7461 22.2344ZM 46.4766 10.8672C 45.6016 10.8672 44.8672 11.1875 44.2734 11.8281C 43.6797 12.4609 43.3125 13.3516 43.1719 14.5L 49.5234 14.5L 49.5234 14.3359C 49.4609 13.2344 49.1641 12.3828 48.6328 11.7812C 48.1016 11.1719 47.3828 10.8672 46.4766 10.8672ZM 56.5664 22L 54.3984 22L 54.3984 4L 56.5664 4L 56.5664 22ZM 62.4023 22L 60.2344 22L 60.2344 4L 62.4023 4L 62.4023 22ZM 70.3945 15.6367L 64.6758 15.6367L 64.6758 13.8672L 70.3945 13.8672L 70.3945 15.6367ZM 73.2422 22L 73.2422 10.9961L 71.2383 10.9961L 71.2383 9.32031L 73.2422 9.32031L 73.2422 8.24219C 73.2422 6.82813 73.6445 5.72656 74.4492 4.9375C 75.2617 4.14844 76.4062 3.75391 77.8828 3.75391C 78.7578 3.75391 79.8633 3.99219 81.1992 4.46875L 80.8359 6.29688C 79.8594 5.90625 78.9297 5.71094 78.0469 5.71094C 77.1172 5.71094 76.4453 5.92188 76.0312 6.34375C 75.625 6.75781 75.4219 7.38281 75.4219 8.21875L 75.4219 9.32031L 78.0117 9.32031L 78.0117 10.9961L 75.4219 10.9961L 75.4219 22L 73.2422 22ZM 82.2773 22L 80.0977 22L 80.0977 9.32031L 82.2773 9.32031L 82.2773 22ZM 88.7461 6.25L 88.7461 9.32031L 91.1133 9.32031L 91.1133 10.9961L 88.7461 10.9961L 88.7461 18.8594C 88.7461 19.3672 88.8516 19.75 89.0625 20.0078C 89.2734 20.2578 89.6328 20.3828 90.1406 20.3828C 90.3906 20.3828 90.7344 20.3359 91.1719 20.2422L 91.1719 22C 90.6016 22.1562 90.0469 22.2344 89.5078 22.2344C 88.5391 22.2344 87.8086 21.9414 87.3164 21.3555C 86.8242 20.7695 86.5781 19.9375 86.5781 18.8594L 86.5781 10.9961L 84.2695 10.9961L 84.2695 9.32031L 86.5781 9.32031L 86.5781 6.25L 88.7461 6.25ZM 101.648 9.32031L 101.707 10.7266C 102.637 9.63281 103.891 9.08594 105.469 9.08594C 107.242 9.08594 108.449 9.76562 109.09 11.125C 109.512 10.5156 110.059 10.0234 110.73 9.64844C 111.41 9.27344 112.211 9.08594 113.133 9.08594C 115.914 9.08594 117.328 10.5586 117.375 13.5039L 117.375 22L 115.207 22L 115.207 13.6328C 115.207 12.7266 115 12.0508 114.586 11.6055C 114.172 11.1523 113.477 10.9258 112.5 10.9258C 111.695 10.9258 111.027 11.168 110.496 11.6523C 109.965 12.1289 109.656 12.7734 109.57 13.5859L 109.57 22L 107.391 22L 107.391 13.6914C 107.391 11.8477 106.488 10.9258 104.684 10.9258C 103.262 10.9258 102.289 11.5313 101.766 12.7422L 101.766 22L 99.5977 22L 99.5977 9.32031L 101.648 9.32031ZM 120.082 15.543C 120.082 14.3008 120.324 13.1836 120.809 12.1914C 121.301 11.1992 121.98 10.4336 122.848 9.89453C 123.723 9.35547 124.719 9.08594 125.836 9.08594C 127.562 9.08594 128.957 9.68359 130.02 10.8789C 131.09 12.0742 131.625 13.6641 131.625 15.6484L 131.625 15.8008C 131.625 17.0352 131.387 18.1445 130.91 19.1289C 130.441 20.1055 129.766 20.8672 128.883 21.4141C 128.008 21.9609 127 22.2344 125.859 22.2344C 124.141 22.2344 122.746 21.6367 121.676 20.4414C 120.613 19.2461 120.082 17.6641 120.082 15.6953L 120.082 15.543ZM 122.262 15.8008C 122.262 17.207 122.586 18.3359 123.234 19.1875C 123.891 20.0391 124.766 20.4648 125.859 20.4648C 126.961 20.4648 127.836 20.0352 128.484 19.1758C 129.133 18.3086 129.457 17.0977 129.457 15.543C 129.457 14.1523 129.125 13.0273 128.461 12.168C 127.805 11.3008 126.93 10.8672 125.836 10.8672C 124.766 10.8672 123.902 11.293 123.246 12.1445C 122.59 12.9961 122.262 14.2148 122.262 15.8008ZM 133.816 15.5547C 133.816 13.6094 134.277 12.0469 135.199 10.8672C 136.121 9.67969 137.328 9.08594 138.82 9.08594C 140.305 9.08594 141.48 9.59375 142.348 10.6094L 142.348 4L 144.516 4L 144.516 22L 142.523 22L 142.418 20.6406C 141.551 21.7031 140.344 22.2344 138.797 22.2344C 137.328 22.2344 136.129 21.6328 135.199 20.4297C 134.277 19.2266 133.816 17.6563 133.816 15.7188L 133.816 15.5547ZM 135.984 15.8008C 135.984 17.2383 136.281 18.3633 136.875 19.1758C 137.469 19.9883 138.289 20.3945 139.336 20.3945C 140.711 20.3945 141.715 19.7773 142.348 18.543L 142.348 12.7188C 141.699 11.5234 140.703 10.9258 139.359 10.9258C 138.297 10.9258 137.469 11.3359 136.875 12.1562C 136.281 12.9766 135.984 14.1914 135.984 15.8008ZM 153.152 22.2344C 151.434 22.2344 150.035 21.6719 148.957 20.5469C 147.879 19.4141 147.34 17.9023 147.34 16.0117L 147.34 15.6133C 147.34 14.3555 147.578 13.2344 148.055 12.25C 148.539 11.2578 149.211 10.4844 150.07 9.92969C 150.938 9.36719 151.875 9.08594 152.883 9.08594C 154.531 9.08594 155.812 9.62891 156.727 10.7148C 157.641 11.8008 158.098 13.3555 158.098 15.3789L 158.098 16.2812L 149.508 16.2812C 149.539 17.5312 149.902 18.543 150.598 19.3164C 151.301 20.082 152.191 20.4648 153.27 20.4648C 154.035 20.4648 154.684 20.3086 155.215 19.9961C 155.746 19.6836 156.211 19.2695 156.609 18.7539L 157.934 19.7852C 156.871 21.418 155.277 22.2344 153.152 22.2344ZM 152.883 10.8672C 152.008 10.8672 151.273 11.1875 150.68 11.8281C 150.086 12.4609 149.719 13.3516 149.578 14.5L 155.93 14.5L 155.93 14.3359C 155.867 13.2344 155.57 12.3828 155.039 11.7812C 154.508 11.1719 153.789 10.8672 152.883 10.8672ZM 162.973 22L 160.805 22L 160.805 4L 162.973 4L 162.973 22Z"/>
</defs>
</svg>
