<svg width="400" height="303" viewBox="0 0 400 303" fill="none" xmlns="http://www.w3.org/2000/svg">
<rect width="400" height="303" fill="white"/>
<path d="M149.968 42.8697H6.72838C5.22777 42.8697 4 41.6422 4 40.142V6.7277C4 5.22746 5.22777 4 6.72838 4H149.968C151.469 4 152.697 5.22746 152.697 6.7277V40.142C152.697 41.6422 151.469 42.8697 149.968 42.8697Z" fill="black"/>
<path d="M43.9025 25.8898C43.9025 25.4806 43.8343 25.2078 43.6297 24.9351C43.4251 24.6623 43.2204 24.4577 42.9476 24.2531C42.6748 24.0486 42.3337 23.9122 42.0609 23.7758C41.7198 23.6394 41.3788 23.5712 41.1059 23.4348C40.6285 23.2984 40.2192 23.0939 39.7418 22.8893C39.2643 22.6847 38.855 22.4119 38.514 22.1392C38.1047 21.8664 37.8319 21.5254 37.559 21.1163C37.2862 20.7071 37.218 20.2298 37.218 19.6842C37.218 19.1387 37.3544 18.6614 37.559 18.2522C37.8319 17.8431 38.1047 17.4339 38.514 17.1611C38.9232 16.8884 39.3325 16.6156 39.81 16.4792C40.2874 16.3428 40.7649 16.2746 41.3106 16.2746C41.8562 16.2746 42.4019 16.3428 42.8794 16.5474C43.3569 16.752 43.8343 16.9566 44.2436 17.2975C44.6528 17.6385 44.9257 18.0476 45.1985 18.525C45.4713 19.0023 45.5396 19.5479 45.5396 20.0934H43.9025C43.8343 19.7524 43.7661 19.4115 43.6297 19.0705C43.4933 18.7296 43.2886 18.525 43.084 18.3204C42.8794 18.1158 42.6065 17.9112 42.3337 17.8431C42.0609 17.7067 41.7198 17.6385 41.3106 17.6385C41.0377 17.6385 40.6967 17.7067 40.4238 17.7749C40.151 17.8431 39.8782 17.9794 39.6735 18.184C39.4689 18.3886 39.2643 18.5932 39.1279 18.7977C38.9914 19.0705 38.9232 19.3433 38.9232 19.6842C38.9232 20.0252 38.9914 20.3662 39.1961 20.6389C39.4007 20.9117 39.6053 21.1163 39.8782 21.2527C40.151 21.4573 40.4238 21.5936 40.7649 21.6618C41.1059 21.7982 41.3788 21.8664 41.6516 21.9346C41.9927 22.0028 42.2655 22.1392 42.6065 22.2756C42.9476 22.4119 43.2204 22.5483 43.4933 22.6847C43.7661 22.8211 44.0389 23.0257 44.3118 23.2303C44.5846 23.4348 44.7893 23.6394 44.9939 23.9122C45.1985 24.185 45.3349 24.4577 45.4713 24.7305C45.6078 25.0715 45.6078 25.4124 45.6078 25.7534C45.6078 26.2989 45.4713 26.8445 45.1985 27.2536C44.9257 27.6628 44.6528 28.0037 44.2436 28.2765C43.8343 28.5493 43.4251 28.7538 42.8794 28.8902C42.3337 29.0266 41.8562 29.2312 41.3788 29.2312C40.8331 29.2312 40.2874 29.163 39.7418 28.9584C39.1961 28.7538 38.7186 28.5493 38.3094 28.2083C37.9001 27.8673 37.559 27.4582 37.2862 26.9808C37.0134 26.5035 36.877 25.958 36.877 25.3442H38.514C38.5822 25.7534 38.6504 26.0943 38.855 26.3671C39.0597 26.6399 39.1961 26.9126 39.4689 27.1172C39.7418 27.3218 40.0146 27.4582 40.3556 27.5946C40.6967 27.731 41.0377 27.731 41.447 27.731C41.788 27.731 42.0609 27.6628 42.4019 27.5946C42.6748 27.5264 42.9476 27.39 43.2204 27.2536C43.4933 27.1172 43.6297 26.9126 43.8343 26.6399C44.0389 26.3671 43.9025 26.2307 43.9025 25.8898Z" fill="#E69F00"/>
<path d="M54.8843 23.2303H49.6321V27.731H55.771V29.0948H47.9951V16.4792H55.6346V17.8431H49.5639V21.8664H54.8161V23.2303H54.8843Z" fill="#E69F00"/>
<path d="M60.4092 27.731H66.5481V29.0948H58.7722V16.4792H60.341V27.731H60.4092Z" fill="#E69F00"/>
<path d="M76.1656 23.2303H70.9135V27.731H77.0524V29.0948H69.2765V16.4792H76.916V17.8431H70.8453V21.8664H76.0974V23.2303H76.1656Z" fill="#E69F00"/>
<path d="M88.0341 25.276C87.9659 25.8898 87.8295 26.3671 87.5566 26.9127C87.2838 27.4582 87.011 27.7992 86.6699 28.1401C86.3289 28.4811 85.8514 28.7539 85.3739 28.9584C84.8965 29.163 84.3508 29.2312 83.7369 29.2312C83.1912 29.2312 82.7138 29.163 82.3045 29.0266C81.8953 28.8902 81.486 28.6857 81.1449 28.4129C80.8039 28.1401 80.5311 27.8674 80.2582 27.5264C79.9854 27.1854 79.849 26.7763 79.6443 26.3671C79.5079 25.958 79.3715 25.5488 79.3033 25.0715C79.2351 24.5941 79.1669 24.185 79.1669 23.7076V21.9346C79.1669 21.4573 79.2351 20.9799 79.3033 20.5708C79.3715 20.0934 79.5079 19.6843 79.6443 19.2751C79.7808 18.866 79.9854 18.4568 80.2582 18.1158C80.5311 17.7749 80.8039 17.4339 81.1449 17.1611C81.486 16.8884 81.827 16.6838 82.3045 16.5474C82.782 16.411 83.1912 16.3428 83.7369 16.3428C84.3508 16.3428 84.8965 16.411 85.4421 16.6156C85.9878 16.8202 86.3971 17.093 86.7381 17.4339C87.0792 17.7749 87.352 18.184 87.6248 18.7296C87.8295 19.2069 87.9659 19.7525 88.0341 20.3662H86.4653C86.3971 19.957 86.3289 19.6161 86.1924 19.2751C86.056 18.9341 85.9196 18.6614 85.715 18.3886C85.5104 18.1158 85.2375 17.9795 84.9647 17.7749C84.6236 17.6385 84.2826 17.5703 83.8733 17.5703C83.4641 17.5703 83.123 17.6385 82.8502 17.7749C82.5773 17.9113 82.3045 18.0476 82.0999 18.2522C81.8953 18.4568 81.6906 18.7296 81.5542 19.0023C81.4178 19.2751 81.2814 19.6161 81.2132 19.8888C81.1449 20.1616 81.0767 20.5026 81.0085 20.8435C80.9403 21.1845 80.9403 21.5255 80.9403 21.7982V23.5712C80.9403 23.9122 80.9403 24.185 81.0085 24.5259C81.0767 24.8669 81.0767 25.2079 81.2132 25.4806C81.3496 25.7534 81.4178 26.0944 81.5542 26.3671C81.6906 26.6399 81.8953 26.9127 82.0999 27.1172C82.3045 27.3218 82.5773 27.5264 82.8502 27.5946C83.123 27.6628 83.4641 27.7992 83.8733 27.7992C84.2826 27.7992 84.6918 27.731 84.9647 27.5946C85.3057 27.4582 85.5104 27.2536 85.715 27.049C85.9196 26.8445 86.1242 26.5035 86.1924 26.2307C86.2607 25.958 86.3971 25.5488 86.4653 25.1397H88.0341V25.276Z" fill="#E69F00"/>
<path d="M99.0158 17.8431H95.1279V29.0948H93.5591V17.8431H89.6711V16.4792H99.0158V17.8431Z" fill="#E69F00"/>
<path d="M114.909 23.1621L111.635 22.3438L112.112 20.8435L115.25 22.1392L115.045 18.525H116.614L116.341 22.2074L119.479 20.9117L119.956 22.412L116.682 23.2303L118.933 26.0262L117.637 26.9809L115.795 23.844L113.954 26.9127L112.658 26.0262L114.909 23.1621Z" fill="white"/>
<path d="M12.7308 65.646L15.1181 56.5082H16.6187L13.1401 69.1238H11.5712L11.503 59.645L8.36539 69.1238H6.79657L7.27404 56.5082H8.77465L8.22897 65.646L11.2302 56.5082H12.5944L12.7308 65.646Z" fill="black"/>
<path d="M19.3471 61.1453C19.5517 60.9407 19.7564 60.6679 19.961 60.5315C20.1656 60.3269 20.4385 60.1906 20.6431 60.0542C20.9159 59.9178 21.1888 59.7814 21.4616 59.7132C21.7344 59.645 22.0073 59.5768 22.3483 59.5768C22.894 59.5768 23.3032 59.7132 23.7125 59.9178C24.1218 60.1224 24.3264 60.3951 24.531 60.7361C24.7356 61.0771 24.8721 61.4862 24.9403 61.8954C25.0085 62.3045 25.0085 62.7819 24.9403 63.2592L23.9853 69.1238H22.4165L23.4397 63.191C23.5079 62.9183 23.5079 62.5773 23.4397 62.3045C23.3715 62.0318 23.3032 61.8272 23.1668 61.6226C23.0304 61.418 22.894 61.2816 22.6212 61.1453C22.4165 61.0089 22.1437 60.9407 21.8026 60.9407C21.5298 60.9407 21.257 60.9407 21.0523 61.0089C20.7795 61.0771 20.5749 61.1453 20.3702 61.2816C20.1656 61.418 19.961 61.5544 19.7564 61.6908C19.5517 61.8272 19.4153 62.0318 19.2107 62.2363L18.0511 69.0556H16.4823L18.7332 55.8262H20.302L19.3471 61.1453Z" fill="black"/>
<path d="M28.76 59.7132H33.3983L32.0341 67.6917H35.0353L34.7624 69.0556H27.123L27.3958 67.6917H30.4652L31.6248 61.0771H28.5554L28.76 59.7132ZM32.0341 57.3265C32.0341 57.0537 32.1023 56.8491 32.3069 56.6446C32.5115 56.44 32.7162 56.3718 32.989 56.3718C33.1254 56.3718 33.2618 56.3718 33.3983 56.44C33.5347 56.5082 33.6029 56.5764 33.6711 56.6446C33.7393 56.7128 33.8075 56.8491 33.8757 56.9173C33.9439 57.0537 33.9439 57.1901 33.9439 57.3265C33.9439 57.5993 33.8757 57.8038 33.6711 58.0084C33.4665 58.213 33.2618 58.2812 32.989 58.2812C32.7162 58.2812 32.5115 58.213 32.3069 58.0766C32.1023 57.8038 32.0341 57.5993 32.0341 57.3265Z" fill="black"/>
<path d="M41.3106 67.9645C41.5834 67.9645 41.8562 67.9645 42.1291 67.8281C42.4019 67.6917 42.6748 67.6235 42.8794 67.4872C43.084 67.3508 43.2886 67.1462 43.4933 66.8734C43.6979 66.6007 43.7661 66.3961 43.8343 66.1233H45.3349C45.2667 66.6007 45.1303 67.0098 44.8575 67.419C44.5846 67.8281 44.2436 68.1691 43.9025 68.4419C43.5615 68.7146 43.084 68.9192 42.6066 69.0556C42.1291 69.192 41.7198 69.2602 41.2424 69.2602C40.5603 69.2602 40.0146 69.1238 39.5371 68.851C39.0597 68.5782 38.7186 68.2373 38.4458 67.8281C38.1729 67.419 37.9683 66.8734 37.8319 66.3279C37.6955 65.7823 37.6955 65.1686 37.7637 64.6231L37.8319 64.2821C37.9001 63.873 37.9683 63.4638 38.1047 63.0546C38.2411 62.6455 38.3776 62.3045 38.5822 61.8954C38.7868 61.5544 39.0597 61.2134 39.3325 60.9407C39.6053 60.6679 39.9464 60.3951 40.2874 60.1906C40.6285 59.986 40.9695 59.8496 41.3788 59.7132C41.788 59.5768 42.1973 59.5768 42.6748 59.5768C43.1522 59.5768 43.6297 59.7132 44.039 59.8496C44.4482 59.986 44.7893 60.2588 45.0621 60.5315C45.3349 60.8043 45.6078 61.2134 45.7442 61.6226C45.8806 62.0318 45.9488 62.5091 45.9488 62.9865H44.4482C44.4482 62.7137 44.4482 62.4409 44.3118 62.1681C44.1754 61.8954 44.1072 61.6908 43.9707 61.4862C43.8343 61.2816 43.6297 61.1453 43.3569 61.0089C43.084 60.8725 42.8794 60.8725 42.5383 60.8043C42.0609 60.8043 41.6516 60.8725 41.2424 61.0771C40.9013 61.2816 40.5603 61.5544 40.2874 61.8272C40.0146 62.1 39.81 62.5091 39.6735 62.9183C39.5371 63.3274 39.4007 63.7366 39.3325 64.1457L39.2643 64.4867C39.2643 64.7595 39.1961 64.964 39.1961 65.2368C39.1961 65.5096 39.1961 65.7823 39.2643 65.9869C39.3325 66.2597 39.4007 66.4643 39.4689 66.6689C39.5371 66.8734 39.6735 67.078 39.81 67.2826C39.9464 67.4872 40.151 67.5554 40.3556 67.6917C40.7649 67.8963 41.0377 67.9645 41.3106 67.9645Z" fill="black"/>
<path d="M50.5189 61.1453C50.7235 60.9407 50.9281 60.6679 51.1327 60.5315C51.3374 60.3269 51.6102 60.1906 51.8148 60.0542C52.0877 59.9178 52.3605 59.7814 52.6334 59.7132C52.9062 59.645 53.179 59.5768 53.5201 59.5768C54.0657 59.5768 54.475 59.7132 54.8843 59.9178C55.2935 60.1224 55.4982 60.3951 55.7028 60.7361C55.9074 61.0771 56.0438 61.4862 56.112 61.8954C56.1802 62.3045 56.1802 62.7819 56.112 63.2592L55.1571 69.1238H53.5883L54.6114 63.191C54.6796 62.9183 54.6796 62.5773 54.6114 62.3045C54.5432 62.0318 54.475 61.8272 54.3386 61.6226C54.2022 61.418 54.0657 61.2816 53.7929 61.1453C53.5883 61.0089 53.3154 60.9407 52.9744 60.9407C52.7016 60.9407 52.4287 60.9407 52.2241 61.0089C51.9513 61.0771 51.7466 61.1453 51.542 61.2816C51.3374 61.418 51.1327 61.5544 50.9281 61.6908C50.7235 61.8272 50.5871 62.0318 50.3824 62.2363L49.2229 69.0556H47.6541L49.9732 55.8262H51.542L50.5189 61.1453Z" fill="black"/>
<path d="M72.5505 67.9645C72.8233 67.9645 73.0962 67.9645 73.369 67.8281C73.6418 67.6917 73.9147 67.6235 74.1193 67.4872C74.3239 67.3508 74.5286 67.1462 74.7332 66.8734C74.9378 66.6007 75.006 66.3961 75.0742 66.1233H76.5749C76.5066 66.6007 76.3702 67.0098 76.0974 67.419C75.8245 67.8281 75.4835 68.1691 75.1425 68.4419C74.8014 68.7146 74.3239 68.9192 73.8465 69.0556C73.369 69.192 72.9598 69.2602 72.4823 69.2602C71.8002 69.2602 71.2545 69.1238 70.7771 68.851C70.2996 68.5782 69.9585 68.2373 69.6857 67.8281C69.4129 67.419 69.2082 66.8734 69.0718 66.3279C68.9354 65.7823 68.9354 65.1686 69.0036 64.6231L69.0718 64.2821C69.14 63.873 69.2082 63.4638 69.3447 63.0546C69.4811 62.6455 69.6175 62.3045 69.8221 61.8954C70.0267 61.5544 70.2996 61.2134 70.5724 60.9407C70.8453 60.6679 71.1863 60.3951 71.5274 60.1906C71.8684 59.986 72.2094 59.8496 72.6187 59.7132C73.028 59.5768 73.4372 59.5768 73.9147 59.5768C74.3922 59.5768 74.8696 59.7132 75.2789 59.8496C75.6881 59.986 76.0292 60.2588 76.302 60.5315C76.5749 60.8043 76.8477 61.2134 76.9841 61.6226C77.1205 62.0318 77.1887 62.5091 77.1887 62.9865H75.6881C75.6881 62.7137 75.6881 62.4409 75.5517 62.1681C75.4153 61.8954 75.3471 61.6908 75.2107 61.4862C75.0742 61.2816 74.8696 61.1453 74.5968 61.0089C74.3239 60.8725 74.1193 60.8725 73.7783 60.8043C73.3008 60.8043 72.8915 60.8725 72.4823 61.0771C72.1412 61.2816 71.8002 61.5544 71.5274 61.8272C71.2545 62.1 71.0499 62.5091 70.9135 62.9183C70.777 63.3274 70.6406 63.7366 70.5724 64.1457L70.5042 64.4867C70.5042 64.7595 70.436 64.964 70.436 65.2368C70.436 65.5096 70.436 65.7823 70.5042 65.9869C70.5724 66.2597 70.6406 66.4643 70.7088 66.6689C70.7771 66.8734 70.9135 67.078 71.0499 67.2826C71.1863 67.4872 71.3909 67.5554 71.5956 67.6917C72.0048 67.8963 72.2777 67.9645 72.5505 67.9645Z" fill="#61D199"/>
<path d="M79.3033 64.4185C79.3715 64.0093 79.4397 63.6002 79.5761 63.191C79.7125 62.7819 79.8489 62.3727 80.0536 62.0318C80.2582 61.6908 80.4628 61.3498 80.7357 61.0089C81.0085 60.7361 81.2813 60.4633 81.6224 60.2588C81.9634 60.0542 82.3045 59.8496 82.7137 59.7814C83.123 59.645 83.5322 59.5768 84.0097 59.645C84.6918 59.645 85.2375 59.7814 85.7149 60.0542C86.1924 60.3269 86.5335 60.6679 86.8063 61.1453C87.0791 61.6226 87.2838 62.1 87.4202 62.6455C87.5566 63.191 87.5566 63.8048 87.4884 64.3503V64.5549C87.4202 65.1686 87.2156 65.7823 87.0109 66.3961C86.7381 67.0098 86.397 67.4872 85.9878 67.9645C85.5785 68.4419 85.1011 68.7828 84.5554 68.9874C84.0097 69.2602 83.3958 69.3965 82.7137 69.3284C82.0316 69.3284 81.486 69.192 81.0085 68.9192C80.531 68.6464 80.19 68.3055 79.9171 67.8281C79.6443 67.3508 79.4397 66.8734 79.3033 66.3279C79.1668 65.7823 79.1668 65.1686 79.2351 64.6231L79.3033 64.4185ZM80.8721 64.5549C80.8721 64.8277 80.8039 65.0322 80.8039 65.305C80.8039 65.5778 80.8039 65.8505 80.8721 66.0551C80.9403 66.3279 81.0085 66.5325 81.0767 66.737C81.1449 66.9416 81.2813 67.1462 81.4178 67.3508C81.5542 67.5553 81.7588 67.6917 81.9634 67.7599C82.1681 67.8963 82.4409 67.8963 82.7137 67.9645C83.1912 67.9645 83.6005 67.8963 84.0097 67.6917C84.419 67.4872 84.6918 67.2144 84.9646 66.8734C85.2375 66.5325 85.4421 66.1915 85.5785 65.7142C85.7149 65.2368 85.8514 64.8958 85.9196 64.4867V64.2821C85.9878 63.9411 85.9878 63.532 85.9196 63.1228C85.9196 62.7137 85.7832 62.3727 85.6467 62.0318C85.5103 61.6908 85.3057 61.418 85.0329 61.2135C84.76 61.0089 84.419 60.8725 83.9415 60.8725C83.464 60.8725 83.0548 60.9407 82.6455 61.1453C82.2363 61.3498 81.9634 61.6226 81.6906 61.9636C81.4178 62.3045 81.2131 62.7137 81.0767 63.1228C80.9403 63.532 80.8039 63.9411 80.7357 64.3503L80.8721 64.5549Z" fill="#61D199"/>
<path d="M91.8538 55.8262H96.492L94.4458 67.7599H97.447L97.1741 69.1238H89.5347L89.8075 67.7599H92.8769L94.7186 57.1901H91.6492L91.8538 55.8262Z" fill="#61D199"/>
<path d="M105.905 67.8281C105.564 68.3055 105.086 68.6464 104.609 68.9192C104.132 69.192 103.586 69.3284 102.972 69.3284C102.426 69.3284 101.949 69.192 101.608 68.9874C101.267 68.7828 100.994 68.4419 100.789 68.1009C100.585 67.6917 100.448 67.2826 100.448 66.8052C100.38 66.3279 100.38 65.8505 100.448 65.3732L101.403 59.7814H102.972L102.017 65.3732C101.949 65.646 101.949 65.9869 101.949 66.2597C101.949 66.5325 101.949 66.8052 102.085 67.078C102.153 67.3508 102.29 67.5554 102.494 67.6917C102.699 67.8281 102.972 67.9645 103.313 67.9645C103.859 67.9645 104.404 67.8281 104.814 67.6235C105.223 67.419 105.632 67.0098 105.973 66.5325L107.133 59.7814H108.702L107.065 69.1238H105.632L105.905 67.8281Z" fill="#61D199"/>
<path d="M112.453 59.7132L112.248 60.5997C112.521 60.2588 112.794 59.986 113.067 59.8496C113.34 59.7132 113.749 59.5768 114.158 59.5768C114.363 59.5768 114.499 59.5768 114.636 59.645C114.772 59.7132 114.977 59.7132 115.113 59.8496C115.25 59.9178 115.386 60.0542 115.454 60.1906C115.523 60.3269 115.659 60.4633 115.659 60.6679C115.932 60.3951 116.205 60.1224 116.477 59.9178C116.75 59.7132 117.16 59.645 117.569 59.645C117.91 59.645 118.251 59.7132 118.456 59.8496C118.66 59.986 118.865 60.1906 119.001 60.3951C119.138 60.6679 119.206 60.8725 119.274 61.2134C119.342 61.4862 119.342 61.8272 119.274 62.1681L118.114 69.192H116.614L117.773 62.1681C117.773 62.0318 117.773 61.8272 117.773 61.6908C117.773 61.5544 117.705 61.418 117.637 61.3498C117.569 61.2134 117.501 61.1453 117.364 61.0771C117.228 61.0089 117.091 61.0089 116.887 61.0089C116.546 61.0089 116.273 61.0771 116.068 61.2816C115.864 61.4862 115.659 61.6908 115.591 61.9636L114.363 69.192H112.862L114.022 62.1681C114.022 62.0318 114.022 61.8954 114.022 61.759C114.022 61.6226 113.954 61.4862 113.886 61.418C113.817 61.2816 113.749 61.2134 113.613 61.1453C113.476 61.0771 113.34 61.0771 113.203 61.0089C112.931 61.0089 112.658 61.0771 112.453 61.2134C112.248 61.3498 112.044 61.4862 111.907 61.759L110.611 69.192H109.111L110.748 59.8496L112.453 59.7132Z" fill="#61D199"/>
<path d="M123.571 59.7132L123.367 61.0771C123.571 60.8725 123.776 60.5997 123.981 60.4633C124.185 60.3269 124.458 60.1224 124.731 59.986C125.004 59.8496 125.276 59.7132 125.549 59.645C125.822 59.5768 126.163 59.5086 126.436 59.5768C126.982 59.5768 127.391 59.7132 127.732 59.9178C128.073 60.1224 128.346 60.3951 128.619 60.6679C128.823 61.0089 128.96 61.3498 129.028 61.8272C129.096 62.2363 129.096 62.7137 129.028 63.191L128.005 69.1238H126.436L127.459 63.191C127.527 62.8501 127.527 62.5773 127.459 62.3045C127.459 62.0318 127.323 61.8272 127.255 61.6226C127.118 61.418 126.982 61.2816 126.709 61.1453C126.436 61.0089 126.231 60.9407 125.822 60.9407C125.549 60.9407 125.276 60.9407 125.072 61.0089C124.799 61.0771 124.594 61.2134 124.39 61.2816C124.185 61.3498 123.981 61.5544 123.776 61.759C123.571 61.9636 123.435 62.1681 123.23 62.3727L122.071 69.1238H120.502L122.139 59.7814L123.571 59.7132Z" fill="#61D199"/>
<path d="M137.486 66.5325C137.554 66.2597 137.486 66.0551 137.35 65.8505C137.213 65.646 137.077 65.5096 136.872 65.4414C136.667 65.305 136.463 65.2368 136.19 65.1686C135.917 65.1004 135.713 65.0322 135.576 65.0322C135.235 64.964 134.894 64.8276 134.485 64.6913C134.076 64.5549 133.734 64.4185 133.462 64.2139C133.189 64.0093 132.916 63.7366 132.711 63.4638C132.507 63.191 132.439 62.7819 132.439 62.3727C132.439 62.0318 132.507 61.759 132.643 61.4862C132.78 61.2134 132.916 61.0089 133.121 60.8043C133.325 60.5997 133.53 60.3951 133.803 60.2588C134.076 60.1224 134.348 59.986 134.621 59.8496C134.894 59.7814 135.167 59.645 135.508 59.645C135.781 59.5768 136.054 59.5768 136.395 59.5768C136.804 59.5768 137.281 59.645 137.691 59.7814C138.1 59.9178 138.441 60.1224 138.782 60.3269C139.123 60.5315 139.328 60.8725 139.532 61.2134C139.737 61.5544 139.805 61.9636 139.805 62.4409H138.236C138.236 62.1681 138.168 61.9636 138.1 61.759C138.032 61.5544 137.895 61.418 137.691 61.2816C137.554 61.1453 137.35 61.0771 137.077 60.9407C136.872 60.8725 136.599 60.8043 136.395 60.8043C136.19 60.8043 135.917 60.8043 135.713 60.8725C135.44 60.9407 135.235 61.0089 135.03 61.1453C134.826 61.2816 134.621 61.418 134.485 61.5544C134.348 61.6908 134.212 61.9636 134.212 62.2363C134.212 62.5091 134.212 62.7137 134.348 62.8501C134.485 62.9865 134.621 63.1228 134.826 63.2592C135.03 63.3956 135.235 63.4638 135.44 63.4638C135.644 63.532 135.849 63.6002 136.054 63.6002C136.258 63.6684 136.531 63.7366 136.804 63.8048C137.077 63.873 137.281 63.9411 137.554 64.0775C137.827 64.2139 138.032 64.2821 138.236 64.4185C138.441 64.5549 138.646 64.6913 138.782 64.8958C138.918 65.1004 139.055 65.305 139.123 65.5096C139.191 65.7141 139.259 65.9869 139.259 66.3279C139.259 66.8052 139.123 67.2826 138.85 67.6235C138.577 67.9645 138.305 68.3055 137.895 68.51C137.486 68.7146 137.077 68.9192 136.599 68.9874C136.122 69.0556 135.713 69.1238 135.235 69.1238C134.758 69.1238 134.348 69.0556 133.871 68.9192C133.462 68.7828 133.052 68.5782 132.711 68.3055C132.37 68.0327 132.097 67.7599 131.893 67.3508C131.688 66.9416 131.62 66.5325 131.62 66.0551H133.189C133.189 66.3279 133.257 66.6006 133.393 66.8052C133.53 67.0098 133.666 67.2144 133.803 67.3508C133.939 67.4872 134.212 67.6235 134.485 67.6917C134.758 67.7599 135.03 67.8281 135.303 67.8281C135.508 67.8281 135.781 67.8281 136.054 67.7599C136.326 67.6917 136.531 67.6235 136.804 67.5553C137.077 67.4872 137.213 67.2826 137.418 67.1462C137.35 67.078 137.418 66.8052 137.486 66.5325Z" fill="#61D199"/>
<path d="M144.853 65.5778C144.921 65.2368 144.921 64.8958 144.989 64.6231C145.057 64.3503 145.194 64.0775 145.33 63.873C145.466 63.6684 145.603 63.3956 145.807 63.191C146.012 62.9865 146.217 62.7819 146.49 62.5091C146.694 62.3045 146.967 62.0999 147.172 61.8954C147.376 61.6908 147.649 61.4862 147.854 61.2134C148.058 60.9407 148.263 60.7361 148.399 60.4633C148.536 60.1906 148.672 59.9178 148.672 59.5768C148.741 59.3041 148.672 59.0313 148.672 58.8267C148.604 58.6221 148.536 58.4176 148.331 58.213C148.127 58.0084 147.99 57.9402 147.786 57.872C147.581 57.8038 147.308 57.7356 147.035 57.7356C146.762 57.7356 146.49 57.7356 146.217 57.8038C145.944 57.872 145.739 58.0084 145.535 58.1448C145.33 58.2812 145.125 58.4857 144.989 58.6903C144.853 58.8949 144.716 59.1677 144.716 59.4404H143.147C143.216 58.8949 143.352 58.4858 143.557 58.0766C143.761 57.6674 144.102 57.3265 144.443 57.1219C144.784 56.8491 145.194 56.6446 145.671 56.5082C146.149 56.3718 146.626 56.3036 147.103 56.3036C147.581 56.3036 148.058 56.3718 148.468 56.5082C148.877 56.6446 149.218 56.8491 149.491 57.1219C149.764 57.3947 149.968 57.7356 150.105 58.1448C150.241 58.5539 150.309 58.9631 150.241 59.5086C150.173 59.986 150.105 60.3951 149.9 60.7361C149.695 61.0771 149.491 61.4862 149.218 61.759C148.945 62.0999 148.672 62.3727 148.331 62.6455C147.99 62.9183 147.649 63.191 147.376 63.4638C147.035 63.7366 146.762 64.0775 146.626 64.3503C146.49 64.6913 146.353 65.0322 146.285 65.5096L144.853 65.5778ZM144.17 68.3055C144.17 68.0327 144.239 67.7599 144.443 67.6235C144.648 67.419 144.853 67.3508 145.125 67.3508C145.262 67.3508 145.398 67.3508 145.535 67.419C145.671 67.4871 145.739 67.5553 145.876 67.6235C146.012 67.6917 146.012 67.8281 146.08 67.9645C146.149 68.1009 146.149 68.2373 146.149 68.3737C146.149 68.6464 146.08 68.9192 145.876 69.0556C145.671 69.192 145.466 69.3283 145.194 69.3283C145.057 69.3283 144.921 69.3283 144.784 69.2601C144.648 69.192 144.58 69.1238 144.443 69.0556C144.307 68.9874 144.307 68.851 144.239 68.7828C144.17 68.7146 144.17 68.4418 144.17 68.3055Z" fill="black"/>
<path d="M69.6857 87.7403H65.9342L65.1839 90.3998H62.6602L66.8209 77.7842H69.0036L73.028 90.3998H70.436L69.6857 87.7403ZM66.5481 85.6945H69.1401L67.8441 81.0574L66.5481 85.6945Z" fill="#61D199"/>
<path d="M74.7332 77.1023H79.9854V88.4222H82.6455V90.3998H74.7332V88.4222H77.5298V79.0799H74.7332V77.1023V77.1023Z" fill="#61D199"/>
<path d="M85.3739 77.1023H90.626V88.4222H93.2862V90.3998H85.3739V88.4222H88.1705V79.0799H85.3739V77.1023V77.1023Z" fill="#61D199"/>
<path d="M393.272 42.8697H183.186C181.686 42.8697 180.458 41.6422 180.458 40.142V6.7277C180.458 5.22746 181.686 4 183.186 4H393.272C394.772 4 396 5.22746 396 6.7277V40.142C396 41.6422 394.772 42.8697 393.272 42.8697Z" fill="black"/>
<path d="M200.921 23.503H195.669V29.0948H194.032V16.4792H201.808V17.8431H195.669V22.1392H200.921V23.503Z" fill="#E69F00"/>
<path d="M208.765 23.9122H206.241V29.0266H204.672V16.4792H208.356C208.97 16.4792 209.515 16.5474 209.993 16.752C210.47 16.9566 210.948 17.1611 211.357 17.4339C211.766 17.7749 212.039 18.1158 212.244 18.5932C212.448 19.0705 212.585 19.6161 212.585 20.2298C212.585 20.639 212.516 21.0481 212.38 21.3891C212.244 21.73 212.107 22.071 211.903 22.3438C211.698 22.6165 211.425 22.8893 211.152 23.0939C210.879 23.2985 210.538 23.503 210.197 23.6394L212.857 29.0266V29.163H211.152L208.765 23.9122ZM206.241 22.6165H208.356C208.697 22.6165 209.038 22.5483 209.379 22.4802C209.72 22.412 209.993 22.2074 210.197 22.0028C210.47 21.7982 210.607 21.5255 210.743 21.2527C210.879 20.9799 210.948 20.639 210.948 20.2298C210.948 19.8206 210.879 19.4797 210.743 19.1387C210.607 18.7978 210.402 18.5932 210.197 18.3886C209.993 18.184 209.652 18.0476 209.379 17.9113C209.038 17.7749 208.697 17.7749 208.287 17.7749H206.173V22.6165H206.241Z" fill="#E69F00"/>
<path d="M223.43 23.503C223.43 23.9804 223.362 24.3895 223.294 24.8669C223.225 25.3442 223.089 25.7534 222.953 26.1625C222.816 26.5717 222.611 26.9809 222.407 27.39C222.202 27.731 221.861 28.0719 221.588 28.3447C221.316 28.6175 220.906 28.8221 220.497 29.0266C220.088 29.163 219.61 29.2312 219.065 29.2312C218.519 29.2312 218.11 29.163 217.632 29.0266C217.223 28.8902 216.814 28.6175 216.541 28.3447C216.268 28.0719 215.927 27.731 215.722 27.39C215.518 27.049 215.313 26.6399 215.108 26.1625C214.972 25.7534 214.836 25.276 214.767 24.8669C214.699 24.4577 214.631 23.9804 214.631 23.503V22.071C214.631 21.5937 214.699 21.1845 214.767 20.7072C214.836 20.2298 214.972 19.8206 215.108 19.4115C215.245 19.0023 215.449 18.5932 215.722 18.184C215.927 17.8431 216.268 17.5021 216.541 17.2293C216.814 16.9566 217.223 16.752 217.632 16.5474C218.041 16.411 218.519 16.3428 219.065 16.3428C219.61 16.3428 220.088 16.411 220.497 16.5474C220.906 16.6838 221.316 16.9566 221.588 17.2293C221.861 17.5021 222.202 17.8431 222.407 18.184C222.611 18.525 222.816 18.9341 222.953 19.4115C223.089 19.8206 223.225 20.298 223.294 20.7753C223.362 21.2527 223.43 21.6618 223.43 22.1392V23.503ZM221.861 22.071C221.861 21.7982 221.861 21.4573 221.793 21.1163C221.725 20.7753 221.725 20.4344 221.588 20.1616C221.52 19.8206 221.384 19.5479 221.247 19.2751C221.111 19.0023 220.906 18.7296 220.702 18.525C220.497 18.3204 220.224 18.1158 219.951 17.9795C219.678 17.8431 219.337 17.7749 218.996 17.7749C218.655 17.7749 218.314 17.8431 218.041 17.9795C217.769 18.1158 217.496 18.3204 217.291 18.525C217.087 18.7296 216.882 19.0023 216.745 19.2751C216.609 19.5479 216.473 19.8888 216.404 20.1616C216.336 20.5026 216.268 20.7753 216.2 21.1163C216.132 21.4573 216.132 21.73 216.132 22.071V23.503C216.132 23.7758 216.132 24.1168 216.2 24.4577C216.268 24.7987 216.268 25.1397 216.404 25.4124C216.541 25.6852 216.609 26.0262 216.745 26.3671C216.882 26.7081 217.087 26.9127 217.291 27.1172C217.496 27.3218 217.769 27.5264 218.041 27.6628C218.314 27.7992 218.655 27.8674 218.996 27.8674C219.337 27.8674 219.678 27.7992 220.02 27.6628C220.292 27.5264 220.565 27.3218 220.77 27.1172C220.974 26.9127 221.179 26.6399 221.316 26.3671C221.452 26.0944 221.588 25.7534 221.657 25.4806C221.725 25.1397 221.793 24.8669 221.861 24.5259C221.861 24.185 221.929 23.9122 221.929 23.5712V22.071H221.861Z" fill="#E69F00"/>
<path d="M227.591 16.4792L229.637 22.7529L231.888 16.4792H233.866V29.0948H232.297V24.0486L232.434 18.7978L230.114 25.617H229.228L227.113 19.0023L227.25 24.1168V29.163H225.681V16.4792H227.591Z" fill="#E69F00"/>
<path d="M253.306 19.5479C253.442 19.5479 253.579 19.5479 253.783 19.5479C253.988 19.5479 254.124 19.5479 254.261 19.6161C254.397 19.6161 254.533 19.6843 254.67 19.6843C254.806 19.6843 254.875 19.7525 255.011 19.7525L254.806 21.3209C254.465 21.2527 254.192 21.1845 253.92 21.1845C253.647 21.1845 253.374 21.1163 253.033 21.1163C252.283 21.1163 251.669 21.2527 251.191 21.5937C250.714 21.9346 250.373 22.412 250.168 23.0257V29.0266H248.531V19.6843H250.032L250.1 21.1845C250.509 20.639 250.918 20.298 251.464 19.957C252.01 19.6843 252.624 19.5479 253.306 19.5479Z" fill="white"/>
<path d="M261.9 29.2312C261.218 29.2312 260.604 29.0948 260.058 28.8902C259.513 28.6857 259.035 28.3447 258.626 27.9355C258.217 27.5264 257.944 27.049 257.739 26.5035C257.535 25.958 257.398 25.3442 257.398 24.6623V24.3213C257.398 23.5712 257.535 22.8893 257.739 22.2756C257.944 21.6618 258.285 21.1845 258.694 20.7753C259.104 20.3662 259.581 20.0252 260.058 19.8206C260.604 19.6161 261.082 19.4797 261.627 19.4797C262.309 19.4797 262.923 19.6161 263.401 19.8206C263.878 20.0252 264.356 20.3662 264.629 20.7753C264.901 21.1845 265.242 21.6618 265.379 22.2074C265.515 22.7529 265.652 23.3666 265.652 24.0486V24.7987H258.967C258.967 25.2078 259.035 25.617 259.24 26.0261C259.376 26.4353 259.581 26.7081 259.854 26.9808C260.127 27.2536 260.4 27.4582 260.809 27.6628C261.218 27.8673 261.559 27.9355 261.968 27.9355C262.514 27.9355 263.06 27.7992 263.469 27.5946C263.878 27.39 264.287 27.049 264.56 26.7081L265.515 27.4582C265.379 27.6628 265.174 27.9355 264.901 28.1401C264.697 28.3447 264.424 28.5493 264.083 28.6857C263.742 28.822 263.401 28.9584 263.06 29.0948C262.719 29.2312 262.378 29.2312 261.9 29.2312ZM261.696 20.8435C261.354 20.8435 261.082 20.9117 260.809 21.0481C260.536 21.1845 260.263 21.3209 260.058 21.5936C259.854 21.8664 259.649 22.071 259.445 22.4119C259.308 22.7529 259.172 23.0939 259.104 23.5712H264.151V23.4348C264.151 23.0939 264.083 22.8211 263.946 22.4801C263.878 22.2074 263.674 21.8664 263.469 21.6618C263.264 21.4573 263.06 21.2527 262.719 21.0481C262.514 20.9117 262.105 20.8435 261.696 20.8435Z" fill="white"/>
<path d="M272.404 27.9356C272.677 27.9356 272.95 27.8674 273.223 27.7992C273.496 27.731 273.769 27.5946 273.973 27.39C274.178 27.1854 274.382 27.0491 274.519 26.7763C274.655 26.5717 274.724 26.2989 274.724 26.0262H276.224C276.224 26.4353 276.088 26.8445 275.883 27.1854C275.678 27.5946 275.406 27.8674 275.065 28.2083C274.724 28.5493 274.314 28.7539 273.837 28.8902C273.359 29.0266 272.882 29.163 272.404 29.163C271.722 29.163 271.04 29.0266 270.563 28.7539C270.085 28.4811 269.608 28.1401 269.267 27.731C268.926 27.3218 268.653 26.7763 268.448 26.2307C268.244 25.6852 268.175 25.0715 268.175 24.4577V24.1168C268.175 23.503 268.244 22.8893 268.448 22.3438C268.653 21.7982 268.926 21.2527 269.267 20.8435C269.608 20.4344 270.085 20.0934 270.563 19.8207C271.04 19.5479 271.722 19.4115 272.404 19.4115C272.95 19.4115 273.496 19.4797 273.905 19.6843C274.382 19.8888 274.792 20.0934 275.133 20.4344C275.474 20.7072 275.747 21.1163 275.951 21.5255C276.156 21.9346 276.224 22.412 276.224 22.8893H274.724C274.724 22.6165 274.655 22.3438 274.519 22.071C274.382 21.7982 274.246 21.5937 274.041 21.3891C273.837 21.1845 273.632 21.0481 273.291 20.9117C273.018 20.7753 272.677 20.7753 272.404 20.7753C271.927 20.7753 271.518 20.8435 271.177 21.0481C270.836 21.2527 270.563 21.5255 270.358 21.7982C270.153 22.071 270.017 22.4802 269.881 22.8893C269.812 23.2985 269.744 23.7076 269.744 24.1168V24.4577C269.744 24.8669 269.812 25.276 269.881 25.6852C269.949 26.0944 270.085 26.4353 270.29 26.7763C270.495 27.1172 270.767 27.39 271.108 27.5264C271.518 27.8674 271.927 27.9356 272.404 27.9356Z" fill="white"/>
<path d="M283.181 29.2312C282.499 29.2312 281.886 29.0948 281.34 28.8902C280.794 28.6857 280.317 28.3447 279.907 27.9355C279.498 27.5264 279.225 27.049 279.021 26.5035C278.816 25.958 278.68 25.3442 278.68 24.6623V24.3213C278.68 23.5712 278.816 22.8893 279.021 22.2756C279.225 21.6618 279.566 21.1845 279.976 20.7753C280.385 20.3662 280.862 20.0252 281.34 19.8206C281.886 19.6161 282.363 19.4797 282.909 19.4797C283.591 19.4797 284.205 19.6161 284.682 19.8206C285.16 20.0252 285.637 20.3662 285.91 20.7753C286.183 21.1845 286.524 21.6618 286.66 22.2074C286.797 22.7529 286.933 23.3666 286.933 24.0486V24.7987H280.248C280.248 25.2078 280.317 25.617 280.521 26.0261C280.658 26.4353 280.862 26.7081 281.135 26.9808C281.408 27.2536 281.681 27.4582 282.09 27.6628C282.499 27.8673 282.84 27.9355 283.25 27.9355C283.795 27.9355 284.341 27.7992 284.75 27.5946C285.16 27.39 285.569 27.049 285.842 26.7081L286.797 27.4582C286.66 27.6628 286.456 27.9355 286.183 28.1401C285.978 28.3447 285.705 28.5493 285.364 28.6857C285.023 28.822 284.682 28.9584 284.341 29.0948C284 29.2312 283.659 29.2312 283.181 29.2312ZM282.977 20.8435C282.636 20.8435 282.363 20.9117 282.09 21.0481C281.817 21.1845 281.544 21.3209 281.34 21.5936C281.135 21.8664 280.931 22.071 280.726 22.4119C280.59 22.7529 280.453 23.0939 280.385 23.5712H285.432V23.4348C285.432 23.0939 285.364 22.8211 285.228 22.4801C285.16 22.2074 284.955 21.8664 284.75 21.6618C284.546 21.4573 284.341 21.2527 284 21.0481C283.795 20.9117 283.386 20.8435 282.977 20.8435Z" fill="white"/>
<path d="M291.162 19.6843L291.298 21.0481C291.639 20.5708 292.049 20.1616 292.526 19.8888C293.004 19.6161 293.549 19.4797 294.163 19.4797C294.641 19.4797 295.118 19.5479 295.527 19.6843C295.937 19.8206 296.278 20.0252 296.551 20.3662C296.823 20.7071 297.028 21.0481 297.233 21.4573C297.369 21.9346 297.437 22.4801 297.437 23.0939V29.0266H295.868V23.0939C295.868 22.6847 295.8 22.3438 295.732 22.071C295.664 21.7982 295.527 21.5254 295.323 21.3891C295.118 21.1845 294.914 21.0481 294.641 20.9799C294.368 20.9117 294.095 20.8435 293.754 20.8435C293.208 20.8435 292.731 20.9799 292.322 21.2527C291.912 21.5254 291.571 21.8664 291.367 22.3438V29.0948H289.798V19.6843H291.162Z" fill="white"/>
<path d="M304.122 17.4339V19.6842H307.669V20.9117H304.122V26.0261C304.122 26.3671 304.19 26.7081 304.258 26.9126C304.326 27.1172 304.463 27.3218 304.667 27.4582C304.872 27.5946 305.009 27.731 305.213 27.731C305.418 27.7991 305.622 27.7991 305.895 27.7991C306.1 27.7991 306.236 27.7991 306.441 27.7991C306.646 27.7991 306.782 27.731 306.987 27.731C307.191 27.731 307.328 27.6628 307.464 27.6628C307.6 27.6628 307.737 27.5946 307.873 27.5946L308.078 28.7538C307.942 28.822 307.805 28.8902 307.6 28.9584C307.396 29.0266 307.191 29.0948 306.987 29.0948C306.782 29.0948 306.509 29.163 306.305 29.163C306.032 29.163 305.827 29.2312 305.554 29.2312C305.145 29.2312 304.736 29.163 304.395 29.0266C304.054 28.8902 303.713 28.7538 303.44 28.4811C303.167 28.2083 302.962 27.8673 302.826 27.4582C302.689 27.049 302.621 26.5717 302.621 25.958V20.8435H300.166V19.6842H302.621V17.4339H304.122Z" fill="white"/>
<path d="M318.787 30.3905H310.875V29.0948H318.787V30.3905Z" fill="white"/>
<path d="M321.379 24.3213C321.379 23.6394 321.447 22.9575 321.652 22.4119C321.788 21.7982 322.061 21.3209 322.402 20.9117C322.743 20.5026 323.084 20.1616 323.562 19.957C324.039 19.7524 324.516 19.6161 325.13 19.6161C325.676 19.6161 326.222 19.7524 326.631 19.957C327.04 20.1616 327.449 20.4344 327.722 20.8435L327.791 19.8206H329.223V28.9584C329.223 29.5722 329.155 30.1177 328.95 30.595C328.745 31.0724 328.473 31.4815 328.132 31.8225C327.791 32.1635 327.381 32.4362 326.904 32.5726C326.426 32.709 325.881 32.8454 325.267 32.8454C324.994 32.8454 324.721 32.8454 324.448 32.7772C324.175 32.709 323.834 32.6408 323.493 32.5044C323.152 32.368 322.879 32.2317 322.538 32.0271C322.266 31.8225 321.993 31.5497 321.788 31.277L322.607 30.3223C322.811 30.5268 323.016 30.7314 323.22 30.936C323.425 31.1406 323.63 31.2088 323.834 31.3452C324.039 31.4815 324.244 31.4815 324.448 31.5497C324.653 31.6179 324.858 31.6179 325.062 31.6179C325.471 31.6179 325.812 31.5497 326.085 31.4815C326.358 31.4134 326.631 31.2088 326.836 31.0042C327.04 30.7996 327.245 30.5269 327.313 30.2541C327.381 29.9813 327.518 29.5722 327.518 29.163V28.3447C327.177 28.6857 326.836 28.9584 326.426 29.163C326.017 29.3676 325.54 29.4358 324.926 29.4358C324.38 29.4358 323.834 29.2994 323.357 29.0948C322.879 28.8902 322.47 28.5493 322.197 28.0719C321.856 27.6628 321.652 27.1172 321.447 26.5717C321.242 26.0261 321.174 25.3442 321.174 24.7305V24.3213H321.379ZM322.948 24.5259C322.948 25.0033 323.016 25.4124 323.084 25.8216C323.152 26.2307 323.357 26.5717 323.562 26.9126C323.766 27.2536 324.039 27.4582 324.312 27.6628C324.585 27.8673 324.994 27.9355 325.471 27.9355C325.744 27.9355 326.017 27.9355 326.222 27.8673C326.426 27.7992 326.631 27.731 326.836 27.5946C327.04 27.4582 327.177 27.3218 327.313 27.1854C327.449 27.049 327.586 26.8445 327.654 26.6399V22.3438C327.518 22.1392 327.449 21.9346 327.313 21.7982C327.177 21.6618 327.04 21.5254 326.836 21.3891C326.631 21.2527 326.426 21.1845 326.222 21.1163C326.017 21.0481 325.744 21.0481 325.471 21.0481C324.994 21.0481 324.653 21.1163 324.312 21.3209C323.971 21.5254 323.698 21.73 323.493 22.071C323.289 22.4119 323.152 22.7529 323.016 23.1621C322.948 23.5712 322.879 23.9804 322.879 24.4577V24.5259H322.948Z" fill="white"/>
<path d="M338.431 19.5479C338.568 19.5479 338.704 19.5479 338.909 19.5479C339.113 19.5479 339.25 19.5479 339.386 19.6161C339.523 19.6161 339.659 19.6843 339.795 19.6843C339.932 19.6843 340 19.7525 340.136 19.7525L339.932 21.3209C339.591 21.2527 339.318 21.1845 339.045 21.1845C338.772 21.1845 338.499 21.1163 338.158 21.1163C337.408 21.1163 336.794 21.2527 336.317 21.5937C335.839 21.9346 335.498 22.412 335.294 23.0257V29.0266H333.656V19.6843H335.157L335.225 21.1845C335.635 20.639 336.044 20.298 336.59 19.957C337.135 19.6843 337.749 19.5479 338.431 19.5479Z" fill="white"/>
<path d="M349.072 29.0948C349.004 28.9584 348.935 28.822 348.935 28.6175C348.867 28.4129 348.867 28.2765 348.867 28.0719C348.731 28.2083 348.526 28.4129 348.322 28.5493C348.117 28.6857 347.912 28.822 347.639 28.9584C347.367 29.0948 347.162 29.163 346.889 29.2312C346.616 29.2994 346.343 29.2994 346.002 29.2994C345.525 29.2994 345.047 29.2312 344.638 29.0948C344.229 28.9584 343.888 28.7538 343.615 28.4811C343.342 28.2083 343.138 27.9355 342.933 27.5946C342.797 27.2536 342.728 26.9126 342.728 26.5035C342.728 25.958 342.865 25.5488 343.069 25.1396C343.274 24.7305 343.547 24.4577 343.956 24.185C344.365 23.9122 344.775 23.7076 345.32 23.6394C345.866 23.503 346.412 23.4348 347.094 23.4348H348.867V22.6847C348.867 22.4119 348.799 22.1392 348.731 21.9346C348.663 21.73 348.458 21.5254 348.322 21.3891C348.185 21.2527 347.912 21.1163 347.639 21.0481C347.367 20.9799 347.026 20.9117 346.685 20.9117C346.343 20.9117 346.071 20.9799 345.798 21.0481C345.525 21.1163 345.32 21.2527 345.184 21.3891C345.048 21.5254 344.843 21.6618 344.775 21.8664C344.706 22.071 344.638 22.2074 344.638 22.4119H343.001C343.001 22.071 343.069 21.73 343.274 21.3891C343.479 21.0481 343.683 20.7753 344.024 20.5026C344.365 20.2298 344.706 20.0252 345.184 19.8888C345.661 19.7524 346.139 19.6161 346.753 19.6161C347.298 19.6161 347.776 19.6843 348.253 19.8206C348.731 19.957 349.072 20.1616 349.413 20.4344C349.754 20.7071 350.027 21.0481 350.163 21.3891C350.3 21.73 350.436 22.2074 350.436 22.7529V27.1172C350.436 27.4582 350.436 27.731 350.504 28.1401C350.572 28.5493 350.641 28.822 350.777 29.0266V29.163H349.072V29.0948ZM346.275 27.8673C346.616 27.8673 346.889 27.7992 347.162 27.731C347.435 27.6628 347.708 27.5264 347.912 27.39C348.117 27.2536 348.322 27.1172 348.458 26.9126C348.594 26.7081 348.731 26.5717 348.867 26.3671V24.4577H347.367C346.412 24.4577 345.73 24.5941 345.184 24.8669C344.638 25.1396 344.434 25.5488 344.434 26.1625C344.434 26.3671 344.502 26.6399 344.57 26.7763C344.638 26.9808 344.775 27.1172 344.911 27.2536C345.047 27.39 345.252 27.5264 345.525 27.5946C345.798 27.6628 345.934 27.8673 346.275 27.8673Z" fill="white"/>
<path d="M353.301 24.3213C353.301 23.6394 353.369 22.9575 353.574 22.412C353.778 21.7982 353.983 21.3209 354.324 20.9117C354.665 20.5026 355.074 20.1616 355.483 19.957C355.893 19.7524 356.438 19.6161 357.052 19.6161C357.598 19.6161 358.075 19.6843 358.553 19.8888C358.962 20.0934 359.303 20.3662 359.644 20.7071V15.8655H361.213V29.163H359.712L359.644 28.2083C359.303 28.6175 358.962 28.8902 358.553 29.0948C358.144 29.2994 357.598 29.3676 357.052 29.3676C356.507 29.3676 355.961 29.2312 355.483 29.0266C355.006 28.7539 354.665 28.4811 354.324 28.0037C353.983 27.5264 353.778 27.049 353.574 26.5035C353.369 25.958 353.301 25.276 353.301 24.6623V24.3213V24.3213ZM354.87 24.5259C354.87 25.0033 354.938 25.4124 355.006 25.8216C355.074 26.2307 355.279 26.5717 355.483 26.9127C355.688 27.2536 355.961 27.4582 356.234 27.6628C356.507 27.8673 356.916 27.9355 357.393 27.9355C357.666 27.9355 357.939 27.9355 358.144 27.8673C358.348 27.7992 358.553 27.731 358.758 27.5946C358.962 27.4582 359.099 27.3218 359.235 27.1854C359.371 27.049 359.508 26.8445 359.576 26.6399V22.2756C359.371 21.8664 359.099 21.5936 358.758 21.3209C358.416 21.0481 357.939 20.9799 357.462 20.9799C356.984 20.9799 356.643 21.0481 356.302 21.2527C355.961 21.4573 355.688 21.6618 355.483 22.0028C355.279 22.3438 355.142 22.6847 355.006 23.0939C354.87 23.503 354.87 23.9122 354.87 24.3895V24.5259Z" fill="white"/>
<path d="M370.421 26.5717C370.421 26.3671 370.353 26.2307 370.285 26.0261C370.217 25.8216 370.08 25.7534 369.876 25.617C369.671 25.4806 369.467 25.3442 369.194 25.276C368.921 25.2078 368.512 25.0715 368.102 25.0033C367.557 24.8669 367.079 24.7305 366.602 24.5941C366.192 24.4577 365.783 24.2531 365.442 24.0486C365.101 23.844 364.896 23.5712 364.692 23.2985C364.487 23.0257 364.419 22.6847 364.419 22.2756C364.419 21.8664 364.487 21.5254 364.692 21.1845C364.896 20.8435 365.101 20.5708 365.442 20.298C365.783 20.0252 366.124 19.8206 366.602 19.6843C367.079 19.5479 367.557 19.4797 368.102 19.4797C368.648 19.4797 369.194 19.5479 369.671 19.6843C370.149 19.8206 370.558 20.0252 370.831 20.298C371.104 20.5708 371.376 20.8435 371.581 21.2527C371.786 21.5936 371.854 22.0028 371.854 22.4119H370.285C370.285 22.2074 370.217 22.0028 370.149 21.7982C370.08 21.5936 369.876 21.4573 369.739 21.2527C369.603 21.0481 369.33 20.9799 369.057 20.9117C368.784 20.8435 368.512 20.7753 368.171 20.7753C367.83 20.7753 367.557 20.8435 367.284 20.9117C367.011 20.9799 366.806 21.1163 366.67 21.1845C366.534 21.3209 366.397 21.4573 366.261 21.5936C366.124 21.73 366.124 21.9346 366.124 22.1392C366.124 22.3438 366.192 22.4801 366.261 22.6165C366.329 22.7529 366.465 22.8893 366.602 23.0257C366.806 23.1621 367.011 23.2303 367.284 23.3666C367.557 23.4348 367.898 23.5712 368.375 23.6394C368.921 23.7758 369.467 23.9122 369.944 24.0486C370.421 24.185 370.763 24.3895 371.104 24.5941C371.445 24.7987 371.649 25.0715 371.786 25.3442C371.922 25.617 372.058 25.958 372.058 26.3671C372.058 26.7763 371.99 27.1854 371.786 27.5264C371.581 27.8673 371.308 28.1401 371.035 28.4129C370.762 28.6857 370.285 28.822 369.808 28.9584C369.33 29.0948 368.784 29.2312 368.239 29.2312C367.625 29.2312 367.011 29.163 366.534 28.9584C366.056 28.7538 365.647 28.5493 365.306 28.2765C364.965 28.0037 364.692 27.6628 364.487 27.3218C364.283 26.9808 364.214 26.5717 364.214 26.1625H365.783C365.783 26.5035 365.92 26.7763 366.056 26.9808C366.192 27.1854 366.397 27.39 366.602 27.5264C366.806 27.6628 367.079 27.731 367.352 27.7992C367.625 27.8673 367.898 27.8673 368.171 27.8673C368.853 27.8673 369.398 27.731 369.739 27.5264C370.08 27.3218 370.421 26.9808 370.421 26.5717Z" fill="white"/>
<path d="M380.039 28.6857C380.039 28.9584 380.039 29.2312 379.971 29.5722C379.903 29.8449 379.834 30.1859 379.698 30.4587C379.562 30.7314 379.425 31.0042 379.221 31.277C379.016 31.5497 378.811 31.7543 378.607 31.9589L377.583 31.4134C377.856 31.0042 378.061 30.595 378.197 30.1177C378.334 29.6403 378.402 29.163 378.402 28.6857V27.1854H380.175V28.6857H380.039ZM377.993 20.4344C377.993 20.2298 377.993 20.0934 378.061 19.957C378.129 19.8206 378.197 19.6843 378.266 19.5479C378.334 19.4115 378.47 19.3433 378.675 19.2751C378.879 19.2069 379.016 19.2069 379.221 19.2069C379.425 19.2069 379.63 19.2069 379.766 19.2751C379.903 19.3433 380.039 19.4115 380.175 19.5479C380.312 19.6843 380.38 19.8206 380.448 19.957C380.517 20.0934 380.517 20.298 380.517 20.4344C380.517 20.5708 380.517 20.7753 380.448 20.9117C380.38 21.0481 380.312 21.1845 380.175 21.3209C380.039 21.4573 379.903 21.5255 379.766 21.5936C379.63 21.6618 379.425 21.6618 379.221 21.6618C379.016 21.6618 378.811 21.6618 378.675 21.5936C378.538 21.5255 378.402 21.4573 378.266 21.3209C378.129 21.1845 378.061 21.1163 378.061 20.9117C377.993 20.7753 377.993 20.639 377.993 20.4344Z" fill="white"/>
<path d="M208.083 63.532H202.967L202.012 69.1238H200.443L202.626 56.5082H210.129L209.856 57.872H203.922L203.172 62.1681H208.287L208.083 63.532Z" fill="black"/>
<path d="M218.178 59.5768C218.451 59.5768 218.724 59.5768 218.996 59.645C219.269 59.7132 219.542 59.7132 219.815 59.8496L219.406 61.418C219.133 61.3498 218.86 61.2816 218.587 61.2816C218.314 61.2816 218.041 61.2134 217.769 61.2134C217.018 61.2134 216.404 61.3498 215.927 61.6908C215.449 62.0318 214.972 62.5091 214.631 63.1228L213.608 69.1238H212.039L213.676 59.7814H215.177L214.904 61.2816C215.108 61.0089 215.381 60.8043 215.586 60.5997C215.791 60.3951 216.063 60.1906 216.404 60.0542C216.745 59.9178 216.95 59.7814 217.291 59.7132C217.564 59.5768 217.837 59.5768 218.178 59.5768Z" fill="black"/>
<path d="M221.52 64.4185C221.588 64.0093 221.657 63.6002 221.793 63.191C221.929 62.7819 222.066 62.3727 222.27 62.0318C222.475 61.6908 222.68 61.3498 222.953 61.0089C223.225 60.7361 223.498 60.4633 223.839 60.2588C224.18 60.0542 224.521 59.8496 224.931 59.7814C225.34 59.645 225.749 59.5768 226.227 59.645C226.909 59.645 227.454 59.7814 227.932 60.0542C228.409 60.3269 228.75 60.6679 229.023 61.1453C229.296 61.6226 229.501 62.1 229.637 62.6455C229.773 63.191 229.773 63.8048 229.705 64.3503V64.5549C229.637 65.1686 229.432 65.7823 229.228 66.3961C228.955 67.0098 228.614 67.4872 228.205 67.9645C227.795 68.4419 227.318 68.7828 226.772 68.9874C226.227 69.2602 225.613 69.3965 224.931 69.3284C224.249 69.3284 223.703 69.192 223.225 68.9192C222.748 68.6464 222.407 68.3055 222.134 67.8281C221.861 67.3508 221.657 66.8734 221.52 66.3279C221.384 65.7823 221.384 65.1686 221.452 64.6231L221.52 64.4185ZM223.021 64.5549C223.021 64.8277 222.953 65.0322 222.953 65.305C222.953 65.5778 222.953 65.8505 223.021 66.0551C223.089 66.3279 223.157 66.5325 223.225 66.737C223.294 66.9416 223.43 67.1462 223.566 67.3508C223.703 67.5553 223.907 67.6917 224.112 67.7599C224.317 67.8963 224.59 67.8963 224.862 67.9645C225.34 67.9645 225.749 67.8963 226.158 67.6917C226.568 67.4872 226.84 67.2144 227.113 66.8734C227.386 66.5325 227.591 66.1915 227.727 65.7142C227.864 65.2368 228 64.8958 228.068 64.4867V64.2821C228.136 63.9411 228.136 63.532 228.068 63.1228C228.068 62.7137 227.932 62.3727 227.795 62.0318C227.659 61.6908 227.454 61.418 227.182 61.2135C226.909 61.0089 226.568 60.8725 226.09 60.8725C225.613 60.8725 225.203 60.9407 224.794 61.1453C224.385 61.3498 224.112 61.6226 223.839 61.9636C223.566 62.3045 223.362 62.7137 223.225 63.1228C223.089 63.532 222.953 63.9411 222.884 64.3503L223.021 64.5549Z" fill="black"/>
<path d="M233.866 59.7132L233.661 60.5997C233.934 60.2588 234.207 59.986 234.48 59.8496C234.753 59.7132 235.162 59.5768 235.571 59.5768C235.776 59.5768 235.912 59.5768 236.049 59.645C236.185 59.7132 236.39 59.7132 236.526 59.8496C236.663 59.9178 236.799 60.0542 236.867 60.1906C236.935 60.3269 237.072 60.4633 237.072 60.6679C237.345 60.3951 237.618 60.1224 237.89 59.9178C238.163 59.7132 238.573 59.645 238.982 59.645C239.323 59.645 239.664 59.7132 239.868 59.8496C240.073 59.986 240.278 60.1906 240.414 60.3951C240.551 60.6679 240.619 60.8725 240.687 61.2134C240.755 61.4862 240.755 61.8272 240.687 62.1681L239.527 69.192H238.027L239.186 62.1681C239.186 62.0318 239.186 61.8272 239.186 61.6908C239.186 61.5544 239.118 61.418 239.05 61.3498C238.982 61.2134 238.914 61.1453 238.777 61.0771C238.641 61.0089 238.504 61.0089 238.3 61.0089C237.959 61.0089 237.686 61.0771 237.481 61.2816C237.277 61.4862 237.072 61.6908 237.004 61.9636L235.776 69.192H234.275L235.435 62.1681C235.435 62.0318 235.435 61.8954 235.435 61.759C235.435 61.6226 235.367 61.4862 235.298 61.418C235.23 61.2816 235.162 61.2134 235.026 61.1453C234.889 61.0771 234.753 61.0771 234.616 61.0089C234.344 61.0089 234.071 61.0771 233.866 61.2134C233.661 61.3498 233.457 61.4862 233.32 61.759L232.024 69.192H230.524L232.161 59.8496L233.866 59.7132Z" fill="black"/>
<path d="M254.329 65.7823L254.261 67.0098L254.738 65.646L257.194 59.7814H258.217L258.626 65.8505V67.2144L259.104 65.8505L261.15 59.7814H262.582L259.035 69.1238H257.739L257.33 63.3274V61.9636L256.853 63.4638L254.465 69.1238H253.238L252.896 59.7814H254.261L254.329 65.7823Z" fill="black"/>
<path d="M265.583 61.1453C265.788 60.9407 265.993 60.6679 266.197 60.5315C266.402 60.327 266.675 60.1906 266.879 60.0542C267.152 59.9178 267.425 59.7814 267.698 59.7132C267.971 59.645 268.244 59.5768 268.585 59.5768C269.13 59.5768 269.54 59.7132 269.949 59.9178C270.358 60.1224 270.563 60.3951 270.767 60.7361C270.972 61.0771 271.108 61.4862 271.177 61.8954C271.245 62.3045 271.245 62.7819 271.177 63.2592L270.222 69.1238H268.653L269.676 63.191C269.744 62.9183 269.744 62.5773 269.676 62.3045C269.608 62.0318 269.54 61.8272 269.403 61.6226C269.267 61.418 269.13 61.2816 268.857 61.1453C268.653 61.0089 268.38 60.9407 268.039 60.9407C267.766 60.9407 267.493 60.9407 267.289 61.0089C267.016 61.0771 266.811 61.1453 266.607 61.2816C266.402 61.418 266.197 61.5544 265.993 61.6908C265.788 61.8272 265.652 62.0318 265.447 62.2363L264.287 69.0556H262.719L265.038 55.7581H266.607L265.583 61.1453Z" fill="black"/>
<path d="M274.996 59.7132H279.635L278.27 67.6917H281.272L280.999 69.0556H273.359L273.632 67.6917H276.702L277.861 61.0771H274.792L274.996 59.7132ZM278.339 57.3265C278.339 57.0537 278.407 56.8491 278.611 56.6446C278.816 56.44 279.021 56.3718 279.294 56.3718C279.43 56.3718 279.566 56.3718 279.703 56.44C279.839 56.5082 279.907 56.5764 279.976 56.6446C280.044 56.7128 280.112 56.8491 280.18 56.9173C280.248 57.0537 280.248 57.1901 280.248 57.3265C280.248 57.5993 280.18 57.8038 279.976 58.0084C279.771 58.213 279.566 58.2812 279.294 58.2812C279.021 58.2812 278.816 58.213 278.611 58.0766C278.407 57.8038 278.339 57.5993 278.339 57.3265Z" fill="black"/>
<path d="M287.615 67.9645C287.888 67.9645 288.161 67.9645 288.434 67.8281C288.706 67.6917 288.979 67.6235 289.184 67.4872C289.389 67.3508 289.593 67.1462 289.798 66.8734C290.002 66.6006 290.071 66.3961 290.139 66.1233H291.64C291.571 66.6007 291.435 67.0098 291.162 67.419C290.889 67.8281 290.548 68.1691 290.207 68.4418C289.866 68.7146 289.389 68.9192 288.911 69.0556C288.434 69.192 288.024 69.2602 287.547 69.2602C286.865 69.2602 286.319 69.1238 285.842 68.851C285.364 68.5782 285.023 68.2373 284.75 67.8281C284.477 67.419 284.273 66.8734 284.136 66.3279C284 65.7823 284 65.1686 284.068 64.6231L284.136 64.2821C284.205 63.873 284.273 63.4638 284.409 63.0546C284.546 62.6455 284.682 62.3045 284.887 61.8954C285.091 61.5544 285.364 61.2134 285.637 60.9407C285.91 60.6679 286.251 60.3951 286.592 60.1906C286.933 59.986 287.274 59.8496 287.683 59.7132C288.093 59.5768 288.502 59.5768 288.979 59.5768C289.457 59.5768 289.934 59.7132 290.344 59.8496C290.753 59.986 291.094 60.2588 291.367 60.5315C291.639 60.8043 291.912 61.2134 292.049 61.6226C292.185 62.0318 292.253 62.5091 292.253 62.9865H290.753C290.753 62.7137 290.753 62.4409 290.616 62.1681C290.48 61.8954 290.412 61.6908 290.275 61.4862C290.139 61.2816 289.934 61.1453 289.661 61.0089C289.389 60.8725 289.184 60.8725 288.843 60.8043C288.365 60.8043 287.956 60.8725 287.547 61.0771C287.206 61.2816 286.865 61.5544 286.592 61.8272C286.319 62.1 286.115 62.5091 285.978 62.9183C285.842 63.3274 285.705 63.7366 285.637 64.1457L285.569 64.4867C285.569 64.7595 285.501 64.964 285.501 65.2368C285.501 65.5096 285.501 65.7823 285.569 65.9869C285.637 66.2597 285.705 66.4643 285.773 66.6688C285.842 66.8734 285.978 67.078 286.115 67.2826C286.251 67.4872 286.456 67.5553 286.66 67.6917C287.069 67.8963 287.342 67.9645 287.615 67.9645Z" fill="black"/>
<path d="M296.823 61.1453C297.028 60.9407 297.233 60.6679 297.437 60.5315C297.642 60.327 297.915 60.1906 298.119 60.0542C298.392 59.9178 298.665 59.7814 298.938 59.7132C299.211 59.645 299.484 59.5768 299.825 59.5768C300.37 59.5768 300.78 59.7132 301.189 59.9178C301.598 60.1224 301.803 60.3951 302.007 60.7361C302.212 61.0771 302.348 61.4862 302.417 61.8954C302.485 62.3045 302.485 62.7819 302.417 63.2592L301.462 69.1238H299.893L300.916 63.191C300.984 62.9183 300.984 62.5773 300.916 62.3045C300.848 62.0318 300.78 61.8272 300.643 61.6226C300.507 61.418 300.37 61.2816 300.097 61.1453C299.893 61.0089 299.62 60.9407 299.279 60.9407C299.006 60.9407 298.733 60.9407 298.529 61.0089C298.256 61.0771 298.051 61.1453 297.847 61.2816C297.642 61.418 297.437 61.5544 297.233 61.6908C297.028 61.8272 296.892 62.0318 296.687 62.2363L295.527 69.0556H293.959L296.278 55.7581H297.847L296.823 61.1453Z" fill="black"/>
<path d="M320.492 57.4629L320.083 59.7132H323.561L323.357 60.9407H319.878L319.06 66.0551C319.06 66.3279 319.06 66.5325 319.06 66.7371C319.06 66.9416 319.128 67.1462 319.264 67.2826C319.401 67.419 319.469 67.5554 319.674 67.6917C319.878 67.7599 320.083 67.8281 320.356 67.8281C320.697 67.8281 320.97 67.8281 321.311 67.7599C321.652 67.6917 321.924 67.6236 322.265 67.5554L322.402 68.7146C322.061 68.9192 321.652 69.0556 321.174 69.1238C320.697 69.192 320.287 69.192 319.878 69.192C319.401 69.192 318.991 69.1238 318.719 68.9192C318.446 68.7146 318.105 68.5101 317.968 68.2373C317.832 67.9645 317.627 67.6236 317.559 67.2144C317.491 66.8052 317.491 66.3961 317.491 65.9869L318.309 60.8725H315.922L316.127 59.645H318.514L318.923 57.3947H320.492V57.4629Z" fill="#0072B2"/>
<path d="M331.269 69.1238C331.201 68.9192 331.201 68.7828 331.201 68.6464C331.201 68.5101 331.201 68.3055 331.201 68.1691C330.792 68.51 330.314 68.851 329.837 69.0556C329.359 69.2602 328.814 69.3966 328.268 69.3966C327.859 69.3966 327.518 69.3284 327.177 69.192C326.836 69.0556 326.494 68.9192 326.29 68.6464C326.017 68.4419 325.812 68.1691 325.676 67.8281C325.54 67.4872 325.471 67.1462 325.471 66.737C325.471 66.3279 325.608 65.9869 325.744 65.646C325.881 65.305 326.085 65.0322 326.29 64.8277C326.494 64.6231 326.767 64.4185 327.04 64.2139C327.313 64.0094 327.654 63.9412 327.995 63.8048C328.336 63.7366 328.677 63.6002 329.018 63.6002C329.359 63.532 329.7 63.532 330.041 63.532H331.815L331.951 62.7819C332.019 62.5091 331.951 62.2363 331.883 62.0318C331.815 61.8272 331.678 61.6226 331.542 61.4862C331.406 61.3498 331.201 61.2135 330.928 61.1453C330.723 61.0771 330.451 61.0089 330.178 61.0089C329.905 61.0089 329.7 61.0089 329.427 61.0771C329.155 61.1453 328.95 61.2135 328.745 61.3498C328.541 61.4862 328.404 61.6226 328.2 61.8272C327.995 62.0318 327.927 62.2364 327.927 62.5091H326.358C326.426 62.0318 326.563 61.6226 326.836 61.2817C327.108 60.9407 327.381 60.6679 327.79 60.3952C328.132 60.1906 328.541 59.986 329.018 59.8496C329.496 59.7132 329.905 59.7132 330.314 59.7132C330.792 59.7132 331.201 59.7814 331.61 59.9178C332.019 60.0542 332.36 60.2588 332.633 60.5315C332.906 60.8043 333.179 61.1453 333.315 61.4862C333.452 61.8272 333.52 62.3045 333.452 62.8501L332.702 67.2144C332.633 67.5554 332.633 67.8281 332.633 68.1691C332.633 68.51 332.633 68.7828 332.77 69.1238V69.2602H331.269V69.1238ZM328.609 67.8963C329.155 67.8963 329.7 67.7599 330.178 67.4872C330.655 67.2144 331.065 66.8734 331.406 66.4643L331.747 64.5549H330.382C330.041 64.5549 329.7 64.5549 329.359 64.6231C329.018 64.6913 328.677 64.7595 328.336 64.8959C327.995 65.0322 327.722 65.2368 327.518 65.4414C327.313 65.646 327.177 65.9869 327.108 66.3961C327.108 66.6689 327.108 66.8734 327.177 67.078C327.245 67.2826 327.313 67.419 327.449 67.5554C327.586 67.6917 327.722 67.7599 327.927 67.8281C328.131 67.8963 328.404 67.8963 328.609 67.8963Z" fill="#0072B2"/>
<path d="M344.093 64.4867C344.024 64.8958 343.956 65.2368 343.888 65.646C343.752 66.0551 343.615 66.3961 343.479 66.737C343.342 67.078 343.138 67.419 342.865 67.7599C342.592 68.1009 342.387 68.3737 342.046 68.5782C341.705 68.7828 341.432 68.9874 341.023 69.1238C340.614 69.2602 340.273 69.3284 339.795 69.3284C339.318 69.3284 338.84 69.192 338.363 68.9874C337.886 68.7828 337.613 68.4419 337.272 68.0327L336.931 69.1238H335.498L337.817 55.8262H339.386L338.431 60.7361C338.772 60.3269 339.181 60.0542 339.659 59.8496C340.136 59.645 340.614 59.5768 341.16 59.5768C341.569 59.5768 341.978 59.645 342.251 59.7814C342.592 59.9178 342.865 60.1224 343.069 60.3269C343.274 60.5315 343.479 60.8043 343.615 61.1453C343.752 61.418 343.888 61.759 343.956 62.1C344.024 62.4409 344.093 62.7819 344.093 63.191C344.093 63.6002 344.093 63.9411 344.024 64.2821L344.093 64.4867ZM342.592 64.2821C342.66 63.9411 342.66 63.532 342.66 63.191C342.66 62.7819 342.592 62.4409 342.456 62.1C342.319 61.759 342.115 61.4862 341.91 61.2816C341.705 61.0771 341.296 60.9407 340.819 60.9407C340.546 60.9407 340.273 60.9407 340.068 61.0089C339.864 61.0771 339.591 61.1453 339.454 61.2816C339.25 61.418 339.045 61.5544 338.909 61.759C338.704 61.9636 338.568 62.1 338.431 62.3727L337.749 66.4643C337.885 66.8734 338.158 67.2144 338.431 67.4872C338.704 67.7599 339.113 67.8963 339.659 67.8963C340.205 67.8963 340.546 67.8281 340.887 67.6235C341.228 67.419 341.569 67.1462 341.773 66.8052C341.978 66.4643 342.183 66.1233 342.319 65.646C342.456 65.1686 342.524 64.8276 342.592 64.4185V64.2821Z" fill="#0072B2"/>
<path d="M348.594 55.8262H353.233L351.186 67.7599H354.188L353.915 69.1238H346.275L346.548 67.7599H349.618L351.459 57.2583H348.39L348.594 55.8262Z" fill="#0072B2"/>
<path d="M360.531 69.2602C359.917 69.2602 359.303 69.1238 358.826 68.851C358.348 68.5782 357.939 68.3055 357.666 67.8963C357.393 67.4871 357.121 67.0098 356.984 66.4643C356.848 65.9187 356.779 65.3732 356.848 64.7595L356.916 64.4185C356.984 64.0093 357.052 63.6002 357.189 63.191C357.325 62.7819 357.462 62.4409 357.734 62.0318C357.939 61.6908 358.212 61.3498 358.485 61.0089C358.758 60.7361 359.099 60.4633 359.44 60.1906C359.781 59.986 360.122 59.7814 360.531 59.645C360.94 59.5086 361.349 59.4404 361.827 59.5086C362.441 59.5086 362.987 59.645 363.464 59.9178C363.941 60.1906 364.283 60.5315 364.487 60.9407C364.692 61.3498 364.896 61.8272 365.033 62.3727C365.169 62.9183 365.101 63.4638 365.033 64.0775L364.896 64.8276H358.416C358.348 65.2368 358.417 65.5778 358.485 65.9187C358.553 66.2597 358.689 66.6006 358.894 66.8734C359.099 67.1462 359.303 67.419 359.644 67.5553C359.985 67.6917 360.326 67.8281 360.736 67.8281C361.281 67.8281 361.759 67.7599 362.236 67.4871C362.714 67.2826 363.123 66.9416 363.464 66.6007L364.351 67.3508C364.146 67.6235 363.873 67.8963 363.6 68.1691C363.328 68.3737 362.987 68.5782 362.645 68.7146C362.304 68.851 361.963 68.9874 361.622 69.0556C361.281 69.1238 360.872 69.2602 360.531 69.2602ZM361.691 60.8725C361.281 60.8725 360.94 60.9407 360.599 61.0771C360.258 61.2134 359.985 61.418 359.712 61.6908C359.44 61.9636 359.235 62.2363 359.03 62.5773C358.826 62.9183 358.689 63.2592 358.553 63.6002H363.464L363.532 63.4638C363.6 63.1228 363.6 62.8501 363.532 62.5091C363.464 62.1681 363.396 61.9636 363.191 61.6908C362.987 61.418 362.85 61.2816 362.577 61.1453C362.304 61.0089 362.032 60.8725 361.691 60.8725Z" fill="#0072B2"/>
<path d="M370.353 65.5778C370.421 65.2368 370.421 64.8958 370.49 64.6231C370.558 64.3503 370.694 64.0775 370.831 63.873C370.967 63.6684 371.104 63.3956 371.308 63.191C371.513 62.9865 371.717 62.7819 371.99 62.5091C372.195 62.3045 372.468 62.0999 372.672 61.8954C372.877 61.6908 373.15 61.4862 373.354 61.2134C373.559 60.9407 373.764 60.7361 373.9 60.4633C374.036 60.1906 374.173 59.9178 374.173 59.5768C374.241 59.3041 374.173 59.0313 374.173 58.8267C374.105 58.6221 374.037 58.4176 373.832 58.213C373.627 58.0084 373.491 57.9402 373.286 57.872C373.082 57.8038 372.809 57.7356 372.536 57.7356C372.263 57.7356 371.99 57.7356 371.717 57.8038C371.445 57.872 371.24 58.0084 371.035 58.1448C370.831 58.2812 370.626 58.4857 370.49 58.6903C370.353 58.8949 370.217 59.1677 370.217 59.4404H368.648C368.716 58.8949 368.853 58.4858 369.057 58.0766C369.262 57.6674 369.603 57.3265 369.944 57.1219C370.285 56.8491 370.694 56.6446 371.172 56.5082C371.649 56.3718 372.127 56.3036 372.604 56.3036C373.082 56.3036 373.559 56.3718 373.968 56.5082C374.378 56.6446 374.719 56.8491 374.991 57.1219C375.264 57.3947 375.469 57.7356 375.605 58.1448C375.742 58.5539 375.81 58.9631 375.742 59.5086C375.674 59.986 375.605 60.3951 375.401 60.7361C375.196 61.0771 374.991 61.4862 374.719 61.759C374.446 62.0999 374.173 62.3727 373.832 62.6455C373.491 62.9183 373.15 63.191 372.877 63.4638C372.536 63.7366 372.263 64.0775 372.127 64.3503C371.99 64.6913 371.854 65.0322 371.786 65.5096L370.353 65.5778ZM369.603 68.3055C369.603 68.0327 369.671 67.7599 369.876 67.6235C370.08 67.419 370.285 67.3508 370.558 67.3508C370.694 67.3508 370.831 67.3508 370.967 67.419C371.104 67.4871 371.172 67.5553 371.308 67.6235C371.445 67.6917 371.445 67.8281 371.513 67.9645C371.581 68.1009 371.581 68.2373 371.581 68.3737C371.581 68.6464 371.513 68.9192 371.308 69.0556C371.104 69.192 370.899 69.3283 370.626 69.3283C370.49 69.3283 370.353 69.3283 370.217 69.2601C370.08 69.192 370.012 69.1238 369.876 69.0556C369.739 68.9874 369.739 68.851 369.671 68.7828C369.603 68.7146 369.603 68.4418 369.603 68.3055Z" fill="black"/>
<path d="M232.297 80.8529C232.638 80.8529 232.979 80.8529 233.32 80.9211C233.661 80.9893 233.866 81.0575 234.071 81.0575L233.73 83.4442C233.389 83.376 233.116 83.3078 232.775 83.3078C232.434 83.2396 232.093 83.2396 231.82 83.2396C231.138 83.2396 230.592 83.376 230.183 83.6488C229.773 83.9215 229.501 84.2625 229.296 84.7398V90.3998H226.909V81.0575H229.16L229.296 82.5577C229.705 82.0121 230.114 81.603 230.66 81.3302C231.206 81.0575 231.683 80.8529 232.297 80.8529Z" fill="#0072B2"/>
<path d="M240.755 90.5362C240.005 90.5362 239.391 90.3998 238.777 90.1952C238.163 89.9907 237.686 89.6497 237.277 89.2405C236.867 88.8314 236.526 88.354 236.322 87.8085C236.117 87.263 235.981 86.6492 235.981 86.0355V85.6945C235.981 85.0126 236.117 84.3307 236.322 83.717C236.526 83.1032 236.867 82.6259 237.277 82.2167C237.686 81.8076 238.163 81.4666 238.709 81.1938C239.255 80.9211 239.868 80.8529 240.551 80.8529C241.233 80.8529 241.847 80.9893 242.324 81.1938C242.87 81.3984 243.279 81.7394 243.688 82.1485C244.029 82.5577 244.302 83.035 244.507 83.5806C244.711 84.1261 244.78 84.808 244.78 85.49V86.5128H238.436C238.504 86.8538 238.572 87.1266 238.709 87.3994C238.845 87.6721 239.05 87.8767 239.255 88.0813C239.459 88.2859 239.732 88.4222 240.005 88.4904C240.278 88.5586 240.619 88.6268 240.96 88.6268C241.164 88.6268 241.437 88.6268 241.642 88.5586C241.847 88.4904 242.119 88.4222 242.324 88.354C242.529 88.2858 242.733 88.1495 242.938 88.0131C243.142 87.8767 243.279 87.7403 243.415 87.5357L244.643 88.8314C244.507 89.036 244.302 89.2405 244.029 89.4451C243.756 89.6497 243.484 89.8543 243.211 89.9907C242.87 90.127 242.529 90.2634 242.119 90.3998C241.71 90.5362 241.233 90.5362 240.755 90.5362ZM240.482 82.7623C240.21 82.7623 239.937 82.8305 239.732 82.8986C239.527 82.9668 239.323 83.1032 239.118 83.3078C238.982 83.5124 238.777 83.717 238.709 83.9215C238.641 84.1261 238.504 84.4671 238.436 84.7398H242.392V84.5353C242.392 84.2625 242.324 84.0579 242.256 83.7852C242.188 83.5124 242.051 83.376 241.915 83.1714C241.778 82.9668 241.574 82.8986 241.301 82.7623C241.028 82.8305 240.755 82.7623 240.482 82.7623Z" fill="#0072B2"/>
<path d="M250.987 88.6268C251.191 88.6268 251.464 88.5586 251.669 88.4904C251.873 88.4222 252.078 88.354 252.214 88.2177C252.351 88.0813 252.487 87.9449 252.624 87.7403C252.692 87.5357 252.76 87.3312 252.76 87.1266H255.011C255.011 87.6039 254.943 88.0813 254.738 88.4904C254.533 88.8996 254.261 89.2405 253.851 89.5815C253.442 89.9225 253.033 90.127 252.555 90.2634C252.078 90.3998 251.532 90.5362 251.055 90.5362C250.305 90.5362 249.691 90.3998 249.145 90.1952C248.599 89.9907 248.122 89.5815 247.781 89.1724C247.44 88.7632 247.167 88.2177 246.962 87.6721C246.758 87.1266 246.689 86.5128 246.689 85.8309V85.5582C246.689 84.8762 246.758 84.2625 246.962 83.717C247.167 83.1714 247.44 82.6259 247.781 82.2167C248.122 81.8076 248.599 81.4666 249.145 81.1938C249.691 80.9211 250.305 80.8529 251.055 80.8529C251.6 80.8529 252.146 80.9211 252.624 81.1256C253.101 81.3302 253.51 81.5348 253.92 81.8758C254.261 82.2167 254.533 82.5577 254.738 83.035C254.943 83.5124 255.011 83.9897 255.011 84.5353H252.76C252.76 84.3307 252.76 84.0579 252.624 83.8533C252.487 83.6488 252.419 83.4442 252.283 83.3078C252.146 83.1714 251.942 83.035 251.737 82.9668C251.532 82.8987 251.259 82.8305 250.987 82.8305C250.577 82.8305 250.305 82.8987 250.032 83.035C249.759 83.1714 249.554 83.376 249.418 83.6488C249.281 83.9215 249.145 84.1943 249.077 84.5353C249.009 84.8762 249.009 85.2172 249.009 85.5582V85.8309C249.009 86.1719 249.009 86.5128 249.077 86.8538C249.145 87.1948 249.213 87.4675 249.418 87.7403C249.554 88.0131 249.759 88.2177 250.032 88.354C250.305 88.5586 250.646 88.6268 250.987 88.6268Z" fill="#0072B2"/>
<path d="M262.037 90.5362C261.286 90.5362 260.672 90.3998 260.058 90.1952C259.445 89.9907 258.967 89.6497 258.558 89.2405C258.149 88.8314 257.808 88.354 257.603 87.8085C257.398 87.263 257.262 86.6492 257.262 86.0355V85.6945C257.262 85.0126 257.398 84.3307 257.603 83.717C257.808 83.1032 258.149 82.6259 258.558 82.2167C258.967 81.8076 259.445 81.4666 259.99 81.1938C260.536 80.9211 261.15 80.8529 261.832 80.8529C262.514 80.8529 263.128 80.9893 263.605 81.1938C264.151 81.3984 264.56 81.7394 264.97 82.1485C265.311 82.5577 265.583 83.035 265.788 83.5806C265.993 84.1261 266.061 84.808 266.061 85.49V86.5128H259.717C259.786 86.8538 259.854 87.1266 259.99 87.3994C260.127 87.6721 260.331 87.8767 260.536 88.0813C260.741 88.2859 261.013 88.4222 261.286 88.4904C261.559 88.5586 261.9 88.6268 262.241 88.6268C262.446 88.6268 262.719 88.6268 262.923 88.5586C263.128 88.4904 263.401 88.4222 263.605 88.354C263.81 88.2858 264.015 88.1495 264.219 88.0131C264.424 87.8767 264.56 87.7403 264.697 87.5357L265.925 88.8314C265.788 89.036 265.583 89.2405 265.311 89.4451C265.038 89.6497 264.765 89.8543 264.492 89.9907C264.151 90.127 263.81 90.2634 263.401 90.3998C262.991 90.5362 262.514 90.5362 262.037 90.5362ZM261.764 82.7623C261.491 82.7623 261.218 82.8305 261.013 82.8986C260.809 82.9668 260.604 83.1032 260.4 83.3078C260.263 83.5124 260.058 83.717 259.99 83.9215C259.922 84.1261 259.786 84.4671 259.717 84.7398H263.674V84.5353C263.674 84.2625 263.605 84.0579 263.537 83.7852C263.469 83.5124 263.333 83.376 263.196 83.1714C263.06 82.9668 262.855 82.8986 262.582 82.7623C262.309 82.8305 262.037 82.7623 261.764 82.7623Z" fill="#0072B2"/>
<path d="M270.358 80.9893L270.495 82.2849C270.836 81.8076 271.245 81.4666 271.722 81.1938C272.2 80.9211 272.745 80.7847 273.291 80.7847C273.769 80.7847 274.178 80.8529 274.587 80.9893C274.996 81.1256 275.337 81.3302 275.61 81.6712C275.883 81.944 276.088 82.3531 276.292 82.8305C276.429 83.3078 276.497 83.8533 276.497 84.5353V90.3316H274.11V84.6035C274.11 84.2625 274.041 83.9215 273.973 83.717C273.905 83.4442 273.769 83.3078 273.632 83.1714C273.496 83.035 273.291 82.9668 273.086 82.8986C272.882 82.8305 272.609 82.8305 272.336 82.8305C271.927 82.8305 271.586 82.8986 271.313 83.1032C271.04 83.3078 270.767 83.5124 270.631 83.7852V90.468H268.244V81.1256H270.358V80.9893Z" fill="#0072B2"/>
<path d="M283.181 78.7389V81.0574H286.66V82.8304H283.181V86.8538C283.181 87.1948 283.25 87.4675 283.318 87.7403C283.386 87.9449 283.523 88.1495 283.659 88.2858C283.795 88.4222 284 88.4904 284.205 88.5586C284.409 88.6268 284.614 88.6268 284.887 88.6268C285.091 88.6268 285.228 88.6268 285.432 88.6268C285.637 88.6268 285.842 88.5586 285.978 88.5586C286.183 88.5586 286.319 88.4904 286.456 88.4904C286.592 88.4904 286.728 88.4222 286.865 88.4222L287.069 90.0588C286.933 90.127 286.728 90.2634 286.456 90.3316C286.183 90.3998 285.978 90.468 285.705 90.5362C285.432 90.6044 285.16 90.6044 284.887 90.6726C284.614 90.6726 284.341 90.7408 284.068 90.7408C283.523 90.7408 283.113 90.6726 282.636 90.5362C282.227 90.3998 281.886 90.1952 281.544 89.9225C281.272 89.6497 280.999 89.2405 280.862 88.8314C280.726 88.4222 280.59 87.8767 280.59 87.263V83.035H278.475V81.262H280.59V78.9435H283.181V78.7389Z" fill="#0072B2"/>
<path d="M297.369 92.241H289.457V90.3316H297.369V92.241Z" fill="#0072B2"/>
<path d="M299.825 85.6263C299.825 84.9444 299.893 84.2625 300.097 83.6488C300.302 83.035 300.507 82.5577 300.848 82.1485C301.189 81.7394 301.598 81.3984 302.076 81.1938C302.553 80.9893 303.099 80.8529 303.644 80.8529C304.19 80.8529 304.667 80.9211 305.077 81.1256C305.486 81.3302 305.827 81.603 306.1 81.944L306.168 81.0575H308.351V90.1271C308.351 90.7408 308.214 91.3545 308.01 91.8319C307.805 92.3092 307.464 92.7184 307.123 93.0593C306.714 93.4003 306.236 93.6731 305.691 93.8094C305.145 94.014 304.531 94.0822 303.917 94.0822C303.644 94.0822 303.303 94.0822 303.03 94.014C302.758 93.9458 302.417 93.8776 302.076 93.7413C301.734 93.6049 301.462 93.4685 301.189 93.2639C300.916 93.0593 300.643 92.8547 300.439 92.582L301.53 91.1499C301.803 91.4909 302.212 91.7637 302.553 91.9683C302.894 92.1728 303.372 92.241 303.781 92.241C304.463 92.241 305.009 92.0364 305.35 91.6955C305.759 91.3545 305.895 90.809 305.895 90.1271V89.5815C305.622 89.9225 305.281 90.1271 304.872 90.3316C304.463 90.5362 304.054 90.6044 303.576 90.6044C302.962 90.6044 302.485 90.468 302.007 90.2634C301.53 89.9907 301.121 89.7179 300.848 89.2406C300.575 88.7632 300.234 88.2859 300.097 87.7403C299.893 87.1266 299.825 86.5129 299.825 85.8309V85.6263V85.6263ZM302.28 85.8309C302.28 86.2401 302.348 86.581 302.417 86.922C302.485 87.263 302.621 87.5357 302.758 87.8085C302.894 88.0813 303.099 88.2859 303.372 88.4222C303.644 88.5586 303.917 88.6268 304.258 88.6268C304.668 88.6268 305.009 88.5586 305.281 88.354C305.554 88.2177 305.759 87.9449 305.963 87.6721V83.717C305.827 83.4442 305.554 83.1714 305.281 83.035C305.009 82.8987 304.668 82.8305 304.258 82.8305C303.917 82.8305 303.644 82.8987 303.372 83.035C303.099 83.1714 302.894 83.376 302.758 83.6488C302.621 83.9215 302.485 84.1943 302.417 84.5353C302.348 84.8762 302.28 85.2172 302.28 85.6263V85.8309Z" fill="#0072B2"/>
<path d="M317.423 80.8529C317.764 80.8529 318.105 80.8529 318.446 80.9211C318.787 80.9893 318.991 81.0575 319.196 81.0575L318.855 83.4442C318.514 83.376 318.241 83.3078 317.9 83.3078C317.559 83.2396 317.218 83.2396 316.945 83.2396C316.263 83.2396 315.717 83.376 315.308 83.6488C314.899 83.9215 314.626 84.2625 314.421 84.7398V90.3998H312.034V81.0575H314.285L314.421 82.5577C314.831 82.0121 315.24 81.603 315.786 81.3302C316.331 81.0575 316.809 80.8529 317.423 80.8529Z" fill="#0072B2"/>
<path d="M327.245 90.3998C327.177 90.2634 327.108 90.127 327.108 89.9907C327.108 89.8543 327.04 89.6497 326.972 89.5133C326.836 89.6497 326.699 89.7861 326.495 89.9225C326.29 90.0589 326.153 90.127 325.949 90.2634C325.744 90.3316 325.54 90.3998 325.267 90.468C324.994 90.5362 324.721 90.5362 324.448 90.5362C323.971 90.5362 323.562 90.468 323.152 90.3316C322.743 90.1952 322.402 89.9907 322.129 89.7179C321.856 89.4451 321.583 89.1724 321.447 88.8314C321.311 88.4904 321.174 88.0813 321.174 87.7403C321.174 86.7856 321.515 85.9673 322.266 85.4218C323.016 84.8762 324.107 84.6035 325.54 84.6035H326.904V84.0579C326.904 83.5806 326.767 83.2396 326.495 82.9668C326.222 82.6941 325.744 82.5577 325.199 82.5577C324.721 82.5577 324.38 82.6941 324.107 82.8986C323.834 83.1032 323.766 83.376 323.766 83.717H321.379C321.379 83.3078 321.447 82.9668 321.652 82.5577C321.856 82.2167 322.061 81.8758 322.402 81.603C322.743 81.3302 323.152 81.1256 323.63 80.9893C324.107 80.8529 324.653 80.7847 325.335 80.7847C325.881 80.7847 326.426 80.8529 326.904 80.9893C327.381 81.1256 327.791 81.3302 328.2 81.603C328.609 81.8758 328.814 82.2167 329.018 82.6259C329.223 83.035 329.291 83.5124 329.291 84.0579V88.0813C329.291 88.5586 329.291 88.9678 329.359 89.3087C329.428 89.6497 329.496 89.9225 329.632 90.127V90.2634H327.245V90.3998ZM324.926 88.695C325.199 88.695 325.403 88.695 325.608 88.6268C325.812 88.5586 326.017 88.4904 326.153 88.4222C326.29 88.354 326.495 88.2177 326.563 88.0813C326.631 87.9449 326.767 87.8767 326.836 87.7403V86.1037H325.608C325.267 86.1037 324.926 86.1719 324.653 86.2401C324.38 86.3083 324.175 86.4447 323.971 86.5128C323.766 86.581 323.698 86.7856 323.63 86.9902C323.562 87.1948 323.493 87.3993 323.493 87.6039C323.493 87.9449 323.63 88.2177 323.834 88.4222C324.107 88.5586 324.448 88.695 324.926 88.695Z" fill="#0072B2"/>
<path d="M331.747 85.6263C331.747 84.9444 331.815 84.2625 332.019 83.6488C332.156 83.035 332.429 82.5577 332.77 82.1485C333.111 81.7394 333.452 81.3984 333.929 81.1938C334.407 80.9893 334.884 80.8529 335.498 80.8529C335.976 80.8529 336.453 80.9211 336.794 81.1256C337.135 81.3302 337.476 81.5348 337.817 81.8758V77.1023H340.205V90.3998H338.022L337.885 89.4451C337.613 89.7861 337.272 90.0589 336.862 90.2634C336.453 90.468 335.976 90.5362 335.498 90.5362C334.952 90.5362 334.407 90.3998 333.929 90.1952C333.452 89.9225 333.111 89.6497 332.77 89.1724C332.429 88.7632 332.224 88.2177 332.019 87.6721C331.815 87.1266 331.747 86.4447 331.747 85.7627V85.6263ZM334.134 85.8309C334.134 86.2401 334.134 86.581 334.202 86.922C334.27 87.263 334.407 87.5357 334.543 87.8085C334.68 88.0813 334.884 88.2859 335.157 88.4222C335.43 88.5586 335.703 88.6268 336.044 88.6268C336.453 88.6268 336.794 88.5586 337.067 88.354C337.34 88.1495 337.544 87.9449 337.749 87.6039V83.7852C337.613 83.4442 337.34 83.2396 337.067 83.035C336.794 82.8305 336.453 82.7623 336.044 82.7623C335.703 82.7623 335.43 82.8305 335.157 82.9668C334.884 83.1032 334.748 83.3078 334.543 83.5806C334.339 83.8533 334.27 84.1261 334.202 84.4671C334.134 84.808 334.066 85.149 334.066 85.5582V85.8309H334.134Z" fill="#0072B2"/>
<path d="M348.663 87.8085C348.663 87.6721 348.663 87.5357 348.594 87.3994C348.526 87.263 348.39 87.1948 348.253 87.0584C348.117 86.9902 347.844 86.8538 347.571 86.7856C347.298 86.7174 346.957 86.6492 346.48 86.5128C345.934 86.3765 345.457 86.2401 344.979 86.1037C344.502 85.9673 344.161 85.7627 343.82 85.49C343.479 85.2172 343.274 85.0126 343.069 84.6717C342.865 84.3989 342.797 83.9897 342.797 83.6488C342.797 83.2396 342.865 82.8986 343.069 82.5577C343.274 82.2167 343.547 81.8758 343.888 81.603C344.229 81.3302 344.638 81.1256 345.184 80.9893C345.73 80.8529 346.207 80.7847 346.889 80.7847C347.571 80.7847 348.117 80.8529 348.663 80.9893C349.208 81.1256 349.618 81.3302 349.959 81.603C350.3 81.8758 350.572 82.2167 350.777 82.5577C350.982 82.8986 351.05 83.3078 351.05 83.7852H348.663C348.663 83.4442 348.526 83.1032 348.253 82.8986C347.98 82.6941 347.503 82.5577 346.889 82.5577C346.343 82.5577 345.934 82.6259 345.593 82.8305C345.32 83.035 345.184 83.3078 345.184 83.5806C345.184 83.717 345.184 83.8533 345.252 83.9897C345.32 84.1261 345.389 84.1943 345.593 84.3307C345.73 84.3989 345.934 84.5353 346.207 84.6035C346.48 84.6717 346.753 84.7398 347.162 84.808C347.708 84.8762 348.253 85.0126 348.731 85.149C349.208 85.2854 349.618 85.49 349.959 85.6945C350.3 85.8991 350.572 86.1719 350.777 86.5128C350.982 86.8538 351.05 87.1948 351.05 87.6721C351.05 88.0813 350.982 88.4904 350.777 88.8314C350.572 89.1724 350.3 89.5133 349.959 89.7179C349.618 89.9907 349.14 90.1952 348.663 90.3316C348.185 90.468 347.571 90.5362 346.889 90.5362C346.207 90.5362 345.593 90.468 345.047 90.2634C344.502 90.0589 344.024 89.8543 343.683 89.5133C343.342 89.1724 343.069 88.8996 342.865 88.4904C342.66 88.0813 342.592 87.7403 342.592 87.3312H344.911C344.911 87.6039 344.979 87.8085 345.116 88.0131C345.252 88.2177 345.389 88.354 345.593 88.4222C345.798 88.4904 346.002 88.6268 346.275 88.695C346.548 88.7632 346.753 88.7632 347.026 88.7632C347.639 88.7632 348.049 88.695 348.39 88.4904C348.731 88.2859 348.663 88.0813 348.663 87.8085Z" fill="#0072B2"/>
<path d="M251.942 118.086H147.035V293.613H251.942V118.086Z" fill="#61D199"/>
<path d="M251.601 114.54H147.376C145.125 114.54 143.284 116.381 143.284 118.631V291.772C143.284 294.022 145.125 295.864 147.376 295.864H251.601C253.851 295.864 255.693 294.022 255.693 291.772V118.7C255.693 116.449 253.851 114.54 251.601 114.54ZM249.827 132.543H237.822V120.473H249.827V132.543ZM196.555 191.461V203.258H184.755V191.461H196.555ZM184.755 185.528V173.799H196.555V185.596H184.755V185.528ZM196.555 209.123V220.92H184.755V209.123H196.555ZM196.555 226.785V238.582H184.755V226.785H196.555ZM202.421 226.785H214.222V238.582H202.421V226.785ZM202.421 220.92V209.123H214.222V220.92H202.421ZM202.421 203.19V191.393H214.222V203.19H202.421ZM202.421 185.528V173.799H214.222V185.596H202.421V185.528ZM202.421 167.866V156.069H214.222V167.866H202.421ZM202.421 150.205V138.407H214.222V150.205H202.421ZM196.555 150.205H184.755V138.407H196.555V150.205ZM196.555 156.069V167.866H184.755V156.069H196.555ZM178.889 167.866H167.089V156.069H178.889V167.866ZM178.889 173.799V185.596H167.089V173.799H178.889ZM178.889 191.461V203.258H167.089V191.461H178.889ZM178.889 209.123V220.92H167.089V209.123H178.889ZM178.889 226.785V238.582H167.089V226.785H178.889ZM178.889 244.447V256.244H167.089V244.447H178.889ZM184.755 244.447H196.555V256.244H184.755V244.447ZM196.555 262.108V273.906H184.755V262.108H196.555ZM202.421 262.108H214.222V273.906H202.421V262.108ZM202.421 256.244V244.447H214.222V256.244H202.421ZM220.088 244.447H231.888V256.244H220.088V244.447ZM220.088 238.582V226.785H231.888V238.582H220.088ZM220.088 220.92V209.123H231.888V220.92H220.088ZM220.088 203.19V191.393H231.888V203.19H220.088ZM220.088 185.528V173.799H231.888V185.596H220.088V185.528ZM220.088 167.866V156.069H231.888V167.866H220.088ZM220.088 150.205V138.407H231.888V150.205H220.088ZM220.088 132.543V120.473H231.888V132.543H220.088ZM214.222 132.543H202.421V120.473H214.222V132.543ZM196.555 132.543H184.755V120.473H196.555V132.543ZM178.889 132.543H167.089V120.473H178.889V132.543ZM178.889 138.407V150.205H167.089V138.407H178.889ZM161.223 150.205H149.218V138.407H161.223V150.205ZM161.223 156.069V167.866H149.218V156.069H161.223ZM161.223 173.799V185.596H149.218V173.799H161.223ZM161.223 191.461V203.258H149.218V191.461H161.223ZM161.223 209.123V220.92H149.218V209.123H161.223ZM161.223 226.785V238.582H149.218V226.785H161.223ZM161.223 244.447V256.244H149.218V244.447H161.223ZM161.223 262.108V273.906H149.218V262.108H161.223ZM167.089 262.108H178.889V273.906H167.089V262.108V262.108ZM178.889 279.77V290.067H167.089V279.77H178.889ZM184.755 279.77H196.555V290.067H184.755V279.77ZM202.421 279.77H214.222V290.067H202.421V279.77ZM220.088 279.77H231.888V290.067H220.088V279.77ZM220.088 273.906V262.108H231.888V273.906H220.088ZM237.754 262.108H249.759V273.906H237.754V262.108ZM237.754 256.244V244.447H249.759V256.244H237.754ZM237.754 238.582V226.785H249.759V238.582H237.754ZM237.754 220.92V209.123H249.759V220.92H237.754ZM237.754 203.19V191.393H249.759V203.19H237.754ZM237.754 185.528V173.799H249.759V185.596H237.754V185.528ZM237.754 167.866V156.069H249.759V167.866H237.754ZM237.754 150.205V138.407H249.759V150.205H237.754ZM161.223 120.473V132.543H149.218V120.473H161.223ZM149.15 279.77H161.155V290.067H149.15V279.77ZM237.754 290.135V279.838H249.759V290.135H237.754Z" fill="#0072B2"/>
<path d="M380.516 114.54H276.292C274.041 114.54 272.2 116.381 272.2 118.631V291.772C272.2 294.022 274.041 295.864 276.292 295.864H380.516C382.767 295.864 384.609 294.022 384.609 291.772V118.7C384.609 116.449 382.767 114.54 380.516 114.54ZM378.743 132.543H366.738V120.473H378.743V132.543ZM325.471 191.461V203.258H313.671V191.461H325.471ZM313.671 185.528V173.799H325.471V185.596H313.671V185.528ZM325.471 209.123V220.92H313.671V209.123H325.471ZM325.471 226.785V238.582H313.671V226.785H325.471ZM331.337 226.785H343.138V238.582H331.337V226.785ZM331.337 220.92V209.123H343.138V220.92H331.337ZM331.337 203.19V191.393H343.138V203.19H331.337ZM331.337 185.528V173.799H343.138V185.596H331.337V185.528ZM331.337 167.866V156.069H343.138V167.866H331.337ZM331.337 150.205V138.407H343.138V150.205H331.337ZM325.471 150.205H313.671V138.407H325.471V150.205ZM325.471 156.069V167.866H313.671V156.069H325.471ZM307.805 167.866H296.005V156.069H307.805V167.866ZM307.805 173.799V185.596H296.005V173.799H307.805ZM307.805 191.461V203.258H296.005V191.461H307.805ZM307.805 209.123V220.92H296.005V209.123H307.805ZM307.805 226.785V238.582H296.005V226.785H307.805ZM307.805 244.447V256.244H296.005V244.447H307.805ZM313.671 244.447H325.471V256.244H313.671V244.447ZM325.471 262.108V273.906H313.671V262.108H325.471ZM331.337 262.108H343.138V273.906H331.337V262.108ZM331.337 256.244V244.447H343.138V256.244H331.337ZM349.004 244.447H360.804V256.244H349.004V244.447ZM349.004 238.582V226.785H360.804V238.582H349.004ZM349.004 220.92V209.123H360.804V220.92H349.004ZM349.004 203.19V191.393H360.804V203.19H349.004ZM349.004 185.528V173.799H360.804V185.596H349.004V185.528ZM349.004 167.866V156.069H360.804V167.866H349.004ZM349.004 150.205V138.407H360.804V150.205H349.004ZM349.004 132.543V120.473H360.804V132.543H349.004ZM343.138 132.543H331.337V120.473H343.138V132.543ZM325.471 132.543H313.671V120.473H325.471V132.543ZM307.805 132.543H296.005V120.473H307.805V132.543ZM307.805 138.407V150.205H296.005V138.407H307.805ZM290.139 150.205H278.134V138.407H290.139V150.205ZM290.139 156.069V167.866H278.134V156.069H290.139ZM290.139 173.799V185.596H278.134V173.799H290.139ZM290.139 191.461V203.258H278.134V191.461H290.139ZM290.139 209.123V220.92H278.134V209.123H290.139ZM290.139 226.785V238.582H278.134V226.785H290.139ZM290.139 244.447V256.244H278.134V244.447H290.139ZM290.139 262.108V273.906H278.134V262.108H290.139ZM296.005 262.108H307.805V273.906H296.005V262.108ZM307.805 279.77V290.067H296.005V279.77H307.805ZM313.671 279.77H325.471V290.067H313.671V279.77ZM331.337 279.77H343.138V290.067H331.337V279.77ZM349.004 279.77H360.804V290.067H349.004V279.77ZM349.004 273.906V262.108H360.804V273.906H349.004ZM366.67 262.108H378.675V273.906H366.67V262.108ZM366.67 256.244V244.447H378.675V256.244H366.67ZM366.67 238.582V226.785H378.675V238.582H366.67ZM366.67 220.92V209.123H378.675V220.92H366.67ZM366.67 203.19V191.393H378.675V203.19H366.67ZM366.67 185.528V173.799H378.675V185.596H366.67V185.528ZM366.67 167.866V156.069H378.675V167.866H366.67ZM366.67 150.205V138.407H378.675V150.205H366.67ZM290.139 120.473V132.543H278.134V120.473H290.139ZM278.066 279.77H290.071V290.067H278.066V279.77ZM366.67 290.135V279.838H378.675V290.135H366.67Z" fill="#E8E8E8"/>
<path d="M122.685 114.54H18.4604C16.2095 114.54 14.3679 116.381 14.3679 118.631V291.772C14.3679 294.022 16.2095 295.864 18.4604 295.864H122.685C124.935 295.864 126.777 294.022 126.777 291.772V118.7C126.777 116.449 124.935 114.54 122.685 114.54ZM120.911 132.543H108.906V120.473H120.911V132.543ZM67.6395 191.461V203.258H55.8392V191.461H67.6395ZM55.8392 185.528V173.799H67.6395V185.596H55.8392V185.528ZM67.6395 209.123V220.92H55.8392V209.123H67.6395ZM67.6395 226.785V238.582H55.8392V226.785H67.6395ZM73.5055 226.785H85.3057V238.582H73.5055V226.785ZM73.5055 220.92V209.123H85.3057V220.92H73.5055ZM73.5055 203.19V191.393H85.3057V203.19H73.5055ZM73.5055 185.528V173.799H85.3057V185.596H73.5055V185.528ZM73.5055 167.866V156.069H85.3057V167.866H73.5055ZM73.5055 150.205V138.407H85.3057V150.205H73.5055ZM67.6395 150.205H55.8392V138.407H67.6395V150.205ZM67.6395 156.069V167.866H55.8392V156.069H67.6395ZM49.9732 167.866H38.173V156.069H49.9732V167.866ZM49.9732 173.799V185.596H38.173V173.799H49.9732ZM49.9732 191.461V203.258H38.173V191.461H49.9732ZM49.9732 209.123V220.92H38.173V209.123H49.9732ZM49.9732 226.785V238.582H38.173V226.785H49.9732ZM49.9732 244.447V256.244H38.173V244.447H49.9732ZM55.8392 244.447H67.6395V256.244H55.8392V244.447ZM67.6395 262.108V273.906H55.8392V262.108H67.6395ZM73.5055 262.108H85.3057V273.906H73.5055V262.108ZM73.5055 256.244V244.447H85.3057V256.244H73.5055ZM91.1718 244.447H102.972V256.244H91.1718V244.447ZM91.1718 238.582V226.785H102.972V238.582H91.1718ZM91.1718 220.92V209.123H102.972V220.92H91.1718ZM91.1718 203.19V191.393H102.972V203.19H91.1718ZM91.1718 185.528V173.799H102.972V185.596H91.1718V185.528ZM91.1718 167.866V156.069H102.972V167.866H91.1718ZM91.1718 150.205V138.407H102.972V150.205H91.1718ZM91.1718 132.543V120.473H102.972V132.543H91.1718ZM85.3057 132.543H73.5055V120.473H85.3057V132.543ZM67.6395 132.543H55.8392V120.473H67.6395V132.543ZM49.9732 132.543H38.173V120.473H49.9732V132.543ZM49.9732 138.407V150.205H38.173V138.407H49.9732ZM32.307 150.205H20.2339V138.407H32.2387V150.205H32.307ZM32.307 156.069V167.866H20.2339V156.069H32.307ZM32.307 173.799V185.596H20.2339V173.799H32.307ZM32.307 191.461V203.258H20.2339V191.461H32.307ZM32.307 209.123V220.92H20.2339V209.123H32.307ZM32.307 226.785V238.582H20.2339V226.785H32.307ZM32.307 244.447V256.244H20.2339V244.447H32.307ZM32.307 262.108V273.906H20.2339V262.108H32.307ZM38.173 262.108H49.9732V273.906H38.173V262.108ZM49.9732 279.77V290.067H38.173V279.77H49.9732ZM55.8392 279.77H67.6395V290.067H55.8392V279.77ZM73.5055 279.77H85.3057V290.067H73.5055V279.77ZM91.1718 279.77H102.972V290.067H91.1718V279.77ZM91.1718 273.906V262.108H102.972V273.906H91.1718ZM108.838 262.108H120.843V273.906H108.838V262.108ZM108.838 256.244V244.447H120.843V256.244H108.838ZM108.838 238.582V226.785H120.843V238.582H108.838ZM108.838 220.92V209.123H120.843V220.92H108.838ZM108.838 203.19V191.393H120.843V203.19H108.838ZM108.838 185.528V173.799H120.843V185.596H108.838V185.528ZM108.838 167.866V156.069H120.843V167.866H108.838ZM108.838 150.205V138.407H120.843V150.205H108.838ZM32.307 120.473V132.543H20.2339V120.473H32.307ZM20.2339 279.77H32.2387V290.067H20.2339V279.77ZM108.838 290.135V279.838H120.843V290.135H108.838Z" fill="#E8E8E8"/>
</svg>
