<svg width="578" height="222" viewBox="0 0 578 222" fill="none" xmlns="http://www.w3.org/2000/svg">
<rect width="578" height="222" fill="white"/>
<path d="M226.536 162.333C226.536 163.798 226.202 164.973 225.534 165.857C224.872 166.736 223.976 167.176 222.845 167.176C221.884 167.176 221.107 166.842 220.516 166.174V170.656H217.976V157.49H220.331L220.419 158.422C221.034 157.684 221.837 157.314 222.827 157.314C223.999 157.314 224.91 157.748 225.561 158.615C226.211 159.482 226.536 160.678 226.536 162.201V162.333ZM223.996 162.148C223.996 161.264 223.838 160.581 223.521 160.101C223.211 159.62 222.757 159.38 222.159 159.38C221.362 159.38 220.814 159.685 220.516 160.294V164.188C220.826 164.814 221.38 165.128 222.177 165.128C223.39 165.128 223.996 164.135 223.996 162.148ZM227.723 162.175C227.723 160.692 228.054 159.512 228.716 158.633C229.384 157.754 230.295 157.314 231.449 157.314C232.375 157.314 233.14 157.66 233.743 158.352V153.5H236.292V167H233.998L233.875 165.989C233.242 166.78 232.428 167.176 231.432 167.176C230.312 167.176 229.413 166.736 228.733 165.857C228.06 164.973 227.723 163.745 227.723 162.175ZM230.263 162.359C230.263 163.25 230.418 163.933 230.729 164.407C231.039 164.882 231.49 165.119 232.082 165.119C232.867 165.119 233.421 164.788 233.743 164.126V160.373C233.427 159.711 232.879 159.38 232.1 159.38C230.875 159.38 230.263 160.373 230.263 162.359Z" fill="#EB5757"/>
<path d="M238.393 165.752C238.393 165.348 238.527 165.02 238.797 164.768C239.072 164.516 239.415 164.39 239.825 164.39C240.241 164.39 240.584 164.516 240.854 164.768C241.129 165.02 241.267 165.348 241.267 165.752C241.267 166.15 241.132 166.476 240.862 166.728C240.593 166.974 240.247 167.097 239.825 167.097C239.409 167.097 239.066 166.974 238.797 166.728C238.527 166.476 238.393 166.15 238.393 165.752ZM247.454 165.128C247.923 165.128 248.304 164.999 248.597 164.741C248.89 164.483 249.042 164.141 249.054 163.713H251.436C251.43 164.357 251.254 164.949 250.908 165.488C250.562 166.021 250.088 166.438 249.484 166.736C248.887 167.029 248.225 167.176 247.498 167.176C246.139 167.176 245.066 166.745 244.281 165.884C243.496 165.017 243.104 163.821 243.104 162.298V162.131C243.104 160.666 243.493 159.497 244.272 158.624C245.052 157.751 246.121 157.314 247.48 157.314C248.67 157.314 249.622 157.654 250.337 158.334C251.058 159.008 251.424 159.907 251.436 161.032H249.054C249.042 160.54 248.89 160.142 248.597 159.837C248.304 159.526 247.917 159.371 247.437 159.371C246.845 159.371 246.396 159.588 246.092 160.021C245.793 160.449 245.644 161.146 245.644 162.113V162.377C245.644 163.355 245.793 164.059 246.092 164.486C246.391 164.914 246.845 165.128 247.454 165.128ZM252.49 162.157C252.49 161.214 252.672 160.373 253.035 159.635C253.398 158.896 253.92 158.325 254.6 157.921C255.285 157.517 256.079 157.314 256.981 157.314C258.265 157.314 259.311 157.707 260.119 158.492C260.934 159.277 261.388 160.344 261.481 161.691L261.499 162.342C261.499 163.801 261.092 164.973 260.277 165.857C259.463 166.736 258.37 167.176 256.999 167.176C255.628 167.176 254.532 166.736 253.712 165.857C252.897 164.979 252.49 163.783 252.49 162.271V162.157ZM255.03 162.342C255.03 163.244 255.2 163.936 255.54 164.416C255.88 164.891 256.366 165.128 256.999 165.128C257.614 165.128 258.095 164.894 258.44 164.425C258.786 163.95 258.959 163.194 258.959 162.157C258.959 161.272 258.786 160.587 258.44 160.101C258.095 159.614 257.608 159.371 256.981 159.371C256.36 159.371 255.88 159.614 255.54 160.101C255.2 160.581 255.03 161.328 255.03 162.342ZM265.401 157.49L265.48 158.589C266.16 157.739 267.071 157.314 268.214 157.314C269.222 157.314 269.972 157.61 270.464 158.202C270.956 158.794 271.208 159.679 271.22 160.856V167H268.68V160.918C268.68 160.379 268.562 159.989 268.328 159.749C268.094 159.503 267.704 159.38 267.159 159.38C266.444 159.38 265.908 159.685 265.551 160.294V167H263.011V157.49H265.401ZM277.108 165.128C277.577 165.128 277.958 164.999 278.251 164.741C278.544 164.483 278.696 164.141 278.708 163.713H281.09C281.084 164.357 280.908 164.949 280.562 165.488C280.217 166.021 279.742 166.438 279.139 166.736C278.541 167.029 277.879 167.176 277.152 167.176C275.793 167.176 274.721 166.745 273.936 165.884C273.15 165.017 272.758 163.821 272.758 162.298V162.131C272.758 160.666 273.147 159.497 273.927 158.624C274.706 157.751 275.775 157.314 277.135 157.314C278.324 157.314 279.276 157.654 279.991 158.334C280.712 159.008 281.078 159.907 281.09 161.032H278.708C278.696 160.54 278.544 160.142 278.251 159.837C277.958 159.526 277.571 159.371 277.091 159.371C276.499 159.371 276.051 159.588 275.746 160.021C275.447 160.449 275.298 161.146 275.298 162.113V162.377C275.298 163.355 275.447 164.059 275.746 164.486C276.045 164.914 276.499 165.128 277.108 165.128ZM288.051 167C287.934 166.771 287.849 166.487 287.796 166.147C287.181 166.833 286.381 167.176 285.396 167.176C284.465 167.176 283.691 166.906 283.076 166.367C282.467 165.828 282.162 165.148 282.162 164.328C282.162 163.32 282.534 162.547 283.278 162.008C284.028 161.469 285.109 161.196 286.521 161.19H287.69V160.646C287.69 160.206 287.576 159.854 287.348 159.591C287.125 159.327 286.771 159.195 286.284 159.195C285.856 159.195 285.52 159.298 285.273 159.503C285.033 159.708 284.913 159.989 284.913 160.347H282.373C282.373 159.796 282.543 159.286 282.883 158.817C283.223 158.349 283.703 157.982 284.324 157.719C284.945 157.449 285.643 157.314 286.416 157.314C287.588 157.314 288.517 157.61 289.202 158.202C289.894 158.788 290.239 159.614 290.239 160.681V164.803C290.245 165.705 290.371 166.388 290.617 166.851V167H288.051ZM285.95 165.233C286.325 165.233 286.671 165.151 286.987 164.987C287.304 164.817 287.538 164.592 287.69 164.311V162.676H286.741C285.47 162.676 284.793 163.115 284.711 163.994L284.702 164.144C284.702 164.46 284.813 164.721 285.036 164.926C285.259 165.131 285.563 165.233 285.95 165.233ZM295.231 155.152V157.49H296.857V159.354H295.231V164.1C295.231 164.451 295.299 164.703 295.434 164.855C295.568 165.008 295.826 165.084 296.207 165.084C296.488 165.084 296.737 165.063 296.954 165.022V166.947C296.456 167.1 295.943 167.176 295.416 167.176C293.635 167.176 292.727 166.276 292.691 164.478V159.354H291.303V157.49H292.691V155.152H295.231ZM298.466 161.806C298.466 160.481 298.642 159.21 298.993 157.991C299.351 156.772 299.881 155.665 300.584 154.669C301.287 153.673 302.017 152.97 302.772 152.56L303.106 153.632C302.251 154.288 301.548 155.29 300.997 156.638C300.452 157.985 300.153 159.494 300.101 161.164L300.092 161.911C300.092 164.173 300.505 166.136 301.331 167.8C301.829 168.796 302.421 169.575 303.106 170.138L302.772 171.131C301.993 170.697 301.249 169.971 300.54 168.951C299.157 166.959 298.466 164.577 298.466 161.806ZM390.118 161.894C390.118 163.2 389.945 164.454 389.6 165.655C389.26 166.851 388.735 167.955 388.026 168.969C387.323 169.982 386.585 170.703 385.812 171.131L385.469 170.138C386.371 169.446 387.095 168.374 387.64 166.921C388.19 165.462 388.472 163.845 388.483 162.069V161.788C388.483 160.558 388.354 159.415 388.097 158.36C387.839 157.3 387.479 156.351 387.016 155.513C386.559 154.675 386.043 154.021 385.469 153.553L385.812 152.56C386.585 152.987 387.32 153.702 388.018 154.704C388.721 155.706 389.245 156.811 389.591 158.018C389.942 159.225 390.118 160.517 390.118 161.894Z" fill="black"/>
<path d="M312.766 154.071H311.518V168.02H312.766V169.979H308.969V152.111H312.766V154.071ZM313.504 162.175C313.504 160.692 313.835 159.512 314.497 158.633C315.165 157.754 316.076 157.314 317.23 157.314C318.156 157.314 318.921 157.66 319.524 158.352V153.5H322.073V167H319.779L319.656 165.989C319.023 166.78 318.209 167.176 317.213 167.176C316.094 167.176 315.194 166.736 314.515 165.857C313.841 164.973 313.504 163.745 313.504 162.175ZM316.044 162.359C316.044 163.25 316.199 163.933 316.51 164.407C316.82 164.882 317.271 165.119 317.863 165.119C318.648 165.119 319.202 164.788 319.524 164.126V160.373C319.208 159.711 318.66 159.38 317.881 159.38C316.656 159.38 316.044 160.373 316.044 162.359ZM324.736 167V159.354H323.321V157.49H324.736V156.682C324.736 155.615 325.041 154.789 325.65 154.203C326.266 153.611 327.124 153.315 328.226 153.315C328.577 153.315 329.008 153.374 329.518 153.491L329.491 155.46C329.28 155.407 329.022 155.381 328.718 155.381C327.763 155.381 327.285 155.829 327.285 156.726V157.49H329.175V159.354H327.285V167H324.736ZM336.558 167H334.018V157.209L330.985 158.149V156.084L336.285 154.186H336.558V167ZM341.488 170.208L340.161 169.514L340.478 168.942C340.87 168.228 341.072 167.516 341.084 166.807V164.838H343.229L343.22 166.596C343.214 167.246 343.05 167.902 342.728 168.564C342.405 169.227 341.992 169.774 341.488 170.208ZM349.311 162.175C349.311 160.692 349.642 159.512 350.304 158.633C350.972 157.754 351.883 157.314 353.037 157.314C353.963 157.314 354.728 157.66 355.331 158.352V153.5H357.88V167H355.586L355.463 165.989C354.83 166.78 354.016 167.176 353.02 167.176C351.9 167.176 351.001 166.736 350.321 165.857C349.647 164.973 349.311 163.745 349.311 162.175ZM351.851 162.359C351.851 163.25 352.006 163.933 352.316 164.407C352.627 164.882 353.078 165.119 353.67 165.119C354.455 165.119 355.009 164.788 355.331 164.126V160.373C355.015 159.711 354.467 159.38 353.688 159.38C352.463 159.38 351.851 160.373 351.851 162.359ZM360.543 167V159.354H359.128V157.49H360.543V156.682C360.543 155.615 360.848 154.789 361.457 154.203C362.072 153.611 362.931 153.315 364.032 153.315C364.384 153.315 364.814 153.374 365.324 153.491L365.298 155.46C365.087 155.407 364.829 155.381 364.524 155.381C363.569 155.381 363.092 155.829 363.092 156.726V157.49H364.981V159.354H363.092V167H360.543ZM374.966 167H366.194V165.26L370.334 160.848C370.902 160.227 371.321 159.685 371.591 159.222C371.866 158.759 372.004 158.319 372.004 157.903C372.004 157.335 371.86 156.89 371.573 156.567C371.286 156.239 370.876 156.075 370.343 156.075C369.769 156.075 369.314 156.274 368.98 156.673C368.652 157.065 368.488 157.584 368.488 158.229H365.939C365.939 157.449 366.124 156.737 366.493 156.093C366.868 155.448 367.396 154.944 368.075 154.581C368.755 154.212 369.525 154.027 370.387 154.027C371.705 154.027 372.728 154.344 373.454 154.977C374.187 155.609 374.553 156.503 374.553 157.657C374.553 158.29 374.389 158.935 374.061 159.591C373.732 160.247 373.17 161.012 372.373 161.885L369.464 164.952H374.966V167ZM375.774 152.111H379.571V169.979H375.774V168.02H377.031V154.071H375.774V152.111Z" fill="#0072B2"/>
<path d="M330.939 39.4932V43H328.889V33.0469H332.771C333.519 33.0469 334.175 33.1836 334.74 33.457C335.31 33.7305 335.747 34.1201 336.053 34.626C336.358 35.1273 336.511 35.6992 336.511 36.3418C336.511 37.3171 336.176 38.0872 335.506 38.6523C334.84 39.2129 333.918 39.4932 332.737 39.4932H330.939ZM330.939 37.832H332.771C333.314 37.832 333.726 37.7044 334.009 37.4492C334.296 37.194 334.439 36.8294 334.439 36.3555C334.439 35.8678 334.296 35.4736 334.009 35.1729C333.722 34.8721 333.325 34.7171 332.819 34.708H330.939V37.832ZM342 43C341.909 42.8223 341.843 42.6012 341.802 42.3369C341.323 42.8701 340.701 43.1367 339.936 43.1367C339.211 43.1367 338.609 42.9271 338.131 42.5078C337.657 42.0885 337.42 41.5599 337.42 40.9219C337.42 40.138 337.709 39.5365 338.288 39.1172C338.871 38.6979 339.712 38.486 340.811 38.4814H341.72V38.0576C341.72 37.7158 341.631 37.4424 341.453 37.2373C341.28 37.0322 341.004 36.9297 340.626 36.9297C340.293 36.9297 340.031 37.0094 339.84 37.1689C339.653 37.3285 339.56 37.5472 339.56 37.8252H337.584C337.584 37.3968 337.716 37.0003 337.98 36.6357C338.245 36.2712 338.618 35.9863 339.102 35.7812C339.585 35.5716 340.127 35.4668 340.729 35.4668C341.64 35.4668 342.362 35.6969 342.896 36.1572C343.433 36.613 343.702 37.2555 343.702 38.085V41.291C343.707 41.9928 343.805 42.5238 343.996 42.8838V43H342ZM340.366 41.626C340.658 41.626 340.927 41.5622 341.173 41.4346C341.419 41.3024 341.601 41.127 341.72 40.9082V39.6367H340.981C339.993 39.6367 339.466 39.9785 339.402 40.6621L339.396 40.7783C339.396 41.0244 339.482 41.2272 339.655 41.3867C339.828 41.5462 340.065 41.626 340.366 41.626ZM349.226 40.9561C349.226 40.7145 349.105 40.5254 348.863 40.3887C348.626 40.2474 348.243 40.1221 347.715 40.0127C345.956 39.6436 345.076 38.8962 345.076 37.7705C345.076 37.1143 345.347 36.5674 345.89 36.1299C346.437 35.6878 347.15 35.4668 348.029 35.4668C348.968 35.4668 349.718 35.6878 350.278 36.1299C350.843 36.5719 351.126 37.1462 351.126 37.8525H349.15C349.15 37.57 349.059 37.3376 348.877 37.1553C348.695 36.9684 348.41 36.875 348.022 36.875C347.69 36.875 347.432 36.9502 347.25 37.1006C347.068 37.251 346.977 37.4424 346.977 37.6748C346.977 37.8936 347.079 38.0713 347.284 38.208C347.494 38.3402 347.845 38.4564 348.337 38.5566C348.829 38.6523 349.244 38.7617 349.581 38.8848C350.625 39.2676 351.146 39.9307 351.146 40.874C351.146 41.5485 350.857 42.0954 350.278 42.5146C349.7 42.9294 348.952 43.1367 348.036 43.1367C347.416 43.1367 346.865 43.0273 346.382 42.8086C345.903 42.5853 345.527 42.2822 345.254 41.8994C344.98 41.512 344.844 41.0951 344.844 40.6484H346.717C346.735 40.9993 346.865 41.2682 347.106 41.4551C347.348 41.6419 347.672 41.7354 348.077 41.7354C348.455 41.7354 348.74 41.6647 348.932 41.5234C349.128 41.3776 349.226 41.1885 349.226 40.9561ZM356.431 40.9561C356.431 40.7145 356.31 40.5254 356.068 40.3887C355.831 40.2474 355.449 40.1221 354.92 40.0127C353.161 39.6436 352.281 38.8962 352.281 37.7705C352.281 37.1143 352.552 36.5674 353.095 36.1299C353.642 35.6878 354.355 35.4668 355.234 35.4668C356.173 35.4668 356.923 35.6878 357.483 36.1299C358.049 36.5719 358.331 37.1462 358.331 37.8525H356.355C356.355 37.57 356.264 37.3376 356.082 37.1553C355.9 36.9684 355.615 36.875 355.228 36.875C354.895 36.875 354.637 36.9502 354.455 37.1006C354.273 37.251 354.182 37.4424 354.182 37.6748C354.182 37.8936 354.284 38.0713 354.489 38.208C354.699 38.3402 355.05 38.4564 355.542 38.5566C356.034 38.6523 356.449 38.7617 356.786 38.8848C357.83 39.2676 358.352 39.9307 358.352 40.874C358.352 41.5485 358.062 42.0954 357.483 42.5146C356.905 42.9294 356.157 43.1367 355.241 43.1367C354.621 43.1367 354.07 43.0273 353.587 42.8086C353.108 42.5853 352.732 42.2822 352.459 41.8994C352.186 41.512 352.049 41.0951 352.049 40.6484H353.922C353.94 40.9993 354.07 41.2682 354.312 41.4551C354.553 41.6419 354.877 41.7354 355.282 41.7354C355.66 41.7354 355.945 41.6647 356.137 41.5234C356.333 41.3776 356.431 41.1885 356.431 40.9561ZM365.481 33.7852V35.6035H366.746V37.0527H365.481V40.7441C365.481 41.0176 365.534 41.2135 365.639 41.332C365.743 41.4505 365.944 41.5098 366.24 41.5098C366.459 41.5098 366.653 41.4938 366.821 41.4619V42.959C366.434 43.0775 366.035 43.1367 365.625 43.1367C364.24 43.1367 363.533 42.4372 363.506 41.0381V37.0527H362.426V35.6035H363.506V33.7852H365.481ZM369.774 36.4102C370.299 35.7812 370.957 35.4668 371.75 35.4668C373.354 35.4668 374.168 36.3988 374.19 38.2627V43H372.215V38.3174C372.215 37.8936 372.124 37.5814 371.941 37.3809C371.759 37.1758 371.456 37.0732 371.032 37.0732C370.453 37.0732 370.034 37.2965 369.774 37.7432V43H367.799V32.5H369.774V36.4102ZM379.085 43.1367C378 43.1367 377.116 42.804 376.433 42.1387C375.754 41.4733 375.414 40.5869 375.414 39.4795V39.2881C375.414 38.5452 375.558 37.8822 375.845 37.2988C376.132 36.7109 376.537 36.2598 377.062 35.9453C377.59 35.6263 378.192 35.4668 378.866 35.4668C379.878 35.4668 380.673 35.7858 381.252 36.4238C381.835 37.0618 382.127 37.9665 382.127 39.1377V39.9443H377.417C377.481 40.4274 377.672 40.8148 377.991 41.1064C378.315 41.3981 378.723 41.5439 379.215 41.5439C379.976 41.5439 380.571 41.2682 380.999 40.7168L381.97 41.8037C381.674 42.223 381.272 42.5511 380.767 42.7881C380.261 43.0205 379.7 43.1367 379.085 43.1367ZM378.859 37.0664C378.467 37.0664 378.148 37.1986 377.902 37.4629C377.661 37.7272 377.506 38.1055 377.438 38.5977H380.186V38.4404C380.176 38.0029 380.058 37.6657 379.83 37.4287C379.602 37.1872 379.279 37.0664 378.859 37.0664ZM386.434 39.2471C386.434 38.0941 386.691 37.1758 387.206 36.4922C387.726 35.8086 388.434 35.4668 389.332 35.4668C390.052 35.4668 390.647 35.7357 391.116 36.2734V32.5H393.099V43H391.314L391.219 42.2139C390.727 42.8291 390.093 43.1367 389.318 43.1367C388.448 43.1367 387.748 42.7949 387.22 42.1113C386.696 41.4232 386.434 40.4684 386.434 39.2471ZM388.409 39.3906C388.409 40.0833 388.53 40.6143 388.771 40.9834C389.013 41.3525 389.364 41.5371 389.824 41.5371C390.435 41.5371 390.866 41.2796 391.116 40.7646V37.8457C390.87 37.3307 390.444 37.0732 389.838 37.0732C388.885 37.0732 388.409 37.8457 388.409 39.3906ZM398.916 43C398.825 42.8223 398.759 42.6012 398.718 42.3369C398.239 42.8701 397.617 43.1367 396.852 43.1367C396.127 43.1367 395.525 42.9271 395.047 42.5078C394.573 42.0885 394.336 41.5599 394.336 40.9219C394.336 40.138 394.625 39.5365 395.204 39.1172C395.787 38.6979 396.628 38.486 397.727 38.4814H398.636V38.0576C398.636 37.7158 398.547 37.4424 398.369 37.2373C398.196 37.0322 397.92 36.9297 397.542 36.9297C397.209 36.9297 396.947 37.0094 396.756 37.1689C396.569 37.3285 396.476 37.5472 396.476 37.8252H394.5C394.5 37.3968 394.632 37.0003 394.896 36.6357C395.161 36.2712 395.535 35.9863 396.018 35.7812C396.501 35.5716 397.043 35.4668 397.645 35.4668C398.556 35.4668 399.278 35.6969 399.812 36.1572C400.349 36.613 400.618 37.2555 400.618 38.085V41.291C400.623 41.9928 400.721 42.5238 400.912 42.8838V43H398.916ZM397.282 41.626C397.574 41.626 397.843 41.5622 398.089 41.4346C398.335 41.3024 398.517 41.127 398.636 40.9082V39.6367H397.897C396.909 39.6367 396.382 39.9785 396.318 40.6621L396.312 40.7783C396.312 41.0244 396.398 41.2272 396.571 41.3867C396.744 41.5462 396.981 41.626 397.282 41.626ZM404.501 33.7852V35.6035H405.766V37.0527H404.501V40.7441C404.501 41.0176 404.553 41.2135 404.658 41.332C404.763 41.4505 404.964 41.5098 405.26 41.5098C405.479 41.5098 405.672 41.4938 405.841 41.4619V42.959C405.453 43.0775 405.055 43.1367 404.645 43.1367C403.259 43.1367 402.553 42.4372 402.525 41.0381V37.0527H401.445V35.6035H402.525V33.7852H404.501ZM411.152 43C411.061 42.8223 410.995 42.6012 410.954 42.3369C410.476 42.8701 409.854 43.1367 409.088 43.1367C408.363 43.1367 407.762 42.9271 407.283 42.5078C406.809 42.0885 406.572 41.5599 406.572 40.9219C406.572 40.138 406.862 39.5365 407.44 39.1172C408.024 38.6979 408.865 38.486 409.963 38.4814H410.872V38.0576C410.872 37.7158 410.783 37.4424 410.605 37.2373C410.432 37.0322 410.157 36.9297 409.778 36.9297C409.446 36.9297 409.184 37.0094 408.992 37.1689C408.805 37.3285 408.712 37.5472 408.712 37.8252H406.736C406.736 37.3968 406.868 37.0003 407.133 36.6357C407.397 36.2712 407.771 35.9863 408.254 35.7812C408.737 35.5716 409.279 35.4668 409.881 35.4668C410.792 35.4668 411.515 35.6969 412.048 36.1572C412.586 36.613 412.854 37.2555 412.854 38.085V41.291C412.859 41.9928 412.957 42.5238 413.148 42.8838V43H411.152ZM409.519 41.626C409.81 41.626 410.079 41.5622 410.325 41.4346C410.571 41.3024 410.754 41.127 410.872 40.9082V39.6367H410.134C409.145 39.6367 408.618 39.9785 408.555 40.6621L408.548 40.7783C408.548 41.0244 408.634 41.2272 408.808 41.3867C408.981 41.5462 409.218 41.626 409.519 41.626ZM414.912 43V37.0527H413.812V35.6035H414.912V34.9746C414.912 34.1452 415.149 33.5026 415.623 33.0469C416.102 32.5866 416.769 32.3564 417.626 32.3564C417.899 32.3564 418.234 32.402 418.631 32.4932L418.61 34.0244C418.446 33.9834 418.246 33.9629 418.009 33.9629C417.266 33.9629 416.895 34.3115 416.895 35.0088V35.6035H418.364V37.0527H416.895V43H414.912ZM423.546 37.4561C423.277 37.4196 423.04 37.4014 422.835 37.4014C422.088 37.4014 421.598 37.6543 421.365 38.1602V43H419.39V35.6035H421.256L421.311 36.4854C421.707 35.8063 422.256 35.4668 422.958 35.4668C423.177 35.4668 423.382 35.4964 423.573 35.5557L423.546 37.4561ZM428.584 43C428.493 42.8223 428.427 42.6012 428.386 42.3369C427.907 42.8701 427.285 43.1367 426.52 43.1367C425.795 43.1367 425.193 42.9271 424.715 42.5078C424.241 42.0885 424.004 41.5599 424.004 40.9219C424.004 40.138 424.293 39.5365 424.872 39.1172C425.455 38.6979 426.296 38.486 427.395 38.4814H428.304V38.0576C428.304 37.7158 428.215 37.4424 428.037 37.2373C427.864 37.0322 427.588 36.9297 427.21 36.9297C426.877 36.9297 426.615 37.0094 426.424 37.1689C426.237 37.3285 426.144 37.5472 426.144 37.8252H424.168C424.168 37.3968 424.3 37.0003 424.564 36.6357C424.829 36.2712 425.202 35.9863 425.686 35.7812C426.169 35.5716 426.711 35.4668 427.312 35.4668C428.224 35.4668 428.946 35.6969 429.479 36.1572C430.017 36.613 430.286 37.2555 430.286 38.085V41.291C430.291 41.9928 430.389 42.5238 430.58 42.8838V43H428.584ZM426.95 41.626C427.242 41.626 427.511 41.5622 427.757 41.4346C428.003 41.3024 428.185 41.127 428.304 40.9082V39.6367H427.565C426.576 39.6367 426.05 39.9785 425.986 40.6621L425.979 40.7783C425.979 41.0244 426.066 41.2272 426.239 41.3867C426.412 41.5462 426.649 41.626 426.95 41.626ZM433.656 35.6035L433.718 36.4307C434.242 35.7881 434.951 35.4668 435.844 35.4668C436.796 35.4668 437.45 35.8428 437.806 36.5947C438.325 35.8428 439.066 35.4668 440.027 35.4668C440.829 35.4668 441.426 35.7015 441.818 36.1709C442.21 36.6357 442.406 37.3376 442.406 38.2764V43H440.424V38.2832C440.424 37.8639 440.342 37.5586 440.178 37.3672C440.014 37.1712 439.724 37.0732 439.31 37.0732C438.717 37.0732 438.307 37.3558 438.079 37.9209L438.086 43H436.11V38.29C436.11 37.8617 436.026 37.5518 435.857 37.3604C435.689 37.1689 435.402 37.0732 434.996 37.0732C434.436 37.0732 434.03 37.3057 433.779 37.7705V43H431.804V35.6035H433.656ZM447.335 43.1367C446.25 43.1367 445.366 42.804 444.683 42.1387C444.004 41.4733 443.664 40.5869 443.664 39.4795V39.2881C443.664 38.5452 443.808 37.8822 444.095 37.2988C444.382 36.7109 444.787 36.2598 445.312 35.9453C445.84 35.6263 446.442 35.4668 447.116 35.4668C448.128 35.4668 448.923 35.7858 449.502 36.4238C450.085 37.0618 450.377 37.9665 450.377 39.1377V39.9443H445.667C445.731 40.4274 445.922 40.8148 446.241 41.1064C446.565 41.3981 446.973 41.5439 447.465 41.5439C448.226 41.5439 448.821 41.2682 449.249 40.7168L450.22 41.8037C449.924 42.223 449.522 42.5511 449.017 42.7881C448.511 43.0205 447.95 43.1367 447.335 43.1367ZM447.109 37.0664C446.717 37.0664 446.398 37.1986 446.152 37.4629C445.911 37.7272 445.756 38.1055 445.688 38.5977H448.436V38.4404C448.426 38.0029 448.308 37.6657 448.08 37.4287C447.852 37.1872 447.529 37.0664 447.109 37.0664ZM455.511 40.9561C455.511 40.7145 455.39 40.5254 455.148 40.3887C454.911 40.2474 454.529 40.1221 454 40.0127C452.241 39.6436 451.361 38.8962 451.361 37.7705C451.361 37.1143 451.632 36.5674 452.175 36.1299C452.722 35.6878 453.435 35.4668 454.314 35.4668C455.253 35.4668 456.003 35.6878 456.563 36.1299C457.129 36.5719 457.411 37.1462 457.411 37.8525H455.436C455.436 37.57 455.344 37.3376 455.162 37.1553C454.98 36.9684 454.695 36.875 454.308 36.875C453.975 36.875 453.717 36.9502 453.535 37.1006C453.353 37.251 453.262 37.4424 453.262 37.6748C453.262 37.8936 453.364 38.0713 453.569 38.208C453.779 38.3402 454.13 38.4564 454.622 38.5566C455.114 38.6523 455.529 38.7617 455.866 38.8848C456.91 39.2676 457.432 39.9307 457.432 40.874C457.432 41.5485 457.142 42.0954 456.563 42.5146C455.985 42.9294 455.237 43.1367 454.321 43.1367C453.701 43.1367 453.15 43.0273 452.667 42.8086C452.188 42.5853 451.812 42.2822 451.539 41.8994C451.266 41.512 451.129 41.0951 451.129 40.6484H453.002C453.02 40.9993 453.15 41.2682 453.392 41.4551C453.633 41.6419 453.957 41.7354 454.362 41.7354C454.741 41.7354 455.025 41.6647 455.217 41.5234C455.413 41.3776 455.511 41.1885 455.511 40.9561ZM464.958 40.2041L466.325 35.6035H468.444L465.471 44.1484L465.307 44.5381C464.865 45.5042 464.135 45.9873 463.119 45.9873C462.832 45.9873 462.54 45.944 462.244 45.8574V44.3604L462.545 44.3672C462.919 44.3672 463.197 44.3102 463.379 44.1963C463.566 44.0824 463.712 43.8932 463.816 43.6289L464.049 43.0205L461.458 35.6035H463.584L464.958 40.2041ZM468.807 39.2334C468.807 38.4997 468.948 37.8457 469.23 37.2715C469.513 36.6973 469.919 36.2529 470.447 35.9385C470.98 35.624 471.598 35.4668 472.3 35.4668C473.298 35.4668 474.111 35.7721 474.74 36.3828C475.374 36.9935 475.727 37.8229 475.8 38.8711L475.813 39.377C475.813 40.5117 475.497 41.4232 474.863 42.1113C474.23 42.7949 473.38 43.1367 472.313 43.1367C471.247 43.1367 470.395 42.7949 469.757 42.1113C469.123 41.4277 468.807 40.498 468.807 39.3223V39.2334ZM470.782 39.377C470.782 40.0788 470.914 40.6165 471.179 40.9902C471.443 41.3594 471.821 41.5439 472.313 41.5439C472.792 41.5439 473.166 41.3617 473.435 40.9971C473.703 40.6279 473.838 40.04 473.838 39.2334C473.838 38.5452 473.703 38.012 473.435 37.6338C473.166 37.2555 472.787 37.0664 472.3 37.0664C471.817 37.0664 471.443 37.2555 471.179 37.6338C470.914 38.0075 470.782 38.5885 470.782 39.377ZM481.46 42.248C480.972 42.8405 480.298 43.1367 479.437 43.1367C478.644 43.1367 478.037 42.9089 477.618 42.4531C477.203 41.9974 476.992 41.3298 476.982 40.4502V35.6035H478.958V40.3818C478.958 41.152 479.309 41.5371 480.011 41.5371C480.681 41.5371 481.141 41.3047 481.392 40.8398V35.6035H483.374V43H481.515L481.46 42.248ZM494.783 40.3135L495.754 35.6035H497.661L495.774 43H494.12L492.719 38.3447L491.317 43H489.67L487.783 35.6035H489.69L490.654 40.3066L492.008 35.6035H493.437L494.783 40.3135ZM502.932 43C502.84 42.8223 502.774 42.6012 502.733 42.3369C502.255 42.8701 501.633 43.1367 500.867 43.1367C500.143 43.1367 499.541 42.9271 499.062 42.5078C498.589 42.0885 498.352 41.5599 498.352 40.9219C498.352 40.138 498.641 39.5365 499.22 39.1172C499.803 38.6979 500.644 38.486 501.742 38.4814H502.651V38.0576C502.651 37.7158 502.562 37.4424 502.385 37.2373C502.212 37.0322 501.936 36.9297 501.558 36.9297C501.225 36.9297 500.963 37.0094 500.771 37.1689C500.585 37.3285 500.491 37.5472 500.491 37.8252H498.516C498.516 37.3968 498.648 37.0003 498.912 36.6357C499.176 36.2712 499.55 35.9863 500.033 35.7812C500.516 35.5716 501.059 35.4668 501.66 35.4668C502.572 35.4668 503.294 35.6969 503.827 36.1572C504.365 36.613 504.634 37.2555 504.634 38.085V41.291C504.638 41.9928 504.736 42.5238 504.928 42.8838V43H502.932ZM501.298 41.626C501.59 41.626 501.858 41.5622 502.104 41.4346C502.351 41.3024 502.533 41.127 502.651 40.9082V39.6367H501.913C500.924 39.6367 500.398 39.9785 500.334 40.6621L500.327 40.7783C500.327 41.0244 500.414 41.2272 500.587 41.3867C500.76 41.5462 500.997 41.626 501.298 41.626ZM507.97 35.6035L508.031 36.458C508.56 35.7972 509.269 35.4668 510.157 35.4668C510.941 35.4668 511.524 35.6969 511.907 36.1572C512.29 36.6175 512.486 37.3057 512.495 38.2217V43H510.52V38.2695C510.52 37.8503 510.428 37.5472 510.246 37.3604C510.064 37.1689 509.761 37.0732 509.337 37.0732C508.781 37.0732 508.364 37.3102 508.086 37.7842V43H506.11V35.6035H507.97ZM516.364 33.7852V35.6035H517.629V37.0527H516.364V40.7441C516.364 41.0176 516.417 41.2135 516.521 41.332C516.626 41.4505 516.827 41.5098 517.123 41.5098C517.342 41.5098 517.535 41.4938 517.704 41.4619V42.959C517.317 43.0775 516.918 43.1367 516.508 43.1367C515.122 43.1367 514.416 42.4372 514.389 41.0381V37.0527H513.309V35.6035H514.389V33.7852H516.364ZM524.581 33.7852V35.6035H525.846V37.0527H524.581V40.7441C524.581 41.0176 524.633 41.2135 524.738 41.332C524.843 41.4505 525.044 41.5098 525.34 41.5098C525.559 41.5098 525.752 41.4938 525.921 41.4619V42.959C525.534 43.0775 525.135 43.1367 524.725 43.1367C523.339 43.1367 522.633 42.4372 522.605 41.0381V37.0527H521.525V35.6035H522.605V33.7852H524.581ZM526.434 39.2334C526.434 38.4997 526.575 37.8457 526.857 37.2715C527.14 36.6973 527.546 36.2529 528.074 35.9385C528.607 35.624 529.225 35.4668 529.927 35.4668C530.925 35.4668 531.738 35.7721 532.367 36.3828C533.001 36.9935 533.354 37.8229 533.427 38.8711L533.44 39.377C533.44 40.5117 533.124 41.4232 532.49 42.1113C531.857 42.7949 531.007 43.1367 529.94 43.1367C528.874 43.1367 528.022 42.7949 527.384 42.1113C526.75 41.4277 526.434 40.498 526.434 39.3223V39.2334ZM528.409 39.377C528.409 40.0788 528.541 40.6165 528.806 40.9902C529.07 41.3594 529.448 41.5439 529.94 41.5439C530.419 41.5439 530.793 41.3617 531.062 40.9971C531.33 40.6279 531.465 40.04 531.465 39.2334C531.465 38.5452 531.33 38.012 531.062 37.6338C530.793 37.2555 530.414 37.0664 529.927 37.0664C529.444 37.0664 529.07 37.2555 528.806 37.6338C528.541 38.0075 528.409 38.5885 528.409 39.377ZM331.835 57.5439C332.2 57.5439 332.496 57.4437 332.724 57.2432C332.951 57.0426 333.07 56.776 333.079 56.4434H334.932C334.927 56.9447 334.79 57.4049 334.521 57.8242C334.253 58.2389 333.883 58.5625 333.414 58.7949C332.949 59.0228 332.434 59.1367 331.869 59.1367C330.812 59.1367 329.978 58.8018 329.367 58.1318C328.757 57.4574 328.451 56.5277 328.451 55.3428V55.2129C328.451 54.0736 328.754 53.1644 329.36 52.4854C329.966 51.8063 330.798 51.4668 331.855 51.4668C332.781 51.4668 333.521 51.7311 334.077 52.2598C334.638 52.7839 334.923 53.4834 334.932 54.3584H333.079C333.07 53.9756 332.951 53.6657 332.724 53.4287C332.496 53.1872 332.195 53.0664 331.821 53.0664C331.361 53.0664 331.012 53.235 330.775 53.5723C330.543 53.9049 330.427 54.4473 330.427 55.1992V55.4043C330.427 56.1654 330.543 56.7122 330.775 57.0449C331.008 57.3776 331.361 57.5439 331.835 57.5439ZM335.752 55.2334C335.752 54.4997 335.893 53.8457 336.176 53.2715C336.458 52.6973 336.864 52.2529 337.393 51.9385C337.926 51.624 338.543 51.4668 339.245 51.4668C340.243 51.4668 341.057 51.7721 341.686 52.3828C342.319 52.9935 342.672 53.8229 342.745 54.8711L342.759 55.377C342.759 56.5117 342.442 57.4232 341.809 58.1113C341.175 58.7949 340.325 59.1367 339.259 59.1367C338.192 59.1367 337.34 58.7949 336.702 58.1113C336.069 57.4277 335.752 56.498 335.752 55.3223V55.2334ZM337.728 55.377C337.728 56.0788 337.86 56.6165 338.124 56.9902C338.388 57.3594 338.767 57.5439 339.259 57.5439C339.737 57.5439 340.111 57.3617 340.38 56.9971C340.649 56.6279 340.783 56.04 340.783 55.2334C340.783 54.5452 340.649 54.012 340.38 53.6338C340.111 53.2555 339.733 53.0664 339.245 53.0664C338.762 53.0664 338.388 53.2555 338.124 53.6338C337.86 54.0075 337.728 54.5885 337.728 55.377ZM345.828 51.6035L345.89 52.4307C346.414 51.7881 347.122 51.4668 348.016 51.4668C348.968 51.4668 349.622 51.8428 349.978 52.5947C350.497 51.8428 351.238 51.4668 352.199 51.4668C353.001 51.4668 353.598 51.7015 353.99 52.1709C354.382 52.6357 354.578 53.3376 354.578 54.2764V59H352.596V54.2832C352.596 53.8639 352.514 53.5586 352.35 53.3672C352.186 53.1712 351.896 53.0732 351.481 53.0732C350.889 53.0732 350.479 53.3558 350.251 53.9209L350.258 59H348.282V54.29C348.282 53.8617 348.198 53.5518 348.029 53.3604C347.861 53.1689 347.574 53.0732 347.168 53.0732C346.607 53.0732 346.202 53.3057 345.951 53.7705V59H343.976V51.6035H345.828ZM362.768 55.3701C362.768 56.555 362.515 57.4801 362.009 58.1455C361.503 58.8063 360.797 59.1367 359.89 59.1367C359.088 59.1367 358.447 58.8291 357.969 58.2139L357.88 59H356.103V48.5H358.078V52.2666C358.534 51.7334 359.133 51.4668 359.876 51.4668C360.778 51.4668 361.485 51.7995 361.995 52.4648C362.51 53.1257 362.768 54.0576 362.768 55.2607V55.3701ZM360.792 55.2266C360.792 54.4792 360.674 53.9346 360.437 53.5928C360.2 53.2464 359.846 53.0732 359.377 53.0732C358.748 53.0732 358.315 53.3307 358.078 53.8457V56.7646C358.32 57.2842 358.757 57.5439 359.391 57.5439C360.029 57.5439 360.448 57.2295 360.648 56.6006C360.744 56.2998 360.792 55.8418 360.792 55.2266ZM366.076 59H364.094V51.6035H366.076V59ZM363.978 49.6895C363.978 49.3932 364.076 49.1494 364.271 48.958C364.472 48.7666 364.743 48.6709 365.085 48.6709C365.422 48.6709 365.691 48.7666 365.892 48.958C366.092 49.1494 366.192 49.3932 366.192 49.6895C366.192 49.9902 366.09 50.2363 365.885 50.4277C365.684 50.6191 365.418 50.7148 365.085 50.7148C364.752 50.7148 364.483 50.6191 364.278 50.4277C364.078 50.2363 363.978 49.9902 363.978 49.6895ZM369.528 51.6035L369.59 52.458C370.118 51.7972 370.827 51.4668 371.716 51.4668C372.5 51.4668 373.083 51.6969 373.466 52.1572C373.849 52.6175 374.045 53.3057 374.054 54.2217V59H372.078V54.2695C372.078 53.8503 371.987 53.5472 371.805 53.3604C371.622 53.1689 371.319 53.0732 370.896 53.0732C370.34 53.0732 369.923 53.3102 369.645 53.7842V59H367.669V51.6035H369.528ZM378.962 59.1367C377.877 59.1367 376.993 58.804 376.31 58.1387C375.631 57.4733 375.291 56.5869 375.291 55.4795V55.2881C375.291 54.5452 375.435 53.8822 375.722 53.2988C376.009 52.7109 376.414 52.2598 376.938 51.9453C377.467 51.6263 378.069 51.4668 378.743 51.4668C379.755 51.4668 380.55 51.7858 381.129 52.4238C381.712 53.0618 382.004 53.9665 382.004 55.1377V55.9443H377.294C377.358 56.4274 377.549 56.8148 377.868 57.1064C378.192 57.3981 378.6 57.5439 379.092 57.5439C379.853 57.5439 380.448 57.2682 380.876 56.7168L381.847 57.8037C381.55 58.223 381.149 58.5511 380.644 58.7881C380.138 59.0205 379.577 59.1367 378.962 59.1367ZM378.736 53.0664C378.344 53.0664 378.025 53.1986 377.779 53.4629C377.538 53.7272 377.383 54.1055 377.314 54.5977H380.062V54.4404C380.053 54.0029 379.935 53.6657 379.707 53.4287C379.479 53.1872 379.156 53.0664 378.736 53.0664ZM388.703 59H386.721V51.6035H388.703V59ZM386.604 49.6895C386.604 49.3932 386.702 49.1494 386.898 48.958C387.099 48.7666 387.37 48.6709 387.712 48.6709C388.049 48.6709 388.318 48.7666 388.519 48.958C388.719 49.1494 388.819 49.3932 388.819 49.6895C388.819 49.9902 388.717 50.2363 388.512 50.4277C388.311 50.6191 388.045 50.7148 387.712 50.7148C387.379 50.7148 387.11 50.6191 386.905 50.4277C386.705 50.2363 386.604 49.9902 386.604 49.6895ZM392.155 51.6035L392.217 52.458C392.745 51.7972 393.454 51.4668 394.343 51.4668C395.127 51.4668 395.71 51.6969 396.093 52.1572C396.476 52.6175 396.672 53.3057 396.681 54.2217V59H394.705V54.2695C394.705 53.8503 394.614 53.5472 394.432 53.3604C394.249 53.1689 393.946 53.0732 393.522 53.0732C392.966 53.0732 392.549 53.3102 392.271 53.7842V59H390.296V51.6035H392.155ZM400.55 49.7852V51.6035H401.814V53.0527H400.55V56.7441C400.55 57.0176 400.602 57.2135 400.707 57.332C400.812 57.4505 401.012 57.5098 401.309 57.5098C401.527 57.5098 401.721 57.4938 401.89 57.4619V58.959C401.502 59.0775 401.104 59.1367 400.693 59.1367C399.308 59.1367 398.602 58.4372 398.574 57.0381V53.0527H397.494V51.6035H398.574V49.7852H400.55ZM402.402 55.2334C402.402 54.4997 402.544 53.8457 402.826 53.2715C403.109 52.6973 403.514 52.2529 404.043 51.9385C404.576 51.624 405.194 51.4668 405.896 51.4668C406.894 51.4668 407.707 51.7721 408.336 52.3828C408.969 52.9935 409.323 53.8229 409.396 54.8711L409.409 55.377C409.409 56.5117 409.092 57.4232 408.459 58.1113C407.826 58.7949 406.976 59.1367 405.909 59.1367C404.843 59.1367 403.991 58.7949 403.353 58.1113C402.719 57.4277 402.402 56.498 402.402 55.3223V55.2334ZM404.378 55.377C404.378 56.0788 404.51 56.6165 404.774 56.9902C405.039 57.3594 405.417 57.5439 405.909 57.5439C406.388 57.5439 406.761 57.3617 407.03 56.9971C407.299 56.6279 407.434 56.04 407.434 55.2334C407.434 54.5452 407.299 54.012 407.03 53.6338C406.761 53.2555 406.383 53.0664 405.896 53.0664C405.412 53.0664 405.039 53.2555 404.774 53.6338C404.51 54.0075 404.378 54.5885 404.378 55.377ZM416.478 49.7852V51.6035H417.742V53.0527H416.478V56.7441C416.478 57.0176 416.53 57.2135 416.635 57.332C416.74 57.4505 416.94 57.5098 417.236 57.5098C417.455 57.5098 417.649 57.4938 417.817 57.4619V58.959C417.43 59.0775 417.031 59.1367 416.621 59.1367C415.236 59.1367 414.529 58.4372 414.502 57.0381V53.0527H413.422V51.6035H414.502V49.7852H416.478ZM420.771 52.4102C421.295 51.7812 421.953 51.4668 422.746 51.4668C424.35 51.4668 425.164 52.3988 425.187 54.2627V59H423.211V54.3174C423.211 53.8936 423.12 53.5814 422.938 53.3809C422.755 53.1758 422.452 53.0732 422.028 53.0732C421.45 53.0732 421.03 53.2965 420.771 53.7432V59H418.795V48.5H420.771V52.4102ZM430.081 59.1367C428.996 59.1367 428.112 58.804 427.429 58.1387C426.75 57.4733 426.41 56.5869 426.41 55.4795V55.2881C426.41 54.5452 426.554 53.8822 426.841 53.2988C427.128 52.7109 427.534 52.2598 428.058 51.9453C428.586 51.6263 429.188 51.4668 429.862 51.4668C430.874 51.4668 431.669 51.7858 432.248 52.4238C432.831 53.0618 433.123 53.9665 433.123 55.1377V55.9443H428.413C428.477 56.4274 428.668 56.8148 428.987 57.1064C429.311 57.3981 429.719 57.5439 430.211 57.5439C430.972 57.5439 431.567 57.2682 431.995 56.7168L432.966 57.8037C432.67 58.223 432.269 58.5511 431.763 58.7881C431.257 59.0205 430.696 59.1367 430.081 59.1367ZM429.855 53.0664C429.464 53.0664 429.145 53.1986 428.898 53.4629C428.657 53.7272 428.502 54.1055 428.434 54.5977H431.182V54.4404C431.173 54.0029 431.054 53.6657 430.826 53.4287C430.598 53.1872 430.275 53.0664 429.855 53.0664ZM438.277 59V53.0527H437.177V51.6035H438.277V50.9746C438.277 50.1452 438.514 49.5026 438.988 49.0469C439.467 48.5866 440.134 48.3564 440.991 48.3564C441.265 48.3564 441.6 48.402 441.996 48.4932L441.976 50.0244C441.812 49.9834 441.611 49.9629 441.374 49.9629C440.631 49.9629 440.26 50.3115 440.26 51.0088V51.6035H441.729V53.0527H440.26V59H438.277ZM447.185 58.248C446.697 58.8405 446.022 59.1367 445.161 59.1367C444.368 59.1367 443.762 58.9089 443.343 58.4531C442.928 57.9974 442.716 57.3298 442.707 56.4502V51.6035H444.683V56.3818C444.683 57.152 445.034 57.5371 445.735 57.5371C446.405 57.5371 446.866 57.3047 447.116 56.8398V51.6035H449.099V59H447.239L447.185 58.248ZM452.407 51.6035L452.469 52.458C452.997 51.7972 453.706 51.4668 454.595 51.4668C455.379 51.4668 455.962 51.6969 456.345 52.1572C456.728 52.6175 456.924 53.3057 456.933 54.2217V59H454.957V54.2695C454.957 53.8503 454.866 53.5472 454.684 53.3604C454.501 53.1689 454.198 53.0732 453.774 53.0732C453.218 53.0732 452.801 53.3102 452.523 53.7842V59H450.548V51.6035H452.407ZM461.513 57.5439C461.877 57.5439 462.174 57.4437 462.401 57.2432C462.629 57.0426 462.748 56.776 462.757 56.4434H464.609C464.605 56.9447 464.468 57.4049 464.199 57.8242C463.93 58.2389 463.561 58.5625 463.092 58.7949C462.627 59.0228 462.112 59.1367 461.547 59.1367C460.49 59.1367 459.656 58.8018 459.045 58.1318C458.434 57.4574 458.129 56.5277 458.129 55.3428V55.2129C458.129 54.0736 458.432 53.1644 459.038 52.4854C459.644 51.8063 460.476 51.4668 461.533 51.4668C462.458 51.4668 463.199 51.7311 463.755 52.2598C464.315 52.7839 464.6 53.4834 464.609 54.3584H462.757C462.748 53.9756 462.629 53.6657 462.401 53.4287C462.174 53.1872 461.873 53.0664 461.499 53.0664C461.039 53.0664 460.69 53.235 460.453 53.5723C460.221 53.9049 460.104 54.4473 460.104 55.1992V55.4043C460.104 56.1654 460.221 56.7122 460.453 57.0449C460.686 57.3776 461.039 57.5439 461.513 57.5439ZM468.103 49.7852V51.6035H469.367V53.0527H468.103V56.7441C468.103 57.0176 468.155 57.2135 468.26 57.332C468.365 57.4505 468.565 57.5098 468.861 57.5098C469.08 57.5098 469.274 57.4938 469.442 57.4619V58.959C469.055 59.0775 468.656 59.1367 468.246 59.1367C466.861 59.1367 466.154 58.4372 466.127 57.0381V53.0527H465.047V51.6035H466.127V49.7852H468.103ZM472.553 59H470.57V51.6035H472.553V59ZM470.454 49.6895C470.454 49.3932 470.552 49.1494 470.748 48.958C470.949 48.7666 471.22 48.6709 471.562 48.6709C471.899 48.6709 472.168 48.7666 472.368 48.958C472.569 49.1494 472.669 49.3932 472.669 49.6895C472.669 49.9902 472.566 50.2363 472.361 50.4277C472.161 50.6191 471.894 50.7148 471.562 50.7148C471.229 50.7148 470.96 50.6191 470.755 50.4277C470.554 50.2363 470.454 49.9902 470.454 49.6895ZM473.879 55.2334C473.879 54.4997 474.02 53.8457 474.303 53.2715C474.585 52.6973 474.991 52.2529 475.52 51.9385C476.053 51.624 476.67 51.4668 477.372 51.4668C478.37 51.4668 479.184 51.7721 479.812 52.3828C480.446 52.9935 480.799 53.8229 480.872 54.8711L480.886 55.377C480.886 56.5117 480.569 57.4232 479.936 58.1113C479.302 58.7949 478.452 59.1367 477.386 59.1367C476.319 59.1367 475.467 58.7949 474.829 58.1113C474.196 57.4277 473.879 56.498 473.879 55.3223V55.2334ZM475.854 55.377C475.854 56.0788 475.987 56.6165 476.251 56.9902C476.515 57.3594 476.894 57.5439 477.386 57.5439C477.864 57.5439 478.238 57.3617 478.507 56.9971C478.776 56.6279 478.91 56.04 478.91 55.2334C478.91 54.5452 478.776 54.012 478.507 53.6338C478.238 53.2555 477.86 53.0664 477.372 53.0664C476.889 53.0664 476.515 53.2555 476.251 53.6338C475.987 54.0075 475.854 54.5885 475.854 55.377ZM483.921 51.6035L483.982 52.458C484.511 51.7972 485.22 51.4668 486.108 51.4668C486.892 51.4668 487.476 51.6969 487.858 52.1572C488.241 52.6175 488.437 53.3057 488.446 54.2217V59H486.471V54.2695C486.471 53.8503 486.38 53.5472 486.197 53.3604C486.015 53.1689 485.712 53.0732 485.288 53.0732C484.732 53.0732 484.315 53.3102 484.037 53.7842V59H482.062V51.6035H483.921ZM497.723 59C497.632 58.8223 497.565 58.6012 497.524 58.3369C497.046 58.8701 496.424 59.1367 495.658 59.1367C494.934 59.1367 494.332 58.9271 493.854 58.5078C493.38 58.0885 493.143 57.5599 493.143 56.9219C493.143 56.138 493.432 55.5365 494.011 55.1172C494.594 54.6979 495.435 54.486 496.533 54.4814H497.442V54.0576C497.442 53.7158 497.354 53.4424 497.176 53.2373C497.003 53.0322 496.727 52.9297 496.349 52.9297C496.016 52.9297 495.754 53.0094 495.562 53.1689C495.376 53.3285 495.282 53.5472 495.282 53.8252H493.307C493.307 53.3968 493.439 53.0003 493.703 52.6357C493.967 52.2712 494.341 51.9863 494.824 51.7812C495.307 51.5716 495.85 51.4668 496.451 51.4668C497.363 51.4668 498.085 51.6969 498.618 52.1572C499.156 52.613 499.425 53.2555 499.425 54.085V57.291C499.429 57.9928 499.527 58.5238 499.719 58.8838V59H497.723ZM496.089 57.626C496.381 57.626 496.649 57.5622 496.896 57.4346C497.142 57.3024 497.324 57.127 497.442 56.9082V55.6367H496.704C495.715 55.6367 495.189 55.9785 495.125 56.6621L495.118 56.7783C495.118 57.0244 495.205 57.2272 495.378 57.3867C495.551 57.5462 495.788 57.626 496.089 57.626ZM504.948 56.9561C504.948 56.7145 504.827 56.5254 504.586 56.3887C504.349 56.2474 503.966 56.1221 503.438 56.0127C501.678 55.6436 500.799 54.8962 500.799 53.7705C500.799 53.1143 501.07 52.5674 501.612 52.1299C502.159 51.6878 502.872 51.4668 503.752 51.4668C504.691 51.4668 505.44 51.6878 506.001 52.1299C506.566 52.5719 506.849 53.1462 506.849 53.8525H504.873C504.873 53.57 504.782 53.3376 504.6 53.1553C504.417 52.9684 504.132 52.875 503.745 52.875C503.412 52.875 503.155 52.9502 502.973 53.1006C502.79 53.251 502.699 53.4424 502.699 53.6748C502.699 53.8936 502.802 54.0713 503.007 54.208C503.216 54.3402 503.567 54.4564 504.06 54.5566C504.552 54.6523 504.966 54.7617 505.304 54.8848C506.347 55.2676 506.869 55.9307 506.869 56.874C506.869 57.5485 506.58 58.0954 506.001 58.5146C505.422 58.9294 504.675 59.1367 503.759 59.1367C503.139 59.1367 502.588 59.0273 502.104 58.8086C501.626 58.5853 501.25 58.2822 500.977 57.8994C500.703 57.512 500.566 57.0951 500.566 56.6484H502.439C502.458 56.9993 502.588 57.2682 502.829 57.4551C503.071 57.6419 503.394 57.7354 503.8 57.7354C504.178 57.7354 504.463 57.6647 504.654 57.5234C504.85 57.3776 504.948 57.1885 504.948 56.9561ZM515.92 59C515.829 58.8223 515.763 58.6012 515.722 58.3369C515.243 58.8701 514.621 59.1367 513.855 59.1367C513.131 59.1367 512.529 58.9271 512.051 58.5078C511.577 58.0885 511.34 57.5599 511.34 56.9219C511.34 56.138 511.629 55.5365 512.208 55.1172C512.791 54.6979 513.632 54.486 514.73 54.4814H515.64V54.0576C515.64 53.7158 515.551 53.4424 515.373 53.2373C515.2 53.0322 514.924 52.9297 514.546 52.9297C514.213 52.9297 513.951 53.0094 513.76 53.1689C513.573 53.3285 513.479 53.5472 513.479 53.8252H511.504C511.504 53.3968 511.636 53.0003 511.9 52.6357C512.165 52.2712 512.538 51.9863 513.021 51.7812C513.505 51.5716 514.047 51.4668 514.648 51.4668C515.56 51.4668 516.282 51.6969 516.815 52.1572C517.353 52.613 517.622 53.2555 517.622 54.085V57.291C517.627 57.9928 517.725 58.5238 517.916 58.8838V59H515.92ZM514.286 57.626C514.578 57.626 514.847 57.5622 515.093 57.4346C515.339 57.3024 515.521 57.127 515.64 56.9082V55.6367H514.901C513.912 55.6367 513.386 55.9785 513.322 56.6621L513.315 56.7783C513.315 57.0244 513.402 57.2272 513.575 57.3867C513.748 57.5462 513.985 57.626 514.286 57.626ZM524.711 59H522.729V48.5H524.711V59ZM528.43 59H526.447V51.6035H528.43V59ZM526.331 49.6895C526.331 49.3932 526.429 49.1494 526.625 48.958C526.826 48.7666 527.097 48.6709 527.438 48.6709C527.776 48.6709 528.045 48.7666 528.245 48.958C528.446 49.1494 528.546 49.3932 528.546 49.6895C528.546 49.9902 528.443 50.2363 528.238 50.4277C528.038 50.6191 527.771 50.7148 527.438 50.7148C527.106 50.7148 526.837 50.6191 526.632 50.4277C526.431 50.2363 526.331 49.9902 526.331 49.6895ZM534.069 56.9561C534.069 56.7145 533.949 56.5254 533.707 56.3887C533.47 56.2474 533.087 56.1221 532.559 56.0127C530.799 55.6436 529.92 54.8962 529.92 53.7705C529.92 53.1143 530.191 52.5674 530.733 52.1299C531.28 51.6878 531.993 51.4668 532.873 51.4668C533.812 51.4668 534.562 51.6878 535.122 52.1299C535.687 52.5719 535.97 53.1462 535.97 53.8525H533.994C533.994 53.57 533.903 53.3376 533.721 53.1553C533.538 52.9684 533.254 52.875 532.866 52.875C532.534 52.875 532.276 52.9502 532.094 53.1006C531.911 53.251 531.82 53.4424 531.82 53.6748C531.82 53.8936 531.923 54.0713 532.128 54.208C532.338 54.3402 532.688 54.4564 533.181 54.5566C533.673 54.6523 534.088 54.7617 534.425 54.8848C535.468 55.2676 535.99 55.9307 535.99 56.874C535.99 57.5485 535.701 58.0954 535.122 58.5146C534.543 58.9294 533.796 59.1367 532.88 59.1367C532.26 59.1367 531.709 59.0273 531.226 58.8086C530.747 58.5853 530.371 58.2822 530.098 57.8994C529.824 57.512 529.688 57.0951 529.688 56.6484H531.561C531.579 56.9993 531.709 57.2682 531.95 57.4551C532.192 57.6419 532.515 57.7354 532.921 57.7354C533.299 57.7354 533.584 57.6647 533.775 57.5234C533.971 57.3776 534.069 57.1885 534.069 56.9561ZM539.634 49.7852V51.6035H540.898V53.0527H539.634V56.7441C539.634 57.0176 539.686 57.2135 539.791 57.332C539.896 57.4505 540.096 57.5098 540.393 57.5098C540.611 57.5098 540.805 57.4938 540.974 57.4619V58.959C540.586 59.0775 540.188 59.1367 539.777 59.1367C538.392 59.1367 537.686 58.4372 537.658 57.0381V53.0527H536.578V51.6035H537.658V49.7852H539.634ZM542.102 58.0293C542.102 57.7148 542.206 57.4596 542.416 57.2637C542.63 57.0677 542.897 56.9697 543.216 56.9697C543.539 56.9697 543.806 57.0677 544.016 57.2637C544.23 57.4596 544.337 57.7148 544.337 58.0293C544.337 58.3392 544.232 58.5921 544.022 58.7881C543.813 58.9795 543.544 59.0752 543.216 59.0752C542.892 59.0752 542.626 58.9795 542.416 58.7881C542.206 58.5921 542.102 58.3392 542.102 58.0293Z" fill="#0072B2"/>
<path d="M28.0498 60.3887C28.0498 60.0013 27.9131 59.7051 27.6396 59.5C27.3662 59.2904 26.874 59.0716 26.1631 58.8438C25.4521 58.6113 24.8893 58.3835 24.4746 58.1602C23.3444 57.5495 22.7793 56.7269 22.7793 55.6924C22.7793 55.1546 22.9297 54.6761 23.2305 54.2568C23.5358 53.833 23.971 53.5026 24.5361 53.2656C25.1058 53.0286 25.7438 52.9102 26.4502 52.9102C27.1611 52.9102 27.7946 53.04 28.3506 53.2998C28.9066 53.555 29.3372 53.9173 29.6426 54.3867C29.9525 54.8561 30.1074 55.3893 30.1074 55.9863H28.0566C28.0566 55.5306 27.9131 55.1774 27.626 54.9268C27.3389 54.6715 26.9355 54.5439 26.416 54.5439C25.9147 54.5439 25.5251 54.651 25.2471 54.8652C24.9691 55.0749 24.8301 55.3529 24.8301 55.6992C24.8301 56.0228 24.9919 56.2939 25.3154 56.5127C25.6436 56.7314 26.1243 56.9365 26.7578 57.1279C27.9245 57.4788 28.7744 57.9141 29.3076 58.4336C29.8408 58.9531 30.1074 59.6003 30.1074 60.375C30.1074 61.2363 29.7816 61.9131 29.1299 62.4053C28.4782 62.8929 27.6009 63.1367 26.498 63.1367C25.7324 63.1367 25.0352 62.9977 24.4062 62.7197C23.7773 62.4372 23.2965 62.0521 22.9639 61.5645C22.6357 61.0768 22.4717 60.5117 22.4717 59.8691H24.5293C24.5293 60.9674 25.1855 61.5166 26.498 61.5166C26.9857 61.5166 27.3662 61.4186 27.6396 61.2227C27.9131 61.0221 28.0498 60.7441 28.0498 60.3887ZM33.457 63H31.4746V55.6035H33.457V63ZM31.3584 53.6895C31.3584 53.3932 31.4564 53.1494 31.6523 52.958C31.8529 52.7666 32.124 52.6709 32.4658 52.6709C32.8031 52.6709 33.0719 52.7666 33.2725 52.958C33.473 53.1494 33.5732 53.3932 33.5732 53.6895C33.5732 53.9902 33.4707 54.2363 33.2656 54.4277C33.0651 54.6191 32.7985 54.7148 32.4658 54.7148C32.1331 54.7148 31.8643 54.6191 31.6592 54.4277C31.4587 54.2363 31.3584 53.9902 31.3584 53.6895ZM36.9092 55.6035L36.9707 56.458C37.4993 55.7972 38.208 55.4668 39.0967 55.4668C39.8805 55.4668 40.4639 55.6969 40.8467 56.1572C41.2295 56.6175 41.4255 57.3057 41.4346 58.2217V63H39.459V58.2695C39.459 57.8503 39.3678 57.5472 39.1855 57.3604C39.0033 57.1689 38.7002 57.0732 38.2764 57.0732C37.7204 57.0732 37.3034 57.3102 37.0254 57.7842V63H35.0498V55.6035H36.9092ZM46.0146 61.5439C46.3792 61.5439 46.6755 61.4437 46.9033 61.2432C47.1312 61.0426 47.2497 60.776 47.2588 60.4434H49.1113C49.1068 60.9447 48.9701 61.4049 48.7012 61.8242C48.4323 62.2389 48.0632 62.5625 47.5938 62.7949C47.1289 63.0228 46.6139 63.1367 46.0488 63.1367C44.9915 63.1367 44.1576 62.8018 43.5469 62.1318C42.9362 61.4574 42.6309 60.5277 42.6309 59.3428V59.2129C42.6309 58.0736 42.9339 57.1644 43.54 56.4854C44.1462 55.8063 44.9779 55.4668 46.0352 55.4668C46.9603 55.4668 47.7008 55.7311 48.2568 56.2598C48.8174 56.7839 49.1022 57.4834 49.1113 58.3584H47.2588C47.2497 57.9756 47.1312 57.6657 46.9033 57.4287C46.6755 57.1872 46.3747 57.0664 46.001 57.0664C45.5407 57.0664 45.1921 57.235 44.9551 57.5723C44.7227 57.9049 44.6064 58.4473 44.6064 59.1992V59.4043C44.6064 60.1654 44.7227 60.7122 44.9551 61.0449C45.1875 61.3776 45.5407 61.5439 46.0146 61.5439ZM53.6436 63.1367C52.5589 63.1367 51.6748 62.804 50.9912 62.1387C50.3122 61.4733 49.9727 60.5869 49.9727 59.4795V59.2881C49.9727 58.5452 50.1162 57.8822 50.4033 57.2988C50.6904 56.7109 51.096 56.2598 51.6201 55.9453C52.1488 55.6263 52.7503 55.4668 53.4248 55.4668C54.4365 55.4668 55.2318 55.7858 55.8105 56.4238C56.3939 57.0618 56.6855 57.9665 56.6855 59.1377V59.9443H51.9756C52.0394 60.4274 52.2308 60.8148 52.5498 61.1064C52.8734 61.3981 53.2812 61.5439 53.7734 61.5439C54.5345 61.5439 55.1292 61.2682 55.5576 60.7168L56.5283 61.8037C56.2321 62.223 55.8311 62.5511 55.3252 62.7881C54.8193 63.0205 54.2588 63.1367 53.6436 63.1367ZM53.418 57.0664C53.026 57.0664 52.707 57.1986 52.4609 57.4629C52.2194 57.7272 52.0645 58.1055 51.9961 58.5977H54.7441V58.4404C54.735 58.0029 54.6165 57.6657 54.3887 57.4287C54.1608 57.1872 53.8372 57.0664 53.418 57.0664ZM67.7324 60.3135L68.7031 55.6035H70.6104L68.7236 63H67.0693L65.668 58.3447L64.2666 63H62.6191L60.7324 55.6035H62.6396L63.6035 60.3066L64.957 55.6035H66.3857L67.7324 60.3135ZM74.999 63.1367C73.9144 63.1367 73.0303 62.804 72.3467 62.1387C71.6676 61.4733 71.3281 60.5869 71.3281 59.4795V59.2881C71.3281 58.5452 71.4717 57.8822 71.7588 57.2988C72.0459 56.7109 72.4515 56.2598 72.9756 55.9453C73.5042 55.6263 74.1058 55.4668 74.7803 55.4668C75.792 55.4668 76.5872 55.7858 77.166 56.4238C77.7493 57.0618 78.041 57.9665 78.041 59.1377V59.9443H73.3311C73.3949 60.4274 73.5863 60.8148 73.9053 61.1064C74.2288 61.3981 74.6367 61.5439 75.1289 61.5439C75.89 61.5439 76.4847 61.2682 76.9131 60.7168L77.8838 61.8037C77.5876 62.223 77.1865 62.5511 76.6807 62.7881C76.1748 63.0205 75.6143 63.1367 74.999 63.1367ZM74.7734 57.0664C74.3815 57.0664 74.0625 57.1986 73.8164 57.4629C73.5749 57.7272 73.4199 58.1055 73.3516 58.5977H76.0996V58.4404C76.0905 58.0029 75.972 57.6657 75.7441 57.4287C75.5163 57.1872 75.1927 57.0664 74.7734 57.0664ZM84.7402 63H82.7578V55.6035H84.7402V63ZM82.6416 53.6895C82.6416 53.3932 82.7396 53.1494 82.9355 52.958C83.1361 52.7666 83.4072 52.6709 83.749 52.6709C84.0863 52.6709 84.3551 52.7666 84.5557 52.958C84.7562 53.1494 84.8564 53.3932 84.8564 53.6895C84.8564 53.9902 84.7539 54.2363 84.5488 54.4277C84.3483 54.6191 84.0817 54.7148 83.749 54.7148C83.4163 54.7148 83.1475 54.6191 82.9424 54.4277C82.7419 54.2363 82.6416 53.9902 82.6416 53.6895ZM88.2266 55.6035L88.2881 56.4307C88.8122 55.7881 89.5208 55.4668 90.4141 55.4668C91.3665 55.4668 92.0205 55.8428 92.376 56.5947C92.8955 55.8428 93.6361 55.4668 94.5977 55.4668C95.3997 55.4668 95.9967 55.7015 96.3887 56.1709C96.7806 56.6357 96.9766 57.3376 96.9766 58.2764V63H94.9941V58.2832C94.9941 57.8639 94.9121 57.5586 94.748 57.3672C94.584 57.1712 94.2946 57.0732 93.8799 57.0732C93.2874 57.0732 92.8773 57.3558 92.6494 57.9209L92.6562 63H90.6807V58.29C90.6807 57.8617 90.5964 57.5518 90.4277 57.3604C90.2591 57.1689 89.972 57.0732 89.5664 57.0732C89.0059 57.0732 88.6003 57.3057 88.3496 57.7705V63H86.374V55.6035H88.2266ZM105.159 59.3701C105.159 60.5094 104.899 61.4232 104.38 62.1113C103.865 62.7949 103.168 63.1367 102.288 63.1367C101.541 63.1367 100.937 62.877 100.477 62.3574V65.8438H98.501V55.6035H100.333L100.401 56.3281C100.88 55.7539 101.504 55.4668 102.274 55.4668C103.186 55.4668 103.895 55.804 104.4 56.4785C104.906 57.153 105.159 58.0827 105.159 59.2676V59.3701ZM103.184 59.2266C103.184 58.5384 103.061 58.0075 102.814 57.6338C102.573 57.2601 102.22 57.0732 101.755 57.0732C101.135 57.0732 100.709 57.3102 100.477 57.7842V60.8125C100.718 61.3001 101.149 61.5439 101.769 61.5439C102.712 61.5439 103.184 60.7715 103.184 59.2266ZM106.082 59.2334C106.082 58.4997 106.223 57.8457 106.506 57.2715C106.788 56.6973 107.194 56.2529 107.723 55.9385C108.256 55.624 108.873 55.4668 109.575 55.4668C110.573 55.4668 111.387 55.7721 112.016 56.3828C112.649 56.9935 113.002 57.8229 113.075 58.8711L113.089 59.377C113.089 60.5117 112.772 61.4232 112.139 62.1113C111.505 62.7949 110.655 63.1367 109.589 63.1367C108.522 63.1367 107.67 62.7949 107.032 62.1113C106.399 61.4277 106.082 60.498 106.082 59.3223V59.2334ZM108.058 59.377C108.058 60.0788 108.19 60.6165 108.454 60.9902C108.718 61.3594 109.097 61.5439 109.589 61.5439C110.067 61.5439 110.441 61.3617 110.71 60.9971C110.979 60.6279 111.113 60.04 111.113 59.2334C111.113 58.5452 110.979 58.012 110.71 57.6338C110.441 57.2555 110.063 57.0664 109.575 57.0664C109.092 57.0664 108.718 57.2555 108.454 57.6338C108.19 58.0075 108.058 58.5885 108.058 59.377ZM118.462 57.4561C118.193 57.4196 117.956 57.4014 117.751 57.4014C117.004 57.4014 116.514 57.6543 116.281 58.1602V63H114.306V55.6035H116.172L116.227 56.4854C116.623 55.8063 117.172 55.4668 117.874 55.4668C118.093 55.4668 118.298 55.4964 118.489 55.5557L118.462 57.4561ZM122.126 53.7852V55.6035H123.391V57.0527H122.126V60.7441C122.126 61.0176 122.178 61.2135 122.283 61.332C122.388 61.4505 122.589 61.5098 122.885 61.5098C123.104 61.5098 123.297 61.4938 123.466 61.4619V62.959C123.078 63.0775 122.68 63.1367 122.27 63.1367C120.884 63.1367 120.178 62.4372 120.15 61.0381V57.0527H119.07V55.6035H120.15V53.7852H122.126ZM127.896 63.1367C126.811 63.1367 125.927 62.804 125.243 62.1387C124.564 61.4733 124.225 60.5869 124.225 59.4795V59.2881C124.225 58.5452 124.368 57.8822 124.655 57.2988C124.942 56.7109 125.348 56.2598 125.872 55.9453C126.401 55.6263 127.002 55.4668 127.677 55.4668C128.688 55.4668 129.484 55.7858 130.062 56.4238C130.646 57.0618 130.938 57.9665 130.938 59.1377V59.9443H126.228C126.291 60.4274 126.483 60.8148 126.802 61.1064C127.125 61.3981 127.533 61.5439 128.025 61.5439C128.786 61.5439 129.381 61.2682 129.81 60.7168L130.78 61.8037C130.484 62.223 130.083 62.5511 129.577 62.7881C129.071 63.0205 128.511 63.1367 127.896 63.1367ZM127.67 57.0664C127.278 57.0664 126.959 57.1986 126.713 57.4629C126.471 57.7272 126.316 58.1055 126.248 58.5977H128.996V58.4404C128.987 58.0029 128.868 57.6657 128.641 57.4287C128.413 57.1872 128.089 57.0664 127.67 57.0664ZM131.758 59.2471C131.758 58.0941 132.015 57.1758 132.53 56.4922C133.05 55.8086 133.758 55.4668 134.656 55.4668C135.376 55.4668 135.971 55.7357 136.44 56.2734V52.5H138.423V63H136.639L136.543 62.2139C136.051 62.8291 135.417 63.1367 134.643 63.1367C133.772 63.1367 133.073 62.7949 132.544 62.1113C132.02 61.4232 131.758 60.4684 131.758 59.2471ZM133.733 59.3906C133.733 60.0833 133.854 60.6143 134.096 60.9834C134.337 61.3525 134.688 61.5371 135.148 61.5371C135.759 61.5371 136.19 61.2796 136.44 60.7646V57.8457C136.194 57.3307 135.768 57.0732 135.162 57.0732C134.21 57.0732 133.733 57.8457 133.733 59.3906ZM150.099 59.3701C150.099 60.5094 149.839 61.4232 149.319 62.1113C148.804 62.7949 148.107 63.1367 147.228 63.1367C146.48 63.1367 145.876 62.877 145.416 62.3574V65.8438H143.44V55.6035H145.272L145.341 56.3281C145.819 55.7539 146.444 55.4668 147.214 55.4668C148.125 55.4668 148.834 55.804 149.34 56.4785C149.846 57.153 150.099 58.0827 150.099 59.2676V59.3701ZM148.123 59.2266C148.123 58.5384 148 58.0075 147.754 57.6338C147.512 57.2601 147.159 57.0732 146.694 57.0732C146.075 57.0732 145.648 57.3102 145.416 57.7842V60.8125C145.658 61.3001 146.088 61.5439 146.708 61.5439C147.651 61.5439 148.123 60.7715 148.123 59.2266ZM155.615 63C155.524 62.8223 155.458 62.6012 155.417 62.3369C154.938 62.8701 154.316 63.1367 153.551 63.1367C152.826 63.1367 152.225 62.9271 151.746 62.5078C151.272 62.0885 151.035 61.5599 151.035 60.9219C151.035 60.138 151.325 59.5365 151.903 59.1172C152.487 58.6979 153.327 58.486 154.426 58.4814H155.335V58.0576C155.335 57.7158 155.246 57.4424 155.068 57.2373C154.895 57.0322 154.619 56.9297 154.241 56.9297C153.909 56.9297 153.646 57.0094 153.455 57.1689C153.268 57.3285 153.175 57.5472 153.175 57.8252H151.199C151.199 57.3968 151.331 57.0003 151.596 56.6357C151.86 56.2712 152.234 55.9863 152.717 55.7812C153.2 55.5716 153.742 55.4668 154.344 55.4668C155.255 55.4668 155.978 55.6969 156.511 56.1572C157.049 56.613 157.317 57.2555 157.317 58.085V61.291C157.322 61.9928 157.42 62.5238 157.611 62.8838V63H155.615ZM153.981 61.626C154.273 61.626 154.542 61.5622 154.788 61.4346C155.034 61.3024 155.216 61.127 155.335 60.9082V59.6367H154.597C153.608 59.6367 153.081 59.9785 153.018 60.6621L153.011 60.7783C153.011 61.0244 153.097 61.2272 153.271 61.3867C153.444 61.5462 153.681 61.626 153.981 61.626ZM160.653 55.6035L160.715 56.458C161.243 55.7972 161.952 55.4668 162.841 55.4668C163.625 55.4668 164.208 55.6969 164.591 56.1572C164.974 56.6175 165.17 57.3057 165.179 58.2217V63H163.203V58.2695C163.203 57.8503 163.112 57.5472 162.93 57.3604C162.747 57.1689 162.444 57.0732 162.021 57.0732C161.465 57.0732 161.048 57.3102 160.77 57.7842V63H158.794V55.6035H160.653ZM166.375 59.2471C166.375 58.0941 166.632 57.1758 167.147 56.4922C167.667 55.8086 168.376 55.4668 169.273 55.4668C169.993 55.4668 170.588 55.7357 171.058 56.2734V52.5H173.04V63H171.256L171.16 62.2139C170.668 62.8291 170.035 63.1367 169.26 63.1367C168.389 63.1367 167.69 62.7949 167.161 62.1113C166.637 61.4232 166.375 60.4684 166.375 59.2471ZM168.351 59.3906C168.351 60.0833 168.471 60.6143 168.713 60.9834C168.954 61.3525 169.305 61.5371 169.766 61.5371C170.376 61.5371 170.807 61.2796 171.058 60.7646V57.8457C170.812 57.3307 170.385 57.0732 169.779 57.0732C168.827 57.0732 168.351 57.8457 168.351 59.3906ZM178.857 63C178.766 62.8223 178.7 62.6012 178.659 62.3369C178.181 62.8701 177.559 63.1367 176.793 63.1367C176.068 63.1367 175.467 62.9271 174.988 62.5078C174.514 62.0885 174.277 61.5599 174.277 60.9219C174.277 60.138 174.567 59.5365 175.146 59.1172C175.729 58.6979 176.57 58.486 177.668 58.4814H178.577V58.0576C178.577 57.7158 178.488 57.4424 178.311 57.2373C178.137 57.0322 177.862 56.9297 177.483 56.9297C177.151 56.9297 176.889 57.0094 176.697 57.1689C176.51 57.3285 176.417 57.5472 176.417 57.8252H174.441C174.441 57.3968 174.574 57.0003 174.838 56.6357C175.102 56.2712 175.476 55.9863 175.959 55.7812C176.442 55.5716 176.984 55.4668 177.586 55.4668C178.497 55.4668 179.22 55.6969 179.753 56.1572C180.291 56.613 180.56 57.2555 180.56 58.085V61.291C180.564 61.9928 180.662 62.5238 180.854 62.8838V63H178.857ZM177.224 61.626C177.515 61.626 177.784 61.5622 178.03 61.4346C178.276 61.3024 178.459 61.127 178.577 60.9082V59.6367H177.839C176.85 59.6367 176.324 59.9785 176.26 60.6621L176.253 60.7783C176.253 61.0244 176.34 61.2272 176.513 61.3867C176.686 61.5462 176.923 61.626 177.224 61.626ZM186.083 60.9561C186.083 60.7145 185.962 60.5254 185.721 60.3887C185.484 60.2474 185.101 60.1221 184.572 60.0127C182.813 59.6436 181.934 58.8962 181.934 57.7705C181.934 57.1143 182.205 56.5674 182.747 56.1299C183.294 55.6878 184.007 55.4668 184.887 55.4668C185.826 55.4668 186.575 55.6878 187.136 56.1299C187.701 56.5719 187.983 57.1462 187.983 57.8525H186.008C186.008 57.57 185.917 57.3376 185.734 57.1553C185.552 56.9684 185.267 56.875 184.88 56.875C184.547 56.875 184.29 56.9502 184.107 57.1006C183.925 57.251 183.834 57.4424 183.834 57.6748C183.834 57.8936 183.937 58.0713 184.142 58.208C184.351 58.3402 184.702 58.4564 185.194 58.5566C185.687 58.6523 186.101 58.7617 186.438 58.8848C187.482 59.2676 188.004 59.9307 188.004 60.874C188.004 61.5485 187.715 62.0954 187.136 62.5146C186.557 62.9294 185.81 63.1367 184.894 63.1367C184.274 63.1367 183.722 63.0273 183.239 62.8086C182.761 62.5853 182.385 62.2822 182.111 61.8994C181.838 61.512 181.701 61.0951 181.701 60.6484H183.574C183.592 60.9993 183.722 61.2682 183.964 61.4551C184.205 61.6419 184.529 61.7354 184.935 61.7354C185.313 61.7354 185.598 61.6647 185.789 61.5234C185.985 61.3776 186.083 61.1885 186.083 60.9561ZM197.055 63C196.964 62.8223 196.897 62.6012 196.856 62.3369C196.378 62.8701 195.756 63.1367 194.99 63.1367C194.266 63.1367 193.664 62.9271 193.186 62.5078C192.712 62.0885 192.475 61.5599 192.475 60.9219C192.475 60.138 192.764 59.5365 193.343 59.1172C193.926 58.6979 194.767 58.486 195.865 58.4814H196.774V58.0576C196.774 57.7158 196.686 57.4424 196.508 57.2373C196.335 57.0322 196.059 56.9297 195.681 56.9297C195.348 56.9297 195.086 57.0094 194.895 57.1689C194.708 57.3285 194.614 57.5472 194.614 57.8252H192.639C192.639 57.3968 192.771 57.0003 193.035 56.6357C193.299 56.2712 193.673 55.9863 194.156 55.7812C194.639 55.5716 195.182 55.4668 195.783 55.4668C196.695 55.4668 197.417 55.6969 197.95 56.1572C198.488 56.613 198.757 57.2555 198.757 58.085V61.291C198.761 61.9928 198.859 62.5238 199.051 62.8838V63H197.055ZM195.421 61.626C195.713 61.626 195.981 61.5622 196.228 61.4346C196.474 61.3024 196.656 61.127 196.774 60.9082V59.6367H196.036C195.047 59.6367 194.521 59.9785 194.457 60.6621L194.45 60.7783C194.45 61.0244 194.537 61.2272 194.71 61.3867C194.883 61.5462 195.12 61.626 195.421 61.626ZM204.28 60.9561C204.28 60.7145 204.16 60.5254 203.918 60.3887C203.681 60.2474 203.298 60.1221 202.77 60.0127C201.01 59.6436 200.131 58.8962 200.131 57.7705C200.131 57.1143 200.402 56.5674 200.944 56.1299C201.491 55.6878 202.204 55.4668 203.084 55.4668C204.023 55.4668 204.772 55.6878 205.333 56.1299C205.898 56.5719 206.181 57.1462 206.181 57.8525H204.205C204.205 57.57 204.114 57.3376 203.932 57.1553C203.749 56.9684 203.465 56.875 203.077 56.875C202.744 56.875 202.487 56.9502 202.305 57.1006C202.122 57.251 202.031 57.4424 202.031 57.6748C202.031 57.8936 202.134 58.0713 202.339 58.208C202.549 58.3402 202.899 58.4564 203.392 58.5566C203.884 58.6523 204.299 58.7617 204.636 58.8848C205.679 59.2676 206.201 59.9307 206.201 60.874C206.201 61.5485 205.912 62.0954 205.333 62.5146C204.754 62.9294 204.007 63.1367 203.091 63.1367C202.471 63.1367 201.92 63.0273 201.437 62.8086C200.958 62.5853 200.582 62.2822 200.309 61.8994C200.035 61.512 199.898 61.0951 199.898 60.6484H201.771C201.79 60.9993 201.92 61.2682 202.161 61.4551C202.403 61.6419 202.726 61.7354 203.132 61.7354C203.51 61.7354 203.795 61.6647 203.986 61.5234C204.182 61.3776 204.28 61.1885 204.28 60.9561ZM212.217 52.2676L213.146 52.8076C212.755 53.4274 212.552 54.0563 212.538 54.6943V55.8359H210.973V54.8105C210.973 54.3822 211.091 53.9264 211.328 53.4434C211.57 52.9557 211.866 52.5638 212.217 52.2676ZM214.562 52.2676L215.491 52.8076C215.099 53.4274 214.896 54.0563 214.883 54.6943V55.8359H213.317V54.8105C213.317 54.3822 213.436 53.9264 213.673 53.4434C213.914 52.9557 214.211 52.5638 214.562 52.2676ZM223.175 59.3701C223.175 60.5094 222.915 61.4232 222.396 62.1113C221.881 62.7949 221.183 63.1367 220.304 63.1367C219.556 63.1367 218.952 62.877 218.492 62.3574V65.8438H216.517V55.6035H218.349L218.417 56.3281C218.896 55.7539 219.52 55.4668 220.29 55.4668C221.201 55.4668 221.91 55.804 222.416 56.4785C222.922 57.153 223.175 58.0827 223.175 59.2676V59.3701ZM221.199 59.2266C221.199 58.5384 221.076 58.0075 220.83 57.6338C220.589 57.2601 220.235 57.0732 219.771 57.0732C219.151 57.0732 218.725 57.3102 218.492 57.7842V60.8125C218.734 61.3001 219.164 61.5439 219.784 61.5439C220.728 61.5439 221.199 60.7715 221.199 59.2266ZM224.098 59.2471C224.098 58.0941 224.355 57.1758 224.87 56.4922C225.39 55.8086 226.098 55.4668 226.996 55.4668C227.716 55.4668 228.311 55.7357 228.78 56.2734V52.5H230.763V63H228.979L228.883 62.2139C228.391 62.8291 227.757 63.1367 226.982 63.1367C226.112 63.1367 225.412 62.7949 224.884 62.1113C224.36 61.4232 224.098 60.4684 224.098 59.2471ZM226.073 59.3906C226.073 60.0833 226.194 60.6143 226.436 60.9834C226.677 61.3525 227.028 61.5371 227.488 61.5371C228.099 61.5371 228.53 61.2796 228.78 60.7646V57.8457C228.534 57.3307 228.108 57.0732 227.502 57.0732C226.549 57.0732 226.073 57.8457 226.073 59.3906ZM232.957 56.1025L232.027 55.5625C232.419 54.9473 232.622 54.3115 232.636 53.6553V52.5H234.208V53.5596C234.208 53.9697 234.094 54.4141 233.866 54.8926C233.638 55.3711 233.335 55.7744 232.957 56.1025ZM235.329 56.1025L234.399 55.5625C234.791 54.9473 234.994 54.3115 235.008 53.6553V52.5H236.58V53.5596C236.58 53.9697 236.466 54.4141 236.238 54.8926C236.01 55.3711 235.707 55.7744 235.329 56.1025ZM238.535 65.4951L237.503 64.9551L237.749 64.5107C238.054 63.9548 238.212 63.401 238.221 62.8496V61.3184H239.889L239.882 62.6855C239.877 63.1914 239.75 63.7018 239.499 64.2168C239.248 64.7318 238.927 65.1579 238.535 65.4951ZM29.1914 76.3135L30.1621 71.6035H32.0693L30.1826 79H28.5283L27.127 74.3447L25.7256 79H24.0781L22.1914 71.6035H24.0986L25.0625 76.3066L26.416 71.6035H27.8447L29.1914 76.3135ZM36.458 79.1367C35.3734 79.1367 34.4893 78.804 33.8057 78.1387C33.1266 77.4733 32.7871 76.5869 32.7871 75.4795V75.2881C32.7871 74.5452 32.9307 73.8822 33.2178 73.2988C33.5049 72.7109 33.9105 72.2598 34.4346 71.9453C34.9632 71.6263 35.5648 71.4668 36.2393 71.4668C37.251 71.4668 38.0462 71.7858 38.625 72.4238C39.2083 73.0618 39.5 73.9665 39.5 75.1377V75.9443H34.79C34.8538 76.4274 35.0452 76.8148 35.3643 77.1064C35.6878 77.3981 36.0957 77.5439 36.5879 77.5439C37.349 77.5439 37.9437 77.2682 38.3721 76.7168L39.3428 77.8037C39.0465 78.223 38.6455 78.5511 38.1396 78.7881C37.6338 79.0205 37.0732 79.1367 36.458 79.1367ZM36.2324 73.0664C35.8405 73.0664 35.5215 73.1986 35.2754 73.4629C35.0339 73.7272 34.8789 74.1055 34.8105 74.5977H37.5586V74.4404C37.5495 74.0029 37.431 73.6657 37.2031 73.4287C36.9753 73.1872 36.6517 73.0664 36.2324 73.0664ZM48.5439 78.248C48.0563 78.8405 47.3818 79.1367 46.5205 79.1367C45.7275 79.1367 45.1214 78.9089 44.7021 78.4531C44.2874 77.9974 44.0755 77.3298 44.0664 76.4502V71.6035H46.042V76.3818C46.042 77.152 46.3929 77.5371 47.0947 77.5371C47.7646 77.5371 48.2249 77.3047 48.4756 76.8398V71.6035H50.458V79H48.5986L48.5439 78.248ZM55.9541 76.9561C55.9541 76.7145 55.8333 76.5254 55.5918 76.3887C55.3548 76.2474 54.972 76.1221 54.4434 76.0127C52.6842 75.6436 51.8047 74.8962 51.8047 73.7705C51.8047 73.1143 52.0758 72.5674 52.6182 72.1299C53.165 71.6878 53.8783 71.4668 54.7578 71.4668C55.6966 71.4668 56.4463 71.6878 57.0068 72.1299C57.5719 72.5719 57.8545 73.1462 57.8545 73.8525H55.8789C55.8789 73.57 55.7878 73.3376 55.6055 73.1553C55.4232 72.9684 55.1383 72.875 54.751 72.875C54.4183 72.875 54.1608 72.9502 53.9785 73.1006C53.7962 73.251 53.7051 73.4424 53.7051 73.6748C53.7051 73.8936 53.8076 74.0713 54.0127 74.208C54.2223 74.3402 54.5732 74.4564 55.0654 74.5566C55.5576 74.6523 55.9723 74.7617 56.3096 74.8848C57.3532 75.2676 57.875 75.9307 57.875 76.874C57.875 77.5485 57.5856 78.0954 57.0068 78.5146C56.4281 78.9294 55.6807 79.1367 54.7646 79.1367C54.1449 79.1367 53.5934 79.0273 53.1104 78.8086C52.6318 78.5853 52.2559 78.2822 51.9824 77.8994C51.709 77.512 51.5723 77.0951 51.5723 76.6484H53.4453C53.4635 76.9993 53.5934 77.2682 53.835 77.4551C54.0765 77.6419 54.4001 77.7354 54.8057 77.7354C55.1839 77.7354 55.4688 77.6647 55.6602 77.5234C55.8561 77.3776 55.9541 77.1885 55.9541 76.9561ZM62.5576 79.1367C61.473 79.1367 60.5889 78.804 59.9053 78.1387C59.2262 77.4733 58.8867 76.5869 58.8867 75.4795V75.2881C58.8867 74.5452 59.0303 73.8822 59.3174 73.2988C59.6045 72.7109 60.0101 72.2598 60.5342 71.9453C61.0628 71.6263 61.6644 71.4668 62.3389 71.4668C63.3506 71.4668 64.1458 71.7858 64.7246 72.4238C65.3079 73.0618 65.5996 73.9665 65.5996 75.1377V75.9443H60.8896C60.9535 76.4274 61.1449 76.8148 61.4639 77.1064C61.7874 77.3981 62.1953 77.5439 62.6875 77.5439C63.4486 77.5439 64.0433 77.2682 64.4717 76.7168L65.4424 77.8037C65.1462 78.223 64.7451 78.5511 64.2393 78.7881C63.7334 79.0205 63.1729 79.1367 62.5576 79.1367ZM62.332 73.0664C61.9401 73.0664 61.6211 73.1986 61.375 73.4629C61.1335 73.7272 60.9785 74.1055 60.9102 74.5977H63.6582V74.4404C63.6491 74.0029 63.5306 73.6657 63.3027 73.4287C63.0749 73.1872 62.7513 73.0664 62.332 73.0664ZM72.5791 69.7852V71.6035H73.8438V73.0527H72.5791V76.7441C72.5791 77.0176 72.6315 77.2135 72.7363 77.332C72.8411 77.4505 73.0417 77.5098 73.3379 77.5098C73.5566 77.5098 73.7503 77.4938 73.9189 77.4619V78.959C73.5316 79.0775 73.1328 79.1367 72.7227 79.1367C71.3372 79.1367 70.6309 78.4372 70.6035 77.0381V73.0527H69.5234V71.6035H70.6035V69.7852H72.5791ZM76.8721 72.4102C77.3962 71.7812 78.0547 71.4668 78.8477 71.4668C80.4518 71.4668 81.2653 72.3988 81.2881 74.2627V79H79.3125V74.3174C79.3125 73.8936 79.2214 73.5814 79.0391 73.3809C78.8568 73.1758 78.5537 73.0732 78.1299 73.0732C77.5511 73.0732 77.1318 73.2965 76.8721 73.7432V79H74.8965V68.5H76.8721V72.4102ZM84.8633 79H82.8809V71.6035H84.8633V79ZM82.7646 69.6895C82.7646 69.3932 82.8626 69.1494 83.0586 68.958C83.2591 68.7666 83.5303 68.6709 83.8721 68.6709C84.2093 68.6709 84.4782 68.7666 84.6787 68.958C84.8792 69.1494 84.9795 69.3932 84.9795 69.6895C84.9795 69.9902 84.877 70.2363 84.6719 70.4277C84.4714 70.6191 84.2048 70.7148 83.8721 70.7148C83.5394 70.7148 83.2705 70.6191 83.0654 70.4277C82.8649 70.2363 82.7646 69.9902 82.7646 69.6895ZM90.5029 76.9561C90.5029 76.7145 90.3822 76.5254 90.1406 76.3887C89.9036 76.2474 89.5208 76.1221 88.9922 76.0127C87.2331 75.6436 86.3535 74.8962 86.3535 73.7705C86.3535 73.1143 86.6247 72.5674 87.167 72.1299C87.7139 71.6878 88.4271 71.4668 89.3066 71.4668C90.2454 71.4668 90.9951 71.6878 91.5557 72.1299C92.1208 72.5719 92.4033 73.1462 92.4033 73.8525H90.4277C90.4277 73.57 90.3366 73.3376 90.1543 73.1553C89.972 72.9684 89.6872 72.875 89.2998 72.875C88.9671 72.875 88.7096 72.9502 88.5273 73.1006C88.3451 73.251 88.2539 73.4424 88.2539 73.6748C88.2539 73.8936 88.3564 74.0713 88.5615 74.208C88.7712 74.3402 89.1221 74.4564 89.6143 74.5566C90.1064 74.6523 90.5212 74.7617 90.8584 74.8848C91.902 75.2676 92.4238 75.9307 92.4238 76.874C92.4238 77.5485 92.1344 78.0954 91.5557 78.5146C90.9769 78.9294 90.2295 79.1367 89.3135 79.1367C88.6937 79.1367 88.1423 79.0273 87.6592 78.8086C87.1807 78.5853 86.8047 78.2822 86.5312 77.8994C86.2578 77.512 86.1211 77.0951 86.1211 76.6484H87.9941C88.0124 76.9993 88.1423 77.2682 88.3838 77.4551C88.6253 77.6419 88.9489 77.7354 89.3545 77.7354C89.7327 77.7354 90.0176 77.6647 90.209 77.5234C90.4049 77.3776 90.5029 77.1885 90.5029 76.9561ZM99.0068 71.6035L99.0684 72.458C99.597 71.7972 100.306 71.4668 101.194 71.4668C101.978 71.4668 102.562 71.6969 102.944 72.1572C103.327 72.6175 103.523 73.3057 103.532 74.2217V79H101.557V74.2695C101.557 73.8503 101.465 73.5472 101.283 73.3604C101.101 73.1689 100.798 73.0732 100.374 73.0732C99.818 73.0732 99.401 73.3102 99.123 73.7842V79H97.1475V71.6035H99.0068ZM109.322 79C109.231 78.8223 109.165 78.6012 109.124 78.3369C108.646 78.8701 108.023 79.1367 107.258 79.1367C106.533 79.1367 105.932 78.9271 105.453 78.5078C104.979 78.0885 104.742 77.5599 104.742 76.9219C104.742 76.138 105.032 75.5365 105.61 75.1172C106.194 74.6979 107.035 74.486 108.133 74.4814H109.042V74.0576C109.042 73.7158 108.953 73.4424 108.775 73.2373C108.602 73.0322 108.326 72.9297 107.948 72.9297C107.616 72.9297 107.354 73.0094 107.162 73.1689C106.975 73.3285 106.882 73.5472 106.882 73.8252H104.906C104.906 73.3968 105.038 73.0003 105.303 72.6357C105.567 72.2712 105.941 71.9863 106.424 71.7812C106.907 71.5716 107.449 71.4668 108.051 71.4668C108.962 71.4668 109.685 71.6969 110.218 72.1572C110.756 72.613 111.024 73.2555 111.024 74.085V77.291C111.029 77.9928 111.127 78.5238 111.318 78.8838V79H109.322ZM107.688 77.626C107.98 77.626 108.249 77.5622 108.495 77.4346C108.741 77.3024 108.924 77.127 109.042 76.9082V75.6367H108.304C107.315 75.6367 106.788 75.9785 106.725 76.6621L106.718 76.7783C106.718 77.0244 106.804 77.2272 106.978 77.3867C107.151 77.5462 107.388 77.626 107.688 77.626ZM114.395 71.6035L114.456 72.4307C114.98 71.7881 115.689 71.4668 116.582 71.4668C117.535 71.4668 118.188 71.8428 118.544 72.5947C119.063 71.8428 119.804 71.4668 120.766 71.4668C121.568 71.4668 122.165 71.7015 122.557 72.1709C122.949 72.6357 123.145 73.3376 123.145 74.2764V79H121.162V74.2832C121.162 73.8639 121.08 73.5586 120.916 73.3672C120.752 73.1712 120.463 73.0732 120.048 73.0732C119.455 73.0732 119.045 73.3558 118.817 73.9209L118.824 79H116.849V74.29C116.849 73.8617 116.764 73.5518 116.596 73.3604C116.427 73.1689 116.14 73.0732 115.734 73.0732C115.174 73.0732 114.768 73.3057 114.518 73.7705V79H112.542V71.6035H114.395ZM126.754 79H124.771V71.6035H126.754V79ZM124.655 69.6895C124.655 69.3932 124.753 69.1494 124.949 68.958C125.15 68.7666 125.421 68.6709 125.763 68.6709C126.1 68.6709 126.369 68.7666 126.569 68.958C126.77 69.1494 126.87 69.3932 126.87 69.6895C126.87 69.9902 126.768 70.2363 126.562 70.4277C126.362 70.6191 126.095 70.7148 125.763 70.7148C125.43 70.7148 125.161 70.6191 124.956 70.4277C124.756 70.2363 124.655 69.9902 124.655 69.6895ZM130.206 71.6035L130.268 72.458C130.796 71.7972 131.505 71.4668 132.394 71.4668C133.177 71.4668 133.761 71.6969 134.144 72.1572C134.526 72.6175 134.722 73.3057 134.731 74.2217V79H132.756V74.2695C132.756 73.8503 132.665 73.5472 132.482 73.3604C132.3 73.1689 131.997 73.0732 131.573 73.0732C131.017 73.0732 130.6 73.3102 130.322 73.7842V79H128.347V71.6035H130.206ZM135.948 75.2471C135.948 74.1123 136.217 73.1986 136.755 72.5059C137.297 71.8132 138.026 71.4668 138.942 71.4668C139.754 71.4668 140.385 71.7448 140.836 72.3008L140.918 71.6035H142.709V78.7539C142.709 79.401 142.561 79.9639 142.265 80.4424C141.973 80.9209 141.561 81.2855 141.027 81.5361C140.494 81.7868 139.87 81.9121 139.154 81.9121C138.612 81.9121 138.083 81.8027 137.568 81.584C137.053 81.3698 136.664 81.0918 136.399 80.75L137.274 79.5469C137.767 80.0983 138.364 80.374 139.065 80.374C139.59 80.374 139.997 80.2327 140.289 79.9502C140.581 79.6722 140.727 79.2757 140.727 78.7607V78.3643C140.271 78.8792 139.672 79.1367 138.929 79.1367C138.04 79.1367 137.32 78.7904 136.769 78.0977C136.222 77.4004 135.948 76.4775 135.948 75.3291V75.2471ZM137.924 75.3906C137.924 76.0605 138.058 76.5869 138.327 76.9697C138.596 77.348 138.965 77.5371 139.435 77.5371C140.036 77.5371 140.467 77.3115 140.727 76.8604V73.75C140.462 73.2988 140.036 73.0732 139.448 73.0732C138.974 73.0732 138.601 73.2669 138.327 73.6543C138.058 74.0417 137.924 74.6204 137.924 75.3906ZM150.796 77.5439C151.16 77.5439 151.457 77.4437 151.685 77.2432C151.912 77.0426 152.031 76.776 152.04 76.4434H153.893C153.888 76.9447 153.751 77.4049 153.482 77.8242C153.214 78.2389 152.844 78.5625 152.375 78.7949C151.91 79.0228 151.395 79.1367 150.83 79.1367C149.773 79.1367 148.939 78.8018 148.328 78.1318C147.717 77.4574 147.412 76.5277 147.412 75.3428V75.2129C147.412 74.0736 147.715 73.1644 148.321 72.4854C148.927 71.8063 149.759 71.4668 150.816 71.4668C151.742 71.4668 152.482 71.7311 153.038 72.2598C153.599 72.7839 153.883 73.4834 153.893 74.3584H152.04C152.031 73.9756 151.912 73.6657 151.685 73.4287C151.457 73.1872 151.156 73.0664 150.782 73.0664C150.322 73.0664 149.973 73.235 149.736 73.5723C149.504 73.9049 149.388 74.4473 149.388 75.1992V75.4043C149.388 76.1654 149.504 76.7122 149.736 77.0449C149.969 77.3776 150.322 77.5439 150.796 77.5439ZM154.713 75.2334C154.713 74.4997 154.854 73.8457 155.137 73.2715C155.419 72.6973 155.825 72.2529 156.354 71.9385C156.887 71.624 157.504 71.4668 158.206 71.4668C159.204 71.4668 160.018 71.7721 160.646 72.3828C161.28 72.9935 161.633 73.8229 161.706 74.8711L161.72 75.377C161.72 76.5117 161.403 77.4232 160.77 78.1113C160.136 78.7949 159.286 79.1367 158.22 79.1367C157.153 79.1367 156.301 78.7949 155.663 78.1113C155.03 77.4277 154.713 76.498 154.713 75.3223V75.2334ZM156.688 75.377C156.688 76.0788 156.821 76.6165 157.085 76.9902C157.349 77.3594 157.728 77.5439 158.22 77.5439C158.698 77.5439 159.072 77.3617 159.341 76.9971C159.61 76.6279 159.744 76.04 159.744 75.2334C159.744 74.5452 159.61 74.012 159.341 73.6338C159.072 73.2555 158.694 73.0664 158.206 73.0664C157.723 73.0664 157.349 73.2555 157.085 73.6338C156.821 74.0075 156.688 74.5885 156.688 75.377ZM164.755 71.6035L164.816 72.458C165.345 71.7972 166.054 71.4668 166.942 71.4668C167.726 71.4668 168.31 71.6969 168.692 72.1572C169.075 72.6175 169.271 73.3057 169.28 74.2217V79H167.305V74.2695C167.305 73.8503 167.214 73.5472 167.031 73.3604C166.849 73.1689 166.546 73.0732 166.122 73.0732C165.566 73.0732 165.149 73.3102 164.871 73.7842V79H162.896V71.6035H164.755ZM173.553 76.5869L174.927 71.6035H176.991L174.496 79H172.609L170.114 71.6035H172.179L173.553 76.5869ZM181.175 79.1367C180.09 79.1367 179.206 78.804 178.522 78.1387C177.843 77.4733 177.504 76.5869 177.504 75.4795V75.2881C177.504 74.5452 177.647 73.8822 177.935 73.2988C178.222 72.7109 178.627 72.2598 179.151 71.9453C179.68 71.6263 180.282 71.4668 180.956 71.4668C181.968 71.4668 182.763 71.7858 183.342 72.4238C183.925 73.0618 184.217 73.9665 184.217 75.1377V75.9443H179.507C179.571 76.4274 179.762 76.8148 180.081 77.1064C180.405 77.3981 180.812 77.5439 181.305 77.5439C182.066 77.5439 182.66 77.2682 183.089 76.7168L184.06 77.8037C183.763 78.223 183.362 78.5511 182.856 78.7881C182.351 79.0205 181.79 79.1367 181.175 79.1367ZM180.949 73.0664C180.557 73.0664 180.238 73.1986 179.992 73.4629C179.751 73.7272 179.596 74.1055 179.527 74.5977H182.275V74.4404C182.266 74.0029 182.148 73.6657 181.92 73.4287C181.692 73.1872 181.368 73.0664 180.949 73.0664ZM187.163 71.6035L187.225 72.458C187.753 71.7972 188.462 71.4668 189.351 71.4668C190.134 71.4668 190.718 71.6969 191.101 72.1572C191.483 72.6175 191.679 73.3057 191.688 74.2217V79H189.713V74.2695C189.713 73.8503 189.622 73.5472 189.439 73.3604C189.257 73.1689 188.954 73.0732 188.53 73.0732C187.974 73.0732 187.557 73.3102 187.279 73.7842V79H185.304V71.6035H187.163ZM195.558 69.7852V71.6035H196.822V73.0527H195.558V76.7441C195.558 77.0176 195.61 77.2135 195.715 77.332C195.82 77.4505 196.02 77.5098 196.316 77.5098C196.535 77.5098 196.729 77.4938 196.897 77.4619V78.959C196.51 79.0775 196.111 79.1367 195.701 79.1367C194.316 79.1367 193.609 78.4372 193.582 77.0381V73.0527H192.502V71.6035H193.582V69.7852H195.558ZM200.008 79H198.025V71.6035H200.008V79ZM197.909 69.6895C197.909 69.3932 198.007 69.1494 198.203 68.958C198.404 68.7666 198.675 68.6709 199.017 68.6709C199.354 68.6709 199.623 68.7666 199.823 68.958C200.024 69.1494 200.124 69.3932 200.124 69.6895C200.124 69.9902 200.021 70.2363 199.816 70.4277C199.616 70.6191 199.349 70.7148 199.017 70.7148C198.684 70.7148 198.415 70.6191 198.21 70.4277C198.009 70.2363 197.909 69.9902 197.909 69.6895ZM201.334 75.2334C201.334 74.4997 201.475 73.8457 201.758 73.2715C202.04 72.6973 202.446 72.2529 202.975 71.9385C203.508 71.624 204.125 71.4668 204.827 71.4668C205.825 71.4668 206.639 71.7721 207.268 72.3828C207.901 72.9935 208.254 73.8229 208.327 74.8711L208.341 75.377C208.341 76.5117 208.024 77.4232 207.391 78.1113C206.757 78.7949 205.907 79.1367 204.841 79.1367C203.774 79.1367 202.922 78.7949 202.284 78.1113C201.651 77.4277 201.334 76.498 201.334 75.3223V75.2334ZM203.31 75.377C203.31 76.0788 203.442 76.6165 203.706 76.9902C203.97 77.3594 204.349 77.5439 204.841 77.5439C205.319 77.5439 205.693 77.3617 205.962 76.9971C206.231 76.6279 206.365 76.04 206.365 75.2334C206.365 74.5452 206.231 74.012 205.962 73.6338C205.693 73.2555 205.315 73.0664 204.827 73.0664C204.344 73.0664 203.97 73.2555 203.706 73.6338C203.442 74.0075 203.31 74.5885 203.31 75.377ZM211.376 71.6035L211.438 72.458C211.966 71.7972 212.675 71.4668 213.563 71.4668C214.347 71.4668 214.931 71.6969 215.313 72.1572C215.696 72.6175 215.892 73.3057 215.901 74.2217V79H213.926V74.2695C213.926 73.8503 213.835 73.5472 213.652 73.3604C213.47 73.1689 213.167 73.0732 212.743 73.0732C212.187 73.0732 211.77 73.3102 211.492 73.7842V79H209.517V71.6035H211.376ZM25.124 86.7852V88.6035H26.3887V90.0527H25.124V93.7441C25.124 94.0176 25.1764 94.2135 25.2812 94.332C25.3861 94.4505 25.5866 94.5098 25.8828 94.5098C26.1016 94.5098 26.2952 94.4938 26.4639 94.4619V95.959C26.0765 96.0775 25.6777 96.1367 25.2676 96.1367C23.8822 96.1367 23.1758 95.4372 23.1484 94.0381V90.0527H22.0684V88.6035H23.1484V86.7852H25.124ZM26.9766 92.2334C26.9766 91.4997 27.1178 90.8457 27.4004 90.2715C27.6829 89.6973 28.0885 89.2529 28.6172 88.9385C29.1504 88.624 29.7679 88.4668 30.4697 88.4668C31.4678 88.4668 32.2812 88.7721 32.9102 89.3828C33.5436 89.9935 33.8968 90.8229 33.9697 91.8711L33.9834 92.377C33.9834 93.5117 33.6667 94.4232 33.0332 95.1113C32.3997 95.7949 31.5498 96.1367 30.4834 96.1367C29.417 96.1367 28.5648 95.7949 27.9268 95.1113C27.2933 94.4277 26.9766 93.498 26.9766 92.3223V92.2334ZM28.9521 92.377C28.9521 93.0788 29.0843 93.6165 29.3486 93.9902C29.613 94.3594 29.9912 94.5439 30.4834 94.5439C30.9619 94.5439 31.3356 94.3617 31.6045 93.9971C31.8734 93.6279 32.0078 93.04 32.0078 92.2334C32.0078 91.5452 31.8734 91.012 31.6045 90.6338C31.3356 90.2555 30.9574 90.0664 30.4697 90.0664C29.9867 90.0664 29.613 90.2555 29.3486 90.6338C29.0843 91.0075 28.9521 91.5885 28.9521 92.377ZM42.9727 96C42.8815 95.8223 42.8154 95.6012 42.7744 95.3369C42.2959 95.8701 41.6738 96.1367 40.9082 96.1367C40.1836 96.1367 39.582 95.9271 39.1035 95.5078C38.6296 95.0885 38.3926 94.5599 38.3926 93.9219C38.3926 93.138 38.682 92.5365 39.2607 92.1172C39.8441 91.6979 40.6849 91.486 41.7832 91.4814H42.6924V91.0576C42.6924 90.7158 42.6035 90.4424 42.4258 90.2373C42.2526 90.0322 41.9769 89.9297 41.5986 89.9297C41.266 89.9297 41.0039 90.0094 40.8125 90.1689C40.6257 90.3285 40.5322 90.5472 40.5322 90.8252H38.5566C38.5566 90.3968 38.6888 90.0003 38.9531 89.6357C39.2174 89.2712 39.5911 88.9863 40.0742 88.7812C40.5573 88.5716 41.0996 88.4668 41.7012 88.4668C42.6126 88.4668 43.335 88.6969 43.8682 89.1572C44.4059 89.613 44.6748 90.2555 44.6748 91.085V94.291C44.6794 94.9928 44.7773 95.5238 44.9688 95.8838V96H42.9727ZM41.3389 94.626C41.6305 94.626 41.8994 94.5622 42.1455 94.4346C42.3916 94.3024 42.5739 94.127 42.6924 93.9082V92.6367H41.9541C40.9652 92.6367 40.4388 92.9785 40.375 93.6621L40.3682 93.7783C40.3682 94.0244 40.4548 94.2272 40.6279 94.3867C40.8011 94.5462 41.0381 94.626 41.3389 94.626ZM49.2686 94.5439C49.6331 94.5439 49.9294 94.4437 50.1572 94.2432C50.3851 94.0426 50.5036 93.776 50.5127 93.4434H52.3652C52.3607 93.9447 52.224 94.4049 51.9551 94.8242C51.6862 95.2389 51.3171 95.5625 50.8477 95.7949C50.3828 96.0228 49.8678 96.1367 49.3027 96.1367C48.2454 96.1367 47.4115 95.8018 46.8008 95.1318C46.1901 94.4574 45.8848 93.5277 45.8848 92.3428V92.2129C45.8848 91.0736 46.1878 90.1644 46.7939 89.4854C47.4001 88.8063 48.2318 88.4668 49.2891 88.4668C50.2142 88.4668 50.9548 88.7311 51.5107 89.2598C52.0713 89.7839 52.3561 90.4834 52.3652 91.3584H50.5127C50.5036 90.9756 50.3851 90.6657 50.1572 90.4287C49.9294 90.1872 49.6286 90.0664 49.2549 90.0664C48.7946 90.0664 48.446 90.235 48.209 90.5723C47.9766 90.9049 47.8604 91.4473 47.8604 92.1992V92.4043C47.8604 93.1654 47.9766 93.7122 48.209 94.0449C48.4414 94.3776 48.7946 94.5439 49.2686 94.5439ZM56.5693 94.5439C56.9339 94.5439 57.2301 94.4437 57.458 94.2432C57.6859 94.0426 57.8044 93.776 57.8135 93.4434H59.666C59.6615 93.9447 59.5247 94.4049 59.2559 94.8242C58.987 95.2389 58.6178 95.5625 58.1484 95.7949C57.6836 96.0228 57.1686 96.1367 56.6035 96.1367C55.5462 96.1367 54.7122 95.8018 54.1016 95.1318C53.4909 94.4574 53.1855 93.5277 53.1855 92.3428V92.2129C53.1855 91.0736 53.4886 90.1644 54.0947 89.4854C54.7008 88.8063 55.5326 88.4668 56.5898 88.4668C57.515 88.4668 58.2555 88.7311 58.8115 89.2598C59.3721 89.7839 59.6569 90.4834 59.666 91.3584H57.8135C57.8044 90.9756 57.6859 90.6657 57.458 90.4287C57.2301 90.1872 56.9294 90.0664 56.5557 90.0664C56.0954 90.0664 55.7467 90.235 55.5098 90.5723C55.2773 90.9049 55.1611 91.4473 55.1611 92.1992V92.4043C55.1611 93.1654 55.2773 93.7122 55.5098 94.0449C55.7422 94.3776 56.0954 94.5439 56.5693 94.5439ZM64.1982 96.1367C63.1136 96.1367 62.2295 95.804 61.5459 95.1387C60.8669 94.4733 60.5273 93.5869 60.5273 92.4795V92.2881C60.5273 91.5452 60.6709 90.8822 60.958 90.2988C61.2451 89.7109 61.6507 89.2598 62.1748 88.9453C62.7035 88.6263 63.305 88.4668 63.9795 88.4668C64.9912 88.4668 65.7865 88.7858 66.3652 89.4238C66.9486 90.0618 67.2402 90.9665 67.2402 92.1377V92.9443H62.5303C62.5941 93.4274 62.7855 93.8148 63.1045 94.1064C63.4281 94.3981 63.8359 94.5439 64.3281 94.5439C65.0892 94.5439 65.6839 94.2682 66.1123 93.7168L67.083 94.8037C66.7868 95.223 66.3857 95.5511 65.8799 95.7881C65.374 96.0205 64.8135 96.1367 64.1982 96.1367ZM63.9727 90.0664C63.5807 90.0664 63.2617 90.1986 63.0156 90.4629C62.7741 90.7272 62.6191 91.1055 62.5508 91.5977H65.2988V91.4404C65.2897 91.0029 65.1712 90.6657 64.9434 90.4287C64.7155 90.1872 64.3919 90.0664 63.9727 90.0664ZM72.374 93.9561C72.374 93.7145 72.2533 93.5254 72.0117 93.3887C71.7747 93.2474 71.3919 93.1221 70.8633 93.0127C69.1042 92.6436 68.2246 91.8962 68.2246 90.7705C68.2246 90.1143 68.4958 89.5674 69.0381 89.1299C69.585 88.6878 70.2982 88.4668 71.1777 88.4668C72.1165 88.4668 72.8662 88.6878 73.4268 89.1299C73.9919 89.5719 74.2744 90.1462 74.2744 90.8525H72.2988C72.2988 90.57 72.2077 90.3376 72.0254 90.1553C71.8431 89.9684 71.5583 89.875 71.1709 89.875C70.8382 89.875 70.5807 89.9502 70.3984 90.1006C70.2161 90.251 70.125 90.4424 70.125 90.6748C70.125 90.8936 70.2275 91.0713 70.4326 91.208C70.6423 91.3402 70.9932 91.4564 71.4854 91.5566C71.9775 91.6523 72.3923 91.7617 72.7295 91.8848C73.7731 92.2676 74.2949 92.9307 74.2949 93.874C74.2949 94.5485 74.0055 95.0954 73.4268 95.5146C72.848 95.9294 72.1006 96.1367 71.1846 96.1367C70.5648 96.1367 70.0133 96.0273 69.5303 95.8086C69.0518 95.5853 68.6758 95.2822 68.4023 94.8994C68.1289 94.512 67.9922 94.0951 67.9922 93.6484H69.8652C69.8835 93.9993 70.0133 94.2682 70.2549 94.4551C70.4964 94.6419 70.82 94.7354 71.2256 94.7354C71.6038 94.7354 71.8887 94.6647 72.0801 94.5234C72.276 94.3776 72.374 94.1885 72.374 93.9561ZM79.5791 93.9561C79.5791 93.7145 79.4583 93.5254 79.2168 93.3887C78.9798 93.2474 78.597 93.1221 78.0684 93.0127C76.3092 92.6436 75.4297 91.8962 75.4297 90.7705C75.4297 90.1143 75.7008 89.5674 76.2432 89.1299C76.79 88.6878 77.5033 88.4668 78.3828 88.4668C79.3216 88.4668 80.0713 88.6878 80.6318 89.1299C81.1969 89.5719 81.4795 90.1462 81.4795 90.8525H79.5039C79.5039 90.57 79.4128 90.3376 79.2305 90.1553C79.0482 89.9684 78.7633 89.875 78.376 89.875C78.0433 89.875 77.7858 89.9502 77.6035 90.1006C77.4212 90.251 77.3301 90.4424 77.3301 90.6748C77.3301 90.8936 77.4326 91.0713 77.6377 91.208C77.8473 91.3402 78.1982 91.4564 78.6904 91.5566C79.1826 91.6523 79.5973 91.7617 79.9346 91.8848C80.9782 92.2676 81.5 92.9307 81.5 93.874C81.5 94.5485 81.2106 95.0954 80.6318 95.5146C80.0531 95.9294 79.3057 96.1367 78.3896 96.1367C77.7699 96.1367 77.2184 96.0273 76.7354 95.8086C76.2568 95.5853 75.8809 95.2822 75.6074 94.8994C75.334 94.512 75.1973 94.0951 75.1973 93.6484H77.0703C77.0885 93.9993 77.2184 94.2682 77.46 94.4551C77.7015 94.6419 78.0251 94.7354 78.4307 94.7354C78.8089 94.7354 79.0938 94.6647 79.2852 94.5234C79.4811 94.3776 79.5791 94.1885 79.5791 93.9561ZM88.6299 86.7852V88.6035H89.8945V90.0527H88.6299V93.7441C88.6299 94.0176 88.6823 94.2135 88.7871 94.332C88.8919 94.4505 89.0924 94.5098 89.3887 94.5098C89.6074 94.5098 89.8011 94.4938 89.9697 94.4619V95.959C89.5824 96.0775 89.1836 96.1367 88.7734 96.1367C87.388 96.1367 86.6816 95.4372 86.6543 94.0381V90.0527H85.5742V88.6035H86.6543V86.7852H88.6299ZM92.9229 89.4102C93.4469 88.7812 94.1055 88.4668 94.8984 88.4668C96.5026 88.4668 97.3161 89.3988 97.3389 91.2627V96H95.3633V91.3174C95.3633 90.8936 95.2721 90.5814 95.0898 90.3809C94.9076 90.1758 94.6045 90.0732 94.1807 90.0732C93.6019 90.0732 93.1826 90.2965 92.9229 90.7432V96H90.9473V85.5H92.9229V89.4102ZM102.233 96.1367C101.149 96.1367 100.265 95.804 99.5811 95.1387C98.902 94.4733 98.5625 93.5869 98.5625 92.4795V92.2881C98.5625 91.5452 98.7061 90.8822 98.9932 90.2988C99.2803 89.7109 99.6859 89.2598 100.21 88.9453C100.739 88.6263 101.34 88.4668 102.015 88.4668C103.026 88.4668 103.822 88.7858 104.4 89.4238C104.984 90.0618 105.275 90.9665 105.275 92.1377V92.9443H100.565C100.629 93.4274 100.821 93.8148 101.14 94.1064C101.463 94.3981 101.871 94.5439 102.363 94.5439C103.124 94.5439 103.719 94.2682 104.147 93.7168L105.118 94.8037C104.822 95.223 104.421 95.5511 103.915 95.7881C103.409 96.0205 102.849 96.1367 102.233 96.1367ZM102.008 90.0664C101.616 90.0664 101.297 90.1986 101.051 90.4629C100.809 90.7272 100.654 91.1055 100.586 91.5977H103.334V91.4404C103.325 91.0029 103.206 90.6657 102.979 90.4287C102.751 90.1872 102.427 90.0664 102.008 90.0664ZM112.966 94.5439C113.33 94.5439 113.627 94.4437 113.854 94.2432C114.082 94.0426 114.201 93.776 114.21 93.4434H116.062C116.058 93.9447 115.921 94.4049 115.652 94.8242C115.383 95.2389 115.014 95.5625 114.545 95.7949C114.08 96.0228 113.565 96.1367 113 96.1367C111.943 96.1367 111.109 95.8018 110.498 95.1318C109.887 94.4574 109.582 93.5277 109.582 92.3428V92.2129C109.582 91.0736 109.885 90.1644 110.491 89.4854C111.097 88.8063 111.929 88.4668 112.986 88.4668C113.911 88.4668 114.652 88.7311 115.208 89.2598C115.769 89.7839 116.053 90.4834 116.062 91.3584H114.21C114.201 90.9756 114.082 90.6657 113.854 90.4287C113.627 90.1872 113.326 90.0664 112.952 90.0664C112.492 90.0664 112.143 90.235 111.906 90.5723C111.674 90.9049 111.558 91.4473 111.558 92.1992V92.4043C111.558 93.1654 111.674 93.7122 111.906 94.0449C112.139 94.3776 112.492 94.5439 112.966 94.5439ZM116.883 92.2334C116.883 91.4997 117.024 90.8457 117.307 90.2715C117.589 89.6973 117.995 89.2529 118.523 88.9385C119.057 88.624 119.674 88.4668 120.376 88.4668C121.374 88.4668 122.188 88.7721 122.816 89.3828C123.45 89.9935 123.803 90.8229 123.876 91.8711L123.89 92.377C123.89 93.5117 123.573 94.4232 122.939 95.1113C122.306 95.7949 121.456 96.1367 120.39 96.1367C119.323 96.1367 118.471 95.7949 117.833 95.1113C117.2 94.4277 116.883 93.498 116.883 92.3223V92.2334ZM118.858 92.377C118.858 93.0788 118.991 93.6165 119.255 93.9902C119.519 94.3594 119.897 94.5439 120.39 94.5439C120.868 94.5439 121.242 94.3617 121.511 93.9971C121.78 93.6279 121.914 93.04 121.914 92.2334C121.914 91.5452 121.78 91.012 121.511 90.6338C121.242 90.2555 120.864 90.0664 120.376 90.0664C119.893 90.0664 119.519 90.2555 119.255 90.6338C118.991 91.0075 118.858 91.5885 118.858 92.377ZM126.925 88.6035L126.986 89.458C127.515 88.7972 128.224 88.4668 129.112 88.4668C129.896 88.4668 130.479 88.6969 130.862 89.1572C131.245 89.6175 131.441 90.3057 131.45 91.2217V96H129.475V91.2695C129.475 90.8503 129.383 90.5472 129.201 90.3604C129.019 90.1689 128.716 90.0732 128.292 90.0732C127.736 90.0732 127.319 90.3102 127.041 90.7842V96H125.065V88.6035H126.925ZM136.03 94.5439C136.395 94.5439 136.691 94.4437 136.919 94.2432C137.147 94.0426 137.265 93.776 137.274 93.4434H139.127C139.122 93.9447 138.986 94.4049 138.717 94.8242C138.448 95.2389 138.079 95.5625 137.609 95.7949C137.145 96.0228 136.63 96.1367 136.064 96.1367C135.007 96.1367 134.173 95.8018 133.562 95.1318C132.952 94.4574 132.646 93.5277 132.646 92.3428V92.2129C132.646 91.0736 132.95 90.1644 133.556 89.4854C134.162 88.8063 134.993 88.4668 136.051 88.4668C136.976 88.4668 137.716 88.7311 138.272 89.2598C138.833 89.7839 139.118 90.4834 139.127 91.3584H137.274C137.265 90.9756 137.147 90.6657 136.919 90.4287C136.691 90.1872 136.39 90.0664 136.017 90.0664C135.556 90.0664 135.208 90.235 134.971 90.5723C134.738 90.9049 134.622 91.4473 134.622 92.1992V92.4043C134.622 93.1654 134.738 93.7122 134.971 94.0449C135.203 94.3776 135.556 94.5439 136.03 94.5439ZM144.541 96C144.45 95.8223 144.384 95.6012 144.343 95.3369C143.864 95.8701 143.242 96.1367 142.477 96.1367C141.752 96.1367 141.15 95.9271 140.672 95.5078C140.198 95.0885 139.961 94.5599 139.961 93.9219C139.961 93.138 140.25 92.5365 140.829 92.1172C141.412 91.6979 142.253 91.486 143.352 91.4814H144.261V91.0576C144.261 90.7158 144.172 90.4424 143.994 90.2373C143.821 90.0322 143.545 89.9297 143.167 89.9297C142.834 89.9297 142.572 90.0094 142.381 90.1689C142.194 90.3285 142.101 90.5472 142.101 90.8252H140.125C140.125 90.3968 140.257 90.0003 140.521 89.6357C140.786 89.2712 141.16 88.9863 141.643 88.7812C142.126 88.5716 142.668 88.4668 143.27 88.4668C144.181 88.4668 144.903 88.6969 145.437 89.1572C145.974 89.613 146.243 90.2555 146.243 91.085V94.291C146.248 94.9928 146.346 95.5238 146.537 95.8838V96H144.541ZM142.907 94.626C143.199 94.626 143.468 94.5622 143.714 94.4346C143.96 94.3024 144.142 94.127 144.261 93.9082V92.6367H143.522C142.534 92.6367 142.007 92.9785 141.943 93.6621L141.937 93.7783C141.937 94.0244 142.023 94.2272 142.196 94.3867C142.369 94.5462 142.606 94.626 142.907 94.626ZM150.126 86.7852V88.6035H151.391V90.0527H150.126V93.7441C150.126 94.0176 150.178 94.2135 150.283 94.332C150.388 94.4505 150.589 94.5098 150.885 94.5098C151.104 94.5098 151.297 94.4938 151.466 94.4619V95.959C151.078 96.0775 150.68 96.1367 150.27 96.1367C148.884 96.1367 148.178 95.4372 148.15 94.0381V90.0527H147.07V88.6035H148.15V86.7852H150.126ZM156.518 96V90.0527H155.417V88.6035H156.518V87.9746C156.518 87.1452 156.755 86.5026 157.229 86.0469C157.707 85.5866 158.375 85.3564 159.231 85.3564C159.505 85.3564 159.84 85.402 160.236 85.4932L160.216 87.0244C160.052 86.9834 159.851 86.9629 159.614 86.9629C158.871 86.9629 158.5 87.3115 158.5 88.0088V88.6035H159.97V90.0527H158.5V96H156.518ZM165.425 95.248C164.937 95.8405 164.263 96.1367 163.401 96.1367C162.608 96.1367 162.002 95.9089 161.583 95.4531C161.168 94.9974 160.956 94.3298 160.947 93.4502V88.6035H162.923V93.3818C162.923 94.152 163.274 94.5371 163.976 94.5371C164.646 94.5371 165.106 94.3047 165.356 93.8398V88.6035H167.339V96H165.479L165.425 95.248ZM170.647 88.6035L170.709 89.458C171.238 88.7972 171.946 88.4668 172.835 88.4668C173.619 88.4668 174.202 88.6969 174.585 89.1572C174.968 89.6175 175.164 90.3057 175.173 91.2217V96H173.197V91.2695C173.197 90.8503 173.106 90.5472 172.924 90.3604C172.742 90.1689 172.438 90.0732 172.015 90.0732C171.459 90.0732 171.042 90.3102 170.764 90.7842V96H168.788V88.6035H170.647ZM179.753 94.5439C180.118 94.5439 180.414 94.4437 180.642 94.2432C180.869 94.0426 180.988 93.776 180.997 93.4434H182.85C182.845 93.9447 182.708 94.4049 182.439 94.8242C182.171 95.2389 181.801 95.5625 181.332 95.7949C180.867 96.0228 180.352 96.1367 179.787 96.1367C178.73 96.1367 177.896 95.8018 177.285 95.1318C176.674 94.4574 176.369 93.5277 176.369 92.3428V92.2129C176.369 91.0736 176.672 90.1644 177.278 89.4854C177.884 88.8063 178.716 88.4668 179.773 88.4668C180.699 88.4668 181.439 88.7311 181.995 89.2598C182.556 89.7839 182.84 90.4834 182.85 91.3584H180.997C180.988 90.9756 180.869 90.6657 180.642 90.4287C180.414 90.1872 180.113 90.0664 179.739 90.0664C179.279 90.0664 178.93 90.235 178.693 90.5723C178.461 90.9049 178.345 91.4473 178.345 92.1992V92.4043C178.345 93.1654 178.461 93.7122 178.693 94.0449C178.926 94.3776 179.279 94.5439 179.753 94.5439ZM186.343 86.7852V88.6035H187.607V90.0527H186.343V93.7441C186.343 94.0176 186.395 94.2135 186.5 94.332C186.605 94.4505 186.805 94.5098 187.102 94.5098C187.32 94.5098 187.514 94.4938 187.683 94.4619V95.959C187.295 96.0775 186.896 96.1367 186.486 96.1367C185.101 96.1367 184.395 95.4372 184.367 94.0381V90.0527H183.287V88.6035H184.367V86.7852H186.343ZM190.793 96H188.811V88.6035H190.793V96ZM188.694 86.6895C188.694 86.3932 188.792 86.1494 188.988 85.958C189.189 85.7666 189.46 85.6709 189.802 85.6709C190.139 85.6709 190.408 85.7666 190.608 85.958C190.809 86.1494 190.909 86.3932 190.909 86.6895C190.909 86.9902 190.807 87.2363 190.602 87.4277C190.401 87.6191 190.134 87.7148 189.802 87.7148C189.469 87.7148 189.2 87.6191 188.995 87.4277C188.795 87.2363 188.694 86.9902 188.694 86.6895ZM192.119 92.2334C192.119 91.4997 192.26 90.8457 192.543 90.2715C192.826 89.6973 193.231 89.2529 193.76 88.9385C194.293 88.624 194.91 88.4668 195.612 88.4668C196.61 88.4668 197.424 88.7721 198.053 89.3828C198.686 89.9935 199.039 90.8229 199.112 91.8711L199.126 92.377C199.126 93.5117 198.809 94.4232 198.176 95.1113C197.542 95.7949 196.692 96.1367 195.626 96.1367C194.56 96.1367 193.707 95.7949 193.069 95.1113C192.436 94.4277 192.119 93.498 192.119 92.3223V92.2334ZM194.095 92.377C194.095 93.0788 194.227 93.6165 194.491 93.9902C194.756 94.3594 195.134 94.5439 195.626 94.5439C196.104 94.5439 196.478 94.3617 196.747 93.9971C197.016 93.6279 197.15 93.04 197.15 92.2334C197.15 91.5452 197.016 91.012 196.747 90.6338C196.478 90.2555 196.1 90.0664 195.612 90.0664C195.129 90.0664 194.756 90.2555 194.491 90.6338C194.227 91.0075 194.095 91.5885 194.095 92.377ZM202.161 88.6035L202.223 89.458C202.751 88.7972 203.46 88.4668 204.349 88.4668C205.132 88.4668 205.716 88.6969 206.099 89.1572C206.481 89.6175 206.677 90.3057 206.687 91.2217V96H204.711V91.2695C204.711 90.8503 204.62 90.5472 204.438 90.3604C204.255 90.1689 203.952 90.0732 203.528 90.0732C202.972 90.0732 202.555 90.3102 202.277 90.7842V96H200.302V88.6035H202.161ZM208.293 95.0293C208.293 94.7148 208.398 94.4596 208.607 94.2637C208.822 94.0677 209.088 93.9697 209.407 93.9697C209.731 93.9697 209.997 94.0677 210.207 94.2637C210.421 94.4596 210.528 94.7148 210.528 95.0293C210.528 95.3392 210.424 95.5921 210.214 95.7881C210.004 95.9795 209.735 96.0752 209.407 96.0752C209.084 96.0752 208.817 95.9795 208.607 95.7881C208.398 95.5921 208.293 95.3392 208.293 95.0293Z" fill="#EB5757"/>
<path d="M362.534 137.181C362.634 137.439 362.924 137.566 363.181 137.466L367.375 135.833C367.632 135.733 367.759 135.443 367.659 135.185C367.559 134.928 367.269 134.801 367.012 134.901L363.284 136.353L361.833 132.625C361.733 132.368 361.443 132.241 361.185 132.341C360.928 132.441 360.801 132.731 360.901 132.988L362.534 137.181ZM391.542 70.7989L362.542 136.799L363.458 137.201L392.458 71.2011L391.542 70.7989Z" fill="black"/>
<path d="M211.989 150.5C212.265 150.506 212.494 150.287 212.5 150.011L212.6 145.512C212.606 145.236 212.387 145.007 212.111 145.001C211.835 144.995 211.606 145.214 211.6 145.49L211.511 149.489L207.512 149.4C207.236 149.394 207.007 149.613 207.001 149.889C206.995 150.165 207.214 150.394 207.49 150.4L211.989 150.5ZM167.639 104.346L211.639 150.346L212.361 149.654L168.361 103.654L167.639 104.346Z" fill="black"/>
</svg>
