<svg width="648" height="277" viewBox="0 0 648 277" fill="none" xmlns="http://www.w3.org/2000/svg">
<rect width="648" height="277" fill="white"/>
<rect width="208" height="323" transform="translate(182 -295)" fill="white"/>
<path d="M273.701 17.7734H270.127L269.324 20H268.164L271.422 11.4688H272.406L275.67 20H274.516L273.701 17.7734ZM270.467 16.8477H273.367L271.914 12.8574L270.467 16.8477ZM278.775 15.9746L280.182 13.6602H281.447L279.373 16.7949L281.512 20H280.258L278.793 17.627L277.328 20H276.068L278.207 16.7949L276.133 13.6602H277.387L278.775 15.9746ZM283.779 20H282.695V13.6602H283.779V20ZM282.607 11.9785C282.607 11.8027 282.66 11.6543 282.766 11.5332C282.875 11.4121 283.035 11.3516 283.246 11.3516C283.457 11.3516 283.617 11.4121 283.727 11.5332C283.836 11.6543 283.891 11.8027 283.891 11.9785C283.891 12.1543 283.836 12.3008 283.727 12.418C283.617 12.5352 283.457 12.5938 283.246 12.5938C283.035 12.5938 282.875 12.5352 282.766 12.418C282.66 12.3008 282.607 12.1543 282.607 11.9785ZM289.211 18.3184C289.211 18.0254 289.1 17.7988 288.877 17.6387C288.658 17.4746 288.273 17.334 287.723 17.2168C287.176 17.0996 286.74 16.959 286.416 16.7949C286.096 16.6309 285.857 16.4355 285.701 16.209C285.549 15.9824 285.473 15.7129 285.473 15.4004C285.473 14.8809 285.691 14.4414 286.129 14.082C286.57 13.7227 287.133 13.543 287.816 13.543C288.535 13.543 289.117 13.7285 289.562 14.0996C290.012 14.4707 290.236 14.9453 290.236 15.5234H289.146C289.146 15.2266 289.02 14.9707 288.766 14.7559C288.516 14.541 288.199 14.4336 287.816 14.4336C287.422 14.4336 287.113 14.5195 286.891 14.6914C286.668 14.8633 286.557 15.0879 286.557 15.3652C286.557 15.627 286.66 15.8242 286.867 15.957C287.074 16.0898 287.447 16.2168 287.986 16.3379C288.529 16.459 288.969 16.6035 289.305 16.7715C289.641 16.9395 289.889 17.1426 290.049 17.3809C290.213 17.6152 290.295 17.9023 290.295 18.2422C290.295 18.8086 290.068 19.2637 289.615 19.6074C289.162 19.9473 288.574 20.1172 287.852 20.1172C287.344 20.1172 286.895 20.0273 286.504 19.8477C286.113 19.668 285.807 19.418 285.584 19.0977C285.365 18.7734 285.256 18.4238 285.256 18.0488H286.34C286.359 18.4121 286.504 18.7012 286.773 18.916C287.047 19.127 287.406 19.2324 287.852 19.2324C288.262 19.2324 288.59 19.1504 288.836 18.9863C289.086 18.8184 289.211 18.5957 289.211 18.3184ZM299.641 15.2305H294.754V14.2871H299.641V15.2305ZM299.641 17.6621H294.754V16.7246H299.641V17.6621ZM307.697 20H306.607V12.7754L304.422 13.5781V12.5938L307.527 11.4277H307.697V20Z" fill="black"/>
<g clip-path="url(#clip0)">
<rect width="133" height="219" transform="translate(226 34)" fill="white"/>
<rect x="272.5" y="51.5" width="72" height="62" fill="#BDBDBD" stroke="black"/>
<path d="M289.266 83.293C289.16 84.1953 288.826 84.8926 288.264 85.3848C287.705 85.873 286.961 86.1172 286.031 86.1172C285.023 86.1172 284.215 85.7559 283.605 85.0332C283 84.3105 282.697 83.3438 282.697 82.1328V81.3125C282.697 80.5195 282.838 79.8223 283.119 79.2207C283.404 78.6191 283.807 78.1582 284.326 77.8379C284.846 77.5137 285.447 77.3516 286.131 77.3516C287.037 77.3516 287.764 77.6055 288.311 78.1133C288.857 78.6172 289.176 79.3164 289.266 80.2109H288.135C288.037 79.5312 287.824 79.0391 287.496 78.7344C287.172 78.4297 286.717 78.2773 286.131 78.2773C285.412 78.2773 284.848 78.543 284.438 79.0742C284.031 79.6055 283.828 80.3613 283.828 81.3418V82.168C283.828 83.0938 284.021 83.8301 284.408 84.377C284.795 84.9238 285.336 85.1973 286.031 85.1973C286.656 85.1973 287.135 85.0566 287.467 84.7754C287.803 84.4902 288.025 83.9961 288.135 83.293H289.266ZM290.35 82.7715C290.35 82.1504 290.471 81.5918 290.713 81.0957C290.959 80.5996 291.299 80.2168 291.732 79.9473C292.17 79.6777 292.668 79.543 293.227 79.543C294.09 79.543 294.787 79.8418 295.318 80.4395C295.854 81.0371 296.121 81.832 296.121 82.8242V82.9004C296.121 83.5176 296.002 84.0723 295.764 84.5645C295.529 85.0527 295.191 85.4336 294.75 85.707C294.312 85.9805 293.809 86.1172 293.238 86.1172C292.379 86.1172 291.682 85.8184 291.146 85.2207C290.615 84.623 290.35 83.832 290.35 82.8477V82.7715ZM291.439 82.9004C291.439 83.6035 291.602 84.168 291.926 84.5938C292.254 85.0195 292.691 85.2324 293.238 85.2324C293.789 85.2324 294.227 85.0176 294.551 84.5879C294.875 84.1543 295.037 83.5488 295.037 82.7715C295.037 82.0762 294.871 81.5137 294.539 81.084C294.211 80.6504 293.773 80.4336 293.227 80.4336C292.691 80.4336 292.26 80.6465 291.932 81.0723C291.604 81.498 291.439 82.1074 291.439 82.9004ZM298.658 86H297.574V77H298.658V86ZM304.312 85.373C303.891 85.8691 303.271 86.1172 302.455 86.1172C301.779 86.1172 301.264 85.9219 300.908 85.5312C300.557 85.1367 300.379 84.5547 300.375 83.7852V79.6602H301.459V83.7559C301.459 84.7168 301.85 85.1973 302.631 85.1973C303.459 85.1973 304.01 84.8887 304.283 84.2715V79.6602H305.367V86H304.336L304.312 85.373ZM308.039 79.6602L308.068 80.3633C308.533 79.8164 309.16 79.543 309.949 79.543C310.836 79.543 311.439 79.8828 311.76 80.5625C311.971 80.2578 312.244 80.0117 312.58 79.8242C312.92 79.6367 313.32 79.543 313.781 79.543C315.172 79.543 315.879 80.2793 315.902 81.752V86H314.818V81.8164C314.818 81.3633 314.715 81.0254 314.508 80.8027C314.301 80.5762 313.953 80.4629 313.465 80.4629C313.062 80.4629 312.729 80.584 312.463 80.8262C312.197 81.0645 312.043 81.3867 312 81.793V86H310.91V81.8457C310.91 80.9238 310.459 80.4629 309.557 80.4629C308.846 80.4629 308.359 80.7656 308.098 81.3711V86H307.014V79.6602H308.039ZM318.568 79.6602L318.604 80.457C319.088 79.8477 319.721 79.543 320.502 79.543C321.842 79.543 322.518 80.2988 322.529 81.8105V86H321.445V81.8047C321.441 81.3477 321.336 81.0098 321.129 80.791C320.926 80.5723 320.607 80.4629 320.174 80.4629C319.822 80.4629 319.514 80.5566 319.248 80.7441C318.982 80.9316 318.775 81.1777 318.627 81.4824V86H317.543V79.6602H318.568ZM332.619 86H327.029V85.2207L329.982 81.9395C330.42 81.4434 330.721 81.041 330.885 80.7324C331.053 80.4199 331.137 80.0977 331.137 79.7656C331.137 79.3203 331.002 78.9551 330.732 78.6699C330.463 78.3848 330.104 78.2422 329.654 78.2422C329.115 78.2422 328.695 78.3965 328.395 78.7051C328.098 79.0098 327.949 79.4355 327.949 79.9824H326.865C326.865 79.1973 327.117 78.5625 327.621 78.0781C328.129 77.5938 328.807 77.3516 329.654 77.3516C330.447 77.3516 331.074 77.5605 331.535 77.9785C331.996 78.3926 332.227 78.9453 332.227 79.6367C332.227 80.4766 331.691 81.4766 330.621 82.6367L328.336 85.1152H332.619V86Z" fill="black"/>
<rect x="272.5" y="114.5" width="72" height="62" fill="#56CCF2" stroke="black"/>
<path d="M307.99 149V140.469H310.779C311.705 140.469 312.4 140.66 312.865 141.043C313.334 141.426 313.568 141.992 313.568 142.742C313.568 143.141 313.455 143.494 313.229 143.803C313.002 144.107 312.693 144.344 312.303 144.512C312.764 144.641 313.127 144.887 313.393 145.25C313.662 145.609 313.797 146.039 313.797 146.539C313.797 147.305 313.549 147.906 313.053 148.344C312.557 148.781 311.855 149 310.949 149H307.99ZM309.115 145.01V148.08H310.973C311.496 148.08 311.908 147.945 312.209 147.676C312.514 147.402 312.666 147.027 312.666 146.551C312.666 145.523 312.107 145.01 310.99 145.01H309.115ZM309.115 144.107H310.814C311.307 144.107 311.699 143.984 311.992 143.738C312.289 143.492 312.438 143.158 312.438 142.736C312.438 142.268 312.301 141.928 312.027 141.717C311.754 141.502 311.338 141.395 310.779 141.395H309.115V144.107Z" fill="black"/>
<rect x="238.5" y="114.5" width="33" height="62" fill="#C4C4C4" stroke="black"/>
<path d="M258.059 145.361C258.059 146.631 257.842 147.574 257.408 148.191C256.975 148.809 256.297 149.117 255.375 149.117C254.465 149.117 253.791 148.816 253.354 148.215C252.916 147.609 252.689 146.707 252.674 145.508V144.061C252.674 142.807 252.891 141.875 253.324 141.266C253.758 140.656 254.438 140.352 255.363 140.352C256.281 140.352 256.957 140.646 257.391 141.236C257.824 141.822 258.047 142.729 258.059 143.955V145.361ZM256.975 143.879C256.975 142.961 256.846 142.293 256.588 141.875C256.33 141.453 255.922 141.242 255.363 141.242C254.809 141.242 254.404 141.451 254.15 141.869C253.896 142.287 253.766 142.93 253.758 143.797V145.531C253.758 146.453 253.891 147.135 254.156 147.576C254.426 148.014 254.832 148.232 255.375 148.232C255.91 148.232 256.307 148.025 256.564 147.611C256.826 147.197 256.963 146.545 256.975 145.654V143.879Z" fill="black"/>
<rect x="238.5" y="51.5" width="33" height="62" fill="#C4C4C4" stroke="black"/>
<rect x="272.5" y="177.5" width="72" height="62" fill="#56CCF2" stroke="black"/>
<path d="M306.99 216V207.469H309.398C310.141 207.469 310.797 207.633 311.367 207.961C311.938 208.289 312.377 208.756 312.686 209.361C312.998 209.967 313.156 210.662 313.16 211.447V211.992C313.16 212.797 313.004 213.502 312.691 214.107C312.383 214.713 311.939 215.178 311.361 215.502C310.787 215.826 310.117 215.992 309.352 216H306.99ZM308.115 208.395V215.08H309.299C310.166 215.08 310.84 214.811 311.32 214.271C311.805 213.732 312.047 212.965 312.047 211.969V211.471C312.047 210.502 311.818 209.75 311.361 209.215C310.908 208.676 310.264 208.402 309.428 208.395H308.115Z" fill="black"/>
<rect x="238.5" y="177.5" width="33" height="62" fill="#C4C4C4" stroke="black"/>
<path d="M256.271 216H255.182V208.775L252.996 209.578V208.594L256.102 207.428H256.271V216Z" fill="black"/>
<path d="M282.99 43V34.4688H285.398C286.141 34.4688 286.797 34.6328 287.367 34.9609C287.938 35.2891 288.377 35.7559 288.686 36.3613C288.998 36.9668 289.156 37.6621 289.16 38.4473V38.9922C289.16 39.7969 289.004 40.502 288.691 41.1074C288.383 41.7129 287.939 42.1777 287.361 42.502C286.787 42.8262 286.117 42.9922 285.352 43H282.99ZM284.115 35.3945V42.0801H285.299C286.166 42.0801 286.84 41.8105 287.32 41.2715C287.805 40.7324 288.047 39.9648 288.047 38.9688V38.4707C288.047 37.502 287.818 36.75 287.361 36.2148C286.908 35.6758 286.264 35.4023 285.428 35.3945H284.115ZM291.229 43V37.498H290.227V36.6602H291.229V36.0098C291.229 35.3301 291.41 34.8047 291.773 34.4336C292.137 34.0625 292.65 33.877 293.314 33.877C293.564 33.877 293.812 33.9102 294.059 33.9766L294 34.8555C293.816 34.8203 293.621 34.8027 293.414 34.8027C293.062 34.8027 292.791 34.9062 292.6 35.1133C292.408 35.3164 292.312 35.6094 292.312 35.9922V36.6602H293.666V37.498H292.312V43H291.229ZM300.346 43H294.756V42.2207L297.709 38.9395C298.146 38.4434 298.447 38.041 298.611 37.7324C298.779 37.4199 298.863 37.0977 298.863 36.7656C298.863 36.3203 298.729 35.9551 298.459 35.6699C298.189 35.3848 297.83 35.2422 297.381 35.2422C296.842 35.2422 296.422 35.3965 296.121 35.7051C295.824 36.0098 295.676 36.4355 295.676 36.9824H294.592C294.592 36.1973 294.844 35.5625 295.348 35.0781C295.855 34.5938 296.533 34.3516 297.381 34.3516C298.174 34.3516 298.801 34.5605 299.262 34.9785C299.723 35.3926 299.953 35.9453 299.953 36.6367C299.953 37.4766 299.418 38.4766 298.348 39.6367L296.062 42.1152H300.346V43Z" fill="black"/>
</g>
<path d="M252.354 17.3536C252.549 17.1583 252.549 16.8417 252.354 16.6464L249.172 13.4645C248.976 13.2692 248.66 13.2692 248.464 13.4645C248.269 13.6597 248.269 13.9763 248.464 14.1716L251.293 17L248.464 19.8284C248.269 20.0237 248.269 20.3403 248.464 20.5355C248.66 20.7308 248.976 20.7308 249.172 20.5355L252.354 17.3536ZM143 17.5H252V16.5H143V17.5Z" fill="black"/>
<rect width="386" height="240" transform="translate(390 24)" fill="white"/>
<rect x="450.5" y="51.5" width="72" height="62" fill="#BDBDBD" stroke="black"/>
<path d="M471.266 83.293C471.16 84.1953 470.826 84.8926 470.264 85.3848C469.705 85.873 468.961 86.1172 468.031 86.1172C467.023 86.1172 466.215 85.7559 465.605 85.0332C465 84.3105 464.697 83.3438 464.697 82.1328V81.3125C464.697 80.5195 464.838 79.8223 465.119 79.2207C465.404 78.6191 465.807 78.1582 466.326 77.8379C466.846 77.5137 467.447 77.3516 468.131 77.3516C469.037 77.3516 469.764 77.6055 470.311 78.1133C470.857 78.6172 471.176 79.3164 471.266 80.2109H470.135C470.037 79.5312 469.824 79.0391 469.496 78.7344C469.172 78.4297 468.717 78.2773 468.131 78.2773C467.412 78.2773 466.848 78.543 466.438 79.0742C466.031 79.6055 465.828 80.3613 465.828 81.3418V82.168C465.828 83.0938 466.021 83.8301 466.408 84.377C466.795 84.9238 467.336 85.1973 468.031 85.1973C468.656 85.1973 469.135 85.0566 469.467 84.7754C469.803 84.4902 470.025 83.9961 470.135 83.293H471.266ZM472.35 82.7715C472.35 82.1504 472.471 81.5918 472.713 81.0957C472.959 80.5996 473.299 80.2168 473.732 79.9473C474.17 79.6777 474.668 79.543 475.227 79.543C476.09 79.543 476.787 79.8418 477.318 80.4395C477.854 81.0371 478.121 81.832 478.121 82.8242V82.9004C478.121 83.5176 478.002 84.0723 477.764 84.5645C477.529 85.0527 477.191 85.4336 476.75 85.707C476.312 85.9805 475.809 86.1172 475.238 86.1172C474.379 86.1172 473.682 85.8184 473.146 85.2207C472.615 84.623 472.35 83.832 472.35 82.8477V82.7715ZM473.439 82.9004C473.439 83.6035 473.602 84.168 473.926 84.5938C474.254 85.0195 474.691 85.2324 475.238 85.2324C475.789 85.2324 476.227 85.0176 476.551 84.5879C476.875 84.1543 477.037 83.5488 477.037 82.7715C477.037 82.0762 476.871 81.5137 476.539 81.084C476.211 80.6504 475.773 80.4336 475.227 80.4336C474.691 80.4336 474.26 80.6465 473.932 81.0723C473.604 81.498 473.439 82.1074 473.439 82.9004ZM480.658 86H479.574V77H480.658V86ZM486.312 85.373C485.891 85.8691 485.271 86.1172 484.455 86.1172C483.779 86.1172 483.264 85.9219 482.908 85.5312C482.557 85.1367 482.379 84.5547 482.375 83.7852V79.6602H483.459V83.7559C483.459 84.7168 483.85 85.1973 484.631 85.1973C485.459 85.1973 486.01 84.8887 486.283 84.2715V79.6602H487.367V86H486.336L486.312 85.373ZM490.039 79.6602L490.068 80.3633C490.533 79.8164 491.16 79.543 491.949 79.543C492.836 79.543 493.439 79.8828 493.76 80.5625C493.971 80.2578 494.244 80.0117 494.58 79.8242C494.92 79.6367 495.32 79.543 495.781 79.543C497.172 79.543 497.879 80.2793 497.902 81.752V86H496.818V81.8164C496.818 81.3633 496.715 81.0254 496.508 80.8027C496.301 80.5762 495.953 80.4629 495.465 80.4629C495.062 80.4629 494.729 80.584 494.463 80.8262C494.197 81.0645 494.043 81.3867 494 81.793V86H492.91V81.8457C492.91 80.9238 492.459 80.4629 491.557 80.4629C490.846 80.4629 490.359 80.7656 490.098 81.3711V86H489.014V79.6602H490.039ZM500.568 79.6602L500.604 80.457C501.088 79.8477 501.721 79.543 502.502 79.543C503.842 79.543 504.518 80.2988 504.529 81.8105V86H503.445V81.8047C503.441 81.3477 503.336 81.0098 503.129 80.791C502.926 80.5723 502.607 80.4629 502.174 80.4629C501.822 80.4629 501.514 80.5566 501.248 80.7441C500.982 80.9316 500.775 81.1777 500.627 81.4824V86H499.543V79.6602H500.568ZM512.592 86H511.502V78.7754L509.316 79.5781V78.5938L512.422 77.4277H512.592V86Z" fill="black"/>
<rect x="523.5" y="51.5" width="72" height="62" fill="#BDBDBD" stroke="black"/>
<path d="M541.266 83.293C541.16 84.1953 540.826 84.8926 540.264 85.3848C539.705 85.873 538.961 86.1172 538.031 86.1172C537.023 86.1172 536.215 85.7559 535.605 85.0332C535 84.3105 534.697 83.3438 534.697 82.1328V81.3125C534.697 80.5195 534.838 79.8223 535.119 79.2207C535.404 78.6191 535.807 78.1582 536.326 77.8379C536.846 77.5137 537.447 77.3516 538.131 77.3516C539.037 77.3516 539.764 77.6055 540.311 78.1133C540.857 78.6172 541.176 79.3164 541.266 80.2109H540.135C540.037 79.5312 539.824 79.0391 539.496 78.7344C539.172 78.4297 538.717 78.2773 538.131 78.2773C537.412 78.2773 536.848 78.543 536.438 79.0742C536.031 79.6055 535.828 80.3613 535.828 81.3418V82.168C535.828 83.0938 536.021 83.8301 536.408 84.377C536.795 84.9238 537.336 85.1973 538.031 85.1973C538.656 85.1973 539.135 85.0566 539.467 84.7754C539.803 84.4902 540.025 83.9961 540.135 83.293H541.266ZM542.35 82.7715C542.35 82.1504 542.471 81.5918 542.713 81.0957C542.959 80.5996 543.299 80.2168 543.732 79.9473C544.17 79.6777 544.668 79.543 545.227 79.543C546.09 79.543 546.787 79.8418 547.318 80.4395C547.854 81.0371 548.121 81.832 548.121 82.8242V82.9004C548.121 83.5176 548.002 84.0723 547.764 84.5645C547.529 85.0527 547.191 85.4336 546.75 85.707C546.312 85.9805 545.809 86.1172 545.238 86.1172C544.379 86.1172 543.682 85.8184 543.146 85.2207C542.615 84.623 542.35 83.832 542.35 82.8477V82.7715ZM543.439 82.9004C543.439 83.6035 543.602 84.168 543.926 84.5938C544.254 85.0195 544.691 85.2324 545.238 85.2324C545.789 85.2324 546.227 85.0176 546.551 84.5879C546.875 84.1543 547.037 83.5488 547.037 82.7715C547.037 82.0762 546.871 81.5137 546.539 81.084C546.211 80.6504 545.773 80.4336 545.227 80.4336C544.691 80.4336 544.26 80.6465 543.932 81.0723C543.604 81.498 543.439 82.1074 543.439 82.9004ZM550.658 86H549.574V77H550.658V86ZM556.312 85.373C555.891 85.8691 555.271 86.1172 554.455 86.1172C553.779 86.1172 553.264 85.9219 552.908 85.5312C552.557 85.1367 552.379 84.5547 552.375 83.7852V79.6602H553.459V83.7559C553.459 84.7168 553.85 85.1973 554.631 85.1973C555.459 85.1973 556.01 84.8887 556.283 84.2715V79.6602H557.367V86H556.336L556.312 85.373ZM560.039 79.6602L560.068 80.3633C560.533 79.8164 561.16 79.543 561.949 79.543C562.836 79.543 563.439 79.8828 563.76 80.5625C563.971 80.2578 564.244 80.0117 564.58 79.8242C564.92 79.6367 565.32 79.543 565.781 79.543C567.172 79.543 567.879 80.2793 567.902 81.752V86H566.818V81.8164C566.818 81.3633 566.715 81.0254 566.508 80.8027C566.301 80.5762 565.953 80.4629 565.465 80.4629C565.062 80.4629 564.729 80.584 564.463 80.8262C564.197 81.0645 564.043 81.3867 564 81.793V86H562.91V81.8457C562.91 80.9238 562.459 80.4629 561.557 80.4629C560.846 80.4629 560.359 80.7656 560.098 81.3711V86H559.014V79.6602H560.039ZM570.568 79.6602L570.604 80.457C571.088 79.8477 571.721 79.543 572.502 79.543C573.842 79.543 574.518 80.2988 574.529 81.8105V86H573.445V81.8047C573.441 81.3477 573.336 81.0098 573.129 80.791C572.926 80.5723 572.607 80.4629 572.174 80.4629C571.822 80.4629 571.514 80.5566 571.248 80.7441C570.982 80.9316 570.775 81.1777 570.627 81.4824V86H569.543V79.6602H570.568ZM584.619 86H579.029V85.2207L581.982 81.9395C582.42 81.4434 582.721 81.041 582.885 80.7324C583.053 80.4199 583.137 80.0977 583.137 79.7656C583.137 79.3203 583.002 78.9551 582.732 78.6699C582.463 78.3848 582.104 78.2422 581.654 78.2422C581.115 78.2422 580.695 78.3965 580.395 78.7051C580.098 79.0098 579.949 79.4355 579.949 79.9824H578.865C578.865 79.1973 579.117 78.5625 579.621 78.0781C580.129 77.5938 580.807 77.3516 581.654 77.3516C582.447 77.3516 583.074 77.5605 583.535 77.9785C583.996 78.3926 584.227 78.9453 584.227 79.6367C584.227 80.4766 583.691 81.4766 582.621 82.6367L580.336 85.1152H584.619V86Z" fill="black"/>
<rect x="450.5" y="114.5" width="72" height="62" fill="#F0E442" stroke="black"/>
<rect x="523.5" y="114.5" width="72" height="62" fill="#56CCF2" stroke="black"/>
<path d="M553.99 149V140.469H556.779C557.705 140.469 558.4 140.66 558.865 141.043C559.334 141.426 559.568 141.992 559.568 142.742C559.568 143.141 559.455 143.494 559.229 143.803C559.002 144.107 558.693 144.344 558.303 144.512C558.764 144.641 559.127 144.887 559.393 145.25C559.662 145.609 559.797 146.039 559.797 146.539C559.797 147.305 559.549 147.906 559.053 148.344C558.557 148.781 557.855 149 556.949 149H553.99ZM555.115 145.01V148.08H556.973C557.496 148.08 557.908 147.945 558.209 147.676C558.514 147.402 558.666 147.027 558.666 146.551C558.666 145.523 558.107 145.01 556.99 145.01H555.115ZM555.115 144.107H556.814C557.307 144.107 557.699 143.984 557.992 143.738C558.289 143.492 558.438 143.158 558.438 142.736C558.438 142.268 558.301 141.928 558.027 141.717C557.754 141.502 557.338 141.395 556.779 141.395H555.115V144.107Z" fill="black"/>
<path d="M492.701 146.773H489.127L488.324 149H487.164L490.422 140.469H491.406L494.67 149H493.516L492.701 146.773ZM489.467 145.848H492.367L490.914 141.857L489.467 145.848Z" fill="black"/>
<rect x="451.5" y="177.5" width="72" height="62" fill="#F0E442" stroke="black"/>
<path d="M494.266 209.293C494.16 210.195 493.826 210.893 493.264 211.385C492.705 211.873 491.961 212.117 491.031 212.117C490.023 212.117 489.215 211.756 488.605 211.033C488 210.311 487.697 209.344 487.697 208.133V207.312C487.697 206.52 487.838 205.822 488.119 205.221C488.404 204.619 488.807 204.158 489.326 203.838C489.846 203.514 490.447 203.352 491.131 203.352C492.037 203.352 492.764 203.605 493.311 204.113C493.857 204.617 494.176 205.316 494.266 206.211H493.135C493.037 205.531 492.824 205.039 492.496 204.734C492.172 204.43 491.717 204.277 491.131 204.277C490.412 204.277 489.848 204.543 489.438 205.074C489.031 205.605 488.828 206.361 488.828 207.342V208.168C488.828 209.094 489.021 209.83 489.408 210.377C489.795 210.924 490.336 211.197 491.031 211.197C491.656 211.197 492.135 211.057 492.467 210.775C492.803 210.49 493.025 209.996 493.135 209.293H494.266Z" fill="black"/>
<rect x="523.5" y="177.5" width="72" height="62" fill="#56CCF2" stroke="black"/>
<path d="M553.99 212V203.469H556.398C557.141 203.469 557.797 203.633 558.367 203.961C558.938 204.289 559.377 204.756 559.686 205.361C559.998 205.967 560.156 206.662 560.16 207.447V207.992C560.16 208.797 560.004 209.502 559.691 210.107C559.383 210.713 558.939 211.178 558.361 211.502C557.787 211.826 557.117 211.992 556.352 212H553.99ZM555.115 204.395V211.08H556.299C557.166 211.08 557.84 210.811 558.32 210.271C558.805 209.732 559.047 208.965 559.047 207.969V207.471C559.047 206.502 558.818 205.75 558.361 205.215C557.908 204.676 557.264 204.402 556.428 204.395H555.115Z" fill="black"/>
<rect x="419.5" y="51.5" width="33" height="62" fill="#C4C4C4" stroke="black"/>
<rect x="419.5" y="114.5" width="33" height="62" fill="#C4C4C4" stroke="black"/>
<rect x="419.5" y="177.5" width="33" height="62" fill="#C4C4C4" stroke="black"/>
<path d="M438.271 212H437.182V204.775L434.996 205.578V204.594L438.102 203.428H438.271V212Z" fill="black"/>
<path d="M440.059 145.361C440.059 146.631 439.842 147.574 439.408 148.191C438.975 148.809 438.297 149.117 437.375 149.117C436.465 149.117 435.791 148.816 435.354 148.215C434.916 147.609 434.689 146.707 434.674 145.508V144.061C434.674 142.807 434.891 141.875 435.324 141.266C435.758 140.656 436.438 140.352 437.363 140.352C438.281 140.352 438.957 140.646 439.391 141.236C439.824 141.822 440.047 142.729 440.059 143.955V145.361ZM438.975 143.879C438.975 142.961 438.846 142.293 438.588 141.875C438.33 141.453 437.922 141.242 437.363 141.242C436.809 141.242 436.404 141.451 436.15 141.869C435.896 142.287 435.766 142.93 435.758 143.797V145.531C435.758 146.453 435.891 147.135 436.156 147.576C436.426 148.014 436.832 148.232 437.375 148.232C437.91 148.232 438.307 148.025 438.564 147.611C438.826 147.197 438.963 146.545 438.975 145.654V143.879Z" fill="black"/>
<path d="M480.266 40.293C480.16 41.1953 479.826 41.8926 479.264 42.3848C478.705 42.873 477.961 43.1172 477.031 43.1172C476.023 43.1172 475.215 42.7559 474.605 42.0332C474 41.3105 473.697 40.3438 473.697 39.1328V38.3125C473.697 37.5195 473.838 36.8223 474.119 36.2207C474.404 35.6191 474.807 35.1582 475.326 34.8379C475.846 34.5137 476.447 34.3516 477.131 34.3516C478.037 34.3516 478.764 34.6055 479.311 35.1133C479.857 35.6172 480.176 36.3164 480.266 37.2109H479.135C479.037 36.5312 478.824 36.0391 478.496 35.7344C478.172 35.4297 477.717 35.2773 477.131 35.2773C476.412 35.2773 475.848 35.543 475.438 36.0742C475.031 36.6055 474.828 37.3613 474.828 38.3418V39.168C474.828 40.0938 475.021 40.8301 475.408 41.377C475.795 41.9238 476.336 42.1973 477.031 42.1973C477.656 42.1973 478.135 42.0566 478.467 41.7754C478.803 41.4902 479.025 40.9961 479.135 40.293H480.266ZM481.35 39.7715C481.35 39.1504 481.471 38.5918 481.713 38.0957C481.959 37.5996 482.299 37.2168 482.732 36.9473C483.17 36.6777 483.668 36.543 484.227 36.543C485.09 36.543 485.787 36.8418 486.318 37.4395C486.854 38.0371 487.121 38.832 487.121 39.8242V39.9004C487.121 40.5176 487.002 41.0723 486.764 41.5645C486.529 42.0527 486.191 42.4336 485.75 42.707C485.312 42.9805 484.809 43.1172 484.238 43.1172C483.379 43.1172 482.682 42.8184 482.146 42.2207C481.615 41.623 481.35 40.832 481.35 39.8477V39.7715ZM482.439 39.9004C482.439 40.6035 482.602 41.168 482.926 41.5938C483.254 42.0195 483.691 42.2324 484.238 42.2324C484.789 42.2324 485.227 42.0176 485.551 41.5879C485.875 41.1543 486.037 40.5488 486.037 39.7715C486.037 39.0762 485.871 38.5137 485.539 38.084C485.211 37.6504 484.773 37.4336 484.227 37.4336C483.691 37.4336 483.26 37.6465 482.932 38.0723C482.604 38.498 482.439 39.1074 482.439 39.9004ZM489.506 36.6602L489.541 37.457C490.025 36.8477 490.658 36.543 491.439 36.543C492.779 36.543 493.455 37.2988 493.467 38.8105V43H492.383V38.8047C492.379 38.3477 492.273 38.0098 492.066 37.791C491.863 37.5723 491.545 37.4629 491.111 37.4629C490.76 37.4629 490.451 37.5566 490.186 37.7441C489.92 37.9316 489.713 38.1777 489.564 38.4824V43H488.48V36.6602H489.506ZM497.645 42.2324C498.031 42.2324 498.369 42.1152 498.658 41.8809C498.947 41.6465 499.107 41.3535 499.139 41.002H500.164C500.145 41.3652 500.02 41.7109 499.789 42.0391C499.559 42.3672 499.25 42.6289 498.863 42.8242C498.48 43.0195 498.074 43.1172 497.645 43.1172C496.781 43.1172 496.094 42.8301 495.582 42.2559C495.074 41.6777 494.82 40.8887 494.82 39.8887V39.707C494.82 39.0898 494.934 38.541 495.16 38.0605C495.387 37.5801 495.711 37.207 496.133 36.9414C496.559 36.6758 497.061 36.543 497.639 36.543C498.35 36.543 498.939 36.7559 499.408 37.1816C499.881 37.6074 500.133 38.1602 500.164 38.8398H499.139C499.107 38.4297 498.951 38.0938 498.67 37.832C498.393 37.5664 498.049 37.4336 497.639 37.4336C497.088 37.4336 496.66 37.6328 496.355 38.0312C496.055 38.4258 495.904 38.998 495.904 39.748V39.9531C495.904 40.6836 496.055 41.2461 496.355 41.6406C496.656 42.0352 497.086 42.2324 497.645 42.2324ZM505.297 43C505.234 42.875 505.184 42.6523 505.145 42.332C504.641 42.8555 504.039 43.1172 503.34 43.1172C502.715 43.1172 502.201 42.9414 501.799 42.5898C501.4 42.2344 501.201 41.7852 501.201 41.2422C501.201 40.582 501.451 40.0703 501.951 39.707C502.455 39.3398 503.162 39.1562 504.072 39.1562H505.127V38.6582C505.127 38.2793 505.014 37.9785 504.787 37.7559C504.561 37.5293 504.227 37.416 503.785 37.416C503.398 37.416 503.074 37.5137 502.812 37.709C502.551 37.9043 502.42 38.1406 502.42 38.418H501.33C501.33 38.1016 501.441 37.7969 501.664 37.5039C501.891 37.207 502.195 36.9727 502.578 36.8008C502.965 36.6289 503.389 36.543 503.85 36.543C504.58 36.543 505.152 36.7266 505.566 37.0938C505.98 37.457 506.195 37.959 506.211 38.5996V41.5176C506.211 42.0996 506.285 42.5625 506.434 42.9062V43H505.297ZM503.498 42.1738C503.838 42.1738 504.16 42.0859 504.465 41.9102C504.77 41.7344 504.99 41.5059 505.127 41.2246V39.9238H504.277C502.949 39.9238 502.285 40.3125 502.285 41.0898C502.285 41.4297 502.398 41.6953 502.625 41.8867C502.852 42.0781 503.143 42.1738 503.498 42.1738ZM509.381 35.125V36.6602H510.564V37.498H509.381V41.4297C509.381 41.6836 509.434 41.875 509.539 42.0039C509.645 42.1289 509.824 42.1914 510.078 42.1914C510.203 42.1914 510.375 42.168 510.594 42.1211V43C510.309 43.0781 510.031 43.1172 509.762 43.1172C509.277 43.1172 508.912 42.9707 508.666 42.6777C508.42 42.3848 508.297 41.9688 508.297 41.4297V37.498H507.143V36.6602H508.297V35.125H509.381ZM514.467 43.1172C513.607 43.1172 512.908 42.8359 512.369 42.2734C511.83 41.707 511.561 40.9512 511.561 40.0059V39.8066C511.561 39.1777 511.68 38.6172 511.918 38.125C512.16 37.6289 512.496 37.2422 512.926 36.9648C513.359 36.6836 513.828 36.543 514.332 36.543C515.156 36.543 515.797 36.8145 516.254 37.3574C516.711 37.9004 516.939 38.6777 516.939 39.6895V40.1406H512.645C512.66 40.7656 512.842 41.2715 513.189 41.6582C513.541 42.041 513.986 42.2324 514.525 42.2324C514.908 42.2324 515.232 42.1543 515.498 41.998C515.764 41.8418 515.996 41.6348 516.195 41.377L516.857 41.8926C516.326 42.709 515.529 43.1172 514.467 43.1172ZM514.332 37.4336C513.895 37.4336 513.527 37.5938 513.23 37.9141C512.934 38.2305 512.75 38.6758 512.68 39.25H515.855V39.168C515.824 38.6172 515.676 38.1914 515.41 37.8906C515.145 37.5859 514.785 37.4336 514.332 37.4336ZM519.225 36.6602L519.26 37.457C519.744 36.8477 520.377 36.543 521.158 36.543C522.498 36.543 523.174 37.2988 523.186 38.8105V43H522.102V38.8047C522.098 38.3477 521.992 38.0098 521.785 37.791C521.582 37.5723 521.264 37.4629 520.83 37.4629C520.479 37.4629 520.17 37.5566 519.904 37.7441C519.639 37.9316 519.432 38.1777 519.283 38.4824V43H518.199V36.6602H519.225ZM528.734 43C528.672 42.875 528.621 42.6523 528.582 42.332C528.078 42.8555 527.477 43.1172 526.777 43.1172C526.152 43.1172 525.639 42.9414 525.236 42.5898C524.838 42.2344 524.639 41.7852 524.639 41.2422C524.639 40.582 524.889 40.0703 525.389 39.707C525.893 39.3398 526.6 39.1562 527.51 39.1562H528.564V38.6582C528.564 38.2793 528.451 37.9785 528.225 37.7559C527.998 37.5293 527.664 37.416 527.223 37.416C526.836 37.416 526.512 37.5137 526.25 37.709C525.988 37.9043 525.857 38.1406 525.857 38.418H524.768C524.768 38.1016 524.879 37.7969 525.102 37.5039C525.328 37.207 525.633 36.9727 526.016 36.8008C526.402 36.6289 526.826 36.543 527.287 36.543C528.018 36.543 528.59 36.7266 529.004 37.0938C529.418 37.457 529.633 37.959 529.648 38.5996V41.5176C529.648 42.0996 529.723 42.5625 529.871 42.9062V43H528.734ZM526.936 42.1738C527.275 42.1738 527.598 42.0859 527.902 41.9102C528.207 41.7344 528.428 41.5059 528.564 41.2246V39.9238H527.715C526.387 39.9238 525.723 40.3125 525.723 41.0898C525.723 41.4297 525.836 41.6953 526.062 41.8867C526.289 42.0781 526.58 42.1738 526.936 42.1738ZM532.818 35.125V36.6602H534.002V37.498H532.818V41.4297C532.818 41.6836 532.871 41.875 532.977 42.0039C533.082 42.1289 533.262 42.1914 533.516 42.1914C533.641 42.1914 533.812 42.168 534.031 42.1211V43C533.746 43.0781 533.469 43.1172 533.199 43.1172C532.715 43.1172 532.35 42.9707 532.104 42.6777C531.857 42.3848 531.734 41.9688 531.734 41.4297V37.498H530.58V36.6602H531.734V35.125H532.818ZM537.904 43.1172C537.045 43.1172 536.346 42.8359 535.807 42.2734C535.268 41.707 534.998 40.9512 534.998 40.0059V39.8066C534.998 39.1777 535.117 38.6172 535.355 38.125C535.598 37.6289 535.934 37.2422 536.363 36.9648C536.797 36.6836 537.266 36.543 537.77 36.543C538.594 36.543 539.234 36.8145 539.691 37.3574C540.148 37.9004 540.377 38.6777 540.377 39.6895V40.1406H536.082C536.098 40.7656 536.279 41.2715 536.627 41.6582C536.979 42.041 537.424 42.2324 537.963 42.2324C538.346 42.2324 538.67 42.1543 538.936 41.998C539.201 41.8418 539.434 41.6348 539.633 41.377L540.295 41.8926C539.764 42.709 538.967 43.1172 537.904 43.1172ZM537.77 37.4336C537.332 37.4336 536.965 37.5938 536.668 37.9141C536.371 38.2305 536.188 38.6758 536.117 39.25H539.293V39.168C539.262 38.6172 539.113 38.1914 538.848 37.8906C538.582 37.5859 538.223 37.4336 537.77 37.4336ZM541.373 39.7773C541.373 38.8047 541.604 38.0234 542.064 37.4336C542.525 36.8398 543.129 36.543 543.875 36.543C544.617 36.543 545.205 36.7969 545.639 37.3047V34H546.723V43H545.727L545.674 42.3203C545.24 42.8516 544.637 43.1172 543.863 43.1172C543.129 43.1172 542.529 42.8164 542.064 42.2148C541.604 41.6133 541.373 40.8281 541.373 39.8594V39.7773ZM542.457 39.9004C542.457 40.6191 542.605 41.1816 542.902 41.5879C543.199 41.9941 543.609 42.1973 544.133 42.1973C544.82 42.1973 545.322 41.8887 545.639 41.2715V38.3594C545.314 37.7617 544.816 37.4629 544.145 37.4629C543.613 37.4629 543.199 37.668 542.902 38.0781C542.605 38.4883 542.457 39.0957 542.457 39.9004Z" fill="black"/>
<rect width="183" height="232" transform="translate(9 28)" fill="white"/>
<rect x="96.5" y="48.5" width="72" height="62" fill="#BDBDBD" stroke="black"/>
<rect x="96.5" y="111.5" width="72" height="62" fill="#F0E442" stroke="black"/>
<path d="M107.99 40V31.4688H110.398C111.141 31.4688 111.797 31.6328 112.367 31.9609C112.938 32.2891 113.377 32.7559 113.686 33.3613C113.998 33.9668 114.156 34.6621 114.16 35.4473V35.9922C114.16 36.7969 114.004 37.502 113.691 38.1074C113.383 38.7129 112.939 39.1777 112.361 39.502C111.787 39.8262 111.117 39.9922 110.352 40H107.99ZM109.115 32.3945V39.0801H110.299C111.166 39.0801 111.84 38.8105 112.32 38.2715C112.805 37.7324 113.047 36.9648 113.047 35.9688V35.4707C113.047 34.502 112.818 33.75 112.361 33.2148C111.908 32.6758 111.264 32.4023 110.428 32.3945H109.115ZM116.229 40V34.498H115.227V33.6602H116.229V33.0098C116.229 32.3301 116.41 31.8047 116.773 31.4336C117.137 31.0625 117.65 30.877 118.314 30.877C118.564 30.877 118.812 30.9102 119.059 30.9766L119 31.8555C118.816 31.8203 118.621 31.8027 118.414 31.8027C118.062 31.8027 117.791 31.9062 117.6 32.1133C117.408 32.3164 117.312 32.6094 117.312 32.9922V33.6602H118.666V34.498H117.312V40H116.229ZM123.318 40H122.229V32.7754L120.043 33.5781V32.5938L123.148 31.4277H123.318V40Z" fill="black"/>
<path d="M113.266 80.293C113.16 81.1953 112.826 81.8926 112.264 82.3848C111.705 82.873 110.961 83.1172 110.031 83.1172C109.023 83.1172 108.215 82.7559 107.605 82.0332C107 81.3105 106.697 80.3438 106.697 79.1328V78.3125C106.697 77.5195 106.838 76.8223 107.119 76.2207C107.404 75.6191 107.807 75.1582 108.326 74.8379C108.846 74.5137 109.447 74.3516 110.131 74.3516C111.037 74.3516 111.764 74.6055 112.311 75.1133C112.857 75.6172 113.176 76.3164 113.266 77.2109H112.135C112.037 76.5312 111.824 76.0391 111.496 75.7344C111.172 75.4297 110.717 75.2773 110.131 75.2773C109.412 75.2773 108.848 75.543 108.438 76.0742C108.031 76.6055 107.828 77.3613 107.828 78.3418V79.168C107.828 80.0938 108.021 80.8301 108.408 81.377C108.795 81.9238 109.336 82.1973 110.031 82.1973C110.656 82.1973 111.135 82.0566 111.467 81.7754C111.803 81.4902 112.025 80.9961 112.135 80.293H113.266ZM114.35 79.7715C114.35 79.1504 114.471 78.5918 114.713 78.0957C114.959 77.5996 115.299 77.2168 115.732 76.9473C116.17 76.6777 116.668 76.543 117.227 76.543C118.09 76.543 118.787 76.8418 119.318 77.4395C119.854 78.0371 120.121 78.832 120.121 79.8242V79.9004C120.121 80.5176 120.002 81.0723 119.764 81.5645C119.529 82.0527 119.191 82.4336 118.75 82.707C118.312 82.9805 117.809 83.1172 117.238 83.1172C116.379 83.1172 115.682 82.8184 115.146 82.2207C114.615 81.623 114.35 80.832 114.35 79.8477V79.7715ZM115.439 79.9004C115.439 80.6035 115.602 81.168 115.926 81.5938C116.254 82.0195 116.691 82.2324 117.238 82.2324C117.789 82.2324 118.227 82.0176 118.551 81.5879C118.875 81.1543 119.037 80.5488 119.037 79.7715C119.037 79.0762 118.871 78.5137 118.539 78.084C118.211 77.6504 117.773 77.4336 117.227 77.4336C116.691 77.4336 116.26 77.6465 115.932 78.0723C115.604 78.498 115.439 79.1074 115.439 79.9004ZM122.658 83H121.574V74H122.658V83ZM128.312 82.373C127.891 82.8691 127.271 83.1172 126.455 83.1172C125.779 83.1172 125.264 82.9219 124.908 82.5312C124.557 82.1367 124.379 81.5547 124.375 80.7852V76.6602H125.459V80.7559C125.459 81.7168 125.85 82.1973 126.631 82.1973C127.459 82.1973 128.01 81.8887 128.283 81.2715V76.6602H129.367V83H128.336L128.312 82.373ZM132.039 76.6602L132.068 77.3633C132.533 76.8164 133.16 76.543 133.949 76.543C134.836 76.543 135.439 76.8828 135.76 77.5625C135.971 77.2578 136.244 77.0117 136.58 76.8242C136.92 76.6367 137.32 76.543 137.781 76.543C139.172 76.543 139.879 77.2793 139.902 78.752V83H138.818V78.8164C138.818 78.3633 138.715 78.0254 138.508 77.8027C138.301 77.5762 137.953 77.4629 137.465 77.4629C137.062 77.4629 136.729 77.584 136.463 77.8262C136.197 78.0645 136.043 78.3867 136 78.793V83H134.91V78.8457C134.91 77.9238 134.459 77.4629 133.557 77.4629C132.846 77.4629 132.359 77.7656 132.098 78.3711V83H131.014V76.6602H132.039ZM142.568 76.6602L142.604 77.457C143.088 76.8477 143.721 76.543 144.502 76.543C145.842 76.543 146.518 77.2988 146.529 78.8105V83H145.445V78.8047C145.441 78.3477 145.336 78.0098 145.129 77.791C144.926 77.5723 144.607 77.4629 144.174 77.4629C143.822 77.4629 143.514 77.5566 143.248 77.7441C142.982 77.9316 142.775 78.1777 142.627 78.4824V83H141.543V76.6602H142.568ZM154.592 83H153.502V75.7754L151.316 76.5781V75.5938L154.422 74.4277H154.592V83Z" fill="black"/>
<path d="M131.701 143.773H128.127L127.324 146H126.164L129.422 137.469H130.406L133.67 146H132.516L131.701 143.773ZM128.467 142.848H131.367L129.914 138.857L128.467 142.848Z" fill="black"/>
<path d="M115.814 207.506L118.252 200.469H119.482L116.318 209H115.322L112.164 200.469H113.389L115.814 207.506ZM124.105 209C124.043 208.875 123.992 208.652 123.953 208.332C123.449 208.855 122.848 209.117 122.148 209.117C121.523 209.117 121.01 208.941 120.607 208.59C120.209 208.234 120.01 207.785 120.01 207.242C120.01 206.582 120.26 206.07 120.76 205.707C121.264 205.34 121.971 205.156 122.881 205.156H123.936V204.658C123.936 204.279 123.822 203.979 123.596 203.756C123.369 203.529 123.035 203.416 122.594 203.416C122.207 203.416 121.883 203.514 121.621 203.709C121.359 203.904 121.229 204.141 121.229 204.418H120.139C120.139 204.102 120.25 203.797 120.473 203.504C120.699 203.207 121.004 202.973 121.387 202.801C121.773 202.629 122.197 202.543 122.658 202.543C123.389 202.543 123.961 202.727 124.375 203.094C124.789 203.457 125.004 203.959 125.02 204.6V207.518C125.02 208.1 125.094 208.562 125.242 208.906V209H124.105ZM122.307 208.174C122.646 208.174 122.969 208.086 123.273 207.91C123.578 207.734 123.799 207.506 123.936 207.225V205.924H123.086C121.758 205.924 121.094 206.312 121.094 207.09C121.094 207.43 121.207 207.695 121.434 207.887C121.66 208.078 121.951 208.174 122.307 208.174ZM127.896 209H126.812V200H127.896V209ZM133.551 208.373C133.129 208.869 132.51 209.117 131.693 209.117C131.018 209.117 130.502 208.922 130.146 208.531C129.795 208.137 129.617 207.555 129.613 206.785V202.66H130.697V206.756C130.697 207.717 131.088 208.197 131.869 208.197C132.697 208.197 133.248 207.889 133.521 207.271V202.66H134.605V209H133.574L133.551 208.373ZM138.889 209.117C138.029 209.117 137.33 208.836 136.791 208.273C136.252 207.707 135.982 206.951 135.982 206.006V205.807C135.982 205.178 136.102 204.617 136.34 204.125C136.582 203.629 136.918 203.242 137.348 202.965C137.781 202.684 138.25 202.543 138.754 202.543C139.578 202.543 140.219 202.814 140.676 203.357C141.133 203.9 141.361 204.678 141.361 205.689V206.141H137.066C137.082 206.766 137.264 207.271 137.611 207.658C137.963 208.041 138.408 208.232 138.947 208.232C139.33 208.232 139.654 208.154 139.92 207.998C140.186 207.842 140.418 207.635 140.617 207.377L141.279 207.893C140.748 208.709 139.951 209.117 138.889 209.117ZM138.754 203.434C138.316 203.434 137.949 203.594 137.652 203.914C137.355 204.23 137.172 204.676 137.102 205.25H140.277V205.168C140.246 204.617 140.098 204.191 139.832 203.891C139.566 203.586 139.207 203.434 138.754 203.434ZM152.043 206.293C151.938 207.195 151.604 207.893 151.041 208.385C150.482 208.873 149.738 209.117 148.809 209.117C147.801 209.117 146.992 208.756 146.383 208.033C145.777 207.311 145.475 206.344 145.475 205.133V204.312C145.475 203.52 145.615 202.822 145.896 202.221C146.182 201.619 146.584 201.158 147.104 200.838C147.623 200.514 148.225 200.352 148.908 200.352C149.814 200.352 150.541 200.605 151.088 201.113C151.635 201.617 151.953 202.316 152.043 203.211H150.912C150.814 202.531 150.602 202.039 150.273 201.734C149.949 201.43 149.494 201.277 148.908 201.277C148.189 201.277 147.625 201.543 147.215 202.074C146.809 202.605 146.605 203.361 146.605 204.342V205.168C146.605 206.094 146.799 206.83 147.186 207.377C147.572 207.924 148.113 208.197 148.809 208.197C149.434 208.197 149.912 208.057 150.244 207.775C150.58 207.49 150.803 206.996 150.912 206.293H152.043Z" fill="black"/>
<rect x="62.5" y="111.5" width="33" height="62" fill="#C4C4C4" stroke="black"/>
<path d="M81.0586 142.361C81.0586 143.631 80.8418 144.574 80.4082 145.191C79.9746 145.809 79.2969 146.117 78.375 146.117C77.4648 146.117 76.791 145.816 76.3535 145.215C75.916 144.609 75.6895 143.707 75.6738 142.508V141.061C75.6738 139.807 75.8906 138.875 76.3242 138.266C76.7578 137.656 77.4375 137.352 78.3633 137.352C79.2812 137.352 79.957 137.646 80.3906 138.236C80.8242 138.822 81.0469 139.729 81.0586 140.955V142.361ZM79.9746 140.879C79.9746 139.961 79.8457 139.293 79.5879 138.875C79.3301 138.453 78.9219 138.242 78.3633 138.242C77.8086 138.242 77.4043 138.451 77.1504 138.869C76.8965 139.287 76.7656 139.93 76.7578 140.797V142.531C76.7578 143.453 76.8906 144.135 77.1562 144.576C77.4258 145.014 77.832 145.232 78.375 145.232C78.9102 145.232 79.3066 145.025 79.5645 144.611C79.8262 144.197 79.9629 143.545 79.9746 142.654V140.879Z" fill="black"/>
<rect x="62.5" y="48.5" width="33" height="62" fill="#C4C4C4" stroke="black"/>
<rect x="96.5" y="174.5" width="72" height="62" fill="#F0E442" stroke="black"/>
<rect x="62.5" y="174.5" width="33" height="62" fill="#C4C4C4" stroke="black"/>
<path d="M79.2715 209H78.1816V201.775L75.9961 202.578V201.594L79.1016 200.428H79.2715V209Z" fill="black"/>
<path d="M133.266 206.293C133.16 207.195 132.826 207.893 132.264 208.385C131.705 208.873 130.961 209.117 130.031 209.117C129.023 209.117 128.215 208.756 127.605 208.033C127 207.311 126.697 206.344 126.697 205.133V204.312C126.697 203.52 126.838 202.822 127.119 202.221C127.404 201.619 127.807 201.158 128.326 200.838C128.846 200.514 129.447 200.352 130.131 200.352C131.037 200.352 131.764 200.605 132.311 201.113C132.857 201.617 133.176 202.316 133.266 203.211H132.135C132.037 202.531 131.824 202.039 131.496 201.734C131.172 201.43 130.717 201.277 130.131 201.277C129.412 201.277 128.848 201.543 128.438 202.074C128.031 202.605 127.828 203.361 127.828 204.342V205.168C127.828 206.094 128.021 206.83 128.408 207.377C128.795 207.924 129.336 208.197 130.031 208.197C130.656 208.197 131.135 208.057 131.467 207.775C131.803 207.49 132.025 206.996 132.135 206.293H133.266Z" fill="black"/>
<defs>
<clipPath id="clip0">
<rect width="133" height="219" fill="white" transform="translate(226 34)"/>
</clipPath>
</defs>
</svg>
