<svg width="443" height="90" viewBox="0 0 443 90" version="1.1" xmlns="http://www.w3.org/2000/svg" xmlns:xlink="http://www.w3.org/1999/xlink">
<g id="Canvas" fill="none">
<g id="equation_to_matrix">
<g id="Canvas_2">
<g id="Group">
<g id="y = 1000 + 30x y = 100 + 50x">
<g id="Vector">
<path d="M 3.68751 9.41405L 5.65625 3.07813L 7.20312 3.07813L 3.80469 12.836C 3.27865 14.2422 2.44271 14.9454 1.29688 14.9454L 1.02343 14.9219L 0.484375 14.8204L 0.484375 13.6485L 0.875005 13.6796C 1.36459 13.6796 1.74479 13.5808 2.01562 13.3829C 2.29167 13.1849 2.51822 12.823 2.69531 12.2969L 3.01562 11.4375L 0 3.07813L 1.57812 3.07813L 3.68751 9.41405ZM 23.0469 5.17187L 16.5312 5.17187L 16.5312 3.91406L 23.0469 3.91406L 23.0469 5.17187ZM 23.0469 8.41405L 16.5312 8.41405L 16.5312 7.16405L 23.0469 7.16405L 23.0469 8.41405ZM 37.7578 11.5312L 36.3047 11.5312L 36.3047 1.89844L 33.3906 2.96875L 33.3906 1.65625L 37.5312 0.10156L 37.7578 0.10156L 37.7578 11.5312ZM 49.125 6.67965C 49.125 8.37235 48.8359 9.63025 48.2578 10.4531C 47.6797 11.276 46.776 11.6875 45.5469 11.6875C 44.3333 11.6875 43.4349 11.2865 42.8515 10.4844C 42.2682 9.67705 41.9661 8.47395 41.9453 6.87505L 41.9453 4.94531C 41.9453 3.27344 42.2343 2.03125 42.8125 1.21875C 43.3906 0.40625 44.2969 0 45.5312 0C 46.7552 0 47.6562 0.39323 48.2343 1.17969C 48.8125 1.96094 49.1093 3.16927 49.125 4.80469L 49.125 6.67965ZM 47.6797 4.70313C 47.6797 3.47917 47.5078 2.58854 47.164 2.03125C 46.8203 1.46875 46.276 1.1875 45.5312 1.1875C 44.7916 1.1875 44.2526 1.46615 43.914 2.02344C 43.5755 2.58073 43.401 3.4375 43.3906 4.59375L 43.3906 6.90625C 43.3906 8.13545 43.5677 9.04425 43.9219 9.63285C 44.2812 10.2161 44.8229 10.5078 45.5469 10.5078C 46.2604 10.5078 46.789 10.2318 47.1328 9.67965C 47.4817 9.12765 47.664 8.25785 47.6797 7.07035L 47.6797 4.70313ZM 58.1093 6.67965C 58.1093 8.37235 57.8203 9.63025 57.2422 10.4531C 56.664 11.276 55.7604 11.6875 54.5312 11.6875C 53.3177 11.6875 52.4192 11.2865 51.8359 10.4844C 51.2526 9.67705 50.9505 8.47395 50.9297 6.87505L 50.9297 4.94531C 50.9297 3.27344 51.2187 2.03125 51.7969 1.21875C 52.375 0.40625 53.2812 0 54.5156 0C 55.7396 0 56.6406 0.39323 57.2187 1.17969C 57.7969 1.96094 58.0937 3.16927 58.1093 4.80469L 58.1093 6.67965ZM 56.664 4.70313C 56.664 3.47917 56.4922 2.58854 56.1484 2.03125C 55.8047 1.46875 55.2604 1.1875 54.5156 1.1875C 53.776 1.1875 53.237 1.46615 52.8984 2.02344C 52.5599 2.58073 52.3854 3.4375 52.375 4.59375L 52.375 6.90625C 52.375 8.13545 52.5521 9.04425 52.9062 9.63285C 53.2656 10.2161 53.8073 10.5078 54.5312 10.5078C 55.2448 10.5078 55.7734 10.2318 56.1172 9.67965C 56.4661 9.12765 56.6484 8.25785 56.664 7.07035L 56.664 4.70313ZM 67.0937 6.67965C 67.0937 8.37235 66.8047 9.63025 66.2265 10.4531C 65.6484 11.276 64.7448 11.6875 63.5156 11.6875C 62.3021 11.6875 61.4036 11.2865 60.8203 10.4844C 60.237 9.67705 59.9349 8.47395 59.914 6.87505L 59.914 4.94531C 59.914 3.27344 60.2031 2.03125 60.7812 1.21875C 61.3593 0.40625 62.2656 0 63.5 0C 64.7239 0 65.625 0.39323 66.2031 1.17969C 66.7812 1.96094 67.0781 3.16927 67.0937 4.80469L 67.0937 6.67965ZM 65.6484 4.70313C 65.6484 3.47917 65.4765 2.58854 65.1328 2.03125C 64.789 1.46875 64.2448 1.1875 63.5 1.1875C 62.7604 1.1875 62.2213 1.46615 61.8828 2.02344C 61.5442 2.58073 61.3698 3.4375 61.3593 4.59375L 61.3593 6.90625C 61.3593 8.13545 61.5364 9.04425 61.8906 9.63285C 62.25 10.2161 62.7916 10.5078 63.5156 10.5078C 64.2291 10.5078 64.7578 10.2318 65.1015 9.67965C 65.4505 9.12765 65.6328 8.25785 65.6484 7.07035L 65.6484 4.70313ZM 77.2031 5.42969L 80.375 5.42969L 80.375 6.79685L 77.2031 6.79685L 77.2031 10.3906L 75.75 10.3906L 75.75 6.79685L 72.5781 6.79685L 72.5781 5.42969L 75.75 5.42969L 75.75 2.10937L 77.2031 2.10937L 77.2031 5.42969ZM 88.0625 5.14063L 89.1484 5.14063C 89.8307 5.13021 90.3672 4.95052 90.7578 4.60156C 91.1484 4.2526 91.3437 3.78125 91.3437 3.1875C 91.3437 1.85417 90.6797 1.1875 89.3515 1.1875C 88.7265 1.1875 88.2265 1.36719 87.8515 1.72656C 87.4817 2.08073 87.2969 2.55208 87.2969 3.14063L 85.8515 3.14063C 85.8515 2.23958 86.1797 1.49219 86.8359 0.89844C 87.4974 0.29948 88.3359 0 89.3515 0C 90.4245 0 91.2656 0.28385 91.875 0.85156C 92.4843 1.41927 92.789 2.20833 92.789 3.21875C 92.789 3.71354 92.6276 4.19271 92.3047 4.65625C 91.987 5.11979 91.5521 5.46615 91 5.69531C 91.625 5.89323 92.1067 6.22135 92.4453 6.67965C 92.789 7.13805 92.9609 7.69795 92.9609 8.35935C 92.9609 9.38025 92.6276 10.1902 91.9609 10.7891C 91.2942 11.3881 90.4271 11.6875 89.3593 11.6875C 88.2916 11.6875 87.4219 11.3984 86.75 10.8203C 86.0833 10.2421 85.75 9.47915 85.75 8.53125L 87.2031 8.53125C 87.2031 9.13025 87.3984 9.60935 87.789 9.96875C 88.1797 10.3281 88.7031 10.5078 89.3593 10.5078C 90.0573 10.5078 90.5911 10.3256 90.9609 9.96095C 91.3307 9.59635 91.5156 9.07295 91.5156 8.39065C 91.5156 7.72915 91.3125 7.22135 90.9062 6.86715C 90.5 6.51302 89.914 6.33073 89.1484 6.32031L 88.0625 6.32031L 88.0625 5.14063ZM 102.078 6.67965C 102.078 8.37235 101.789 9.63025 101.211 10.4531C 100.633 11.276 99.7291 11.6875 98.5 11.6875C 97.2864 11.6875 96.388 11.2865 95.8047 10.4844C 95.2213 9.67705 94.9192 8.47395 94.8984 6.87505L 94.8984 4.94531C 94.8984 3.27344 95.1875 2.03125 95.7656 1.21875C 96.3437 0.40625 97.25 0 98.4843 0C 99.7083 0 100.609 0.39323 101.187 1.17969C 101.766 1.96094 102.062 3.16927 102.078 4.80469L 102.078 6.67965ZM 100.633 4.70313C 100.633 3.47917 100.461 2.58854 100.117 2.03125C 99.7734 1.46875 99.2291 1.1875 98.4843 1.1875C 97.7448 1.1875 97.2057 1.46615 96.8672 2.02344C 96.5286 2.58073 96.3541 3.4375 96.3437 4.59375L 96.3437 6.90625C 96.3437 8.13545 96.5208 9.04425 96.875 9.63285C 97.2343 10.2161 97.776 10.5078 98.5 10.5078C 99.2135 10.5078 99.7422 10.2318 100.086 9.67965C 100.435 9.12765 100.617 8.25785 100.633 7.07035L 100.633 4.70313ZM 106.914 6.16406L 108.789 3.07813L 110.476 3.07813L 107.711 7.25785L 110.562 11.5312L 108.89 11.5312L 106.937 8.36715L 104.984 11.5312L 103.305 11.5312L 106.156 7.25785L 103.39 3.07813L 105.062 3.07813L 106.914 6.16406ZM 3.68751 28.414L 5.65625 22.0781L 7.20312 22.0781L 3.80469 31.8359C 3.27865 33.2421 2.44271 33.9454 1.29688 33.9454L 1.02343 33.9218L 0.484375 33.8204L 0.484375 32.6484L 0.875005 32.6796C 1.36459 32.6796 1.74479 32.5807 2.01562 32.3829C 2.29167 32.1848 2.51822 31.8229 2.69531 31.2968L 3.01562 30.4375L 0 22.0781L 1.57812 22.0781L 3.68751 28.414ZM 23.0469 24.1719L 16.5312 24.1719L 16.5312 22.914L 23.0469 22.914L 23.0469 24.1719ZM 23.0469 27.414L 16.5312 27.414L 16.5312 26.164L 23.0469 26.164L 23.0469 27.414ZM 37.7578 30.5312L 36.3047 30.5312L 36.3047 20.8985L 33.3906 21.9688L 33.3906 20.6562L 37.5312 19.1015L 37.7578 19.1015L 37.7578 30.5312ZM 49.125 25.6796C 49.125 27.3723 48.8359 28.6303 48.2578 29.4532C 47.6797 30.2761 46.776 30.6875 45.5469 30.6875C 44.3333 30.6875 43.4349 30.2864 42.8515 29.4843C 42.2682 28.677 41.9661 27.4739 41.9453 25.875L 41.9453 23.9454C 41.9453 22.2735 42.2343 21.0312 42.8125 20.2188C 43.3906 19.4062 44.2969 19 45.5312 19C 46.7552 19 47.6562 19.3932 48.2343 20.1796C 48.8125 20.9609 49.1093 22.1692 49.125 23.8046L 49.125 25.6796ZM 47.6797 23.7031C 47.6797 22.4791 47.5078 21.5886 47.164 21.0312C 46.8203 20.4688 46.276 20.1875 45.5312 20.1875C 44.7916 20.1875 44.2526 20.4662 43.914 21.0235C 43.5755 21.5808 43.401 22.4375 43.3906 23.5938L 43.3906 25.9062C 43.3906 27.1355 43.5677 28.0443 43.9219 28.6329C 44.2812 29.2162 44.8229 29.5079 45.5469 29.5079C 46.2604 29.5079 46.789 29.2317 47.1328 28.6796C 47.4817 28.1276 47.664 27.2579 47.6797 26.0704L 47.6797 23.7031ZM 58.1093 25.6796C 58.1093 27.3723 57.8203 28.6303 57.2422 29.4532C 56.664 30.2761 55.7604 30.6875 54.5312 30.6875C 53.3177 30.6875 52.4192 30.2864 51.8359 29.4843C 51.2526 28.677 50.9505 27.4739 50.9297 25.875L 50.9297 23.9454C 50.9297 22.2735 51.2187 21.0312 51.7969 20.2188C 52.375 19.4062 53.2812 19 54.5156 19C 55.7396 19 56.6406 19.3932 57.2187 20.1796C 57.7969 20.9609 58.0937 22.1692 58.1093 23.8046L 58.1093 25.6796ZM 56.664 23.7031C 56.664 22.4791 56.4922 21.5886 56.1484 21.0312C 55.8047 20.4688 55.2604 20.1875 54.5156 20.1875C 53.776 20.1875 53.237 20.4662 52.8984 21.0235C 52.5599 21.5808 52.3854 22.4375 52.375 23.5938L 52.375 25.9062C 52.375 27.1355 52.5521 28.0443 52.9062 28.6329C 53.2656 29.2162 53.8073 29.5079 54.5312 29.5079C 55.2448 29.5079 55.7734 29.2317 56.1172 28.6796C 56.4661 28.1276 56.6484 27.2579 56.664 26.0704L 56.664 23.7031ZM 68.2187 24.4296L 71.3906 24.4296L 71.3906 25.7969L 68.2187 25.7969L 68.2187 29.3907L 66.7656 29.3907L 66.7656 25.7969L 63.5937 25.7969L 63.5937 24.4296L 66.7656 24.4296L 66.7656 21.1094L 68.2187 21.1094L 68.2187 24.4296ZM 77.6406 24.8281L 78.2187 19.1562L 84.0469 19.1562L 84.0469 20.4921L 79.4453 20.4921L 79.1015 23.5938C 79.6588 23.2656 80.2916 23.1015 81 23.1015C 82.0364 23.1015 82.8593 23.4454 83.4687 24.1329C 84.0781 24.8152 84.3828 25.7395 84.3828 26.9062C 84.3828 28.0781 84.0651 29.0026 83.4297 29.6796C 82.7995 30.3515 81.9166 30.6875 80.7812 30.6875C 79.776 30.6875 78.9557 30.4089 78.3203 29.8516C 77.6849 29.2943 77.3229 28.5234 77.2343 27.539L 78.6015 27.539C 78.6901 28.1901 78.9219 28.6823 79.2969 29.0157C 79.6719 29.3438 80.1666 29.5079 80.7812 29.5079C 81.4531 29.5079 81.9791 29.2787 82.3593 28.8204C 82.7448 28.3619 82.9375 27.7292 82.9375 26.9219C 82.9375 26.1614 82.7291 25.552 82.3125 25.0938C 81.901 24.6303 81.3515 24.3985 80.664 24.3985C 80.0338 24.3985 79.539 24.5365 79.1797 24.8125L 78.7969 25.125L 77.6406 24.8281ZM 93.0937 25.6796C 93.0937 27.3723 92.8047 28.6303 92.2265 29.4532C 91.6484 30.2761 90.7448 30.6875 89.5156 30.6875C 88.3021 30.6875 87.4036 30.2864 86.8203 29.4843C 86.237 28.677 85.9349 27.4739 85.914 25.875L 85.914 23.9454C 85.914 22.2735 86.2031 21.0312 86.7812 20.2188C 87.3593 19.4062 88.2656 19 89.5 19C 90.7239 19 91.625 19.3932 92.2031 20.1796C 92.7812 20.9609 93.0781 22.1692 93.0937 23.8046L 93.0937 25.6796ZM 91.6484 23.7031C 91.6484 22.4791 91.4765 21.5886 91.1328 21.0312C 90.789 20.4688 90.2448 20.1875 89.5 20.1875C 88.7604 20.1875 88.2213 20.4662 87.8828 21.0235C 87.5442 21.5808 87.3698 22.4375 87.3593 23.5938L 87.3593 25.9062C 87.3593 27.1355 87.5364 28.0443 87.8906 28.6329C 88.25 29.2162 88.7916 29.5079 89.5156 29.5079C 90.2291 29.5079 90.7578 29.2317 91.1015 28.6796C 91.4505 28.1276 91.6328 27.2579 91.6484 26.0704L 91.6484 23.7031ZM 97.9297 25.164L 99.8047 22.0781L 101.492 22.0781L 98.7265 26.2579L 101.578 30.5312L 99.9061 30.5312L 97.9531 27.3671L 96 30.5312L 94.3203 30.5312L 97.1719 26.2579L 94.4062 22.0781L 96.0781 22.0781L 97.9297 25.164Z" transform="translate(0 51.4688)" fill="#333333"/>
</g>
</g>
<g id="30x   y = 1000 50x   y = 100">
<g id="Vector_2">
<path d="M 2.31251 5.14063L 3.39844 5.14063C 4.08073 5.13021 4.61718 4.95052 5.00781 4.60156C 5.39843 4.2526 5.59375 3.78125 5.59375 3.1875C 5.59375 1.85417 4.92968 1.1875 3.60156 1.1875C 2.97656 1.1875 2.47656 1.36719 2.10156 1.72656C 1.73177 2.08073 1.54688 2.55208 1.54688 3.14063L 0.101563 3.14063C 0.101563 2.23958 0.429685 1.49219 1.08593 0.89844C 1.7474 0.29948 2.58593 0 3.60156 0C 4.67447 0 5.51562 0.28385 6.125 0.85156C 6.73438 1.41927 7.03906 2.20833 7.03906 3.21875C 7.03906 3.71354 6.8776 4.19271 6.55469 4.65625C 6.23698 5.11979 5.80208 5.46615 5.25 5.69531C 5.875 5.89323 6.35677 6.22135 6.69531 6.67965C 7.03906 7.13805 7.21094 7.69795 7.21094 8.35935C 7.21094 9.38025 6.8776 10.1902 6.21094 10.7891C 5.54428 11.3881 4.67708 11.6875 3.60938 11.6875C 2.54167 11.6875 1.67188 11.3984 1.00001 10.8203C 0.333335 10.2421 0 9.47915 0 8.53125L 1.45312 8.53125C 1.45312 9.13025 1.64843 9.60935 2.03906 9.96875C 2.42968 10.3281 2.95312 10.5078 3.60938 10.5078C 4.30729 10.5078 4.84115 10.3256 5.21094 9.96095C 5.58073 9.59635 5.76562 9.07295 5.76562 8.39065C 5.76562 7.72915 5.56251 7.22135 5.15625 6.86715C 4.75001 6.51302 4.16407 6.33073 3.39844 6.32031L 2.31251 6.32031L 2.31251 5.14063ZM 16.3281 6.67965C 16.3281 8.37235 16.039 9.63025 15.4609 10.4531C 14.8828 11.276 13.9791 11.6875 12.75 11.6875C 11.5364 11.6875 10.638 11.2865 10.0547 10.4844C 9.47132 9.67705 9.16927 8.47395 9.14843 6.87505L 9.14843 4.94531C 9.14843 3.27344 9.43752 2.03125 10.0156 1.21875C 10.5937 0.40625 11.5 0 12.7344 0C 13.9583 0 14.8594 0.39323 15.4375 1.17969C 16.0156 1.96094 16.3125 3.16927 16.3281 4.80469L 16.3281 6.67965ZM 14.8828 4.70313C 14.8828 3.47917 14.7109 2.58854 14.3672 2.03125C 14.0234 1.46875 13.4791 1.1875 12.7344 1.1875C 11.9948 1.1875 11.4557 1.46615 11.1172 2.02344C 10.7786 2.58073 10.6041 3.4375 10.5937 4.59375L 10.5937 6.90625C 10.5937 8.13545 10.7708 9.04425 11.125 9.63285C 11.4844 10.2161 12.026 10.5078 12.75 10.5078C 13.4635 10.5078 13.9922 10.2318 14.3359 9.67965C 14.6849 9.12765 14.8672 8.25785 14.8828 7.07035L 14.8828 4.70313ZM 21.164 6.16406L 23.039 3.07813L 24.7265 3.07813L 21.9609 7.25785L 24.8125 11.5312L 23.1406 11.5312L 21.1875 8.36715L 19.2344 11.5312L 17.5547 11.5312L 20.4062 7.25785L 17.6406 3.07813L 19.3125 3.07813L 21.164 6.16406ZM 33.2422 7.28905L 29.4297 7.28905L 29.4297 6.10937L 33.2422 6.10937L 33.2422 7.28905ZM 41.3906 9.41405L 43.3594 3.07813L 44.9062 3.07813L 41.5078 12.836C 40.9817 14.2422 40.1458 14.9454 39 14.9454L 38.7265 14.9219L 38.1875 14.8204L 38.1875 13.6485L 38.5781 13.6796C 39.0677 13.6796 39.4479 13.5808 39.7187 13.3829C 39.9948 13.1849 40.2213 12.823 40.3984 12.2969L 40.7187 11.4375L 37.7031 3.07813L 39.2812 3.07813L 41.3906 9.41405ZM 60.75 5.17187L 54.2344 5.17187L 54.2344 3.91406L 60.75 3.91406L 60.75 5.17187ZM 60.75 8.41405L 54.2344 8.41405L 54.2344 7.16405L 60.75 7.16405L 60.75 8.41405ZM 75.4609 11.5312L 74.0078 11.5312L 74.0078 1.89844L 71.0937 2.96875L 71.0937 1.65625L 75.2344 0.10156L 75.4609 0.10156L 75.4609 11.5312ZM 86.8281 6.67965C 86.8281 8.37235 86.539 9.63025 85.9609 10.4531C 85.3828 11.276 84.4791 11.6875 83.25 11.6875C 82.0364 11.6875 81.138 11.2865 80.5547 10.4844C 79.9713 9.67705 79.6692 8.47395 79.6484 6.87505L 79.6484 4.94531C 79.6484 3.27344 79.9375 2.03125 80.5156 1.21875C 81.0937 0.40625 82 0 83.2344 0C 84.4583 0 85.3594 0.39323 85.9375 1.17969C 86.5156 1.96094 86.8125 3.16927 86.8281 4.80469L 86.8281 6.67965ZM 85.3828 4.70313C 85.3828 3.47917 85.2109 2.58854 84.8672 2.03125C 84.5234 1.46875 83.9791 1.1875 83.2344 1.1875C 82.4948 1.1875 81.9557 1.46615 81.6172 2.02344C 81.2786 2.58073 81.1041 3.4375 81.0937 4.59375L 81.0937 6.90625C 81.0937 8.13545 81.2708 9.04425 81.625 9.63285C 81.9844 10.2161 82.526 10.5078 83.25 10.5078C 83.9635 10.5078 84.4922 10.2318 84.8359 9.67965C 85.1849 9.12765 85.3672 8.25785 85.3828 7.07035L 85.3828 4.70313ZM 95.8125 6.67965C 95.8125 8.37235 95.5234 9.63025 94.9453 10.4531C 94.3672 11.276 93.4635 11.6875 92.2344 11.6875C 91.0208 11.6875 90.1224 11.2865 89.539 10.4844C 88.9557 9.67705 88.6536 8.47395 88.6328 6.87505L 88.6328 4.94531C 88.6328 3.27344 88.9218 2.03125 89.5 1.21875C 90.0781 0.40625 90.9844 0 92.2187 0C 93.4427 0 94.3437 0.39323 94.9218 1.17969C 95.5 1.96094 95.7968 3.16927 95.8125 4.80469L 95.8125 6.67965ZM 94.3672 4.70313C 94.3672 3.47917 94.1953 2.58854 93.8515 2.03125C 93.5078 1.46875 92.9635 1.1875 92.2187 1.1875C 91.4791 1.1875 90.9401 1.46615 90.6015 2.02344C 90.263 2.58073 90.0885 3.4375 90.0781 4.59375L 90.0781 6.90625C 90.0781 8.13545 90.2552 9.04425 90.6094 9.63285C 90.9687 10.2161 91.5104 10.5078 92.2344 10.5078C 92.9479 10.5078 93.4765 10.2318 93.8203 9.67965C 94.1692 9.12765 94.3515 8.25785 94.3672 7.07035L 94.3672 4.70313ZM 104.797 6.67965C 104.797 8.37235 104.508 9.63025 103.93 10.4531C 103.352 11.276 102.448 11.6875 101.219 11.6875C 100.006 11.6875 99.1067 11.2865 98.5234 10.4844C 97.9401 9.67705 97.638 8.47395 97.6172 6.87505L 97.6172 4.94531C 97.6172 3.27344 97.9062 2.03125 98.4844 1.21875C 99.0625 0.40625 99.9686 0 101.204 0C 102.427 0 103.328 0.39323 103.907 1.17969C 104.485 1.96094 104.782 3.16927 104.797 4.80469L 104.797 6.67965ZM 103.352 4.70313C 103.352 3.47917 103.18 2.58854 102.836 2.03125C 102.493 1.46875 101.948 1.1875 101.204 1.1875C 100.464 1.1875 99.9246 1.46615 99.5856 2.02344C 99.2474 2.58073 99.0729 3.4375 99.0625 4.59375L 99.0625 6.90625C 99.0625 8.13545 99.2396 9.04425 99.5936 9.63285C 99.9536 10.2161 100.495 10.5078 101.219 10.5078C 101.933 10.5078 102.461 10.2318 102.805 9.67965C 103.154 9.12765 103.336 8.25785 103.352 7.07035L 103.352 4.70313ZM 0.875005 24.8281L 1.45312 19.1562L 7.28125 19.1562L 7.28125 20.4921L 2.67969 20.4921L 2.33594 23.5938C 2.89323 23.2656 3.52605 23.1015 4.23438 23.1015C 5.27083 23.1015 6.09375 23.4454 6.70312 24.1329C 7.3125 24.8152 7.61718 25.7395 7.61718 26.9062C 7.61718 28.0781 7.29947 29.0026 6.66406 29.6796C 6.03385 30.3515 5.15104 30.6875 4.01562 30.6875C 3.01042 30.6875 2.19011 30.4089 1.55469 29.8516C 0.919275 29.2943 0.557295 28.5234 0.468745 27.539L 1.83594 27.539C 1.92448 28.1901 2.15624 28.6823 2.53124 29.0157C 2.90624 29.3438 3.40105 29.5079 4.01562 29.5079C 4.6875 29.5079 5.21355 29.2787 5.59375 28.8204C 5.97917 28.3619 6.17188 27.7292 6.17188 26.9219C 6.17188 26.1614 5.96354 25.552 5.54688 25.0938C 5.13542 24.6303 4.58594 24.3985 3.89844 24.3985C 3.26823 24.3985 2.77343 24.5365 2.41406 24.8125L 2.03124 25.125L 0.875005 24.8281ZM 16.3281 25.6796C 16.3281 27.3723 16.039 28.6303 15.4609 29.4532C 14.8828 30.2761 13.9791 30.6875 12.75 30.6875C 11.5364 30.6875 10.638 30.2864 10.0547 29.4843C 9.47132 28.677 9.16927 27.4739 9.14843 25.875L 9.14843 23.9454C 9.14843 22.2735 9.43752 21.0312 10.0156 20.2188C 10.5937 19.4062 11.5 19 12.7344 19C 13.9583 19 14.8594 19.3932 15.4375 20.1796C 16.0156 20.9609 16.3125 22.1692 16.3281 23.8046L 16.3281 25.6796ZM 14.8828 23.7031C 14.8828 22.4791 14.7109 21.5886 14.3672 21.0312C 14.0234 20.4688 13.4791 20.1875 12.7344 20.1875C 11.9948 20.1875 11.4557 20.4662 11.1172 21.0235C 10.7786 21.5808 10.6041 22.4375 10.5937 23.5938L 10.5937 25.9062C 10.5937 27.1355 10.7708 28.0443 11.125 28.6329C 11.4844 29.2162 12.026 29.5079 12.75 29.5079C 13.4635 29.5079 13.9922 29.2317 14.3359 28.6796C 14.6849 28.1276 14.8672 27.2579 14.8828 26.0704L 14.8828 23.7031ZM 21.164 25.164L 23.039 22.0781L 24.7265 22.0781L 21.9609 26.2579L 24.8125 30.5312L 23.1406 30.5312L 21.1875 27.3671L 19.2344 30.5312L 17.5547 30.5312L 20.4062 26.2579L 17.6406 22.0781L 19.3125 22.0781L 21.164 25.164ZM 33.2422 26.289L 29.4297 26.289L 29.4297 25.1094L 33.2422 25.1094L 33.2422 26.289ZM 41.3906 28.414L 43.3594 22.0781L 44.9062 22.0781L 41.5078 31.8359C 40.9817 33.2421 40.1458 33.9454 39 33.9454L 38.7265 33.9218L 38.1875 33.8204L 38.1875 32.6484L 38.5781 32.6796C 39.0677 32.6796 39.4479 32.5807 39.7187 32.3829C 39.9948 32.1848 40.2213 31.8229 40.3984 31.2968L 40.7187 30.4375L 37.7031 22.0781L 39.2812 22.0781L 41.3906 28.414ZM 60.75 24.1719L 54.2344 24.1719L 54.2344 22.914L 60.75 22.914L 60.75 24.1719ZM 60.75 27.414L 54.2344 27.414L 54.2344 26.164L 60.75 26.164L 60.75 27.414ZM 75.4609 30.5312L 74.0078 30.5312L 74.0078 20.8985L 71.0937 21.9688L 71.0937 20.6562L 75.2344 19.1015L 75.4609 19.1015L 75.4609 30.5312ZM 86.8281 25.6796C 86.8281 27.3723 86.539 28.6303 85.9609 29.4532C 85.3828 30.2761 84.4791 30.6875 83.25 30.6875C 82.0364 30.6875 81.138 30.2864 80.5547 29.4843C 79.9713 28.677 79.6692 27.4739 79.6484 25.875L 79.6484 23.9454C 79.6484 22.2735 79.9375 21.0312 80.5156 20.2188C 81.0937 19.4062 82 19 83.2344 19C 84.4583 19 85.3594 19.3932 85.9375 20.1796C 86.5156 20.9609 86.8125 22.1692 86.8281 23.8046L 86.8281 25.6796ZM 85.3828 23.7031C 85.3828 22.4791 85.2109 21.5886 84.8672 21.0312C 84.5234 20.4688 83.9791 20.1875 83.2344 20.1875C 82.4948 20.1875 81.9557 20.4662 81.6172 21.0235C 81.2786 21.5808 81.1041 22.4375 81.0937 23.5938L 81.0937 25.9062C 81.0937 27.1355 81.2708 28.0443 81.625 28.6329C 81.9844 29.2162 82.526 29.5079 83.25 29.5079C 83.9635 29.5079 84.4922 29.2317 84.8359 28.6796C 85.1849 28.1276 85.3672 27.2579 85.3828 26.0704L 85.3828 23.7031ZM 95.8125 25.6796C 95.8125 27.3723 95.5234 28.6303 94.9453 29.4532C 94.3672 30.2761 93.4635 30.6875 92.2344 30.6875C 91.0208 30.6875 90.1224 30.2864 89.539 29.4843C 88.9557 28.677 88.6536 27.4739 88.6328 25.875L 88.6328 23.9454C 88.6328 22.2735 88.9218 21.0312 89.5 20.2188C 90.0781 19.4062 90.9844 19 92.2187 19C 93.4427 19 94.3437 19.3932 94.9218 20.1796C 95.5 20.9609 95.7968 22.1692 95.8125 23.8046L 95.8125 25.6796ZM 94.3672 23.7031C 94.3672 22.4791 94.1953 21.5886 93.8515 21.0312C 93.5078 20.4688 92.9635 20.1875 92.2187 20.1875C 91.4791 20.1875 90.9401 20.4662 90.6015 21.0235C 90.263 21.5808 90.0885 22.4375 90.0781 23.5938L 90.0781 25.9062C 90.0781 27.1355 90.2552 28.0443 90.6094 28.6329C 90.9687 29.2162 91.5104 29.5079 92.2344 29.5079C 92.9479 29.5079 93.4765 29.2317 93.8203 28.6796C 94.1692 28.1276 94.3515 27.2579 94.3672 26.0704L 94.3672 23.7031Z" transform="translate(160.562 50.4688)" fill="#333333"/>
</g>
</g>
<g id="30  1  1000 50  1  100">
<g id="Vector_3">
<path d="M 2.31251 5.14063L 3.39844 5.14063C 4.08073 5.13021 4.61718 4.95052 5.00781 4.60156C 5.39843 4.2526 5.59375 3.78125 5.59375 3.1875C 5.59375 1.85417 4.92968 1.1875 3.60156 1.1875C 2.97656 1.1875 2.47656 1.36719 2.10156 1.72656C 1.73177 2.08073 1.54688 2.55208 1.54688 3.14063L 0.101563 3.14063C 0.101563 2.23958 0.429685 1.49219 1.08593 0.89844C 1.7474 0.29948 2.58593 0 3.60156 0C 4.67447 0 5.51562 0.28385 6.125 0.85156C 6.73438 1.41927 7.03906 2.20833 7.03906 3.21875C 7.03906 3.71354 6.8776 4.19271 6.55469 4.65625C 6.23698 5.11979 5.80208 5.46615 5.25 5.69531C 5.875 5.89323 6.35677 6.22135 6.69531 6.67965C 7.03906 7.13805 7.21094 7.69795 7.21094 8.35935C 7.21094 9.38025 6.8776 10.1902 6.21094 10.7891C 5.54428 11.3881 4.67708 11.6875 3.60938 11.6875C 2.54167 11.6875 1.67188 11.3984 1.00001 10.8203C 0.333335 10.2421 0 9.47915 0 8.53125L 1.45312 8.53125C 1.45312 9.13025 1.64843 9.60935 2.03906 9.96875C 2.42968 10.3281 2.95312 10.5078 3.60938 10.5078C 4.30729 10.5078 4.84115 10.3256 5.21094 9.96095C 5.58073 9.59635 5.76562 9.07295 5.76562 8.39065C 5.76562 7.72915 5.56251 7.22135 5.15625 6.86715C 4.75001 6.51302 4.16407 6.33073 3.39844 6.32031L 2.31251 6.32031L 2.31251 5.14063ZM 16.3281 6.67965C 16.3281 8.37235 16.039 9.63025 15.4609 10.4531C 14.8828 11.276 13.9791 11.6875 12.75 11.6875C 11.5364 11.6875 10.638 11.2865 10.0547 10.4844C 9.47132 9.67705 9.16927 8.47395 9.14843 6.87505L 9.14843 4.94531C 9.14843 3.27344 9.43752 2.03125 10.0156 1.21875C 10.5937 0.40625 11.5 0 12.7344 0C 13.9583 0 14.8594 0.39323 15.4375 1.17969C 16.0156 1.96094 16.3125 3.16927 16.3281 4.80469L 16.3281 6.67965ZM 14.8828 4.70313C 14.8828 3.47917 14.7109 2.58854 14.3672 2.03125C 14.0234 1.46875 13.4791 1.1875 12.7344 1.1875C 11.9948 1.1875 11.4557 1.46615 11.1172 2.02344C 10.7786 2.58073 10.6041 3.4375 10.5937 4.59375L 10.5937 6.90625C 10.5937 8.13545 10.7708 9.04425 11.125 9.63285C 11.4844 10.2161 12.026 10.5078 12.75 10.5078C 13.4635 10.5078 13.9922 10.2318 14.3359 9.67965C 14.6849 9.12765 14.8672 8.25785 14.8828 7.07035L 14.8828 4.70313ZM 33.2422 7.28905L 29.4297 7.28905L 29.4297 6.10937L 33.2422 6.10937L 33.2422 7.28905ZM 39.2578 11.5312L 37.8047 11.5312L 37.8047 1.89844L 34.8906 2.96875L 34.8906 1.65625L 39.0312 0.10156L 39.2578 0.10156L 39.2578 11.5312ZM 62.5234 7.28905L 58.7109 7.28905L 58.7109 6.10937L 62.5234 6.10937L 62.5234 7.28905ZM 68.539 11.5312L 67.0859 11.5312L 67.0859 1.89844L 64.1718 2.96875L 64.1718 1.65625L 68.3125 0.10156L 68.539 0.10156L 68.539 11.5312ZM 79.9062 6.67965C 79.9062 8.37235 79.6172 9.63025 79.039 10.4531C 78.4609 11.276 77.5573 11.6875 76.3281 11.6875C 75.1146 11.6875 74.2161 11.2865 73.6328 10.4844C 73.0495 9.67705 72.7474 8.47395 72.7265 6.87505L 72.7265 4.94531C 72.7265 3.27344 73.0156 2.03125 73.5937 1.21875C 74.1718 0.40625 75.0781 0 76.3125 0C 77.5364 0 78.4375 0.39323 79.0156 1.17969C 79.5937 1.96094 79.8906 3.16927 79.9062 4.80469L 79.9062 6.67965ZM 78.4609 4.70313C 78.4609 3.47917 78.289 2.58854 77.9453 2.03125C 77.6015 1.46875 77.0573 1.1875 76.3125 1.1875C 75.5729 1.1875 75.0338 1.46615 74.6953 2.02344C 74.3567 2.58073 74.1823 3.4375 74.1718 4.59375L 74.1718 6.90625C 74.1718 8.13545 74.3489 9.04425 74.7031 9.63285C 75.0625 10.2161 75.6041 10.5078 76.3281 10.5078C 77.0416 10.5078 77.5703 10.2318 77.914 9.67965C 78.263 9.12765 78.4453 8.25785 78.4609 7.07035L 78.4609 4.70313ZM 88.8906 6.67965C 88.8906 8.37235 88.6015 9.63025 88.0234 10.4531C 87.4453 11.276 86.5416 11.6875 85.3125 11.6875C 84.0989 11.6875 83.2005 11.2865 82.6172 10.4844C 82.0338 9.67705 81.7317 8.47395 81.7109 6.87505L 81.7109 4.94531C 81.7109 3.27344 82 2.03125 82.5781 1.21875C 83.1562 0.40625 84.0625 0 85.2968 0C 86.5208 0 87.4218 0.39323 88 1.17969C 88.5781 1.96094 88.875 3.16927 88.8906 4.80469L 88.8906 6.67965ZM 87.4453 4.70313C 87.4453 3.47917 87.2734 2.58854 86.9297 2.03125C 86.5859 1.46875 86.0416 1.1875 85.2968 1.1875C 84.5573 1.1875 84.0182 1.46615 83.6797 2.02344C 83.3411 2.58073 83.1666 3.4375 83.1562 4.59375L 83.1562 6.90625C 83.1562 8.13545 83.3333 9.04425 83.6875 9.63285C 84.0468 10.2161 84.5885 10.5078 85.3125 10.5078C 86.026 10.5078 86.5547 10.2318 86.8984 9.67965C 87.2474 9.12765 87.4297 8.25785 87.4453 7.07035L 87.4453 4.70313ZM 97.875 6.67965C 97.875 8.37235 97.5859 9.63025 97.0078 10.4531C 96.4297 11.276 95.526 11.6875 94.2968 11.6875C 93.0833 11.6875 92.1849 11.2865 91.6015 10.4844C 91.0182 9.67705 90.7161 8.47395 90.6953 6.87505L 90.6953 4.94531C 90.6953 3.27344 90.9844 2.03125 91.5625 1.21875C 92.1406 0.40625 93.0468 0 94.2812 0C 95.5052 0 96.4062 0.39323 96.9844 1.17969C 97.5625 1.96094 97.8594 3.16927 97.875 4.80469L 97.875 6.67965ZM 96.4297 4.70313C 96.4297 3.47917 96.2578 2.58854 95.914 2.03125C 95.5703 1.46875 95.026 1.1875 94.2812 1.1875C 93.5416 1.1875 93.0026 1.46615 92.664 2.02344C 92.3255 2.58073 92.151 3.4375 92.1406 4.59375L 92.1406 6.90625C 92.1406 8.13545 92.3177 9.04425 92.6718 9.63285C 93.0312 10.2161 93.5729 10.5078 94.2968 10.5078C 95.0104 10.5078 95.539 10.2318 95.8828 9.67965C 96.2317 9.12765 96.414 8.25785 96.4297 7.07035L 96.4297 4.70313ZM 0.875005 24.8281L 1.45312 19.1562L 7.28125 19.1562L 7.28125 20.4921L 2.67969 20.4921L 2.33594 23.5938C 2.89323 23.2656 3.52605 23.1015 4.23438 23.1015C 5.27083 23.1015 6.09375 23.4454 6.70312 24.1329C 7.3125 24.8152 7.61718 25.7395 7.61718 26.9062C 7.61718 28.0781 7.29947 29.0026 6.66406 29.6796C 6.03385 30.3515 5.15104 30.6875 4.01562 30.6875C 3.01042 30.6875 2.19011 30.4089 1.55469 29.8516C 0.919275 29.2943 0.557295 28.5234 0.468745 27.539L 1.83594 27.539C 1.92448 28.1901 2.15624 28.6823 2.53124 29.0157C 2.90624 29.3438 3.40105 29.5079 4.01562 29.5079C 4.6875 29.5079 5.21355 29.2787 5.59375 28.8204C 5.97917 28.3619 6.17188 27.7292 6.17188 26.9219C 6.17188 26.1614 5.96354 25.552 5.54688 25.0938C 5.13542 24.6303 4.58594 24.3985 3.89844 24.3985C 3.26823 24.3985 2.77343 24.5365 2.41406 24.8125L 2.03124 25.125L 0.875005 24.8281ZM 16.3281 25.6796C 16.3281 27.3723 16.039 28.6303 15.4609 29.4532C 14.8828 30.2761 13.9791 30.6875 12.75 30.6875C 11.5364 30.6875 10.638 30.2864 10.0547 29.4843C 9.47132 28.677 9.16927 27.4739 9.14843 25.875L 9.14843 23.9454C 9.14843 22.2735 9.43752 21.0312 10.0156 20.2188C 10.5937 19.4062 11.5 19 12.7344 19C 13.9583 19 14.8594 19.3932 15.4375 20.1796C 16.0156 20.9609 16.3125 22.1692 16.3281 23.8046L 16.3281 25.6796ZM 14.8828 23.7031C 14.8828 22.4791 14.7109 21.5886 14.3672 21.0312C 14.0234 20.4688 13.4791 20.1875 12.7344 20.1875C 11.9948 20.1875 11.4557 20.4662 11.1172 21.0235C 10.7786 21.5808 10.6041 22.4375 10.5937 23.5938L 10.5937 25.9062C 10.5937 27.1355 10.7708 28.0443 11.125 28.6329C 11.4844 29.2162 12.026 29.5079 12.75 29.5079C 13.4635 29.5079 13.9922 29.2317 14.3359 28.6796C 14.6849 28.1276 14.8672 27.2579 14.8828 26.0704L 14.8828 23.7031ZM 33.2422 26.289L 29.4297 26.289L 29.4297 25.1094L 33.2422 25.1094L 33.2422 26.289ZM 39.2578 30.5312L 37.8047 30.5312L 37.8047 20.8985L 34.8906 21.9688L 34.8906 20.6562L 39.0312 19.1015L 39.2578 19.1015L 39.2578 30.5312ZM 62.5234 26.289L 58.7109 26.289L 58.7109 25.1094L 62.5234 25.1094L 62.5234 26.289ZM 68.539 30.5312L 67.0859 30.5312L 67.0859 20.8985L 64.1718 21.9688L 64.1718 20.6562L 68.3125 19.1015L 68.539 19.1015L 68.539 30.5312ZM 79.9062 25.6796C 79.9062 27.3723 79.6172 28.6303 79.039 29.4532C 78.4609 30.2761 77.5573 30.6875 76.3281 30.6875C 75.1146 30.6875 74.2161 30.2864 73.6328 29.4843C 73.0495 28.677 72.7474 27.4739 72.7265 25.875L 72.7265 23.9454C 72.7265 22.2735 73.0156 21.0312 73.5937 20.2188C 74.1718 19.4062 75.0781 19 76.3125 19C 77.5364 19 78.4375 19.3932 79.0156 20.1796C 79.5937 20.9609 79.8906 22.1692 79.9062 23.8046L 79.9062 25.6796ZM 78.4609 23.7031C 78.4609 22.4791 78.289 21.5886 77.9453 21.0312C 77.6015 20.4688 77.0573 20.1875 76.3125 20.1875C 75.5729 20.1875 75.0338 20.4662 74.6953 21.0235C 74.3567 21.5808 74.1823 22.4375 74.1718 23.5938L 74.1718 25.9062C 74.1718 27.1355 74.3489 28.0443 74.7031 28.6329C 75.0625 29.2162 75.6041 29.5079 76.3281 29.5079C 77.0416 29.5079 77.5703 29.2317 77.914 28.6796C 78.263 28.1276 78.4453 27.2579 78.4609 26.0704L 78.4609 23.7031ZM 88.8906 25.6796C 88.8906 27.3723 88.6015 28.6303 88.0234 29.4532C 87.4453 30.2761 86.5416 30.6875 85.3125 30.6875C 84.0989 30.6875 83.2005 30.2864 82.6172 29.4843C 82.0338 28.677 81.7317 27.4739 81.7109 25.875L 81.7109 23.9454C 81.7109 22.2735 82 21.0312 82.5781 20.2188C 83.1562 19.4062 84.0625 19 85.2968 19C 86.5208 19 87.4218 19.3932 88 20.1796C 88.5781 20.9609 88.875 22.1692 88.8906 23.8046L 88.8906 25.6796ZM 87.4453 23.7031C 87.4453 22.4791 87.2734 21.5886 86.9297 21.0312C 86.5859 20.4688 86.0416 20.1875 85.2968 20.1875C 84.5573 20.1875 84.0182 20.4662 83.6797 21.0235C 83.3411 21.5808 83.1666 22.4375 83.1562 23.5938L 83.1562 25.9062C 83.1562 27.1355 83.3333 28.0443 83.6875 28.6329C 84.0468 29.2162 84.5885 29.5079 85.3125 29.5079C 86.026 29.5079 86.5547 29.2317 86.8984 28.6796C 87.2474 28.1276 87.4297 27.2579 87.4453 26.0704L 87.4453 23.7031Z" transform="translate(337.562 49.4688)" fill="#333333"/>
</g>
</g>
<g id="Component">
<g id="Line 2">
<g id="Vector_4">
<path d="M 0 1L 49 1L 49 0L 0 0L 0 1Z" transform="matrix(0 1 -0.99936 0.0357696 329.827 40.9642)" fill="black"/>
</g>
</g>
<g id="Line 3">
<g id="Vector_5">
<path d="M 0 1L 6 1L 6 0L 0 0L 0 1Z" transform="translate(328.828 40)" fill="black"/>
</g>
</g>
<g id="Line 3_2">
<g id="Vector_6">
<path d="M 0 1L 6 1L 6 0L 0 0L 0 1Z" transform="translate(328.828 89)" fill="black"/>
</g>
</g>
</g>
<g id="Component_2">
<g id="Line 2_2">
<g id="Vector_7">
<path d="M 0 1L 48 1L 48 0L 0 0L 0 1Z" transform="matrix(0 -1 0.999386 -0.0350406 441.829 89.035)" fill="black"/>
</g>
</g>
<g id="Line 3_3">
<g id="Vector_8">
<path d="M 0 1L 6 1L 6 0L 0 0L 0 1Z" transform="translate(442.828 90) scale(-1)" fill="black"/>
</g>
</g>
<g id="Line 3_4">
<g id="Vector_9">
<path d="M 0 1L 6 1L 6 0L 0 0L 0 1Z" transform="translate(442.828 42) scale(-1)" fill="black"/>
</g>
</g>
</g>
<g id="Line">
<g id="Vector_10">
<path d="M 0 1L 43 1L 43 0L 0 0L 0 1Z" transform="matrix(0 1 -1 0 386.828 44)" fill="black"/>
</g>
</g>
<g id="Slope intercept form">
<g id="Vector_11">
<path d="M 4.04687 6.92969C 2.76042 6.5599 1.82292 6.10677 1.23437 5.57031C 0.65104 5.02865 0.35937 4.36198 0.35937 3.57031C 0.35937 2.67448 0.71615 1.9349 1.42969 1.35156C 2.14844 0.76302 3.08073 0.46875 4.22656 0.46875C 5.00781 0.46875 5.70313 0.61979 6.3125 0.92188C 6.92708 1.22396 7.40104 1.64062 7.73437 2.17188C 8.07292 2.70312 8.24219 3.28385 8.24219 3.91406L 6.73437 3.91406C 6.73437 3.22656 6.51563 2.6875 6.07813 2.29688C 5.64063 1.90104 5.02344 1.70312 4.22656 1.70312C 3.48698 1.70312 2.90885 1.86719 2.49219 2.19531C 2.08073 2.51823 1.875 2.96875 1.875 3.54688C 1.875 4.01042 2.07031 4.40365 2.46094 4.72656C 2.85677 5.04427 3.52604 5.33594 4.46875 5.60156C 5.41667 5.86719 6.15625 6.16146 6.6875 6.48438C 7.22396 6.80208 7.61979 7.1745 7.875 7.6016C 8.13542 8.0286 8.26563 8.5312 8.26563 9.1094C 8.26563 10.0312 7.90625 10.7708 7.1875 11.3281C 6.46875 11.8802 5.50781 12.1562 4.30469 12.1562C 3.52344 12.1562 2.79427 12.0078 2.11719 11.7109C 1.4401 11.4089 0.91667 10.9974 0.54687 10.4766C 0.18229 9.9557 0 9.3646 0 8.7031L 1.50781 8.7031C 1.50781 9.3906 1.76042 9.9349 2.26563 10.3359C 2.77604 10.7318 3.45573 10.9297 4.30469 10.9297C 5.09635 10.9297 5.70313 10.7682 6.125 10.4453C 6.54687 10.1224 6.75781 9.6823 6.75781 9.125C 6.75781 8.5677 6.5625 8.138 6.17187 7.8359C 5.78125 7.5286 5.07292 7.2266 4.04687 6.92969ZM 11.5391 12L 10.0938 12L 10.0938 0L 11.5391 0L 11.5391 12ZM 13.4766 7.6953C 13.4766 6.86719 13.6381 6.1224 13.9609 5.46094C 14.2891 4.79948 14.7422 4.28906 15.3204 3.92969C 15.9037 3.57031 16.5677 3.39062 17.3125 3.39062C 18.4636 3.39062 19.3932 3.78906 20.1015 4.58594C 20.8151 5.38281 21.1719 6.44271 21.1719 7.7656L 21.1719 7.8672C 21.1719 8.6901 21.0131 9.4297 20.6954 10.0859C 20.3829 10.737 19.9323 11.2448 19.3438 11.6094C 18.7605 11.974 18.0886 12.1562 17.3281 12.1562C 16.1822 12.1562 15.2527 11.7578 14.5391 10.9609C 13.8308 10.1641 13.4766 9.1094 13.4766 7.7969L 13.4766 7.6953ZM 14.9297 7.8672C 14.9297 8.8047 15.1459 9.5573 15.5781 10.125C 16.0156 10.6927 16.5989 10.9766 17.3281 10.9766C 18.0625 10.9766 18.6458 10.6901 19.0781 10.1172C 19.5105 9.5391 19.7265 8.7318 19.7265 7.6953C 19.7265 6.76823 19.5052 6.01823 19.0625 5.44531C 18.625 4.86719 18.0416 4.57812 17.3125 4.57812C 16.5989 4.57812 16.0235 4.86198 15.586 5.42969C 15.1485 5.9974 14.9297 6.8099 14.9297 7.8672ZM 30.125 7.8672C 30.125 9.1536 29.8307 10.1901 29.2421 10.9766C 28.6536 11.763 27.8567 12.1562 26.8515 12.1562C 25.8256 12.1562 25.0182 11.8307 24.4296 11.1797L 24.4296 15.25L 22.9844 15.25L 22.9844 3.54688L 24.3046 3.54688L 24.375 4.48438C 24.9636 3.75521 25.7812 3.39062 26.8281 3.39062C 27.8438 3.39062 28.6459 3.77344 29.2344 4.53906C 29.8281 5.30469 30.125 6.36979 30.125 7.7344L 30.125 7.8672ZM 28.6796 7.7031C 28.6796 6.75 28.4766 5.9974 28.0704 5.44531C 27.6641 4.89323 27.1068 4.61719 26.3985 4.61719C 25.5235 4.61719 24.8671 5.00521 24.4296 5.78125L 24.4296 9.8203C 24.8619 10.5911 25.5234 10.9766 26.414 10.9766C 27.1067 10.9766 27.6562 10.7031 28.0625 10.1562C 28.4739 9.6042 28.6796 8.7865 28.6796 7.7031ZM 35.4766 12.1562C 34.3307 12.1562 33.3984 11.7812 32.6796 11.0312C 31.9609 10.276 31.6016 9.2682 31.6016 8.0078L 31.6016 7.7422C 31.6016 6.90365 31.7605 6.15625 32.0782 5.5C 32.4011 4.83854 32.8489 4.32292 33.4218 3.95312C 33.9999 3.57812 34.6249 3.39062 35.2968 3.39062C 36.3958 3.39062 37.2499 3.7526 37.8593 4.47656C 38.4688 5.20052 38.7734 6.23698 38.7734 7.5859L 38.7734 8.1875L 33.0468 8.1875C 33.0677 9.0208 33.3098 9.6953 33.7734 10.2109C 34.2421 10.7214 34.8359 10.9766 35.5546 10.9766C 36.0652 10.9766 36.4974 10.8724 36.8516 10.6641C 37.2057 10.4557 37.5157 10.1797 37.7812 9.8359L 38.6641 10.5234C 37.9557 11.612 36.8932 12.1562 35.4766 12.1562ZM 35.2968 4.57812C 34.7135 4.57812 34.224 4.79167 33.8282 5.21875C 33.4323 5.64062 33.1875 6.23438 33.0938 7L 37.3282 7L 37.3282 6.89062C 37.2865 6.15625 37.0885 5.58854 36.7343 5.1875C 36.3802 4.78125 35.901 4.57812 35.2968 4.57812ZM 43.4609 7.7578L 39.6484 7.7578L 39.6484 6.57812L 43.4609 6.57812L 43.4609 7.7578ZM 46.4454 12L 45 12L 45 3.54688L 46.4454 3.54688L 46.4454 12ZM 44.8829 1.30469C 44.8829 1.07031 44.9532 0.8724 45.0938 0.71094C 45.2396 0.54948 45.4531 0.46875 45.7343 0.46875C 46.0156 0.46875 46.2291 0.54948 46.375 0.71094C 46.5209 0.8724 46.5938 1.07031 46.5938 1.30469C 46.5938 1.53906 46.5209 1.73438 46.375 1.89062C 46.2291 2.04688 46.0156 2.125 45.7343 2.125C 45.4531 2.125 45.2396 2.04688 45.0938 1.89062C 44.9532 1.73438 44.8829 1.53906 44.8829 1.30469ZM 50.1329 3.54688L 50.1796 4.60938C 50.8256 3.79688 51.6693 3.39062 52.7109 3.39062C 54.4973 3.39062 55.3985 4.39844 55.4141 6.41406L 55.4141 12L 53.9688 12L 53.9688 6.40625C 53.9636 5.79688 53.8229 5.34635 53.5468 5.05469C 53.276 4.76302 52.8515 4.61719 52.2734 4.61719C 51.8046 4.61719 51.3932 4.74219 51.0391 4.99219C 50.6849 5.24219 50.4088 5.57031 50.2109 5.97656L 50.2109 12L 48.7657 12L 48.7657 3.54688L 50.1329 3.54688ZM 59.5546 1.5L 59.5546 3.54688L 61.1329 3.54688L 61.1329 4.66406L 59.5546 4.66406L 59.5546 9.9062C 59.5546 10.2448 59.625 10.5 59.7657 10.6719C 59.9062 10.8385 60.1458 10.9219 60.4843 10.9219C 60.651 10.9219 60.8802 10.8906 61.1718 10.8281L 61.1718 12C 60.7916 12.1042 60.4218 12.1562 60.0625 12.1562C 59.4166 12.1562 58.9296 11.9609 58.6016 11.5703C 58.2735 11.1797 58.1093 10.625 58.1093 9.9062L 58.1093 4.66406L 56.5704 4.66406L 56.5704 3.54688L 58.1093 3.54688L 58.1093 1.5L 59.5546 1.5ZM 66.336 12.1562C 65.1902 12.1562 64.2579 11.7812 63.539 11.0312C 62.8203 10.276 62.4609 9.2682 62.4609 8.0078L 62.4609 7.7422C 62.4609 6.90365 62.6198 6.15625 62.9375 5.5C 63.2604 4.83854 63.7084 4.32292 64.2812 3.95312C 64.8594 3.57812 65.4844 3.39062 66.1562 3.39062C 67.2552 3.39062 68.1094 3.7526 68.7188 4.47656C 69.3281 5.20052 69.6329 6.23698 69.6329 7.5859L 69.6329 8.1875L 63.9062 8.1875C 63.9271 9.0208 64.1693 9.6953 64.6329 10.2109C 65.1015 10.7214 65.6954 10.9766 66.414 10.9766C 66.9244 10.9766 67.3568 10.8724 67.711 10.6641C 68.0652 10.4557 68.3749 10.1797 68.6406 9.8359L 69.5235 10.5234C 68.8152 11.612 67.7527 12.1562 66.336 12.1562ZM 66.1562 4.57812C 65.573 4.57812 65.0834 4.79167 64.6876 5.21875C 64.2917 5.64062 64.0468 6.23438 63.9531 7L 68.1876 7L 68.1876 6.89062C 68.1459 6.15625 67.948 5.58854 67.5938 5.1875C 67.2395 4.78125 66.7605 4.57812 66.1562 4.57812ZM 75.3985 4.84375C 75.1796 4.80729 74.9428 4.78906 74.6876 4.78906C 73.7396 4.78906 73.0964 5.19271 72.7579 6L 72.7579 12L 71.3126 12L 71.3126 3.54688L 72.7188 3.54688L 72.7421 4.52344C 73.2161 3.76823 73.8881 3.39062 74.7579 3.39062C 75.039 3.39062 75.2527 3.42708 75.3985 3.5L 75.3985 4.84375ZM 79.9688 10.9766C 80.4844 10.9766 80.9349 10.8203 81.3204 10.5078C 81.7057 10.1953 81.9193 9.8047 81.961 9.3359L 83.3281 9.3359C 83.302 9.8203 83.1354 10.2812 82.8281 10.7188C 82.5209 11.1562 82.1094 11.5052 81.5938 11.7656C 81.0834 12.026 80.5416 12.1562 79.9688 12.1562C 78.8177 12.1562 77.901 11.7734 77.2188 11.0078C 76.5416 10.237 76.2031 9.1849 76.2031 7.8516L 76.2031 7.6094C 76.2031 6.78646 76.3541 6.05469 76.6562 5.41406C 76.9584 4.77344 77.3906 4.27604 77.9531 3.92188C 78.5209 3.56771 79.1902 3.39062 79.961 3.39062C 80.9089 3.39062 81.6954 3.67448 82.3204 4.24219C 82.9506 4.8099 83.2864 5.54688 83.3281 6.45312L 81.961 6.45312C 81.9193 5.90625 81.711 5.45833 81.336 5.10938C 80.9662 4.75521 80.5079 4.57812 79.961 4.57812C 79.2266 4.57812 78.6562 4.84375 78.2499 5.375C 77.8489 5.90104 77.6485 6.66406 77.6485 7.6641L 77.6485 7.9375C 77.6485 8.9115 77.8489 9.6615 78.2499 10.1875C 78.651 10.7135 79.224 10.9766 79.9688 10.9766ZM 88.461 12.1562C 87.3152 12.1562 86.3829 11.7812 85.664 11.0312C 84.9454 10.276 84.586 9.2682 84.586 8.0078L 84.586 7.7422C 84.586 6.90365 84.7448 6.15625 85.0626 5.5C 85.3855 4.83854 85.8334 4.32292 86.4062 3.95312C 86.9844 3.57812 87.6094 3.39062 88.2812 3.39062C 89.3802 3.39062 90.2344 3.7526 90.8438 4.47656C 91.4531 5.20052 91.7579 6.23698 91.7579 7.5859L 91.7579 8.1875L 86.0312 8.1875C 86.052 9.0208 86.2943 9.6953 86.7579 10.2109C 87.2265 10.7214 87.8204 10.9766 88.539 10.9766C 89.0494 10.9766 89.4818 10.8724 89.836 10.6641C 90.1902 10.4557 90.4999 10.1797 90.7656 9.8359L 91.6485 10.5234C 90.9402 11.612 89.8777 12.1562 88.461 12.1562ZM 88.2812 4.57812C 87.698 4.57812 87.2084 4.79167 86.8126 5.21875C 86.4167 5.64062 86.1718 6.23438 86.0781 7L 90.3126 7L 90.3126 6.89062C 90.2709 6.15625 90.073 5.58854 89.7188 5.1875C 89.3645 4.78125 88.8855 4.57812 88.2812 4.57812ZM 100.578 7.8672C 100.578 9.1536 100.284 10.1901 99.6957 10.9766C 99.1068 11.763 98.3099 12.1562 97.3046 12.1562C 96.2786 12.1562 95.4714 11.8307 94.8829 11.1797L 94.8829 15.25L 93.4376 15.25L 93.4376 3.54688L 94.7579 3.54688L 94.8281 4.48438C 95.4166 3.75521 96.2344 3.39062 97.2812 3.39062C 98.2969 3.39062 99.0988 3.77344 99.6878 4.53906C 100.281 5.30469 100.578 6.36979 100.578 7.7344L 100.578 7.8672ZM 99.1328 7.7031C 99.1328 6.75 98.9296 5.9974 98.5235 5.44531C 98.1171 4.89323 97.5598 4.61719 96.8515 4.61719C 95.9765 4.61719 95.3204 5.00521 94.8829 5.78125L 94.8829 9.8203C 95.3151 10.5911 95.9765 10.9766 96.8671 10.9766C 97.5599 10.9766 98.1093 10.7031 98.5156 10.1562C 98.927 9.6042 99.1328 8.7865 99.1328 7.7031ZM 104.383 1.5L 104.383 3.54688L 105.961 3.54688L 105.961 4.66406L 104.383 4.66406L 104.383 9.9062C 104.383 10.2448 104.453 10.5 104.594 10.6719C 104.735 10.8385 104.974 10.9219 105.313 10.9219C 105.479 10.9219 105.709 10.8906 106 10.8281L 106 12C 105.62 12.1042 105.25 12.1562 104.891 12.1562C 104.245 12.1562 103.758 11.9609 103.43 11.5703C 103.102 11.1797 102.938 10.625 102.938 9.9062L 102.938 4.66406L 101.399 4.66406L 101.399 3.54688L 102.938 3.54688L 102.938 1.5L 104.383 1.5ZM 37.7032 31L 37.7032 23.6641L 36.3671 23.6641L 36.3671 22.5469L 37.7032 22.5469L 37.7032 21.6797C 37.7032 20.7734 37.9454 20.0729 38.4296 19.5781C 38.9141 19.0833 39.5989 18.8359 40.4843 18.8359C 40.8177 18.8359 41.1485 18.8802 41.4766 18.9688L 41.3984 20.1406C 41.1536 20.0938 40.8932 20.0703 40.6171 20.0703C 40.1484 20.0703 39.7864 20.2083 39.5312 20.4844C 39.2761 20.7552 39.1484 21.1458 39.1484 21.6562L 39.1484 22.5469L 40.9532 22.5469L 40.9532 23.6641L 39.1484 23.6641L 39.1484 31L 37.7032 31ZM 42.1718 26.6953C 42.1718 25.8672 42.3334 25.1224 42.6562 24.4609C 42.9843 23.7995 43.4376 23.2891 44.0157 22.9297C 44.599 22.5703 45.2631 22.3906 46.0079 22.3906C 47.1589 22.3906 48.0885 22.7891 48.7968 23.5859C 49.5104 24.3828 49.8671 25.4427 49.8671 26.7656L 49.8671 26.8672C 49.8671 27.6901 49.7084 28.4297 49.3907 29.0859C 49.0782 29.737 48.6277 30.2448 48.0391 30.6094C 47.4557 30.974 46.7838 31.1562 46.0234 31.1562C 44.8776 31.1562 43.9479 30.7578 43.2343 29.9609C 42.526 29.1641 42.1718 28.1094 42.1718 26.7969L 42.1718 26.6953ZM 43.625 26.8672C 43.625 27.8047 43.8411 28.5573 44.2734 29.125C 44.7109 29.6927 45.2943 29.9766 46.0234 29.9766C 46.7579 29.9766 47.3411 29.6901 47.7734 29.1172C 48.2057 28.5391 48.4218 27.7318 48.4218 26.6953C 48.4218 25.7682 48.2006 25.0182 47.7579 24.4453C 47.3204 23.8672 46.7369 23.5781 46.0079 23.5781C 45.2943 23.5781 44.7188 23.862 44.2812 24.4297C 43.8438 24.9974 43.625 25.8099 43.625 26.8672ZM 55.7657 23.8438C 55.5469 23.8073 55.3098 23.7891 55.0546 23.7891C 54.1068 23.7891 53.4636 24.1927 53.125 25L 53.125 31L 51.6796 31L 51.6796 22.5469L 53.0859 22.5469L 53.1093 23.5234C 53.5833 22.7682 54.2552 22.3906 55.125 22.3906C 55.4062 22.3906 55.6198 22.4271 55.7657 22.5L 55.7657 23.8438ZM 58.4609 22.5469L 58.5 23.4844C 59.1198 22.7552 59.9557 22.3906 61.0079 22.3906C 62.1902 22.3906 62.9948 22.8438 63.4219 23.75C 63.7032 23.3438 64.0677 23.0156 64.5156 22.7656C 64.9688 22.5156 65.5026 22.3906 66.1171 22.3906C 67.9714 22.3906 68.914 23.3724 68.9454 25.3359L 68.9454 31L 67.4999 31L 67.4999 25.4219C 67.4999 24.8177 67.362 24.3672 67.086 24.0703C 66.8099 23.7682 66.3464 23.6172 65.6954 23.6172C 65.1589 23.6172 64.7136 23.7786 64.3594 24.1016C 64.0052 24.4193 63.7994 24.849 63.7421 25.3906L 63.7421 31L 62.2891 31L 62.2891 25.4609C 62.2891 24.2318 61.6875 23.6172 60.4843 23.6172C 59.5364 23.6172 58.8881 24.0208 58.5391 24.8281L 58.5391 31L 57.0938 31L 57.0938 22.5469L 58.4609 22.5469Z" transform="translate(4.85938 0)" fill="black"/>
</g>
</g>
<g id="General form">
<g id="Vector_12">
<path d="M 8.7656 10.5078C 8.38021 11.0599 7.84115 11.474 7.14844 11.75C 6.46094 12.0208 5.65885 12.1562 4.74219 12.1562C 3.8151 12.1562 2.99219 11.9401 2.27344 11.5078C 1.55469 11.0703 0.9974 10.4505 0.60156 9.6484C 0.21094 8.8464 0.01042 7.9167 0 6.85938L 0 5.86719C 0 4.15365 0.39844 2.82552 1.19531 1.88281C 1.9974 0.9401 3.1224 0.46875 4.57031 0.46875C 5.75781 0.46875 6.71354 0.77344 7.4375 1.38281C 8.16146 1.98698 8.60417 2.84635 8.7656 3.96094L 7.26562 3.96094C 6.98438 2.45573 6.08854 1.70312 4.57812 1.70312C 3.57292 1.70312 2.8099 2.05729 2.28906 2.76562C 1.77344 3.46875 1.51302 4.48958 1.50781 5.82812L 1.50781 6.75781C 1.50781 8.0339 1.79948 9.0495 2.38281 9.8047C 2.96615 10.5547 3.75521 10.9297 4.75 10.9297C 5.3125 10.9297 5.80469 10.8672 6.22656 10.7422C 6.64844 10.6172 6.9974 10.4062 7.27344 10.1094L 7.27344 7.5547L 4.64062 7.5547L 4.64062 6.33594L 8.7656 6.33594L 8.7656 10.5078ZM 14.5547 12.1562C 13.4089 12.1562 12.4766 11.7812 11.7578 11.0312C 11.0391 10.276 10.6797 9.2682 10.6797 8.0078L 10.6797 7.7422C 10.6797 6.90365 10.8385 6.15625 11.1562 5.5C 11.4792 4.83854 11.9271 4.32292 12.5 3.95312C 13.0781 3.57812 13.7031 3.39062 14.375 3.39062C 15.474 3.39062 16.3281 3.7526 16.9375 4.47656C 17.5469 5.20052 17.8516 6.23698 17.8516 7.5859L 17.8516 8.1875L 12.125 8.1875C 12.1458 9.0208 12.388 9.6953 12.8516 10.2109C 13.3203 10.7214 13.9141 10.9766 14.6328 10.9766C 15.1432 10.9766 15.5755 10.8724 15.9297 10.6641C 16.2839 10.4557 16.5938 10.1797 16.8594 9.8359L 17.7422 10.5234C 17.0339 11.612 15.9714 12.1562 14.5547 12.1562ZM 14.375 4.57812C 13.7917 4.57812 13.3021 4.79167 12.9062 5.21875C 12.5104 5.64062 12.2656 6.23438 12.1719 7L 16.4062 7L 16.4062 6.89062C 16.3646 6.15625 16.1667 5.58854 15.8125 5.1875C 15.4583 4.78125 14.9792 4.57812 14.375 4.57812ZM 20.8984 3.54688L 20.9453 4.60938C 21.5911 3.79688 22.4349 3.39062 23.4766 3.39062C 25.263 3.39062 26.1641 4.39844 26.1797 6.41406L 26.1797 12L 24.7344 12L 24.7344 6.40625C 24.7292 5.79688 24.5885 5.34635 24.3125 5.05469C 24.0417 4.76302 23.6172 4.61719 23.0391 4.61719C 22.5703 4.61719 22.1589 4.74219 21.8047 4.99219C 21.4505 5.24219 21.1745 5.57031 20.9766 5.97656L 20.9766 12L 19.5312 12L 19.5312 3.54688L 20.8984 3.54688ZM 31.8672 12.1562C 30.7214 12.1562 29.7891 11.7812 29.0703 11.0312C 28.3516 10.276 27.9922 9.2682 27.9922 8.0078L 27.9922 7.7422C 27.9922 6.90365 28.151 6.15625 28.4688 5.5C 28.7917 4.83854 29.2396 4.32292 29.8125 3.95312C 30.3906 3.57812 31.0156 3.39062 31.6875 3.39062C 32.7865 3.39062 33.6406 3.7526 34.25 4.47656C 34.8594 5.20052 35.1641 6.23698 35.1641 7.5859L 35.1641 8.1875L 29.4375 8.1875C 29.4583 9.0208 29.7005 9.6953 30.1641 10.2109C 30.6328 10.7214 31.2266 10.9766 31.9453 10.9766C 32.4557 10.9766 32.888 10.8724 33.2422 10.6641C 33.5964 10.4557 33.9062 10.1797 34.1719 9.8359L 35.0547 10.5234C 34.3464 11.612 33.2839 12.1562 31.8672 12.1562ZM 31.6875 4.57812C 31.1042 4.57812 30.6146 4.79167 30.2188 5.21875C 29.8229 5.64062 29.5781 6.23438 29.4844 7L 33.7188 7L 33.7188 6.89062C 33.6771 6.15625 33.4792 5.58854 33.125 5.1875C 32.7708 4.78125 32.2917 4.57812 31.6875 4.57812ZM 40.9297 4.84375C 40.7109 4.80729 40.474 4.78906 40.2188 4.78906C 39.2708 4.78906 38.6276 5.19271 38.2891 6L 38.2891 12L 36.8438 12L 36.8438 3.54688L 38.25 3.54688L 38.2734 4.52344C 38.7474 3.76823 39.4193 3.39062 40.2891 3.39062C 40.5703 3.39062 40.7839 3.42708 40.9297 3.5L 40.9297 4.84375ZM 47.1719 12C 47.0885 11.8333 47.0208 11.5365 46.9688 11.1094C 46.2969 11.8073 45.4948 12.1562 44.5625 12.1562C 43.7292 12.1562 43.0443 11.9219 42.5078 11.4531C 41.9766 10.9792 41.7109 10.3802 41.7109 9.6562C 41.7109 8.776 42.0443 8.0938 42.7109 7.6094C 43.3828 7.1198 44.3255 6.875 45.5391 6.875L 46.9453 6.875L 46.9453 6.21094C 46.9453 5.70573 46.7943 5.30469 46.4922 5.00781C 46.1901 4.70573 45.7448 4.55469 45.1562 4.55469C 44.6406 4.55469 44.2083 4.6849 43.8594 4.94531C 43.5104 5.20573 43.3359 5.52083 43.3359 5.89062L 41.8828 5.89062C 41.8828 5.46875 42.0312 5.0625 42.3281 4.67188C 42.6302 4.27604 43.0365 3.96354 43.5469 3.73438C 44.0625 3.50521 44.6276 3.39062 45.2422 3.39062C 46.2161 3.39062 46.9792 3.63542 47.5312 4.125C 48.0833 4.60938 48.3698 5.27865 48.3906 6.13281L 48.3906 10.0234C 48.3906 10.7995 48.4896 11.4167 48.6875 11.875L 48.6875 12L 47.1719 12ZM 44.7734 10.8984C 45.2266 10.8984 45.6562 10.7812 46.0625 10.5469C 46.4688 10.3125 46.763 10.0078 46.9453 9.6328L 46.9453 7.8984L 45.8125 7.8984C 44.0417 7.8984 43.1562 8.4167 43.1562 9.4531C 43.1562 9.9062 43.3073 10.2604 43.6094 10.5156C 43.9115 10.7708 44.2995 10.8984 44.7734 10.8984ZM 52.2266 12L 50.7812 12L 50.7812 0L 52.2266 0L 52.2266 12ZM 10.9844 31L 10.9844 23.6641L 9.6484 23.6641L 9.6484 22.5469L 10.9844 22.5469L 10.9844 21.6797C 10.9844 20.7734 11.2266 20.0729 11.7109 19.5781C 12.1953 19.0833 12.8802 18.8359 13.7656 18.8359C 14.099 18.8359 14.4297 18.8802 14.7578 18.9688L 14.6797 20.1406C 14.4349 20.0938 14.1745 20.0703 13.8984 20.0703C 13.4297 20.0703 13.0677 20.2083 12.8125 20.4844C 12.5573 20.7552 12.4297 21.1458 12.4297 21.6562L 12.4297 22.5469L 14.2344 22.5469L 14.2344 23.6641L 12.4297 23.6641L 12.4297 31L 10.9844 31ZM 15.4531 26.6953C 15.4531 25.8672 15.6146 25.1224 15.9375 24.4609C 16.2656 23.7995 16.7188 23.2891 17.2969 22.9297C 17.8802 22.5703 18.5443 22.3906 19.2891 22.3906C 20.4401 22.3906 21.3698 22.7891 22.0781 23.5859C 22.7917 24.3828 23.1484 25.4427 23.1484 26.7656L 23.1484 26.8672C 23.1484 27.6901 22.9896 28.4297 22.6719 29.0859C 22.3594 29.737 21.9089 30.2448 21.3203 30.6094C 20.737 30.974 20.0651 31.1562 19.3047 31.1562C 18.1589 31.1562 17.2292 30.7578 16.5156 29.9609C 15.8073 29.1641 15.4531 28.1094 15.4531 26.7969L 15.4531 26.6953ZM 16.9062 26.8672C 16.9062 27.8047 17.1224 28.5573 17.5547 29.125C 17.9922 29.6927 18.5755 29.9766 19.3047 29.9766C 20.0391 29.9766 20.6224 29.6901 21.0547 29.1172C 21.487 28.5391 21.7031 27.7318 21.7031 26.6953C 21.7031 25.7682 21.4818 25.0182 21.0391 24.4453C 20.6016 23.8672 20.0182 23.5781 19.2891 23.5781C 18.5755 23.5781 18 23.862 17.5625 24.4297C 17.125 24.9974 16.9062 25.8099 16.9062 26.8672ZM 29.0469 23.8438C 28.8281 23.8073 28.5911 23.7891 28.3359 23.7891C 27.388 23.7891 26.7448 24.1927 26.4062 25L 26.4062 31L 24.9609 31L 24.9609 22.5469L 26.3672 22.5469L 26.3906 23.5234C 26.8646 22.7682 27.5365 22.3906 28.4062 22.3906C 28.6875 22.3906 28.901 22.4271 29.0469 22.5L 29.0469 23.8438ZM 31.7422 22.5469L 31.7812 23.4844C 32.401 22.7552 33.237 22.3906 34.2891 22.3906C 35.4714 22.3906 36.276 22.8438 36.7031 23.75C 36.9844 23.3438 37.349 23.0156 37.7969 22.7656C 38.25 22.5156 38.7839 22.3906 39.3984 22.3906C 41.2526 22.3906 42.1953 23.3724 42.2266 25.3359L 42.2266 31L 40.7812 31L 40.7812 25.4219C 40.7812 24.8177 40.6432 24.3672 40.3672 24.0703C 40.0911 23.7682 39.6276 23.6172 38.9766 23.6172C 38.4401 23.6172 37.9948 23.7786 37.6406 24.1016C 37.2865 24.4193 37.0807 24.849 37.0234 25.3906L 37.0234 31L 35.5703 31L 35.5703 25.4609C 35.5703 24.2318 34.9688 23.6172 33.7656 23.6172C 32.8177 23.6172 32.1693 24.0208 31.8203 24.8281L 31.8203 31L 30.375 31L 30.375 22.5469L 31.7422 22.5469Z" transform="translate(190.078 0)" fill="black"/>
</g>
</g>
<g id="Augmented Matrix">
<g id="Vector_13">
<path d="M 7.38281 9.0312L 2.61719 9.0312L 1.54687 12L 0 12L 4.34375 0.625L 5.65625 0.625L 10.0078 12L 8.46875 12L 7.38281 9.0312ZM 3.07031 7.7969L 6.9375 7.7969L 5 2.47656L 3.07031 7.7969ZM 16.4375 11.1641C 15.8751 11.8255 15.0494 12.1562 13.9609 12.1562C 13.0598 12.1562 12.3723 11.8958 11.8984 11.375C 11.4297 10.849 11.1927 10.0729 11.1875 9.0469L 11.1875 3.54688L 12.6328 3.54688L 12.6328 9.0078C 12.6328 10.2891 13.1536 10.9297 14.1953 10.9297C 15.2994 10.9297 16.0339 10.5182 16.3985 9.6953L 16.3985 3.54688L 17.8438 3.54688L 17.8438 12L 16.4688 12L 16.4375 11.1641ZM 19.7031 7.7031C 19.7031 6.38542 20.0078 5.33854 20.6171 4.5625C 21.2265 3.78125 22.0338 3.39062 23.039 3.39062C 24.0703 3.39062 24.875 3.75521 25.4531 4.48438L 25.5235 3.54688L 26.8438 3.54688L 26.8438 11.7969C 26.8438 12.8906 26.5182 13.7526 25.8671 14.3828C 25.2213 15.013 24.3516 15.3281 23.2579 15.3281C 22.6485 15.3281 22.052 15.1979 21.4688 14.9375C 20.8855 14.6771 20.4402 14.3203 20.1329 13.8672L 20.8829 13C 21.5027 13.7656 22.2605 14.1484 23.1562 14.1484C 23.8594 14.1484 24.4062 13.9505 24.7969 13.5547C 25.1928 13.1589 25.3906 12.6016 25.3906 11.8828L 25.3906 11.1562C 24.8125 11.8229 24.0235 12.1562 23.0235 12.1562C 22.0339 12.1562 21.2317 11.7578 20.6171 10.9609C 20.0078 10.1641 19.7031 9.0781 19.7031 7.7031ZM 21.1562 7.8672C 21.1562 8.8203 21.3515 9.5703 21.7421 10.1172C 22.1328 10.6589 22.6797 10.9297 23.3829 10.9297C 24.2943 10.9297 24.9636 10.5156 25.3906 9.6875L 25.3906 5.82812C 24.948 5.02083 24.2839 4.61719 23.3985 4.61719C 22.6954 4.61719 22.1458 4.89062 21.75 5.4375C 21.3541 5.98438 21.1562 6.79427 21.1562 7.8672ZM 30.3906 3.54688L 30.4296 4.48438C 31.0494 3.75521 31.8855 3.39062 32.9375 3.39062C 34.1198 3.39062 34.9244 3.84375 35.3516 4.75C 35.6329 4.34375 35.9973 4.01562 36.4454 3.76562C 36.8984 3.51562 37.4322 3.39062 38.0468 3.39062C 39.901 3.39062 40.8438 4.3724 40.875 6.33594L 40.875 12L 39.4296 12L 39.4296 6.42188C 39.4296 5.81771 39.2917 5.36719 39.0157 5.07031C 38.7396 4.76823 38.2761 4.61719 37.625 4.61719C 37.0886 4.61719 36.6432 4.77865 36.2891 5.10156C 35.9349 5.41927 35.7291 5.84896 35.6718 6.39062L 35.6718 12L 34.2188 12L 34.2188 6.46094C 34.2188 5.23177 33.6171 4.61719 32.4141 4.61719C 31.4662 4.61719 30.8178 5.02083 30.4688 5.82812L 30.4688 12L 29.0235 12L 29.0235 3.54688L 30.3906 3.54688ZM 46.5704 12.1562C 45.4244 12.1562 44.4921 11.7812 43.7734 11.0312C 43.0546 10.276 42.6954 9.2682 42.6954 8.0078L 42.6954 7.7422C 42.6954 6.90365 42.8541 6.15625 43.1718 5.5C 43.4947 4.83854 43.9428 4.32292 44.5157 3.95312C 45.0938 3.57812 45.7188 3.39062 46.3907 3.39062C 47.4896 3.39062 48.3438 3.7526 48.9532 4.47656C 49.5625 5.20052 49.8671 6.23698 49.8671 7.5859L 49.8671 8.1875L 44.1407 8.1875C 44.1615 9.0208 44.4036 9.6953 44.8671 10.2109C 45.3359 10.7214 45.9296 10.9766 46.6484 10.9766C 47.1588 10.9766 47.5912 10.8724 47.9454 10.6641C 48.2994 10.4557 48.6093 10.1797 48.875 9.8359L 49.7579 10.5234C 49.0494 11.612 47.9869 12.1562 46.5704 12.1562ZM 46.3907 4.57812C 45.8073 4.57812 45.3177 4.79167 44.9218 5.21875C 44.526 5.64062 44.2812 6.23438 44.1875 7L 48.4218 7L 48.4218 6.89062C 48.3802 6.15625 48.1823 5.58854 47.8282 5.1875C 47.474 4.78125 46.9948 4.57812 46.3907 4.57812ZM 52.9141 3.54688L 52.9609 4.60938C 53.6068 3.79688 54.4506 3.39062 55.4921 3.39062C 57.2786 3.39062 58.1796 4.39844 58.1954 6.41406L 58.1954 12L 56.75 12L 56.75 6.40625C 56.7448 5.79688 56.6042 5.34635 56.3282 5.05469C 56.0573 4.76302 55.6329 4.61719 55.0546 4.61719C 54.5859 4.61719 54.1744 4.74219 53.8204 4.99219C 53.4662 5.24219 53.1902 5.57031 52.9921 5.97656L 52.9921 12L 51.5468 12L 51.5468 3.54688L 52.9141 3.54688ZM 62.3359 1.5L 62.3359 3.54688L 63.914 3.54688L 63.914 4.66406L 62.3359 4.66406L 62.3359 9.9062C 62.3359 10.2448 62.4062 10.5 62.5468 10.6719C 62.6874 10.8385 62.9271 10.9219 63.2657 10.9219C 63.4323 10.9219 63.6614 10.8906 63.9531 10.8281L 63.9531 12C 63.5729 12.1042 63.2032 12.1562 62.8438 12.1562C 62.1979 12.1562 61.7109 11.9609 61.3829 11.5703C 61.0546 11.1797 60.8907 10.625 60.8907 9.9062L 60.8907 4.66406L 59.3516 4.66406L 59.3516 3.54688L 60.8907 3.54688L 60.8907 1.5L 62.3359 1.5ZM 69.1171 12.1562C 67.9714 12.1562 67.039 11.7812 66.3204 11.0312C 65.6015 10.276 65.2421 9.2682 65.2421 8.0078L 65.2421 7.7422C 65.2421 6.90365 65.401 6.15625 65.7188 5.5C 66.0416 4.83854 66.4895 4.32292 67.0624 3.95312C 67.6406 3.57812 68.2656 3.39062 68.9374 3.39062C 70.0364 3.39062 70.8907 3.7526 71.5001 4.47656C 72.1094 5.20052 72.414 6.23698 72.414 7.5859L 72.414 8.1875L 66.6874 8.1875C 66.7083 9.0208 66.9505 9.6953 67.414 10.2109C 67.8829 10.7214 68.4765 10.9766 69.1954 10.9766C 69.7057 10.9766 70.138 10.8724 70.4921 10.6641C 70.8464 10.4557 71.1562 10.1797 71.4219 9.8359L 72.3046 10.5234C 71.5964 11.612 70.5339 12.1562 69.1171 12.1562ZM 68.9374 4.57812C 68.3541 4.57812 67.8645 4.79167 67.4688 5.21875C 67.073 5.64062 66.8282 6.23438 66.7344 7L 70.9688 7L 70.9688 6.89062C 70.927 6.15625 70.7292 5.58854 70.3751 5.1875C 70.0209 4.78125 69.5416 4.57812 68.9374 4.57812ZM 73.7421 7.7031C 73.7421 6.40625 74.0494 5.36458 74.664 4.57812C 75.2786 3.78646 76.0834 3.39062 77.0781 3.39062C 78.0677 3.39062 78.8515 3.72917 79.4296 4.40625L 79.4296 0L 80.8751 0L 80.8751 12L 79.5469 12L 79.4765 11.0938C 78.8984 11.8021 78.0938 12.1562 77.0624 12.1562C 76.0833 12.1562 75.2838 11.7552 74.664 10.9531C 74.0494 10.151 73.7421 9.1042 73.7421 7.8125L 73.7421 7.7031ZM 75.1874 7.8672C 75.1874 8.8255 75.3855 9.5755 75.7812 10.1172C 76.177 10.6589 76.724 10.9297 77.4219 10.9297C 78.3386 10.9297 79.0079 10.5182 79.4296 9.6953L 79.4296 5.8125C 78.9974 5.01562 78.3333 4.61719 77.4374 4.61719C 76.7291 4.61719 76.177 4.89062 75.7812 5.4375C 75.3855 5.98438 75.1874 6.79427 75.1874 7.8672ZM 21.586 19.625L 25.3046 28.9062L 29.0235 19.625L 30.9688 19.625L 30.9688 31L 29.4688 31L 29.4688 26.5703L 29.6094 21.7891L 25.875 31L 24.7265 31L 21 21.8125L 21.1485 26.5703L 21.1485 31L 19.6485 31L 19.6485 19.625L 21.586 19.625ZM 38.6093 31C 38.526 30.8333 38.4584 30.5365 38.4062 30.1094C 37.7343 30.8073 36.9323 31.1562 36 31.1562C 35.1666 31.1562 34.4818 30.9219 33.9454 30.4531C 33.4141 29.9792 33.1484 29.3802 33.1484 28.6562C 33.1484 27.776 33.4818 27.0938 34.1484 26.6094C 34.8204 26.1198 35.7631 25.875 36.9766 25.875L 38.3829 25.875L 38.3829 25.2109C 38.3829 24.7057 38.2318 24.3047 37.9296 24.0078C 37.6277 23.7057 37.1823 23.5547 36.5938 23.5547C 36.0782 23.5547 35.6458 23.6849 35.2968 23.9453C 34.9479 24.2057 34.7734 24.5208 34.7734 24.8906L 33.3204 24.8906C 33.3204 24.4688 33.4688 24.0625 33.7657 23.6719C 34.0678 23.276 34.4739 22.9635 34.9843 22.7344C 35.5 22.5052 36.0652 22.3906 36.6796 22.3906C 37.6536 22.3906 38.4166 22.6354 38.9688 23.125C 39.5209 23.6094 39.8073 24.2786 39.8282 25.1328L 39.8282 29.0234C 39.8282 29.7995 39.927 30.4167 40.125 30.875L 40.125 31L 38.6093 31ZM 36.2109 29.8984C 36.664 29.8984 37.0938 29.7812 37.5 29.5469C 37.9062 29.3125 38.2006 29.0078 38.3829 28.6328L 38.3829 26.8984L 37.25 26.8984C 35.4791 26.8984 34.5938 27.4167 34.5938 28.4531C 34.5938 28.9062 34.7447 29.2604 35.0468 29.5156C 35.3489 29.7708 35.7369 29.8984 36.2109 29.8984ZM 44.0546 20.5L 44.0546 22.5469L 45.6329 22.5469L 45.6329 23.6641L 44.0546 23.6641L 44.0546 28.9062C 44.0546 29.2448 44.1251 29.5 44.2657 29.6719C 44.4062 29.8385 44.6458 29.9219 44.9843 29.9219C 45.151 29.9219 45.3802 29.8906 45.6718 29.8281L 45.6718 31C 45.2916 31.1042 44.9219 31.1562 44.5625 31.1562C 43.9166 31.1562 43.4296 30.9609 43.1016 30.5703C 42.7735 30.1797 42.6093 29.625 42.6093 28.9062L 42.6093 23.6641L 41.0704 23.6641L 41.0704 22.5469L 42.6093 22.5469L 42.6093 20.5L 44.0546 20.5ZM 51.4141 23.8438C 51.1954 23.8073 50.9584 23.7891 50.7032 23.7891C 49.7553 23.7891 49.1119 24.1927 48.7734 25L 48.7734 31L 47.3282 31L 47.3282 22.5469L 48.7343 22.5469L 48.7579 23.5234C 49.2318 22.7682 49.9036 22.3906 50.7734 22.3906C 51.0546 22.3906 51.2682 22.4271 51.4141 22.5L 51.4141 23.8438ZM 54.3204 31L 52.875 31L 52.875 22.5469L 54.3204 22.5469L 54.3204 31ZM 52.7579 20.3047C 52.7579 20.0703 52.8282 19.8724 52.9688 19.7109C 53.1146 19.5495 53.3281 19.4688 53.6093 19.4688C 53.8906 19.4688 54.1041 19.5495 54.25 19.7109C 54.3959 19.8724 54.4688 20.0703 54.4688 20.3047C 54.4688 20.5391 54.3959 20.7344 54.25 20.8906C 54.1041 21.0469 53.8906 21.125 53.6093 21.125C 53.3281 21.125 53.1146 21.0469 52.9688 20.8906C 52.8282 20.7344 52.7579 20.5391 52.7579 20.3047ZM 59.4766 25.6328L 61.3516 22.5469L 63.0391 22.5469L 60.2734 26.7266L 63.125 31L 61.4532 31L 59.5 27.8359L 57.5468 31L 55.8671 31L 58.7188 26.7266L 55.9532 22.5469L 57.625 22.5469L 59.4766 25.6328Z" transform="translate(347.422 0)" fill="black"/>
</g>
</g>
<g id="30x   y = 1000 50x   y = 100_2">
<g id="Vector_14">
<path d="M 2.31251 5.14063L 3.39844 5.14063C 4.08073 5.13021 4.61718 4.95052 5.00781 4.60156C 5.39843 4.2526 5.59375 3.78125 5.59375 3.1875C 5.59375 1.85417 4.92968 1.1875 3.60156 1.1875C 2.97656 1.1875 2.47656 1.36719 2.10156 1.72656C 1.73177 2.08073 1.54688 2.55208 1.54688 3.14063L 0.101563 3.14063C 0.101563 2.23958 0.429685 1.49219 1.08593 0.89844C 1.7474 0.29948 2.58593 0 3.60156 0C 4.67447 0 5.51562 0.28385 6.125 0.85156C 6.73438 1.41927 7.03906 2.20833 7.03906 3.21875C 7.03906 3.71354 6.8776 4.19271 6.55469 4.65625C 6.23698 5.11979 5.80208 5.46615 5.25 5.69531C 5.875 5.89323 6.35677 6.22135 6.69531 6.67965C 7.03906 7.13805 7.21094 7.69795 7.21094 8.35935C 7.21094 9.38025 6.8776 10.1902 6.21094 10.7891C 5.54428 11.3881 4.67708 11.6875 3.60938 11.6875C 2.54167 11.6875 1.67188 11.3984 1.00001 10.8203C 0.333335 10.2421 0 9.47915 0 8.53125L 1.45312 8.53125C 1.45312 9.13025 1.64843 9.60935 2.03906 9.96875C 2.42968 10.3281 2.95312 10.5078 3.60938 10.5078C 4.30729 10.5078 4.84115 10.3256 5.21094 9.96095C 5.58073 9.59635 5.76562 9.07295 5.76562 8.39065C 5.76562 7.72915 5.56251 7.22135 5.15625 6.86715C 4.75001 6.51302 4.16407 6.33073 3.39844 6.32031L 2.31251 6.32031L 2.31251 5.14063ZM 16.3281 6.67965C 16.3281 8.37235 16.039 9.63025 15.4609 10.4531C 14.8828 11.276 13.9791 11.6875 12.75 11.6875C 11.5364 11.6875 10.638 11.2865 10.0547 10.4844C 9.47132 9.67705 9.16927 8.47395 9.14843 6.87505L 9.14843 4.94531C 9.14843 3.27344 9.43752 2.03125 10.0156 1.21875C 10.5937 0.40625 11.5 0 12.7344 0C 13.9583 0 14.8594 0.39323 15.4375 1.17969C 16.0156 1.96094 16.3125 3.16927 16.3281 4.80469L 16.3281 6.67965ZM 14.8828 4.70313C 14.8828 3.47917 14.7109 2.58854 14.3672 2.03125C 14.0234 1.46875 13.4791 1.1875 12.7344 1.1875C 11.9948 1.1875 11.4557 1.46615 11.1172 2.02344C 10.7786 2.58073 10.6041 3.4375 10.5937 4.59375L 10.5937 6.90625C 10.5937 8.13545 10.7708 9.04425 11.125 9.63285C 11.4844 10.2161 12.026 10.5078 12.75 10.5078C 13.4635 10.5078 13.9922 10.2318 14.3359 9.67965C 14.6849 9.12765 14.8672 8.25785 14.8828 7.07035L 14.8828 4.70313ZM 21.164 6.16406L 23.039 3.07813L 24.7265 3.07813L 21.9609 7.25785L 24.8125 11.5312L 23.1406 11.5312L 21.1875 8.36715L 19.2344 11.5312L 17.5547 11.5312L 20.4062 7.25785L 17.6406 3.07813L 19.3125 3.07813L 21.164 6.16406ZM 33.2422 7.28905L 29.4297 7.28905L 29.4297 6.10937L 33.2422 6.10937L 33.2422 7.28905ZM 41.3906 9.41405L 43.3594 3.07813L 44.9062 3.07813L 41.5078 12.836C 40.9817 14.2422 40.1458 14.9454 39 14.9454L 38.7265 14.9219L 38.1875 14.8204L 38.1875 13.6485L 38.5781 13.6796C 39.0677 13.6796 39.4479 13.5808 39.7187 13.3829C 39.9948 13.1849 40.2213 12.823 40.3984 12.2969L 40.7187 11.4375L 37.7031 3.07813L 39.2812 3.07813L 41.3906 9.41405ZM 60.75 5.17187L 54.2344 5.17187L 54.2344 3.91406L 60.75 3.91406L 60.75 5.17187ZM 60.75 8.41405L 54.2344 8.41405L 54.2344 7.16405L 60.75 7.16405L 60.75 8.41405ZM 75.4609 11.5312L 74.0078 11.5312L 74.0078 1.89844L 71.0937 2.96875L 71.0937 1.65625L 75.2344 0.10156L 75.4609 0.10156L 75.4609 11.5312ZM 86.8281 6.67965C 86.8281 8.37235 86.539 9.63025 85.9609 10.4531C 85.3828 11.276 84.4791 11.6875 83.25 11.6875C 82.0364 11.6875 81.138 11.2865 80.5547 10.4844C 79.9713 9.67705 79.6692 8.47395 79.6484 6.87505L 79.6484 4.94531C 79.6484 3.27344 79.9375 2.03125 80.5156 1.21875C 81.0937 0.40625 82 0 83.2344 0C 84.4583 0 85.3594 0.39323 85.9375 1.17969C 86.5156 1.96094 86.8125 3.16927 86.8281 4.80469L 86.8281 6.67965ZM 85.3828 4.70313C 85.3828 3.47917 85.2109 2.58854 84.8672 2.03125C 84.5234 1.46875 83.9791 1.1875 83.2344 1.1875C 82.4948 1.1875 81.9557 1.46615 81.6172 2.02344C 81.2786 2.58073 81.1041 3.4375 81.0937 4.59375L 81.0937 6.90625C 81.0937 8.13545 81.2708 9.04425 81.625 9.63285C 81.9844 10.2161 82.526 10.5078 83.25 10.5078C 83.9635 10.5078 84.4922 10.2318 84.8359 9.67965C 85.1849 9.12765 85.3672 8.25785 85.3828 7.07035L 85.3828 4.70313ZM 95.8125 6.67965C 95.8125 8.37235 95.5234 9.63025 94.9453 10.4531C 94.3672 11.276 93.4635 11.6875 92.2344 11.6875C 91.0208 11.6875 90.1224 11.2865 89.539 10.4844C 88.9557 9.67705 88.6536 8.47395 88.6328 6.87505L 88.6328 4.94531C 88.6328 3.27344 88.9218 2.03125 89.5 1.21875C 90.0781 0.40625 90.9844 0 92.2187 0C 93.4427 0 94.3437 0.39323 94.9218 1.17969C 95.5 1.96094 95.7968 3.16927 95.8125 4.80469L 95.8125 6.67965ZM 94.3672 4.70313C 94.3672 3.47917 94.1953 2.58854 93.8515 2.03125C 93.5078 1.46875 92.9635 1.1875 92.2187 1.1875C 91.4791 1.1875 90.9401 1.46615 90.6015 2.02344C 90.263 2.58073 90.0885 3.4375 90.0781 4.59375L 90.0781 6.90625C 90.0781 8.13545 90.2552 9.04425 90.6094 9.63285C 90.9687 10.2161 91.5104 10.5078 92.2344 10.5078C 92.9479 10.5078 93.4765 10.2318 93.8203 9.67965C 94.1692 9.12765 94.3515 8.25785 94.3672 7.07035L 94.3672 4.70313ZM 104.797 6.67965C 104.797 8.37235 104.508 9.63025 103.93 10.4531C 103.352 11.276 102.448 11.6875 101.219 11.6875C 100.006 11.6875 99.1067 11.2865 98.5234 10.4844C 97.9401 9.67705 97.638 8.47395 97.6172 6.87505L 97.6172 4.94531C 97.6172 3.27344 97.9062 2.03125 98.4844 1.21875C 99.0625 0.40625 99.9686 0 101.204 0C 102.427 0 103.328 0.39323 103.907 1.17969C 104.485 1.96094 104.782 3.16927 104.797 4.80469L 104.797 6.67965ZM 103.352 4.70313C 103.352 3.47917 103.18 2.58854 102.836 2.03125C 102.493 1.46875 101.948 1.1875 101.204 1.1875C 100.464 1.1875 99.9246 1.46615 99.5856 2.02344C 99.2474 2.58073 99.0729 3.4375 99.0625 4.59375L 99.0625 6.90625C 99.0625 8.13545 99.2396 9.04425 99.5936 9.63285C 99.9536 10.2161 100.495 10.5078 101.219 10.5078C 101.933 10.5078 102.461 10.2318 102.805 9.67965C 103.154 9.12765 103.336 8.25785 103.352 7.07035L 103.352 4.70313ZM 0.875005 24.8281L 1.45312 19.1562L 7.28125 19.1562L 7.28125 20.4921L 2.67969 20.4921L 2.33594 23.5938C 2.89323 23.2656 3.52605 23.1015 4.23438 23.1015C 5.27083 23.1015 6.09375 23.4454 6.70312 24.1329C 7.3125 24.8152 7.61718 25.7395 7.61718 26.9062C 7.61718 28.0781 7.29947 29.0026 6.66406 29.6796C 6.03385 30.3515 5.15104 30.6875 4.01562 30.6875C 3.01042 30.6875 2.19011 30.4089 1.55469 29.8516C 0.919275 29.2943 0.557295 28.5234 0.468745 27.539L 1.83594 27.539C 1.92448 28.1901 2.15624 28.6823 2.53124 29.0157C 2.90624 29.3438 3.40105 29.5079 4.01562 29.5079C 4.6875 29.5079 5.21355 29.2787 5.59375 28.8204C 5.97917 28.3619 6.17188 27.7292 6.17188 26.9219C 6.17188 26.1614 5.96354 25.552 5.54688 25.0938C 5.13542 24.6303 4.58594 24.3985 3.89844 24.3985C 3.26823 24.3985 2.77343 24.5365 2.41406 24.8125L 2.03124 25.125L 0.875005 24.8281ZM 16.3281 25.6796C 16.3281 27.3723 16.039 28.6303 15.4609 29.4532C 14.8828 30.2761 13.9791 30.6875 12.75 30.6875C 11.5364 30.6875 10.638 30.2864 10.0547 29.4843C 9.47132 28.677 9.16927 27.4739 9.14843 25.875L 9.14843 23.9454C 9.14843 22.2735 9.43752 21.0312 10.0156 20.2188C 10.5937 19.4062 11.5 19 12.7344 19C 13.9583 19 14.8594 19.3932 15.4375 20.1796C 16.0156 20.9609 16.3125 22.1692 16.3281 23.8046L 16.3281 25.6796ZM 14.8828 23.7031C 14.8828 22.4791 14.7109 21.5886 14.3672 21.0312C 14.0234 20.4688 13.4791 20.1875 12.7344 20.1875C 11.9948 20.1875 11.4557 20.4662 11.1172 21.0235C 10.7786 21.5808 10.6041 22.4375 10.5937 23.5938L 10.5937 25.9062C 10.5937 27.1355 10.7708 28.0443 11.125 28.6329C 11.4844 29.2162 12.026 29.5079 12.75 29.5079C 13.4635 29.5079 13.9922 29.2317 14.3359 28.6796C 14.6849 28.1276 14.8672 27.2579 14.8828 26.0704L 14.8828 23.7031ZM 21.164 25.164L 23.039 22.0781L 24.7265 22.0781L 21.9609 26.2579L 24.8125 30.5312L 23.1406 30.5312L 21.1875 27.3671L 19.2344 30.5312L 17.5547 30.5312L 20.4062 26.2579L 17.6406 22.0781L 19.3125 22.0781L 21.164 25.164ZM 33.2422 26.289L 29.4297 26.289L 29.4297 25.1094L 33.2422 25.1094L 33.2422 26.289ZM 41.3906 28.414L 43.3594 22.0781L 44.9062 22.0781L 41.5078 31.8359C 40.9817 33.2421 40.1458 33.9454 39 33.9454L 38.7265 33.9218L 38.1875 33.8204L 38.1875 32.6484L 38.5781 32.6796C 39.0677 32.6796 39.4479 32.5807 39.7187 32.3829C 39.9948 32.1848 40.2213 31.8229 40.3984 31.2968L 40.7187 30.4375L 37.7031 22.0781L 39.2812 22.0781L 41.3906 28.414ZM 60.75 24.1719L 54.2344 24.1719L 54.2344 22.914L 60.75 22.914L 60.75 24.1719ZM 60.75 27.414L 54.2344 27.414L 54.2344 26.164L 60.75 26.164L 60.75 27.414ZM 75.4609 30.5312L 74.0078 30.5312L 74.0078 20.8985L 71.0937 21.9688L 71.0937 20.6562L 75.2344 19.1015L 75.4609 19.1015L 75.4609 30.5312ZM 86.8281 25.6796C 86.8281 27.3723 86.539 28.6303 85.9609 29.4532C 85.3828 30.2761 84.4791 30.6875 83.25 30.6875C 82.0364 30.6875 81.138 30.2864 80.5547 29.4843C 79.9713 28.677 79.6692 27.4739 79.6484 25.875L 79.6484 23.9454C 79.6484 22.2735 79.9375 21.0312 80.5156 20.2188C 81.0937 19.4062 82 19 83.2344 19C 84.4583 19 85.3594 19.3932 85.9375 20.1796C 86.5156 20.9609 86.8125 22.1692 86.8281 23.8046L 86.8281 25.6796ZM 85.3828 23.7031C 85.3828 22.4791 85.2109 21.5886 84.8672 21.0312C 84.5234 20.4688 83.9791 20.1875 83.2344 20.1875C 82.4948 20.1875 81.9557 20.4662 81.6172 21.0235C 81.2786 21.5808 81.1041 22.4375 81.0937 23.5938L 81.0937 25.9062C 81.0937 27.1355 81.2708 28.0443 81.625 28.6329C 81.9844 29.2162 82.526 29.5079 83.25 29.5079C 83.9635 29.5079 84.4922 29.2317 84.8359 28.6796C 85.1849 28.1276 85.3672 27.2579 85.3828 26.0704L 85.3828 23.7031ZM 95.8125 25.6796C 95.8125 27.3723 95.5234 28.6303 94.9453 29.4532C 94.3672 30.2761 93.4635 30.6875 92.2344 30.6875C 91.0208 30.6875 90.1224 30.2864 89.539 29.4843C 88.9557 28.677 88.6536 27.4739 88.6328 25.875L 88.6328 23.9454C 88.6328 22.2735 88.9218 21.0312 89.5 20.2188C 90.0781 19.4062 90.9844 19 92.2187 19C 93.4427 19 94.3437 19.3932 94.9218 20.1796C 95.5 20.9609 95.7968 22.1692 95.8125 23.8046L 95.8125 25.6796ZM 94.3672 23.7031C 94.3672 22.4791 94.1953 21.5886 93.8515 21.0312C 93.5078 20.4688 92.9635 20.1875 92.2187 20.1875C 91.4791 20.1875 90.9401 20.4662 90.6015 21.0235C 90.263 21.5808 90.0885 22.4375 90.0781 23.5938L 90.0781 25.9062C 90.0781 27.1355 90.2552 28.0443 90.6094 28.6329C 90.9687 29.2162 91.5104 29.5079 92.2344 29.5079C 92.9479 29.5079 93.4765 29.2317 93.8203 28.6796C 94.1692 28.1276 94.3515 27.2579 94.3672 26.0704L 94.3672 23.7031Z" transform="translate(160.562 50.4688)" fill="#333333"/>
</g>
</g>
<g id="30  1  1000 50  1  100_2">
<g id="Vector_15">
<path d="M 2.31251 5.14063L 3.39844 5.14063C 4.08073 5.13021 4.61718 4.95052 5.00781 4.60156C 5.39843 4.2526 5.59375 3.78125 5.59375 3.1875C 5.59375 1.85417 4.92968 1.1875 3.60156 1.1875C 2.97656 1.1875 2.47656 1.36719 2.10156 1.72656C 1.73177 2.08073 1.54688 2.55208 1.54688 3.14063L 0.101563 3.14063C 0.101563 2.23958 0.429685 1.49219 1.08593 0.89844C 1.7474 0.29948 2.58593 0 3.60156 0C 4.67447 0 5.51562 0.28385 6.125 0.85156C 6.73438 1.41927 7.03906 2.20833 7.03906 3.21875C 7.03906 3.71354 6.8776 4.19271 6.55469 4.65625C 6.23698 5.11979 5.80208 5.46615 5.25 5.69531C 5.875 5.89323 6.35677 6.22135 6.69531 6.67965C 7.03906 7.13805 7.21094 7.69795 7.21094 8.35935C 7.21094 9.38025 6.8776 10.1902 6.21094 10.7891C 5.54428 11.3881 4.67708 11.6875 3.60938 11.6875C 2.54167 11.6875 1.67188 11.3984 1.00001 10.8203C 0.333335 10.2421 0 9.47915 0 8.53125L 1.45312 8.53125C 1.45312 9.13025 1.64843 9.60935 2.03906 9.96875C 2.42968 10.3281 2.95312 10.5078 3.60938 10.5078C 4.30729 10.5078 4.84115 10.3256 5.21094 9.96095C 5.58073 9.59635 5.76562 9.07295 5.76562 8.39065C 5.76562 7.72915 5.56251 7.22135 5.15625 6.86715C 4.75001 6.51302 4.16407 6.33073 3.39844 6.32031L 2.31251 6.32031L 2.31251 5.14063ZM 16.3281 6.67965C 16.3281 8.37235 16.039 9.63025 15.4609 10.4531C 14.8828 11.276 13.9791 11.6875 12.75 11.6875C 11.5364 11.6875 10.638 11.2865 10.0547 10.4844C 9.47132 9.67705 9.16927 8.47395 9.14843 6.87505L 9.14843 4.94531C 9.14843 3.27344 9.43752 2.03125 10.0156 1.21875C 10.5937 0.40625 11.5 0 12.7344 0C 13.9583 0 14.8594 0.39323 15.4375 1.17969C 16.0156 1.96094 16.3125 3.16927 16.3281 4.80469L 16.3281 6.67965ZM 14.8828 4.70313C 14.8828 3.47917 14.7109 2.58854 14.3672 2.03125C 14.0234 1.46875 13.4791 1.1875 12.7344 1.1875C 11.9948 1.1875 11.4557 1.46615 11.1172 2.02344C 10.7786 2.58073 10.6041 3.4375 10.5937 4.59375L 10.5937 6.90625C 10.5937 8.13545 10.7708 9.04425 11.125 9.63285C 11.4844 10.2161 12.026 10.5078 12.75 10.5078C 13.4635 10.5078 13.9922 10.2318 14.3359 9.67965C 14.6849 9.12765 14.8672 8.25785 14.8828 7.07035L 14.8828 4.70313ZM 33.2422 7.28905L 29.4297 7.28905L 29.4297 6.10937L 33.2422 6.10937L 33.2422 7.28905ZM 39.2578 11.5312L 37.8047 11.5312L 37.8047 1.89844L 34.8906 2.96875L 34.8906 1.65625L 39.0312 0.10156L 39.2578 0.10156L 39.2578 11.5312ZM 62.5234 7.28905L 58.7109 7.28905L 58.7109 6.10937L 62.5234 6.10937L 62.5234 7.28905ZM 68.539 11.5312L 67.0859 11.5312L 67.0859 1.89844L 64.1718 2.96875L 64.1718 1.65625L 68.3125 0.10156L 68.539 0.10156L 68.539 11.5312ZM 79.9062 6.67965C 79.9062 8.37235 79.6172 9.63025 79.039 10.4531C 78.4609 11.276 77.5573 11.6875 76.3281 11.6875C 75.1146 11.6875 74.2161 11.2865 73.6328 10.4844C 73.0495 9.67705 72.7474 8.47395 72.7265 6.87505L 72.7265 4.94531C 72.7265 3.27344 73.0156 2.03125 73.5937 1.21875C 74.1718 0.40625 75.0781 0 76.3125 0C 77.5364 0 78.4375 0.39323 79.0156 1.17969C 79.5937 1.96094 79.8906 3.16927 79.9062 4.80469L 79.9062 6.67965ZM 78.4609 4.70313C 78.4609 3.47917 78.289 2.58854 77.9453 2.03125C 77.6015 1.46875 77.0573 1.1875 76.3125 1.1875C 75.5729 1.1875 75.0338 1.46615 74.6953 2.02344C 74.3567 2.58073 74.1823 3.4375 74.1718 4.59375L 74.1718 6.90625C 74.1718 8.13545 74.3489 9.04425 74.7031 9.63285C 75.0625 10.2161 75.6041 10.5078 76.3281 10.5078C 77.0416 10.5078 77.5703 10.2318 77.914 9.67965C 78.263 9.12765 78.4453 8.25785 78.4609 7.07035L 78.4609 4.70313ZM 88.8906 6.67965C 88.8906 8.37235 88.6015 9.63025 88.0234 10.4531C 87.4453 11.276 86.5416 11.6875 85.3125 11.6875C 84.0989 11.6875 83.2005 11.2865 82.6172 10.4844C 82.0338 9.67705 81.7317 8.47395 81.7109 6.87505L 81.7109 4.94531C 81.7109 3.27344 82 2.03125 82.5781 1.21875C 83.1562 0.40625 84.0625 0 85.2968 0C 86.5208 0 87.4218 0.39323 88 1.17969C 88.5781 1.96094 88.875 3.16927 88.8906 4.80469L 88.8906 6.67965ZM 87.4453 4.70313C 87.4453 3.47917 87.2734 2.58854 86.9297 2.03125C 86.5859 1.46875 86.0416 1.1875 85.2968 1.1875C 84.5573 1.1875 84.0182 1.46615 83.6797 2.02344C 83.3411 2.58073 83.1666 3.4375 83.1562 4.59375L 83.1562 6.90625C 83.1562 8.13545 83.3333 9.04425 83.6875 9.63285C 84.0468 10.2161 84.5885 10.5078 85.3125 10.5078C 86.026 10.5078 86.5547 10.2318 86.8984 9.67965C 87.2474 9.12765 87.4297 8.25785 87.4453 7.07035L 87.4453 4.70313ZM 97.875 6.67965C 97.875 8.37235 97.5859 9.63025 97.0078 10.4531C 96.4297 11.276 95.526 11.6875 94.2968 11.6875C 93.0833 11.6875 92.1849 11.2865 91.6015 10.4844C 91.0182 9.67705 90.7161 8.47395 90.6953 6.87505L 90.6953 4.94531C 90.6953 3.27344 90.9844 2.03125 91.5625 1.21875C 92.1406 0.40625 93.0468 0 94.2812 0C 95.5052 0 96.4062 0.39323 96.9844 1.17969C 97.5625 1.96094 97.8594 3.16927 97.875 4.80469L 97.875 6.67965ZM 96.4297 4.70313C 96.4297 3.47917 96.2578 2.58854 95.914 2.03125C 95.5703 1.46875 95.026 1.1875 94.2812 1.1875C 93.5416 1.1875 93.0026 1.46615 92.664 2.02344C 92.3255 2.58073 92.151 3.4375 92.1406 4.59375L 92.1406 6.90625C 92.1406 8.13545 92.3177 9.04425 92.6718 9.63285C 93.0312 10.2161 93.5729 10.5078 94.2968 10.5078C 95.0104 10.5078 95.539 10.2318 95.8828 9.67965C 96.2317 9.12765 96.414 8.25785 96.4297 7.07035L 96.4297 4.70313ZM 0.875005 24.8281L 1.45312 19.1562L 7.28125 19.1562L 7.28125 20.4921L 2.67969 20.4921L 2.33594 23.5938C 2.89323 23.2656 3.52605 23.1015 4.23438 23.1015C 5.27083 23.1015 6.09375 23.4454 6.70312 24.1329C 7.3125 24.8152 7.61718 25.7395 7.61718 26.9062C 7.61718 28.0781 7.29947 29.0026 6.66406 29.6796C 6.03385 30.3515 5.15104 30.6875 4.01562 30.6875C 3.01042 30.6875 2.19011 30.4089 1.55469 29.8516C 0.919275 29.2943 0.557295 28.5234 0.468745 27.539L 1.83594 27.539C 1.92448 28.1901 2.15624 28.6823 2.53124 29.0157C 2.90624 29.3438 3.40105 29.5079 4.01562 29.5079C 4.6875 29.5079 5.21355 29.2787 5.59375 28.8204C 5.97917 28.3619 6.17188 27.7292 6.17188 26.9219C 6.17188 26.1614 5.96354 25.552 5.54688 25.0938C 5.13542 24.6303 4.58594 24.3985 3.89844 24.3985C 3.26823 24.3985 2.77343 24.5365 2.41406 24.8125L 2.03124 25.125L 0.875005 24.8281ZM 16.3281 25.6796C 16.3281 27.3723 16.039 28.6303 15.4609 29.4532C 14.8828 30.2761 13.9791 30.6875 12.75 30.6875C 11.5364 30.6875 10.638 30.2864 10.0547 29.4843C 9.47132 28.677 9.16927 27.4739 9.14843 25.875L 9.14843 23.9454C 9.14843 22.2735 9.43752 21.0312 10.0156 20.2188C 10.5937 19.4062 11.5 19 12.7344 19C 13.9583 19 14.8594 19.3932 15.4375 20.1796C 16.0156 20.9609 16.3125 22.1692 16.3281 23.8046L 16.3281 25.6796ZM 14.8828 23.7031C 14.8828 22.4791 14.7109 21.5886 14.3672 21.0312C 14.0234 20.4688 13.4791 20.1875 12.7344 20.1875C 11.9948 20.1875 11.4557 20.4662 11.1172 21.0235C 10.7786 21.5808 10.6041 22.4375 10.5937 23.5938L 10.5937 25.9062C 10.5937 27.1355 10.7708 28.0443 11.125 28.6329C 11.4844 29.2162 12.026 29.5079 12.75 29.5079C 13.4635 29.5079 13.9922 29.2317 14.3359 28.6796C 14.6849 28.1276 14.8672 27.2579 14.8828 26.0704L 14.8828 23.7031ZM 33.2422 26.289L 29.4297 26.289L 29.4297 25.1094L 33.2422 25.1094L 33.2422 26.289ZM 39.2578 30.5312L 37.8047 30.5312L 37.8047 20.8985L 34.8906 21.9688L 34.8906 20.6562L 39.0312 19.1015L 39.2578 19.1015L 39.2578 30.5312ZM 62.5234 26.289L 58.7109 26.289L 58.7109 25.1094L 62.5234 25.1094L 62.5234 26.289ZM 68.539 30.5312L 67.0859 30.5312L 67.0859 20.8985L 64.1718 21.9688L 64.1718 20.6562L 68.3125 19.1015L 68.539 19.1015L 68.539 30.5312ZM 79.9062 25.6796C 79.9062 27.3723 79.6172 28.6303 79.039 29.4532C 78.4609 30.2761 77.5573 30.6875 76.3281 30.6875C 75.1146 30.6875 74.2161 30.2864 73.6328 29.4843C 73.0495 28.677 72.7474 27.4739 72.7265 25.875L 72.7265 23.9454C 72.7265 22.2735 73.0156 21.0312 73.5937 20.2188C 74.1718 19.4062 75.0781 19 76.3125 19C 77.5364 19 78.4375 19.3932 79.0156 20.1796C 79.5937 20.9609 79.8906 22.1692 79.9062 23.8046L 79.9062 25.6796ZM 78.4609 23.7031C 78.4609 22.4791 78.289 21.5886 77.9453 21.0312C 77.6015 20.4688 77.0573 20.1875 76.3125 20.1875C 75.5729 20.1875 75.0338 20.4662 74.6953 21.0235C 74.3567 21.5808 74.1823 22.4375 74.1718 23.5938L 74.1718 25.9062C 74.1718 27.1355 74.3489 28.0443 74.7031 28.6329C 75.0625 29.2162 75.6041 29.5079 76.3281 29.5079C 77.0416 29.5079 77.5703 29.2317 77.914 28.6796C 78.263 28.1276 78.4453 27.2579 78.4609 26.0704L 78.4609 23.7031ZM 88.8906 25.6796C 88.8906 27.3723 88.6015 28.6303 88.0234 29.4532C 87.4453 30.2761 86.5416 30.6875 85.3125 30.6875C 84.0989 30.6875 83.2005 30.2864 82.6172 29.4843C 82.0338 28.677 81.7317 27.4739 81.7109 25.875L 81.7109 23.9454C 81.7109 22.2735 82 21.0312 82.5781 20.2188C 83.1562 19.4062 84.0625 19 85.2968 19C 86.5208 19 87.4218 19.3932 88 20.1796C 88.5781 20.9609 88.875 22.1692 88.8906 23.8046L 88.8906 25.6796ZM 87.4453 23.7031C 87.4453 22.4791 87.2734 21.5886 86.9297 21.0312C 86.5859 20.4688 86.0416 20.1875 85.2968 20.1875C 84.5573 20.1875 84.0182 20.4662 83.6797 21.0235C 83.3411 21.5808 83.1666 22.4375 83.1562 23.5938L 83.1562 25.9062C 83.1562 27.1355 83.3333 28.0443 83.6875 28.6329C 84.0468 29.2162 84.5885 29.5079 85.3125 29.5079C 86.026 29.5079 86.5547 29.2317 86.8984 28.6796C 87.2474 28.1276 87.4297 27.2579 87.4453 26.0704L 87.4453 23.7031Z" transform="translate(337.562 49.4688)" fill="#333333"/>
</g>
</g>
<g id="Line 2_3">
<g id="Vector_16">
<path d="M 0 1L 49 1L 49 0L 0 0L 0 1Z" transform="matrix(0 1 -0.99936 0.0357696 329.827 40.9642)" fill="black"/>
</g>
</g>
<g id="Line 3_5">
<g id="Vector_17">
<path d="M 0 1L 6 1L 6 0L 0 0L 0 1Z" transform="translate(328.828 89)" fill="black"/>
</g>
</g>
<g id="Line 2_4">
<g id="Vector_18">
<path d="M 0 1L 48 1L 48 0L 0 0L 0 1Z" transform="matrix(0 -1 0.999386 -0.0350406 441.829 89.035)" fill="black"/>
</g>
</g>
<g id="Line 3_6">
<g id="Vector_19">
<path d="M 0 1L 6 1L 6 0L 0 0L 0 1Z" transform="translate(442.828 90) scale(-1)" fill="black"/>
</g>
</g>
<g id="Line_2">
<g id="Vector_20">
<path d="M 0 1L 43 1L 43 0L 0 0L 0 1Z" transform="matrix(0 1 -1 0 386.828 44)" fill="black"/>
</g>
</g>
<g id="Arrow 2">
<g id="Vector_21">
<path d="M 13.3536 4.03554C 13.5488 3.84027 13.5488 3.52369 13.3536 3.32843L 10.1716 0.146452C 9.97631 -0.0488176 9.65973 -0.0488176 9.46447 0.146452C 9.2692 0.341712 9.2692 0.658293 9.46447 0.853553L 12.2929 3.68198L 9.46447 6.51041C 9.2692 6.70567 9.2692 7.02225 9.46447 7.21751C 9.65973 7.41278 9.97631 7.41278 10.1716 7.21751L 13.3536 4.03554ZM 0 4.18198L 13 4.18198L 13 3.18198L 0 3.18198L 0 4.18198Z" transform="translate(127.828 61.318)" fill="black"/>
</g>
</g>
<g id="Arrow 2_2">
<g id="Vector_22">
<path d="M 13.3536 4.03554C 13.5488 3.84027 13.5488 3.52369 13.3536 3.32843L 10.1716 0.146452C 9.97631 -0.0488176 9.65973 -0.0488176 9.46447 0.146452C 9.2692 0.341712 9.2692 0.658293 9.46447 0.853553L 12.2929 3.68198L 9.46447 6.51041C 9.2692 6.70567 9.2692 7.02225 9.46447 7.21751C 9.65973 7.41278 9.97631 7.41278 10.1716 7.21751L 13.3536 4.03554ZM 0 4.18198L 13 4.18198L 13 3.18198L 0 3.18198L 0 4.18198Z" transform="translate(289.828 61.318)" fill="black"/>
</g>
</g>
</g>
</g>
</g>
<g id="-">
<path d="M 3.07617 7.81836L 0.216797 7.81836L 0.216797 6.93359L 3.07617 6.93359L 3.07617 7.81836Z" transform="translate(226 50)" fill="black"/>
</g>
<g id="-_2">
<path d="M 3.07617 7.81836L 0.216797 7.81836L 0.216797 6.93359L 3.07617 6.93359L 3.07617 7.81836Z" transform="translate(226 69)" fill="black"/>
</g>
</g>
</svg>

