<svg width="432" height="80" viewBox="0 0 432 80" version="1.1" xmlns="http://www.w3.org/2000/svg" xmlns:xlink="http://www.w3.org/1999/xlink" xmlns:figma="http://www.figma.com/figma/ns">
<title>Group</title>
<desc>Created using Figma</desc>
<g id="Canvas" transform="translate(751 -2212)" figma:type="canvas">
<g id="Group" figma:type="frame">
<g id="Component" figma:type="instance">
<g id="Line 2" figma:type="line">
<use xlink:href="#path0_stroke" transform="matrix(8.55488e-32 1 -0.999041 0.0437856 -650 2231)" fill="#333333"/>
</g>
<g id="Line 3" figma:type="line">
<use xlink:href="#path1_stroke" transform="translate(-650 2231)" fill="#333333"/>
</g>
<g id="Line 3" figma:type="line">
<use xlink:href="#path1_stroke" transform="translate(-650 2291)" fill="#333333"/>
</g>
</g>
<g id="Component" figma:type="instance">
<g id="Line 2" figma:type="line">
<use xlink:href="#path0_stroke" transform="matrix(-1.22465e-16 -1 0.999041 -0.0437856 -565 2291)" fill="#333333"/>
</g>
<g id="Line 3" figma:type="line">
<use xlink:href="#path1_stroke" transform="matrix(-1 1.22465e-16 -1.22465e-16 -1 -565 2291)" fill="#333333"/>
</g>
<g id="Line 3" figma:type="line">
<use xlink:href="#path1_stroke" transform="matrix(-1 1.22465e-16 -1.22465e-16 -1 -565 2231)" fill="#333333"/>
</g>
</g>
<g id="0.7 3 9 1.7 2 9 0.7 9 2" figma:type="text">
<use xlink:href="#path2_fill" transform="translate(-638 2236)"/>
</g>
<g id="Component" figma:type="instance">
<g id="Line 2" figma:type="line">
<use xlink:href="#path0_stroke" transform="matrix(8.55488e-32 1 -0.999041 0.0437856 -535 2231)" fill="#333333"/>
</g>
<g id="Line 3" figma:type="line">
<use xlink:href="#path1_stroke" transform="translate(-535 2231)" fill="#333333"/>
</g>
<g id="Line 3" figma:type="line">
<use xlink:href="#path1_stroke" transform="translate(-535 2291)" fill="#333333"/>
</g>
</g>
<g id="Component" figma:type="instance">
<g id="Line 2" figma:type="line">
<use xlink:href="#path0_stroke" transform="matrix(-1.22465e-16 -1 0.999041 -0.0437856 -462 2291)" fill="#333333"/>
</g>
<g id="Line 3" figma:type="line">
<use xlink:href="#path1_stroke" transform="matrix(-1 1.22465e-16 -1.22465e-16 -1 -462 2291)" fill="#333333"/>
</g>
<g id="Line 3" figma:type="line">
<use xlink:href="#path1_stroke" transform="matrix(-1 1.22465e-16 -1.22465e-16 -1 -462 2231)" fill="#333333"/>
</g>
</g>
<g id="0 3 3 1 2 1 0 1 2" figma:type="text">
<use xlink:href="#path3_fill" transform="translate(-523 2236)"/>
</g>
<g id="+" figma:type="text">
<use xlink:href="#path4_fill" transform="translate(-556 2251)"/>
</g>
<g id="A + B" figma:type="text">
<use xlink:href="#path5_fill" transform="translate(-751 2251)"/>
</g>
<g id="=" figma:type="text">
<use xlink:href="#path6_fill" transform="translate(-686 2251)"/>
</g>
<g id="A" figma:type="text">
<use xlink:href="#path7_fill" transform="translate(-609 2209)"/>
</g>
<g id="B" figma:type="text">
<use xlink:href="#path8_fill" transform="translate(-506 2209)"/>
</g>
<g id="=" figma:type="text">
<use xlink:href="#path6_fill" transform="translate(-439 2247)"/>
</g>
<g id="Component" figma:type="instance">
<g id="Line 2" figma:type="line">
<use xlink:href="#path0_stroke" transform="matrix(8.55488e-32 1 -0.999041 0.0437856 -406 2231)" fill="#333333"/>
</g>
<g id="Line 3" figma:type="line">
<use xlink:href="#path1_stroke" transform="translate(-406 2231)" fill="#333333"/>
</g>
<g id="Line 3" figma:type="line">
<use xlink:href="#path1_stroke" transform="translate(-406 2291)" fill="#333333"/>
</g>
</g>
<g id="Component" figma:type="instance">
<g id="Line 2" figma:type="line">
<use xlink:href="#path0_stroke" transform="matrix(-1.22465e-16 -1 0.999041 -0.0437856 -319 2291)" fill="#333333"/>
</g>
<g id="Line 3" figma:type="line">
<use xlink:href="#path1_stroke" transform="matrix(-1 1.22465e-16 -1.22465e-16 -1 -319 2291)" fill="#333333"/>
</g>
<g id="Line 3" figma:type="line">
<use xlink:href="#path1_stroke" transform="matrix(-1 1.22465e-16 -1.22465e-16 -1 -319 2231)" fill="#333333"/>
</g>
</g>
<g id="0.7 6 12 2.7 4 10 0.7 10 4" figma:type="text">
<use xlink:href="#path9_fill" transform="translate(-394 2236)"/>
</g>
</g>
</g>
<defs>
<path id="path0_stroke" d="M 0 0L 60 0L 60 -1L 0 -1L 0 0Z"/>
<path id="path1_stroke" d="M 0 0L 6 0L 6 -1L 0 -1L 0 0Z"/>
<path id="path2_fill" d="M 7.06836 8.75488C 7.06836 10.236 6.81543 11.3366 6.30957 12.0566C 5.80371 12.7767 5.01302 13.1367 3.9375 13.1367C 2.87565 13.1367 2.08952 12.7858 1.5791 12.084C 1.06868 11.3776 0.804362 10.3249 0.786133 8.92578L 0.786133 7.2373C 0.786133 5.77441 1.03906 4.6875 1.54492 3.97656C 2.05078 3.26562 2.84375 2.91016 3.92383 2.91016C 4.99479 2.91016 5.7832 3.25423 6.28906 3.94238C 6.79492 4.62598 7.05469 5.68327 7.06836 7.11426L 7.06836 8.75488ZM 5.80371 7.02539C 5.80371 5.95443 5.65332 5.17513 5.35254 4.6875C 5.05176 4.19531 4.57552 3.94922 3.92383 3.94922C 3.27669 3.94922 2.80501 4.19303 2.50879 4.68066C 2.21257 5.16829 2.0599 5.91797 2.05078 6.92969L 2.05078 8.95312C 2.05078 10.0286 2.20573 10.8239 2.51562 11.3389C 2.83008 11.8493 3.30404 12.1045 3.9375 12.1045C 4.56185 12.1045 5.02441 11.863 5.3252 11.3799C 5.63053 10.8968 5.79004 10.1357 5.80371 9.09668L 5.80371 7.02539ZM 8.8457 12.3369C 8.8457 12.1182 8.90951 11.9359 9.03711 11.79C 9.16927 11.6442 9.36523 11.5713 9.625 11.5713C 9.88477 11.5713 10.0807 11.6442 10.2129 11.79C 10.3496 11.9359 10.418 12.1182 10.418 12.3369C 10.418 12.5465 10.3496 12.722 10.2129 12.8633C 10.0807 13.0046 9.88477 13.0752 9.625 13.0752C 9.36523 13.0752 9.16927 13.0046 9.03711 12.8633C 8.90951 12.722 8.8457 12.5465 8.8457 12.3369ZM 18.8057 3.75781L 14.6836 13L 13.3574 13L 17.4658 4.08594L 12.0791 4.08594L 12.0791 3.04688L 18.8057 3.04688L 18.8057 3.75781ZM 32.498 7.4082L 33.4482 7.4082C 34.0452 7.39909 34.5146 7.24186 34.8564 6.93652C 35.1982 6.63118 35.3691 6.21875 35.3691 5.69922C 35.3691 4.53255 34.7881 3.94922 33.626 3.94922C 33.0791 3.94922 32.6416 4.10645 32.3135 4.4209C 31.9899 4.73079 31.8281 5.14323 31.8281 5.6582L 30.5635 5.6582C 30.5635 4.86979 30.8506 4.21582 31.4248 3.69629C 32.0036 3.1722 32.7373 2.91016 33.626 2.91016C 34.5648 2.91016 35.3008 3.15853 35.834 3.65527C 36.3672 4.15202 36.6338 4.84245 36.6338 5.72656C 36.6338 6.15951 36.4925 6.57878 36.21 6.98438C 35.932 7.38997 35.5514 7.69303 35.0684 7.89355C 35.6152 8.06673 36.0368 8.35384 36.333 8.75488C 36.6338 9.15592 36.7842 9.64583 36.7842 10.2246C 36.7842 11.1178 36.4925 11.8265 35.9092 12.3506C 35.3258 12.8747 34.5671 13.1367 33.6328 13.1367C 32.6986 13.1367 31.9375 12.8838 31.3496 12.3779C 30.7663 11.8721 30.4746 11.2044 30.4746 10.375L 31.7461 10.375C 31.7461 10.8991 31.917 11.3184 32.2588 11.6328C 32.6006 11.9473 33.0586 12.1045 33.6328 12.1045C 34.2435 12.1045 34.7106 11.945 35.0342 11.626C 35.3577 11.307 35.5195 10.849 35.5195 10.252C 35.5195 9.67318 35.3418 9.22884 34.9863 8.91895C 34.6309 8.60905 34.1182 8.44954 33.4482 8.44043L 32.498 8.44043L 32.498 7.4082ZM 53.7852 8.625C 53.5208 8.93945 53.2041 9.19238 52.835 9.38379C 52.4704 9.5752 52.0693 9.6709 51.6318 9.6709C 51.0576 9.6709 50.5563 9.52962 50.1279 9.24707C 49.7041 8.96452 49.376 8.56803 49.1436 8.05762C 48.9111 7.54264 48.7949 6.97526 48.7949 6.35547C 48.7949 5.6901 48.9202 5.09082 49.1709 4.55762C 49.4261 4.02441 49.7861 3.61654 50.251 3.33398C 50.7158 3.05143 51.2581 2.91016 51.8779 2.91016C 52.8623 2.91016 53.637 3.2793 54.2021 4.01758C 54.7718 4.7513 55.0566 5.75391 55.0566 7.02539L 55.0566 7.39453C 55.0566 9.33138 54.6738 10.7464 53.9082 11.6396C 53.1426 12.5283 51.9873 12.984 50.4424 13.0068L 50.1963 13.0068L 50.1963 11.9404L 50.4629 11.9404C 51.5065 11.9222 52.3086 11.651 52.8691 11.127C 53.4297 10.5983 53.735 9.76432 53.7852 8.625ZM 51.8369 8.625C 52.2607 8.625 52.6504 8.49512 53.0059 8.23535C 53.3659 7.97559 53.6279 7.6543 53.792 7.27148L 53.792 6.76562C 53.792 5.9362 53.612 5.26172 53.252 4.74219C 52.8919 4.22266 52.4362 3.96289 51.8848 3.96289C 51.3288 3.96289 50.8822 4.17708 50.5449 4.60547C 50.2077 5.0293 50.0391 5.58984 50.0391 6.28711C 50.0391 6.96615 50.2008 7.52669 50.5244 7.96875C 50.8525 8.40625 51.29 8.625 51.8369 8.625ZM 4.9834 29L 3.71191 29L 3.71191 20.5713L 1.16211 21.5078L 1.16211 20.3594L 4.78516 18.999L 4.9834 18.999L 4.9834 29ZM 8.8457 28.3369C 8.8457 28.1182 8.90951 27.9359 9.03711 27.79C 9.16927 27.6442 9.36523 27.5713 9.625 27.5713C 9.88477 27.5713 10.0807 27.6442 10.2129 27.79C 10.3496 27.9359 10.418 28.1182 10.418 28.3369C 10.418 28.5465 10.3496 28.722 10.2129 28.8633C 10.0807 29.0046 9.88477 29.0752 9.625 29.0752C 9.36523 29.0752 9.16927 29.0046 9.03711 28.8633C 8.90951 28.722 8.8457 28.5465 8.8457 28.3369ZM 18.8057 19.7578L 14.6836 29L 13.3574 29L 17.4658 20.0859L 12.0791 20.0859L 12.0791 19.0469L 18.8057 19.0469L 18.8057 19.7578ZM 37.1807 29L 30.6592 29L 30.6592 28.0908L 34.1045 24.2627C 34.6149 23.6839 34.9658 23.2145 35.1572 22.8545C 35.3532 22.4899 35.4512 22.1139 35.4512 21.7266C 35.4512 21.207 35.2939 20.7809 34.9795 20.4482C 34.665 20.1156 34.2458 19.9492 33.7217 19.9492C 33.0928 19.9492 32.6029 20.1292 32.252 20.4893C 31.9056 20.8447 31.7324 21.3415 31.7324 21.9795L 30.4678 21.9795C 30.4678 21.0635 30.7617 20.3229 31.3496 19.7578C 31.9421 19.1927 32.7327 18.9102 33.7217 18.9102C 34.6468 18.9102 35.3783 19.154 35.916 19.6416C 36.4538 20.1247 36.7227 20.7695 36.7227 21.5762C 36.7227 22.556 36.0983 23.7227 34.8496 25.0762L 32.1836 27.9678L 37.1807 27.9678L 37.1807 29ZM 53.7852 24.625C 53.5208 24.9395 53.2041 25.1924 52.835 25.3838C 52.4704 25.5752 52.0693 25.6709 51.6318 25.6709C 51.0576 25.6709 50.5563 25.5296 50.1279 25.2471C 49.7041 24.9645 49.376 24.568 49.1436 24.0576C 48.9111 23.5426 48.7949 22.9753 48.7949 22.3555C 48.7949 21.6901 48.9202 21.0908 49.1709 20.5576C 49.4261 20.0244 49.7861 19.6165 50.251 19.334C 50.7158 19.0514 51.2581 18.9102 51.8779 18.9102C 52.8623 18.9102 53.637 19.2793 54.2021 20.0176C 54.7718 20.7513 55.0566 21.7539 55.0566 23.0254L 55.0566 23.3945C 55.0566 25.3314 54.6738 26.7464 53.9082 27.6396C 53.1426 28.5283 51.9873 28.984 50.4424 29.0068L 50.1963 29.0068L 50.1963 27.9404L 50.4629 27.9404C 51.5065 27.9222 52.3086 27.651 52.8691 27.127C 53.4297 26.5983 53.735 25.7643 53.7852 24.625ZM 51.8369 24.625C 52.2607 24.625 52.6504 24.4951 53.0059 24.2354C 53.3659 23.9756 53.6279 23.6543 53.792 23.2715L 53.792 22.7656C 53.792 21.9362 53.612 21.2617 53.252 20.7422C 52.8919 20.2227 52.4362 19.9629 51.8848 19.9629C 51.3288 19.9629 50.8822 20.1771 50.5449 20.6055C 50.2077 21.0293 50.0391 21.5898 50.0391 22.2871C 50.0391 22.9661 50.2008 23.5267 50.5244 23.9688C 50.8525 24.4062 51.29 24.625 51.8369 24.625ZM 7.06836 41.7549C 7.06836 43.236 6.81543 44.3366 6.30957 45.0566C 5.80371 45.7767 5.01302 46.1367 3.9375 46.1367C 2.87565 46.1367 2.08952 45.7858 1.5791 45.084C 1.06868 44.3776 0.804362 43.3249 0.786133 41.9258L 0.786133 40.2373C 0.786133 38.7744 1.03906 37.6875 1.54492 36.9766C 2.05078 36.2656 2.84375 35.9102 3.92383 35.9102C 4.99479 35.9102 5.7832 36.2542 6.28906 36.9424C 6.79492 37.626 7.05469 38.6833 7.06836 40.1143L 7.06836 41.7549ZM 5.80371 40.0254C 5.80371 38.9544 5.65332 38.1751 5.35254 37.6875C 5.05176 37.1953 4.57552 36.9492 3.92383 36.9492C 3.27669 36.9492 2.80501 37.193 2.50879 37.6807C 2.21257 38.1683 2.0599 38.918 2.05078 39.9297L 2.05078 41.9531C 2.05078 43.0286 2.20573 43.8239 2.51562 44.3389C 2.83008 44.8493 3.30404 45.1045 3.9375 45.1045C 4.56185 45.1045 5.02441 44.863 5.3252 44.3799C 5.63053 43.8968 5.79004 43.1357 5.80371 42.0967L 5.80371 40.0254ZM 8.8457 45.3369C 8.8457 45.1182 8.90951 44.9359 9.03711 44.79C 9.16927 44.6442 9.36523 44.5713 9.625 44.5713C 9.88477 44.5713 10.0807 44.6442 10.2129 44.79C 10.3496 44.9359 10.418 45.1182 10.418 45.3369C 10.418 45.5465 10.3496 45.722 10.2129 45.8633C 10.0807 46.0046 9.88477 46.0752 9.625 46.0752C 9.36523 46.0752 9.16927 46.0046 9.03711 45.8633C 8.90951 45.722 8.8457 45.5465 8.8457 45.3369ZM 18.8057 36.7578L 14.6836 46L 13.3574 46L 17.4658 37.0859L 12.0791 37.0859L 12.0791 36.0469L 18.8057 36.0469L 18.8057 36.7578ZM 35.5059 41.625C 35.2415 41.9395 34.9248 42.1924 34.5557 42.3838C 34.1911 42.5752 33.79 42.6709 33.3525 42.6709C 32.7783 42.6709 32.277 42.5296 31.8486 42.2471C 31.4248 41.9645 31.0967 41.568 30.8643 41.0576C 30.6318 40.5426 30.5156 39.9753 30.5156 39.3555C 30.5156 38.6901 30.641 38.0908 30.8916 37.5576C 31.1468 37.0244 31.5068 36.6165 31.9717 36.334C 32.4365 36.0514 32.9788 35.9102 33.5986 35.9102C 34.583 35.9102 35.3577 36.2793 35.9229 37.0176C 36.4925 37.7513 36.7773 38.7539 36.7773 40.0254L 36.7773 40.3945C 36.7773 42.3314 36.3945 43.7464 35.6289 44.6396C 34.8633 45.5283 33.708 45.984 32.1631 46.0068L 31.917 46.0068L 31.917 44.9404L 32.1836 44.9404C 33.2272 44.9222 34.0293 44.651 34.5898 44.127C 35.1504 43.5983 35.4557 42.7643 35.5059 41.625ZM 33.5576 41.625C 33.9814 41.625 34.3711 41.4951 34.7266 41.2354C 35.0866 40.9756 35.3486 40.6543 35.5127 40.2715L 35.5127 39.7656C 35.5127 38.9362 35.3327 38.2617 34.9727 37.7422C 34.6126 37.2227 34.1569 36.9629 33.6055 36.9629C 33.0495 36.9629 32.6029 37.1771 32.2656 37.6055C 31.9284 38.0293 31.7598 38.5898 31.7598 39.2871C 31.7598 39.9661 31.9215 40.5267 32.2451 40.9688C 32.5732 41.4062 33.0107 41.625 33.5576 41.625ZM 55.46 46L 48.9385 46L 48.9385 45.0908L 52.3838 41.2627C 52.8942 40.6839 53.2451 40.2145 53.4365 39.8545C 53.6325 39.4899 53.7305 39.1139 53.7305 38.7266C 53.7305 38.207 53.5732 37.7809 53.2588 37.4482C 52.9443 37.1156 52.5251 36.9492 52.001 36.9492C 51.3721 36.9492 50.8822 37.1292 50.5312 37.4893C 50.1849 37.8447 50.0117 38.3415 50.0117 38.9795L 48.7471 38.9795C 48.7471 38.0635 49.041 37.3229 49.6289 36.7578C 50.2214 36.1927 51.012 35.9102 52.001 35.9102C 52.9261 35.9102 53.6576 36.154 54.1953 36.6416C 54.7331 37.1247 55.002 37.7695 55.002 38.5762C 55.002 39.556 54.3776 40.7227 53.1289 42.0762L 50.4629 44.9678L 55.46 44.9678L 55.46 46Z"/>
<path id="path3_fill" d="M 7.06836 8.75488C 7.06836 10.236 6.81543 11.3366 6.30957 12.0566C 5.80371 12.7767 5.01302 13.1367 3.9375 13.1367C 2.87565 13.1367 2.08952 12.7858 1.5791 12.084C 1.06868 11.3776 0.804362 10.3249 0.786133 8.92578L 0.786133 7.2373C 0.786133 5.77441 1.03906 4.6875 1.54492 3.97656C 2.05078 3.26562 2.84375 2.91016 3.92383 2.91016C 4.99479 2.91016 5.7832 3.25423 6.28906 3.94238C 6.79492 4.62598 7.05469 5.68327 7.06836 7.11426L 7.06836 8.75488ZM 5.80371 7.02539C 5.80371 5.95443 5.65332 5.17513 5.35254 4.6875C 5.05176 4.19531 4.57552 3.94922 3.92383 3.94922C 3.27669 3.94922 2.80501 4.19303 2.50879 4.68066C 2.21257 5.16829 2.0599 5.91797 2.05078 6.92969L 2.05078 8.95312C 2.05078 10.0286 2.20573 10.8239 2.51562 11.3389C 2.83008 11.8493 3.30404 12.1045 3.9375 12.1045C 4.56185 12.1045 5.02441 11.863 5.3252 11.3799C 5.63053 10.8968 5.79004 10.1357 5.80371 9.09668L 5.80371 7.02539ZM 20.9453 7.4082L 21.8955 7.4082C 22.4925 7.39909 22.9619 7.24186 23.3037 6.93652C 23.6455 6.63118 23.8164 6.21875 23.8164 5.69922C 23.8164 4.53255 23.2354 3.94922 22.0732 3.94922C 21.5264 3.94922 21.0889 4.10645 20.7607 4.4209C 20.4372 4.73079 20.2754 5.14323 20.2754 5.6582L 19.0107 5.6582C 19.0107 4.86979 19.2979 4.21582 19.8721 3.69629C 20.4508 3.1722 21.1846 2.91016 22.0732 2.91016C 23.012 2.91016 23.748 3.15853 24.2812 3.65527C 24.8145 4.15202 25.0811 4.84245 25.0811 5.72656C 25.0811 6.15951 24.9398 6.57878 24.6572 6.98438C 24.3792 7.38997 23.9987 7.69303 23.5156 7.89355C 24.0625 8.06673 24.484 8.35384 24.7803 8.75488C 25.0811 9.15592 25.2314 9.64583 25.2314 10.2246C 25.2314 11.1178 24.9398 11.8265 24.3564 12.3506C 23.7731 12.8747 23.0143 13.1367 22.0801 13.1367C 21.1458 13.1367 20.3848 12.8838 19.7969 12.3779C 19.2135 11.8721 18.9219 11.2044 18.9219 10.375L 20.1934 10.375C 20.1934 10.8991 20.3643 11.3184 20.7061 11.6328C 21.0479 11.9473 21.5059 12.1045 22.0801 12.1045C 22.6908 12.1045 23.1579 11.945 23.4814 11.626C 23.805 11.307 23.9668 10.849 23.9668 10.252C 23.9668 9.67318 23.7891 9.22884 23.4336 8.91895C 23.0781 8.60905 22.5654 8.44954 21.8955 8.44043L 20.9453 8.44043L 20.9453 7.4082ZM 39.2246 7.4082L 40.1748 7.4082C 40.7718 7.39909 41.2412 7.24186 41.583 6.93652C 41.9248 6.63118 42.0957 6.21875 42.0957 5.69922C 42.0957 4.53255 41.5146 3.94922 40.3525 3.94922C 39.8057 3.94922 39.3682 4.10645 39.04 4.4209C 38.7165 4.73079 38.5547 5.14323 38.5547 5.6582L 37.29 5.6582C 37.29 4.86979 37.5771 4.21582 38.1514 3.69629C 38.7301 3.1722 39.4639 2.91016 40.3525 2.91016C 41.2913 2.91016 42.0273 3.15853 42.5605 3.65527C 43.0938 4.15202 43.3604 4.84245 43.3604 5.72656C 43.3604 6.15951 43.2191 6.57878 42.9365 6.98438C 42.6585 7.38997 42.278 7.69303 41.7949 7.89355C 42.3418 8.06673 42.7633 8.35384 43.0596 8.75488C 43.3604 9.15592 43.5107 9.64583 43.5107 10.2246C 43.5107 11.1178 43.2191 11.8265 42.6357 12.3506C 42.0524 12.8747 41.2936 13.1367 40.3594 13.1367C 39.4251 13.1367 38.6641 12.8838 38.0762 12.3779C 37.4928 11.8721 37.2012 11.2044 37.2012 10.375L 38.4727 10.375C 38.4727 10.8991 38.6436 11.3184 38.9854 11.6328C 39.3271 11.9473 39.7852 12.1045 40.3594 12.1045C 40.9701 12.1045 41.4372 11.945 41.7607 11.626C 42.0843 11.307 42.2461 10.849 42.2461 10.252C 42.2461 9.67318 42.0684 9.22884 41.7129 8.91895C 41.3574 8.60905 40.8447 8.44954 40.1748 8.44043L 39.2246 8.44043L 39.2246 7.4082ZM 4.9834 29L 3.71191 29L 3.71191 20.5713L 1.16211 21.5078L 1.16211 20.3594L 4.78516 18.999L 4.9834 18.999L 4.9834 29ZM 25.6279 29L 19.1064 29L 19.1064 28.0908L 22.5518 24.2627C 23.0622 23.6839 23.4131 23.2145 23.6045 22.8545C 23.8005 22.4899 23.8984 22.1139 23.8984 21.7266C 23.8984 21.207 23.7412 20.7809 23.4268 20.4482C 23.1123 20.1156 22.693 19.9492 22.1689 19.9492C 21.54 19.9492 21.0501 20.1292 20.6992 20.4893C 20.3529 20.8447 20.1797 21.3415 20.1797 21.9795L 18.915 21.9795C 18.915 21.0635 19.209 20.3229 19.7969 19.7578C 20.3893 19.1927 21.18 18.9102 22.1689 18.9102C 23.0941 18.9102 23.8255 19.154 24.3633 19.6416C 24.901 20.1247 25.1699 20.7695 25.1699 21.5762C 25.1699 22.556 24.5456 23.7227 23.2969 25.0762L 20.6309 27.9678L 25.6279 27.9678L 25.6279 29ZM 41.542 29L 40.2705 29L 40.2705 20.5713L 37.7207 21.5078L 37.7207 20.3594L 41.3438 18.999L 41.542 18.999L 41.542 29ZM 7.06836 41.7549C 7.06836 43.236 6.81543 44.3366 6.30957 45.0566C 5.80371 45.7767 5.01302 46.1367 3.9375 46.1367C 2.87565 46.1367 2.08952 45.7858 1.5791 45.084C 1.06868 44.3776 0.804362 43.3249 0.786133 41.9258L 0.786133 40.2373C 0.786133 38.7744 1.03906 37.6875 1.54492 36.9766C 2.05078 36.2656 2.84375 35.9102 3.92383 35.9102C 4.99479 35.9102 5.7832 36.2542 6.28906 36.9424C 6.79492 37.626 7.05469 38.6833 7.06836 40.1143L 7.06836 41.7549ZM 5.80371 40.0254C 5.80371 38.9544 5.65332 38.1751 5.35254 37.6875C 5.05176 37.1953 4.57552 36.9492 3.92383 36.9492C 3.27669 36.9492 2.80501 37.193 2.50879 37.6807C 2.21257 38.1683 2.0599 38.918 2.05078 39.9297L 2.05078 41.9531C 2.05078 43.0286 2.20573 43.8239 2.51562 44.3389C 2.83008 44.8493 3.30404 45.1045 3.9375 45.1045C 4.56185 45.1045 5.02441 44.863 5.3252 44.3799C 5.63053 43.8968 5.79004 43.1357 5.80371 42.0967L 5.80371 40.0254ZM 23.2627 46L 21.9912 46L 21.9912 37.5713L 19.4414 38.5078L 19.4414 37.3594L 23.0645 35.999L 23.2627 35.999L 23.2627 46ZM 43.9072 46L 37.3857 46L 37.3857 45.0908L 40.8311 41.2627C 41.3415 40.6839 41.6924 40.2145 41.8838 39.8545C 42.0798 39.4899 42.1777 39.1139 42.1777 38.7266C 42.1777 38.207 42.0205 37.7809 41.7061 37.4482C 41.3916 37.1156 40.9723 36.9492 40.4482 36.9492C 39.8193 36.9492 39.3294 37.1292 38.9785 37.4893C 38.6322 37.8447 38.459 38.3415 38.459 38.9795L 37.1943 38.9795C 37.1943 38.0635 37.4883 37.3229 38.0762 36.7578C 38.6686 36.1927 39.4593 35.9102 40.4482 35.9102C 41.3734 35.9102 42.1048 36.154 42.6426 36.6416C 43.1803 37.1247 43.4492 37.7695 43.4492 38.5762C 43.4492 39.556 42.8249 40.7227 41.5762 42.0762L 38.9102 44.9678L 43.9072 44.9678L 43.9072 46Z"/>
<path id="path4_fill" d="M 4.58008 7.66113L 7.35547 7.66113L 7.35547 8.85742L 4.58008 8.85742L 4.58008 12.002L 3.30859 12.002L 3.30859 8.85742L 0.533203 8.85742L 0.533203 7.66113L 3.30859 7.66113L 3.30859 4.75586L 4.58008 4.75586L 4.58008 7.66113Z"/>
<path id="path5_fill" d="M 6.65137 10.4023L 2.48145 10.4023L 1.54492 13L 0.191406 13L 3.99219 3.04688L 5.14062 3.04688L 8.94824 13L 7.60156 13L 6.65137 10.4023ZM 2.87793 9.32227L 6.26172 9.32227L 4.56641 4.66699L 2.87793 9.32227ZM 17.1855 7.66113L 19.9609 7.66113L 19.9609 8.85742L 17.1855 8.85742L 17.1855 12.002L 15.9141 12.002L 15.9141 8.85742L 13.1387 8.85742L 13.1387 7.66113L 15.9141 7.66113L 15.9141 4.75586L 17.1855 4.75586L 17.1855 7.66113ZM 25.1768 13L 25.1768 3.04688L 28.4307 3.04688C 29.5107 3.04688 30.3219 3.27018 30.8643 3.7168C 31.4111 4.16341 31.6846 4.82422 31.6846 5.69922C 31.6846 6.16406 31.5524 6.5765 31.2881 6.93652C 31.0238 7.29199 30.6637 7.56771 30.208 7.76367C 30.7458 7.91406 31.1696 8.20117 31.4795 8.625C 31.7939 9.04427 31.9512 9.54557 31.9512 10.1289C 31.9512 11.0221 31.6618 11.724 31.083 12.2344C 30.5042 12.7448 29.6862 13 28.6289 13L 25.1768 13ZM 26.4893 8.34473L 26.4893 11.9268L 28.6562 11.9268C 29.2669 11.9268 29.7477 11.7695 30.0986 11.4551C 30.4541 11.1361 30.6318 10.6986 30.6318 10.1426C 30.6318 8.94401 29.9801 8.34473 28.6768 8.34473L 26.4893 8.34473ZM 26.4893 7.29199L 28.4717 7.29199C 29.0459 7.29199 29.5039 7.14844 29.8457 6.86133C 30.1921 6.57422 30.3652 6.18457 30.3652 5.69238C 30.3652 5.14551 30.2057 4.74902 29.8867 4.50293C 29.5677 4.25228 29.0824 4.12695 28.4307 4.12695L 26.4893 4.12695L 26.4893 7.29199Z"/>
<path id="path6_fill" d="M 6.74023 7.43555L 1.03906 7.43555L 1.03906 6.33496L 6.74023 6.33496L 6.74023 7.43555ZM 6.74023 10.2725L 1.03906 10.2725L 1.03906 9.17871L 6.74023 9.17871L 6.74023 10.2725Z"/>
<path id="path7_fill" d="M 6.65137 10.4023L 2.48145 10.4023L 1.54492 13L 0.191406 13L 3.99219 3.04688L 5.14062 3.04688L 8.94824 13L 7.60156 13L 6.65137 10.4023ZM 2.87793 9.32227L 6.26172 9.32227L 4.56641 4.66699L 2.87793 9.32227Z"/>
<path id="path8_fill" d="M 1.15527 13L 1.15527 3.04688L 4.40918 3.04688C 5.48926 3.04688 6.30046 3.27018 6.84277 3.7168C 7.38965 4.16341 7.66309 4.82422 7.66309 5.69922C 7.66309 6.16406 7.53092 6.5765 7.2666 6.93652C 7.00228 7.29199 6.64225 7.56771 6.18652 7.76367C 6.72428 7.91406 7.14811 8.20117 7.45801 8.625C 7.77246 9.04427 7.92969 9.54557 7.92969 10.1289C 7.92969 11.0221 7.6403 11.724 7.06152 12.2344C 6.48275 12.7448 5.66471 13 4.60742 13L 1.15527 13ZM 2.46777 8.34473L 2.46777 11.9268L 4.63477 11.9268C 5.24544 11.9268 5.72624 11.7695 6.07715 11.4551C 6.43262 11.1361 6.61035 10.6986 6.61035 10.1426C 6.61035 8.94401 5.95866 8.34473 4.65527 8.34473L 2.46777 8.34473ZM 2.46777 7.29199L 4.4502 7.29199C 5.02441 7.29199 5.48242 7.14844 5.82422 6.86133C 6.17057 6.57422 6.34375 6.18457 6.34375 5.69238C 6.34375 5.14551 6.18424 4.74902 5.86523 4.50293C 5.54622 4.25228 5.06087 4.12695 4.40918 4.12695L 2.46777 4.12695L 2.46777 7.29199Z"/>
<path id="path9_fill" d="M 7.06836 8.75488C 7.06836 10.236 6.81543 11.3366 6.30957 12.0566C 5.80371 12.7767 5.01302 13.1367 3.9375 13.1367C 2.87565 13.1367 2.08952 12.7858 1.5791 12.084C 1.06868 11.3776 0.804362 10.3249 0.786133 8.92578L 0.786133 7.2373C 0.786133 5.77441 1.03906 4.6875 1.54492 3.97656C 2.05078 3.26562 2.84375 2.91016 3.92383 2.91016C 4.99479 2.91016 5.7832 3.25423 6.28906 3.94238C 6.79492 4.62598 7.05469 5.68327 7.06836 7.11426L 7.06836 8.75488ZM 5.80371 7.02539C 5.80371 5.95443 5.65332 5.17513 5.35254 4.6875C 5.05176 4.19531 4.57552 3.94922 3.92383 3.94922C 3.27669 3.94922 2.80501 4.19303 2.50879 4.68066C 2.21257 5.16829 2.0599 5.91797 2.05078 6.92969L 2.05078 8.95312C 2.05078 10.0286 2.20573 10.8239 2.51562 11.3389C 2.83008 11.8493 3.30404 12.1045 3.9375 12.1045C 4.56185 12.1045 5.02441 11.863 5.3252 11.3799C 5.63053 10.8968 5.79004 10.1357 5.80371 9.09668L 5.80371 7.02539ZM 8.8457 12.3369C 8.8457 12.1182 8.90951 11.9359 9.03711 11.79C 9.16927 11.6442 9.36523 11.5713 9.625 11.5713C 9.88477 11.5713 10.0807 11.6442 10.2129 11.79C 10.3496 11.9359 10.418 12.1182 10.418 12.3369C 10.418 12.5465 10.3496 12.722 10.2129 12.8633C 10.0807 13.0046 9.88477 13.0752 9.625 13.0752C 9.36523 13.0752 9.16927 13.0046 9.03711 12.8633C 8.90951 12.722 8.8457 12.5465 8.8457 12.3369ZM 18.8057 3.75781L 14.6836 13L 13.3574 13L 17.4658 4.08594L 12.0791 4.08594L 12.0791 3.04688L 18.8057 3.04688L 18.8057 3.75781ZM 35.6221 3.04004L 35.6221 4.11328L 35.3896 4.11328C 34.4053 4.13151 33.6214 4.42318 33.0381 4.98828C 32.4548 5.55339 32.1175 6.34863 32.0264 7.37402C 32.5505 6.77246 33.266 6.47168 34.1729 6.47168C 35.0387 6.47168 35.7292 6.77702 36.2441 7.3877C 36.7637 7.99837 37.0234 8.78678 37.0234 9.75293C 37.0234 10.7783 36.7432 11.5986 36.1826 12.2139C 35.6266 12.8291 34.8792 13.1367 33.9404 13.1367C 32.988 13.1367 32.2155 12.7721 31.623 12.043C 31.0306 11.3092 30.7344 10.3659 30.7344 9.21289L 30.7344 8.72754C 30.7344 6.89551 31.124 5.49642 31.9033 4.53027C 32.6872 3.55957 33.8516 3.06283 35.3965 3.04004L 35.6221 3.04004ZM 33.9609 7.52441C 33.528 7.52441 33.1292 7.6543 32.7646 7.91406C 32.4001 8.17383 32.1471 8.49967 32.0059 8.8916L 32.0059 9.35645C 32.0059 10.1768 32.1904 10.8376 32.5596 11.3389C 32.9287 11.8402 33.389 12.0908 33.9404 12.0908C 34.5101 12.0908 34.9567 11.8812 35.2803 11.4619C 35.6084 11.0426 35.7725 10.4935 35.7725 9.81445C 35.7725 9.13086 35.6061 8.57943 35.2734 8.16016C 34.9453 7.73633 34.5078 7.52441 33.9609 7.52441ZM 53.0947 13L 51.8232 13L 51.8232 4.57129L 49.2734 5.50781L 49.2734 4.35938L 52.8965 2.99902L 53.0947 2.99902L 53.0947 13ZM 63.3213 13L 56.7998 13L 56.7998 12.0908L 60.2451 8.2627C 60.7555 7.68392 61.1064 7.21452 61.2979 6.85449C 61.4938 6.48991 61.5918 6.11393 61.5918 5.72656C 61.5918 5.20703 61.4346 4.78092 61.1201 4.44824C 60.8057 4.11556 60.3864 3.94922 59.8623 3.94922C 59.2334 3.94922 58.7435 4.12923 58.3926 4.48926C 58.0462 4.84473 57.873 5.34147 57.873 5.97949L 56.6084 5.97949C 56.6084 5.06348 56.9023 4.32292 57.4902 3.75781C 58.0827 3.19271 58.8734 2.91016 59.8623 2.91016C 60.7874 2.91016 61.5189 3.15397 62.0566 3.6416C 62.5944 4.12467 62.8633 4.76953 62.8633 5.57617C 62.8633 6.55599 62.2389 7.72266 60.9902 9.07617L 58.3242 11.9678L 63.3213 11.9678L 63.3213 13ZM 7.34863 29L 0.827148 29L 0.827148 28.0908L 4.27246 24.2627C 4.78288 23.6839 5.13379 23.2145 5.3252 22.8545C 5.52116 22.4899 5.61914 22.1139 5.61914 21.7266C 5.61914 21.207 5.46191 20.7809 5.14746 20.4482C 4.83301 20.1156 4.41374 19.9492 3.88965 19.9492C 3.26074 19.9492 2.77083 20.1292 2.41992 20.4893C 2.07357 20.8447 1.90039 21.3415 1.90039 21.9795L 0.635742 21.9795C 0.635742 21.0635 0.929688 20.3229 1.51758 19.7578C 2.11003 19.1927 2.90072 18.9102 3.88965 18.9102C 4.81478 18.9102 5.54622 19.154 6.08398 19.6416C 6.62174 20.1247 6.89062 20.7695 6.89062 21.5762C 6.89062 22.556 6.26628 23.7227 5.01758 25.0762L 2.35156 27.9678L 7.34863 27.9678L 7.34863 29ZM 8.8457 28.3369C 8.8457 28.1182 8.90951 27.9359 9.03711 27.79C 9.16927 27.6442 9.36523 27.5713 9.625 27.5713C 9.88477 27.5713 10.0807 27.6442 10.2129 27.79C 10.3496 27.9359 10.418 28.1182 10.418 28.3369C 10.418 28.5465 10.3496 28.722 10.2129 28.8633C 10.0807 29.0046 9.88477 29.0752 9.625 29.0752C 9.36523 29.0752 9.16927 29.0046 9.03711 28.8633C 8.90951 28.722 8.8457 28.5465 8.8457 28.3369ZM 18.8057 19.7578L 14.6836 29L 13.3574 29L 17.4658 20.0859L 12.0791 20.0859L 12.0791 19.0469L 18.8057 19.0469L 18.8057 19.7578ZM 35.998 25.6572L 37.3789 25.6572L 37.3789 26.6895L 35.998 26.6895L 35.998 29L 34.7266 29L 34.7266 26.6895L 30.1943 26.6895L 30.1943 25.9443L 34.6514 19.0469L 35.998 19.0469L 35.998 25.6572ZM 31.6299 25.6572L 34.7266 25.6572L 34.7266 20.7764L 34.5762 21.0498L 31.6299 25.6572ZM 53.0947 29L 51.8232 29L 51.8232 20.5713L 49.2734 21.5078L 49.2734 20.3594L 52.8965 18.999L 53.0947 18.999L 53.0947 29ZM 63.041 24.7549C 63.041 26.236 62.7881 27.3366 62.2822 28.0566C 61.7764 28.7767 60.9857 29.1367 59.9102 29.1367C 58.8483 29.1367 58.0622 28.7858 57.5518 28.084C 57.0413 27.3776 56.777 26.3249 56.7588 24.9258L 56.7588 23.2373C 56.7588 21.7744 57.0117 20.6875 57.5176 19.9766C 58.0234 19.2656 58.8164 18.9102 59.8965 18.9102C 60.9674 18.9102 61.7559 19.2542 62.2617 19.9424C 62.7676 20.626 63.0273 21.6833 63.041 23.1143L 63.041 24.7549ZM 61.7764 23.0254C 61.7764 21.9544 61.626 21.1751 61.3252 20.6875C 61.0244 20.1953 60.5482 19.9492 59.8965 19.9492C 59.2493 19.9492 58.7777 20.193 58.4814 20.6807C 58.1852 21.1683 58.0326 21.918 58.0234 22.9297L 58.0234 24.9531C 58.0234 26.0286 58.1784 26.8239 58.4883 27.3389C 58.8027 27.8493 59.2767 28.1045 59.9102 28.1045C 60.5345 28.1045 60.9971 27.863 61.2979 27.3799C 61.6032 26.8968 61.7627 26.1357 61.7764 25.0967L 61.7764 23.0254ZM 7.06836 41.7549C 7.06836 43.236 6.81543 44.3366 6.30957 45.0566C 5.80371 45.7767 5.01302 46.1367 3.9375 46.1367C 2.87565 46.1367 2.08952 45.7858 1.5791 45.084C 1.06868 44.3776 0.804362 43.3249 0.786133 41.9258L 0.786133 40.2373C 0.786133 38.7744 1.03906 37.6875 1.54492 36.9766C 2.05078 36.2656 2.84375 35.9102 3.92383 35.9102C 4.99479 35.9102 5.7832 36.2542 6.28906 36.9424C 6.79492 37.626 7.05469 38.6833 7.06836 40.1143L 7.06836 41.7549ZM 5.80371 40.0254C 5.80371 38.9544 5.65332 38.1751 5.35254 37.6875C 5.05176 37.1953 4.57552 36.9492 3.92383 36.9492C 3.27669 36.9492 2.80501 37.193 2.50879 37.6807C 2.21257 38.1683 2.0599 38.918 2.05078 39.9297L 2.05078 41.9531C 2.05078 43.0286 2.20573 43.8239 2.51562 44.3389C 2.83008 44.8493 3.30404 45.1045 3.9375 45.1045C 4.56185 45.1045 5.02441 44.863 5.3252 44.3799C 5.63053 43.8968 5.79004 43.1357 5.80371 42.0967L 5.80371 40.0254ZM 8.8457 45.3369C 8.8457 45.1182 8.90951 44.9359 9.03711 44.79C 9.16927 44.6442 9.36523 44.5713 9.625 44.5713C 9.88477 44.5713 10.0807 44.6442 10.2129 44.79C 10.3496 44.9359 10.418 45.1182 10.418 45.3369C 10.418 45.5465 10.3496 45.722 10.2129 45.8633C 10.0807 46.0046 9.88477 46.0752 9.625 46.0752C 9.36523 46.0752 9.16927 46.0046 9.03711 45.8633C 8.90951 45.722 8.8457 45.5465 8.8457 45.3369ZM 18.8057 36.7578L 14.6836 46L 13.3574 46L 17.4658 37.0859L 12.0791 37.0859L 12.0791 36.0469L 18.8057 36.0469L 18.8057 36.7578ZM 34.8154 46L 33.5439 46L 33.5439 37.5713L 30.9941 38.5078L 30.9941 37.3594L 34.6172 35.999L 34.8154 35.999L 34.8154 46ZM 44.7617 41.7549C 44.7617 43.236 44.5088 44.3366 44.0029 45.0566C 43.4971 45.7767 42.7064 46.1367 41.6309 46.1367C 40.569 46.1367 39.7829 45.7858 39.2725 45.084C 38.762 44.3776 38.4977 43.3249 38.4795 41.9258L 38.4795 40.2373C 38.4795 38.7744 38.7324 37.6875 39.2383 36.9766C 39.7441 36.2656 40.5371 35.9102 41.6172 35.9102C 42.6882 35.9102 43.4766 36.2542 43.9824 36.9424C 44.4883 37.626 44.748 38.6833 44.7617 40.1143L 44.7617 41.7549ZM 43.4971 40.0254C 43.4971 38.9544 43.3467 38.1751 43.0459 37.6875C 42.7451 37.1953 42.2689 36.9492 41.6172 36.9492C 40.9701 36.9492 40.4984 37.193 40.2021 37.6807C 39.9059 38.1683 39.7533 38.918 39.7441 39.9297L 39.7441 41.9531C 39.7441 43.0286 39.8991 43.8239 40.209 44.3389C 40.5234 44.8493 40.9974 45.1045 41.6309 45.1045C 42.2552 45.1045 42.7178 44.863 43.0186 44.3799C 43.3239 43.8968 43.4834 43.1357 43.4971 42.0967L 43.4971 40.0254ZM 58.666 42.6572L 60.0469 42.6572L 60.0469 43.6895L 58.666 43.6895L 58.666 46L 57.3945 46L 57.3945 43.6895L 52.8623 43.6895L 52.8623 42.9443L 57.3193 36.0469L 58.666 36.0469L 58.666 42.6572ZM 54.2979 42.6572L 57.3945 42.6572L 57.3945 37.7764L 57.2441 38.0498L 54.2979 42.6572Z"/>
</defs>
</svg>

