<svg width="585" height="63" viewBox="0 0 585 63" version="1.1" xmlns="http://www.w3.org/2000/svg" xmlns:xlink="http://www.w3.org/1999/xlink">
<title>Group.svg</title>
<desc>Created using Figma</desc>
<g id="Canvas" transform="translate(298 307)">
<g id="Group">
<g id="Line">
<use xlink:href="#path0_stroke" transform="matrix(1 0 -4.33681e-19 1 -298 -284)"/>
</g>
<g id="Line 2">
<use xlink:href="#path1_stroke" transform="matrix(6.12323e-17 1 -1 6.12323e-17 -298 -284)"/>
</g>
<g id="5 3 105 &#226;&#128;&#156;H&#226;&#128;&#157; &#226;&#128;&#156;e&#226;&#128;&#157; &#226;&#128;&#156;l&#226;&#128;&#157; &#226;&#128;&#156;l&#226;&#128;&#157; &#226;&#128;&#156;o&#226;&#128;&#157; &#226;&#128;&#156; &#226;&#128;&#156; &#226;&#128;&#156;w&#226;&#128;&#157; &#226;&#128;&#156;o&#226;&#128;&#157; &#226;&#128;&#156;r&#226;&#128;&#157; &#226;&#128;&#156;l&#226;&#128;&#157; &#226;&#128;&#156;d&#226;&#128;&#157;">
<use xlink:href="#path2_fill" transform="translate(-286 -276)"/>
</g>
<g id="Line 2">
<use xlink:href="#path3_stroke" transform="matrix(6.12323e-17 1 -1 6.12323e-17 285 -286)"/>
</g>
<g id="Line">
<use xlink:href="#path0_stroke" transform="matrix(1 -2.44929e-16 2.44929e-16 1 -298 -244)"/>
</g>
<g id="Line 2">
<use xlink:href="#path1_stroke" transform="matrix(6.12323e-17 1 -1 6.12323e-17 -263 -284)"/>
</g>
<g id="Line 2">
<use xlink:href="#path1_stroke" transform="matrix(6.12323e-17 1 -1 6.12323e-17 -226 -284)"/>
</g>
<g id="Line 2">
<use xlink:href="#path1_stroke" transform="matrix(6.12323e-17 1 -1 6.12323e-17 -175 -284)"/>
</g>
<g id="Line 2">
<use xlink:href="#path1_stroke" transform="matrix(6.12323e-17 1 -1 6.12323e-17 -129 -284)"/>
</g>
<g id="Line 2">
<use xlink:href="#path1_stroke" transform="matrix(6.12323e-17 1 -1 6.12323e-17 -83 -284)"/>
</g>
<g id="Line 2">
<use xlink:href="#path1_stroke" transform="matrix(6.12323e-17 1 -1 6.12323e-17 -46 -284)"/>
</g>
<g id="Line 2">
<use xlink:href="#path1_stroke" transform="matrix(6.12323e-17 1 -1 6.12323e-17 -4 -284)"/>
</g>
<g id="Line 2">
<use xlink:href="#path1_stroke" transform="matrix(6.12323e-17 1 -1 6.12323e-17 41 -284)"/>
</g>
<g id="Line 2">
<use xlink:href="#path1_stroke" transform="matrix(6.12323e-17 1 -1 6.12323e-17 87 -284)"/>
</g>
<g id="Line 2">
<use xlink:href="#path1_stroke" transform="matrix(6.12323e-17 1 -1 6.12323e-17 132 -284)"/>
</g>
<g id="Line 2">
<use xlink:href="#path1_stroke" transform="matrix(6.12323e-17 1 -1 6.12323e-17 171 -284)"/>
</g>
<g id="Line 2">
<use xlink:href="#path1_stroke" transform="matrix(6.12323e-17 1 -1 6.12323e-17 208 -284)"/>
</g>
<g id="Line 2">
<use xlink:href="#path1_stroke" transform="matrix(6.12323e-17 1 -1 6.12323e-17 243 -284)"/>
</g>
<g id="231 232 233 234 235 236 237 238 239 240 241 242 243 244">
<use xlink:href="#path4_fill" transform="translate(-293 -310)"/>
</g>
</g>
</g>
<defs>
<path id="path0_stroke" d="M 0 0L 583 0L 583 -1.5L 0 -1.5L 0 0Z"/>
<path id="path1_stroke" d="M 0 0L 40 0L 40 -1.5L 0 -1.5L 0 0Z"/>
<path id="path2_fill" d="M 1.81055 10.584L 2.46094 4.20312L 9.01758 4.20312L 9.01758 5.70605L 3.84082 5.70605L 3.4541 9.19531C 4.08105 8.82617 4.79297 8.6416 5.58984 8.6416C 6.75586 8.6416 7.68164 9.02832 8.36719 9.80176C 9.05273 10.5693 9.39551 11.6094 9.39551 12.9219C 9.39551 14.2402 9.03809 15.2803 8.32324 16.042C 7.61426 16.7979 6.62109 17.1758 5.34375 17.1758C 4.21289 17.1758 3.29004 16.8623 2.5752 16.2354C 1.86035 15.6084 1.45312 14.7412 1.35352 13.6338L 2.8916 13.6338C 2.99121 14.3662 3.25195 14.9199 3.67383 15.2949C 4.0957 15.6641 4.65234 15.8486 5.34375 15.8486C 6.09961 15.8486 6.69141 15.5908 7.11914 15.0752C 7.55273 14.5596 7.76953 13.8477 7.76953 12.9395C 7.76953 12.084 7.53516 11.3984 7.06641 10.8828C 6.60352 10.3613 5.98535 10.1006 5.21191 10.1006C 4.50293 10.1006 3.94629 10.2559 3.54199 10.5664L 3.11133 10.918L 1.81055 10.584ZM 40.3242 9.81055L 41.5459 9.81055C 42.3135 9.79883 42.917 9.59668 43.3564 9.2041C 43.7959 8.81152 44.0156 8.28125 44.0156 7.61328C 44.0156 6.11328 43.2686 5.36328 41.7744 5.36328C 41.0713 5.36328 40.5088 5.56543 40.0869 5.96973C 39.6709 6.36816 39.4629 6.89844 39.4629 7.56055L 37.8369 7.56055C 37.8369 6.54687 38.2061 5.70605 38.9443 5.03809C 39.6885 4.36426 40.6318 4.02734 41.7744 4.02734C 42.9814 4.02734 43.9277 4.34668 44.6133 4.98535C 45.2988 5.62402 45.6416 6.51172 45.6416 7.64844C 45.6416 8.20508 45.46 8.74414 45.0967 9.26562C 44.7393 9.78711 44.25 10.1768 43.6289 10.4346C 44.332 10.6572 44.874 11.0264 45.2549 11.542C 45.6416 12.0576 45.835 12.6875 45.835 13.4316C 45.835 14.5801 45.46 15.4912 44.71 16.165C 43.96 16.8389 42.9844 17.1758 41.7832 17.1758C 40.582 17.1758 39.6035 16.8506 38.8477 16.2002C 38.0977 15.5498 37.7227 14.6914 37.7227 13.625L 39.3574 13.625C 39.3574 14.2988 39.5771 14.8379 40.0166 15.2422C 40.4561 15.6465 41.0449 15.8486 41.7832 15.8486C 42.5684 15.8486 43.1689 15.6436 43.585 15.2334C 44.001 14.8232 44.209 14.2344 44.209 13.4668C 44.209 12.7227 43.9805 12.1514 43.5234 11.7529C 43.0664 11.3545 42.4072 11.1494 41.5459 11.1377L 40.3242 11.1377L 40.3242 9.81055ZM 75.7354 17L 74.1006 17L 74.1006 6.16309L 70.8223 7.36719L 70.8223 5.89062L 75.4805 4.1416L 75.7354 4.1416L 75.7354 17ZM 88.5234 11.542C 88.5234 13.4463 88.1982 14.8613 87.5479 15.7871C 86.8975 16.7129 85.8809 17.1758 84.498 17.1758C 83.1328 17.1758 82.1221 16.7246 81.4658 15.8223C 80.8096 14.9141 80.4697 13.5605 80.4463 11.7617L 80.4463 9.59082C 80.4463 7.70996 80.7715 6.3125 81.4219 5.39844C 82.0723 4.48438 83.0918 4.02734 84.4805 4.02734C 85.8574 4.02734 86.8711 4.46973 87.5215 5.35449C 88.1719 6.2334 88.5059 7.59277 88.5234 9.43262L 88.5234 11.542ZM 86.8975 9.31836C 86.8975 7.94141 86.7041 6.93945 86.3174 6.3125C 85.9307 5.67969 85.3184 5.36328 84.4805 5.36328C 83.6484 5.36328 83.042 5.67676 82.6611 6.30371C 82.2803 6.93066 82.084 7.89453 82.0723 9.19531L 82.0723 11.7969C 82.0723 13.1797 82.2715 14.2021 82.6699 14.8643C 83.0742 15.5205 83.6836 15.8486 84.498 15.8486C 85.3008 15.8486 85.8955 15.5381 86.2822 14.917C 86.6748 14.2959 86.8799 13.3174 86.8975 11.9814L 86.8975 9.31836ZM 91.3535 10.584L 92.0039 4.20312L 98.5605 4.20312L 98.5605 5.70605L 93.3838 5.70605L 92.9971 9.19531C 93.624 8.82617 94.3359 8.6416 95.1328 8.6416C 96.2988 8.6416 97.2246 9.02832 97.9102 9.80176C 98.5957 10.5693 98.9385 11.6094 98.9385 12.9219C 98.9385 14.2402 98.5811 15.2803 97.8662 16.042C 97.1572 16.7979 96.1641 17.1758 94.8867 17.1758C 93.7559 17.1758 92.833 16.8623 92.1182 16.2354C 91.4033 15.6084 90.9961 14.7412 90.8965 13.6338L 92.4346 13.6338C 92.5342 14.3662 92.7949 14.9199 93.2168 15.2949C 93.6387 15.6641 94.1953 15.8486 94.8867 15.8486C 95.6426 15.8486 96.2344 15.5908 96.6621 15.0752C 97.0957 14.5596 97.3125 13.8477 97.3125 12.9395C 97.3125 12.084 97.0781 11.3984 96.6094 10.8828C 96.1465 10.3613 95.5283 10.1006 94.7549 10.1006C 94.0459 10.1006 93.4893 10.2559 93.085 10.5664L 92.6543 10.918L 91.3535 10.584ZM 124.418 3.33301L 125.35 3.96582C 124.805 4.70996 124.523 5.5127 124.506 6.37402L 124.506 7.56934L 122.889 7.56934L 122.889 6.5498C 122.889 5.95215 123.029 5.36035 123.311 4.77441C 123.598 4.18848 123.967 3.70801 124.418 3.33301ZM 127.187 3.33301L 128.118 3.96582C 127.573 4.70996 127.292 5.5127 127.274 6.37402L 127.274 7.56934L 125.657 7.56934L 125.657 6.5498C 125.657 5.95215 125.798 5.36035 126.079 4.77441C 126.366 4.18848 126.735 3.70801 127.187 3.33301ZM 139.658 17L 137.962 17L 137.962 11.085L 131.511 11.085L 131.511 17L 129.823 17L 129.823 4.20312L 131.511 4.20312L 131.511 9.70508L 137.962 9.70508L 137.962 4.20312L 139.658 4.20312L 139.658 17ZM 142.62 7.80664L 141.697 7.17383C 142.242 6.41211 142.523 5.60938 142.541 4.76562L 142.541 3.5L 144.149 3.5L 144.149 4.64258C 144.144 5.22852 143.997 5.81445 143.71 6.40039C 143.429 6.98047 143.065 7.44922 142.62 7.80664ZM 145.318 7.80664L 144.396 7.17383C 144.94 6.41211 145.222 5.60938 145.239 4.76562L 145.239 3.5L 146.848 3.5L 146.848 4.64258C 146.842 5.22852 146.695 5.81445 146.408 6.40039C 146.127 6.98047 145.764 7.44922 145.318 7.80664ZM 172.371 3.33301L 173.303 3.96582C 172.758 4.70996 172.477 5.5127 172.459 6.37402L 172.459 7.56934L 170.842 7.56934L 170.842 6.5498C 170.842 5.95215 170.982 5.36035 171.264 4.77441C 171.551 4.18848 171.92 3.70801 172.371 3.33301ZM 175.14 3.33301L 176.071 3.96582C 175.526 4.70996 175.245 5.5127 175.228 6.37402L 175.228 7.56934L 173.61 7.56934L 173.61 6.5498C 173.61 5.95215 173.751 5.36035 174.032 4.77441C 174.319 4.18848 174.688 3.70801 175.14 3.33301ZM 180.94 17.1758C 179.651 17.1758 178.603 16.7539 177.794 15.9102C 176.985 15.0605 176.581 13.9268 176.581 12.5088L 176.581 12.21C 176.581 11.2666 176.76 10.4258 177.117 9.6875C 177.48 8.94336 177.984 8.36328 178.629 7.94727C 179.279 7.52539 179.982 7.31445 180.738 7.31445C 181.975 7.31445 182.936 7.72168 183.621 8.53613C 184.307 9.35059 184.649 10.5166 184.649 12.0342L 184.649 12.7109L 178.207 12.7109C 178.23 13.6484 178.503 14.4072 179.024 14.9873C 179.552 15.5615 180.22 15.8486 181.028 15.8486C 181.603 15.8486 182.089 15.7314 182.487 15.4971C 182.886 15.2627 183.234 14.9521 183.533 14.5654L 184.526 15.3389C 183.729 16.5635 182.534 17.1758 180.94 17.1758ZM 180.738 8.65039C 180.082 8.65039 179.531 8.89062 179.086 9.37109C 178.641 9.8457 178.365 10.5137 178.26 11.375L 183.023 11.375L 183.023 11.252C 182.977 10.4258 182.754 9.78711 182.355 9.33594C 181.957 8.87891 181.418 8.65039 180.738 8.65039ZM 186.636 7.80664L 185.713 7.17383C 186.258 6.41211 186.539 5.60938 186.557 4.76562L 186.557 3.5L 188.165 3.5L 188.165 4.64258C 188.159 5.22852 188.013 5.81445 187.726 6.40039C 187.444 6.98047 187.081 7.44922 186.636 7.80664ZM 189.334 7.80664L 188.411 7.17383C 188.956 6.41211 189.237 5.60938 189.255 4.76562L 189.255 3.5L 190.863 3.5L 190.863 4.64258C 190.857 5.22852 190.711 5.81445 190.424 6.40039C 190.143 6.98047 189.779 7.44922 189.334 7.80664ZM 216.387 3.33301L 217.318 3.96582C 216.773 4.70996 216.492 5.5127 216.475 6.37402L 216.475 7.56934L 214.857 7.56934L 214.857 6.5498C 214.857 5.95215 214.998 5.36035 215.279 4.77441C 215.566 4.18848 215.936 3.70801 216.387 3.33301ZM 219.155 3.33301L 220.087 3.96582C 219.542 4.70996 219.261 5.5127 219.243 6.37402L 219.243 7.56934L 217.626 7.56934L 217.626 6.5498C 217.626 5.95215 217.767 5.36035 218.048 4.77441C 218.335 4.18848 218.704 3.70801 219.155 3.33301ZM 223.304 17L 221.678 17L 221.678 3.5L 223.304 3.5L 223.304 17ZM 226.134 7.80664L 225.211 7.17383C 225.756 6.41211 226.037 5.60938 226.055 4.76562L 226.055 3.5L 227.663 3.5L 227.663 4.64258C 227.657 5.22852 227.511 5.81445 227.224 6.40039C 226.942 6.98047 226.579 7.44922 226.134 7.80664ZM 228.832 7.80664L 227.909 7.17383C 228.454 6.41211 228.735 5.60938 228.753 4.76562L 228.753 3.5L 230.361 3.5L 230.361 4.64258C 230.355 5.22852 230.209 5.81445 229.922 6.40039C 229.641 6.98047 229.277 7.44922 228.832 7.80664ZM 255.885 3.33301L 256.816 3.96582C 256.271 4.70996 255.99 5.5127 255.973 6.37402L 255.973 7.56934L 254.355 7.56934L 254.355 6.5498C 254.355 5.95215 254.496 5.36035 254.777 4.77441C 255.064 4.18848 255.434 3.70801 255.885 3.33301ZM 258.653 3.33301L 259.585 3.96582C 259.04 4.70996 258.759 5.5127 258.741 6.37402L 258.741 7.56934L 257.124 7.56934L 257.124 6.5498C 257.124 5.95215 257.265 5.36035 257.546 4.77441C 257.833 4.18848 258.202 3.70801 258.653 3.33301ZM 262.802 17L 261.176 17L 261.176 3.5L 262.802 3.5L 262.802 17ZM 265.632 7.80664L 264.709 7.17383C 265.254 6.41211 265.535 5.60938 265.553 4.76562L 265.553 3.5L 267.161 3.5L 267.161 4.64258C 267.155 5.22852 267.009 5.81445 266.722 6.40039C 266.44 6.98047 266.077 7.44922 265.632 7.80664ZM 268.33 7.80664L 267.407 7.17383C 267.952 6.41211 268.233 5.60938 268.251 4.76562L 268.251 3.5L 269.859 3.5L 269.859 4.64258C 269.854 5.22852 269.707 5.81445 269.42 6.40039C 269.139 6.98047 268.775 7.44922 268.33 7.80664ZM 295.383 3.33301L 296.314 3.96582C 295.77 4.70996 295.488 5.5127 295.471 6.37402L 295.471 7.56934L 293.854 7.56934L 293.854 6.5498C 293.854 5.95215 293.994 5.36035 294.275 4.77441C 294.563 4.18848 294.932 3.70801 295.383 3.33301ZM 298.151 3.33301L 299.083 3.96582C 298.538 4.70996 298.257 5.5127 298.239 6.37402L 298.239 7.56934L 296.622 7.56934L 296.622 6.5498C 296.622 5.95215 296.763 5.36035 297.044 4.77441C 297.331 4.18848 297.7 3.70801 298.151 3.33301ZM 299.558 12.1572C 299.558 11.2256 299.739 10.3877 300.103 9.64355C 300.472 8.89941 300.981 8.3252 301.632 7.9209C 302.288 7.5166 303.035 7.31445 303.873 7.31445C 305.168 7.31445 306.214 7.7627 307.011 8.65918C 307.813 9.55566 308.215 10.748 308.215 12.2363L 308.215 12.3506C 308.215 13.2764 308.036 14.1084 307.679 14.8467C 307.327 15.5791 306.82 16.1504 306.158 16.5605C 305.502 16.9707 304.746 17.1758 303.891 17.1758C 302.602 17.1758 301.556 16.7275 300.753 15.8311C 299.956 14.9346 299.558 13.748 299.558 12.2715L 299.558 12.1572ZM 301.192 12.3506C 301.192 13.4053 301.436 14.252 301.922 14.8906C 302.414 15.5293 303.07 15.8486 303.891 15.8486C 304.717 15.8486 305.373 15.5264 305.859 14.8818C 306.346 14.2314 306.589 13.3232 306.589 12.1572C 306.589 11.1143 306.34 10.2705 305.842 9.62598C 305.35 8.97559 304.693 8.65039 303.873 8.65039C 303.07 8.65039 302.423 8.96973 301.931 9.6084C 301.438 10.2471 301.192 11.1611 301.192 12.3506ZM 309.278 7.80664L 308.355 7.17383C 308.9 6.41211 309.182 5.60938 309.199 4.76562L 309.199 3.5L 310.808 3.5L 310.808 4.64258C 310.802 5.22852 310.655 5.81445 310.368 6.40039C 310.087 6.98047 309.724 7.44922 309.278 7.80664ZM 311.977 7.80664L 311.054 7.17383C 311.599 6.41211 311.88 5.60938 311.897 4.76562L 311.897 3.5L 313.506 3.5L 313.506 4.64258C 313.5 5.22852 313.354 5.81445 313.066 6.40039C 312.785 6.98047 312.422 7.44922 311.977 7.80664ZM 339.029 3.33301L 339.961 3.96582C 339.416 4.70996 339.135 5.5127 339.117 6.37402L 339.117 7.56934L 337.5 7.56934L 337.5 6.5498C 337.5 5.95215 337.641 5.36035 337.922 4.77441C 338.209 4.18848 338.578 3.70801 339.029 3.33301ZM 341.798 3.33301L 342.729 3.96582C 342.185 4.70996 341.903 5.5127 341.886 6.37402L 341.886 7.56934L 340.269 7.56934L 340.269 6.5498C 340.269 5.95215 340.409 5.36035 340.69 4.77441C 340.978 4.18848 341.347 3.70801 341.798 3.33301ZM 358.787 3.33301L 359.719 3.96582C 359.174 4.70996 358.893 5.5127 358.875 6.37402L 358.875 7.56934L 357.258 7.56934L 357.258 6.5498C 357.258 5.95215 357.398 5.36035 357.68 4.77441C 357.967 4.18848 358.336 3.70801 358.787 3.33301ZM 361.556 3.33301L 362.487 3.96582C 361.942 4.70996 361.661 5.5127 361.644 6.37402L 361.644 7.56934L 360.026 7.56934L 360.026 6.5498C 360.026 5.95215 360.167 5.36035 360.448 4.77441C 360.735 4.18848 361.104 3.70801 361.556 3.33301ZM 387.475 3.33301L 388.406 3.96582C 387.861 4.70996 387.58 5.5127 387.562 6.37402L 387.562 7.56934L 385.945 7.56934L 385.945 6.5498C 385.945 5.95215 386.086 5.36035 386.367 4.77441C 386.654 4.18848 387.023 3.70801 387.475 3.33301ZM 390.243 3.33301L 391.175 3.96582C 390.63 4.70996 390.349 5.5127 390.331 6.37402L 390.331 7.56934L 388.714 7.56934L 388.714 6.5498C 388.714 5.95215 388.854 5.36035 389.136 4.77441C 389.423 4.18848 389.792 3.70801 390.243 3.33301ZM 401.15 14.7588L 402.979 7.49023L 404.604 7.49023L 401.836 17L 400.518 17L 398.206 9.79297L 395.956 17L 394.638 17L 391.878 7.49023L 393.495 7.49023L 395.367 14.6094L 397.582 7.49023L 398.892 7.49023L 401.15 14.7588ZM 406.485 7.80664L 405.562 7.17383C 406.107 6.41211 406.389 5.60938 406.406 4.76562L 406.406 3.5L 408.015 3.5L 408.015 4.64258C 408.009 5.22852 407.862 5.81445 407.575 6.40039C 407.294 6.98047 406.931 7.44922 406.485 7.80664ZM 409.184 7.80664L 408.261 7.17383C 408.806 6.41211 409.087 5.60938 409.104 4.76562L 409.104 3.5L 410.713 3.5L 410.713 4.64258C 410.707 5.22852 410.561 5.81445 410.273 6.40039C 409.992 6.98047 409.629 7.44922 409.184 7.80664ZM 431.771 3.33301L 432.703 3.96582C 432.158 4.70996 431.877 5.5127 431.859 6.37402L 431.859 7.56934L 430.242 7.56934L 430.242 6.5498C 430.242 5.95215 430.383 5.36035 430.664 4.77441C 430.951 4.18848 431.32 3.70801 431.771 3.33301ZM 434.54 3.33301L 435.472 3.96582C 434.927 4.70996 434.646 5.5127 434.628 6.37402L 434.628 7.56934L 433.011 7.56934L 433.011 6.5498C 433.011 5.95215 433.151 5.36035 433.433 4.77441C 433.72 4.18848 434.089 3.70801 434.54 3.33301ZM 435.946 12.1572C 435.946 11.2256 436.128 10.3877 436.491 9.64355C 436.86 8.89941 437.37 8.3252 438.021 7.9209C 438.677 7.5166 439.424 7.31445 440.262 7.31445C 441.557 7.31445 442.603 7.7627 443.399 8.65918C 444.202 9.55566 444.604 10.748 444.604 12.2363L 444.604 12.3506C 444.604 13.2764 444.425 14.1084 444.067 14.8467C 443.716 15.5791 443.209 16.1504 442.547 16.5605C 441.891 16.9707 441.135 17.1758 440.279 17.1758C 438.99 17.1758 437.944 16.7275 437.142 15.8311C 436.345 14.9346 435.946 13.748 435.946 12.2715L 435.946 12.1572ZM 437.581 12.3506C 437.581 13.4053 437.824 14.252 438.311 14.8906C 438.803 15.5293 439.459 15.8486 440.279 15.8486C 441.105 15.8486 441.762 15.5264 442.248 14.8818C 442.734 14.2314 442.978 13.3232 442.978 12.1572C 442.978 11.1143 442.729 10.2705 442.23 9.62598C 441.738 8.97559 441.082 8.65039 440.262 8.65039C 439.459 8.65039 438.812 8.96973 438.319 9.6084C 437.827 10.2471 437.581 11.1611 437.581 12.3506ZM 445.667 7.80664L 444.744 7.17383C 445.289 6.41211 445.57 5.60938 445.588 4.76562L 445.588 3.5L 447.196 3.5L 447.196 4.64258C 447.19 5.22852 447.044 5.81445 446.757 6.40039C 446.476 6.98047 446.112 7.44922 445.667 7.80664ZM 448.365 7.80664L 447.442 7.17383C 447.987 6.41211 448.269 5.60938 448.286 4.76562L 448.286 3.5L 449.895 3.5L 449.895 4.64258C 449.889 5.22852 449.742 5.81445 449.455 6.40039C 449.174 6.98047 448.811 7.44922 448.365 7.80664ZM 470.953 3.33301L 471.885 3.96582C 471.34 4.70996 471.059 5.5127 471.041 6.37402L 471.041 7.56934L 469.424 7.56934L 469.424 6.5498C 469.424 5.95215 469.564 5.36035 469.846 4.77441C 470.133 4.18848 470.502 3.70801 470.953 3.33301ZM 473.722 3.33301L 474.653 3.96582C 474.108 4.70996 473.827 5.5127 473.81 6.37402L 473.81 7.56934L 472.192 7.56934L 472.192 6.5498C 472.192 5.95215 472.333 5.36035 472.614 4.77441C 472.901 4.18848 473.271 3.70801 473.722 3.33301ZM 480.7 8.94922C 480.454 8.9082 480.188 8.8877 479.9 8.8877C 478.834 8.8877 478.11 9.3418 477.729 10.25L 477.729 17L 476.104 17L 476.104 7.49023L 477.686 7.49023L 477.712 8.58887C 478.245 7.73926 479.001 7.31445 479.979 7.31445C 480.296 7.31445 480.536 7.35547 480.7 7.4375L 480.7 8.94922ZM 482.563 7.80664L 481.641 7.17383C 482.186 6.41211 482.467 5.60938 482.484 4.76562L 482.484 3.5L 484.093 3.5L 484.093 4.64258C 484.087 5.22852 483.94 5.81445 483.653 6.40039C 483.372 6.98047 483.009 7.44922 482.563 7.80664ZM 485.262 7.80664L 484.339 7.17383C 484.884 6.41211 485.165 5.60938 485.183 4.76562L 485.183 3.5L 486.791 3.5L 486.791 4.64258C 486.785 5.22852 486.639 5.81445 486.352 6.40039C 486.07 6.98047 485.707 7.44922 485.262 7.80664ZM 507.85 3.33301L 508.781 3.96582C 508.236 4.70996 507.955 5.5127 507.938 6.37402L 507.938 7.56934L 506.32 7.56934L 506.32 6.5498C 506.32 5.95215 506.461 5.36035 506.742 4.77441C 507.029 4.18848 507.398 3.70801 507.85 3.33301ZM 510.618 3.33301L 511.55 3.96582C 511.005 4.70996 510.724 5.5127 510.706 6.37402L 510.706 7.56934L 509.089 7.56934L 509.089 6.5498C 509.089 5.95215 509.229 5.36035 509.511 4.77441C 509.798 4.18848 510.167 3.70801 510.618 3.33301ZM 514.767 17L 513.141 17L 513.141 3.5L 514.767 3.5L 514.767 17ZM 517.597 7.80664L 516.674 7.17383C 517.219 6.41211 517.5 5.60938 517.518 4.76562L 517.518 3.5L 519.126 3.5L 519.126 4.64258C 519.12 5.22852 518.974 5.81445 518.687 6.40039C 518.405 6.98047 518.042 7.44922 517.597 7.80664ZM 520.295 7.80664L 519.372 7.17383C 519.917 6.41211 520.198 5.60938 520.216 4.76562L 520.216 3.5L 521.824 3.5L 521.824 4.64258C 521.818 5.22852 521.672 5.81445 521.385 6.40039C 521.104 6.98047 520.74 7.44922 520.295 7.80664ZM 542.883 3.33301L 543.814 3.96582C 543.27 4.70996 542.988 5.5127 542.971 6.37402L 542.971 7.56934L 541.354 7.56934L 541.354 6.5498C 541.354 5.95215 541.494 5.36035 541.775 4.77441C 542.063 4.18848 542.432 3.70801 542.883 3.33301ZM 545.651 3.33301L 546.583 3.96582C 546.038 4.70996 545.757 5.5127 545.739 6.37402L 545.739 7.56934L 544.122 7.56934L 544.122 6.5498C 544.122 5.95215 544.263 5.36035 544.544 4.77441C 544.831 4.18848 545.2 3.70801 545.651 3.33301ZM 547.11 12.166C 547.11 10.707 547.456 9.53516 548.147 8.65039C 548.839 7.75977 549.744 7.31445 550.863 7.31445C 551.977 7.31445 552.858 7.69531 553.509 8.45703L 553.509 3.5L 555.135 3.5L 555.135 17L 553.641 17L 553.562 15.9805C 552.911 16.7773 552.006 17.1758 550.846 17.1758C 549.744 17.1758 548.845 16.7246 548.147 15.8223C 547.456 14.9199 547.11 13.7422 547.11 12.2891L 547.11 12.166ZM 548.736 12.3506C 548.736 13.4287 548.959 14.2725 549.404 14.8818C 549.85 15.4912 550.465 15.7959 551.25 15.7959C 552.281 15.7959 553.034 15.333 553.509 14.4072L 553.509 10.0391C 553.022 9.14258 552.275 8.69434 551.268 8.69434C 550.471 8.69434 549.85 9.00195 549.404 9.61719C 548.959 10.2324 548.736 11.1436 548.736 12.3506ZM 557.886 7.80664L 556.963 7.17383C 557.508 6.41211 557.789 5.60938 557.807 4.76562L 557.807 3.5L 559.415 3.5L 559.415 4.64258C 559.409 5.22852 559.263 5.81445 558.976 6.40039C 558.694 6.98047 558.331 7.44922 557.886 7.80664ZM 560.584 7.80664L 559.661 7.17383C 560.206 6.41211 560.487 5.60938 560.505 4.76562L 560.505 3.5L 562.113 3.5L 562.113 4.64258C 562.107 5.22852 561.961 5.81445 561.674 6.40039C 561.393 6.98047 561.029 7.44922 560.584 7.80664Z"/>
<path id="path3_stroke" d="M 0 0L 42 0L 42 -1.5L 0 -1.5L 0 0Z"/>
<path id="path4_fill" d="M 8.39844 15L 0.945312 15L 0.945312 13.9609L 4.88281 9.58594C 5.46615 8.92448 5.86719 8.38802 6.08594 7.97656C 6.3099 7.5599 6.42188 7.13021 6.42188 6.6875C 6.42188 6.09375 6.24219 5.60677 5.88281 5.22656C 5.52344 4.84635 5.04427 4.65625 4.44531 4.65625C 3.72656 4.65625 3.16667 4.86198 2.76562 5.27344C 2.36979 5.67969 2.17188 6.2474 2.17188 6.97656L 0.726562 6.97656C 0.726562 5.92969 1.0625 5.08333 1.73438 4.4375C 2.41146 3.79167 3.3151 3.46875 4.44531 3.46875C 5.5026 3.46875 6.33854 3.7474 6.95312 4.30469C 7.56771 4.85677 7.875 5.59375 7.875 6.51562C 7.875 7.63542 7.16146 8.96875 5.73438 10.5156L 2.6875 13.8203L 8.39844 13.8203L 8.39844 15ZM 12.0312 8.60938L 13.1172 8.60938C 13.7995 8.59896 14.3359 8.41927 14.7266 8.07031C 15.1172 7.72135 15.3125 7.25 15.3125 6.65625C 15.3125 5.32292 14.6484 4.65625 13.3203 4.65625C 12.6953 4.65625 12.1953 4.83594 11.8203 5.19531C 11.4505 5.54948 11.2656 6.02083 11.2656 6.60938L 9.82031 6.60938C 9.82031 5.70833 10.1484 4.96094 10.8047 4.36719C 11.4661 3.76823 12.3047 3.46875 13.3203 3.46875C 14.3932 3.46875 15.2344 3.7526 15.8438 4.32031C 16.4531 4.88802 16.7578 5.67708 16.7578 6.6875C 16.7578 7.18229 16.5964 7.66146 16.2734 8.125C 15.9557 8.58854 15.5208 8.9349 14.9688 9.16406C 15.5938 9.36198 16.0755 9.6901 16.4141 10.1484C 16.7578 10.6068 16.9297 11.1667 16.9297 11.8281C 16.9297 12.849 16.5964 13.6589 15.9297 14.2578C 15.263 14.8568 14.3958 15.1562 13.3281 15.1562C 12.2604 15.1562 11.3906 14.8672 10.7188 14.2891C 10.0521 13.7109 9.71875 12.9479 9.71875 12L 11.1719 12C 11.1719 12.599 11.3672 13.0781 11.7578 13.4375C 12.1484 13.7969 12.6719 13.9766 13.3281 13.9766C 14.026 13.9766 14.5599 13.7943 14.9297 13.4297C 15.2995 13.0651 15.4844 12.5417 15.4844 11.8594C 15.4844 11.1979 15.2812 10.6901 14.875 10.3359C 14.4688 9.98177 13.8828 9.79948 13.1172 9.78906L 12.0312 9.78906L 12.0312 8.60938ZM 23.6641 15L 22.2109 15L 22.2109 5.36719L 19.2969 6.4375L 19.2969 5.125L 23.4375 3.57031L 23.6641 3.57031L 23.6641 15ZM 43.2891 15L 35.8359 15L 35.8359 13.9609L 39.7734 9.58594C 40.3568 8.92448 40.7578 8.38802 40.9766 7.97656C 41.2005 7.5599 41.3125 7.13021 41.3125 6.6875C 41.3125 6.09375 41.1328 5.60677 40.7734 5.22656C 40.4141 4.84635 39.9349 4.65625 39.3359 4.65625C 38.6172 4.65625 38.0573 4.86198 37.6562 5.27344C 37.2604 5.67969 37.0625 6.2474 37.0625 6.97656L 35.6172 6.97656C 35.6172 5.92969 35.9531 5.08333 36.625 4.4375C 37.3021 3.79167 38.2057 3.46875 39.3359 3.46875C 40.3932 3.46875 41.2292 3.7474 41.8438 4.30469C 42.4583 4.85677 42.7656 5.59375 42.7656 6.51562C 42.7656 7.63542 42.0521 8.96875 40.625 10.5156L 37.5781 13.8203L 43.2891 13.8203L 43.2891 15ZM 46.9219 8.60938L 48.0078 8.60938C 48.6901 8.59896 49.2266 8.41927 49.6172 8.07031C 50.0078 7.72135 50.2031 7.25 50.2031 6.65625C 50.2031 5.32292 49.5391 4.65625 48.2109 4.65625C 47.5859 4.65625 47.0859 4.83594 46.7109 5.19531C 46.3411 5.54948 46.1562 6.02083 46.1562 6.60938L 44.7109 6.60938C 44.7109 5.70833 45.0391 4.96094 45.6953 4.36719C 46.3568 3.76823 47.1953 3.46875 48.2109 3.46875C 49.2839 3.46875 50.125 3.7526 50.7344 4.32031C 51.3438 4.88802 51.6484 5.67708 51.6484 6.6875C 51.6484 7.18229 51.487 7.66146 51.1641 8.125C 50.8464 8.58854 50.4115 8.9349 49.8594 9.16406C 50.4844 9.36198 50.9661 9.6901 51.3047 10.1484C 51.6484 10.6068 51.8203 11.1667 51.8203 11.8281C 51.8203 12.849 51.487 13.6589 50.8203 14.2578C 50.1536 14.8568 49.2865 15.1562 48.2188 15.1562C 47.151 15.1562 46.2812 14.8672 45.6094 14.2891C 44.9427 13.7109 44.6094 12.9479 44.6094 12L 46.0625 12C 46.0625 12.599 46.2578 13.0781 46.6484 13.4375C 47.0391 13.7969 47.5625 13.9766 48.2188 13.9766C 48.9167 13.9766 49.4505 13.7943 49.8203 13.4297C 50.1901 13.0651 50.375 12.5417 50.375 11.8594C 50.375 11.1979 50.1719 10.6901 49.7656 10.3359C 49.3594 9.98177 48.7734 9.79948 48.0078 9.78906L 46.9219 9.78906L 46.9219 8.60938ZM 61.2578 15L 53.8047 15L 53.8047 13.9609L 57.7422 9.58594C 58.3255 8.92448 58.7266 8.38802 58.9453 7.97656C 59.1693 7.5599 59.2812 7.13021 59.2812 6.6875C 59.2812 6.09375 59.1016 5.60677 58.7422 5.22656C 58.3828 4.84635 57.9036 4.65625 57.3047 4.65625C 56.5859 4.65625 56.026 4.86198 55.625 5.27344C 55.2292 5.67969 55.0312 6.2474 55.0312 6.97656L 53.5859 6.97656C 53.5859 5.92969 53.9219 5.08333 54.5938 4.4375C 55.2708 3.79167 56.1745 3.46875 57.3047 3.46875C 58.362 3.46875 59.1979 3.7474 59.8125 4.30469C 60.4271 4.85677 60.7344 5.59375 60.7344 6.51562C 60.7344 7.63542 60.0208 8.96875 58.5938 10.5156L 55.5469 13.8203L 61.2578 13.8203L 61.2578 15ZM 86.1172 15L 78.6641 15L 78.6641 13.9609L 82.6016 9.58594C 83.1849 8.92448 83.5859 8.38802 83.8047 7.97656C 84.0286 7.5599 84.1406 7.13021 84.1406 6.6875C 84.1406 6.09375 83.9609 5.60677 83.6016 5.22656C 83.2422 4.84635 82.763 4.65625 82.1641 4.65625C 81.4453 4.65625 80.8854 4.86198 80.4844 5.27344C 80.0885 5.67969 79.8906 6.2474 79.8906 6.97656L 78.4453 6.97656C 78.4453 5.92969 78.7812 5.08333 79.4531 4.4375C 80.1302 3.79167 81.0339 3.46875 82.1641 3.46875C 83.2214 3.46875 84.0573 3.7474 84.6719 4.30469C 85.2865 4.85677 85.5938 5.59375 85.5938 6.51562C 85.5938 7.63542 84.8802 8.96875 83.4531 10.5156L 80.4062 13.8203L 86.1172 13.8203L 86.1172 15ZM 89.75 8.60938L 90.8359 8.60938C 91.5182 8.59896 92.0547 8.41927 92.4453 8.07031C 92.8359 7.72135 93.0312 7.25 93.0312 6.65625C 93.0312 5.32292 92.3672 4.65625 91.0391 4.65625C 90.4141 4.65625 89.9141 4.83594 89.5391 5.19531C 89.1693 5.54948 88.9844 6.02083 88.9844 6.60938L 87.5391 6.60938C 87.5391 5.70833 87.8672 4.96094 88.5234 4.36719C 89.1849 3.76823 90.0234 3.46875 91.0391 3.46875C 92.112 3.46875 92.9531 3.7526 93.5625 4.32031C 94.1719 4.88802 94.4766 5.67708 94.4766 6.6875C 94.4766 7.18229 94.3151 7.66146 93.9922 8.125C 93.6745 8.58854 93.2396 8.9349 92.6875 9.16406C 93.3125 9.36198 93.7943 9.6901 94.1328 10.1484C 94.4766 10.6068 94.6484 11.1667 94.6484 11.8281C 94.6484 12.849 94.3151 13.6589 93.6484 14.2578C 92.9818 14.8568 92.1146 15.1562 91.0469 15.1562C 89.9792 15.1562 89.1094 14.8672 88.4375 14.2891C 87.7708 13.7109 87.4375 12.9479 87.4375 12L 88.8906 12C 88.8906 12.599 89.0859 13.0781 89.4766 13.4375C 89.8672 13.7969 90.3906 13.9766 91.0469 13.9766C 91.7448 13.9766 92.2786 13.7943 92.6484 13.4297C 93.0182 13.0651 93.2031 12.5417 93.2031 11.8594C 93.2031 11.1979 93 10.6901 92.5938 10.3359C 92.1875 9.98177 91.6016 9.79948 90.8359 9.78906L 89.75 9.78906L 89.75 8.60938ZM 98.7344 8.60938L 99.8203 8.60938C 100.503 8.59896 101.039 8.41927 101.43 8.07031C 101.82 7.72135 102.016 7.25 102.016 6.65625C 102.016 5.32292 101.352 4.65625 100.023 4.65625C 99.3984 4.65625 98.8984 4.83594 98.5234 5.19531C 98.1536 5.54948 97.9688 6.02083 97.9688 6.60938L 96.5234 6.60938C 96.5234 5.70833 96.8516 4.96094 97.5078 4.36719C 98.1693 3.76823 99.0078 3.46875 100.023 3.46875C 101.096 3.46875 101.938 3.7526 102.547 4.32031C 103.156 4.88802 103.461 5.67708 103.461 6.6875C 103.461 7.18229 103.299 7.66146 102.977 8.125C 102.659 8.58854 102.224 8.9349 101.672 9.16406C 102.297 9.36198 102.779 9.6901 103.117 10.1484C 103.461 10.6068 103.633 11.1667 103.633 11.8281C 103.633 12.849 103.299 13.6589 102.633 14.2578C 101.966 14.8568 101.099 15.1562 100.031 15.1562C 98.9635 15.1562 98.0938 14.8672 97.4219 14.2891C 96.7552 13.7109 96.4219 12.9479 96.4219 12L 97.875 12C 97.875 12.599 98.0703 13.0781 98.4609 13.4375C 98.8516 13.7969 99.375 13.9766 100.031 13.9766C 100.729 13.9766 101.263 13.7943 101.633 13.4297C 102.003 13.0651 102.188 12.5417 102.188 11.8594C 102.188 11.1979 101.984 10.6901 101.578 10.3359C 101.172 9.98177 100.586 9.79948 99.8203 9.78906L 98.7344 9.78906L 98.7344 8.60938ZM 136.883 15L 129.43 15L 129.43 13.9609L 133.367 9.58594C 133.951 8.92448 134.352 8.38802 134.57 7.97656C 134.794 7.5599 134.906 7.13021 134.906 6.6875C 134.906 6.09375 134.727 5.60677 134.367 5.22656C 134.008 4.84635 133.529 4.65625 132.93 4.65625C 132.211 4.65625 131.651 4.86198 131.25 5.27344C 130.854 5.67969 130.656 6.2474 130.656 6.97656L 129.211 6.97656C 129.211 5.92969 129.547 5.08333 130.219 4.4375C 130.896 3.79167 131.799 3.46875 132.93 3.46875C 133.987 3.46875 134.823 3.7474 135.438 4.30469C 136.052 4.85677 136.359 5.59375 136.359 6.51562C 136.359 7.63542 135.646 8.96875 134.219 10.5156L 131.172 13.8203L 136.883 13.8203L 136.883 15ZM 140.516 8.60938L 141.602 8.60938C 142.284 8.59896 142.82 8.41927 143.211 8.07031C 143.602 7.72135 143.797 7.25 143.797 6.65625C 143.797 5.32292 143.133 4.65625 141.805 4.65625C 141.18 4.65625 140.68 4.83594 140.305 5.19531C 139.935 5.54948 139.75 6.02083 139.75 6.60938L 138.305 6.60938C 138.305 5.70833 138.633 4.96094 139.289 4.36719C 139.951 3.76823 140.789 3.46875 141.805 3.46875C 142.878 3.46875 143.719 3.7526 144.328 4.32031C 144.938 4.88802 145.242 5.67708 145.242 6.6875C 145.242 7.18229 145.081 7.66146 144.758 8.125C 144.44 8.58854 144.005 8.9349 143.453 9.16406C 144.078 9.36198 144.56 9.6901 144.898 10.1484C 145.242 10.6068 145.414 11.1667 145.414 11.8281C 145.414 12.849 145.081 13.6589 144.414 14.2578C 143.747 14.8568 142.88 15.1562 141.812 15.1562C 140.745 15.1562 139.875 14.8672 139.203 14.2891C 138.536 13.7109 138.203 12.9479 138.203 12L 139.656 12C 139.656 12.599 139.852 13.0781 140.242 13.4375C 140.633 13.7969 141.156 13.9766 141.812 13.9766C 142.51 13.9766 143.044 13.7943 143.414 13.4297C 143.784 13.0651 143.969 12.5417 143.969 11.8594C 143.969 11.1979 143.766 10.6901 143.359 10.3359C 142.953 9.98177 142.367 9.79948 141.602 9.78906L 140.516 9.78906L 140.516 8.60938ZM 153.5 11.1797L 155.078 11.1797L 155.078 12.3594L 153.5 12.3594L 153.5 15L 152.047 15L 152.047 12.3594L 146.867 12.3594L 146.867 11.5078L 151.961 3.625L 153.5 3.625L 153.5 11.1797ZM 148.508 11.1797L 152.047 11.1797L 152.047 5.60156L 151.875 5.91406L 148.508 11.1797ZM 183.68 15L 176.227 15L 176.227 13.9609L 180.164 9.58594C 180.747 8.92448 181.148 8.38802 181.367 7.97656C 181.591 7.5599 181.703 7.13021 181.703 6.6875C 181.703 6.09375 181.523 5.60677 181.164 5.22656C 180.805 4.84635 180.326 4.65625 179.727 4.65625C 179.008 4.65625 178.448 4.86198 178.047 5.27344C 177.651 5.67969 177.453 6.2474 177.453 6.97656L 176.008 6.97656C 176.008 5.92969 176.344 5.08333 177.016 4.4375C 177.693 3.79167 178.596 3.46875 179.727 3.46875C 180.784 3.46875 181.62 3.7474 182.234 4.30469C 182.849 4.85677 183.156 5.59375 183.156 6.51562C 183.156 7.63542 182.443 8.96875 181.016 10.5156L 177.969 13.8203L 183.68 13.8203L 183.68 15ZM 187.312 8.60938L 188.398 8.60938C 189.081 8.59896 189.617 8.41927 190.008 8.07031C 190.398 7.72135 190.594 7.25 190.594 6.65625C 190.594 5.32292 189.93 4.65625 188.602 4.65625C 187.977 4.65625 187.477 4.83594 187.102 5.19531C 186.732 5.54948 186.547 6.02083 186.547 6.60938L 185.102 6.60938C 185.102 5.70833 185.43 4.96094 186.086 4.36719C 186.747 3.76823 187.586 3.46875 188.602 3.46875C 189.674 3.46875 190.516 3.7526 191.125 4.32031C 191.734 4.88802 192.039 5.67708 192.039 6.6875C 192.039 7.18229 191.878 7.66146 191.555 8.125C 191.237 8.58854 190.802 8.9349 190.25 9.16406C 190.875 9.36198 191.357 9.6901 191.695 10.1484C 192.039 10.6068 192.211 11.1667 192.211 11.8281C 192.211 12.849 191.878 13.6589 191.211 14.2578C 190.544 14.8568 189.677 15.1562 188.609 15.1562C 187.542 15.1562 186.672 14.8672 186 14.2891C 185.333 13.7109 185 12.9479 185 12L 186.453 12C 186.453 12.599 186.648 13.0781 187.039 13.4375C 187.43 13.7969 187.953 13.9766 188.609 13.9766C 189.307 13.9766 189.841 13.7943 190.211 13.4297C 190.581 13.0651 190.766 12.5417 190.766 11.8594C 190.766 11.1979 190.562 10.6901 190.156 10.3359C 189.75 9.98177 189.164 9.79948 188.398 9.78906L 187.312 9.78906L 187.312 8.60938ZM 194.859 9.29688L 195.438 3.625L 201.266 3.625L 201.266 4.96094L 196.664 4.96094L 196.32 8.0625C 196.878 7.73438 197.51 7.57031 198.219 7.57031C 199.255 7.57031 200.078 7.91406 200.688 8.60156C 201.297 9.28385 201.602 10.2083 201.602 11.375C 201.602 12.5469 201.284 13.4714 200.648 14.1484C 200.018 14.8203 199.135 15.1562 198 15.1562C 196.995 15.1562 196.174 14.8776 195.539 14.3203C 194.904 13.763 194.542 12.9922 194.453 12.0078L 195.82 12.0078C 195.909 12.6589 196.141 13.151 196.516 13.4844C 196.891 13.8125 197.385 13.9766 198 13.9766C 198.672 13.9766 199.198 13.7474 199.578 13.2891C 199.964 12.8307 200.156 12.1979 200.156 11.3906C 200.156 10.6302 199.948 10.0208 199.531 9.5625C 199.12 9.09896 198.57 8.86719 197.883 8.86719C 197.253 8.86719 196.758 9.00521 196.398 9.28125L 196.016 9.59375L 194.859 9.29688ZM 222.539 15L 215.086 15L 215.086 13.9609L 219.023 9.58594C 219.607 8.92448 220.008 8.38802 220.227 7.97656C 220.451 7.5599 220.562 7.13021 220.562 6.6875C 220.562 6.09375 220.383 5.60677 220.023 5.22656C 219.664 4.84635 219.185 4.65625 218.586 4.65625C 217.867 4.65625 217.307 4.86198 216.906 5.27344C 216.51 5.67969 216.312 6.2474 216.312 6.97656L 214.867 6.97656C 214.867 5.92969 215.203 5.08333 215.875 4.4375C 216.552 3.79167 217.456 3.46875 218.586 3.46875C 219.643 3.46875 220.479 3.7474 221.094 4.30469C 221.708 4.85677 222.016 5.59375 222.016 6.51562C 222.016 7.63542 221.302 8.96875 219.875 10.5156L 216.828 13.8203L 222.539 13.8203L 222.539 15ZM 226.172 8.60938L 227.258 8.60938C 227.94 8.59896 228.477 8.41927 228.867 8.07031C 229.258 7.72135 229.453 7.25 229.453 6.65625C 229.453 5.32292 228.789 4.65625 227.461 4.65625C 226.836 4.65625 226.336 4.83594 225.961 5.19531C 225.591 5.54948 225.406 6.02083 225.406 6.60938L 223.961 6.60938C 223.961 5.70833 224.289 4.96094 224.945 4.36719C 225.607 3.76823 226.445 3.46875 227.461 3.46875C 228.534 3.46875 229.375 3.7526 229.984 4.32031C 230.594 4.88802 230.898 5.67708 230.898 6.6875C 230.898 7.18229 230.737 7.66146 230.414 8.125C 230.096 8.58854 229.661 8.9349 229.109 9.16406C 229.734 9.36198 230.216 9.6901 230.555 10.1484C 230.898 10.6068 231.07 11.1667 231.07 11.8281C 231.07 12.849 230.737 13.6589 230.07 14.2578C 229.404 14.8568 228.536 15.1562 227.469 15.1562C 226.401 15.1562 225.531 14.8672 224.859 14.2891C 224.193 13.7109 223.859 12.9479 223.859 12L 225.312 12C 225.312 12.599 225.508 13.0781 225.898 13.4375C 226.289 13.7969 226.812 13.9766 227.469 13.9766C 228.167 13.9766 228.701 13.7943 229.07 13.4297C 229.44 13.0651 229.625 12.5417 229.625 11.8594C 229.625 11.1979 229.422 10.6901 229.016 10.3359C 228.609 9.98177 228.023 9.79948 227.258 9.78906L 226.172 9.78906L 226.172 8.60938ZM 238.727 3.61719L 238.727 4.84375L 238.461 4.84375C 237.336 4.86458 236.44 5.19792 235.773 5.84375C 235.107 6.48958 234.721 7.39844 234.617 8.57031C 235.216 7.88281 236.034 7.53906 237.07 7.53906C 238.06 7.53906 238.849 7.88802 239.438 8.58594C 240.031 9.28385 240.328 10.1849 240.328 11.2891C 240.328 12.4609 240.008 13.3984 239.367 14.1016C 238.732 14.8047 237.878 15.1562 236.805 15.1562C 235.716 15.1562 234.833 14.7396 234.156 13.9062C 233.479 13.0677 233.141 11.9896 233.141 10.6719L 233.141 10.1172C 233.141 8.02344 233.586 6.42448 234.477 5.32031C 235.372 4.21094 236.703 3.64323 238.469 3.61719L 238.727 3.61719ZM 236.828 8.74219C 236.333 8.74219 235.878 8.89062 235.461 9.1875C 235.044 9.48438 234.755 9.85677 234.594 10.3047L 234.594 10.8359C 234.594 11.7734 234.805 12.5286 235.227 13.1016C 235.648 13.6745 236.174 13.9609 236.805 13.9609C 237.456 13.9609 237.966 13.7214 238.336 13.2422C 238.711 12.763 238.898 12.1354 238.898 11.3594C 238.898 10.5781 238.708 9.94792 238.328 9.46875C 237.953 8.98438 237.453 8.74219 236.828 8.74219ZM 265.367 15L 257.914 15L 257.914 13.9609L 261.852 9.58594C 262.435 8.92448 262.836 8.38802 263.055 7.97656C 263.279 7.5599 263.391 7.13021 263.391 6.6875C 263.391 6.09375 263.211 5.60677 262.852 5.22656C 262.492 4.84635 262.013 4.65625 261.414 4.65625C 260.695 4.65625 260.135 4.86198 259.734 5.27344C 259.339 5.67969 259.141 6.2474 259.141 6.97656L 257.695 6.97656C 257.695 5.92969 258.031 5.08333 258.703 4.4375C 259.38 3.79167 260.284 3.46875 261.414 3.46875C 262.471 3.46875 263.307 3.7474 263.922 4.30469C 264.536 4.85677 264.844 5.59375 264.844 6.51562C 264.844 7.63542 264.13 8.96875 262.703 10.5156L 259.656 13.8203L 265.367 13.8203L 265.367 15ZM 269 8.60938L 270.086 8.60938C 270.768 8.59896 271.305 8.41927 271.695 8.07031C 272.086 7.72135 272.281 7.25 272.281 6.65625C 272.281 5.32292 271.617 4.65625 270.289 4.65625C 269.664 4.65625 269.164 4.83594 268.789 5.19531C 268.419 5.54948 268.234 6.02083 268.234 6.60938L 266.789 6.60938C 266.789 5.70833 267.117 4.96094 267.773 4.36719C 268.435 3.76823 269.273 3.46875 270.289 3.46875C 271.362 3.46875 272.203 3.7526 272.812 4.32031C 273.422 4.88802 273.727 5.67708 273.727 6.6875C 273.727 7.18229 273.565 7.66146 273.242 8.125C 272.924 8.58854 272.49 8.9349 271.938 9.16406C 272.562 9.36198 273.044 9.6901 273.383 10.1484C 273.727 10.6068 273.898 11.1667 273.898 11.8281C 273.898 12.849 273.565 13.6589 272.898 14.2578C 272.232 14.8568 271.365 15.1562 270.297 15.1562C 269.229 15.1562 268.359 14.8672 267.688 14.2891C 267.021 13.7109 266.688 12.9479 266.688 12L 268.141 12C 268.141 12.599 268.336 13.0781 268.727 13.4375C 269.117 13.7969 269.641 13.9766 270.297 13.9766C 270.995 13.9766 271.529 13.7943 271.898 13.4297C 272.268 13.0651 272.453 12.5417 272.453 11.8594C 272.453 11.1979 272.25 10.6901 271.844 10.3359C 271.438 9.98177 270.852 9.79948 270.086 9.78906L 269 9.78906L 269 8.60938ZM 283.227 4.4375L 278.516 15L 277 15L 281.695 4.8125L 275.539 4.8125L 275.539 3.625L 283.227 3.625L 283.227 4.4375ZM 308.195 15L 300.742 15L 300.742 13.9609L 304.68 9.58594C 305.263 8.92448 305.664 8.38802 305.883 7.97656C 306.107 7.5599 306.219 7.13021 306.219 6.6875C 306.219 6.09375 306.039 5.60677 305.68 5.22656C 305.32 4.84635 304.841 4.65625 304.242 4.65625C 303.523 4.65625 302.964 4.86198 302.562 5.27344C 302.167 5.67969 301.969 6.2474 301.969 6.97656L 300.523 6.97656C 300.523 5.92969 300.859 5.08333 301.531 4.4375C 302.208 3.79167 303.112 3.46875 304.242 3.46875C 305.299 3.46875 306.135 3.7474 306.75 4.30469C 307.365 4.85677 307.672 5.59375 307.672 6.51562C 307.672 7.63542 306.958 8.96875 305.531 10.5156L 302.484 13.8203L 308.195 13.8203L 308.195 15ZM 311.828 8.60938L 312.914 8.60938C 313.596 8.59896 314.133 8.41927 314.523 8.07031C 314.914 7.72135 315.109 7.25 315.109 6.65625C 315.109 5.32292 314.445 4.65625 313.117 4.65625C 312.492 4.65625 311.992 4.83594 311.617 5.19531C 311.247 5.54948 311.062 6.02083 311.062 6.60938L 309.617 6.60938C 309.617 5.70833 309.945 4.96094 310.602 4.36719C 311.263 3.76823 312.102 3.46875 313.117 3.46875C 314.19 3.46875 315.031 3.7526 315.641 4.32031C 316.25 4.88802 316.555 5.67708 316.555 6.6875C 316.555 7.18229 316.393 7.66146 316.07 8.125C 315.753 8.58854 315.318 8.9349 314.766 9.16406C 315.391 9.36198 315.872 9.6901 316.211 10.1484C 316.555 10.6068 316.727 11.1667 316.727 11.8281C 316.727 12.849 316.393 13.6589 315.727 14.2578C 315.06 14.8568 314.193 15.1562 313.125 15.1562C 312.057 15.1562 311.188 14.8672 310.516 14.2891C 309.849 13.7109 309.516 12.9479 309.516 12L 310.969 12C 310.969 12.599 311.164 13.0781 311.555 13.4375C 311.945 13.7969 312.469 13.9766 313.125 13.9766C 313.823 13.9766 314.357 13.7943 314.727 13.4297C 315.096 13.0651 315.281 12.5417 315.281 11.8594C 315.281 11.1979 315.078 10.6901 314.672 10.3359C 314.266 9.98177 313.68 9.79948 312.914 9.78906L 311.828 9.78906L 311.828 8.60938ZM 325.609 6.59375C 325.609 7.16146 325.458 7.66667 325.156 8.10938C 324.859 8.55208 324.456 8.89844 323.945 9.14844C 324.539 9.40365 325.008 9.77604 325.352 10.2656C 325.701 10.7552 325.875 11.3099 325.875 11.9297C 325.875 12.9141 325.542 13.6979 324.875 14.2812C 324.214 14.8646 323.341 15.1562 322.258 15.1562C 321.164 15.1562 320.286 14.8646 319.625 14.2812C 318.969 13.6927 318.641 12.9089 318.641 11.9297C 318.641 11.3151 318.807 10.7604 319.141 10.2656C 319.479 9.77083 319.945 9.39583 320.539 9.14062C 320.034 8.89062 319.635 8.54427 319.344 8.10156C 319.052 7.65885 318.906 7.15625 318.906 6.59375C 318.906 5.63542 319.214 4.875 319.828 4.3125C 320.443 3.75 321.253 3.46875 322.258 3.46875C 323.258 3.46875 324.065 3.75 324.68 4.3125C 325.299 4.875 325.609 5.63542 325.609 6.59375ZM 324.43 11.8984C 324.43 11.263 324.227 10.7448 323.82 10.3438C 323.419 9.94271 322.893 9.74219 322.242 9.74219C 321.591 9.74219 321.068 9.9401 320.672 10.3359C 320.281 10.7318 320.086 11.2526 320.086 11.8984C 320.086 12.5443 320.276 13.0521 320.656 13.4219C 321.042 13.7917 321.576 13.9766 322.258 13.9766C 322.935 13.9766 323.466 13.7917 323.852 13.4219C 324.237 13.0469 324.43 12.5391 324.43 11.8984ZM 322.258 4.65625C 321.69 4.65625 321.229 4.83333 320.875 5.1875C 320.526 5.53646 320.352 6.01302 320.352 6.61719C 320.352 7.19531 320.523 7.66406 320.867 8.02344C 321.216 8.3776 321.68 8.55469 322.258 8.55469C 322.836 8.55469 323.297 8.3776 323.641 8.02344C 323.99 7.66406 324.164 7.19531 324.164 6.61719C 324.164 6.03906 323.984 5.56771 323.625 5.20312C 323.266 4.83854 322.81 4.65625 322.258 4.65625ZM 351.023 15L 343.57 15L 343.57 13.9609L 347.508 9.58594C 348.091 8.92448 348.492 8.38802 348.711 7.97656C 348.935 7.5599 349.047 7.13021 349.047 6.6875C 349.047 6.09375 348.867 5.60677 348.508 5.22656C 348.148 4.84635 347.669 4.65625 347.07 4.65625C 346.352 4.65625 345.792 4.86198 345.391 5.27344C 344.995 5.67969 344.797 6.2474 344.797 6.97656L 343.352 6.97656C 343.352 5.92969 343.688 5.08333 344.359 4.4375C 345.036 3.79167 345.94 3.46875 347.07 3.46875C 348.128 3.46875 348.964 3.7474 349.578 4.30469C 350.193 4.85677 350.5 5.59375 350.5 6.51562C 350.5 7.63542 349.786 8.96875 348.359 10.5156L 345.312 13.8203L 351.023 13.8203L 351.023 15ZM 354.656 8.60938L 355.742 8.60938C 356.424 8.59896 356.961 8.41927 357.352 8.07031C 357.742 7.72135 357.938 7.25 357.938 6.65625C 357.938 5.32292 357.273 4.65625 355.945 4.65625C 355.32 4.65625 354.82 4.83594 354.445 5.19531C 354.076 5.54948 353.891 6.02083 353.891 6.60938L 352.445 6.60938C 352.445 5.70833 352.773 4.96094 353.43 4.36719C 354.091 3.76823 354.93 3.46875 355.945 3.46875C 357.018 3.46875 357.859 3.7526 358.469 4.32031C 359.078 4.88802 359.383 5.67708 359.383 6.6875C 359.383 7.18229 359.221 7.66146 358.898 8.125C 358.581 8.58854 358.146 8.9349 357.594 9.16406C 358.219 9.36198 358.701 9.6901 359.039 10.1484C 359.383 10.6068 359.555 11.1667 359.555 11.8281C 359.555 12.849 359.221 13.6589 358.555 14.2578C 357.888 14.8568 357.021 15.1562 355.953 15.1562C 354.885 15.1562 354.016 14.8672 353.344 14.2891C 352.677 13.7109 352.344 12.9479 352.344 12L 353.797 12C 353.797 12.599 353.992 13.0781 354.383 13.4375C 354.773 13.7969 355.297 13.9766 355.953 13.9766C 356.651 13.9766 357.185 13.7943 357.555 13.4297C 357.924 13.0651 358.109 12.5417 358.109 11.8594C 358.109 11.1979 357.906 10.6901 357.5 10.3359C 357.094 9.98177 356.508 9.79948 355.742 9.78906L 354.656 9.78906L 354.656 8.60938ZM 367.078 10C 366.776 10.3594 366.414 10.6484 365.992 10.8672C 365.576 11.0859 365.117 11.1953 364.617 11.1953C 363.961 11.1953 363.388 11.0339 362.898 10.7109C 362.414 10.388 362.039 9.9349 361.773 9.35156C 361.508 8.76302 361.375 8.11458 361.375 7.40625C 361.375 6.64583 361.518 5.96094 361.805 5.35156C 362.096 4.74219 362.508 4.27604 363.039 3.95312C 363.57 3.63021 364.19 3.46875 364.898 3.46875C 366.023 3.46875 366.909 3.89062 367.555 4.73438C 368.206 5.57292 368.531 6.71875 368.531 8.17188L 368.531 8.59375C 368.531 10.8073 368.094 12.4245 367.219 13.4453C 366.344 14.4609 365.023 14.9818 363.258 15.0078L 362.977 15.0078L 362.977 13.7891L 363.281 13.7891C 364.474 13.7682 365.391 13.4583 366.031 12.8594C 366.672 12.2552 367.021 11.3021 367.078 10ZM 364.852 10C 365.336 10 365.781 9.85156 366.188 9.55469C 366.599 9.25781 366.898 8.89062 367.086 8.45312L 367.086 7.875C 367.086 6.92708 366.88 6.15625 366.469 5.5625C 366.057 4.96875 365.536 4.67188 364.906 4.67188C 364.271 4.67188 363.76 4.91667 363.375 5.40625C 362.99 5.89062 362.797 6.53125 362.797 7.32812C 362.797 8.10417 362.982 8.74479 363.352 9.25C 363.727 9.75 364.227 10 364.852 10ZM 397.82 15L 390.367 15L 390.367 13.9609L 394.305 9.58594C 394.888 8.92448 395.289 8.38802 395.508 7.97656C 395.732 7.5599 395.844 7.13021 395.844 6.6875C 395.844 6.09375 395.664 5.60677 395.305 5.22656C 394.945 4.84635 394.466 4.65625 393.867 4.65625C 393.148 4.65625 392.589 4.86198 392.188 5.27344C 391.792 5.67969 391.594 6.2474 391.594 6.97656L 390.148 6.97656C 390.148 5.92969 390.484 5.08333 391.156 4.4375C 391.833 3.79167 392.737 3.46875 393.867 3.46875C 394.924 3.46875 395.76 3.7474 396.375 4.30469C 396.99 4.85677 397.297 5.59375 397.297 6.51562C 397.297 7.63542 396.583 8.96875 395.156 10.5156L 392.109 13.8203L 397.82 13.8203L 397.82 15ZM 405.453 11.1797L 407.031 11.1797L 407.031 12.3594L 405.453 12.3594L 405.453 15L 404 15L 404 12.3594L 398.82 12.3594L 398.82 11.5078L 403.914 3.625L 405.453 3.625L 405.453 11.1797ZM 400.461 11.1797L 404 11.1797L 404 5.60156L 403.828 5.91406L 400.461 11.1797ZM 415.469 10.1484C 415.469 11.8411 415.18 13.099 414.602 13.9219C 414.023 14.7448 413.12 15.1562 411.891 15.1562C 410.677 15.1562 409.779 14.7552 409.195 13.9531C 408.612 13.1458 408.31 11.9427 408.289 10.3438L 408.289 8.41406C 408.289 6.74219 408.578 5.5 409.156 4.6875C 409.734 3.875 410.641 3.46875 411.875 3.46875C 413.099 3.46875 414 3.86198 414.578 4.64844C 415.156 5.42969 415.453 6.63802 415.469 8.27344L 415.469 10.1484ZM 414.023 8.17188C 414.023 6.94792 413.852 6.05729 413.508 5.5C 413.164 4.9375 412.62 4.65625 411.875 4.65625C 411.135 4.65625 410.596 4.9349 410.258 5.49219C 409.919 6.04948 409.745 6.90625 409.734 8.0625L 409.734 10.375C 409.734 11.6042 409.911 12.513 410.266 13.1016C 410.625 13.6849 411.167 13.9766 411.891 13.9766C 412.604 13.9766 413.133 13.7005 413.477 13.1484C 413.826 12.5964 414.008 11.7266 414.023 10.5391L 414.023 8.17188ZM 440.648 15L 433.195 15L 433.195 13.9609L 437.133 9.58594C 437.716 8.92448 438.117 8.38802 438.336 7.97656C 438.56 7.5599 438.672 7.13021 438.672 6.6875C 438.672 6.09375 438.492 5.60677 438.133 5.22656C 437.773 4.84635 437.294 4.65625 436.695 4.65625C 435.977 4.65625 435.417 4.86198 435.016 5.27344C 434.62 5.67969 434.422 6.2474 434.422 6.97656L 432.977 6.97656C 432.977 5.92969 433.312 5.08333 433.984 4.4375C 434.661 3.79167 435.565 3.46875 436.695 3.46875C 437.753 3.46875 438.589 3.7474 439.203 4.30469C 439.818 4.85677 440.125 5.59375 440.125 6.51562C 440.125 7.63542 439.411 8.96875 437.984 10.5156L 434.938 13.8203L 440.648 13.8203L 440.648 15ZM 448.281 11.1797L 449.859 11.1797L 449.859 12.3594L 448.281 12.3594L 448.281 15L 446.828 15L 446.828 12.3594L 441.648 12.3594L 441.648 11.5078L 446.742 3.625L 448.281 3.625L 448.281 11.1797ZM 443.289 11.1797L 446.828 11.1797L 446.828 5.60156L 446.656 5.91406L 443.289 11.1797ZM 455.914 15L 454.461 15L 454.461 5.36719L 451.547 6.4375L 451.547 5.125L 455.688 3.57031L 455.914 3.57031L 455.914 15ZM 479.508 15L 472.055 15L 472.055 13.9609L 475.992 9.58594C 476.576 8.92448 476.977 8.38802 477.195 7.97656C 477.419 7.5599 477.531 7.13021 477.531 6.6875C 477.531 6.09375 477.352 5.60677 476.992 5.22656C 476.633 4.84635 476.154 4.65625 475.555 4.65625C 474.836 4.65625 474.276 4.86198 473.875 5.27344C 473.479 5.67969 473.281 6.2474 473.281 6.97656L 471.836 6.97656C 471.836 5.92969 472.172 5.08333 472.844 4.4375C 473.521 3.79167 474.424 3.46875 475.555 3.46875C 476.612 3.46875 477.448 3.7474 478.062 4.30469C 478.677 4.85677 478.984 5.59375 478.984 6.51562C 478.984 7.63542 478.271 8.96875 476.844 10.5156L 473.797 13.8203L 479.508 13.8203L 479.508 15ZM 487.141 11.1797L 488.719 11.1797L 488.719 12.3594L 487.141 12.3594L 487.141 15L 485.688 15L 485.688 12.3594L 480.508 12.3594L 480.508 11.5078L 485.602 3.625L 487.141 3.625L 487.141 11.1797ZM 482.148 11.1797L 485.688 11.1797L 485.688 5.60156L 485.516 5.91406L 482.148 11.1797ZM 497.477 15L 490.023 15L 490.023 13.9609L 493.961 9.58594C 494.544 8.92448 494.945 8.38802 495.164 7.97656C 495.388 7.5599 495.5 7.13021 495.5 6.6875C 495.5 6.09375 495.32 5.60677 494.961 5.22656C 494.602 4.84635 494.122 4.65625 493.523 4.65625C 492.805 4.65625 492.245 4.86198 491.844 5.27344C 491.448 5.67969 491.25 6.2474 491.25 6.97656L 489.805 6.97656C 489.805 5.92969 490.141 5.08333 490.812 4.4375C 491.49 3.79167 492.393 3.46875 493.523 3.46875C 494.581 3.46875 495.417 3.7474 496.031 4.30469C 496.646 4.85677 496.953 5.59375 496.953 6.51562C 496.953 7.63542 496.24 8.96875 494.812 10.5156L 491.766 13.8203L 497.477 13.8203L 497.477 15ZM 514.398 15L 506.945 15L 506.945 13.9609L 510.883 9.58594C 511.466 8.92448 511.867 8.38802 512.086 7.97656C 512.31 7.5599 512.422 7.13021 512.422 6.6875C 512.422 6.09375 512.242 5.60677 511.883 5.22656C 511.523 4.84635 511.044 4.65625 510.445 4.65625C 509.727 4.65625 509.167 4.86198 508.766 5.27344C 508.37 5.67969 508.172 6.2474 508.172 6.97656L 506.727 6.97656C 506.727 5.92969 507.062 5.08333 507.734 4.4375C 508.411 3.79167 509.315 3.46875 510.445 3.46875C 511.503 3.46875 512.339 3.7474 512.953 4.30469C 513.568 4.85677 513.875 5.59375 513.875 6.51562C 513.875 7.63542 513.161 8.96875 511.734 10.5156L 508.688 13.8203L 514.398 13.8203L 514.398 15ZM 522.031 11.1797L 523.609 11.1797L 523.609 12.3594L 522.031 12.3594L 522.031 15L 520.578 15L 520.578 12.3594L 515.398 12.3594L 515.398 11.5078L 520.492 3.625L 522.031 3.625L 522.031 11.1797ZM 517.039 11.1797L 520.578 11.1797L 520.578 5.60156L 520.406 5.91406L 517.039 11.1797ZM 527.016 8.60938L 528.102 8.60938C 528.784 8.59896 529.32 8.41927 529.711 8.07031C 530.102 7.72135 530.297 7.25 530.297 6.65625C 530.297 5.32292 529.633 4.65625 528.305 4.65625C 527.68 4.65625 527.18 4.83594 526.805 5.19531C 526.435 5.54948 526.25 6.02083 526.25 6.60938L 524.805 6.60938C 524.805 5.70833 525.133 4.96094 525.789 4.36719C 526.451 3.76823 527.289 3.46875 528.305 3.46875C 529.378 3.46875 530.219 3.7526 530.828 4.32031C 531.438 4.88802 531.742 5.67708 531.742 6.6875C 531.742 7.18229 531.581 7.66146 531.258 8.125C 530.94 8.58854 530.505 8.9349 529.953 9.16406C 530.578 9.36198 531.06 9.6901 531.398 10.1484C 531.742 10.6068 531.914 11.1667 531.914 11.8281C 531.914 12.849 531.581 13.6589 530.914 14.2578C 530.247 14.8568 529.38 15.1562 528.312 15.1562C 527.245 15.1562 526.375 14.8672 525.703 14.2891C 525.036 13.7109 524.703 12.9479 524.703 12L 526.156 12C 526.156 12.599 526.352 13.0781 526.742 13.4375C 527.133 13.7969 527.656 13.9766 528.312 13.9766C 529.01 13.9766 529.544 13.7943 529.914 13.4297C 530.284 13.0651 530.469 12.5417 530.469 11.8594C 530.469 11.1979 530.266 10.6901 529.859 10.3359C 529.453 9.98177 528.867 9.79948 528.102 9.78906L 527.016 9.78906L 527.016 8.60938ZM 553.258 15L 545.805 15L 545.805 13.9609L 549.742 9.58594C 550.326 8.92448 550.727 8.38802 550.945 7.97656C 551.169 7.5599 551.281 7.13021 551.281 6.6875C 551.281 6.09375 551.102 5.60677 550.742 5.22656C 550.383 4.84635 549.904 4.65625 549.305 4.65625C 548.586 4.65625 548.026 4.86198 547.625 5.27344C 547.229 5.67969 547.031 6.2474 547.031 6.97656L 545.586 6.97656C 545.586 5.92969 545.922 5.08333 546.594 4.4375C 547.271 3.79167 548.174 3.46875 549.305 3.46875C 550.362 3.46875 551.198 3.7474 551.812 4.30469C 552.427 4.85677 552.734 5.59375 552.734 6.51562C 552.734 7.63542 552.021 8.96875 550.594 10.5156L 547.547 13.8203L 553.258 13.8203L 553.258 15ZM 560.891 11.1797L 562.469 11.1797L 562.469 12.3594L 560.891 12.3594L 560.891 15L 559.438 15L 559.438 12.3594L 554.258 12.3594L 554.258 11.5078L 559.352 3.625L 560.891 3.625L 560.891 11.1797ZM 555.898 11.1797L 559.438 11.1797L 559.438 5.60156L 559.266 5.91406L 555.898 11.1797ZM 569.875 11.1797L 571.453 11.1797L 571.453 12.3594L 569.875 12.3594L 569.875 15L 568.422 15L 568.422 12.3594L 563.242 12.3594L 563.242 11.5078L 568.336 3.625L 569.875 3.625L 569.875 11.1797ZM 564.883 11.1797L 568.422 11.1797L 568.422 5.60156L 568.25 5.91406L 564.883 11.1797Z"/>
</defs>
</svg>

