<svg width="670" height="392" viewBox="0 0 670 392" version="1.1" xmlns="http://www.w3.org/2000/svg" xmlns:xlink="http://www.w3.org/1999/xlink">
<title>Group 10</title>
<desc>Created using Figma</desc>
<g id="Canvas" transform="translate(529 -303)">
<g id="Group 10">
<g id="Ellipse 2.13">
<use xlink:href="#path0_fill" transform="translate(73.3333 351)"/>
</g>
<g id="Ellipse 2.14">
<use xlink:href="#path0_fill" transform="translate(87.2667 369.947)"/>
</g>
<g id="Ellipse 2.15">
<use xlink:href="#path0_fill" transform="translate(56.8667 369.947)"/>
</g>
<g id="Ellipse 2.16">
<use xlink:href="#path0_fill" transform="translate(47 390.158)" fill="#F2C94C"/>
</g>
<g id="Line 2.3">
<use xlink:href="#path1_stroke" transform="matrix(-0.744216 0.667939 -0.669989 -0.742371 74.6 358.579)"/>
</g>
<g id="Line 2.4">
<use xlink:href="#path2_stroke" transform="matrix(-0.448207 0.89393 -0.894922 -0.446222 58.1333 377.526)"/>
</g>
<g id="Line 3.2">
<use xlink:href="#path2_stroke" transform="matrix(0.448207 0.89393 -0.894922 0.446222 61.9333 378.789)"/>
</g>
<g id="Ellipse 2.17">
<use xlink:href="#path0_fill" transform="translate(64.4667 390.158)" fill="#2F80ED"/>
</g>
<g id="Ellipse 2.18">
<use xlink:href="#path0_fill" transform="translate(79.6667 390.158)" fill="#EB5757"/>
</g>
<g id="Line 2.5">
<use xlink:href="#path2_stroke" transform="matrix(-0.448207 0.89393 -0.894922 -0.446222 89.8 377.526)"/>
</g>
<g id="Line 3.3">
<use xlink:href="#path3_stroke" transform="matrix(0.479876 0.877336 -0.878453 0.477829 92.3333 377.526)"/>
</g>
<g id="Ellipse 2.19">
<use xlink:href="#path0_fill" transform="translate(96.1333 390.158)" fill="#219653"/>
</g>
<g id="Line 4.1">
<use xlink:href="#path4_stroke" transform="matrix(0.669989 0.742371 -0.744216 0.667939 79.6667 358.579)"/>
</g>
<g id="Rectangle 2">
<use xlink:href="#path5_fill" transform="translate(-398 303)" fill="#FFFFFF"/>
<mask id="mask0_outline_ins">
<use xlink:href="#path5_fill" fill="white" transform="translate(-398 303)"/>
</mask>
<g mask="url(#mask0_outline_ins)">
<use xlink:href="#path6_stroke_2x" transform="translate(-398 303)"/>
</g>
</g>
<g id="Rectangle 2.1">
<use xlink:href="#path5_fill" transform="translate(-376 454)" fill="#FFFFFF"/>
<mask id="mask1_outline_ins">
<use xlink:href="#path5_fill" fill="white" transform="translate(-376 454)"/>
</mask>
<g mask="url(#mask1_outline_ins)">
<use xlink:href="#path6_stroke_2x" transform="translate(-376 454)"/>
</g>
</g>
<g id="Rectangle 3">
<use xlink:href="#path7_fill" transform="translate(-258 303)" fill="#6FCF97"/>
<mask id="mask2_outline_ins">
<use xlink:href="#path7_fill" fill="white" transform="translate(-258 303)"/>
</mask>
<g mask="url(#mask2_outline_ins)">
<use xlink:href="#path8_stroke_2x" transform="translate(-258 303)"/>
</g>
</g>
<g id="Rectangle 3.2">
<use xlink:href="#path7_fill" transform="translate(-262 595)" fill="#6FCF97"/>
<mask id="mask3_outline_ins">
<use xlink:href="#path7_fill" fill="white" transform="translate(-262 595)"/>
</mask>
<g mask="url(#mask3_outline_ins)">
<use xlink:href="#path8_stroke_2x" transform="translate(-262 595)"/>
</g>
</g>
<g id="Rectangle 3.1">
<use xlink:href="#path7_fill" transform="translate(-350 595)" fill="#F2994A"/>
<mask id="mask4_outline_ins">
<use xlink:href="#path7_fill" fill="white" transform="translate(-350 595)"/>
</mask>
<g mask="url(#mask4_outline_ins)">
<use xlink:href="#path8_stroke_2x" transform="translate(-350 595)"/>
</g>
</g>
<g id="Rectangle 3.3">
<use xlink:href="#path7_fill" transform="translate(59 454)" fill="#F2994A"/>
<mask id="mask5_outline_ins">
<use xlink:href="#path7_fill" fill="white" transform="translate(59 454)"/>
</mask>
<g mask="url(#mask5_outline_ins)">
<use xlink:href="#path8_stroke_2x" transform="translate(59 454)"/>
</g>
</g>
<g id="train">
<use xlink:href="#path9_fill" transform="translate(-350 341)"/>
</g>
<g id="test">
<use xlink:href="#path10_fill" transform="translate(-323 492)"/>
</g>
<g id="model.fit( )">
<use xlink:href="#path11_fill" transform="translate(-508 341)"/>
</g>
<g id="model.predict( )">
<use xlink:href="#path12_fill" transform="translate(-529 492)"/>
</g>
<g id="error( )">
<use xlink:href="#path13_fill" transform="translate(-422 622)"/>
</g>
<g id="Arrow">
<use xlink:href="#path14_stroke" transform="translate(-183 352)"/>
</g>
<g id="Arrow">
<use xlink:href="#path14_stroke" transform="translate(-183 507)"/>
</g>
<g id="Arrow">
<use xlink:href="#path14_stroke" transform="translate(-183 634)"/>
</g>
<g id="y = 3x + 4x">
<use xlink:href="#path15_fill" transform="translate(27 301)"/>
</g>
<g id="1 2">
<use xlink:href="#path16_fill" transform="translate(79 308)"/>
</g>
<g id="decision tree">
<use xlink:href="#path17_fill" transform="translate(-106 364)"/>
</g>
<g id="regression">
<use xlink:href="#path18_fill" transform="translate(-107 305)"/>
</g>
<g id="predictions">
<use xlink:href="#path19_fill" transform="translate(-103 496)"/>
</g>
<g id="RMSE">
<use xlink:href="#path20_fill" transform="translate(-83 635)"/>
</g>
<g id="MSE">
<use xlink:href="#path21_fill" transform="translate(-79 596)"/>
</g>
<g id="AUC">
<use xlink:href="#path22_fill" transform="translate(-78 675)"/>
</g>
<g id="AUC">
<use xlink:href="#path22_fill" transform="translate(-78 675)"/>
</g>
<g id="24.5">
<use xlink:href="#path23_fill" transform="translate(43 634)"/>
</g>
<g id="600.25">
<use xlink:href="#path24_fill" transform="translate(32 596)"/>
</g>
<g id="0.7">
<use xlink:href="#path25_fill" transform="translate(48 675)"/>
</g>
</g>
</g>
<defs>
<path id="path0_fill" d="M 8.86667 4.42105C 8.86667 6.86273 6.8818 8.8421 4.43333 8.8421C 1.98487 8.8421 0 6.86273 0 4.42105C 0 1.97937 1.98487 0 4.43333 0C 6.8818 0 8.86667 1.97937 8.86667 4.42105Z"/>
<path id="path1_stroke" d="M 0 0L 17.0201 0L 17.0201 -1L 0 -1L 0 0Z"/>
<path id="path2_stroke" d="M 0 -5.55112e-17L 14.1304 -5.55112e-17L 14.1304 -1L 0 -1L 0 -5.55112e-17Z"/>
<path id="path3_stroke" d="M 0 0L 15.8374 0L 15.8374 -1L 0 -1L 0 0Z"/>
<path id="path4_stroke" d="M 0 0L 17.0152 0L 17.0152 -1L 0 -1L 0 0Z"/>
<path id="path5_fill" d="M 0 0L 141 0L 141 100L 0 100L 0 0Z"/>
<path id="path6_stroke_2x" d="M 0 0L 0 -1L -1 -1L -1 0L 0 0ZM 141 0L 142 0L 142 -1L 141 -1L 141 0ZM 141 100L 141 101L 142 101L 142 100L 141 100ZM 0 100L -1 100L -1 101L 0 101L 0 100ZM 0 1L 141 1L 141 -1L 0 -1L 0 1ZM 140 0L 140 100L 142 100L 142 0L 140 0ZM 141 99L 0 99L 0 101L 141 101L 141 99ZM 1 100L 1 0L -1 0L -1 100L 1 100Z"/>
<path id="path7_fill" d="M 0 0L 27 0L 27 100L 0 100L 0 0Z"/>
<path id="path8_stroke_2x" d="M 0 0L 0 -1L -1 -1L -1 0L 0 0ZM 27 0L 28 0L 28 -1L 27 -1L 27 0ZM 27 100L 27 101L 28 101L 28 100L 27 100ZM 0 100L -1 100L -1 101L 0 101L 0 100ZM 0 1L 27 1L 27 -1L 0 -1L 0 1ZM 26 0L 26 100L 28 100L 28 0L 26 0ZM 27 99L 0 99L 0 101L 27 101L 27 99ZM 1 100L 1 0L -1 0L -1 100L 1 100Z"/>
<path id="path9_fill" d="M 4.0166 5.15234L 4.0166 7.49023L 5.64258 7.49023L 5.64258 9.35352L 4.0166 9.35352L 4.0166 14.0996C 4.0166 14.4512 4.08398 14.7031 4.21875 14.8555C 4.35352 15.0078 4.61133 15.084 4.99219 15.084C 5.27344 15.084 5.52246 15.0635 5.73926 15.0225L 5.73926 16.9473C 5.24121 17.0996 4.72852 17.1758 4.20117 17.1758C 2.41992 17.1758 1.51172 16.2764 1.47656 14.4775L 1.47656 9.35352L 0.0878906 9.35352L 0.0878906 7.49023L 1.47656 7.49023L 1.47656 5.15234L 4.0166 5.15234ZM 12.4014 9.87207C 12.0557 9.8252 11.751 9.80176 11.4873 9.80176C 10.5264 9.80176 9.89648 10.127 9.59766 10.7773L 9.59766 17L 7.05762 17L 7.05762 7.49023L 9.45703 7.49023L 9.52734 8.62402C 10.0371 7.75098 10.7432 7.31445 11.6455 7.31445C 11.9268 7.31445 12.1904 7.35254 12.4365 7.42871L 12.4014 9.87207ZM 18.8789 17C 18.7617 16.7715 18.6768 16.4873 18.624 16.1475C 18.0088 16.833 17.209 17.1758 16.2246 17.1758C 15.293 17.1758 14.5195 16.9062 13.9043 16.3672C 13.2949 15.8281 12.9902 15.1484 12.9902 14.3281C 12.9902 13.3203 13.3623 12.5469 14.1064 12.0078C 14.8564 11.4688 15.9375 11.1963 17.3496 11.1904L 18.5186 11.1904L 18.5186 10.6455C 18.5186 10.2061 18.4043 9.85449 18.1758 9.59082C 17.9531 9.32715 17.5986 9.19531 17.1123 9.19531C 16.6846 9.19531 16.3477 9.29785 16.1016 9.50293C 15.8613 9.70801 15.7412 9.98926 15.7412 10.3467L 13.2012 10.3467C 13.2012 9.7959 13.3711 9.28613 13.7109 8.81738C 14.0508 8.34863 14.5312 7.98242 15.1523 7.71875C 15.7734 7.44922 16.4707 7.31445 17.2441 7.31445C 18.416 7.31445 19.3447 7.61035 20.0303 8.20215C 20.7217 8.78809 21.0674 9.61426 21.0674 10.6807L 21.0674 14.8027C 21.0732 15.7051 21.1992 16.3877 21.4453 16.8506L 21.4453 17L 18.8789 17ZM 16.7783 15.2334C 17.1533 15.2334 17.499 15.1514 17.8154 14.9873C 18.1318 14.8174 18.3662 14.5918 18.5186 14.3105L 18.5186 12.6758L 17.5693 12.6758C 16.2979 12.6758 15.6211 13.1152 15.5391 13.9941L 15.5303 14.1436C 15.5303 14.46 15.6416 14.7207 15.8643 14.9258C 16.0869 15.1309 16.3916 15.2334 16.7783 15.2334ZM 25.6992 17L 23.1504 17L 23.1504 7.49023L 25.6992 7.49023L 25.6992 17ZM 23.001 5.0293C 23.001 4.64844 23.127 4.33496 23.3789 4.08887C 23.6367 3.84277 23.9854 3.71973 24.4248 3.71973C 24.8584 3.71973 25.2041 3.84277 25.4619 4.08887C 25.7197 4.33496 25.8486 4.64844 25.8486 5.0293C 25.8486 5.41602 25.7168 5.73242 25.4531 5.97852C 25.1953 6.22461 24.8525 6.34766 24.4248 6.34766C 23.9971 6.34766 23.6514 6.22461 23.3877 5.97852C 23.1299 5.73242 23.001 5.41602 23.001 5.0293ZM 30.1377 7.49023L 30.2168 8.58887C 30.8965 7.73926 31.8076 7.31445 32.9502 7.31445C 33.958 7.31445 34.708 7.61035 35.2002 8.20215C 35.6924 8.79395 35.9443 9.67871 35.9561 10.8564L 35.9561 17L 33.416 17L 33.416 10.918C 33.416 10.3789 33.2988 9.98926 33.0645 9.74902C 32.8301 9.50293 32.4404 9.37988 31.8955 9.37988C 31.1807 9.37988 30.6445 9.68457 30.2871 10.2939L 30.2871 17L 27.7471 17L 27.7471 7.49023L 30.1377 7.49023Z"/>
<path id="path10_fill" d="M 4.0166 5.15234L 4.0166 7.49023L 5.64258 7.49023L 5.64258 9.35352L 4.0166 9.35352L 4.0166 14.0996C 4.0166 14.4512 4.08398 14.7031 4.21875 14.8555C 4.35352 15.0078 4.61133 15.084 4.99219 15.084C 5.27344 15.084 5.52246 15.0635 5.73926 15.0225L 5.73926 16.9473C 5.24121 17.0996 4.72852 17.1758 4.20117 17.1758C 2.41992 17.1758 1.51172 16.2764 1.47656 14.4775L 1.47656 9.35352L 0.0878906 9.35352L 0.0878906 7.49023L 1.47656 7.49023L 1.47656 5.15234L 4.0166 5.15234ZM 11.4346 17.1758C 10.04 17.1758 8.90332 16.748 8.02441 15.8926C 7.15137 15.0371 6.71484 13.8975 6.71484 12.4736L 6.71484 12.2275C 6.71484 11.2725 6.89941 10.4199 7.26855 9.66992C 7.6377 8.91406 8.15918 8.33398 8.83301 7.92969C 9.5127 7.51953 10.2861 7.31445 11.1533 7.31445C 12.4541 7.31445 13.4766 7.72461 14.2207 8.54492C 14.9707 9.36523 15.3457 10.5283 15.3457 12.0342L 15.3457 13.0713L 9.29004 13.0713C 9.37207 13.6924 9.61816 14.1904 10.0283 14.5654C 10.4443 14.9404 10.9688 15.1279 11.6016 15.1279C 12.5801 15.1279 13.3447 14.7734 13.8955 14.0645L 15.1436 15.4619C 14.7627 16.001 14.2471 16.4229 13.5967 16.7275C 12.9463 17.0264 12.2256 17.1758 11.4346 17.1758ZM 11.1445 9.37109C 10.6406 9.37109 10.2305 9.54102 9.91406 9.88086C 9.60352 10.2207 9.4043 10.707 9.31641 11.3398L 12.8496 11.3398L 12.8496 11.1377C 12.8379 10.5752 12.6855 10.1416 12.3926 9.83691C 12.0996 9.52637 11.6836 9.37109 11.1445 9.37109ZM 21.9463 14.3721C 21.9463 14.0615 21.791 13.8184 21.4805 13.6426C 21.1758 13.4609 20.6836 13.2998 20.0039 13.1592C 17.7422 12.6846 16.6113 11.7236 16.6113 10.2764C 16.6113 9.43262 16.96 8.72949 17.6572 8.16699C 18.3604 7.59863 19.2773 7.31445 20.4082 7.31445C 21.6152 7.31445 22.5791 7.59863 23.2998 8.16699C 24.0264 8.73535 24.3896 9.47363 24.3896 10.3818L 21.8496 10.3818C 21.8496 10.0186 21.7324 9.71973 21.498 9.48535C 21.2637 9.24512 20.8975 9.125 20.3994 9.125C 19.9717 9.125 19.6406 9.22168 19.4062 9.41504C 19.1719 9.6084 19.0547 9.85449 19.0547 10.1533C 19.0547 10.4346 19.1865 10.6631 19.4502 10.8389C 19.7197 11.0088 20.1709 11.1582 20.8037 11.2871C 21.4365 11.4102 21.9697 11.5508 22.4033 11.709C 23.7451 12.2012 24.416 13.0537 24.416 14.2666C 24.416 15.1338 24.0439 15.8369 23.2998 16.376C 22.5557 16.9092 21.5947 17.1758 20.417 17.1758C 19.6201 17.1758 18.9111 17.0352 18.29 16.7539C 17.6748 16.4668 17.1914 16.0771 16.8398 15.585C 16.4883 15.0869 16.3125 14.5508 16.3125 13.9766L 18.7207 13.9766C 18.7441 14.4277 18.9111 14.7734 19.2217 15.0137C 19.5322 15.2539 19.9482 15.374 20.4697 15.374C 20.9561 15.374 21.3223 15.2832 21.5684 15.1016C 21.8203 14.9141 21.9463 14.6709 21.9463 14.3721ZM 29.1006 5.15234L 29.1006 7.49023L 30.7266 7.49023L 30.7266 9.35352L 29.1006 9.35352L 29.1006 14.0996C 29.1006 14.4512 29.168 14.7031 29.3027 14.8555C 29.4375 15.0078 29.6953 15.084 30.0762 15.084C 30.3574 15.084 30.6064 15.0635 30.8232 15.0225L 30.8232 16.9473C 30.3252 17.0996 29.8125 17.1758 29.2852 17.1758C 27.5039 17.1758 26.5957 16.2764 26.5605 14.4775L 26.5605 9.35352L 25.1719 9.35352L 25.1719 7.49023L 26.5605 7.49023L 26.5605 5.15234L 29.1006 5.15234Z"/>
<path id="path11_fill" d="M 0.648 9.072L 2.628 9.072L 2.826 10.188L 2.898 10.188C 3.066 9.816 3.294 9.504 3.582 9.252C 3.882 8.988 4.29 8.856 4.806 8.856C 5.202 8.856 5.532 8.982 5.796 9.234C 6.072 9.474 6.264 9.834 6.372 10.314C 6.54 9.906 6.78 9.564 7.092 9.288C 7.416 9 7.83 8.856 8.334 8.856C 8.958 8.856 9.444 9.114 9.792 9.63C 10.14 10.134 10.314 10.836 10.314 11.736L 10.314 18L 7.83 18L 7.83 11.934C 7.83 11.382 7.662 11.106 7.326 11.106C 7.002 11.106 6.726 11.394 6.498 11.97L 6.498 18L 4.464 18L 4.464 11.934C 4.464 11.382 4.29 11.106 3.942 11.106C 3.774 11.106 3.63 11.178 3.51 11.322C 3.39 11.466 3.264 11.682 3.132 11.97L 3.132 18L 0.648 18L 0.648 9.072ZM 11.639 13.536C 11.639 12.792 11.765 12.132 12.017 11.556C 12.269 10.968 12.605 10.476 13.025 10.08C 13.457 9.684 13.943 9.384 14.483 9.18C 15.035 8.964 15.605 8.856 16.193 8.856C 16.781 8.856 17.345 8.964 17.885 9.18C 18.437 9.384 18.923 9.684 19.343 10.08C 19.775 10.476 20.117 10.968 20.369 11.556C 20.621 12.132 20.747 12.792 20.747 13.536C 20.747 14.28 20.621 14.946 20.369 15.534C 20.117 16.11 19.775 16.596 19.343 16.992C 18.923 17.388 18.437 17.694 17.885 17.91C 17.345 18.114 16.781 18.216 16.193 18.216C 15.605 18.216 15.035 18.114 14.483 17.91C 13.943 17.694 13.457 17.388 13.025 16.992C 12.605 16.596 12.269 16.11 12.017 15.534C 11.765 14.946 11.639 14.28 11.639 13.536ZM 14.357 13.536C 14.357 14.316 14.507 14.934 14.807 15.39C 15.119 15.846 15.581 16.074 16.193 16.074C 16.805 16.074 17.261 15.846 17.561 15.39C 17.873 14.934 18.029 14.316 18.029 13.536C 18.029 12.756 17.873 12.138 17.561 11.682C 17.261 11.226 16.805 10.998 16.193 10.998C 15.581 10.998 15.119 11.226 14.807 11.682C 14.507 12.138 14.357 12.756 14.357 13.536ZM 22.4319 13.536C 22.4319 12.804 22.5399 12.15 22.7559 11.574C 22.9719 10.998 23.2539 10.512 23.6019 10.116C 23.9619 9.708 24.3699 9.396 24.8259 9.18C 25.2819 8.964 25.7559 8.856 26.2479 8.856C 26.7639 8.856 27.1959 8.946 27.5439 9.126C 27.8919 9.294 28.2219 9.522 28.5339 9.81L 28.4439 8.424L 28.4439 5.382L 31.0899 5.382L 31.0899 18L 28.9299 18L 28.7319 17.082L 28.6779 17.082C 28.3419 17.406 27.9579 17.676 27.5259 17.892C 27.0939 18.108 26.6499 18.216 26.1939 18.216C 25.6299 18.216 25.1139 18.108 24.6459 17.892C 24.1899 17.676 23.7939 17.37 23.4579 16.974C 23.1339 16.566 22.8819 16.074 22.7019 15.498C 22.5219 14.922 22.4319 14.268 22.4319 13.536ZM 25.1499 13.5C 25.1499 14.388 25.2999 15.036 25.5999 15.444C 25.8999 15.852 26.3259 16.056 26.8779 16.056C 27.1779 16.056 27.4539 15.996 27.7059 15.876C 27.9579 15.744 28.2039 15.528 28.4439 15.228L 28.4439 11.61C 28.2039 11.394 27.9579 11.244 27.7059 11.16C 27.4659 11.064 27.2139 11.016 26.9499 11.016C 26.4579 11.016 26.0319 11.22 25.6719 11.628C 25.3239 12.036 25.1499 12.66 25.1499 13.5ZM 33.3689 13.536C 33.3689 12.804 33.4949 12.15 33.7469 11.574C 34.0109 10.998 34.3589 10.512 34.7909 10.116C 35.2229 9.708 35.7149 9.396 36.2669 9.18C 36.8309 8.964 37.4129 8.856 38.0129 8.856C 38.6969 8.856 39.3029 8.964 39.8309 9.18C 40.3589 9.396 40.7969 9.696 41.1449 10.08C 41.4929 10.464 41.7569 10.92 41.9369 11.448C 42.1169 11.964 42.2069 12.528 42.2069 13.14C 42.2069 13.38 42.1949 13.608 42.1709 13.824C 42.1469 14.04 42.1229 14.202 42.0989 14.31L 36.0869 14.31C 36.1829 14.982 36.4709 15.468 36.9509 15.768C 37.4429 16.056 38.0189 16.2 38.6789 16.2C 39.0869 16.2 39.4709 16.152 39.8309 16.056C 40.2029 15.948 40.5869 15.792 40.9829 15.588L 41.8469 17.172C 41.3429 17.496 40.7789 17.754 40.1549 17.946C 39.5309 18.126 38.9189 18.216 38.3189 18.216C 37.6229 18.216 36.9749 18.114 36.3749 17.91C 35.7749 17.694 35.2529 17.388 34.8089 16.992C 34.3649 16.584 34.0109 16.092 33.7469 15.516C 33.4949 14.94 33.3689 14.28 33.3689 13.536ZM 39.8129 12.564C 39.8129 12.06 39.6749 11.652 39.3989 11.34C 39.1229 11.028 38.6789 10.872 38.0669 10.872C 37.5869 10.872 37.1609 11.01 36.7889 11.286C 36.4169 11.562 36.1709 11.988 36.0509 12.564L 39.8129 12.564ZM 44.2879 5.382L 49.5259 5.382L 49.5259 14.616C 49.5259 14.892 49.5619 15.126 49.6339 15.318C 49.7179 15.498 49.8259 15.648 49.9579 15.768C 50.1019 15.876 50.2579 15.954 50.4259 16.002C 50.6059 16.05 50.7859 16.074 50.9659 16.074C 51.1699 16.074 51.3859 16.056 51.6139 16.02C 51.8419 15.972 52.0939 15.894 52.3699 15.786L 52.9639 17.73C 52.7239 17.802 52.5019 17.868 52.2979 17.928C 52.0939 17.988 51.8899 18.036 51.6859 18.072C 51.4819 18.12 51.2659 18.156 51.0379 18.18C 50.8099 18.204 50.5579 18.216 50.2819 18.216C 49.1539 18.216 48.3019 17.886 47.7259 17.226C 47.1619 16.554 46.8799 15.648 46.8799 14.508L 46.8799 7.47L 44.2879 7.47L 44.2879 5.382ZM 57.2768 16.11C 57.2768 15.81 57.3248 15.534 57.4208 15.282C 57.5288 15.018 57.6728 14.79 57.8528 14.598C 58.0328 14.406 58.2488 14.256 58.5008 14.148C 58.7648 14.04 59.0528 13.986 59.3648 13.986C 59.6768 13.986 59.9588 14.04 60.2108 14.148C 60.4748 14.256 60.6968 14.406 60.8768 14.598C 61.0568 14.79 61.1948 15.018 61.2908 15.282C 61.3988 15.534 61.4528 15.81 61.4528 16.11C 61.4528 16.71 61.2608 17.214 60.8768 17.622C 60.4928 18.018 59.9888 18.216 59.3648 18.216C 58.7408 18.216 58.2368 18.018 57.8528 17.622C 57.4688 17.214 57.2768 16.71 57.2768 16.11ZM 74.7838 7.596C 74.1958 7.368 73.5718 7.254 72.9118 7.254C 72.3358 7.254 71.9098 7.38 71.6338 7.632C 71.3698 7.884 71.2378 8.28 71.2378 8.82L 71.2378 9.072L 74.3158 9.072L 74.3158 11.142L 71.2378 11.142L 71.2378 18L 68.5918 18L 68.5918 11.142L 66.2338 11.142L 66.2338 9.18L 68.5918 9.072L 68.5918 8.838C 68.5918 8.322 68.6698 7.842 68.8258 7.398C 68.9818 6.954 69.2218 6.57 69.5458 6.246C 69.8698 5.91 70.2838 5.646 70.7878 5.454C 71.2918 5.262 71.8918 5.166 72.5878 5.166C 73.1038 5.166 73.5838 5.214 74.0278 5.31C 74.4838 5.406 74.9038 5.52 75.2878 5.652L 74.7838 7.596ZM 76.9728 9.072L 83.2008 9.072L 83.2008 18L 80.5548 18L 80.5548 11.142L 76.9728 11.142L 76.9728 9.072ZM 81.7608 7.758C 81.2448 7.758 80.8188 7.614 80.4828 7.326C 80.1588 7.038 79.9968 6.648 79.9968 6.156C 79.9968 5.664 80.1588 5.268 80.4828 4.968C 80.8188 4.656 81.2448 4.5 81.7608 4.5C 82.2768 4.5 82.6968 4.656 83.0208 4.968C 83.3568 5.268 83.5248 5.664 83.5248 6.156C 83.5248 6.648 83.3568 7.038 83.0208 7.326C 82.6968 7.614 82.2768 7.758 81.7608 7.758ZM 89.4757 11.142L 87.2257 11.142L 87.2257 9.18L 89.6017 9.072L 89.9438 6.696L 92.1218 6.696L 92.1218 9.072L 95.9018 9.072L 95.9018 11.142L 92.1218 11.142L 92.1218 14.274C 92.1218 14.958 92.2718 15.444 92.5717 15.732C 92.8717 16.008 93.3457 16.146 93.9938 16.146C 94.3418 16.146 94.6598 16.116 94.9477 16.056C 95.2357 15.996 95.5117 15.918 95.7757 15.822L 96.2438 17.73C 95.8477 17.85 95.4037 17.958 94.9118 18.054C 94.4318 18.162 93.9037 18.216 93.3278 18.216C 92.6198 18.216 92.0198 18.12 91.5277 17.928C 91.0358 17.736 90.6337 17.472 90.3218 17.136C 90.0218 16.788 89.8058 16.374 89.6738 15.894C 89.5417 15.414 89.4757 14.88 89.4757 14.292L 89.4757 11.142ZM 104.193 21.222C 103.017 20.178 102.087 18.972 101.403 17.604C 100.731 16.236 100.395 14.7 100.395 12.996C 100.395 11.292 100.731 9.756 101.403 8.388C 102.087 7.02 103.017 5.814 104.193 4.77L 105.669 5.94C 104.601 6.984 103.821 8.07 103.329 9.198C 102.849 10.314 102.609 11.58 102.609 12.996C 102.609 13.704 102.669 14.376 102.789 15.012C 102.909 15.636 103.089 16.236 103.329 16.812C 103.581 17.388 103.899 17.94 104.283 18.468C 104.667 19.008 105.129 19.536 105.669 20.052L 104.193 21.222ZM 282.885 20.052C 283.425 19.536 283.887 19.008 284.271 18.468C 284.655 17.94 284.967 17.388 285.207 16.812C 285.459 16.236 285.645 15.636 285.765 15.012C 285.885 14.376 285.945 13.704 285.945 12.996C 285.945 11.58 285.699 10.314 285.207 9.198C 284.727 8.07 283.953 6.984 282.885 5.94L 284.361 4.77C 285.537 5.814 286.461 7.02 287.133 8.388C 287.817 9.756 288.159 11.292 288.159 12.996C 288.159 14.7 287.817 16.236 287.133 17.604C 286.461 18.972 285.537 20.178 284.361 21.222L 282.885 20.052Z"/>
<path id="path12_fill" d="M 0.648 9.072L 2.628 9.072L 2.826 10.188L 2.898 10.188C 3.066 9.816 3.294 9.504 3.582 9.252C 3.882 8.988 4.29 8.856 4.806 8.856C 5.202 8.856 5.532 8.982 5.796 9.234C 6.072 9.474 6.264 9.834 6.372 10.314C 6.54 9.906 6.78 9.564 7.092 9.288C 7.416 9 7.83 8.856 8.334 8.856C 8.958 8.856 9.444 9.114 9.792 9.63C 10.14 10.134 10.314 10.836 10.314 11.736L 10.314 18L 7.83 18L 7.83 11.934C 7.83 11.382 7.662 11.106 7.326 11.106C 7.002 11.106 6.726 11.394 6.498 11.97L 6.498 18L 4.464 18L 4.464 11.934C 4.464 11.382 4.29 11.106 3.942 11.106C 3.774 11.106 3.63 11.178 3.51 11.322C 3.39 11.466 3.264 11.682 3.132 11.97L 3.132 18L 0.648 18L 0.648 9.072ZM 11.639 13.536C 11.639 12.792 11.765 12.132 12.017 11.556C 12.269 10.968 12.605 10.476 13.025 10.08C 13.457 9.684 13.943 9.384 14.483 9.18C 15.035 8.964 15.605 8.856 16.193 8.856C 16.781 8.856 17.345 8.964 17.885 9.18C 18.437 9.384 18.923 9.684 19.343 10.08C 19.775 10.476 20.117 10.968 20.369 11.556C 20.621 12.132 20.747 12.792 20.747 13.536C 20.747 14.28 20.621 14.946 20.369 15.534C 20.117 16.11 19.775 16.596 19.343 16.992C 18.923 17.388 18.437 17.694 17.885 17.91C 17.345 18.114 16.781 18.216 16.193 18.216C 15.605 18.216 15.035 18.114 14.483 17.91C 13.943 17.694 13.457 17.388 13.025 16.992C 12.605 16.596 12.269 16.11 12.017 15.534C 11.765 14.946 11.639 14.28 11.639 13.536ZM 14.357 13.536C 14.357 14.316 14.507 14.934 14.807 15.39C 15.119 15.846 15.581 16.074 16.193 16.074C 16.805 16.074 17.261 15.846 17.561 15.39C 17.873 14.934 18.029 14.316 18.029 13.536C 18.029 12.756 17.873 12.138 17.561 11.682C 17.261 11.226 16.805 10.998 16.193 10.998C 15.581 10.998 15.119 11.226 14.807 11.682C 14.507 12.138 14.357 12.756 14.357 13.536ZM 22.4319 13.536C 22.4319 12.804 22.5399 12.15 22.7559 11.574C 22.9719 10.998 23.2539 10.512 23.6019 10.116C 23.9619 9.708 24.3699 9.396 24.8259 9.18C 25.2819 8.964 25.7559 8.856 26.2479 8.856C 26.7639 8.856 27.1959 8.946 27.5439 9.126C 27.8919 9.294 28.2219 9.522 28.5339 9.81L 28.4439 8.424L 28.4439 5.382L 31.0899 5.382L 31.0899 18L 28.9299 18L 28.7319 17.082L 28.6779 17.082C 28.3419 17.406 27.9579 17.676 27.5259 17.892C 27.0939 18.108 26.6499 18.216 26.1939 18.216C 25.6299 18.216 25.1139 18.108 24.6459 17.892C 24.1899 17.676 23.7939 17.37 23.4579 16.974C 23.1339 16.566 22.8819 16.074 22.7019 15.498C 22.5219 14.922 22.4319 14.268 22.4319 13.536ZM 25.1499 13.5C 25.1499 14.388 25.2999 15.036 25.5999 15.444C 25.8999 15.852 26.3259 16.056 26.8779 16.056C 27.1779 16.056 27.4539 15.996 27.7059 15.876C 27.9579 15.744 28.2039 15.528 28.4439 15.228L 28.4439 11.61C 28.2039 11.394 27.9579 11.244 27.7059 11.16C 27.4659 11.064 27.2139 11.016 26.9499 11.016C 26.4579 11.016 26.0319 11.22 25.6719 11.628C 25.3239 12.036 25.1499 12.66 25.1499 13.5ZM 33.3689 13.536C 33.3689 12.804 33.4949 12.15 33.7469 11.574C 34.0109 10.998 34.3589 10.512 34.7909 10.116C 35.2229 9.708 35.7149 9.396 36.2669 9.18C 36.8309 8.964 37.4129 8.856 38.0129 8.856C 38.6969 8.856 39.3029 8.964 39.8309 9.18C 40.3589 9.396 40.7969 9.696 41.1449 10.08C 41.4929 10.464 41.7569 10.92 41.9369 11.448C 42.1169 11.964 42.2069 12.528 42.2069 13.14C 42.2069 13.38 42.1949 13.608 42.1709 13.824C 42.1469 14.04 42.1229 14.202 42.0989 14.31L 36.0869 14.31C 36.1829 14.982 36.4709 15.468 36.9509 15.768C 37.4429 16.056 38.0189 16.2 38.6789 16.2C 39.0869 16.2 39.4709 16.152 39.8309 16.056C 40.2029 15.948 40.5869 15.792 40.9829 15.588L 41.8469 17.172C 41.3429 17.496 40.7789 17.754 40.1549 17.946C 39.5309 18.126 38.9189 18.216 38.3189 18.216C 37.6229 18.216 36.9749 18.114 36.3749 17.91C 35.7749 17.694 35.2529 17.388 34.8089 16.992C 34.3649 16.584 34.0109 16.092 33.7469 15.516C 33.4949 14.94 33.3689 14.28 33.3689 13.536ZM 39.8129 12.564C 39.8129 12.06 39.6749 11.652 39.3989 11.34C 39.1229 11.028 38.6789 10.872 38.0669 10.872C 37.5869 10.872 37.1609 11.01 36.7889 11.286C 36.4169 11.562 36.1709 11.988 36.0509 12.564L 39.8129 12.564ZM 44.2879 5.382L 49.5259 5.382L 49.5259 14.616C 49.5259 14.892 49.5619 15.126 49.6339 15.318C 49.7179 15.498 49.8259 15.648 49.9579 15.768C 50.1019 15.876 50.2579 15.954 50.4259 16.002C 50.6059 16.05 50.7859 16.074 50.9659 16.074C 51.1699 16.074 51.3859 16.056 51.6139 16.02C 51.8419 15.972 52.0939 15.894 52.3699 15.786L 52.9639 17.73C 52.7239 17.802 52.5019 17.868 52.2979 17.928C 52.0939 17.988 51.8899 18.036 51.6859 18.072C 51.4819 18.12 51.2659 18.156 51.0379 18.18C 50.8099 18.204 50.5579 18.216 50.2819 18.216C 49.1539 18.216 48.3019 17.886 47.7259 17.226C 47.1619 16.554 46.8799 15.648 46.8799 14.508L 46.8799 7.47L 44.2879 7.47L 44.2879 5.382ZM 57.2768 16.11C 57.2768 15.81 57.3248 15.534 57.4208 15.282C 57.5288 15.018 57.6728 14.79 57.8528 14.598C 58.0328 14.406 58.2488 14.256 58.5008 14.148C 58.7648 14.04 59.0528 13.986 59.3648 13.986C 59.6768 13.986 59.9588 14.04 60.2108 14.148C 60.4748 14.256 60.6968 14.406 60.8768 14.598C 61.0568 14.79 61.1948 15.018 61.2908 15.282C 61.3988 15.534 61.4528 15.81 61.4528 16.11C 61.4528 16.71 61.2608 17.214 60.8768 17.622C 60.4928 18.018 59.9888 18.216 59.3648 18.216C 58.7408 18.216 58.2368 18.018 57.8528 17.622C 57.4688 17.214 57.2768 16.71 57.2768 16.11ZM 68.6998 18.702L 68.6998 21.312L 66.0538 21.312L 66.0538 9.072L 68.2138 9.072L 68.4118 9.972L 68.4658 9.972C 68.8258 9.648 69.2398 9.384 69.7078 9.18C 70.1758 8.964 70.6498 8.856 71.1298 8.856C 71.6818 8.856 72.1798 8.964 72.6238 9.18C 73.0678 9.396 73.4458 9.702 73.7578 10.098C 74.0698 10.494 74.3038 10.974 74.4598 11.538C 74.6278 12.09 74.7118 12.708 74.7118 13.392C 74.7118 14.16 74.6038 14.844 74.3878 15.444C 74.1718 16.032 73.8838 16.536 73.5238 16.956C 73.1638 17.364 72.7498 17.676 72.2818 17.892C 71.8258 18.108 71.3458 18.216 70.8418 18.216C 70.0258 18.216 69.2818 17.892 68.6098 17.244L 68.6998 18.702ZM 68.6998 15.462C 68.9518 15.678 69.2098 15.834 69.4738 15.93C 69.7498 16.014 70.0018 16.056 70.2298 16.056C 70.7338 16.056 71.1538 15.852 71.4898 15.444C 71.8258 15.024 71.9938 14.352 71.9938 13.428C 71.9938 11.82 71.4478 11.016 70.3558 11.016C 69.7918 11.016 69.2398 11.292 68.6998 11.844L 68.6998 15.462ZM 77.6388 9.072L 79.7988 9.072L 80.0148 11.016L 80.0688 11.016C 80.5128 10.284 81.0468 9.744 81.6708 9.396C 82.2948 9.036 82.9668 8.856 83.6868 8.856C 84.0828 8.856 84.4008 8.886 84.6408 8.946C 84.8928 9.006 85.1508 9.096 85.4148 9.216L 84.8748 11.43C 84.5988 11.346 84.3468 11.286 84.1188 11.25C 83.9028 11.202 83.6268 11.178 83.2908 11.178C 82.7388 11.178 82.1928 11.34 81.6528 11.664C 81.1248 11.988 80.6688 12.552 80.2848 13.356L 80.2848 18L 77.6388 18L 77.6388 9.072ZM 87.3337 13.536C 87.3337 12.804 87.4597 12.15 87.7117 11.574C 87.9757 10.998 88.3237 10.512 88.7558 10.116C 89.1878 9.708 89.6797 9.396 90.2318 9.18C 90.7957 8.964 91.3777 8.856 91.9777 8.856C 92.6618 8.856 93.2678 8.964 93.7958 9.18C 94.3237 9.396 94.7617 9.696 95.1097 10.08C 95.4578 10.464 95.7218 10.92 95.9018 11.448C 96.0818 11.964 96.1718 12.528 96.1718 13.14C 96.1718 13.38 96.1597 13.608 96.1358 13.824C 96.1118 14.04 96.0877 14.202 96.0638 14.31L 90.0518 14.31C 90.1478 14.982 90.4358 15.468 90.9158 15.768C 91.4077 16.056 91.9837 16.2 92.6437 16.2C 93.0517 16.2 93.4357 16.152 93.7958 16.056C 94.1677 15.948 94.5518 15.792 94.9477 15.588L 95.8118 17.172C 95.3077 17.496 94.7438 17.754 94.1198 17.946C 93.4957 18.126 92.8838 18.216 92.2838 18.216C 91.5878 18.216 90.9398 18.114 90.3398 17.91C 89.7398 17.694 89.2178 17.388 88.7738 16.992C 88.3297 16.584 87.9757 16.092 87.7117 15.516C 87.4597 14.94 87.3337 14.28 87.3337 13.536ZM 93.7777 12.564C 93.7777 12.06 93.6398 11.652 93.3637 11.34C 93.0877 11.028 92.6437 10.872 92.0318 10.872C 91.5518 10.872 91.1257 11.01 90.7538 11.286C 90.3817 11.562 90.1358 11.988 90.0157 12.564L 93.7777 12.564ZM 97.9827 13.536C 97.9827 12.804 98.0907 12.15 98.3067 11.574C 98.5227 10.998 98.8047 10.512 99.1527 10.116C 99.5127 9.708 99.9207 9.396 100.377 9.18C 100.833 8.964 101.307 8.856 101.799 8.856C 102.315 8.856 102.747 8.946 103.095 9.126C 103.443 9.294 103.773 9.522 104.085 9.81L 103.995 8.424L 103.995 5.382L 106.641 5.382L 106.641 18L 104.481 18L 104.283 17.082L 104.229 17.082C 103.893 17.406 103.509 17.676 103.077 17.892C 102.645 18.108 102.201 18.216 101.745 18.216C 101.181 18.216 100.665 18.108 100.197 17.892C 99.7407 17.676 99.3447 17.37 99.0087 16.974C 98.6847 16.566 98.4327 16.074 98.2527 15.498C 98.0727 14.922 97.9827 14.268 97.9827 13.536ZM 100.701 13.5C 100.701 14.388 100.851 15.036 101.151 15.444C 101.451 15.852 101.877 16.056 102.429 16.056C 102.729 16.056 103.005 15.996 103.257 15.876C 103.509 15.744 103.755 15.528 103.995 15.228L 103.995 11.61C 103.755 11.394 103.509 11.244 103.257 11.16C 103.017 11.064 102.765 11.016 102.501 11.016C 102.009 11.016 101.583 11.22 101.223 11.628C 100.875 12.036 100.701 12.66 100.701 13.5ZM 109.352 9.072L 115.58 9.072L 115.58 18L 112.934 18L 112.934 11.142L 109.352 11.142L 109.352 9.072ZM 114.14 7.758C 113.624 7.758 113.198 7.614 112.862 7.326C 112.538 7.038 112.376 6.648 112.376 6.156C 112.376 5.664 112.538 5.268 112.862 4.968C 113.198 4.656 113.624 4.5 114.14 4.5C 114.656 4.5 115.076 4.656 115.4 4.968C 115.736 5.268 115.904 5.664 115.904 6.156C 115.904 6.648 115.736 7.038 115.4 7.326C 115.076 7.614 114.656 7.758 114.14 7.758ZM 119.929 13.536C 119.929 12.792 120.067 12.132 120.343 11.556C 120.631 10.968 121.009 10.476 121.477 10.08C 121.957 9.684 122.509 9.384 123.133 9.18C 123.757 8.964 124.411 8.856 125.095 8.856C 125.803 8.856 126.439 8.97 127.003 9.198C 127.579 9.426 128.059 9.714 128.443 10.062L 127.219 11.7C 126.559 11.232 125.899 10.998 125.239 10.998C 124.471 10.998 123.847 11.226 123.367 11.682C 122.887 12.138 122.647 12.756 122.647 13.536C 122.647 14.316 122.875 14.934 123.331 15.39C 123.799 15.846 124.405 16.074 125.149 16.074C 125.617 16.074 126.049 15.99 126.445 15.822C 126.841 15.654 127.195 15.456 127.507 15.228L 128.587 16.902C 128.047 17.358 127.447 17.694 126.787 17.91C 126.139 18.114 125.509 18.216 124.897 18.216C 124.189 18.216 123.535 18.114 122.935 17.91C 122.335 17.694 121.807 17.388 121.351 16.992C 120.907 16.596 120.559 16.11 120.307 15.534C 120.055 14.946 119.929 14.28 119.929 13.536ZM 132.648 11.142L 130.398 11.142L 130.398 9.18L 132.774 9.072L 133.116 6.696L 135.294 6.696L 135.294 9.072L 139.074 9.072L 139.074 11.142L 135.294 11.142L 135.294 14.274C 135.294 14.958 135.444 15.444 135.744 15.732C 136.044 16.008 136.518 16.146 137.166 16.146C 137.514 16.146 137.832 16.116 138.12 16.056C 138.408 15.996 138.684 15.918 138.948 15.822L 139.416 17.73C 139.02 17.85 138.576 17.958 138.084 18.054C 137.604 18.162 137.076 18.216 136.5 18.216C 135.792 18.216 135.192 18.12 134.7 17.928C 134.208 17.736 133.806 17.472 133.494 17.136C 133.194 16.788 132.978 16.374 132.846 15.894C 132.714 15.414 132.648 14.88 132.648 14.292L 132.648 11.142ZM 147.365 21.222C 146.189 20.178 145.259 18.972 144.575 17.604C 143.903 16.236 143.567 14.7 143.567 12.996C 143.567 11.292 143.903 9.756 144.575 8.388C 145.259 7.02 146.189 5.814 147.365 4.77L 148.841 5.94C 147.773 6.984 146.993 8.07 146.501 9.198C 146.021 10.314 145.781 11.58 145.781 12.996C 145.781 13.704 145.841 14.376 145.961 15.012C 146.081 15.636 146.261 16.236 146.501 16.812C 146.753 17.388 147.071 17.94 147.455 18.468C 147.839 19.008 148.301 19.536 148.841 20.052L 147.365 21.222ZM 304.471 20.052C 305.011 19.536 305.473 19.008 305.857 18.468C 306.241 17.94 306.553 17.388 306.793 16.812C 307.045 16.236 307.231 15.636 307.351 15.012C 307.471 14.376 307.531 13.704 307.531 12.996C 307.531 11.58 307.285 10.314 306.793 9.198C 306.313 8.07 305.539 6.984 304.471 5.94L 305.947 4.77C 307.123 5.814 308.047 7.02 308.719 8.388C 309.403 9.756 309.745 11.292 309.745 12.996C 309.745 14.7 309.403 16.236 308.719 17.604C 308.047 18.972 307.123 20.178 305.947 21.222L 304.471 20.052Z"/>
<path id="path13_fill" d="M 0.99 13.536C 0.99 12.804 1.116 12.15 1.368 11.574C 1.632 10.998 1.98 10.512 2.412 10.116C 2.844 9.708 3.336 9.396 3.888 9.18C 4.452 8.964 5.034 8.856 5.634 8.856C 6.318 8.856 6.924 8.964 7.452 9.18C 7.98 9.396 8.418 9.696 8.766 10.08C 9.114 10.464 9.378 10.92 9.558 11.448C 9.738 11.964 9.828 12.528 9.828 13.14C 9.828 13.38 9.816 13.608 9.792 13.824C 9.768 14.04 9.744 14.202 9.72 14.31L 3.708 14.31C 3.804 14.982 4.092 15.468 4.572 15.768C 5.064 16.056 5.64 16.2 6.3 16.2C 6.708 16.2 7.092 16.152 7.452 16.056C 7.824 15.948 8.208 15.792 8.604 15.588L 9.468 17.172C 8.964 17.496 8.4 17.754 7.776 17.946C 7.152 18.126 6.54 18.216 5.94 18.216C 5.244 18.216 4.596 18.114 3.996 17.91C 3.396 17.694 2.874 17.388 2.43 16.992C 1.986 16.584 1.632 16.092 1.368 15.516C 1.116 14.94 0.99 14.28 0.99 13.536ZM 7.434 12.564C 7.434 12.06 7.296 11.652 7.02 11.34C 6.744 11.028 6.3 10.872 5.688 10.872C 5.208 10.872 4.782 11.01 4.41 11.286C 4.038 11.562 3.792 11.988 3.672 12.564L 7.434 12.564ZM 12.881 9.072L 15.041 9.072L 15.257 11.016L 15.311 11.016C 15.755 10.284 16.289 9.744 16.913 9.396C 17.537 9.036 18.209 8.856 18.929 8.856C 19.325 8.856 19.643 8.886 19.883 8.946C 20.135 9.006 20.393 9.096 20.657 9.216L 20.117 11.43C 19.841 11.346 19.589 11.286 19.361 11.25C 19.145 11.202 18.869 11.178 18.533 11.178C 17.981 11.178 17.435 11.34 16.895 11.664C 16.367 11.988 15.911 12.552 15.527 13.356L 15.527 18L 12.881 18L 12.881 9.072ZM 23.6739 9.072L 25.8339 9.072L 26.0499 11.016L 26.1039 11.016C 26.5479 10.284 27.0819 9.744 27.7059 9.396C 28.3299 9.036 29.0019 8.856 29.7219 8.856C 30.1179 8.856 30.4359 8.886 30.6759 8.946C 30.9279 9.006 31.1859 9.096 31.4499 9.216L 30.9099 11.43C 30.6339 11.346 30.3819 11.286 30.1539 11.25C 29.9379 11.202 29.6619 11.178 29.3259 11.178C 28.7739 11.178 28.2279 11.34 27.6879 11.664C 27.1599 11.988 26.7039 12.552 26.3199 13.356L 26.3199 18L 23.6739 18L 23.6739 9.072ZM 33.2249 13.536C 33.2249 12.792 33.3509 12.132 33.6029 11.556C 33.8549 10.968 34.1909 10.476 34.6109 10.08C 35.0429 9.684 35.5289 9.384 36.0689 9.18C 36.6209 8.964 37.1909 8.856 37.7789 8.856C 38.3669 8.856 38.9309 8.964 39.4709 9.18C 40.0229 9.384 40.5089 9.684 40.9289 10.08C 41.3609 10.476 41.7029 10.968 41.9549 11.556C 42.2069 12.132 42.3329 12.792 42.3329 13.536C 42.3329 14.28 42.2069 14.946 41.9549 15.534C 41.7029 16.11 41.3609 16.596 40.9289 16.992C 40.5089 17.388 40.0229 17.694 39.4709 17.91C 38.9309 18.114 38.3669 18.216 37.7789 18.216C 37.1909 18.216 36.6209 18.114 36.0689 17.91C 35.5289 17.694 35.0429 17.388 34.6109 16.992C 34.1909 16.596 33.8549 16.11 33.6029 15.534C 33.3509 14.946 33.2249 14.28 33.2249 13.536ZM 35.9429 13.536C 35.9429 14.316 36.0929 14.934 36.3929 15.39C 36.7049 15.846 37.1669 16.074 37.7789 16.074C 38.3909 16.074 38.8469 15.846 39.1469 15.39C 39.4589 14.934 39.6149 14.316 39.6149 13.536C 39.6149 12.756 39.4589 12.138 39.1469 11.682C 38.8469 11.226 38.3909 10.998 37.7789 10.998C 37.1669 10.998 36.7049 11.226 36.3929 11.682C 36.0929 12.138 35.9429 12.756 35.9429 13.536ZM 45.2599 9.072L 47.4199 9.072L 47.6359 11.016L 47.6899 11.016C 48.1339 10.284 48.6679 9.744 49.2919 9.396C 49.9159 9.036 50.5879 8.856 51.3079 8.856C 51.7039 8.856 52.0219 8.886 52.2619 8.946C 52.5139 9.006 52.7719 9.096 53.0359 9.216L 52.4959 11.43C 52.2199 11.346 51.9679 11.286 51.7399 11.25C 51.5239 11.202 51.2479 11.178 50.9119 11.178C 50.3599 11.178 49.8139 11.34 49.2739 11.664C 48.7459 11.988 48.2899 12.552 47.9059 13.356L 47.9059 18L 45.2599 18L 45.2599 9.072ZM 61.0208 21.222C 59.8448 20.178 58.9148 18.972 58.2308 17.604C 57.5588 16.236 57.2228 14.7 57.2228 12.996C 57.2228 11.292 57.5588 9.756 58.2308 8.388C 58.9148 7.02 59.8448 5.814 61.0208 4.77L 62.4968 5.94C 61.4288 6.984 60.6488 8.07 60.1568 9.198C 59.6768 10.314 59.4368 11.58 59.4368 12.996C 59.4368 13.704 59.4968 14.376 59.6168 15.012C 59.7368 15.636 59.9168 16.236 60.1568 16.812C 60.4088 17.388 60.7268 17.94 61.1108 18.468C 61.4948 19.008 61.9568 19.536 62.4968 20.052L 61.0208 21.222ZM 196.541 20.052C 197.081 19.536 197.543 19.008 197.927 18.468C 198.311 17.94 198.623 17.388 198.863 16.812C 199.115 16.236 199.301 15.636 199.421 15.012C 199.541 14.376 199.601 13.704 199.601 12.996C 199.601 11.58 199.355 10.314 198.863 9.198C 198.383 8.07 197.609 6.984 196.541 5.94L 198.017 4.77C 199.193 5.814 200.117 7.02 200.789 8.388C 201.473 9.756 201.815 11.292 201.815 12.996C 201.815 14.7 201.473 16.236 200.789 17.604C 200.117 18.972 199.193 20.178 198.017 21.222L 196.541 20.052Z"/>
<path id="path14_stroke" d="M 51.7071 0.707107C 52.0976 0.316583 52.0976 -0.316583 51.7071 -0.707107L 45.3431 -7.07107C 44.9526 -7.46159 44.3195 -7.46159 43.9289 -7.07107C 43.5384 -6.68054 43.5384 -6.04738 43.9289 -5.65685L 49.5858 0L 43.9289 5.65685C 43.5384 6.04738 43.5384 6.68054 43.9289 7.07107C 44.3195 7.46159 44.9526 7.46159 45.3431 7.07107L 51.7071 0.707107ZM 0 1L 51 1L 51 -1L 0 -1L 0 1Z"/>
<path id="path15_fill" d="M 2.412 22.482C 2.196 22.482 1.962 22.464 1.71 22.428C 1.47 22.392 1.296 22.35 1.188 22.302L 1.188 20.376C 1.272 20.424 1.44 20.472 1.692 20.52C 1.944 20.568 2.172 20.592 2.376 20.592C 2.976 20.592 3.468 20.394 3.852 19.998C 4.248 19.602 4.614 18.936 4.95 18L 3.978 18L 0.594 9.27L -0.216 9.036L -0.216 7.992L 4.734 7.992L 4.734 9.036L 3.42 9.252L 5.022 14.238L 5.67 16.362L 6.228 14.238L 7.704 9.252L 6.57 9.036L 6.57 7.992L 10.476 7.992L 10.476 9.036L 9.594 9.252C 8.934 11.268 8.28 13.212 7.632 15.084C 6.984 16.956 6.606 18.006 6.498 18.234C 6.114 19.242 5.748 20.046 5.4 20.646C 5.052 21.246 4.638 21.702 4.158 22.014C 3.678 22.326 3.096 22.482 2.412 22.482ZM 24.5978 10.944L 16.3898 10.944L 16.3898 9.342L 24.5978 9.342L 24.5978 10.944ZM 24.5978 15.84L 16.3898 15.84L 16.3898 14.238L 24.5978 14.238L 24.5978 15.84ZM 33.6631 20.88C 33.3151 20.88 32.9311 20.85 32.5111 20.79C 32.1031 20.742 31.7671 20.682 31.5031 20.61L 31.5031 19.278C 32.0071 19.434 32.5471 19.512 33.1231 19.512C 33.9631 19.512 34.6891 19.374 35.3011 19.098C 35.9251 18.822 36.3991 18.45 36.7231 17.982C 37.0471 17.514 37.2091 16.998 37.2091 16.434C 37.2091 15.666 36.9811 15.072 36.5251 14.652C 36.0691 14.232 35.3911 14.01 34.4911 13.986L 33.4111 14.256L 33.0331 13.158C 33.5251 13.074 34.0111 12.924 34.4911 12.708C 35.1871 12.396 35.7271 12.006 36.1111 11.538C 36.4951 11.058 36.6871 10.548 36.6871 10.008C 36.6871 9.408 36.5011 8.97 36.1291 8.694C 35.7691 8.418 35.3071 8.28 34.7431 8.28C 34.2151 8.28 33.7171 8.37 33.2491 8.55C 32.7931 8.73 32.4031 8.952 32.0791 9.216L 31.4491 8.118C 31.7971 7.782 32.3611 7.452 33.1411 7.128C 33.9331 6.804 34.7371 6.642 35.5531 6.642C 36.6931 6.642 37.6171 6.888 38.3251 7.38C 39.0451 7.86 39.4051 8.592 39.4051 9.576C 39.4051 10.44 39.0691 11.202 38.3971 11.862C 37.7251 12.522 36.9031 13.026 35.9311 13.374C 36.0511 13.362 36.2311 13.356 36.4711 13.356C 37.5391 13.356 38.4031 13.626 39.0631 14.166C 39.7351 14.706 40.0711 15.426 40.0711 16.326C 40.0831 17.19 39.8251 17.964 39.2971 18.648C 38.7811 19.344 38.0371 19.89 37.0651 20.286C 36.0931 20.682 34.9591 20.88 33.6631 20.88ZM 44.9204 13.086L 41.9504 9.252L 41.0144 9.036L 41.0144 7.992L 46.2164 7.992L 46.2164 9.036L 45.0464 9.252L 46.4684 11.25L 46.9364 12.006L 47.4044 11.25L 48.8624 9.252L 47.6384 9.036L 47.6384 7.992L 51.5444 7.992L 51.5444 9.036L 50.5184 9.252L 47.6744 12.744L 50.7884 16.776L 51.7784 16.938L 51.7784 18L 46.5764 18L 46.5764 16.938L 47.6384 16.758L 46.2524 14.652L 45.7124 13.86L 45.2804 14.634L 43.8044 16.758L 45.1904 16.938L 45.1904 18L 40.8704 18L 40.8704 16.938L 42.0224 16.758L 44.9204 13.086ZM 65.4238 11.502L 65.3698 10.062L 65.3698 8.082L 67.0438 8.082L 67.0438 10.062L 66.9718 11.502L 68.3578 11.394L 70.3198 11.394L 70.3198 13.086L 68.3578 13.086L 66.9718 13.032L 67.0438 14.436L 67.0438 16.524L 65.3698 16.524L 65.3698 14.436L 65.4238 13.032L 63.7858 13.086L 62.0938 13.086L 62.0938 11.394L 63.7858 11.394L 65.4238 11.502ZM 87.7572 18L 81.8172 18L 81.2412 17.064C 82.2732 15.108 83.9772 11.334 86.3532 5.742L 86.8932 5.742L 88.9272 6.786L 84.3372 15.534L 83.5452 16.704L 87.7752 16.452L 87.9552 13.086L 89.9172 12.924L 89.9172 16.308L 92.2212 16.182L 92.2212 18L 89.9172 18L 89.9172 20.88L 87.7572 20.88L 87.7572 18ZM 96.7056 13.086L 93.7356 9.252L 92.7996 9.036L 92.7996 7.992L 98.0016 7.992L 98.0016 9.036L 96.8316 9.252L 98.2536 11.25L 98.7216 12.006L 99.1896 11.25L 100.648 9.252L 99.4236 9.036L 99.4236 7.992L 103.33 7.992L 103.33 9.036L 102.304 9.252L 99.4596 12.744L 102.574 16.776L 103.564 16.938L 103.564 18L 98.3616 18L 98.3616 16.938L 99.4236 16.758L 98.0376 14.652L 97.4976 13.86L 97.0656 14.634L 95.5896 16.758L 96.9756 16.938L 96.9756 18L 92.6556 18L 92.6556 16.938L 93.8076 16.758L 96.7056 13.086Z"/>
<path id="path16_fill" d="M 3.204 9.18C 3 9.252 2.634 9.348 2.106 9.468C 1.578 9.576 1.164 9.648 0.864 9.684L 0.666 8.424C 1.314 8.292 1.986 8.058 2.682 7.722C 3.39 7.374 3.966 7.014 4.41 6.642L 4.428 6.642L 5.85 6.84L 5.85 16.74L 7.902 16.938L 7.902 18L 1.044 18L 1.044 16.938L 3.204 16.758L 3.204 9.18ZM 51.643 17.028C 53.311 16.044 54.679 14.958 55.747 13.77C 56.815 12.582 57.349 11.436 57.349 10.332C 57.349 9.744 57.163 9.276 56.791 8.928C 56.431 8.568 55.921 8.388 55.261 8.388C 54.637 8.388 54.109 8.508 53.677 8.748C 53.257 8.976 52.843 9.276 52.435 9.648L 51.751 8.658C 51.991 8.358 52.333 8.052 52.777 7.74C 53.233 7.428 53.761 7.17 54.361 6.966C 54.961 6.75 55.567 6.642 56.179 6.642C 57.055 6.642 57.787 6.792 58.375 7.092C 58.975 7.392 59.419 7.788 59.707 8.28C 59.995 8.772 60.139 9.318 60.139 9.918C 60.139 11.07 59.587 12.228 58.483 13.392C 57.379 14.556 55.975 15.624 54.271 16.596L 59.491 16.11L 60.175 14.598L 61.309 14.832L 60.787 18L 52.021 18L 51.643 17.028Z"/>
<path id="path17_fill" d="M 0.834961 12.166C 0.834961 10.707 1.18066 9.53516 1.87207 8.65039C 2.56348 7.75977 3.46875 7.31445 4.58789 7.31445C 5.70117 7.31445 6.58301 7.69531 7.2334 8.45703L 7.2334 3.5L 8.85938 3.5L 8.85938 17L 7.36523 17L 7.28613 15.9805C 6.63574 16.7773 5.73047 17.1758 4.57031 17.1758C 3.46875 17.1758 2.56934 16.7246 1.87207 15.8223C 1.18066 14.9199 0.834961 13.7422 0.834961 12.2891L 0.834961 12.166ZM 2.46094 12.3506C 2.46094 13.4287 2.68359 14.2725 3.12891 14.8818C 3.57422 15.4912 4.18945 15.7959 4.97461 15.7959C 6.00586 15.7959 6.75879 15.333 7.2334 14.4072L 7.2334 10.0391C 6.74707 9.14258 6 8.69434 4.99219 8.69434C 4.19531 8.69434 3.57422 9.00195 3.12891 9.61719C 2.68359 10.2324 2.46094 11.1436 2.46094 12.3506ZM 15.3369 17.1758C 14.0479 17.1758 12.999 16.7539 12.1904 15.9102C 11.3818 15.0605 10.9775 13.9268 10.9775 12.5088L 10.9775 12.21C 10.9775 11.2666 11.1563 10.4258 11.5137 9.6875C 11.877 8.94336 12.3809 8.36328 13.0254 7.94727C 13.6758 7.52539 14.3789 7.31445 15.1348 7.31445C 16.3711 7.31445 17.332 7.72168 18.0176 8.53613C 18.7031 9.35059 19.0459 10.5166 19.0459 12.0342L 19.0459 12.7109L 12.6035 12.7109C 12.627 13.6484 12.8994 14.4072 13.4209 14.9873C 13.9482 15.5615 14.6162 15.8486 15.4248 15.8486C 15.999 15.8486 16.4854 15.7314 16.8838 15.4971C 17.2822 15.2627 17.6309 14.9521 17.9297 14.5654L 18.9229 15.3389C 18.126 16.5635 16.9307 17.1758 15.3369 17.1758ZM 15.1348 8.65039C 14.4785 8.65039 13.9277 8.89062 13.4824 9.37109C 13.0371 9.8457 12.7617 10.5137 12.6562 11.375L 17.4199 11.375L 17.4199 11.252C 17.373 10.4258 17.1504 9.78711 16.752 9.33594C 16.3535 8.87891 15.8145 8.65039 15.1348 8.65039ZM 24.75 15.8486C 25.3301 15.8486 25.8369 15.6729 26.2705 15.3213C 26.7041 14.9697 26.9443 14.5303 26.9912 14.0029L 28.5293 14.0029C 28.5 14.5479 28.3125 15.0664 27.9668 15.5586C 27.6211 16.0508 27.1582 16.4434 26.5781 16.7363C 26.0039 17.0293 25.3945 17.1758 24.75 17.1758C 23.4551 17.1758 22.4238 16.7451 21.6562 15.8838C 20.8945 15.0166 20.5137 13.833 20.5137 12.333L 20.5137 12.0605C 20.5137 11.1348 20.6836 10.3115 21.0234 9.59082C 21.3633 8.87012 21.8496 8.31055 22.4824 7.91211C 23.1211 7.51367 23.874 7.31445 24.7412 7.31445C 25.8076 7.31445 26.6924 7.63379 27.3955 8.27246C 28.1045 8.91113 28.4824 9.74023 28.5293 10.7598L 26.9912 10.7598C 26.9443 10.1445 26.71 9.64063 26.2881 9.24805C 25.8721 8.84961 25.3564 8.65039 24.7412 8.65039C 23.915 8.65039 23.2734 8.94922 22.8164 9.54688C 22.3652 10.1387 22.1396 10.9971 22.1396 12.1221L 22.1396 12.4297C 22.1396 13.5254 22.3652 14.3691 22.8164 14.9609C 23.2676 15.5527 23.9121 15.8486 24.75 15.8486ZM 32.124 17L 30.498 17L 30.498 7.49023L 32.124 7.49023L 32.124 17ZM 30.3662 4.96777C 30.3662 4.7041 30.4453 4.48144 30.6035 4.2998C 30.7676 4.11816 31.0078 4.02734 31.3242 4.02734C 31.6406 4.02734 31.8809 4.11816 32.0449 4.2998C 32.209 4.48144 32.291 4.7041 32.291 4.96777C 32.291 5.23145 32.209 5.45117 32.0449 5.62695C 31.8809 5.80273 31.6406 5.89062 31.3242 5.89062C 31.0078 5.89062 30.7676 5.80273 30.6035 5.62695C 30.4453 5.45117 30.3662 5.23145 30.3662 4.96777ZM 40.2715 14.4775C 40.2715 14.0381 40.1045 13.6982 39.7705 13.458C 39.4424 13.2119 38.8652 13.001 38.0391 12.8252C 37.2187 12.6494 36.5654 12.4385 36.0791 12.1924C 35.5986 11.9463 35.2412 11.6533 35.0068 11.3135C 34.7783 10.9736 34.6641 10.5693 34.6641 10.1006C 34.6641 9.32129 34.9922 8.66211 35.6484 8.12305C 36.3105 7.58398 37.1543 7.31445 38.1797 7.31445C 39.2578 7.31445 40.1309 7.59277 40.7988 8.14941C 41.4727 8.70605 41.8096 9.41797 41.8096 10.2852L 40.1748 10.2852C 40.1748 9.83984 39.9844 9.45605 39.6035 9.13379C 39.2285 8.81152 38.7539 8.65039 38.1797 8.65039C 37.5879 8.65039 37.125 8.7793 36.791 9.03711C 36.457 9.29492 36.29 9.63184 36.29 10.0479C 36.29 10.4404 36.4453 10.7363 36.7559 10.9355C 37.0664 11.1348 37.626 11.3252 38.4346 11.5068C 39.249 11.6885 39.9082 11.9053 40.4121 12.1572C 40.916 12.4092 41.2881 12.7139 41.5283 13.0713C 41.7744 13.4229 41.8975 13.8535 41.8975 14.3633C 41.8975 15.2129 41.5576 15.8955 40.8779 16.4111C 40.1982 16.9209 39.3164 17.1758 38.2324 17.1758C 37.4707 17.1758 36.7969 17.041 36.2109 16.7715C 35.625 16.502 35.165 16.127 34.8311 15.6465C 34.5029 15.1602 34.3389 14.6357 34.3389 14.0732L 35.9648 14.0732C 35.9941 14.6182 36.2109 15.0518 36.6152 15.374C 37.0254 15.6904 37.5645 15.8486 38.2324 15.8486C 38.8477 15.8486 39.3398 15.7256 39.709 15.4795C 40.084 15.2275 40.2715 14.8936 40.2715 14.4775ZM 45.7822 17L 44.1562 17L 44.1562 7.49023L 45.7822 7.49023L 45.7822 17ZM 44.0244 4.96777C 44.0244 4.7041 44.1035 4.48144 44.2617 4.2998C 44.4258 4.11816 44.666 4.02734 44.9824 4.02734C 45.2988 4.02734 45.5391 4.11816 45.7031 4.2998C 45.8672 4.48144 45.9492 4.7041 45.9492 4.96777C 45.9492 5.23145 45.8672 5.45117 45.7031 5.62695C 45.5391 5.80273 45.2988 5.89062 44.9824 5.89062C 44.666 5.89062 44.4258 5.80273 44.2617 5.62695C 44.1035 5.45117 44.0244 5.23145 44.0244 4.96777ZM 47.9619 12.1572C 47.9619 11.2256 48.1436 10.3877 48.5068 9.64355C 48.876 8.89941 49.3857 8.3252 50.0361 7.9209C 50.6924 7.5166 51.4395 7.31445 52.2773 7.31445C 53.5723 7.31445 54.6182 7.7627 55.415 8.65918C 56.2178 9.55566 56.6191 10.748 56.6191 12.2363L 56.6191 12.3506C 56.6191 13.2764 56.4404 14.1084 56.083 14.8467C 55.7314 15.5791 55.2246 16.1504 54.5625 16.5605C 53.9062 16.9707 53.1504 17.1758 52.2949 17.1758C 51.0059 17.1758 49.96 16.7275 49.1572 15.8311C 48.3604 14.9346 47.9619 13.748 47.9619 12.2715L 47.9619 12.1572ZM 49.5967 12.3506C 49.5967 13.4053 49.8398 14.252 50.3262 14.8906C 50.8184 15.5293 51.4746 15.8486 52.2949 15.8486C 53.1211 15.8486 53.7773 15.5264 54.2637 14.8818C 54.75 14.2314 54.9932 13.3232 54.9932 12.1572C 54.9932 11.1143 54.7441 10.2705 54.2461 9.62598C 53.7539 8.97559 53.0977 8.65039 52.2773 8.65039C 51.4746 8.65039 50.8271 8.96973 50.335 9.6084C 49.8428 10.2471 49.5967 11.1611 49.5967 12.3506ZM 60.1963 7.49023L 60.249 8.68555C 60.9756 7.77148 61.9248 7.31445 63.0967 7.31445C 65.1064 7.31445 66.1201 8.44824 66.1377 10.7158L 66.1377 17L 64.5117 17L 64.5117 10.707C 64.5059 10.0215 64.3477 9.51465 64.0371 9.18652C 63.7324 8.8584 63.2549 8.69434 62.6045 8.69434C 62.0771 8.69434 61.6143 8.83496 61.2158 9.11621C 60.8174 9.39746 60.5068 9.7666 60.2842 10.2236L 60.2842 17L 58.6582 17L 58.6582 7.49023L 60.1963 7.49023ZM 75.2607 5.1875L 75.2607 7.49023L 77.0361 7.49023L 77.0361 8.74707L 75.2607 8.74707L 75.2607 14.6445C 75.2607 15.0254 75.3398 15.3125 75.498 15.5059C 75.6562 15.6934 75.9258 15.7871 76.3066 15.7871C 76.4941 15.7871 76.752 15.752 77.0801 15.6816L 77.0801 17C 76.6523 17.1172 76.2363 17.1758 75.832 17.1758C 75.1055 17.1758 74.5576 16.9561 74.1885 16.5166C 73.8193 16.0771 73.6348 15.4531 73.6348 14.6445L 73.6348 8.74707L 71.9033 8.74707L 71.9033 7.49023L 73.6348 7.49023L 73.6348 5.1875L 75.2607 5.1875ZM 83.54 8.94922C 83.2939 8.9082 83.0273 8.8877 82.7402 8.8877C 81.6738 8.8877 80.9502 9.3418 80.5693 10.25L 80.5693 17L 78.9434 17L 78.9434 7.49023L 80.5254 7.49023L 80.5518 8.58887C 81.085 7.73926 81.8408 7.31445 82.8193 7.31445C 83.1357 7.31445 83.376 7.35547 83.54 7.4375L 83.54 8.94922ZM 88.8135 17.1758C 87.5244 17.1758 86.4756 16.7539 85.667 15.9102C 84.8584 15.0605 84.4541 13.9268 84.4541 12.5088L 84.4541 12.21C 84.4541 11.2666 84.6328 10.4258 84.9902 9.6875C 85.3535 8.94336 85.8574 8.36328 86.502 7.94727C 87.1523 7.52539 87.8555 7.31445 88.6113 7.31445C 89.8477 7.31445 90.8086 7.72168 91.4941 8.53613C 92.1797 9.35059 92.5225 10.5166 92.5225 12.0342L 92.5225 12.7109L 86.0801 12.7109C 86.1035 13.6484 86.376 14.4072 86.8975 14.9873C 87.4248 15.5615 88.0928 15.8486 88.9014 15.8486C 89.4756 15.8486 89.9619 15.7314 90.3604 15.4971C 90.7588 15.2627 91.1074 14.9521 91.4062 14.5654L 92.3994 15.3389C 91.6025 16.5635 90.4072 17.1758 88.8135 17.1758ZM 88.6113 8.65039C 87.9551 8.65039 87.4043 8.89062 86.959 9.37109C 86.5137 9.8457 86.2383 10.5137 86.1328 11.375L 90.8965 11.375L 90.8965 11.252C 90.8496 10.4258 90.627 9.78711 90.2285 9.33594C 89.8301 8.87891 89.291 8.65039 88.6113 8.65039ZM 98.3584 17.1758C 97.0693 17.1758 96.0205 16.7539 95.2119 15.9102C 94.4033 15.0605 93.999 13.9268 93.999 12.5088L 93.999 12.21C 93.999 11.2666 94.1777 10.4258 94.5352 9.6875C 94.8984 8.94336 95.4023 8.36328 96.0469 7.94727C 96.6973 7.52539 97.4004 7.31445 98.1562 7.31445C 99.3926 7.31445 100.354 7.72168 101.039 8.53613C 101.725 9.35059 102.067 10.5166 102.067 12.0342L 102.067 12.7109L 95.625 12.7109C 95.6484 13.6484 95.9209 14.4072 96.4424 14.9873C 96.9697 15.5615 97.6377 15.8486 98.4463 15.8486C 99.0205 15.8486 99.5068 15.7314 99.9053 15.4971C 100.304 15.2627 100.652 14.9521 100.951 14.5654L 101.944 15.3389C 101.147 16.5635 99.9521 17.1758 98.3584 17.1758ZM 98.1562 8.65039C 97.5 8.65039 96.9492 8.89062 96.5039 9.37109C 96.0586 9.8457 95.7832 10.5137 95.6777 11.375L 100.441 11.375L 100.441 11.252C 100.395 10.4258 100.172 9.78711 99.7734 9.33594C 99.375 8.87891 98.8359 8.65039 98.1562 8.65039Z"/>
<path id="path18_fill" d="M 5.82715 8.94922C 5.58105 8.9082 5.31445 8.8877 5.02734 8.8877C 3.96094 8.8877 3.2373 9.3418 2.85645 10.25L 2.85645 17L 1.23047 17L 1.23047 7.49023L 2.8125 7.49023L 2.83887 8.58887C 3.37207 7.73926 4.12793 7.31445 5.10645 7.31445C 5.42285 7.31445 5.66309 7.35547 5.82715 7.4375L 5.82715 8.94922ZM 11.1006 17.1758C 9.81152 17.1758 8.7627 16.7539 7.9541 15.9102C 7.14551 15.0605 6.74121 13.9268 6.74121 12.5088L 6.74121 12.21C 6.74121 11.2666 6.91992 10.4258 7.27734 9.6875C 7.64062 8.94336 8.14453 8.36328 8.78906 7.94727C 9.43945 7.52539 10.1426 7.31445 10.8984 7.31445C 12.1348 7.31445 13.0957 7.72168 13.7812 8.53613C 14.4668 9.35059 14.8096 10.5166 14.8096 12.0342L 14.8096 12.7109L 8.36719 12.7109C 8.39062 13.6484 8.66309 14.4072 9.18457 14.9873C 9.71191 15.5615 10.3799 15.8486 11.1885 15.8486C 11.7627 15.8486 12.249 15.7314 12.6475 15.4971C 13.0459 15.2627 13.3945 14.9521 13.6934 14.5654L 14.6865 15.3389C 13.8896 16.5635 12.6943 17.1758 11.1006 17.1758ZM 10.8984 8.65039C 10.2422 8.65039 9.69141 8.89062 9.24609 9.37109C 8.80078 9.8457 8.52539 10.5137 8.41992 11.375L 13.1836 11.375L 13.1836 11.252C 13.1367 10.4258 12.9141 9.78711 12.5156 9.33594C 12.1172 8.87891 11.5781 8.65039 10.8984 8.65039ZM 16.3125 12.166C 16.3125 10.6836 16.6553 9.50586 17.3408 8.63281C 18.0264 7.75391 18.9346 7.31445 20.0654 7.31445C 21.2256 7.31445 22.1309 7.72461 22.7812 8.54492L 22.8604 7.49023L 24.3457 7.49023L 24.3457 16.7715C 24.3457 18.002 23.9795 18.9717 23.2471 19.6807C 22.5205 20.3896 21.542 20.7441 20.3115 20.7441C 19.626 20.7441 18.9551 20.5977 18.2988 20.3047C 17.6426 20.0117 17.1416 19.6104 16.7959 19.1006L 17.6396 18.125C 18.3369 18.9863 19.1895 19.417 20.1973 19.417C 20.9883 19.417 21.6035 19.1943 22.043 18.749C 22.4883 18.3037 22.7109 17.6768 22.7109 16.8682L 22.7109 16.0508C 22.0605 16.8008 21.1729 17.1758 20.0479 17.1758C 18.9346 17.1758 18.0322 16.7275 17.3408 15.8311C 16.6553 14.9346 16.3125 13.7129 16.3125 12.166ZM 17.9473 12.3506C 17.9473 13.4229 18.167 14.2666 18.6064 14.8818C 19.0459 15.4912 19.6611 15.7959 20.4521 15.7959C 21.4775 15.7959 22.2305 15.3301 22.7109 14.3984L 22.7109 10.0566C 22.2129 9.14844 21.4658 8.69434 20.4697 8.69434C 19.6787 8.69434 19.0605 9.00195 18.6152 9.61719C 18.1699 10.2324 17.9473 11.1436 17.9473 12.3506ZM 31.4033 8.94922C 31.1572 8.9082 30.8906 8.8877 30.6035 8.8877C 29.5371 8.8877 28.8135 9.3418 28.4326 10.25L 28.4326 17L 26.8066 17L 26.8066 7.49023L 28.3887 7.49023L 28.415 8.58887C 28.9482 7.73926 29.7041 7.31445 30.6826 7.31445C 30.999 7.31445 31.2393 7.35547 31.4033 7.4375L 31.4033 8.94922ZM 36.6768 17.1758C 35.3877 17.1758 34.3389 16.7539 33.5303 15.9102C 32.7217 15.0605 32.3174 13.9268 32.3174 12.5088L 32.3174 12.21C 32.3174 11.2666 32.4961 10.4258 32.8535 9.6875C 33.2168 8.94336 33.7207 8.36328 34.3652 7.94727C 35.0156 7.52539 35.7188 7.31445 36.4746 7.31445C 37.7109 7.31445 38.6719 7.72168 39.3574 8.53613C 40.043 9.35059 40.3857 10.5166 40.3857 12.0342L 40.3857 12.7109L 33.9434 12.7109C 33.9668 13.6484 34.2393 14.4072 34.7607 14.9873C 35.2881 15.5615 35.9561 15.8486 36.7646 15.8486C 37.3389 15.8486 37.8252 15.7314 38.2236 15.4971C 38.6221 15.2627 38.9707 14.9521 39.2695 14.5654L 40.2627 15.3389C 39.4658 16.5635 38.2705 17.1758 36.6768 17.1758ZM 36.4746 8.65039C 35.8184 8.65039 35.2676 8.89062 34.8223 9.37109C 34.377 9.8457 34.1016 10.5137 33.9961 11.375L 38.7598 11.375L 38.7598 11.252C 38.7129 10.4258 38.4902 9.78711 38.0918 9.33594C 37.6934 8.87891 37.1543 8.65039 36.4746 8.65039ZM 47.8125 14.4775C 47.8125 14.0381 47.6455 13.6982 47.3115 13.458C 46.9834 13.2119 46.4062 13.001 45.5801 12.8252C 44.7598 12.6494 44.1064 12.4385 43.6201 12.1924C 43.1396 11.9463 42.7822 11.6533 42.5479 11.3135C 42.3193 10.9736 42.2051 10.5693 42.2051 10.1006C 42.2051 9.32129 42.5332 8.66211 43.1895 8.12305C 43.8516 7.58398 44.6953 7.31445 45.7207 7.31445C 46.7988 7.31445 47.6719 7.59277 48.3398 8.14941C 49.0137 8.70605 49.3506 9.41797 49.3506 10.2852L 47.7158 10.2852C 47.7158 9.83984 47.5254 9.45605 47.1445 9.13379C 46.7695 8.81152 46.2949 8.65039 45.7207 8.65039C 45.1289 8.65039 44.666 8.7793 44.332 9.03711C 43.998 9.29492 43.8311 9.63184 43.8311 10.0479C 43.8311 10.4404 43.9863 10.7363 44.2969 10.9355C 44.6074 11.1348 45.167 11.3252 45.9756 11.5068C 46.79 11.6885 47.4492 11.9053 47.9531 12.1572C 48.457 12.4092 48.8291 12.7139 49.0693 13.0713C 49.3154 13.4229 49.4385 13.8535 49.4385 14.3633C 49.4385 15.2129 49.0986 15.8955 48.4189 16.4111C 47.7393 16.9209 46.8574 17.1758 45.7734 17.1758C 45.0117 17.1758 44.3379 17.041 43.752 16.7715C 43.166 16.502 42.7061 16.127 42.3721 15.6465C 42.0439 15.1602 41.8799 14.6357 41.8799 14.0732L 43.5059 14.0732C 43.5352 14.6182 43.752 15.0518 44.1562 15.374C 44.5664 15.6904 45.1055 15.8486 45.7734 15.8486C 46.3887 15.8486 46.8809 15.7256 47.25 15.4795C 47.625 15.2275 47.8125 14.8936 47.8125 14.4775ZM 57.0938 14.4775C 57.0938 14.0381 56.9268 13.6982 56.5928 13.458C 56.2646 13.2119 55.6875 13.001 54.8613 12.8252C 54.041 12.6494 53.3877 12.4385 52.9014 12.1924C 52.4209 11.9463 52.0635 11.6533 51.8291 11.3135C 51.6006 10.9736 51.4863 10.5693 51.4863 10.1006C 51.4863 9.32129 51.8145 8.66211 52.4707 8.12305C 53.1328 7.58398 53.9766 7.31445 55.002 7.31445C 56.0801 7.31445 56.9531 7.59277 57.6211 8.14941C 58.2949 8.70605 58.6318 9.41797 58.6318 10.2852L 56.9971 10.2852C 56.9971 9.83984 56.8066 9.45605 56.4258 9.13379C 56.0508 8.81152 55.5762 8.65039 55.002 8.65039C 54.4102 8.65039 53.9473 8.7793 53.6133 9.03711C 53.2793 9.29492 53.1123 9.63184 53.1123 10.0479C 53.1123 10.4404 53.2676 10.7363 53.5781 10.9355C 53.8887 11.1348 54.4482 11.3252 55.2568 11.5068C 56.0713 11.6885 56.7305 11.9053 57.2344 12.1572C 57.7383 12.4092 58.1104 12.7139 58.3506 13.0713C 58.5967 13.4229 58.7197 13.8535 58.7197 14.3633C 58.7197 15.2129 58.3799 15.8955 57.7002 16.4111C 57.0205 16.9209 56.1387 17.1758 55.0547 17.1758C 54.293 17.1758 53.6191 17.041 53.0332 16.7715C 52.4473 16.502 51.9873 16.127 51.6533 15.6465C 51.3252 15.1602 51.1611 14.6357 51.1611 14.0732L 52.7871 14.0732C 52.8164 14.6182 53.0332 15.0518 53.4375 15.374C 53.8477 15.6904 54.3867 15.8486 55.0547 15.8486C 55.6699 15.8486 56.1621 15.7256 56.5312 15.4795C 56.9063 15.2275 57.0938 14.8936 57.0938 14.4775ZM 62.6045 17L 60.9785 17L 60.9785 7.49023L 62.6045 7.49023L 62.6045 17ZM 60.8467 4.96777C 60.8467 4.7041 60.9258 4.48144 61.084 4.2998C 61.248 4.11816 61.4883 4.02734 61.8047 4.02734C 62.1211 4.02734 62.3613 4.11816 62.5254 4.2998C 62.6895 4.48144 62.7715 4.7041 62.7715 4.96777C 62.7715 5.23145 62.6895 5.45117 62.5254 5.62695C 62.3613 5.80273 62.1211 5.89062 61.8047 5.89062C 61.4883 5.89062 61.248 5.80273 61.084 5.62695C 60.9258 5.45117 60.8467 5.23145 60.8467 4.96777ZM 64.7842 12.1572C 64.7842 11.2256 64.9658 10.3877 65.3291 9.64355C 65.6982 8.89941 66.208 8.3252 66.8584 7.9209C 67.5146 7.5166 68.2617 7.31445 69.0996 7.31445C 70.3945 7.31445 71.4404 7.7627 72.2373 8.65918C 73.04 9.55566 73.4414 10.748 73.4414 12.2363L 73.4414 12.3506C 73.4414 13.2764 73.2627 14.1084 72.9053 14.8467C 72.5537 15.5791 72.0469 16.1504 71.3848 16.5605C 70.7285 16.9707 69.9727 17.1758 69.1172 17.1758C 67.8281 17.1758 66.7822 16.7275 65.9795 15.8311C 65.1826 14.9346 64.7842 13.748 64.7842 12.2715L 64.7842 12.1572ZM 66.4189 12.3506C 66.4189 13.4053 66.6621 14.252 67.1484 14.8906C 67.6406 15.5293 68.2969 15.8486 69.1172 15.8486C 69.9434 15.8486 70.5996 15.5264 71.0859 14.8818C 71.5723 14.2314 71.8154 13.3232 71.8154 12.1572C 71.8154 11.1143 71.5664 10.2705 71.0684 9.62598C 70.5762 8.97559 69.9199 8.65039 69.0996 8.65039C 68.2969 8.65039 67.6494 8.96973 67.1572 9.6084C 66.665 10.2471 66.4189 11.1611 66.4189 12.3506ZM 77.0186 7.49023L 77.0713 8.68555C 77.7979 7.77148 78.7471 7.31445 79.9189 7.31445C 81.9287 7.31445 82.9424 8.44824 82.96 10.7158L 82.96 17L 81.334 17L 81.334 10.707C 81.3281 10.0215 81.1699 9.51465 80.8594 9.18652C 80.5547 8.8584 80.0771 8.69434 79.4268 8.69434C 78.8994 8.69434 78.4365 8.83496 78.0381 9.11621C 77.6396 9.39746 77.3291 9.7666 77.1064 10.2236L 77.1064 17L 75.4805 17L 75.4805 7.49023L 77.0186 7.49023Z"/>
<path id="path19_fill" d="M 9.26367 12.3506C 9.26367 13.7979 8.93262 14.9639 8.27051 15.8486C 7.6084 16.7334 6.71191 17.1758 5.58105 17.1758C 4.42676 17.1758 3.51855 16.8096 2.85645 16.0771L 2.85645 20.6562L 1.23047 20.6562L 1.23047 7.49023L 2.71582 7.49023L 2.79492 8.54492C 3.45703 7.72461 4.37695 7.31445 5.55469 7.31445C 6.69727 7.31445 7.59961 7.74512 8.26172 8.60645C 8.92969 9.46777 9.26367 10.666 9.26367 12.2012L 9.26367 12.3506ZM 7.6377 12.166C 7.6377 11.0938 7.40918 10.2471 6.95215 9.62598C 6.49512 9.00488 5.86816 8.69434 5.07129 8.69434C 4.08691 8.69434 3.34863 9.13086 2.85645 10.0039L 2.85645 14.5479C 3.34277 15.415 4.08691 15.8486 5.08887 15.8486C 5.86816 15.8486 6.48633 15.541 6.94336 14.9258C 7.40625 14.3047 7.6377 13.3848 7.6377 12.166ZM 15.9346 8.94922C 15.6885 8.9082 15.4219 8.8877 15.1348 8.8877C 14.0684 8.8877 13.3447 9.3418 12.9639 10.25L 12.9639 17L 11.3379 17L 11.3379 7.49023L 12.9199 7.49023L 12.9463 8.58887C 13.4795 7.73926 14.2354 7.31445 15.2139 7.31445C 15.5303 7.31445 15.7705 7.35547 15.9346 7.4375L 15.9346 8.94922ZM 21.208 17.1758C 19.9189 17.1758 18.8701 16.7539 18.0615 15.9102C 17.2529 15.0605 16.8486 13.9268 16.8486 12.5088L 16.8486 12.21C 16.8486 11.2666 17.0273 10.4258 17.3848 9.6875C 17.748 8.94336 18.252 8.36328 18.8965 7.94727C 19.5469 7.52539 20.25 7.31445 21.0059 7.31445C 22.2422 7.31445 23.2031 7.72168 23.8887 8.53613C 24.5742 9.35059 24.917 10.5166 24.917 12.0342L 24.917 12.7109L 18.4746 12.7109C 18.498 13.6484 18.7705 14.4072 19.292 14.9873C 19.8193 15.5615 20.4873 15.8486 21.2959 15.8486C 21.8701 15.8486 22.3564 15.7314 22.7549 15.4971C 23.1533 15.2627 23.502 14.9521 23.8008 14.5654L 24.7939 15.3389C 23.9971 16.5635 22.8018 17.1758 21.208 17.1758ZM 21.0059 8.65039C 20.3496 8.65039 19.7988 8.89062 19.3535 9.37109C 18.9082 9.8457 18.6328 10.5137 18.5273 11.375L 23.291 11.375L 23.291 11.252C 23.2441 10.4258 23.0215 9.78711 22.623 9.33594C 22.2246 8.87891 21.6855 8.65039 21.0059 8.65039ZM 26.4111 12.166C 26.4111 10.707 26.7568 9.53516 27.4482 8.65039C 28.1396 7.75977 29.0449 7.31445 30.1641 7.31445C 31.2773 7.31445 32.1592 7.69531 32.8096 8.45703L 32.8096 3.5L 34.4355 3.5L 34.4355 17L 32.9414 17L 32.8623 15.9805C 32.2119 16.7773 31.3066 17.1758 30.1465 17.1758C 29.0449 17.1758 28.1455 16.7246 27.4482 15.8223C 26.7568 14.9199 26.4111 13.7422 26.4111 12.2891L 26.4111 12.166ZM 28.0371 12.3506C 28.0371 13.4287 28.2598 14.2725 28.7051 14.8818C 29.1504 15.4912 29.7656 15.7959 30.5508 15.7959C 31.582 15.7959 32.335 15.333 32.8096 14.4072L 32.8096 10.0391C 32.3232 9.14258 31.5762 8.69434 30.5684 8.69434C 29.7715 8.69434 29.1504 9.00195 28.7051 9.61719C 28.2598 10.2324 28.0371 11.1436 28.0371 12.3506ZM 38.7334 17L 37.1074 17L 37.1074 7.49023L 38.7334 7.49023L 38.7334 17ZM 36.9756 4.96777C 36.9756 4.7041 37.0547 4.48144 37.2129 4.2998C 37.377 4.11816 37.6172 4.02734 37.9336 4.02734C 38.25 4.02734 38.4902 4.11816 38.6543 4.2998C 38.8184 4.48144 38.9004 4.7041 38.9004 4.96777C 38.9004 5.23145 38.8184 5.45117 38.6543 5.62695C 38.4902 5.80273 38.25 5.89062 37.9336 5.89062C 37.6172 5.89062 37.377 5.80273 37.2129 5.62695C 37.0547 5.45117 36.9756 5.23145 36.9756 4.96777ZM 45.1582 15.8486C 45.7383 15.8486 46.2451 15.6729 46.6787 15.3213C 47.1123 14.9697 47.3525 14.5303 47.3994 14.0029L 48.9375 14.0029C 48.9082 14.5479 48.7207 15.0664 48.375 15.5586C 48.0293 16.0508 47.5664 16.4434 46.9863 16.7363C 46.4121 17.0293 45.8027 17.1758 45.1582 17.1758C 43.8633 17.1758 42.832 16.7451 42.0645 15.8838C 41.3027 15.0166 40.9219 13.833 40.9219 12.333L 40.9219 12.0605C 40.9219 11.1348 41.0918 10.3115 41.4316 9.59082C 41.7715 8.87012 42.2578 8.31055 42.8906 7.91211C 43.5293 7.51367 44.2822 7.31445 45.1494 7.31445C 46.2158 7.31445 47.1006 7.63379 47.8037 8.27246C 48.5127 8.91113 48.8906 9.74023 48.9375 10.7598L 47.3994 10.7598C 47.3525 10.1445 47.1182 9.64063 46.6963 9.24805C 46.2803 8.84961 45.7646 8.65039 45.1494 8.65039C 44.3232 8.65039 43.6816 8.94922 43.2246 9.54688C 42.7734 10.1387 42.5479 10.9971 42.5479 12.1221L 42.5479 12.4297C 42.5479 13.5254 42.7734 14.3691 43.2246 14.9609C 43.6758 15.5527 44.3203 15.8486 45.1582 15.8486ZM 52.9717 5.1875L 52.9717 7.49023L 54.7471 7.49023L 54.7471 8.74707L 52.9717 8.74707L 52.9717 14.6445C 52.9717 15.0254 53.0508 15.3125 53.209 15.5059C 53.3672 15.6934 53.6367 15.7871 54.0176 15.7871C 54.2051 15.7871 54.4629 15.752 54.791 15.6816L 54.791 17C 54.3633 17.1172 53.9473 17.1758 53.543 17.1758C 52.8164 17.1758 52.2686 16.9561 51.8994 16.5166C 51.5303 16.0771 51.3457 15.4531 51.3457 14.6445L 51.3457 8.74707L 49.6143 8.74707L 49.6143 7.49023L 51.3457 7.49023L 51.3457 5.1875L 52.9717 5.1875ZM 58.4209 17L 56.7949 17L 56.7949 7.49023L 58.4209 7.49023L 58.4209 17ZM 56.6631 4.96777C 56.6631 4.7041 56.7422 4.48144 56.9004 4.2998C 57.0645 4.11816 57.3047 4.02734 57.6211 4.02734C 57.9375 4.02734 58.1777 4.11816 58.3418 4.2998C 58.5059 4.48144 58.5879 4.7041 58.5879 4.96777C 58.5879 5.23145 58.5059 5.45117 58.3418 5.62695C 58.1777 5.80273 57.9375 5.89062 57.6211 5.89062C 57.3047 5.89062 57.0645 5.80273 56.9004 5.62695C 56.7422 5.45117 56.6631 5.23145 56.6631 4.96777ZM 60.6006 12.1572C 60.6006 11.2256 60.7822 10.3877 61.1455 9.64355C 61.5146 8.89941 62.0244 8.3252 62.6748 7.9209C 63.3311 7.5166 64.0781 7.31445 64.916 7.31445C 66.2109 7.31445 67.2568 7.7627 68.0537 8.65918C 68.8564 9.55566 69.2578 10.748 69.2578 12.2363L 69.2578 12.3506C 69.2578 13.2764 69.0791 14.1084 68.7217 14.8467C 68.3701 15.5791 67.8633 16.1504 67.2012 16.5605C 66.5449 16.9707 65.7891 17.1758 64.9336 17.1758C 63.6445 17.1758 62.5986 16.7275 61.7959 15.8311C 60.999 14.9346 60.6006 13.748 60.6006 12.2715L 60.6006 12.1572ZM 62.2354 12.3506C 62.2354 13.4053 62.4785 14.252 62.9648 14.8906C 63.457 15.5293 64.1133 15.8486 64.9336 15.8486C 65.7598 15.8486 66.416 15.5264 66.9023 14.8818C 67.3887 14.2314 67.6318 13.3232 67.6318 12.1572C 67.6318 11.1143 67.3828 10.2705 66.8848 9.62598C 66.3926 8.97559 65.7363 8.65039 64.916 8.65039C 64.1133 8.65039 63.4658 8.96973 62.9736 9.6084C 62.4814 10.2471 62.2354 11.1611 62.2354 12.3506ZM 72.835 7.49023L 72.8877 8.68555C 73.6143 7.77148 74.5635 7.31445 75.7354 7.31445C 77.7451 7.31445 78.7588 8.44824 78.7764 10.7158L 78.7764 17L 77.1504 17L 77.1504 10.707C 77.1445 10.0215 76.9863 9.51465 76.6758 9.18652C 76.3711 8.8584 75.8936 8.69434 75.2432 8.69434C 74.7158 8.69434 74.2529 8.83496 73.8545 9.11621C 73.4561 9.39746 73.1455 9.7666 72.9229 10.2236L 72.9229 17L 71.2969 17L 71.2969 7.49023L 72.835 7.49023ZM 86.7656 14.4775C 86.7656 14.0381 86.5986 13.6982 86.2646 13.458C 85.9365 13.2119 85.3594 13.001 84.5332 12.8252C 83.7129 12.6494 83.0596 12.4385 82.5732 12.1924C 82.0928 11.9463 81.7354 11.6533 81.501 11.3135C 81.2725 10.9736 81.1582 10.5693 81.1582 10.1006C 81.1582 9.32129 81.4863 8.66211 82.1426 8.12305C 82.8047 7.58398 83.6484 7.31445 84.6738 7.31445C 85.752 7.31445 86.625 7.59277 87.293 8.14941C 87.9668 8.70605 88.3037 9.41797 88.3037 10.2852L 86.6689 10.2852C 86.6689 9.83984 86.4785 9.45605 86.0977 9.13379C 85.7227 8.81152 85.248 8.65039 84.6738 8.65039C 84.082 8.65039 83.6191 8.7793 83.2852 9.03711C 82.9512 9.29492 82.7842 9.63184 82.7842 10.0479C 82.7842 10.4404 82.9395 10.7363 83.25 10.9355C 83.5605 11.1348 84.1201 11.3252 84.9287 11.5068C 85.7432 11.6885 86.4023 11.9053 86.9062 12.1572C 87.4102 12.4092 87.7822 12.7139 88.0225 13.0713C 88.2686 13.4229 88.3916 13.8535 88.3916 14.3633C 88.3916 15.2129 88.0518 15.8955 87.3721 16.4111C 86.6924 16.9209 85.8105 17.1758 84.7266 17.1758C 83.9648 17.1758 83.291 17.041 82.7051 16.7715C 82.1191 16.502 81.6592 16.127 81.3252 15.6465C 80.9971 15.1602 80.833 14.6357 80.833 14.0732L 82.459 14.0732C 82.4883 14.6182 82.7051 15.0518 83.1094 15.374C 83.5195 15.6904 84.0586 15.8486 84.7266 15.8486C 85.3418 15.8486 85.834 15.7256 86.2031 15.4795C 86.5781 15.2275 86.7656 14.8936 86.7656 14.4775Z"/>
<path id="path20_fill" d="M 6.17871 11.8232L 3.17285 11.8232L 3.17285 17L 1.47656 17L 1.47656 4.20312L 5.71289 4.20312C 7.1543 4.20312 8.26172 4.53125 9.03516 5.1875C 9.81445 5.84375 10.2041 6.79883 10.2041 8.05273C 10.2041 8.84961 9.98731 9.54395 9.55371 10.1357C 9.12598 10.7275 8.52832 11.1699 7.76074 11.4629L 10.7666 16.8945L 10.7666 17L 8.95605 17L 6.17871 11.8232ZM 3.17285 10.4434L 5.76562 10.4434C 6.60352 10.4434 7.26855 10.2266 7.76074 9.79297C 8.25879 9.35938 8.50781 8.7793 8.50781 8.05273C 8.50781 7.26172 8.27051 6.65527 7.7959 6.2334C 7.32715 5.81152 6.64746 5.59766 5.75684 5.5918L 3.17285 5.5918L 3.17285 10.4434ZM 14.7568 4.20312L 18.9404 14.6445L 23.124 4.20312L 25.3125 4.20312L 25.3125 17L 23.625 17L 23.625 12.0166L 23.7832 6.6377L 19.582 17L 18.29 17L 14.0977 6.66406L 14.2646 12.0166L 14.2646 17L 12.5771 17L 12.5771 4.20312L 14.7568 4.20312ZM 32.0625 11.2959C 30.6152 10.8799 29.5605 10.3701 28.8984 9.7666C 28.2422 9.15723 27.9141 8.40723 27.9141 7.5166C 27.9141 6.50879 28.3154 5.67676 29.1182 5.02051C 29.9268 4.3584 30.9756 4.02734 32.2646 4.02734C 33.1436 4.02734 33.9258 4.19727 34.6113 4.53711C 35.3027 4.87695 35.8359 5.3457 36.2109 5.94336C 36.5918 6.54102 36.7822 7.19434 36.7822 7.90332L 35.0859 7.90332C 35.0859 7.12988 34.8398 6.52344 34.3477 6.08398C 33.8555 5.63867 33.1611 5.41602 32.2646 5.41602C 31.4326 5.41602 30.7822 5.60059 30.3135 5.96973C 29.8506 6.33301 29.6191 6.83984 29.6191 7.49023C 29.6191 8.01172 29.8389 8.4541 30.2783 8.81738C 30.7236 9.1748 31.4766 9.50293 32.5371 9.80176C 33.6035 10.1006 34.4355 10.4316 35.0332 10.7949C 35.6367 11.1523 36.082 11.5713 36.3691 12.0518C 36.6621 12.5322 36.8086 13.0977 36.8086 13.748C 36.8086 14.7852 36.4043 15.6172 35.5957 16.2441C 34.7871 16.8652 33.7061 17.1758 32.3525 17.1758C 31.4736 17.1758 30.6533 17.0088 29.8916 16.6748C 29.1299 16.335 28.541 15.8721 28.125 15.2861C 27.7148 14.7002 27.5098 14.0352 27.5098 13.291L 29.2061 13.291C 29.2061 14.0645 29.4902 14.6768 30.0586 15.1279C 30.6328 15.5732 31.3975 15.7959 32.3525 15.7959C 33.2432 15.7959 33.9258 15.6143 34.4004 15.251C 34.875 14.8877 35.1123 14.3926 35.1123 13.7656C 35.1123 13.1387 34.8926 12.6553 34.4531 12.3154C 34.0137 11.9697 33.2168 11.6299 32.0625 11.2959ZM 46.2129 11.085L 40.667 11.085L 40.667 15.6201L 47.1094 15.6201L 47.1094 17L 38.9795 17L 38.9795 4.20312L 47.0215 4.20312L 47.0215 5.5918L 40.667 5.5918L 40.667 9.70508L 46.2129 9.70508L 46.2129 11.085Z"/>
<path id="path21_fill" d="M 3.66504 4.20312L 7.84863 14.6445L 12.0322 4.20312L 14.2207 4.20312L 14.2207 17L 12.5332 17L 12.5332 12.0166L 12.6914 6.6377L 8.49023 17L 7.19824 17L 3.00586 6.66406L 3.17285 12.0166L 3.17285 17L 1.48535 17L 1.48535 4.20312L 3.66504 4.20312ZM 20.9707 11.2959C 19.5234 10.8799 18.4688 10.3701 17.8066 9.7666C 17.1504 9.15723 16.8223 8.40723 16.8223 7.5166C 16.8223 6.50879 17.2236 5.67676 18.0264 5.02051C 18.835 4.3584 19.8838 4.02734 21.1729 4.02734C 22.0518 4.02734 22.834 4.19727 23.5195 4.53711C 24.2109 4.87695 24.7441 5.3457 25.1191 5.94336C 25.5 6.54102 25.6904 7.19434 25.6904 7.90332L 23.9941 7.90332C 23.9941 7.12988 23.748 6.52344 23.2559 6.08398C 22.7637 5.63867 22.0693 5.41602 21.1729 5.41602C 20.3408 5.41602 19.6904 5.60059 19.2217 5.96973C 18.7588 6.33301 18.5273 6.83984 18.5273 7.49023C 18.5273 8.01172 18.7471 8.4541 19.1865 8.81738C 19.6318 9.1748 20.3848 9.50293 21.4453 9.80176C 22.5117 10.1006 23.3438 10.4316 23.9414 10.7949C 24.5449 11.1523 24.9902 11.5713 25.2773 12.0518C 25.5703 12.5322 25.7168 13.0977 25.7168 13.748C 25.7168 14.7852 25.3125 15.6172 24.5039 16.2441C 23.6953 16.8652 22.6143 17.1758 21.2607 17.1758C 20.3818 17.1758 19.5615 17.0088 18.7998 16.6748C 18.0381 16.335 17.4492 15.8721 17.0332 15.2861C 16.623 14.7002 16.418 14.0352 16.418 13.291L 18.1143 13.291C 18.1143 14.0645 18.3984 14.6768 18.9668 15.1279C 19.541 15.5732 20.3057 15.7959 21.2607 15.7959C 22.1514 15.7959 22.834 15.6143 23.3086 15.251C 23.7832 14.8877 24.0205 14.3926 24.0205 13.7656C 24.0205 13.1387 23.8008 12.6553 23.3613 12.3154C 22.9219 11.9697 22.125 11.6299 20.9707 11.2959ZM 35.1211 11.085L 29.5752 11.085L 29.5752 15.6201L 36.0176 15.6201L 36.0176 17L 27.8877 17L 27.8877 4.20312L 35.9297 4.20312L 35.9297 5.5918L 29.5752 5.5918L 29.5752 9.70508L 35.1211 9.70508L 35.1211 11.085Z"/>
<path id="path22_fill" d="M 8.55176 13.6602L 3.19043 13.6602L 1.98633 17L 0.246094 17L 5.13281 4.20312L 6.60938 4.20312L 11.5049 17L 9.77344 17L 8.55176 13.6602ZM 3.7002 12.2715L 8.05078 12.2715L 5.87109 6.28613L 3.7002 12.2715ZM 22.0781 4.20312L 22.0781 12.9043C 22.0723 14.1113 21.6914 15.0986 20.9355 15.8662C 20.1855 16.6338 19.166 17.0645 17.877 17.1582L 17.4287 17.1758C 16.0283 17.1758 14.9121 16.7979 14.0801 16.042C 13.248 15.2861 12.8262 14.2461 12.8145 12.9219L 12.8145 4.20312L 14.4844 4.20312L 14.4844 12.8691C 14.4844 13.7949 14.7393 14.5156 15.249 15.0312C 15.7588 15.541 16.4854 15.7959 17.4287 15.7959C 18.3838 15.7959 19.1133 15.541 19.6172 15.0312C 20.127 14.5215 20.3818 13.8037 20.3818 12.8779L 20.3818 4.20312L 22.0781 4.20312ZM 34.1543 12.9395C 33.9961 14.293 33.4951 15.3389 32.6514 16.0771C 31.8135 16.8096 30.6973 17.1758 29.3027 17.1758C 27.791 17.1758 26.5781 16.6338 25.6641 15.5498C 24.7559 14.4658 24.3018 13.0156 24.3018 11.1992L 24.3018 9.96875C 24.3018 8.7793 24.5127 7.7334 24.9346 6.83105C 25.3623 5.92871 25.9658 5.2373 26.7451 4.75684C 27.5244 4.27051 28.4268 4.02734 29.4521 4.02734C 30.8115 4.02734 31.9014 4.4082 32.7217 5.16992C 33.542 5.92578 34.0195 6.97461 34.1543 8.31641L 32.458 8.31641C 32.3115 7.29688 31.9922 6.55859 31.5 6.10156C 31.0137 5.64453 30.3311 5.41602 29.4521 5.41602C 28.374 5.41602 27.5273 5.81445 26.9121 6.61133C 26.3027 7.4082 25.998 8.54199 25.998 10.0127L 25.998 11.252C 25.998 12.6406 26.2881 13.7451 26.8682 14.5654C 27.4482 15.3857 28.2598 15.7959 29.3027 15.7959C 30.2402 15.7959 30.958 15.585 31.4561 15.1631C 31.96 14.7354 32.2939 13.9941 32.458 12.9395L 34.1543 12.9395Z"/>
<path id="path23_fill" d="M 9.44824 17L 1.06348 17L 1.06348 15.8311L 5.49316 10.9092C 6.14941 10.165 6.60059 9.56152 6.84668 9.09863C 7.09863 8.62988 7.22461 8.14648 7.22461 7.64844C 7.22461 6.98047 7.02246 6.43262 6.61816 6.00488C 6.21387 5.57715 5.6748 5.36328 5.00098 5.36328C 4.19238 5.36328 3.5625 5.59473 3.11133 6.05762C 2.66602 6.51465 2.44336 7.15332 2.44336 7.97363L 0.817383 7.97363C 0.817383 6.7959 1.19531 5.84375 1.95117 5.11719C 2.71289 4.39063 3.72949 4.02734 5.00098 4.02734C 6.19043 4.02734 7.13086 4.34082 7.82227 4.96777C 8.51367 5.58887 8.85938 6.41797 8.85938 7.45508C 8.85938 8.71484 8.05664 10.2148 6.45117 11.9551L 3.02344 15.6729L 9.44824 15.6729L 9.44824 17ZM 18.0352 12.7021L 19.8105 12.7021L 19.8105 14.0293L 18.0352 14.0293L 18.0352 17L 16.4004 17L 16.4004 14.0293L 10.5732 14.0293L 10.5732 13.0713L 16.3037 4.20312L 18.0352 4.20312L 18.0352 12.7021ZM 12.4189 12.7021L 16.4004 12.7021L 16.4004 6.42676L 16.207 6.77832L 12.4189 12.7021ZM 21.4805 16.1475C 21.4805 15.8662 21.5625 15.6318 21.7266 15.4443C 21.8965 15.2568 22.1484 15.1631 22.4824 15.1631C 22.8164 15.1631 23.0684 15.2568 23.2383 15.4443C 23.4141 15.6318 23.502 15.8662 23.502 16.1475C 23.502 16.417 23.4141 16.6426 23.2383 16.8242C 23.0684 17.0059 22.8164 17.0967 22.4824 17.0967C 22.1484 17.0967 21.8965 17.0059 21.7266 16.8242C 21.5625 16.6426 21.4805 16.417 21.4805 16.1475ZM 26.7715 10.584L 27.4219 4.20312L 33.9785 4.20312L 33.9785 5.70605L 28.8018 5.70605L 28.415 9.19531C 29.042 8.82617 29.7539 8.6416 30.5508 8.6416C 31.7168 8.6416 32.6426 9.02832 33.3281 9.80176C 34.0137 10.5693 34.3564 11.6094 34.3564 12.9219C 34.3564 14.2402 33.999 15.2803 33.2842 16.042C 32.5752 16.7979 31.582 17.1758 30.3047 17.1758C 29.1738 17.1758 28.251 16.8623 27.5361 16.2354C 26.8213 15.6084 26.4141 14.7412 26.3145 13.6338L 27.8525 13.6338C 27.9521 14.3662 28.2129 14.9199 28.6348 15.2949C 29.0566 15.6641 29.6133 15.8486 30.3047 15.8486C 31.0605 15.8486 31.6523 15.5908 32.0801 15.0752C 32.5137 14.5596 32.7305 13.8477 32.7305 12.9395C 32.7305 12.084 32.4961 11.3984 32.0273 10.8828C 31.5645 10.3613 30.9463 10.1006 30.1729 10.1006C 29.4639 10.1006 28.9072 10.2559 28.5029 10.5664L 28.0723 10.918L 26.7715 10.584Z"/>
<path id="path24_fill" d="M 7.44434 4.19434L 7.44434 5.57422L 7.14551 5.57422C 5.87988 5.59766 4.87207 5.97266 4.12207 6.69922C 3.37207 7.42578 2.93848 8.44824 2.82129 9.7666C 3.49512 8.99316 4.41504 8.60645 5.58105 8.60645C 6.69434 8.60645 7.58203 8.99902 8.24414 9.78418C 8.91211 10.5693 9.24609 11.583 9.24609 12.8252C 9.24609 14.1436 8.88574 15.1982 8.16504 15.9893C 7.4502 16.7803 6.48926 17.1758 5.28223 17.1758C 4.05762 17.1758 3.06445 16.707 2.30273 15.7695C 1.54102 14.8262 1.16016 13.6133 1.16016 12.1309L 1.16016 11.5068C 1.16016 9.15137 1.66113 7.35254 2.66309 6.11035C 3.6709 4.8623 5.16797 4.22363 7.1543 4.19434L 7.44434 4.19434ZM 5.30859 9.95996C 4.75195 9.95996 4.23926 10.127 3.77051 10.4609C 3.30176 10.7949 2.97656 11.2139 2.79492 11.7178L 2.79492 12.3154C 2.79492 13.3701 3.03223 14.2197 3.50684 14.8643C 3.98145 15.5088 4.57324 15.8311 5.28223 15.8311C 6.01465 15.8311 6.58887 15.5615 7.00488 15.0225C 7.42676 14.4834 7.6377 13.7773 7.6377 12.9043C 7.6377 12.0254 7.42383 11.3164 6.99609 10.7773C 6.57422 10.2324 6.01172 9.95996 5.30859 9.95996ZM 19.1953 11.542C 19.1953 13.4463 18.8701 14.8613 18.2197 15.7871C 17.5693 16.7129 16.5527 17.1758 15.1699 17.1758C 13.8047 17.1758 12.7939 16.7246 12.1377 15.8223C 11.4814 14.9141 11.1416 13.5605 11.1182 11.7617L 11.1182 9.59082C 11.1182 7.70996 11.4434 6.3125 12.0938 5.39844C 12.7441 4.48438 13.7637 4.02734 15.1523 4.02734C 16.5293 4.02734 17.543 4.46973 18.1934 5.35449C 18.8438 6.2334 19.1777 7.59277 19.1953 9.43262L 19.1953 11.542ZM 17.5693 9.31836C 17.5693 7.94141 17.376 6.93945 16.9893 6.3125C 16.6025 5.67969 15.9902 5.36328 15.1523 5.36328C 14.3203 5.36328 13.7139 5.67676 13.333 6.30371C 12.9521 6.93066 12.7559 7.89453 12.7441 9.19531L 12.7441 11.7969C 12.7441 13.1797 12.9434 14.2021 13.3418 14.8643C 13.7461 15.5205 14.3555 15.8486 15.1699 15.8486C 15.9727 15.8486 16.5674 15.5381 16.9541 14.917C 17.3467 14.2959 17.5518 13.3174 17.5693 11.9814L 17.5693 9.31836ZM 29.3027 11.542C 29.3027 13.4463 28.9775 14.8613 28.3271 15.7871C 27.6768 16.7129 26.6602 17.1758 25.2773 17.1758C 23.9121 17.1758 22.9014 16.7246 22.2451 15.8223C 21.5889 14.9141 21.249 13.5605 21.2256 11.7617L 21.2256 9.59082C 21.2256 7.70996 21.5508 6.3125 22.2012 5.39844C 22.8516 4.48438 23.8711 4.02734 25.2598 4.02734C 26.6367 4.02734 27.6504 4.46973 28.3008 5.35449C 28.9512 6.2334 29.2852 7.59277 29.3027 9.43262L 29.3027 11.542ZM 27.6768 9.31836C 27.6768 7.94141 27.4834 6.93945 27.0967 6.3125C 26.71 5.67969 26.0977 5.36328 25.2598 5.36328C 24.4277 5.36328 23.8213 5.67676 23.4404 6.30371C 23.0596 6.93066 22.8633 7.89453 22.8516 9.19531L 22.8516 11.7969C 22.8516 13.1797 23.0508 14.2021 23.4492 14.8643C 23.8535 15.5205 24.4629 15.8486 25.2773 15.8486C 26.0801 15.8486 26.6748 15.5381 27.0615 14.917C 27.4541 14.2959 27.6592 13.3174 27.6768 11.9814L 27.6768 9.31836ZM 31.5879 16.1475C 31.5879 15.8662 31.6699 15.6318 31.834 15.4443C 32.0039 15.2568 32.2559 15.1631 32.5898 15.1631C 32.9238 15.1631 33.1758 15.2568 33.3457 15.4443C 33.5215 15.6318 33.6094 15.8662 33.6094 16.1475C 33.6094 16.417 33.5215 16.6426 33.3457 16.8242C 33.1758 17.0059 32.9238 17.0967 32.5898 17.0967C 32.2559 17.0967 32.0039 17.0059 31.834 16.8242C 31.6699 16.6426 31.5879 16.417 31.5879 16.1475ZM 44.5166 17L 36.1318 17L 36.1318 15.8311L 40.5615 10.9092C 41.2178 10.165 41.6689 9.56152 41.915 9.09863C 42.167 8.62988 42.293 8.14648 42.293 7.64844C 42.293 6.98047 42.0908 6.43262 41.6865 6.00488C 41.2822 5.57715 40.7432 5.36328 40.0693 5.36328C 39.2607 5.36328 38.6309 5.59473 38.1797 6.05762C 37.7344 6.51465 37.5117 7.15332 37.5117 7.97363L 35.8857 7.97363C 35.8857 6.7959 36.2637 5.84375 37.0195 5.11719C 37.7812 4.39063 38.7979 4.02734 40.0693 4.02734C 41.2588 4.02734 42.1992 4.34082 42.8906 4.96777C 43.582 5.58887 43.9277 6.41797 43.9277 7.45508C 43.9277 8.71484 43.125 10.2148 41.5195 11.9551L 38.0918 15.6729L 44.5166 15.6729L 44.5166 17ZM 46.9863 10.584L 47.6367 4.20312L 54.1934 4.20312L 54.1934 5.70605L 49.0166 5.70605L 48.6299 9.19531C 49.2568 8.82617 49.9687 8.6416 50.7656 8.6416C 51.9316 8.6416 52.8574 9.02832 53.543 9.80176C 54.2285 10.5693 54.5713 11.6094 54.5713 12.9219C 54.5713 14.2402 54.2139 15.2803 53.499 16.042C 52.79 16.7979 51.7969 17.1758 50.5195 17.1758C 49.3887 17.1758 48.4658 16.8623 47.751 16.2354C 47.0361 15.6084 46.6289 14.7412 46.5293 13.6338L 48.0674 13.6338C 48.167 14.3662 48.4277 14.9199 48.8496 15.2949C 49.2715 15.6641 49.8281 15.8486 50.5195 15.8486C 51.2754 15.8486 51.8672 15.5908 52.2949 15.0752C 52.7285 14.5596 52.9453 13.8477 52.9453 12.9395C 52.9453 12.084 52.7109 11.3984 52.2422 10.8828C 51.7793 10.3613 51.1611 10.1006 50.3877 10.1006C 49.6787 10.1006 49.1221 10.2559 48.7178 10.5664L 48.2871 10.918L 46.9863 10.584Z"/>
<path id="path25_fill" d="M 9.08789 11.542C 9.08789 13.4463 8.7627 14.8613 8.1123 15.7871C 7.46191 16.7129 6.44531 17.1758 5.0625 17.1758C 3.69727 17.1758 2.68652 16.7246 2.03027 15.8223C 1.37402 14.9141 1.03418 13.5605 1.01074 11.7617L 1.01074 9.59082C 1.01074 7.70996 1.33594 6.3125 1.98633 5.39844C 2.63672 4.48438 3.65625 4.02734 5.04492 4.02734C 6.42188 4.02734 7.43555 4.46973 8.08594 5.35449C 8.73633 6.2334 9.07031 7.59277 9.08789 9.43262L 9.08789 11.542ZM 7.46191 9.31836C 7.46191 7.94141 7.26855 6.93945 6.88184 6.3125C 6.49512 5.67969 5.88281 5.36328 5.04492 5.36328C 4.21289 5.36328 3.60645 5.67676 3.22559 6.30371C 2.84473 6.93066 2.64844 7.89453 2.63672 9.19531L 2.63672 11.7969C 2.63672 13.1797 2.83594 14.2021 3.23438 14.8643C 3.63867 15.5205 4.24805 15.8486 5.0625 15.8486C 5.86523 15.8486 6.45996 15.5381 6.84668 14.917C 7.23926 14.2959 7.44434 13.3174 7.46191 11.9814L 7.46191 9.31836ZM 11.373 16.1475C 11.373 15.8662 11.4551 15.6318 11.6191 15.4443C 11.7891 15.2568 12.041 15.1631 12.375 15.1631C 12.709 15.1631 12.9609 15.2568 13.1309 15.4443C 13.3066 15.6318 13.3945 15.8662 13.3945 16.1475C 13.3945 16.417 13.3066 16.6426 13.1309 16.8242C 12.9609 17.0059 12.709 17.0967 12.375 17.0967C 12.041 17.0967 11.7891 17.0059 11.6191 16.8242C 11.4551 16.6426 11.373 16.417 11.373 16.1475ZM 24.1787 5.11719L 18.8789 17L 17.1738 17L 22.4561 5.53906L 15.5303 5.53906L 15.5303 4.20312L 24.1787 4.20312L 24.1787 5.11719Z"/>
</defs>
</svg>

