<svg width="667" height="395" viewBox="0 0 667 395" fill="none" xmlns="http://www.w3.org/2000/svg">
<path d="M3.88477 26.5967L2.86523 27.6602V31H1.23926V17.5H2.86523V25.665L3.73535 24.6191L6.69727 21.4902H8.6748L4.97461 25.4629L9.10547 31H7.19824L3.88477 26.5967ZM13.7373 26.2275H9.44824V24.9004H13.7373V26.2275ZM16.8662 21.4902L16.9189 22.6855C17.6455 21.7715 18.5947 21.3145 19.7666 21.3145C21.7764 21.3145 22.79 22.4482 22.8076 24.7158V31H21.1816V24.707C21.1758 24.0215 21.0176 23.5146 20.707 23.1865C20.4023 22.8584 19.9248 22.6943 19.2744 22.6943C18.7471 22.6943 18.2842 22.835 17.8857 23.1162C17.4873 23.3975 17.1768 23.7666 16.9541 24.2236V31H15.3281V21.4902H16.8662ZM29.2061 31.1758C27.917 31.1758 26.8682 30.7539 26.0596 29.9102C25.251 29.0605 24.8467 27.9268 24.8467 26.5088V26.21C24.8467 25.2666 25.0254 24.4258 25.3828 23.6875C25.7461 22.9434 26.25 22.3633 26.8945 21.9473C27.5449 21.5254 28.248 21.3145 29.0039 21.3145C30.2402 21.3145 31.2012 21.7217 31.8867 22.5361C32.5723 23.3506 32.915 24.5166 32.915 26.0342V26.7109H26.4727C26.4961 27.6484 26.7686 28.4072 27.29 28.9873C27.8174 29.5615 28.4854 29.8486 29.2939 29.8486C29.8682 29.8486 30.3545 29.7314 30.7529 29.4971C31.1514 29.2627 31.5 28.9521 31.7988 28.5654L32.792 29.3389C31.9951 30.5635 30.7998 31.1758 29.2061 31.1758ZM29.0039 22.6504C28.3477 22.6504 27.7969 22.8906 27.3516 23.3711C26.9063 23.8457 26.6309 24.5137 26.5254 25.375H31.2891V25.252C31.2422 24.4258 31.0195 23.7871 30.6211 23.3359C30.2227 22.8789 29.6836 22.6504 29.0039 22.6504ZM40.6758 31C40.582 30.8125 40.5059 30.4785 40.4473 29.998C39.6914 30.7832 38.7891 31.1758 37.7402 31.1758C36.8027 31.1758 36.0322 30.9121 35.4287 30.3848C34.8311 29.8516 34.5322 29.1777 34.5322 28.3633C34.5322 27.373 34.9072 26.6055 35.6572 26.0605C36.4131 25.5098 37.4736 25.2344 38.8389 25.2344H40.4209V24.4873C40.4209 23.9189 40.251 23.4678 39.9111 23.1338C39.5713 22.7939 39.0703 22.624 38.4082 22.624C37.8281 22.624 37.3418 22.7705 36.9492 23.0635C36.5566 23.3564 36.3604 23.7109 36.3604 24.127H34.7256C34.7256 23.6523 34.8926 23.1953 35.2266 22.7559C35.5664 22.3105 36.0234 21.959 36.5977 21.7012C37.1777 21.4434 37.8135 21.3145 38.5049 21.3145C39.6006 21.3145 40.459 21.5898 41.0801 22.1406C41.7012 22.6855 42.0234 23.4385 42.0469 24.3994V28.7764C42.0469 29.6494 42.1582 30.3438 42.3809 30.8594V31H40.6758ZM37.9775 29.7607C38.4873 29.7607 38.9707 29.6289 39.4277 29.3652C39.8848 29.1016 40.2158 28.7588 40.4209 28.3369V26.3857H39.1465C37.1543 26.3857 36.1582 26.9688 36.1582 28.1348C36.1582 28.6445 36.3281 29.043 36.668 29.3301C37.0078 29.6172 37.4443 29.7607 37.9775 29.7607ZM49.1924 22.9492C48.9463 22.9082 48.6797 22.8877 48.3926 22.8877C47.3262 22.8877 46.6025 23.3418 46.2217 24.25V31H44.5957V21.4902H46.1777L46.2041 22.5889C46.7373 21.7393 47.4932 21.3145 48.4717 21.3145C48.7881 21.3145 49.0283 21.3555 49.1924 21.4375V22.9492ZM54.4658 31.1758C53.1768 31.1758 52.1279 30.7539 51.3193 29.9102C50.5107 29.0605 50.1064 27.9268 50.1064 26.5088V26.21C50.1064 25.2666 50.2852 24.4258 50.6426 23.6875C51.0059 22.9434 51.5098 22.3633 52.1543 21.9473C52.8047 21.5254 53.5078 21.3145 54.2637 21.3145C55.5 21.3145 56.4609 21.7217 57.1465 22.5361C57.832 23.3506 58.1748 24.5166 58.1748 26.0342V26.7109H51.7324C51.7559 27.6484 52.0283 28.4072 52.5498 28.9873C53.0771 29.5615 53.7451 29.8486 54.5537 29.8486C55.1279 29.8486 55.6143 29.7314 56.0127 29.4971C56.4111 29.2627 56.7598 28.9521 57.0586 28.5654L58.0518 29.3389C57.2549 30.5635 56.0596 31.1758 54.4658 31.1758ZM54.2637 22.6504C53.6074 22.6504 53.0566 22.8906 52.6113 23.3711C52.166 23.8457 51.8906 24.5137 51.7852 25.375H56.5488V25.252C56.502 24.4258 56.2793 23.7871 55.8809 23.3359C55.4824 22.8789 54.9434 22.6504 54.2637 22.6504ZM65.6016 28.4775C65.6016 28.0381 65.4346 27.6982 65.1006 27.458C64.7725 27.2119 64.1953 27.001 63.3691 26.8252C62.5488 26.6494 61.8955 26.4385 61.4092 26.1924C60.9287 25.9463 60.5713 25.6533 60.3369 25.3135C60.1084 24.9736 59.9941 24.5693 59.9941 24.1006C59.9941 23.3213 60.3223 22.6621 60.9785 22.123C61.6406 21.584 62.4844 21.3145 63.5098 21.3145C64.5879 21.3145 65.4609 21.5928 66.1289 22.1494C66.8027 22.7061 67.1396 23.418 67.1396 24.2852H65.5049C65.5049 23.8398 65.3145 23.4561 64.9336 23.1338C64.5586 22.8115 64.084 22.6504 63.5098 22.6504C62.918 22.6504 62.4551 22.7793 62.1211 23.0371C61.7871 23.2949 61.6201 23.6318 61.6201 24.0479C61.6201 24.4404 61.7754 24.7363 62.0859 24.9355C62.3965 25.1348 62.9561 25.3252 63.7646 25.5068C64.5791 25.6885 65.2383 25.9053 65.7422 26.1572C66.2461 26.4092 66.6182 26.7139 66.8584 27.0713C67.1045 27.4229 67.2275 27.8535 67.2275 28.3633C67.2275 29.2129 66.8877 29.8955 66.208 30.4111C65.5283 30.9209 64.6465 31.1758 63.5625 31.1758C62.8008 31.1758 62.127 31.041 61.541 30.7715C60.9551 30.502 60.4951 30.127 60.1611 29.6465C59.833 29.1602 59.6689 28.6357 59.6689 28.0732H61.2949C61.3242 28.6182 61.541 29.0518 61.9453 29.374C62.3555 29.6904 62.8945 29.8486 63.5625 29.8486C64.1777 29.8486 64.6699 29.7256 65.0391 29.4795C65.4141 29.2275 65.6016 28.8936 65.6016 28.4775ZM71.5518 19.1875V21.4902H73.3271V22.7471H71.5518V28.6445C71.5518 29.0254 71.6309 29.3125 71.7891 29.5059C71.9473 29.6934 72.2168 29.7871 72.5977 29.7871C72.7852 29.7871 73.043 29.752 73.3711 29.6816V31C72.9434 31.1172 72.5273 31.1758 72.123 31.1758C71.3965 31.1758 70.8486 30.9561 70.4795 30.5166C70.1104 30.0771 69.9258 29.4531 69.9258 28.6445V22.7471H68.1943V21.4902H69.9258V19.1875H71.5518ZM81.2373 21.4902L81.29 22.6855C82.0166 21.7715 82.9658 21.3145 84.1377 21.3145C86.1475 21.3145 87.1611 22.4482 87.1787 24.7158V31H85.5527V24.707C85.5469 24.0215 85.3887 23.5146 85.0781 23.1865C84.7734 22.8584 84.2959 22.6943 83.6455 22.6943C83.1182 22.6943 82.6553 22.835 82.2568 23.1162C81.8584 23.3975 81.5479 23.7666 81.3252 24.2236V31H79.6992V21.4902H81.2373ZM93.5771 31.1758C92.2881 31.1758 91.2393 30.7539 90.4307 29.9102C89.6221 29.0605 89.2178 27.9268 89.2178 26.5088V26.21C89.2178 25.2666 89.3965 24.4258 89.7539 23.6875C90.1172 22.9434 90.6211 22.3633 91.2656 21.9473C91.916 21.5254 92.6191 21.3145 93.375 21.3145C94.6113 21.3145 95.5723 21.7217 96.2578 22.5361C96.9434 23.3506 97.2861 24.5166 97.2861 26.0342V26.7109H90.8438C90.8672 27.6484 91.1396 28.4072 91.6611 28.9873C92.1885 29.5615 92.8564 29.8486 93.665 29.8486C94.2393 29.8486 94.7256 29.7314 95.124 29.4971C95.5225 29.2627 95.8711 28.9521 96.1699 28.5654L97.1631 29.3389C96.3662 30.5635 95.1709 31.1758 93.5771 31.1758ZM93.375 22.6504C92.7188 22.6504 92.168 22.8906 91.7227 23.3711C91.2773 23.8457 91.002 24.5137 90.8965 25.375H95.6602V25.252C95.6133 24.4258 95.3906 23.7871 94.9922 23.3359C94.5938 22.8789 94.0547 22.6504 93.375 22.6504ZM100.942 31H99.3164V21.4902H100.942V31ZM99.1846 18.9678C99.1846 18.7041 99.2637 18.4814 99.4219 18.2998C99.5859 18.1182 99.8262 18.0273 100.143 18.0273C100.459 18.0273 100.699 18.1182 100.863 18.2998C101.027 18.4814 101.109 18.7041 101.109 18.9678C101.109 19.2314 101.027 19.4512 100.863 19.627C100.699 19.8027 100.459 19.8906 100.143 19.8906C99.8262 19.8906 99.5859 19.8027 99.4219 19.627C99.2637 19.4512 99.1846 19.2314 99.1846 18.9678ZM103.166 26.166C103.166 24.6836 103.509 23.5059 104.194 22.6328C104.88 21.7539 105.788 21.3145 106.919 21.3145C108.079 21.3145 108.984 21.7246 109.635 22.5449L109.714 21.4902H111.199V30.7715C111.199 32.002 110.833 32.9717 110.101 33.6807C109.374 34.3896 108.396 34.7441 107.165 34.7441C106.479 34.7441 105.809 34.5977 105.152 34.3047C104.496 34.0117 103.995 33.6104 103.649 33.1006L104.493 32.125C105.19 32.9863 106.043 33.417 107.051 33.417C107.842 33.417 108.457 33.1943 108.896 32.749C109.342 32.3037 109.564 31.6768 109.564 30.8682V30.0508C108.914 30.8008 108.026 31.1758 106.901 31.1758C105.788 31.1758 104.886 30.7275 104.194 29.8311C103.509 28.9346 103.166 27.7129 103.166 26.166ZM104.801 26.3506C104.801 27.4229 105.021 28.2666 105.46 28.8818C105.899 29.4912 106.515 29.7959 107.306 29.7959C108.331 29.7959 109.084 29.3301 109.564 28.3984V24.0566C109.066 23.1484 108.319 22.6943 107.323 22.6943C106.532 22.6943 105.914 23.002 105.469 23.6172C105.023 24.2324 104.801 25.1436 104.801 26.3506ZM115.286 22.6416C116.007 21.7568 116.944 21.3145 118.099 21.3145C120.108 21.3145 121.122 22.4482 121.14 24.7158V31H119.514V24.707C119.508 24.0215 119.35 23.5146 119.039 23.1865C118.734 22.8584 118.257 22.6943 117.606 22.6943C117.079 22.6943 116.616 22.835 116.218 23.1162C115.819 23.3975 115.509 23.7666 115.286 24.2236V31H113.66V17.5H115.286V22.6416ZM131.625 26.3506C131.625 27.8037 131.291 28.9727 130.623 29.8574C129.955 30.7363 129.059 31.1758 127.934 31.1758C126.732 31.1758 125.804 30.751 125.147 29.9014L125.068 31H123.574V17.5H125.2V22.5361C125.856 21.7217 126.762 21.3145 127.916 21.3145C129.07 21.3145 129.976 21.751 130.632 22.624C131.294 23.4971 131.625 24.6924 131.625 26.21V26.3506ZM129.999 26.166C129.999 25.0586 129.785 24.2031 129.357 23.5996C128.93 22.9961 128.314 22.6943 127.512 22.6943C126.439 22.6943 125.669 23.1924 125.2 24.1885V28.3018C125.698 29.2979 126.475 29.7959 127.529 29.7959C128.309 29.7959 128.915 29.4941 129.349 28.8906C129.782 28.2871 129.999 27.3789 129.999 26.166ZM133.251 26.1572C133.251 25.2256 133.433 24.3877 133.796 23.6436C134.165 22.8994 134.675 22.3252 135.325 21.9209C135.981 21.5166 136.729 21.3145 137.566 21.3145C138.861 21.3145 139.907 21.7627 140.704 22.6592C141.507 23.5557 141.908 24.748 141.908 26.2363V26.3506C141.908 27.2764 141.729 28.1084 141.372 28.8467C141.021 29.5791 140.514 30.1504 139.852 30.5605C139.195 30.9707 138.439 31.1758 137.584 31.1758C136.295 31.1758 135.249 30.7275 134.446 29.8311C133.649 28.9346 133.251 27.748 133.251 26.2715V26.1572ZM134.886 26.3506C134.886 27.4053 135.129 28.252 135.615 28.8906C136.107 29.5293 136.764 29.8486 137.584 29.8486C138.41 29.8486 139.066 29.5264 139.553 28.8818C140.039 28.2314 140.282 27.3232 140.282 26.1572C140.282 25.1143 140.033 24.2705 139.535 23.626C139.043 22.9756 138.387 22.6504 137.566 22.6504C136.764 22.6504 136.116 22.9697 135.624 23.6084C135.132 24.2471 134.886 25.1611 134.886 26.3506ZM148.544 22.9492C148.298 22.9082 148.031 22.8877 147.744 22.8877C146.678 22.8877 145.954 23.3418 145.573 24.25V31H143.947V21.4902H145.529L145.556 22.5889C146.089 21.7393 146.845 21.3145 147.823 21.3145C148.14 21.3145 148.38 21.3555 148.544 21.4375V22.9492ZM155.584 28.4775C155.584 28.0381 155.417 27.6982 155.083 27.458C154.755 27.2119 154.178 27.001 153.352 26.8252C152.531 26.6494 151.878 26.4385 151.392 26.1924C150.911 25.9463 150.554 25.6533 150.319 25.3135C150.091 24.9736 149.977 24.5693 149.977 24.1006C149.977 23.3213 150.305 22.6621 150.961 22.123C151.623 21.584 152.467 21.3145 153.492 21.3145C154.57 21.3145 155.443 21.5928 156.111 22.1494C156.785 22.7061 157.122 23.418 157.122 24.2852H155.487C155.487 23.8398 155.297 23.4561 154.916 23.1338C154.541 22.8115 154.066 22.6504 153.492 22.6504C152.9 22.6504 152.438 22.7793 152.104 23.0371C151.77 23.2949 151.603 23.6318 151.603 24.0479C151.603 24.4404 151.758 24.7363 152.068 24.9355C152.379 25.1348 152.938 25.3252 153.747 25.5068C154.562 25.6885 155.221 25.9053 155.725 26.1572C156.229 26.4092 156.601 26.7139 156.841 27.0713C157.087 27.4229 157.21 27.8535 157.21 28.3633C157.21 29.2129 156.87 29.8955 156.19 30.4111C155.511 30.9209 154.629 31.1758 153.545 31.1758C152.783 31.1758 152.109 31.041 151.523 30.7715C150.937 30.502 150.478 30.127 150.144 29.6465C149.815 29.1602 149.651 28.6357 149.651 28.0732H151.277C151.307 28.6182 151.523 29.0518 151.928 29.374C152.338 29.6904 152.877 29.8486 153.545 29.8486C154.16 29.8486 154.652 29.7256 155.021 29.4795C155.396 29.2275 155.584 28.8936 155.584 28.4775Z" fill="black"/>
<path d="M28.9971 126H27.3711V112.5H28.9971V126ZM33.374 126H31.748V116.49H33.374V126ZM31.6162 113.968C31.6162 113.704 31.6953 113.481 31.8535 113.3C32.0176 113.118 32.2578 113.027 32.5742 113.027C32.8906 113.027 33.1309 113.118 33.2949 113.3C33.459 113.481 33.541 113.704 33.541 113.968C33.541 114.231 33.459 114.451 33.2949 114.627C33.1309 114.803 32.8906 114.891 32.5742 114.891C32.2578 114.891 32.0176 114.803 31.8535 114.627C31.6953 114.451 31.6162 114.231 31.6162 113.968ZM37.5225 116.49L37.5752 117.686C38.3018 116.771 39.251 116.314 40.4229 116.314C42.4326 116.314 43.4463 117.448 43.4639 119.716V126H41.8379V119.707C41.832 119.021 41.6738 118.515 41.3633 118.187C41.0586 117.858 40.5811 117.694 39.9307 117.694C39.4033 117.694 38.9404 117.835 38.542 118.116C38.1436 118.397 37.833 118.767 37.6104 119.224V126H35.9844V116.49H37.5225ZM49.8623 126.176C48.5732 126.176 47.5244 125.754 46.7158 124.91C45.9072 124.061 45.5029 122.927 45.5029 121.509V121.21C45.5029 120.267 45.6816 119.426 46.0391 118.688C46.4023 117.943 46.9063 117.363 47.5508 116.947C48.2012 116.525 48.9043 116.314 49.6602 116.314C50.8965 116.314 51.8574 116.722 52.543 117.536C53.2285 118.351 53.5713 119.517 53.5713 121.034V121.711H47.1289C47.1523 122.648 47.4248 123.407 47.9463 123.987C48.4736 124.562 49.1416 124.849 49.9502 124.849C50.5244 124.849 51.0107 124.731 51.4092 124.497C51.8076 124.263 52.1562 123.952 52.4551 123.565L53.4482 124.339C52.6514 125.563 51.4561 126.176 49.8623 126.176ZM49.6602 117.65C49.0039 117.65 48.4531 117.891 48.0078 118.371C47.5625 118.846 47.2871 119.514 47.1816 120.375H51.9453V120.252C51.8984 119.426 51.6758 118.787 51.2773 118.336C50.8789 117.879 50.3398 117.65 49.6602 117.65ZM61.332 126C61.2383 125.812 61.1621 125.479 61.1035 124.998C60.3477 125.783 59.4453 126.176 58.3965 126.176C57.459 126.176 56.6885 125.912 56.085 125.385C55.4873 124.852 55.1885 124.178 55.1885 123.363C55.1885 122.373 55.5635 121.605 56.3135 121.061C57.0693 120.51 58.1299 120.234 59.4951 120.234H61.0771V119.487C61.0771 118.919 60.9072 118.468 60.5674 118.134C60.2275 117.794 59.7266 117.624 59.0645 117.624C58.4844 117.624 57.998 117.771 57.6055 118.063C57.2129 118.356 57.0166 118.711 57.0166 119.127H55.3818C55.3818 118.652 55.5488 118.195 55.8828 117.756C56.2227 117.311 56.6797 116.959 57.2539 116.701C57.834 116.443 58.4697 116.314 59.1611 116.314C60.2568 116.314 61.1152 116.59 61.7363 117.141C62.3574 117.686 62.6797 118.438 62.7031 119.399V123.776C62.7031 124.649 62.8145 125.344 63.0371 125.859V126H61.332ZM58.6338 124.761C59.1436 124.761 59.627 124.629 60.084 124.365C60.541 124.102 60.8721 123.759 61.0771 123.337V121.386H59.8027C57.8105 121.386 56.8145 121.969 56.8145 123.135C56.8145 123.645 56.9844 124.043 57.3242 124.33C57.6641 124.617 58.1006 124.761 58.6338 124.761ZM69.8486 117.949C69.6025 117.908 69.3359 117.888 69.0488 117.888C67.9824 117.888 67.2588 118.342 66.8779 119.25V126H65.252V116.49H66.834L66.8604 117.589C67.3936 116.739 68.1494 116.314 69.1279 116.314C69.4443 116.314 69.6846 116.355 69.8486 116.438V117.949ZM80.4131 117.949C80.167 117.908 79.9004 117.888 79.6133 117.888C78.5469 117.888 77.8232 118.342 77.4424 119.25V126H75.8164V116.49H77.3984L77.4248 117.589C77.958 116.739 78.7139 116.314 79.6924 116.314C80.0088 116.314 80.249 116.355 80.4131 116.438V117.949ZM85.6865 126.176C84.3975 126.176 83.3486 125.754 82.54 124.91C81.7314 124.061 81.3271 122.927 81.3271 121.509V121.21C81.3271 120.267 81.5059 119.426 81.8633 118.688C82.2266 117.943 82.7305 117.363 83.375 116.947C84.0254 116.525 84.7285 116.314 85.4844 116.314C86.7207 116.314 87.6816 116.722 88.3672 117.536C89.0527 118.351 89.3955 119.517 89.3955 121.034V121.711H82.9531C82.9766 122.648 83.249 123.407 83.7705 123.987C84.2979 124.562 84.9658 124.849 85.7744 124.849C86.3486 124.849 86.835 124.731 87.2334 124.497C87.6318 124.263 87.9805 123.952 88.2793 123.565L89.2725 124.339C88.4756 125.563 87.2803 126.176 85.6865 126.176ZM85.4844 117.65C84.8281 117.65 84.2773 117.891 83.832 118.371C83.3867 118.846 83.1113 119.514 83.0059 120.375H87.7695V120.252C87.7227 119.426 87.5 118.787 87.1016 118.336C86.7031 117.879 86.1641 117.65 85.4844 117.65ZM90.8984 121.166C90.8984 119.684 91.2412 118.506 91.9268 117.633C92.6123 116.754 93.5205 116.314 94.6514 116.314C95.8115 116.314 96.7168 116.725 97.3672 117.545L97.4463 116.49H98.9316V125.771C98.9316 127.002 98.5654 127.972 97.833 128.681C97.1064 129.39 96.1279 129.744 94.8975 129.744C94.2119 129.744 93.541 129.598 92.8848 129.305C92.2285 129.012 91.7275 128.61 91.3818 128.101L92.2256 127.125C92.9229 127.986 93.7754 128.417 94.7832 128.417C95.5742 128.417 96.1895 128.194 96.6289 127.749C97.0742 127.304 97.2969 126.677 97.2969 125.868V125.051C96.6465 125.801 95.7588 126.176 94.6338 126.176C93.5205 126.176 92.6182 125.728 91.9268 124.831C91.2412 123.935 90.8984 122.713 90.8984 121.166ZM92.5332 121.351C92.5332 122.423 92.7529 123.267 93.1924 123.882C93.6318 124.491 94.2471 124.796 95.0381 124.796C96.0635 124.796 96.8164 124.33 97.2969 123.398V119.057C96.7988 118.148 96.0518 117.694 95.0557 117.694C94.2646 117.694 93.6465 118.002 93.2012 118.617C92.7559 119.232 92.5332 120.144 92.5332 121.351ZM105.989 117.949C105.743 117.908 105.477 117.888 105.189 117.888C104.123 117.888 103.399 118.342 103.019 119.25V126H101.393V116.49H102.975L103.001 117.589C103.534 116.739 104.29 116.314 105.269 116.314C105.585 116.314 105.825 116.355 105.989 116.438V117.949ZM111.263 126.176C109.974 126.176 108.925 125.754 108.116 124.91C107.308 124.061 106.903 122.927 106.903 121.509V121.21C106.903 120.267 107.082 119.426 107.439 118.688C107.803 117.943 108.307 117.363 108.951 116.947C109.602 116.525 110.305 116.314 111.061 116.314C112.297 116.314 113.258 116.722 113.943 117.536C114.629 118.351 114.972 119.517 114.972 121.034V121.711H108.529C108.553 122.648 108.825 123.407 109.347 123.987C109.874 124.562 110.542 124.849 111.351 124.849C111.925 124.849 112.411 124.731 112.81 124.497C113.208 124.263 113.557 123.952 113.855 123.565L114.849 124.339C114.052 125.563 112.856 126.176 111.263 126.176ZM111.061 117.65C110.404 117.65 109.854 117.891 109.408 118.371C108.963 118.846 108.688 119.514 108.582 120.375H113.346V120.252C113.299 119.426 113.076 118.787 112.678 118.336C112.279 117.879 111.74 117.65 111.061 117.65ZM122.398 123.478C122.398 123.038 122.231 122.698 121.897 122.458C121.569 122.212 120.992 122.001 120.166 121.825C119.346 121.649 118.692 121.438 118.206 121.192C117.726 120.946 117.368 120.653 117.134 120.313C116.905 119.974 116.791 119.569 116.791 119.101C116.791 118.321 117.119 117.662 117.775 117.123C118.438 116.584 119.281 116.314 120.307 116.314C121.385 116.314 122.258 116.593 122.926 117.149C123.6 117.706 123.937 118.418 123.937 119.285H122.302C122.302 118.84 122.111 118.456 121.73 118.134C121.355 117.812 120.881 117.65 120.307 117.65C119.715 117.65 119.252 117.779 118.918 118.037C118.584 118.295 118.417 118.632 118.417 119.048C118.417 119.44 118.572 119.736 118.883 119.936C119.193 120.135 119.753 120.325 120.562 120.507C121.376 120.688 122.035 120.905 122.539 121.157C123.043 121.409 123.415 121.714 123.655 122.071C123.901 122.423 124.024 122.854 124.024 123.363C124.024 124.213 123.685 124.896 123.005 125.411C122.325 125.921 121.443 126.176 120.359 126.176C119.598 126.176 118.924 126.041 118.338 125.771C117.752 125.502 117.292 125.127 116.958 124.646C116.63 124.16 116.466 123.636 116.466 123.073H118.092C118.121 123.618 118.338 124.052 118.742 124.374C119.152 124.69 119.691 124.849 120.359 124.849C120.975 124.849 121.467 124.726 121.836 124.479C122.211 124.228 122.398 123.894 122.398 123.478ZM131.68 123.478C131.68 123.038 131.513 122.698 131.179 122.458C130.851 122.212 130.273 122.001 129.447 121.825C128.627 121.649 127.974 121.438 127.487 121.192C127.007 120.946 126.649 120.653 126.415 120.313C126.187 119.974 126.072 119.569 126.072 119.101C126.072 118.321 126.4 117.662 127.057 117.123C127.719 116.584 128.563 116.314 129.588 116.314C130.666 116.314 131.539 116.593 132.207 117.149C132.881 117.706 133.218 118.418 133.218 119.285H131.583C131.583 118.84 131.393 118.456 131.012 118.134C130.637 117.812 130.162 117.65 129.588 117.65C128.996 117.65 128.533 117.779 128.199 118.037C127.865 118.295 127.698 118.632 127.698 119.048C127.698 119.44 127.854 119.736 128.164 119.936C128.475 120.135 129.034 120.325 129.843 120.507C130.657 120.688 131.316 120.905 131.82 121.157C132.324 121.409 132.696 121.714 132.937 122.071C133.183 122.423 133.306 122.854 133.306 123.363C133.306 124.213 132.966 124.896 132.286 125.411C131.606 125.921 130.725 126.176 129.641 126.176C128.879 126.176 128.205 126.041 127.619 125.771C127.033 125.502 126.573 125.127 126.239 124.646C125.911 124.16 125.747 123.636 125.747 123.073H127.373C127.402 123.618 127.619 124.052 128.023 124.374C128.434 124.69 128.973 124.849 129.641 124.849C130.256 124.849 130.748 124.726 131.117 124.479C131.492 124.228 131.68 123.894 131.68 123.478ZM137.19 126H135.564V116.49H137.19V126ZM135.433 113.968C135.433 113.704 135.512 113.481 135.67 113.3C135.834 113.118 136.074 113.027 136.391 113.027C136.707 113.027 136.947 113.118 137.111 113.3C137.275 113.481 137.357 113.704 137.357 113.968C137.357 114.231 137.275 114.451 137.111 114.627C136.947 114.803 136.707 114.891 136.391 114.891C136.074 114.891 135.834 114.803 135.67 114.627C135.512 114.451 135.433 114.231 135.433 113.968ZM139.37 121.157C139.37 120.226 139.552 119.388 139.915 118.644C140.284 117.899 140.794 117.325 141.444 116.921C142.101 116.517 142.848 116.314 143.686 116.314C144.98 116.314 146.026 116.763 146.823 117.659C147.626 118.556 148.027 119.748 148.027 121.236V121.351C148.027 122.276 147.849 123.108 147.491 123.847C147.14 124.579 146.633 125.15 145.971 125.561C145.314 125.971 144.559 126.176 143.703 126.176C142.414 126.176 141.368 125.728 140.565 124.831C139.769 123.935 139.37 122.748 139.37 121.271V121.157ZM141.005 121.351C141.005 122.405 141.248 123.252 141.734 123.891C142.227 124.529 142.883 124.849 143.703 124.849C144.529 124.849 145.186 124.526 145.672 123.882C146.158 123.231 146.401 122.323 146.401 121.157C146.401 120.114 146.152 119.271 145.654 118.626C145.162 117.976 144.506 117.65 143.686 117.65C142.883 117.65 142.235 117.97 141.743 118.608C141.251 119.247 141.005 120.161 141.005 121.351ZM151.604 116.49L151.657 117.686C152.384 116.771 153.333 116.314 154.505 116.314C156.515 116.314 157.528 117.448 157.546 119.716V126H155.92V119.707C155.914 119.021 155.756 118.515 155.445 118.187C155.141 117.858 154.663 117.694 154.013 117.694C153.485 117.694 153.022 117.835 152.624 118.116C152.226 118.397 151.915 118.767 151.692 119.224V126H150.066V116.49H151.604Z" fill="black"/>
<path d="M14.9971 238H13.3711V224.5H14.9971V238ZM17.1768 233.157C17.1768 232.226 17.3584 231.388 17.7217 230.644C18.0908 229.899 18.6006 229.325 19.251 228.921C19.9072 228.517 20.6543 228.314 21.4922 228.314C22.7871 228.314 23.833 228.763 24.6299 229.659C25.4326 230.556 25.834 231.748 25.834 233.236V233.351C25.834 234.276 25.6553 235.108 25.2979 235.847C24.9463 236.579 24.4395 237.15 23.7773 237.561C23.1211 237.971 22.3652 238.176 21.5098 238.176C20.2207 238.176 19.1748 237.728 18.3721 236.831C17.5752 235.935 17.1768 234.748 17.1768 233.271V233.157ZM18.8115 233.351C18.8115 234.405 19.0547 235.252 19.541 235.891C20.0332 236.529 20.6895 236.849 21.5098 236.849C22.3359 236.849 22.9922 236.526 23.4785 235.882C23.9648 235.231 24.208 234.323 24.208 233.157C24.208 232.114 23.959 231.271 23.4609 230.626C22.9688 229.976 22.3125 229.65 21.4922 229.65C20.6895 229.65 20.042 229.97 19.5498 230.608C19.0576 231.247 18.8115 232.161 18.8115 233.351ZM27.4863 233.166C27.4863 231.684 27.8291 230.506 28.5146 229.633C29.2002 228.754 30.1084 228.314 31.2393 228.314C32.3994 228.314 33.3047 228.725 33.9551 229.545L34.0342 228.49H35.5195V237.771C35.5195 239.002 35.1533 239.972 34.4209 240.681C33.6943 241.39 32.7158 241.744 31.4854 241.744C30.7998 241.744 30.1289 241.598 29.4727 241.305C28.8164 241.012 28.3154 240.61 27.9697 240.101L28.8135 239.125C29.5107 239.986 30.3633 240.417 31.3711 240.417C32.1621 240.417 32.7773 240.194 33.2168 239.749C33.6621 239.304 33.8848 238.677 33.8848 237.868V237.051C33.2344 237.801 32.3467 238.176 31.2217 238.176C30.1084 238.176 29.2061 237.728 28.5146 236.831C27.8291 235.935 27.4863 234.713 27.4863 233.166ZM29.1211 233.351C29.1211 234.423 29.3408 235.267 29.7803 235.882C30.2197 236.491 30.835 236.796 31.626 236.796C32.6514 236.796 33.4043 236.33 33.8848 235.398V231.057C33.3867 230.148 32.6396 229.694 31.6436 229.694C30.8525 229.694 30.2344 230.002 29.7891 230.617C29.3438 231.232 29.1211 232.144 29.1211 233.351ZM39.7471 238H38.1211V228.49H39.7471V238ZM37.9893 225.968C37.9893 225.704 38.0684 225.481 38.2266 225.3C38.3906 225.118 38.6309 225.027 38.9473 225.027C39.2637 225.027 39.5039 225.118 39.668 225.3C39.832 225.481 39.9141 225.704 39.9141 225.968C39.9141 226.231 39.832 226.451 39.668 226.627C39.5039 226.803 39.2637 226.891 38.9473 226.891C38.6309 226.891 38.3906 226.803 38.2266 226.627C38.0684 226.451 37.9893 226.231 37.9893 225.968ZM47.8945 235.478C47.8945 235.038 47.7275 234.698 47.3936 234.458C47.0654 234.212 46.4883 234.001 45.6621 233.825C44.8418 233.649 44.1885 233.438 43.7021 233.192C43.2217 232.946 42.8643 232.653 42.6299 232.313C42.4014 231.974 42.2871 231.569 42.2871 231.101C42.2871 230.321 42.6152 229.662 43.2715 229.123C43.9336 228.584 44.7773 228.314 45.8027 228.314C46.8809 228.314 47.7539 228.593 48.4219 229.149C49.0957 229.706 49.4326 230.418 49.4326 231.285H47.7979C47.7979 230.84 47.6074 230.456 47.2266 230.134C46.8516 229.812 46.377 229.65 45.8027 229.65C45.2109 229.65 44.748 229.779 44.4141 230.037C44.0801 230.295 43.9131 230.632 43.9131 231.048C43.9131 231.44 44.0684 231.736 44.3789 231.936C44.6895 232.135 45.249 232.325 46.0576 232.507C46.8721 232.688 47.5313 232.905 48.0352 233.157C48.5391 233.409 48.9111 233.714 49.1514 234.071C49.3975 234.423 49.5205 234.854 49.5205 235.363C49.5205 236.213 49.1807 236.896 48.501 237.411C47.8213 237.921 46.9395 238.176 45.8555 238.176C45.0938 238.176 44.4199 238.041 43.834 237.771C43.248 237.502 42.7881 237.127 42.4541 236.646C42.126 236.16 41.9619 235.636 41.9619 235.073H43.5879C43.6172 235.618 43.834 236.052 44.2383 236.374C44.6484 236.69 45.1875 236.849 45.8555 236.849C46.4707 236.849 46.9629 236.726 47.332 236.479C47.707 236.228 47.8945 235.894 47.8945 235.478ZM53.8447 226.188V228.49H55.6201V229.747H53.8447V235.645C53.8447 236.025 53.9238 236.312 54.082 236.506C54.2402 236.693 54.5098 236.787 54.8906 236.787C55.0781 236.787 55.3359 236.752 55.6641 236.682V238C55.2363 238.117 54.8203 238.176 54.416 238.176C53.6895 238.176 53.1416 237.956 52.7725 237.517C52.4033 237.077 52.2188 236.453 52.2188 235.645V229.747H50.4873V228.49H52.2188V226.188H53.8447ZM59.2939 238H57.668V228.49H59.2939V238ZM57.5361 225.968C57.5361 225.704 57.6152 225.481 57.7734 225.3C57.9375 225.118 58.1777 225.027 58.4941 225.027C58.8105 225.027 59.0508 225.118 59.2148 225.3C59.3789 225.481 59.4609 225.704 59.4609 225.968C59.4609 226.231 59.3789 226.451 59.2148 226.627C59.0508 226.803 58.8105 226.891 58.4941 226.891C58.1777 226.891 57.9375 226.803 57.7734 226.627C57.6152 226.451 57.5361 226.231 57.5361 225.968ZM65.7188 236.849C66.2988 236.849 66.8057 236.673 67.2393 236.321C67.6729 235.97 67.9131 235.53 67.96 235.003H69.498C69.4688 235.548 69.2812 236.066 68.9355 236.559C68.5898 237.051 68.127 237.443 67.5469 237.736C66.9727 238.029 66.3633 238.176 65.7188 238.176C64.4238 238.176 63.3926 237.745 62.625 236.884C61.8633 236.017 61.4824 234.833 61.4824 233.333V233.061C61.4824 232.135 61.6523 231.312 61.9922 230.591C62.332 229.87 62.8184 229.311 63.4512 228.912C64.0898 228.514 64.8428 228.314 65.71 228.314C66.7764 228.314 67.6611 228.634 68.3643 229.272C69.0732 229.911 69.4512 230.74 69.498 231.76H67.96C67.9131 231.145 67.6787 230.641 67.2568 230.248C66.8408 229.85 66.3252 229.65 65.71 229.65C64.8838 229.65 64.2422 229.949 63.7852 230.547C63.334 231.139 63.1084 231.997 63.1084 233.122V233.43C63.1084 234.525 63.334 235.369 63.7852 235.961C64.2363 236.553 64.8809 236.849 65.7188 236.849ZM80.3877 229.949C80.1416 229.908 79.875 229.888 79.5879 229.888C78.5215 229.888 77.7979 230.342 77.417 231.25V238H75.791V228.49H77.373L77.3994 229.589C77.9326 228.739 78.6885 228.314 79.667 228.314C79.9834 228.314 80.2236 228.355 80.3877 228.438V229.949ZM85.6611 238.176C84.3721 238.176 83.3232 237.754 82.5146 236.91C81.7061 236.061 81.3018 234.927 81.3018 233.509V233.21C81.3018 232.267 81.4805 231.426 81.8379 230.688C82.2012 229.943 82.7051 229.363 83.3496 228.947C84 228.525 84.7031 228.314 85.459 228.314C86.6953 228.314 87.6562 228.722 88.3418 229.536C89.0273 230.351 89.3701 231.517 89.3701 233.034V233.711H82.9277C82.9512 234.648 83.2236 235.407 83.7451 235.987C84.2725 236.562 84.9404 236.849 85.749 236.849C86.3232 236.849 86.8096 236.731 87.208 236.497C87.6064 236.263 87.9551 235.952 88.2539 235.565L89.2471 236.339C88.4502 237.563 87.2549 238.176 85.6611 238.176ZM85.459 229.65C84.8027 229.65 84.252 229.891 83.8066 230.371C83.3613 230.846 83.0859 231.514 82.9805 232.375H87.7441V232.252C87.6973 231.426 87.4746 230.787 87.0762 230.336C86.6777 229.879 86.1387 229.65 85.459 229.65ZM90.873 233.166C90.873 231.684 91.2158 230.506 91.9014 229.633C92.5869 228.754 93.4951 228.314 94.626 228.314C95.7861 228.314 96.6914 228.725 97.3418 229.545L97.4209 228.49H98.9062V237.771C98.9062 239.002 98.54 239.972 97.8076 240.681C97.0811 241.39 96.1025 241.744 94.8721 241.744C94.1865 241.744 93.5156 241.598 92.8594 241.305C92.2031 241.012 91.7021 240.61 91.3564 240.101L92.2002 239.125C92.8975 239.986 93.75 240.417 94.7578 240.417C95.5488 240.417 96.1641 240.194 96.6035 239.749C97.0488 239.304 97.2715 238.677 97.2715 237.868V237.051C96.6211 237.801 95.7334 238.176 94.6084 238.176C93.4951 238.176 92.5928 237.728 91.9014 236.831C91.2158 235.935 90.873 234.713 90.873 233.166ZM92.5078 233.351C92.5078 234.423 92.7275 235.267 93.167 235.882C93.6064 236.491 94.2217 236.796 95.0127 236.796C96.0381 236.796 96.791 236.33 97.2715 235.398V231.057C96.7734 230.148 96.0264 229.694 95.0303 229.694C94.2393 229.694 93.6211 230.002 93.1758 230.617C92.7305 231.232 92.5078 232.144 92.5078 233.351ZM105.964 229.949C105.718 229.908 105.451 229.888 105.164 229.888C104.098 229.888 103.374 230.342 102.993 231.25V238H101.367V228.49H102.949L102.976 229.589C103.509 228.739 104.265 228.314 105.243 228.314C105.56 228.314 105.8 228.355 105.964 228.438V229.949ZM111.237 238.176C109.948 238.176 108.899 237.754 108.091 236.91C107.282 236.061 106.878 234.927 106.878 233.509V233.21C106.878 232.267 107.057 231.426 107.414 230.688C107.777 229.943 108.281 229.363 108.926 228.947C109.576 228.525 110.279 228.314 111.035 228.314C112.271 228.314 113.232 228.722 113.918 229.536C114.604 230.351 114.946 231.517 114.946 233.034V233.711H108.504C108.527 234.648 108.8 235.407 109.321 235.987C109.849 236.562 110.517 236.849 111.325 236.849C111.899 236.849 112.386 236.731 112.784 236.497C113.183 236.263 113.531 235.952 113.83 235.565L114.823 236.339C114.026 237.563 112.831 238.176 111.237 238.176ZM111.035 229.65C110.379 229.65 109.828 229.891 109.383 230.371C108.938 230.846 108.662 231.514 108.557 232.375H113.32V232.252C113.273 231.426 113.051 230.787 112.652 230.336C112.254 229.879 111.715 229.65 111.035 229.65ZM122.373 235.478C122.373 235.038 122.206 234.698 121.872 234.458C121.544 234.212 120.967 234.001 120.141 233.825C119.32 233.649 118.667 233.438 118.181 233.192C117.7 232.946 117.343 232.653 117.108 232.313C116.88 231.974 116.766 231.569 116.766 231.101C116.766 230.321 117.094 229.662 117.75 229.123C118.412 228.584 119.256 228.314 120.281 228.314C121.359 228.314 122.232 228.593 122.9 229.149C123.574 229.706 123.911 230.418 123.911 231.285H122.276C122.276 230.84 122.086 230.456 121.705 230.134C121.33 229.812 120.855 229.65 120.281 229.65C119.689 229.65 119.227 229.779 118.893 230.037C118.559 230.295 118.392 230.632 118.392 231.048C118.392 231.44 118.547 231.736 118.857 231.936C119.168 232.135 119.728 232.325 120.536 232.507C121.351 232.688 122.01 232.905 122.514 233.157C123.018 233.409 123.39 233.714 123.63 234.071C123.876 234.423 123.999 234.854 123.999 235.363C123.999 236.213 123.659 236.896 122.979 237.411C122.3 237.921 121.418 238.176 120.334 238.176C119.572 238.176 118.898 238.041 118.312 237.771C117.727 237.502 117.267 237.127 116.933 236.646C116.604 236.16 116.44 235.636 116.44 235.073H118.066C118.096 235.618 118.312 236.052 118.717 236.374C119.127 236.69 119.666 236.849 120.334 236.849C120.949 236.849 121.441 236.726 121.811 236.479C122.186 236.228 122.373 235.894 122.373 235.478ZM131.654 235.478C131.654 235.038 131.487 234.698 131.153 234.458C130.825 234.212 130.248 234.001 129.422 233.825C128.602 233.649 127.948 233.438 127.462 233.192C126.981 232.946 126.624 232.653 126.39 232.313C126.161 231.974 126.047 231.569 126.047 231.101C126.047 230.321 126.375 229.662 127.031 229.123C127.693 228.584 128.537 228.314 129.562 228.314C130.641 228.314 131.514 228.593 132.182 229.149C132.855 229.706 133.192 230.418 133.192 231.285H131.558C131.558 230.84 131.367 230.456 130.986 230.134C130.611 229.812 130.137 229.65 129.562 229.65C128.971 229.65 128.508 229.779 128.174 230.037C127.84 230.295 127.673 230.632 127.673 231.048C127.673 231.44 127.828 231.736 128.139 231.936C128.449 232.135 129.009 232.325 129.817 232.507C130.632 232.688 131.291 232.905 131.795 233.157C132.299 233.409 132.671 233.714 132.911 234.071C133.157 234.423 133.28 234.854 133.28 235.363C133.28 236.213 132.94 236.896 132.261 237.411C131.581 237.921 130.699 238.176 129.615 238.176C128.854 238.176 128.18 238.041 127.594 237.771C127.008 237.502 126.548 237.127 126.214 236.646C125.886 236.16 125.722 235.636 125.722 235.073H127.348C127.377 235.618 127.594 236.052 127.998 236.374C128.408 236.69 128.947 236.849 129.615 236.849C130.23 236.849 130.723 236.726 131.092 236.479C131.467 236.228 131.654 235.894 131.654 235.478ZM137.165 238H135.539V228.49H137.165V238ZM135.407 225.968C135.407 225.704 135.486 225.481 135.645 225.3C135.809 225.118 136.049 225.027 136.365 225.027C136.682 225.027 136.922 225.118 137.086 225.3C137.25 225.481 137.332 225.704 137.332 225.968C137.332 226.231 137.25 226.451 137.086 226.627C136.922 226.803 136.682 226.891 136.365 226.891C136.049 226.891 135.809 226.803 135.645 226.627C135.486 226.451 135.407 226.231 135.407 225.968ZM139.345 233.157C139.345 232.226 139.526 231.388 139.89 230.644C140.259 229.899 140.769 229.325 141.419 228.921C142.075 228.517 142.822 228.314 143.66 228.314C144.955 228.314 146.001 228.763 146.798 229.659C147.601 230.556 148.002 231.748 148.002 233.236V233.351C148.002 234.276 147.823 235.108 147.466 235.847C147.114 236.579 146.607 237.15 145.945 237.561C145.289 237.971 144.533 238.176 143.678 238.176C142.389 238.176 141.343 237.728 140.54 236.831C139.743 235.935 139.345 234.748 139.345 233.271V233.157ZM140.979 233.351C140.979 234.405 141.223 235.252 141.709 235.891C142.201 236.529 142.857 236.849 143.678 236.849C144.504 236.849 145.16 236.526 145.646 235.882C146.133 235.231 146.376 234.323 146.376 233.157C146.376 232.114 146.127 231.271 145.629 230.626C145.137 229.976 144.48 229.65 143.66 229.65C142.857 229.65 142.21 229.97 141.718 230.608C141.226 231.247 140.979 232.161 140.979 233.351ZM151.579 228.49L151.632 229.686C152.358 228.771 153.308 228.314 154.479 228.314C156.489 228.314 157.503 229.448 157.521 231.716V238H155.895V231.707C155.889 231.021 155.73 230.515 155.42 230.187C155.115 229.858 154.638 229.694 153.987 229.694C153.46 229.694 152.997 229.835 152.599 230.116C152.2 230.397 151.89 230.767 151.667 231.224V238H150.041V228.49H151.579Z" fill="black"/>
<path d="M31.835 351.166C31.835 349.707 32.1807 348.535 32.8721 347.65C33.5635 346.76 34.4687 346.314 35.5879 346.314C36.7012 346.314 37.583 346.695 38.2334 347.457V342.5H39.8594V356H38.3652L38.2861 354.98C37.6357 355.777 36.7305 356.176 35.5703 356.176C34.4687 356.176 33.5693 355.725 32.8721 354.822C32.1807 353.92 31.835 352.742 31.835 351.289V351.166ZM33.4609 351.351C33.4609 352.429 33.6836 353.272 34.1289 353.882C34.5742 354.491 35.1895 354.796 35.9746 354.796C37.0059 354.796 37.7588 354.333 38.2334 353.407V349.039C37.7471 348.143 37 347.694 35.9922 347.694C35.1953 347.694 34.5742 348.002 34.1289 348.617C33.6836 349.232 33.4609 350.144 33.4609 351.351ZM46.3369 356.176C45.0479 356.176 43.999 355.754 43.1904 354.91C42.3818 354.061 41.9775 352.927 41.9775 351.509V351.21C41.9775 350.267 42.1563 349.426 42.5137 348.688C42.877 347.943 43.3809 347.363 44.0254 346.947C44.6758 346.525 45.3789 346.314 46.1348 346.314C47.3711 346.314 48.332 346.722 49.0176 347.536C49.7031 348.351 50.0459 349.517 50.0459 351.034V351.711H43.6035C43.627 352.648 43.8994 353.407 44.4209 353.987C44.9482 354.562 45.6162 354.849 46.4248 354.849C46.999 354.849 47.4854 354.731 47.8838 354.497C48.2822 354.263 48.6309 353.952 48.9297 353.565L49.9229 354.339C49.126 355.563 47.9307 356.176 46.3369 356.176ZM46.1348 347.65C45.4785 347.65 44.9277 347.891 44.4824 348.371C44.0371 348.846 43.7617 349.514 43.6562 350.375H48.4199V350.252C48.373 349.426 48.1504 348.787 47.752 348.336C47.3535 347.879 46.8145 347.65 46.1348 347.65ZM55.75 354.849C56.3301 354.849 56.8369 354.673 57.2705 354.321C57.7041 353.97 57.9443 353.53 57.9912 353.003H59.5293C59.5 353.548 59.3125 354.066 58.9668 354.559C58.6211 355.051 58.1582 355.443 57.5781 355.736C57.0039 356.029 56.3945 356.176 55.75 356.176C54.4551 356.176 53.4238 355.745 52.6562 354.884C51.8945 354.017 51.5137 352.833 51.5137 351.333V351.061C51.5137 350.135 51.6836 349.312 52.0234 348.591C52.3633 347.87 52.8496 347.311 53.4824 346.912C54.1211 346.514 54.874 346.314 55.7412 346.314C56.8076 346.314 57.6924 346.634 58.3955 347.272C59.1045 347.911 59.4824 348.74 59.5293 349.76H57.9912C57.9443 349.145 57.71 348.641 57.2881 348.248C56.8721 347.85 56.3564 347.65 55.7412 347.65C54.915 347.65 54.2734 347.949 53.8164 348.547C53.3652 349.139 53.1396 349.997 53.1396 351.122V351.43C53.1396 352.525 53.3652 353.369 53.8164 353.961C54.2676 354.553 54.9121 354.849 55.75 354.849ZM63.124 356H61.498V346.49H63.124V356ZM61.3662 343.968C61.3662 343.704 61.4453 343.481 61.6035 343.3C61.7676 343.118 62.0078 343.027 62.3242 343.027C62.6406 343.027 62.8809 343.118 63.0449 343.3C63.209 343.481 63.291 343.704 63.291 343.968C63.291 344.231 63.209 344.451 63.0449 344.627C62.8809 344.803 62.6406 344.891 62.3242 344.891C62.0078 344.891 61.7676 344.803 61.6035 344.627C61.4453 344.451 61.3662 344.231 61.3662 343.968ZM71.2715 353.478C71.2715 353.038 71.1045 352.698 70.7705 352.458C70.4424 352.212 69.8652 352.001 69.0391 351.825C68.2187 351.649 67.5654 351.438 67.0791 351.192C66.5986 350.946 66.2412 350.653 66.0068 350.313C65.7783 349.974 65.6641 349.569 65.6641 349.101C65.6641 348.321 65.9922 347.662 66.6484 347.123C67.3105 346.584 68.1543 346.314 69.1797 346.314C70.2578 346.314 71.1309 346.593 71.7988 347.149C72.4727 347.706 72.8096 348.418 72.8096 349.285H71.1748C71.1748 348.84 70.9844 348.456 70.6035 348.134C70.2285 347.812 69.7539 347.65 69.1797 347.65C68.5879 347.65 68.125 347.779 67.791 348.037C67.457 348.295 67.29 348.632 67.29 349.048C67.29 349.44 67.4453 349.736 67.7559 349.936C68.0664 350.135 68.626 350.325 69.4346 350.507C70.249 350.688 70.9082 350.905 71.4121 351.157C71.916 351.409 72.2881 351.714 72.5283 352.071C72.7744 352.423 72.8975 352.854 72.8975 353.363C72.8975 354.213 72.5576 354.896 71.8779 355.411C71.1982 355.921 70.3164 356.176 69.2324 356.176C68.4707 356.176 67.7969 356.041 67.2109 355.771C66.625 355.502 66.165 355.127 65.8311 354.646C65.5029 354.16 65.3389 353.636 65.3389 353.073H66.9648C66.9941 353.618 67.2109 354.052 67.6152 354.374C68.0254 354.69 68.5645 354.849 69.2324 354.849C69.8477 354.849 70.3398 354.726 70.709 354.479C71.084 354.228 71.2715 353.894 71.2715 353.478ZM76.7822 356H75.1562V346.49H76.7822V356ZM75.0244 343.968C75.0244 343.704 75.1035 343.481 75.2617 343.3C75.4258 343.118 75.666 343.027 75.9824 343.027C76.2988 343.027 76.5391 343.118 76.7031 343.3C76.8672 343.481 76.9492 343.704 76.9492 343.968C76.9492 344.231 76.8672 344.451 76.7031 344.627C76.5391 344.803 76.2988 344.891 75.9824 344.891C75.666 344.891 75.4258 344.803 75.2617 344.627C75.1035 344.451 75.0244 344.231 75.0244 343.968ZM78.9619 351.157C78.9619 350.226 79.1436 349.388 79.5068 348.644C79.876 347.899 80.3857 347.325 81.0361 346.921C81.6924 346.517 82.4395 346.314 83.2773 346.314C84.5723 346.314 85.6182 346.763 86.415 347.659C87.2178 348.556 87.6191 349.748 87.6191 351.236V351.351C87.6191 352.276 87.4404 353.108 87.083 353.847C86.7314 354.579 86.2246 355.15 85.5625 355.561C84.9062 355.971 84.1504 356.176 83.2949 356.176C82.0059 356.176 80.96 355.728 80.1572 354.831C79.3604 353.935 78.9619 352.748 78.9619 351.271V351.157ZM80.5967 351.351C80.5967 352.405 80.8398 353.252 81.3262 353.891C81.8184 354.529 82.4746 354.849 83.2949 354.849C84.1211 354.849 84.7773 354.526 85.2637 353.882C85.75 353.231 85.9932 352.323 85.9932 351.157C85.9932 350.114 85.7441 349.271 85.2461 348.626C84.7539 347.976 84.0977 347.65 83.2773 347.65C82.4746 347.65 81.8271 347.97 81.335 348.608C80.8428 349.247 80.5967 350.161 80.5967 351.351ZM91.1963 346.49L91.249 347.686C91.9756 346.771 92.9248 346.314 94.0967 346.314C96.1064 346.314 97.1201 347.448 97.1377 349.716V356H95.5117V349.707C95.5059 349.021 95.3477 348.515 95.0371 348.187C94.7324 347.858 94.2549 347.694 93.6045 347.694C93.0771 347.694 92.6143 347.835 92.2158 348.116C91.8174 348.397 91.5068 348.767 91.2842 349.224V356H89.6582V346.49H91.1963ZM106.261 344.188V346.49H108.036V347.747H106.261V353.645C106.261 354.025 106.34 354.312 106.498 354.506C106.656 354.693 106.926 354.787 107.307 354.787C107.494 354.787 107.752 354.752 108.08 354.682V356C107.652 356.117 107.236 356.176 106.832 356.176C106.105 356.176 105.558 355.956 105.188 355.517C104.819 355.077 104.635 354.453 104.635 353.645V347.747H102.903V346.49H104.635V344.188H106.261ZM114.54 347.949C114.294 347.908 114.027 347.888 113.74 347.888C112.674 347.888 111.95 348.342 111.569 349.25V356H109.943V346.49H111.525L111.552 347.589C112.085 346.739 112.841 346.314 113.819 346.314C114.136 346.314 114.376 346.355 114.54 346.438V347.949ZM119.813 356.176C118.524 356.176 117.476 355.754 116.667 354.91C115.858 354.061 115.454 352.927 115.454 351.509V351.21C115.454 350.267 115.633 349.426 115.99 348.688C116.354 347.943 116.857 347.363 117.502 346.947C118.152 346.525 118.855 346.314 119.611 346.314C120.848 346.314 121.809 346.722 122.494 347.536C123.18 348.351 123.522 349.517 123.522 351.034V351.711H117.08C117.104 352.648 117.376 353.407 117.897 353.987C118.425 354.562 119.093 354.849 119.901 354.849C120.476 354.849 120.962 354.731 121.36 354.497C121.759 354.263 122.107 353.952 122.406 353.565L123.399 354.339C122.603 355.563 121.407 356.176 119.813 356.176ZM119.611 347.65C118.955 347.65 118.404 347.891 117.959 348.371C117.514 348.846 117.238 349.514 117.133 350.375H121.896V350.252C121.85 349.426 121.627 348.787 121.229 348.336C120.83 347.879 120.291 347.65 119.611 347.65ZM129.358 356.176C128.069 356.176 127.021 355.754 126.212 354.91C125.403 354.061 124.999 352.927 124.999 351.509V351.21C124.999 350.267 125.178 349.426 125.535 348.688C125.898 347.943 126.402 347.363 127.047 346.947C127.697 346.525 128.4 346.314 129.156 346.314C130.393 346.314 131.354 346.722 132.039 347.536C132.725 348.351 133.067 349.517 133.067 351.034V351.711H126.625C126.648 352.648 126.921 353.407 127.442 353.987C127.97 354.562 128.638 354.849 129.446 354.849C130.021 354.849 130.507 354.731 130.905 354.497C131.304 354.263 131.652 353.952 131.951 353.565L132.944 354.339C132.147 355.563 130.952 356.176 129.358 356.176ZM129.156 347.65C128.5 347.65 127.949 347.891 127.504 348.371C127.059 348.846 126.783 349.514 126.678 350.375H131.441V350.252C131.395 349.426 131.172 348.787 130.773 348.336C130.375 347.879 129.836 347.65 129.156 347.65ZM140.494 353.478C140.494 353.038 140.327 352.698 139.993 352.458C139.665 352.212 139.088 352.001 138.262 351.825C137.441 351.649 136.788 351.438 136.302 351.192C135.821 350.946 135.464 350.653 135.229 350.313C135.001 349.974 134.887 349.569 134.887 349.101C134.887 348.321 135.215 347.662 135.871 347.123C136.533 346.584 137.377 346.314 138.402 346.314C139.48 346.314 140.354 346.593 141.021 347.149C141.695 347.706 142.032 348.418 142.032 349.285H140.397C140.397 348.84 140.207 348.456 139.826 348.134C139.451 347.812 138.977 347.65 138.402 347.65C137.811 347.65 137.348 347.779 137.014 348.037C136.68 348.295 136.513 348.632 136.513 349.048C136.513 349.44 136.668 349.736 136.979 349.936C137.289 350.135 137.849 350.325 138.657 350.507C139.472 350.688 140.131 350.905 140.635 351.157C141.139 351.409 141.511 351.714 141.751 352.071C141.997 352.423 142.12 352.854 142.12 353.363C142.12 354.213 141.78 354.896 141.101 355.411C140.421 355.921 139.539 356.176 138.455 356.176C137.693 356.176 137.02 356.041 136.434 355.771C135.848 355.502 135.388 355.127 135.054 354.646C134.726 354.16 134.562 353.636 134.562 353.073H136.188C136.217 353.618 136.434 354.052 136.838 354.374C137.248 354.69 137.787 354.849 138.455 354.849C139.07 354.849 139.562 354.726 139.932 354.479C140.307 354.228 140.494 353.894 140.494 353.478ZM148.36 352.563C148.36 351.948 148.53 351.383 148.87 350.867C149.216 350.352 149.872 349.751 150.839 349.065C150.271 348.374 149.89 347.817 149.696 347.396C149.503 346.974 149.406 346.555 149.406 346.139C149.406 345.166 149.693 344.404 150.268 343.854C150.842 343.303 151.621 343.027 152.605 343.027C153.484 343.027 154.211 343.285 154.785 343.801C155.359 344.311 155.646 344.955 155.646 345.734C155.646 346.25 155.515 346.728 155.251 347.167C154.993 347.601 154.539 348.058 153.889 348.538L152.948 349.232L155.796 352.634C156.194 351.872 156.394 351.025 156.394 350.094H157.861C157.861 351.588 157.501 352.827 156.78 353.812L158.608 356H156.657L155.805 354.989C155.371 355.376 154.861 355.672 154.275 355.877C153.695 356.076 153.104 356.176 152.5 356.176C151.252 356.176 150.25 355.845 149.494 355.183C148.738 354.521 148.36 353.647 148.36 352.563ZM152.5 354.849C153.361 354.849 154.149 354.521 154.864 353.864L151.744 350.129L151.454 350.34C150.476 351.061 149.986 351.802 149.986 352.563C149.986 353.255 150.209 353.809 150.654 354.225C151.105 354.641 151.721 354.849 152.5 354.849ZM151.032 346.086C151.032 346.648 151.378 347.352 152.069 348.195L153.106 347.466C153.505 347.185 153.777 346.918 153.924 346.666C154.07 346.408 154.144 346.098 154.144 345.734C154.144 345.342 153.997 345.017 153.704 344.759C153.411 344.495 153.042 344.363 152.597 344.363C152.116 344.363 151.735 344.527 151.454 344.855C151.173 345.178 151.032 345.588 151.032 346.086ZM36.8271 368.949C36.5811 368.908 36.3145 368.888 36.0273 368.888C34.9609 368.888 34.2373 369.342 33.8564 370.25V377H32.2305V367.49H33.8125L33.8389 368.589C34.3721 367.739 35.1279 367.314 36.1064 367.314C36.4229 367.314 36.6631 367.355 36.8271 367.438V368.949ZM43.8496 377C43.7559 376.812 43.6797 376.479 43.6211 375.998C42.8652 376.783 41.9629 377.176 40.9141 377.176C39.9766 377.176 39.2061 376.912 38.6025 376.385C38.0049 375.852 37.7061 375.178 37.7061 374.363C37.7061 373.373 38.0811 372.605 38.8311 372.061C39.5869 371.51 40.6475 371.234 42.0127 371.234H43.5947V370.487C43.5947 369.919 43.4248 369.468 43.085 369.134C42.7451 368.794 42.2441 368.624 41.582 368.624C41.002 368.624 40.5156 368.771 40.123 369.063C39.7305 369.356 39.5342 369.711 39.5342 370.127H37.8994C37.8994 369.652 38.0664 369.195 38.4004 368.756C38.7402 368.311 39.1973 367.959 39.7715 367.701C40.3516 367.443 40.9873 367.314 41.6787 367.314C42.7744 367.314 43.6328 367.59 44.2539 368.141C44.875 368.686 45.1973 369.438 45.2207 370.399V374.776C45.2207 375.649 45.332 376.344 45.5547 376.859V377H43.8496ZM41.1514 375.761C41.6611 375.761 42.1445 375.629 42.6016 375.365C43.0586 375.102 43.3896 374.759 43.5947 374.337V372.386H42.3203C40.3281 372.386 39.332 372.969 39.332 374.135C39.332 374.645 39.502 375.043 39.8418 375.33C40.1816 375.617 40.6182 375.761 41.1514 375.761ZM49.3076 367.49L49.3604 368.686C50.0869 367.771 51.0361 367.314 52.208 367.314C54.2178 367.314 55.2314 368.448 55.249 370.716V377H53.623V370.707C53.6172 370.021 53.459 369.515 53.1484 369.187C52.8437 368.858 52.3662 368.694 51.7158 368.694C51.1885 368.694 50.7256 368.835 50.3271 369.116C49.9287 369.397 49.6182 369.767 49.3955 370.224V377H47.7695V367.49H49.3076ZM57.3057 372.166C57.3057 370.707 57.6514 369.535 58.3428 368.65C59.0342 367.76 59.9395 367.314 61.0586 367.314C62.1719 367.314 63.0537 367.695 63.7041 368.457V363.5H65.3301V377H63.8359L63.7568 375.98C63.1064 376.777 62.2012 377.176 61.041 377.176C59.9395 377.176 59.04 376.725 58.3428 375.822C57.6514 374.92 57.3057 373.742 57.3057 372.289V372.166ZM58.9316 372.351C58.9316 373.429 59.1543 374.272 59.5996 374.882C60.0449 375.491 60.6602 375.796 61.4453 375.796C62.4766 375.796 63.2295 375.333 63.7041 374.407V370.039C63.2178 369.143 62.4707 368.694 61.4629 368.694C60.666 368.694 60.0449 369.002 59.5996 369.617C59.1543 370.232 58.9316 371.144 58.9316 372.351ZM67.4307 372.157C67.4307 371.226 67.6123 370.388 67.9756 369.644C68.3447 368.899 68.8545 368.325 69.5049 367.921C70.1611 367.517 70.9082 367.314 71.7461 367.314C73.041 367.314 74.0869 367.763 74.8838 368.659C75.6865 369.556 76.0879 370.748 76.0879 372.236V372.351C76.0879 373.276 75.9092 374.108 75.5518 374.847C75.2002 375.579 74.6934 376.15 74.0312 376.561C73.375 376.971 72.6191 377.176 71.7637 377.176C70.4746 377.176 69.4287 376.728 68.626 375.831C67.8291 374.935 67.4307 373.748 67.4307 372.271V372.157ZM69.0654 372.351C69.0654 373.405 69.3086 374.252 69.7949 374.891C70.2871 375.529 70.9434 375.849 71.7637 375.849C72.5898 375.849 73.2461 375.526 73.7324 374.882C74.2187 374.231 74.4619 373.323 74.4619 372.157C74.4619 371.114 74.2129 370.271 73.7148 369.626C73.2227 368.976 72.5664 368.65 71.7461 368.65C70.9434 368.65 70.2959 368.97 69.8037 369.608C69.3115 370.247 69.0654 371.161 69.0654 372.351ZM79.6562 367.49L79.7002 368.545C80.3975 367.725 81.3379 367.314 82.5215 367.314C83.8516 367.314 84.7568 367.824 85.2373 368.844C85.5537 368.387 85.9639 368.018 86.4678 367.736C86.9775 367.455 87.5781 367.314 88.2695 367.314C90.3555 367.314 91.416 368.419 91.4512 370.628V377H89.8252V370.725C89.8252 370.045 89.6699 369.538 89.3594 369.204C89.0488 368.864 88.5273 368.694 87.7949 368.694C87.1914 368.694 86.6904 368.876 86.292 369.239C85.8936 369.597 85.6621 370.08 85.5977 370.689V377H83.9629V370.769C83.9629 369.386 83.2861 368.694 81.9326 368.694C80.8662 368.694 80.1367 369.148 79.7441 370.057V377H78.1182V367.49H79.6562ZM99.1768 377V368.747H97.6738V367.49H99.1768V366.515C99.1768 365.495 99.4492 364.707 99.9941 364.15C100.539 363.594 101.31 363.315 102.306 363.315C102.681 363.315 103.053 363.365 103.422 363.465L103.334 364.783C103.059 364.73 102.766 364.704 102.455 364.704C101.928 364.704 101.521 364.859 101.233 365.17C100.946 365.475 100.803 365.914 100.803 366.488V367.49H102.833V368.747H100.803V377H99.1768ZM104.204 372.157C104.204 371.226 104.386 370.388 104.749 369.644C105.118 368.899 105.628 368.325 106.278 367.921C106.935 367.517 107.682 367.314 108.52 367.314C109.814 367.314 110.86 367.763 111.657 368.659C112.46 369.556 112.861 370.748 112.861 372.236V372.351C112.861 373.276 112.683 374.108 112.325 374.847C111.974 375.579 111.467 376.15 110.805 376.561C110.148 376.971 109.393 377.176 108.537 377.176C107.248 377.176 106.202 376.728 105.399 375.831C104.603 374.935 104.204 373.748 104.204 372.271V372.157ZM105.839 372.351C105.839 373.405 106.082 374.252 106.568 374.891C107.061 375.529 107.717 375.849 108.537 375.849C109.363 375.849 110.02 375.526 110.506 374.882C110.992 374.231 111.235 373.323 111.235 372.157C111.235 371.114 110.986 370.271 110.488 369.626C109.996 368.976 109.34 368.65 108.52 368.65C107.717 368.65 107.069 368.97 106.577 369.608C106.085 370.247 105.839 371.161 105.839 372.351ZM119.497 368.949C119.251 368.908 118.984 368.888 118.697 368.888C117.631 368.888 116.907 369.342 116.526 370.25V377H114.9V367.49H116.482L116.509 368.589C117.042 367.739 117.798 367.314 118.776 367.314C119.093 367.314 119.333 367.355 119.497 367.438V368.949ZM124.771 377.176C123.481 377.176 122.433 376.754 121.624 375.91C120.815 375.061 120.411 373.927 120.411 372.509V372.21C120.411 371.267 120.59 370.426 120.947 369.688C121.311 368.943 121.814 368.363 122.459 367.947C123.109 367.525 123.812 367.314 124.568 367.314C125.805 367.314 126.766 367.722 127.451 368.536C128.137 369.351 128.479 370.517 128.479 372.034V372.711H122.037C122.061 373.648 122.333 374.407 122.854 374.987C123.382 375.562 124.05 375.849 124.858 375.849C125.433 375.849 125.919 375.731 126.317 375.497C126.716 375.263 127.064 374.952 127.363 374.565L128.356 375.339C127.56 376.563 126.364 377.176 124.771 377.176ZM124.568 368.65C123.912 368.65 123.361 368.891 122.916 369.371C122.471 369.846 122.195 370.514 122.09 371.375H126.854V371.252C126.807 370.426 126.584 369.787 126.186 369.336C125.787 368.879 125.248 368.65 124.568 368.65ZM135.906 374.478C135.906 374.038 135.739 373.698 135.405 373.458C135.077 373.212 134.5 373.001 133.674 372.825C132.854 372.649 132.2 372.438 131.714 372.192C131.233 371.946 130.876 371.653 130.642 371.313C130.413 370.974 130.299 370.569 130.299 370.101C130.299 369.321 130.627 368.662 131.283 368.123C131.945 367.584 132.789 367.314 133.814 367.314C134.893 367.314 135.766 367.593 136.434 368.149C137.107 368.706 137.444 369.418 137.444 370.285H135.81C135.81 369.84 135.619 369.456 135.238 369.134C134.863 368.812 134.389 368.65 133.814 368.65C133.223 368.65 132.76 368.779 132.426 369.037C132.092 369.295 131.925 369.632 131.925 370.048C131.925 370.44 132.08 370.736 132.391 370.936C132.701 371.135 133.261 371.325 134.069 371.507C134.884 371.688 135.543 371.905 136.047 372.157C136.551 372.409 136.923 372.714 137.163 373.071C137.409 373.423 137.532 373.854 137.532 374.363C137.532 375.213 137.192 375.896 136.513 376.411C135.833 376.921 134.951 377.176 133.867 377.176C133.105 377.176 132.432 377.041 131.846 376.771C131.26 376.502 130.8 376.127 130.466 375.646C130.138 375.16 129.974 374.636 129.974 374.073H131.6C131.629 374.618 131.846 375.052 132.25 375.374C132.66 375.69 133.199 375.849 133.867 375.849C134.482 375.849 134.975 375.726 135.344 375.479C135.719 375.228 135.906 374.894 135.906 374.478ZM141.856 365.188V367.49H143.632V368.747H141.856V374.645C141.856 375.025 141.936 375.312 142.094 375.506C142.252 375.693 142.521 375.787 142.902 375.787C143.09 375.787 143.348 375.752 143.676 375.682V377C143.248 377.117 142.832 377.176 142.428 377.176C141.701 377.176 141.153 376.956 140.784 376.517C140.415 376.077 140.23 375.453 140.23 374.645V368.747H138.499V367.49H140.23V365.188H141.856ZM151.076 374.478C151.076 374.038 150.909 373.698 150.575 373.458C150.247 373.212 149.67 373.001 148.844 372.825C148.023 372.649 147.37 372.438 146.884 372.192C146.403 371.946 146.046 371.653 145.812 371.313C145.583 370.974 145.469 370.569 145.469 370.101C145.469 369.321 145.797 368.662 146.453 368.123C147.115 367.584 147.959 367.314 148.984 367.314C150.063 367.314 150.936 367.593 151.604 368.149C152.277 368.706 152.614 369.418 152.614 370.285H150.979C150.979 369.84 150.789 369.456 150.408 369.134C150.033 368.812 149.559 368.65 148.984 368.65C148.393 368.65 147.93 368.779 147.596 369.037C147.262 369.295 147.095 369.632 147.095 370.048C147.095 370.44 147.25 370.736 147.561 370.936C147.871 371.135 148.431 371.325 149.239 371.507C150.054 371.688 150.713 371.905 151.217 372.157C151.721 372.409 152.093 372.714 152.333 373.071C152.579 373.423 152.702 373.854 152.702 374.363C152.702 375.213 152.362 375.896 151.683 376.411C151.003 376.921 150.121 377.176 149.037 377.176C148.275 377.176 147.602 377.041 147.016 376.771C146.43 376.502 145.97 376.127 145.636 375.646C145.308 375.16 145.144 374.636 145.144 374.073H146.77C146.799 374.618 147.016 375.052 147.42 375.374C147.83 375.69 148.369 375.849 149.037 375.849C149.652 375.849 150.145 375.726 150.514 375.479C150.889 375.228 151.076 374.894 151.076 374.478Z" fill="black"/>
<circle cx="313.5" cy="143.5" r="2.5" fill="#333333"/>
<circle cx="286.5" cy="151.5" r="2.5" fill="#333333"/>
<circle cx="332.5" cy="138.5" r="2.5" fill="#333333"/>
<circle cx="299.5" cy="149.5" r="2.5" fill="#333333"/>
<circle cx="313.5" cy="160.5" r="2.5" fill="#333333"/>
<circle cx="325.5" cy="151.5" r="2.5" fill="#333333"/>
<circle cx="273.5" cy="160.5" r="2.5" fill="#333333"/>
<circle cx="278.5" cy="171.5" r="2.5" fill="#333333"/>
<circle cx="290.5" cy="162.5" r="2.5" fill="#333333"/>
<circle cx="346.5" cy="119.5" r="2.5" fill="#333333"/>
<circle cx="346.5" cy="137.5" r="2.5" fill="#333333"/>
<circle cx="358.5" cy="128.5" r="2.5" fill="#333333"/>
<line x1="263.785" y1="170.548" x2="366.785" y2="121.548" stroke="#2F80ED"/>
<circle cx="328" cy="37" r="9.5" stroke="#219653"/>
<circle cx="328" cy="37" r="15.5" stroke="#219653"/>
<circle cx="327.5" cy="36.5" r="23" stroke="#219653"/>
<circle cx="327" cy="37" r="29.5" stroke="#219653"/>
<circle cx="326.5" cy="37.5" r="37" stroke="#219653"/>
<circle cx="320.5" cy="18.5" r="2.5" fill="#333333"/>
<circle cx="289.5" cy="35.5" r="2.5" fill="#333333"/>
<circle cx="331.5" cy="31.5" r="2.5" fill="#333333"/>
<circle cx="311.5" cy="33.5" r="2.5" fill="#333333"/>
<circle cx="308.5" cy="59.5" r="2.5" fill="#333333"/>
<circle cx="325.5" cy="50.5" r="2.5" fill="#333333"/>
<circle cx="282.5" cy="50.5" r="2.5" fill="#333333"/>
<circle cx="327.5" cy="66.5" r="2.5" fill="#333333"/>
<circle cx="290.5" cy="61.5" r="2.5" fill="#333333"/>
<circle cx="346.5" cy="18.5" r="2.5" fill="#333333"/>
<circle cx="344.5" cy="47.5" r="2.5" fill="#333333"/>
<circle cx="358.5" cy="27.5" r="2.5" fill="#333333"/>
<circle cx="377.602" cy="281.106" r="2.5" transform="rotate(16.4503 377.602 281.106)" fill="#219653"/>
<circle cx="374.425" cy="269.106" r="2.5" transform="rotate(16.4503 374.425 269.106)" fill="#219653"/>
<circle cx="295.259" cy="227.259" r="2.5" transform="rotate(22.1877 295.259 227.259)" fill="#EB5757"/>
<circle cx="393.425" cy="276.106" r="2.5" transform="rotate(16.4503 393.425 276.106)" fill="#219653"/>
<circle cx="385.788" cy="284.41" r="2.5" transform="rotate(16.4503 385.788 284.41)" fill="#219653"/>
<circle cx="378.282" cy="254.106" r="2.5" transform="rotate(16.4503 378.282 254.106)" fill="#219653"/>
<circle cx="375.106" cy="242.106" r="2.5" transform="rotate(16.4503 375.106 242.106)" fill="#219653"/>
<circle cx="394.106" cy="249.106" r="2.5" transform="rotate(16.4503 394.106 249.106)" fill="#219653"/>
<circle cx="386.468" cy="257.41" r="2.5" transform="rotate(16.4503 386.468 257.41)" fill="#219653"/>
<circle cx="343.282" cy="271.106" r="2.5" transform="rotate(16.4503 343.282 271.106)" fill="#219653"/>
<circle cx="340.106" cy="259.106" r="2.5" transform="rotate(16.4503 340.106 259.106)" fill="#219653"/>
<circle cx="359.106" cy="266.106" r="2.5" transform="rotate(16.4503 359.106 266.106)" fill="#219653"/>
<circle cx="351.468" cy="274.41" r="2.5" transform="rotate(16.4503 351.468 274.41)" fill="#219653"/>
<circle cx="287.259" cy="235.259" r="2.5" transform="rotate(22.1877 287.259 235.259)" fill="#EB5757"/>
<circle cx="353.425" cy="276.082" r="2.5" transform="rotate(16.4503 353.425 276.082)" fill="#219653"/>
<circle cx="349.106" cy="285.048" r="2.5" transform="rotate(16.4503 349.106 285.048)" fill="#219653"/>
<circle cx="363.163" cy="279.815" r="2.5" transform="rotate(16.4503 363.163 279.815)" fill="#219653"/>
<ellipse rx="2.07129" ry="2.04725" transform="matrix(0.960122 0.279581 -0.286823 0.957984 298.23 381.235)" fill="#EB5757"/>
<ellipse rx="2.07129" ry="2.04725" transform="matrix(0.960122 0.279581 -0.286823 0.957984 295.595 371.419)" fill="#EB5757"/>
<ellipse rx="2.07129" ry="2.04725" transform="matrix(0.960122 0.279581 -0.286823 0.957984 311.354 377.145)" fill="#EB5757"/>
<ellipse rx="2.07129" ry="2.04725" transform="matrix(0.960122 0.279581 -0.286823 0.957984 305.02 383.938)" fill="#EB5757"/>
<ellipse rx="2.07129" ry="2.04725" transform="matrix(0.960122 0.279581 -0.286823 0.957984 278.177 377.126)" fill="#EB5757"/>
<ellipse rx="2.07129" ry="2.04725" transform="matrix(0.960122 0.279581 -0.286823 0.957984 274.594 384.46)" fill="#EB5757"/>
<ellipse rx="2.07129" ry="2.04725" transform="matrix(0.960122 0.279581 -0.286823 0.957984 286.254 380.179)" fill="#EB5757"/>
<ellipse rx="2.07129" ry="2.04725" transform="matrix(0.960122 0.279581 -0.286823 0.957984 298.23 353.356)" fill="#F2C94C"/>
<ellipse rx="2.07129" ry="2.04725" transform="matrix(0.960122 0.279581 -0.286823 0.957984 295.595 343.54)" fill="#F2C94C"/>
<ellipse rx="2.07129" ry="2.04725" transform="matrix(0.960122 0.279581 -0.286823 0.957984 311.354 349.266)" fill="#F2C94C"/>
<ellipse rx="2.07129" ry="2.04725" transform="matrix(0.960122 0.279581 -0.286823 0.957984 305.02 356.059)" fill="#F2C94C"/>
<ellipse rx="2.07129" ry="2.04725" transform="matrix(0.960122 0.279581 -0.286823 0.957984 278.177 349.247)" fill="#F2C94C"/>
<ellipse rx="2.07129" ry="2.04725" transform="matrix(0.960122 0.279581 -0.286823 0.957984 274.594 356.581)" fill="#F2C94C"/>
<ellipse rx="2.07129" ry="2.04725" transform="matrix(0.960122 0.279581 -0.286823 0.957984 286.254 352.3)" fill="#F2C94C"/>
<ellipse rx="2.07129" ry="2.04725" transform="matrix(0.960122 0.279581 -0.286823 0.957984 351.318 353.356)" fill="#2F80ED"/>
<ellipse rx="2.07129" ry="2.04725" transform="matrix(0.960122 0.279581 -0.286823 0.957984 348.683 343.54)" fill="#2F80ED"/>
<ellipse rx="2.07129" ry="2.04725" transform="matrix(0.960122 0.279581 -0.286823 0.957984 364.443 349.266)" fill="#2F80ED"/>
<ellipse rx="2.07129" ry="2.04725" transform="matrix(0.960122 0.279581 -0.286823 0.957984 358.108 356.059)" fill="#2F80ED"/>
<ellipse rx="2.07129" ry="2.04725" transform="matrix(0.960122 0.279581 -0.286823 0.957984 331.266 349.247)" fill="#2F80ED"/>
<ellipse rx="2.07129" ry="2.04725" transform="matrix(0.960122 0.279581 -0.286823 0.957984 327.683 356.581)" fill="#2F80ED"/>
<ellipse rx="2.07129" ry="2.04725" transform="matrix(0.960122 0.279581 -0.286823 0.957984 339.342 352.3)" fill="#2F80ED"/>
<ellipse rx="2.07129" ry="2.04725" transform="matrix(0.960122 0.279581 -0.286823 0.957984 351.318 381.235)" fill="#219653"/>
<ellipse rx="2.07129" ry="2.04725" transform="matrix(0.960122 0.279581 -0.286823 0.957984 348.683 371.419)" fill="#219653"/>
<ellipse rx="2.07129" ry="2.04725" transform="matrix(0.960122 0.279581 -0.286823 0.957984 364.443 377.145)" fill="#219653"/>
<ellipse rx="2.07129" ry="2.04725" transform="matrix(0.960122 0.279581 -0.286823 0.957984 358.108 383.938)" fill="#219653"/>
<ellipse rx="2.07129" ry="2.04725" transform="matrix(0.960122 0.279581 -0.286823 0.957984 331.266 377.126)" fill="#219653"/>
<ellipse rx="2.07129" ry="2.04725" transform="matrix(0.960122 0.279581 -0.286823 0.957984 327.683 384.46)" fill="#219653"/>
<ellipse rx="2.07129" ry="2.04725" transform="matrix(0.960122 0.279581 -0.286823 0.957984 339.342 380.179)" fill="#219653"/>
<circle cx="316.259" cy="228.259" r="2.5" transform="rotate(22.1877 316.259 228.259)" fill="#EB5757"/>
<circle cx="307.259" cy="231.259" r="2.5" transform="rotate(22.1877 307.259 231.259)" fill="#EB5757"/>
<circle cx="328.259" cy="233.259" r="2.5" transform="rotate(22.1877 328.259 233.259)" fill="#EB5757"/>
<circle cx="280.259" cy="248.259" r="2.5" transform="rotate(22.1877 280.259 248.259)" fill="#EB5757"/>
<circle cx="272.259" cy="256.259" r="2.5" transform="rotate(22.1877 272.259 256.259)" fill="#EB5757"/>
<circle cx="301.259" cy="249.259" r="2.5" transform="rotate(22.1877 301.259 249.259)" fill="#EB5757"/>
<circle cx="292.259" cy="252.259" r="2.5" transform="rotate(22.1877 292.259 252.259)" fill="#EB5757"/>
<circle cx="313.259" cy="254.259" r="2.5" transform="rotate(22.1877 313.259 254.259)" fill="#EB5757"/>
<rect x="326" y="35" width="5" height="5" fill="#2F80ED"/>
<ellipse cx="601.767" cy="348.421" rx="4.43333" ry="4.42105" fill="black"/>
<ellipse cx="615.7" cy="367.368" rx="4.43333" ry="4.42105" fill="black"/>
<ellipse cx="585.3" cy="367.368" rx="4.43333" ry="4.42105" fill="black"/>
<ellipse cx="575.433" cy="387.579" rx="4.43333" ry="4.42105" fill="#F2C94C"/>
<line y1="-0.5" x2="17.0201" y2="-0.5" transform="matrix(-0.744216 0.667939 -0.669989 -0.742371 598.6 351.579)" stroke="black"/>
<line y1="-0.5" x2="14.1304" y2="-0.5" transform="matrix(-0.448207 0.89393 -0.894922 -0.446222 582.133 370.526)" stroke="black"/>
<line y1="-0.5" x2="14.1304" y2="-0.5" transform="matrix(0.448207 0.89393 -0.894922 0.446222 585.933 371.789)" stroke="black"/>
<ellipse cx="592.9" cy="387.579" rx="4.43333" ry="4.42105" fill="#2F80ED"/>
<ellipse cx="608.1" cy="387.579" rx="4.43333" ry="4.42105" fill="#EB5757"/>
<line y1="-0.5" x2="14.1304" y2="-0.5" transform="matrix(-0.448207 0.89393 -0.894922 -0.446222 613.8 370.526)" stroke="black"/>
<line y1="-0.5" x2="15.8374" y2="-0.5" transform="matrix(0.479876 0.877336 -0.878453 0.477829 616.333 370.526)" stroke="black"/>
<ellipse cx="624.567" cy="387.579" rx="4.43333" ry="4.42105" fill="#219653"/>
<line y1="-0.5" x2="17.0152" y2="-0.5" transform="matrix(0.669989 0.742371 -0.744216 0.667939 603.667 351.579)" stroke="black"/>
<line x1="264.5" y1="14" x2="264.5" y2="83" stroke="black"/>
<line x1="264" y1="82.5" x2="367" y2="82.5" stroke="black"/>
<line x1="264.5" y1="109" x2="264.5" y2="181" stroke="black"/>
<line x1="264.5" y1="224" x2="264.5" y2="296" stroke="black"/>
<line x1="265" y1="180.5" x2="366" y2="180.5" stroke="black"/>
<line x1="265" y1="295.5" x2="404" y2="295.5" stroke="black"/>
<line x1="266.518" y1="339.009" x2="265.5" y2="394.009" stroke="black"/>
<line x1="265.018" y1="393.5" x2="379.018" y2="393.5" stroke="black"/>
<path d="M589.533 23H587.837L581.395 13.1387V23H579.698V10.2031H581.395L587.854 20.1084V10.2031H589.533V23ZM591.845 18.1572C591.845 17.2256 592.026 16.3877 592.39 15.6436C592.759 14.8994 593.269 14.3252 593.919 13.9209C594.575 13.5166 595.322 13.3145 596.16 13.3145C597.455 13.3145 598.501 13.7627 599.298 14.6592C600.101 15.5557 600.502 16.748 600.502 18.2363V18.3506C600.502 19.2764 600.323 20.1084 599.966 20.8467C599.614 21.5791 599.107 22.1504 598.445 22.5605C597.789 22.9707 597.033 23.1758 596.178 23.1758C594.889 23.1758 593.843 22.7275 593.04 21.8311C592.243 20.9346 591.845 19.748 591.845 18.2715V18.1572ZM593.479 18.3506C593.479 19.4053 593.723 20.252 594.209 20.8906C594.701 21.5293 595.357 21.8486 596.178 21.8486C597.004 21.8486 597.66 21.5264 598.146 20.8818C598.633 20.2314 598.876 19.3232 598.876 18.1572C598.876 17.1143 598.627 16.2705 598.129 15.626C597.637 14.9756 596.98 14.6504 596.16 14.6504C595.357 14.6504 594.71 14.9697 594.218 15.6084C593.726 16.2471 593.479 17.1611 593.479 18.3506ZM604.079 13.4902L604.132 14.6855C604.858 13.7715 605.808 13.3145 606.979 13.3145C608.989 13.3145 610.003 14.4482 610.021 16.7158V23H608.395V16.707C608.389 16.0215 608.23 15.5146 607.92 15.1865C607.615 14.8584 607.138 14.6943 606.487 14.6943C605.96 14.6943 605.497 14.835 605.099 15.1162C604.7 15.3975 604.39 15.7666 604.167 16.2236V23H602.541V13.4902H604.079ZM616.419 23.1758C615.13 23.1758 614.081 22.7539 613.272 21.9102C612.464 21.0605 612.06 19.9268 612.06 18.5088V18.21C612.06 17.2666 612.238 16.4258 612.596 15.6875C612.959 14.9434 613.463 14.3633 614.107 13.9473C614.758 13.5254 615.461 13.3145 616.217 13.3145C617.453 13.3145 618.414 13.7217 619.1 14.5361C619.785 15.3506 620.128 16.5166 620.128 18.0342V18.7109H613.686C613.709 19.6484 613.981 20.4072 614.503 20.9873C615.03 21.5615 615.698 21.8486 616.507 21.8486C617.081 21.8486 617.567 21.7314 617.966 21.4971C618.364 21.2627 618.713 20.9521 619.012 20.5654L620.005 21.3389C619.208 22.5635 618.013 23.1758 616.419 23.1758ZM616.217 14.6504C615.561 14.6504 615.01 14.8906 614.564 15.3711C614.119 15.8457 613.844 16.5137 613.738 17.375H618.502V17.252C618.455 16.4258 618.232 15.7871 617.834 15.3359C617.436 14.8789 616.896 14.6504 616.217 14.6504ZM550.835 38.8057C550.835 37.4814 551.011 36.21 551.362 34.9912C551.72 33.7725 552.25 32.665 552.953 31.6689C553.656 30.6729 554.386 29.9697 555.142 29.5596L555.476 30.6318C554.62 31.2881 553.917 32.29 553.366 33.6377C552.821 34.9854 552.522 36.4941 552.47 38.1641L552.461 38.9111C552.461 41.1729 552.874 43.1357 553.7 44.7998C554.198 45.7959 554.79 46.5752 555.476 47.1377L555.142 48.1309C554.362 47.6973 553.618 46.9707 552.909 45.9512C551.526 43.959 550.835 41.5771 550.835 38.8057ZM558.587 34.4902L558.64 35.6855C559.366 34.7715 560.315 34.3145 561.487 34.3145C563.497 34.3145 564.511 35.4482 564.528 37.7158V44H562.902V37.707C562.896 37.0215 562.738 36.5146 562.428 36.1865C562.123 35.8584 561.646 35.6943 560.995 35.6943C560.468 35.6943 560.005 35.835 559.606 36.1162C559.208 36.3975 558.897 36.7666 558.675 37.2236V44H557.049V34.4902H558.587ZM566.55 39.1572C566.55 38.2256 566.731 37.3877 567.095 36.6436C567.464 35.8994 567.974 35.3252 568.624 34.9209C569.28 34.5166 570.027 34.3145 570.865 34.3145C572.16 34.3145 573.206 34.7627 574.003 35.6592C574.806 36.5557 575.207 37.748 575.207 39.2363V39.3506C575.207 40.2764 575.028 41.1084 574.671 41.8467C574.319 42.5791 573.812 43.1504 573.15 43.5605C572.494 43.9707 571.738 44.1758 570.883 44.1758C569.594 44.1758 568.548 43.7275 567.745 42.8311C566.948 41.9346 566.55 40.748 566.55 39.2715V39.1572ZM568.185 39.3506C568.185 40.4053 568.428 41.252 568.914 41.8906C569.406 42.5293 570.062 42.8486 570.883 42.8486C571.709 42.8486 572.365 42.5264 572.852 41.8818C573.338 41.2314 573.581 40.3232 573.581 39.1572C573.581 38.1143 573.332 37.2705 572.834 36.626C572.342 35.9756 571.686 35.6504 570.865 35.6504C570.062 35.6504 569.415 35.9697 568.923 36.6084C568.431 37.2471 568.185 38.1611 568.185 39.3506ZM578.784 34.4902L578.837 35.6855C579.563 34.7715 580.513 34.3145 581.685 34.3145C583.694 34.3145 584.708 35.4482 584.726 37.7158V44H583.1V37.707C583.094 37.0215 582.936 36.5146 582.625 36.1865C582.32 35.8584 581.843 35.6943 581.192 35.6943C580.665 35.6943 580.202 35.835 579.804 36.1162C579.405 36.3975 579.095 36.7666 578.872 37.2236V44H577.246V34.4902H578.784ZM591.124 44.1758C589.835 44.1758 588.786 43.7539 587.978 42.9102C587.169 42.0605 586.765 40.9268 586.765 39.5088V39.21C586.765 38.2666 586.943 37.4258 587.301 36.6875C587.664 35.9434 588.168 35.3633 588.812 34.9473C589.463 34.5254 590.166 34.3145 590.922 34.3145C592.158 34.3145 593.119 34.7217 593.805 35.5361C594.49 36.3506 594.833 37.5166 594.833 39.0342V39.7109H588.391C588.414 40.6484 588.687 41.4072 589.208 41.9873C589.735 42.5615 590.403 42.8486 591.212 42.8486C591.786 42.8486 592.272 42.7314 592.671 42.4971C593.069 42.2627 593.418 41.9521 593.717 41.5654L594.71 42.3389C593.913 43.5635 592.718 44.1758 591.124 44.1758ZM590.922 35.6504C590.266 35.6504 589.715 35.8906 589.27 36.3711C588.824 36.8457 588.549 37.5137 588.443 38.375H593.207V38.252C593.16 37.4258 592.937 36.7871 592.539 36.3359C592.141 35.8789 591.602 35.6504 590.922 35.6504ZM599.913 37.9619L602.022 34.4902H603.921L600.81 39.1924L604.018 44H602.137L599.939 40.4404L597.742 44H595.853L599.061 39.1924L595.949 34.4902H597.83L599.913 37.9619ZM607.419 44H605.793V34.4902H607.419V44ZM605.661 31.9678C605.661 31.7041 605.74 31.4814 605.898 31.2998C606.063 31.1182 606.303 31.0273 606.619 31.0273C606.936 31.0273 607.176 31.1182 607.34 31.2998C607.504 31.4814 607.586 31.7041 607.586 31.9678C607.586 32.2314 607.504 32.4512 607.34 32.627C607.176 32.8027 606.936 32.8906 606.619 32.8906C606.303 32.8906 606.063 32.8027 605.898 32.627C605.74 32.4512 605.661 32.2314 605.661 31.9678ZM615.566 41.4775C615.566 41.0381 615.399 40.6982 615.065 40.458C614.737 40.2119 614.16 40.001 613.334 39.8252C612.514 39.6494 611.86 39.4385 611.374 39.1924C610.894 38.9463 610.536 38.6533 610.302 38.3135C610.073 37.9736 609.959 37.5693 609.959 37.1006C609.959 36.3213 610.287 35.6621 610.943 35.123C611.605 34.584 612.449 34.3145 613.475 34.3145C614.553 34.3145 615.426 34.5928 616.094 35.1494C616.768 35.7061 617.104 36.418 617.104 37.2852H615.47C615.47 36.8398 615.279 36.4561 614.898 36.1338C614.523 35.8115 614.049 35.6504 613.475 35.6504C612.883 35.6504 612.42 35.7793 612.086 36.0371C611.752 36.2949 611.585 36.6318 611.585 37.0479C611.585 37.4404 611.74 37.7363 612.051 37.9355C612.361 38.1348 612.921 38.3252 613.729 38.5068C614.544 38.6885 615.203 38.9053 615.707 39.1572C616.211 39.4092 616.583 39.7139 616.823 40.0713C617.069 40.4229 617.192 40.8535 617.192 41.3633C617.192 42.2129 616.853 42.8955 616.173 43.4111C615.493 43.9209 614.611 44.1758 613.527 44.1758C612.766 44.1758 612.092 44.041 611.506 43.7715C610.92 43.502 610.46 43.127 610.126 42.6465C609.798 42.1602 609.634 41.6357 609.634 41.0732H611.26C611.289 41.6182 611.506 42.0518 611.91 42.374C612.32 42.6904 612.859 42.8486 613.527 42.8486C614.143 42.8486 614.635 42.7256 615.004 42.4795C615.379 42.2275 615.566 41.8936 615.566 41.4775ZM621.517 32.1875V34.4902H623.292V35.7471H621.517V41.6445C621.517 42.0254 621.596 42.3125 621.754 42.5059C621.912 42.6934 622.182 42.7871 622.562 42.7871C622.75 42.7871 623.008 42.752 623.336 42.6816V44C622.908 44.1172 622.492 44.1758 622.088 44.1758C621.361 44.1758 620.813 43.9561 620.444 43.5166C620.075 43.0771 619.891 42.4531 619.891 41.6445V35.7471H618.159V34.4902H619.891V32.1875H621.517ZM629.146 44.1758C627.856 44.1758 626.808 43.7539 625.999 42.9102C625.19 42.0605 624.786 40.9268 624.786 39.5088V39.21C624.786 38.2666 624.965 37.4258 625.322 36.6875C625.686 35.9434 626.189 35.3633 626.834 34.9473C627.484 34.5254 628.188 34.3145 628.943 34.3145C630.18 34.3145 631.141 34.7217 631.826 35.5361C632.512 36.3506 632.854 37.5166 632.854 39.0342V39.7109H626.412C626.436 40.6484 626.708 41.4072 627.229 41.9873C627.757 42.5615 628.425 42.8486 629.233 42.8486C629.808 42.8486 630.294 42.7314 630.692 42.4971C631.091 42.2627 631.439 41.9521 631.738 41.5654L632.731 42.3389C631.935 43.5635 630.739 44.1758 629.146 44.1758ZM628.943 35.6504C628.287 35.6504 627.736 35.8906 627.291 36.3711C626.846 36.8457 626.57 37.5137 626.465 38.375H631.229V38.252C631.182 37.4258 630.959 36.7871 630.561 36.3359C630.162 35.8789 629.623 35.6504 628.943 35.6504ZM636.282 34.4902L636.335 35.6855C637.062 34.7715 638.011 34.3145 639.183 34.3145C641.192 34.3145 642.206 35.4482 642.224 37.7158V44H640.598V37.707C640.592 37.0215 640.434 36.5146 640.123 36.1865C639.818 35.8584 639.341 35.6943 638.69 35.6943C638.163 35.6943 637.7 35.835 637.302 36.1162C636.903 36.3975 636.593 36.7666 636.37 37.2236V44H634.744V34.4902H636.282ZM646.882 32.1875V34.4902H648.657V35.7471H646.882V41.6445C646.882 42.0254 646.961 42.3125 647.119 42.5059C647.277 42.6934 647.547 42.7871 647.928 42.7871C648.115 42.7871 648.373 42.752 648.701 42.6816V44C648.273 44.1172 647.857 44.1758 647.453 44.1758C646.727 44.1758 646.179 43.9561 645.81 43.5166C645.44 43.0771 645.256 42.4531 645.256 41.6445V35.7471H643.524V34.4902H645.256V32.1875H646.882ZM535.586 53.1875V55.4902H537.361V56.7471H535.586V62.6445C535.586 63.0254 535.665 63.3125 535.823 63.5059C535.981 63.6934 536.251 63.7871 536.632 63.7871C536.819 63.7871 537.077 63.752 537.405 63.6816V65C536.978 65.1172 536.562 65.1758 536.157 65.1758C535.431 65.1758 534.883 64.9561 534.514 64.5166C534.145 64.0771 533.96 63.4531 533.96 62.6445V56.7471H532.229V55.4902H533.96V53.1875H535.586ZM543.865 56.9492C543.619 56.9082 543.353 56.8877 543.065 56.8877C541.999 56.8877 541.275 57.3418 540.895 58.25V65H539.269V55.4902H540.851L540.877 56.5889C541.41 55.7393 542.166 55.3145 543.145 55.3145C543.461 55.3145 543.701 55.3555 543.865 55.4375V56.9492ZM550.888 65C550.794 64.8125 550.718 64.4785 550.659 63.998C549.903 64.7832 549.001 65.1758 547.952 65.1758C547.015 65.1758 546.244 64.9121 545.641 64.3848C545.043 63.8516 544.744 63.1777 544.744 62.3633C544.744 61.373 545.119 60.6055 545.869 60.0605C546.625 59.5098 547.686 59.2344 549.051 59.2344H550.633V58.4873C550.633 57.9189 550.463 57.4678 550.123 57.1338C549.783 56.7939 549.282 56.624 548.62 56.624C548.04 56.624 547.554 56.7705 547.161 57.0635C546.769 57.3564 546.572 57.7109 546.572 58.127H544.938C544.938 57.6523 545.104 57.1953 545.438 56.7559C545.778 56.3105 546.235 55.959 546.81 55.7012C547.39 55.4434 548.025 55.3145 548.717 55.3145C549.813 55.3145 550.671 55.5898 551.292 56.1406C551.913 56.6855 552.235 57.4385 552.259 58.3994V62.7764C552.259 63.6494 552.37 64.3438 552.593 64.8594V65H550.888ZM548.189 63.7607C548.699 63.7607 549.183 63.6289 549.64 63.3652C550.097 63.1016 550.428 62.7588 550.633 62.3369V60.3857H549.358C547.366 60.3857 546.37 60.9688 546.37 62.1348C546.37 62.6445 546.54 63.043 546.88 63.3301C547.22 63.6172 547.656 63.7607 548.189 63.7607ZM556.574 65H554.948V55.4902H556.574V65ZM554.816 52.9678C554.816 52.7041 554.896 52.4814 555.054 52.2998C555.218 52.1182 555.458 52.0273 555.774 52.0273C556.091 52.0273 556.331 52.1182 556.495 52.2998C556.659 52.4814 556.741 52.7041 556.741 52.9678C556.741 53.2314 556.659 53.4512 556.495 53.627C556.331 53.8027 556.091 53.8906 555.774 53.8906C555.458 53.8906 555.218 53.8027 555.054 53.627C554.896 53.4512 554.816 53.2314 554.816 52.9678ZM560.723 55.4902L560.775 56.6855C561.502 55.7715 562.451 55.3145 563.623 55.3145C565.633 55.3145 566.646 56.4482 566.664 58.7158V65H565.038V58.707C565.032 58.0215 564.874 57.5146 564.563 57.1865C564.259 56.8584 563.781 56.6943 563.131 56.6943C562.604 56.6943 562.141 56.835 561.742 57.1162C561.344 57.3975 561.033 57.7666 560.811 58.2236V65H559.185V55.4902H560.723ZM570.883 65H569.257V55.4902H570.883V65ZM569.125 52.9678C569.125 52.7041 569.204 52.4814 569.362 52.2998C569.526 52.1182 569.767 52.0273 570.083 52.0273C570.399 52.0273 570.64 52.1182 570.804 52.2998C570.968 52.4814 571.05 52.7041 571.05 52.9678C571.05 53.2314 570.968 53.4512 570.804 53.627C570.64 53.8027 570.399 53.8906 570.083 53.8906C569.767 53.8906 569.526 53.8027 569.362 53.627C569.204 53.4512 569.125 53.2314 569.125 52.9678ZM575.031 55.4902L575.084 56.6855C575.811 55.7715 576.76 55.3145 577.932 55.3145C579.941 55.3145 580.955 56.4482 580.973 58.7158V65H579.347V58.707C579.341 58.0215 579.183 57.5146 578.872 57.1865C578.567 56.8584 578.09 56.6943 577.439 56.6943C576.912 56.6943 576.449 56.835 576.051 57.1162C575.652 57.3975 575.342 57.7666 575.119 58.2236V65H573.493V55.4902H575.031ZM583.038 60.166C583.038 58.6836 583.381 57.5059 584.066 56.6328C584.752 55.7539 585.66 55.3145 586.791 55.3145C587.951 55.3145 588.856 55.7246 589.507 56.5449L589.586 55.4902H591.071V64.7715C591.071 66.002 590.705 66.9717 589.973 67.6807C589.246 68.3896 588.268 68.7441 587.037 68.7441C586.352 68.7441 585.681 68.5977 585.024 68.3047C584.368 68.0117 583.867 67.6104 583.521 67.1006L584.365 66.125C585.063 66.9863 585.915 67.417 586.923 67.417C587.714 67.417 588.329 67.1943 588.769 66.749C589.214 66.3037 589.437 65.6768 589.437 64.8682V64.0508C588.786 64.8008 587.898 65.1758 586.773 65.1758C585.66 65.1758 584.758 64.7275 584.066 63.8311C583.381 62.9346 583.038 61.7129 583.038 60.166ZM584.673 60.3506C584.673 61.4229 584.893 62.2666 585.332 62.8818C585.771 63.4912 586.387 63.7959 587.178 63.7959C588.203 63.7959 588.956 63.3301 589.437 62.3984V58.0566C588.938 57.1484 588.191 56.6943 587.195 56.6943C586.404 56.6943 585.786 57.002 585.341 57.6172C584.896 58.2324 584.673 59.1436 584.673 60.3506ZM606.03 60.3506C606.03 61.7979 605.699 62.9639 605.037 63.8486C604.375 64.7334 603.479 65.1758 602.348 65.1758C601.193 65.1758 600.285 64.8096 599.623 64.0771V68.6562H597.997V55.4902H599.482L599.562 56.5449C600.224 55.7246 601.144 55.3145 602.321 55.3145C603.464 55.3145 604.366 55.7451 605.028 56.6064C605.696 57.4678 606.03 58.666 606.03 60.2012V60.3506ZM604.404 60.166C604.404 59.0938 604.176 58.2471 603.719 57.626C603.262 57.0049 602.635 56.6943 601.838 56.6943C600.854 56.6943 600.115 57.1309 599.623 58.0039V62.5479C600.109 63.415 600.854 63.8486 601.855 63.8486C602.635 63.8486 603.253 63.541 603.71 62.9258C604.173 62.3047 604.404 61.3848 604.404 60.166ZM612.701 56.9492C612.455 56.9082 612.188 56.8877 611.901 56.8877C610.835 56.8877 610.111 57.3418 609.73 58.25V65H608.104V55.4902H609.687L609.713 56.5889C610.246 55.7393 611.002 55.3145 611.98 55.3145C612.297 55.3145 612.537 55.3555 612.701 55.4375V56.9492ZM613.598 60.1572C613.598 59.2256 613.779 58.3877 614.143 57.6436C614.512 56.8994 615.021 56.3252 615.672 55.9209C616.328 55.5166 617.075 55.3145 617.913 55.3145C619.208 55.3145 620.254 55.7627 621.051 56.6592C621.854 57.5557 622.255 58.748 622.255 60.2363V60.3506C622.255 61.2764 622.076 62.1084 621.719 62.8467C621.367 63.5791 620.86 64.1504 620.198 64.5605C619.542 64.9707 618.786 65.1758 617.931 65.1758C616.642 65.1758 615.596 64.7275 614.793 63.8311C613.996 62.9346 613.598 61.748 613.598 60.2715V60.1572ZM615.232 60.3506C615.232 61.4053 615.476 62.252 615.962 62.8906C616.454 63.5293 617.11 63.8486 617.931 63.8486C618.757 63.8486 619.413 63.5264 619.899 62.8818C620.386 62.2314 620.629 61.3232 620.629 60.1572C620.629 59.1143 620.38 58.2705 619.882 57.626C619.39 56.9756 618.733 56.6504 617.913 56.6504C617.11 56.6504 616.463 56.9697 615.971 57.6084C615.479 58.2471 615.232 59.1611 615.232 60.3506ZM628.108 63.8486C628.688 63.8486 629.195 63.6729 629.629 63.3213C630.062 62.9697 630.303 62.5303 630.35 62.0029H631.888C631.858 62.5479 631.671 63.0664 631.325 63.5586C630.979 64.0508 630.517 64.4434 629.937 64.7363C629.362 65.0293 628.753 65.1758 628.108 65.1758C626.813 65.1758 625.782 64.7451 625.015 63.8838C624.253 63.0166 623.872 61.833 623.872 60.333V60.0605C623.872 59.1348 624.042 58.3115 624.382 57.5908C624.722 56.8701 625.208 56.3105 625.841 55.9121C626.479 55.5137 627.232 55.3145 628.1 55.3145C629.166 55.3145 630.051 55.6338 630.754 56.2725C631.463 56.9111 631.841 57.7402 631.888 58.7598H630.35C630.303 58.1445 630.068 57.6406 629.646 57.248C629.23 56.8496 628.715 56.6504 628.1 56.6504C627.273 56.6504 626.632 56.9492 626.175 57.5469C625.724 58.1387 625.498 58.9971 625.498 60.1221V60.4297C625.498 61.5254 625.724 62.3691 626.175 62.9609C626.626 63.5527 627.271 63.8486 628.108 63.8486ZM637.662 65.1758C636.373 65.1758 635.324 64.7539 634.516 63.9102C633.707 63.0605 633.303 61.9268 633.303 60.5088V60.21C633.303 59.2666 633.481 58.4258 633.839 57.6875C634.202 56.9434 634.706 56.3633 635.351 55.9473C636.001 55.5254 636.704 55.3145 637.46 55.3145C638.696 55.3145 639.657 55.7217 640.343 56.5361C641.028 57.3506 641.371 58.5166 641.371 60.0342V60.7109H634.929C634.952 61.6484 635.225 62.4072 635.746 62.9873C636.273 63.5615 636.941 63.8486 637.75 63.8486C638.324 63.8486 638.811 63.7314 639.209 63.4971C639.607 63.2627 639.956 62.9521 640.255 62.5654L641.248 63.3389C640.451 64.5635 639.256 65.1758 637.662 65.1758ZM637.46 56.6504C636.804 56.6504 636.253 56.8906 635.808 57.3711C635.362 57.8457 635.087 58.5137 634.981 59.375H639.745V59.252C639.698 58.4258 639.476 57.7871 639.077 57.3359C638.679 56.8789 638.14 56.6504 637.46 56.6504ZM648.798 62.4775C648.798 62.0381 648.631 61.6982 648.297 61.458C647.969 61.2119 647.392 61.001 646.565 60.8252C645.745 60.6494 645.092 60.4385 644.605 60.1924C644.125 59.9463 643.768 59.6533 643.533 59.3135C643.305 58.9736 643.19 58.5693 643.19 58.1006C643.19 57.3213 643.519 56.6621 644.175 56.123C644.837 55.584 645.681 55.3145 646.706 55.3145C647.784 55.3145 648.657 55.5928 649.325 56.1494C649.999 56.7061 650.336 57.418 650.336 58.2852H648.701C648.701 57.8398 648.511 57.4561 648.13 57.1338C647.755 56.8115 647.28 56.6504 646.706 56.6504C646.114 56.6504 645.651 56.7793 645.317 57.0371C644.983 57.2949 644.816 57.6318 644.816 58.0479C644.816 58.4404 644.972 58.7363 645.282 58.9355C645.593 59.1348 646.152 59.3252 646.961 59.5068C647.775 59.6885 648.435 59.9053 648.938 60.1572C649.442 60.4092 649.814 60.7139 650.055 61.0713C650.301 61.4229 650.424 61.8535 650.424 62.3633C650.424 63.2129 650.084 63.8955 649.404 64.4111C648.725 64.9209 647.843 65.1758 646.759 65.1758C645.997 65.1758 645.323 65.041 644.737 64.7715C644.151 64.502 643.691 64.127 643.357 63.6465C643.029 63.1602 642.865 62.6357 642.865 62.0732H644.491C644.521 62.6182 644.737 63.0518 645.142 63.374C645.552 63.6904 646.091 63.8486 646.759 63.8486C647.374 63.8486 647.866 63.7256 648.235 63.4795C648.61 63.2275 648.798 62.8936 648.798 62.4775ZM658.079 62.4775C658.079 62.0381 657.912 61.6982 657.578 61.458C657.25 61.2119 656.673 61.001 655.847 60.8252C655.026 60.6494 654.373 60.4385 653.887 60.1924C653.406 59.9463 653.049 59.6533 652.814 59.3135C652.586 58.9736 652.472 58.5693 652.472 58.1006C652.472 57.3213 652.8 56.6621 653.456 56.123C654.118 55.584 654.962 55.3145 655.987 55.3145C657.065 55.3145 657.938 55.5928 658.606 56.1494C659.28 56.7061 659.617 57.418 659.617 58.2852H657.982C657.982 57.8398 657.792 57.4561 657.411 57.1338C657.036 56.8115 656.562 56.6504 655.987 56.6504C655.396 56.6504 654.933 56.7793 654.599 57.0371C654.265 57.2949 654.098 57.6318 654.098 58.0479C654.098 58.4404 654.253 58.7363 654.563 58.9355C654.874 59.1348 655.434 59.3252 656.242 59.5068C657.057 59.6885 657.716 59.9053 658.22 60.1572C658.724 60.4092 659.096 60.7139 659.336 61.0713C659.582 61.4229 659.705 61.8535 659.705 62.3633C659.705 63.2129 659.365 63.8955 658.686 64.4111C658.006 64.9209 657.124 65.1758 656.04 65.1758C655.278 65.1758 654.604 65.041 654.019 64.7715C653.433 64.502 652.973 64.127 652.639 63.6465C652.311 63.1602 652.146 62.6357 652.146 62.0732H653.772C653.802 62.6182 654.019 63.0518 654.423 63.374C654.833 63.6904 655.372 63.8486 656.04 63.8486C656.655 63.8486 657.147 63.7256 657.517 63.4795C657.892 63.2275 658.079 62.8936 658.079 62.4775ZM665.576 59.8936C665.576 61.2002 665.403 62.4541 665.058 63.6553C664.718 64.8506 664.193 65.9551 663.484 66.9688C662.781 67.9824 662.043 68.7031 661.27 69.1309L660.927 68.1377C661.829 67.4463 662.553 66.374 663.098 64.9209C663.648 63.4619 663.93 61.8447 663.941 60.0693V59.7881C663.941 58.5576 663.813 57.415 663.555 56.3604C663.297 55.2998 662.937 54.3506 662.474 53.5127C662.017 52.6748 661.501 52.0215 660.927 51.5527L661.27 50.5596C662.043 50.9873 662.778 51.7021 663.476 52.7041C664.179 53.7061 664.703 54.8105 665.049 56.0176C665.4 57.2246 665.576 58.5166 665.576 59.8936Z" fill="black"/>
<path d="M558.268 147.482C558.064 147.482 557.86 147.47 557.656 147.446C557.464 147.422 557.326 147.386 557.242 147.338V145.772C557.314 145.82 557.452 145.856 557.656 145.88C557.872 145.904 558.076 145.916 558.268 145.916C558.844 145.916 559.348 145.712 559.78 145.304C560.224 144.908 560.65 144.14 561.058 143H560.194L556.774 134.09L555.946 133.856V133.01H560.284V133.856L558.898 134.072L560.662 139.382L561.49 142.01L562.264 139.364L563.866 134.072L562.66 133.856V133.01H566.278V133.856L565.378 134.072C563.614 139.472 562.576 142.538 562.264 143.27C561.856 144.302 561.484 145.106 561.148 145.682C560.812 146.27 560.416 146.714 559.96 147.014C559.504 147.326 558.94 147.482 558.268 147.482ZM580.508 135.764H572.408V134.468H580.508V135.764ZM580.508 140.714H572.408V139.418H580.508V140.714ZM589.43 145.898C589.154 145.898 588.848 145.874 588.512 145.826C588.176 145.79 587.894 145.742 587.666 145.682V144.656C588.062 144.776 588.536 144.836 589.088 144.836C590.036 144.836 590.852 144.686 591.536 144.386C592.232 144.086 592.76 143.678 593.12 143.162C593.492 142.646 593.678 142.082 593.678 141.47C593.678 140.654 593.426 140.024 592.922 139.58C592.43 139.124 591.668 138.89 590.636 138.878L590.078 139.022C589.682 139.142 589.49 139.196 589.502 139.184L589.196 138.23C589.7 138.134 590.174 137.99 590.618 137.798C591.362 137.486 591.962 137.072 592.418 136.556C592.874 136.028 593.102 135.47 593.102 134.882C593.102 134.198 592.898 133.7 592.49 133.388C592.094 133.064 591.584 132.902 590.96 132.902C590.42 132.902 589.898 132.998 589.394 133.19C588.902 133.382 588.476 133.616 588.116 133.892L587.63 133.082C587.966 132.746 588.5 132.422 589.232 132.11C589.976 131.786 590.732 131.624 591.5 131.624C592.592 131.624 593.474 131.864 594.146 132.344C594.818 132.812 595.154 133.532 595.154 134.504C595.154 135.356 594.818 136.13 594.146 136.826C593.474 137.522 592.676 138.032 591.752 138.356C591.872 138.344 592.04 138.338 592.256 138.338C592.964 138.338 593.588 138.47 594.128 138.734C594.668 138.998 595.082 139.358 595.37 139.814C595.67 140.258 595.82 140.762 595.82 141.326C595.82 142.202 595.556 142.988 595.028 143.684C594.5 144.38 593.75 144.92 592.778 145.304C591.818 145.7 590.702 145.898 589.43 145.898ZM601.068 138.014L598.026 134.072L597.018 133.856V133.01H601.59V133.856L600.33 134.072L601.968 136.394L602.472 137.168L602.958 136.394L604.668 134.072L603.354 133.856V133.01H607.152V133.856L606.072 134.072L603.084 137.798L606.27 141.974L607.314 142.136V143H602.688V142.136L603.876 141.956L602.238 139.526L601.698 138.716L601.212 139.508L599.484 141.956L600.978 142.136V143H596.784V142.136L597.99 141.956L601.068 138.014ZM625.505 136.664L625.451 135.134V133.154H626.837V135.134L626.747 136.664L628.115 136.574H630.203V137.942H628.115L626.747 137.888L626.837 139.382V141.488H625.451V139.382L625.505 137.888L623.939 137.942H622.085V136.574H623.939L625.505 136.664ZM639.751 133.712C639.499 133.808 639.103 133.922 638.563 134.054C638.023 134.186 637.585 134.276 637.249 134.324L637.069 133.316C637.681 133.184 638.305 132.962 638.941 132.65C639.589 132.338 640.129 131.996 640.561 131.624H640.579L641.677 131.804V141.956L643.909 142.118V143H637.429V142.118L639.751 141.956V133.712ZM650.001 143.162C648.465 143.162 647.313 142.634 646.545 141.578C645.789 140.51 645.411 139.136 645.411 137.456C645.411 136.28 645.627 135.254 646.059 134.378C646.491 133.49 647.079 132.812 647.823 132.344C648.567 131.876 649.383 131.642 650.271 131.642C651.831 131.642 652.971 132.146 653.691 133.154C654.411 134.15 654.771 135.518 654.771 137.258C654.771 138.422 654.561 139.454 654.141 140.354C653.733 141.242 653.163 141.932 652.431 142.424C651.711 142.916 650.901 143.162 650.001 143.162ZM650.073 142.244C651.861 142.244 652.755 140.642 652.755 137.438C652.755 135.878 652.551 134.678 652.143 133.838C651.747 132.998 651.075 132.578 650.127 132.578C649.203 132.578 648.519 132.98 648.075 133.784C647.631 134.576 647.409 135.716 647.409 137.204C647.409 138.728 647.619 139.952 648.039 140.876C648.471 141.788 649.149 142.244 650.073 142.244Z" fill="black"/>
<path d="M612.384 140.712C612.132 140.808 611.736 140.922 611.196 141.054C610.656 141.186 610.218 141.276 609.882 141.324L609.702 140.316C610.314 140.184 610.938 139.962 611.574 139.65C612.222 139.338 612.762 138.996 613.194 138.624H613.212L614.31 138.804V148.956L616.542 149.118V150H610.062V149.118L612.384 148.956V140.712Z" fill="black"/>
<path d="M566.548 250.654C566.548 251.674 566.338 252.61 565.918 253.462C565.498 254.302 564.898 254.968 564.118 255.46C563.338 255.952 562.426 256.198 561.382 256.198C561.094 256.198 560.782 256.174 560.446 256.126C560.11 256.078 559.84 256.018 559.636 255.946L559.69 257.458V259.276L561.562 259.474V260.356H556.54V259.474L557.836 259.276V247.396L556.522 247.072V246.1L559.078 245.776H559.114L559.492 246.1V247.162C559.852 246.766 560.296 246.43 560.824 246.154C561.364 245.878 561.964 245.74 562.624 245.74C563.332 245.74 563.98 245.914 564.568 246.262C565.168 246.61 565.648 247.15 566.008 247.882C566.368 248.614 566.548 249.538 566.548 250.654ZM561.886 247C561.43 247 561.004 247.096 560.608 247.288C560.212 247.48 559.906 247.69 559.69 247.918V254.704C559.774 254.848 559.984 254.98 560.32 255.1C560.668 255.208 561.046 255.262 561.454 255.262C562.378 255.262 563.122 254.896 563.686 254.164C564.262 253.432 564.55 252.328 564.55 250.852C564.55 249.556 564.298 248.59 563.794 247.954C563.302 247.318 562.666 247 561.886 247ZM581.51 248.764H573.41V247.468H581.51V248.764ZM581.51 253.714H573.41V252.418H581.51V253.714Z" fill="black"/>
<path d="M614.238 241.198C612.786 241.198 611.676 240.724 610.908 239.776C610.152 238.828 609.774 237.562 609.774 235.978C609.774 234.934 609.972 234.016 610.368 233.224C610.764 232.432 611.316 231.82 612.024 231.388C612.744 230.956 613.56 230.74 614.472 230.74C615.588 230.74 616.452 231.052 617.064 231.676C617.688 232.288 618.018 233.17 618.054 234.322C618.054 235.054 618.012 235.612 617.928 235.996H611.736C611.76 237.184 612.036 238.144 612.564 238.876C613.092 239.596 613.842 239.956 614.814 239.956C615.294 239.956 615.792 239.872 616.308 239.704C616.836 239.524 617.244 239.314 617.532 239.074L617.874 239.866C617.526 240.226 617.01 240.538 616.326 240.802C615.642 241.066 614.946 241.198 614.238 241.198ZM616.074 235.042C616.11 234.79 616.128 234.532 616.128 234.268C616.116 233.488 615.948 232.876 615.624 232.432C615.312 231.976 614.814 231.748 614.13 231.748C613.434 231.748 612.876 232 612.456 232.504C612.048 233.008 611.814 233.854 611.754 235.042H616.074Z" fill="black"/>
<path d="M599.384 261.712C599.132 261.808 598.736 261.922 598.196 262.054C597.656 262.186 597.218 262.276 596.882 262.324L596.702 261.316C597.314 261.184 597.938 260.962 598.574 260.65C599.222 260.338 599.762 259.996 600.194 259.624H600.212L601.31 259.804V269.956L603.542 270.118V271H597.062V270.118L599.384 269.956V261.712ZM613.509 264.664L613.455 263.134V261.154H614.841V263.134L614.751 264.664L616.119 264.574H618.207V265.942H616.119L614.751 265.888L614.841 267.382V269.488H613.455V267.382L613.509 265.888L611.943 265.942H610.089V264.574H611.943L613.509 264.664ZM629.609 271.198C628.157 271.198 627.047 270.724 626.279 269.776C625.523 268.828 625.145 267.562 625.145 265.978C625.145 264.934 625.343 264.016 625.739 263.224C626.135 262.432 626.687 261.82 627.395 261.388C628.115 260.956 628.931 260.74 629.843 260.74C630.959 260.74 631.823 261.052 632.435 261.676C633.059 262.288 633.389 263.17 633.425 264.322C633.425 265.054 633.383 265.612 633.299 265.996H627.107C627.131 267.184 627.407 268.144 627.935 268.876C628.463 269.596 629.213 269.956 630.185 269.956C630.665 269.956 631.163 269.872 631.679 269.704C632.207 269.524 632.615 269.314 632.903 269.074L633.245 269.866C632.897 270.226 632.381 270.538 631.697 270.802C631.013 271.066 630.317 271.198 629.609 271.198ZM631.445 265.042C631.481 264.79 631.499 264.532 631.499 264.268C631.487 263.488 631.319 262.876 630.995 262.432C630.683 261.976 630.185 261.748 629.501 261.748C628.805 261.748 628.247 262 627.827 262.504C627.419 263.008 627.185 263.854 627.125 265.042H631.445Z" fill="black"/>
<path d="M623.198 228.254C622.983 228.254 622.745 228.235 622.484 228.198C622.223 228.17 622.003 228.133 621.826 228.086V227.288C622.134 227.381 622.503 227.428 622.932 227.428C623.669 227.428 624.304 227.311 624.836 227.078C625.377 226.845 625.788 226.527 626.068 226.126C626.357 225.725 626.502 225.286 626.502 224.81C626.502 224.175 626.306 223.685 625.914 223.34C625.531 222.985 624.939 222.803 624.136 222.794L623.702 222.906C623.394 222.999 623.245 223.041 623.254 223.032L623.016 222.29C623.408 222.215 623.777 222.103 624.122 221.954C624.701 221.711 625.167 221.389 625.522 220.988C625.877 220.577 626.054 220.143 626.054 219.686C626.054 219.154 625.895 218.767 625.578 218.524C625.27 218.272 624.873 218.146 624.388 218.146C623.968 218.146 623.562 218.221 623.17 218.37C622.787 218.519 622.456 218.701 622.176 218.916L621.798 218.286C622.059 218.025 622.475 217.773 623.044 217.53C623.623 217.278 624.211 217.152 624.808 217.152C625.657 217.152 626.343 217.339 626.866 217.712C627.389 218.076 627.65 218.636 627.65 219.392C627.65 220.055 627.389 220.657 626.866 221.198C626.343 221.739 625.723 222.136 625.004 222.388C625.097 222.379 625.228 222.374 625.396 222.374C625.947 222.374 626.432 222.477 626.852 222.682C627.272 222.887 627.594 223.167 627.818 223.522C628.051 223.867 628.168 224.259 628.168 224.698C628.168 225.379 627.963 225.991 627.552 226.532C627.141 227.073 626.558 227.493 625.802 227.792C625.055 228.1 624.187 228.254 623.198 228.254ZM632.25 222.122L629.884 219.056L629.1 218.888V218.23H632.656V218.888L631.676 219.056L632.95 220.862L633.342 221.464L633.72 220.862L635.05 219.056L634.028 218.888V218.23H636.982V218.888L636.142 219.056L633.818 221.954L636.296 225.202L637.108 225.328V226H633.51V225.328L634.434 225.188L633.16 223.298L632.74 222.668L632.362 223.284L631.018 225.188L632.18 225.328V226H628.918V225.328L629.856 225.188L632.25 222.122Z" fill="black"/>
<path d="M637.198 264.254C636.983 264.254 636.745 264.235 636.484 264.198C636.223 264.17 636.003 264.133 635.826 264.086V263.288C636.134 263.381 636.503 263.428 636.932 263.428C637.669 263.428 638.304 263.311 638.836 263.078C639.377 262.845 639.788 262.527 640.068 262.126C640.357 261.725 640.502 261.286 640.502 260.81C640.502 260.175 640.306 259.685 639.914 259.34C639.531 258.985 638.939 258.803 638.136 258.794L637.702 258.906C637.394 258.999 637.245 259.041 637.254 259.032L637.016 258.29C637.408 258.215 637.777 258.103 638.122 257.954C638.701 257.711 639.167 257.389 639.522 256.988C639.877 256.577 640.054 256.143 640.054 255.686C640.054 255.154 639.895 254.767 639.578 254.524C639.27 254.272 638.873 254.146 638.388 254.146C637.968 254.146 637.562 254.221 637.17 254.37C636.787 254.519 636.456 254.701 636.176 254.916L635.798 254.286C636.059 254.025 636.475 253.773 637.044 253.53C637.623 253.278 638.211 253.152 638.808 253.152C639.657 253.152 640.343 253.339 640.866 253.712C641.389 254.076 641.65 254.636 641.65 255.392C641.65 256.055 641.389 256.657 640.866 257.198C640.343 257.739 639.723 258.136 639.004 258.388C639.097 258.379 639.228 258.374 639.396 258.374C639.947 258.374 640.432 258.477 640.852 258.682C641.272 258.887 641.594 259.167 641.818 259.522C642.051 259.867 642.168 260.259 642.168 260.698C642.168 261.379 641.963 261.991 641.552 262.532C641.141 263.073 640.558 263.493 639.802 263.792C639.055 264.1 638.187 264.254 637.198 264.254ZM646.25 258.122L643.884 255.056L643.1 254.888V254.23H646.656V254.888L645.676 255.056L646.95 256.862L647.342 257.464L647.72 256.862L649.05 255.056L648.028 254.888V254.23H650.982V254.888L650.142 255.056L647.818 257.954L650.296 261.202L651.108 261.328V262H647.51V261.328L648.434 261.188L647.16 259.298L646.74 258.668L646.362 259.284L645.018 261.188L646.18 261.328V262H642.918V261.328L643.856 261.188L646.25 258.122Z" fill="black"/>
<path d="M564.106 127.138H562.944L560.648 120.026L558.366 127.138H557.204L560.018 118.528H561.278L564.106 127.138Z" fill="black"/>
<path d="M564.106 240.138H562.944L560.648 233.026L558.366 240.138H557.204L560.018 231.528H561.278L564.106 240.138Z" fill="black"/>
<path d="M265.039 294.659C268.223 294.659 270.408 294.318 273.388 293.656C275.836 293.112 278.949 292.303 280.791 290.646C281.647 289.875 283.103 288.827 284.123 288.26C285.207 287.658 285.978 286.405 287.038 285.799C289.533 284.373 292.366 281.796 294.422 279.741C296.049 278.113 299 276.737 300.14 274.742C300.643 273.862 301.985 273.264 302.525 272.319C303.336 270.9 304.773 269.579 305.933 268.419C310.052 264.3 313.513 259.482 318.182 255.98C320.523 254.225 322.456 251.289 325.017 249.941C328.032 248.354 330.547 245.312 333.404 243.334C338.212 240.005 343.533 238.013 348.682 235.439C349.285 235.137 350.284 234.822 350.765 234.341C351.789 233.316 352.39 233.097 353.87 232.485C355.445 231.834 356.71 230.854 358.413 230.611C361.642 230.15 365.248 229.006 368.485 228.131C373.293 226.831 378.144 226.235 383.12 225.802C386.893 225.474 389.948 225.524 393.514 227.109C395.38 227.938 399.249 227.184 401.352 227.184" stroke="black" stroke-linecap="round" stroke-linejoin="round"/>
<line x1="592" y1="248.5" x2="656" y2="248.5" stroke="black"/>
</svg>

