<svg width="684" height="462" viewBox="0 0 684 462" fill="none" xmlns="http://www.w3.org/2000/svg">
<circle cx="248.5" cy="263.5" r="116" fill="white" stroke="black"/>
<circle cx="248.5" cy="263.5" r="2.5" fill="#C4C4C4"/>
<line x1="132" y1="263.75" x2="365" y2="263.75" stroke="black" stroke-width="0.5"/>
<line x1="249.25" y1="147" x2="249.25" y2="380" stroke="black" stroke-width="0.5"/>
<path d="M330.597 181.903C330.597 181.627 330.373 181.403 330.097 181.403H325.597C325.321 181.403 325.097 181.627 325.097 181.903C325.097 182.179 325.321 182.403 325.597 182.403L329.597 182.403L329.597 186.403C329.597 186.679 329.821 186.903 330.097 186.903C330.373 186.903 330.597 186.679 330.597 186.403V181.903ZM249.416 263.291L330.451 182.256L329.744 181.549L248.709 262.584L249.416 263.291Z" fill="#EB5757"/>
<line x1="331" y1="182" x2="331" y2="264" stroke="black" stroke-width="2"/>
<line x1="323.5" y1="264" x2="323.5" y2="257" stroke="black"/>
<line x1="323" y1="256.5" x2="330" y2="256.5" stroke="black"/>
<line x1="248.5" y1="30" x2="248.5" y2="462" stroke="black"/>
<path d="M248.342 14.6182L250.557 7.49023H252.297L248.474 18.4678C247.882 20.0498 246.941 20.8408 245.652 20.8408L245.345 20.8145L244.738 20.7002V19.3818L245.178 19.417C245.729 19.417 246.156 19.3057 246.461 19.083C246.771 18.8604 247.026 18.4531 247.226 17.8613L247.586 16.8945L244.193 7.49023H245.969L248.342 14.6182Z" fill="black"/>
<path d="M505.421 261.962L507.53 258.49H509.429L506.317 263.192L509.525 268H507.645L505.447 264.44L503.25 268H501.36L504.568 263.192L501.457 258.49H503.338L505.421 261.962Z" fill="black"/>
<line x1="4.37114e-08" y1="263.5" x2="487" y2="263.5" stroke="black"/>
<line x1="366" y1="258" x2="366" y2="269" stroke="black" stroke-width="2"/>
<line x1="132" y1="258" x2="132" y2="269" stroke="black" stroke-width="2"/>
<line x1="467" y1="258" x2="467" y2="269" stroke="black" stroke-width="2"/>
<line x1="16" y1="258" x2="16" y2="269" stroke="black" stroke-width="2"/>
<path d="M369.983 279H368.712V270.571L366.162 271.508V270.359L369.785 268.999H369.983V279Z" fill="black"/>
<path d="M464.349 279H457.827V278.091L461.272 274.263C461.783 273.684 462.134 273.215 462.325 272.854C462.521 272.49 462.619 272.114 462.619 271.727C462.619 271.207 462.462 270.781 462.147 270.448C461.833 270.116 461.414 269.949 460.89 269.949C460.261 269.949 459.771 270.129 459.42 270.489C459.074 270.845 458.9 271.341 458.9 271.979H457.636C457.636 271.063 457.93 270.323 458.518 269.758C459.11 269.193 459.901 268.91 460.89 268.91C461.815 268.91 462.546 269.154 463.084 269.642C463.622 270.125 463.891 270.77 463.891 271.576C463.891 272.556 463.266 273.723 462.018 275.076L459.352 277.968H464.349V279ZM465.846 278.337C465.846 278.118 465.91 277.936 466.037 277.79C466.169 277.644 466.365 277.571 466.625 277.571C466.885 277.571 467.081 277.644 467.213 277.79C467.35 277.936 467.418 278.118 467.418 278.337C467.418 278.547 467.35 278.722 467.213 278.863C467.081 279.005 466.885 279.075 466.625 279.075C466.365 279.075 466.169 279.005 466.037 278.863C465.91 278.722 465.846 278.547 465.846 278.337ZM469.961 274.01L470.467 269.047H475.566V270.216H471.54L471.239 272.93C471.727 272.643 472.281 272.499 472.9 272.499C473.807 272.499 474.527 272.8 475.061 273.401C475.594 273.998 475.86 274.807 475.86 275.828C475.86 276.854 475.582 277.662 475.026 278.255C474.475 278.843 473.702 279.137 472.709 279.137C471.829 279.137 471.112 278.893 470.556 278.405C470 277.918 469.683 277.243 469.605 276.382H470.802C470.879 276.951 471.082 277.382 471.41 277.674C471.738 277.961 472.171 278.104 472.709 278.104C473.297 278.104 473.757 277.904 474.09 277.503C474.427 277.102 474.596 276.548 474.596 275.842C474.596 275.176 474.413 274.643 474.049 274.242C473.689 273.837 473.208 273.634 472.606 273.634C472.055 273.634 471.622 273.755 471.308 273.996L470.973 274.27L469.961 274.01Z" fill="black"/>
<path d="M121.589 277.288H118.253V276.256H121.589V277.288ZM130.325 281H129.054V272.571L126.504 273.508V272.359L130.127 270.999H130.325V281Z" fill="black"/>
<path d="M8.58887 278.288H5.25293V277.256H8.58887V278.288ZM19.6904 282H13.1689V281.091L16.6143 277.263C17.1247 276.684 17.4756 276.215 17.667 275.854C17.863 275.49 17.9609 275.114 17.9609 274.727C17.9609 274.207 17.8037 273.781 17.4893 273.448C17.1748 273.116 16.7555 272.949 16.2314 272.949C15.6025 272.949 15.1126 273.129 14.7617 273.489C14.4154 273.845 14.2422 274.341 14.2422 274.979H12.9775C12.9775 274.063 13.2715 273.323 13.8594 272.758C14.4518 272.193 15.2425 271.91 16.2314 271.91C17.1566 271.91 17.888 272.154 18.4258 272.642C18.9635 273.125 19.2324 273.77 19.2324 274.576C19.2324 275.556 18.6081 276.723 17.3594 278.076L14.6934 280.968H19.6904V282Z" fill="black"/>
<line x1="244" y1="146" x2="252" y2="146" stroke="black" stroke-width="2"/>
<line x1="244" y1="379.5" x2="252" y2="379.5" stroke="black"/>
<line x1="244" y1="35" x2="252" y2="35" stroke="black" stroke-width="2"/>
<line x1="244" y1="381" x2="252" y2="381" stroke="black" stroke-width="2"/>
<path d="M257.983 146H256.712V137.571L254.162 138.508V137.359L257.785 135.999H257.983V146Z" fill="black"/>
<path d="M258.589 386.288H255.253V385.256H258.589V386.288ZM263.853 390H262.581V381.571L260.031 382.508V381.359L263.654 379.999H263.853V390Z" fill="black"/>
<path d="M260.349 40H253.827V39.0908L257.272 35.2627C257.783 34.6839 258.134 34.2145 258.325 33.8545C258.521 33.4899 258.619 33.1139 258.619 32.7266C258.619 32.207 258.462 31.7809 258.147 31.4482C257.833 31.1156 257.414 30.9492 256.89 30.9492C256.261 30.9492 255.771 31.1292 255.42 31.4893C255.074 31.8447 254.9 32.3415 254.9 32.9795H253.636C253.636 32.0635 253.93 31.3229 254.518 30.7578C255.11 30.1927 255.901 29.9102 256.89 29.9102C257.815 29.9102 258.546 30.154 259.084 30.6416C259.622 31.1247 259.891 31.7695 259.891 32.5762C259.891 33.556 259.266 34.7227 258.018 36.0762L255.352 38.9678H260.349V40Z" fill="black"/>
<path d="M267.625 257.139H264.596V256.248H267.625V257.139ZM269.465 257.01C269.465 257.842 269.324 258.568 269.043 259.189C268.766 259.811 268.369 260.287 267.854 260.619C267.338 260.951 266.734 261.117 266.043 261.117C265.371 261.117 264.775 260.953 264.256 260.625C263.736 260.293 263.332 259.822 263.043 259.213C262.758 258.6 262.611 257.891 262.604 257.086V256.471C262.604 255.65 262.746 254.926 263.031 254.297C263.316 253.668 263.719 253.188 264.238 252.855C264.762 252.52 265.359 252.352 266.031 252.352C266.715 252.352 267.314 252.516 267.83 252.844C268.346 253.172 268.744 253.645 269.025 254.262C269.311 254.875 269.457 255.586 269.465 256.395V257.01ZM268.346 256.459C268.346 255.447 268.143 254.672 267.736 254.133C267.33 253.59 266.762 253.318 266.031 253.318C265.32 253.318 264.76 253.59 264.35 254.133C263.943 254.672 263.734 255.422 263.723 256.383V257.01C263.723 257.986 263.926 258.756 264.332 259.318C264.742 259.881 265.312 260.162 266.043 260.162C266.77 260.162 267.332 259.898 267.73 259.371C268.129 258.84 268.334 258.08 268.346 257.092V256.459Z" fill="black"/>
<path d="M447.562 80.4951H444.028V79.4561H447.562V80.4951ZM449.709 80.3447C449.709 81.3154 449.545 82.1631 449.217 82.8877C448.893 83.6123 448.431 84.1683 447.829 84.5557C447.228 84.943 446.523 85.1367 445.717 85.1367C444.933 85.1367 444.238 84.9453 443.632 84.5625C443.026 84.1751 442.554 83.626 442.217 82.915C441.884 82.1995 441.713 81.3724 441.704 80.4336V79.7158C441.704 78.7588 441.87 77.9134 442.203 77.1797C442.536 76.446 443.005 75.8854 443.611 75.498C444.222 75.1061 444.919 74.9102 445.703 74.9102C446.501 74.9102 447.2 75.1016 447.802 75.4844C448.403 75.8672 448.868 76.4186 449.196 77.1387C449.529 77.8542 449.7 78.6836 449.709 79.627V80.3447ZM448.403 79.7021C448.403 78.5218 448.166 77.6172 447.692 76.9883C447.218 76.3548 446.555 76.0381 445.703 76.0381C444.874 76.0381 444.22 76.3548 443.741 76.9883C443.267 77.6172 443.023 78.4922 443.01 79.6133V80.3447C443.01 81.484 443.247 82.3818 443.721 83.0381C444.199 83.6943 444.865 84.0225 445.717 84.0225C446.564 84.0225 447.221 83.7148 447.686 83.0996C448.15 82.4798 448.39 81.5934 448.403 80.4404V79.7021Z" fill="black"/>
<path d="M342.32 219.467C342.94 219.476 343.471 219.645 343.913 219.973C344.355 220.301 344.681 220.754 344.891 221.333C345.105 221.907 345.178 222.536 345.109 223.22L345.096 223.37C345.009 224.09 344.795 224.742 344.453 225.325C344.111 225.904 343.669 226.355 343.127 226.679C342.585 227.002 341.99 227.155 341.343 227.137C340.728 227.128 340.197 226.959 339.75 226.631C339.308 226.303 338.984 225.856 338.779 225.291C338.574 224.726 338.501 224.104 338.561 223.425C338.629 222.659 338.836 221.971 339.183 221.36C339.529 220.75 339.973 220.278 340.516 219.945C341.062 219.608 341.664 219.449 342.32 219.467ZM339.805 223.432C339.773 223.719 339.773 224.017 339.805 224.327C339.85 224.865 340.01 225.293 340.283 225.612C340.561 225.931 340.93 226.098 341.391 226.111C341.801 226.125 342.179 226.025 342.525 225.811C342.872 225.592 343.163 225.264 343.4 224.826C343.637 224.389 343.79 223.903 343.858 223.37C343.895 222.951 343.902 222.598 343.879 222.311C343.824 221.759 343.658 221.324 343.38 221.005C343.102 220.686 342.733 220.517 342.272 220.499C341.634 220.485 341.092 220.736 340.646 221.251C340.199 221.766 339.923 222.44 339.818 223.274L339.805 223.432ZM352.731 223.336C352.64 224.088 352.438 224.765 352.123 225.366C351.809 225.968 351.419 226.419 350.954 226.72C350.489 227.016 349.974 227.157 349.409 227.144C348.552 227.125 347.896 226.836 347.44 226.275L346.777 229.844H345.54L347.317 219.604L348.438 219.597L348.302 220.424C348.912 219.768 349.644 219.449 350.496 219.467C351.207 219.485 351.761 219.747 352.157 220.253C352.554 220.759 352.763 221.456 352.786 222.345C352.791 222.636 352.779 222.919 352.752 223.192L352.731 223.336ZM351.515 223.192L351.549 222.618C351.549 221.953 351.421 221.445 351.166 221.094C350.915 220.738 350.551 220.551 350.072 220.533C349.357 220.515 348.739 220.854 348.22 221.552L347.598 225.1C347.876 225.756 348.375 226.093 349.095 226.111C349.71 226.125 350.232 225.886 350.66 225.394C351.093 224.897 351.378 224.163 351.515 223.192ZM360.429 223.336C360.338 224.088 360.135 224.765 359.82 225.366C359.506 225.968 359.116 226.419 358.651 226.72C358.187 227.016 357.672 227.157 357.106 227.144C356.25 227.125 355.593 226.836 355.138 226.275L354.475 229.844H353.237L355.015 219.604L356.136 219.597L355.999 220.424C356.61 219.768 357.341 219.449 358.193 219.467C358.904 219.485 359.458 219.747 359.854 220.253C360.251 220.759 360.461 221.456 360.483 222.345C360.488 222.636 360.477 222.919 360.449 223.192L360.429 223.336ZM359.212 223.192L359.246 222.618C359.246 221.953 359.118 221.445 358.863 221.094C358.613 220.738 358.248 220.551 357.77 220.533C357.054 220.515 356.437 220.854 355.917 221.552L355.295 225.1C355.573 225.756 356.072 226.093 356.792 226.111C357.407 226.125 357.929 225.886 358.357 225.394C358.79 224.897 359.075 224.163 359.212 223.192ZM365.535 219.467C366.155 219.476 366.686 219.645 367.128 219.973C367.57 220.301 367.896 220.754 368.105 221.333C368.32 221.907 368.393 222.536 368.324 223.22L368.311 223.37C368.224 224.09 368.01 224.742 367.668 225.325C367.326 225.904 366.884 226.355 366.342 226.679C365.799 227.002 365.205 227.155 364.558 227.137C363.942 227.128 363.411 226.959 362.965 226.631C362.523 226.303 362.199 225.856 361.994 225.291C361.789 224.726 361.716 224.104 361.775 223.425C361.844 222.659 362.051 221.971 362.397 221.36C362.744 220.75 363.188 220.278 363.73 219.945C364.277 219.608 364.879 219.449 365.535 219.467ZM363.02 223.432C362.988 223.719 362.988 224.017 363.02 224.327C363.065 224.865 363.225 225.293 363.498 225.612C363.776 225.931 364.145 226.098 364.605 226.111C365.016 226.125 365.394 226.025 365.74 225.811C366.087 225.592 366.378 225.264 366.615 224.826C366.852 224.389 367.005 223.903 367.073 223.37C367.11 222.951 367.117 222.598 367.094 222.311C367.039 221.759 366.873 221.324 366.595 221.005C366.317 220.686 365.948 220.517 365.487 220.499C364.849 220.485 364.307 220.736 363.86 221.251C363.414 221.766 363.138 222.44 363.033 223.274L363.02 223.432ZM373.827 224.997C373.896 224.487 373.615 224.127 372.986 223.917L371.701 223.541C370.617 223.167 370.092 222.548 370.129 221.682C370.161 221.03 370.457 220.497 371.018 220.082C371.583 219.663 372.246 219.458 373.007 219.467C373.754 219.476 374.36 219.695 374.825 220.123C375.295 220.547 375.52 221.101 375.502 221.784L374.271 221.777C374.281 221.408 374.164 221.107 373.923 220.875C373.681 220.643 373.36 220.522 372.959 220.513C372.531 220.504 372.161 220.608 371.852 220.827C371.564 221.032 371.398 221.301 371.353 221.634C371.293 222.062 371.555 222.374 372.139 222.57L372.761 222.741C373.608 222.96 374.21 223.245 374.565 223.596C374.921 223.947 375.085 224.382 375.058 224.901C375.03 225.362 374.88 225.763 374.606 226.104C374.333 226.446 373.968 226.708 373.513 226.891C373.057 227.068 372.572 227.15 372.057 227.137C371.273 227.128 370.626 226.9 370.115 226.453C369.605 226.002 369.359 225.423 369.377 224.717L370.614 224.724C370.614 225.138 370.746 225.471 371.011 225.722C371.275 225.972 371.637 226.098 372.098 226.098C372.549 226.107 372.938 226.013 373.267 225.817C373.595 225.617 373.782 225.343 373.827 224.997ZM377.655 227H376.425L377.71 219.604H378.94L377.655 227ZM378.674 216.903C378.883 216.894 379.057 216.958 379.193 217.095C379.335 217.227 379.405 217.402 379.405 217.621C379.401 217.835 379.33 218.011 379.193 218.147C379.061 218.284 378.888 218.357 378.674 218.366C378.46 218.375 378.284 218.314 378.147 218.182C378.011 218.049 377.945 217.876 377.949 217.662C377.954 217.448 378.022 217.27 378.154 217.129C378.286 216.988 378.46 216.912 378.674 216.903ZM382.946 217.812L382.632 219.604H383.979L383.808 220.581H382.468L381.695 225.182C381.682 225.3 381.679 225.41 381.688 225.51C381.72 225.865 381.914 226.043 382.27 226.043C382.42 226.043 382.62 226.02 382.871 225.975L382.775 227.007C382.479 227.089 382.178 227.13 381.873 227.13C381.381 227.121 381.012 226.941 380.766 226.59C380.52 226.234 380.424 225.758 380.479 225.161L381.23 220.581H379.925L380.096 219.604H381.401L381.716 217.812H382.946ZM387.39 227.137C386.469 227.118 385.749 226.779 385.229 226.118C384.71 225.457 384.491 224.612 384.573 223.582L384.607 223.288C384.685 222.554 384.901 221.884 385.257 221.278C385.617 220.672 386.054 220.216 386.569 219.911C387.084 219.601 387.64 219.453 388.237 219.467C388.998 219.485 389.595 219.738 390.028 220.226C390.461 220.713 390.698 221.374 390.739 222.208C390.753 222.504 390.744 222.8 390.712 223.097L390.637 223.664H385.804C385.722 224.334 385.831 224.904 386.132 225.373C386.437 225.842 386.891 226.086 387.492 226.104C388.221 226.123 388.896 225.795 389.516 225.12L390.227 225.722C389.917 226.168 389.516 226.519 389.023 226.774C388.536 227.025 387.991 227.146 387.39 227.137ZM388.176 220.499C387.665 220.485 387.219 220.659 386.836 221.019C386.458 221.379 386.157 221.914 385.934 222.625L389.529 222.632L389.557 222.522C389.63 221.948 389.536 221.472 389.276 221.094C389.021 220.711 388.654 220.513 388.176 220.499Z" fill="black"/>
<path d="M271.737 281C271.705 280.868 271.689 280.738 271.689 280.61L271.71 280.221C271.031 280.85 270.311 281.155 269.55 281.137C268.898 281.128 268.367 280.923 267.957 280.521C267.551 280.116 267.367 279.61 267.403 279.004C267.449 278.22 267.791 277.609 268.429 277.172C269.071 276.73 269.914 276.509 270.958 276.509L272.25 276.516L272.332 275.928C272.378 275.486 272.291 275.137 272.072 274.882C271.858 274.622 271.535 274.488 271.102 274.479C270.678 274.469 270.302 274.574 269.974 274.793C269.65 275.007 269.452 275.292 269.379 275.647L268.135 275.654C268.176 275.221 268.344 274.839 268.641 274.506C268.937 274.169 269.317 273.909 269.782 273.727C270.247 273.54 270.728 273.451 271.225 273.46C271.995 273.478 272.594 273.713 273.022 274.164C273.451 274.611 273.631 275.205 273.562 275.948L272.961 279.612L272.927 280.139C272.918 280.389 272.945 280.638 273.009 280.884L272.995 281H271.737ZM269.796 280.043C270.192 280.052 270.566 279.959 270.917 279.763C271.272 279.562 271.578 279.286 271.833 278.936L272.1 277.411L271.163 277.404C270.384 277.404 269.787 277.527 269.372 277.773C268.957 278.02 268.723 278.368 268.668 278.819C268.627 279.166 268.707 279.455 268.907 279.688C269.112 279.915 269.409 280.034 269.796 280.043ZM275.032 277.288C275.123 276.536 275.331 275.857 275.654 275.251C275.978 274.645 276.377 274.191 276.851 273.891C277.325 273.59 277.846 273.446 278.416 273.46C279.241 273.478 279.874 273.779 280.316 274.362L281.027 270.5H282.265L280.446 281H279.318L279.448 280.207C278.865 280.845 278.145 281.155 277.288 281.137C276.604 281.118 276.06 280.852 275.654 280.337C275.249 279.817 275.03 279.122 274.998 278.252C274.984 277.983 274.996 277.662 275.032 277.288ZM276.222 277.999C276.208 278.651 276.324 279.157 276.57 279.517C276.816 279.877 277.176 280.061 277.65 280.07C278.366 280.102 279.002 279.742 279.558 278.99L280.146 275.572C279.872 274.898 279.375 274.551 278.655 274.533C278.168 274.52 277.737 274.668 277.363 274.978C276.994 275.283 276.712 275.714 276.516 276.27C276.324 276.821 276.226 277.397 276.222 277.999ZM284.965 273.604L283.563 281.882C283.472 282.579 283.238 283.11 282.859 283.475C282.486 283.839 281.996 284.017 281.39 284.008C281.148 283.999 280.877 283.953 280.576 283.871L280.686 282.859C280.854 282.9 281.043 282.925 281.253 282.935C281.841 282.935 282.194 282.584 282.312 281.882L283.728 273.604H284.965ZM283.939 271.662C283.944 271.448 284.01 271.27 284.138 271.129C284.27 270.988 284.445 270.912 284.664 270.903C284.874 270.894 285.047 270.96 285.184 271.102C285.325 271.238 285.396 271.411 285.396 271.621C285.391 271.835 285.32 272.011 285.184 272.147C285.047 272.284 284.871 272.357 284.657 272.366C284.452 272.375 284.281 272.312 284.145 272.175C284.008 272.038 283.939 271.867 283.939 271.662ZM290.235 281C290.203 280.868 290.188 280.738 290.188 280.61L290.208 280.221C289.529 280.85 288.809 281.155 288.048 281.137C287.396 281.128 286.865 280.923 286.455 280.521C286.049 280.116 285.865 279.61 285.901 279.004C285.947 278.22 286.289 277.609 286.927 277.172C287.569 276.73 288.412 276.509 289.456 276.509L290.748 276.516L290.83 275.928C290.876 275.486 290.789 275.137 290.57 274.882C290.356 274.622 290.033 274.488 289.6 274.479C289.176 274.469 288.8 274.574 288.472 274.793C288.148 275.007 287.95 275.292 287.877 275.647L286.633 275.654C286.674 275.221 286.842 274.839 287.139 274.506C287.435 274.169 287.815 273.909 288.28 273.727C288.745 273.54 289.226 273.451 289.723 273.46C290.493 273.478 291.092 273.713 291.521 274.164C291.949 274.611 292.129 275.205 292.061 275.948L291.459 279.612L291.425 280.139C291.416 280.389 291.443 280.638 291.507 280.884L291.493 281H290.235ZM288.294 280.043C288.69 280.052 289.064 279.959 289.415 279.763C289.771 279.562 290.076 279.286 290.331 278.936L290.598 277.411L289.661 277.404C288.882 277.404 288.285 277.527 287.87 277.773C287.455 278.02 287.221 278.368 287.166 278.819C287.125 279.166 287.205 279.455 287.405 279.688C287.61 279.915 287.907 280.034 288.294 280.043ZM296.299 280.111C296.741 280.12 297.14 279.993 297.495 279.729C297.851 279.46 298.083 279.109 298.192 278.676L299.361 278.669C299.293 279.134 299.106 279.558 298.801 279.94C298.5 280.323 298.119 280.622 297.659 280.836C297.199 281.05 296.727 281.15 296.244 281.137C295.629 281.128 295.107 280.968 294.679 280.658C294.255 280.344 293.943 279.909 293.742 279.353C293.542 278.792 293.473 278.163 293.537 277.466L293.571 277.124C293.658 276.413 293.865 275.777 294.193 275.217C294.521 274.656 294.95 274.221 295.479 273.911C296.007 273.597 296.59 273.449 297.229 273.467C298.003 273.485 298.623 273.745 299.088 274.246C299.553 274.747 299.785 275.383 299.785 276.153L298.63 276.146C298.621 275.663 298.486 275.274 298.227 274.978C297.967 274.677 297.616 274.517 297.174 274.499C296.531 274.485 295.996 274.725 295.567 275.217C295.144 275.709 294.879 276.397 294.774 277.281L294.754 277.459C294.727 277.751 294.722 278.051 294.74 278.361C294.772 278.895 294.923 279.316 295.191 279.626C295.46 279.936 295.829 280.098 296.299 280.111ZM303.552 281.137C302.631 281.118 301.911 280.779 301.392 280.118C300.872 279.457 300.653 278.612 300.735 277.582L300.77 277.288C300.847 276.554 301.063 275.884 301.419 275.278C301.779 274.672 302.216 274.216 302.731 273.911C303.246 273.601 303.802 273.453 304.399 273.467C305.16 273.485 305.757 273.738 306.19 274.226C306.623 274.713 306.86 275.374 306.901 276.208C306.915 276.504 306.906 276.8 306.874 277.097L306.799 277.664H301.966C301.884 278.334 301.993 278.904 302.294 279.373C302.599 279.842 303.053 280.086 303.654 280.104C304.383 280.123 305.058 279.795 305.678 279.12L306.389 279.722C306.079 280.168 305.678 280.519 305.186 280.774C304.698 281.025 304.153 281.146 303.552 281.137ZM304.338 274.499C303.827 274.485 303.381 274.659 302.998 275.019C302.62 275.379 302.319 275.914 302.096 276.625L305.691 276.632L305.719 276.522C305.792 275.948 305.698 275.472 305.438 275.094C305.183 274.711 304.816 274.513 304.338 274.499ZM310.066 273.597L309.889 274.533C310.554 273.804 311.311 273.449 312.158 273.467C312.855 273.485 313.37 273.727 313.703 274.191C314.036 274.656 314.159 275.31 314.072 276.153L313.266 281H312.028L312.842 276.133C312.869 275.91 312.871 275.702 312.849 275.511C312.771 274.873 312.395 274.547 311.721 274.533C310.978 274.52 310.326 274.916 309.766 275.723L308.85 281H307.612L308.897 273.604L310.066 273.597ZM318.44 271.812L318.126 273.604H319.473L319.302 274.581H317.962L317.189 279.182C317.176 279.3 317.174 279.41 317.183 279.51C317.215 279.865 317.408 280.043 317.764 280.043C317.914 280.043 318.115 280.02 318.365 279.975L318.27 281.007C317.973 281.089 317.673 281.13 317.367 281.13C316.875 281.121 316.506 280.941 316.26 280.59C316.014 280.234 315.918 279.758 315.973 279.161L316.725 274.581H315.419L315.59 273.604H316.896L317.21 271.812H318.44Z" fill="black"/>
<path d="M417.016 82.7578C417.016 82.3672 416.867 82.0651 416.57 81.8516C416.279 81.6328 415.766 81.4453 415.031 81.2891C414.302 81.1328 413.721 80.9453 413.289 80.7266C412.862 80.5078 412.544 80.2474 412.336 79.9453C412.133 79.6432 412.031 79.2839 412.031 78.8672C412.031 78.1745 412.323 77.5885 412.906 77.1094C413.495 76.6302 414.245 76.3906 415.156 76.3906C416.115 76.3906 416.891 76.638 417.484 77.1328C418.083 77.6276 418.383 78.2604 418.383 79.0312H416.93C416.93 78.6354 416.76 78.2943 416.422 78.0078C416.089 77.7214 415.667 77.5781 415.156 77.5781C414.63 77.5781 414.219 77.6927 413.922 77.9219C413.625 78.151 413.477 78.4505 413.477 78.8203C413.477 79.1693 413.615 79.4323 413.891 79.6094C414.167 79.7865 414.664 79.9557 415.383 80.1172C416.107 80.2786 416.693 80.4714 417.141 80.6953C417.589 80.9193 417.919 81.1901 418.133 81.5078C418.352 81.8203 418.461 82.2031 418.461 82.6562C418.461 83.4115 418.159 84.0182 417.555 84.4766C416.951 84.9297 416.167 85.1562 415.203 85.1562C414.526 85.1562 413.927 85.0365 413.406 84.7969C412.885 84.5573 412.477 84.224 412.18 83.7969C411.888 83.3646 411.742 82.8984 411.742 82.3984H413.188C413.214 82.8828 413.406 83.2682 413.766 83.5547C414.13 83.8359 414.609 83.9766 415.203 83.9766C415.75 83.9766 416.188 83.8672 416.516 83.6484C416.849 83.4245 417.016 83.1276 417.016 82.7578ZM421.914 85H420.469V76.5469H421.914V85ZM420.352 74.3047C420.352 74.0703 420.422 73.8724 420.562 73.7109C420.708 73.5495 420.922 73.4688 421.203 73.4688C421.484 73.4688 421.698 73.5495 421.844 73.7109C421.99 73.8724 422.062 74.0703 422.062 74.3047C422.062 74.5391 421.99 74.7344 421.844 74.8906C421.698 75.0469 421.484 75.125 421.203 75.125C420.922 75.125 420.708 75.0469 420.562 74.8906C420.422 74.7344 420.352 74.5391 420.352 74.3047ZM425.602 76.5469L425.648 77.6094C426.294 76.7969 427.138 76.3906 428.18 76.3906C429.966 76.3906 430.867 77.3984 430.883 79.4141V85H429.438V79.4062C429.432 78.7969 429.292 78.3464 429.016 78.0547C428.745 77.763 428.32 77.6172 427.742 77.6172C427.273 77.6172 426.862 77.7422 426.508 77.9922C426.154 78.2422 425.878 78.5703 425.68 78.9766V85H424.234V76.5469H425.602ZM436.977 80.3828C436.977 79.2057 437.133 78.0755 437.445 76.9922C437.763 75.9089 438.234 74.9245 438.859 74.0391C439.484 73.1536 440.133 72.5286 440.805 72.1641L441.102 73.1172C440.341 73.7005 439.716 74.5911 439.227 75.7891C438.742 76.987 438.477 78.3281 438.43 79.8125L438.422 80.4766C438.422 82.487 438.789 84.2318 439.523 85.7109C439.966 86.5964 440.492 87.2891 441.102 87.7891L440.805 88.6719C440.112 88.2865 439.451 87.6406 438.82 86.7344C437.591 84.9635 436.977 82.8464 436.977 80.3828ZM453.773 80.4609C453.773 81.6224 453.62 82.737 453.312 83.8047C453.01 84.8672 452.544 85.849 451.914 86.75C451.289 87.651 450.633 88.2917 449.945 88.6719L449.641 87.7891C450.443 87.1745 451.086 86.2214 451.57 84.9297C452.06 83.6328 452.31 82.1953 452.32 80.6172V80.3672C452.32 79.2734 452.206 78.2578 451.977 77.3203C451.747 76.3776 451.427 75.5339 451.016 74.7891C450.609 74.0443 450.151 73.4635 449.641 73.0469L449.945 72.1641C450.633 72.5443 451.286 73.1797 451.906 74.0703C452.531 74.9609 452.997 75.9427 453.305 77.0156C453.617 78.0885 453.773 79.237 453.773 80.4609ZM470.547 78.6406H464.031V77.3828H470.547V78.6406ZM470.547 81.8828H464.031V80.6328H470.547V81.8828Z" fill="black"/>
<path d="M484.711 68.6953C484.711 67.8672 484.872 67.1224 485.195 66.4609C485.523 65.7995 485.977 65.2891 486.555 64.9297C487.138 64.5703 487.802 64.3906 488.547 64.3906C489.698 64.3906 490.628 64.7891 491.336 65.5859C492.049 66.3828 492.406 67.4427 492.406 68.7656V68.8672C492.406 69.6901 492.247 70.4297 491.93 71.0859C491.617 71.737 491.167 72.2448 490.578 72.6094C489.995 72.974 489.323 73.1562 488.562 73.1562C487.417 73.1562 486.487 72.7578 485.773 71.9609C485.065 71.1641 484.711 70.1094 484.711 68.7969V68.6953ZM486.164 68.8672C486.164 69.8047 486.38 70.5573 486.812 71.125C487.25 71.6927 487.833 71.9766 488.562 71.9766C489.297 71.9766 489.88 71.6901 490.312 71.1172C490.745 70.5391 490.961 69.7318 490.961 68.6953C490.961 67.7682 490.74 67.0182 490.297 66.4453C489.859 65.8672 489.276 65.5781 488.547 65.5781C487.833 65.5781 487.258 65.862 486.82 66.4297C486.383 66.9974 486.164 67.8099 486.164 68.8672ZM501.359 68.8672C501.359 70.1536 501.065 71.1901 500.477 71.9766C499.888 72.763 499.091 73.1562 498.086 73.1562C497.06 73.1562 496.253 72.8307 495.664 72.1797V76.25H494.219V64.5469H495.539L495.609 65.4844C496.198 64.7552 497.016 64.3906 498.062 64.3906C499.078 64.3906 499.88 64.7734 500.469 65.5391C501.062 66.3047 501.359 67.3698 501.359 68.7344V68.8672ZM499.914 68.7031C499.914 67.75 499.711 66.9974 499.305 66.4453C498.898 65.8932 498.341 65.6172 497.633 65.6172C496.758 65.6172 496.102 66.0052 495.664 66.7812V70.8203C496.096 71.5911 496.758 71.9766 497.648 71.9766C498.341 71.9766 498.891 71.7031 499.297 71.1562C499.708 70.6042 499.914 69.7865 499.914 68.7031ZM510.344 68.8672C510.344 70.1536 510.049 71.1901 509.461 71.9766C508.872 72.763 508.076 73.1562 507.07 73.1562C506.044 73.1562 505.237 72.8307 504.648 72.1797V76.25H503.203V64.5469H504.523L504.594 65.4844C505.182 64.7552 506 64.3906 507.047 64.3906C508.062 64.3906 508.865 64.7734 509.453 65.5391C510.047 66.3047 510.344 67.3698 510.344 68.7344V68.8672ZM508.898 68.7031C508.898 67.75 508.695 66.9974 508.289 66.4453C507.883 65.8932 507.326 65.6172 506.617 65.6172C505.742 65.6172 505.086 66.0052 504.648 66.7812V70.8203C505.081 71.5911 505.742 71.9766 506.633 71.9766C507.326 71.9766 507.875 71.7031 508.281 71.1562C508.693 70.6042 508.898 69.7865 508.898 68.7031ZM511.805 68.6953C511.805 67.8672 511.966 67.1224 512.289 66.4609C512.617 65.7995 513.07 65.2891 513.648 64.9297C514.232 64.5703 514.896 64.3906 515.641 64.3906C516.792 64.3906 517.721 64.7891 518.43 65.5859C519.143 66.3828 519.5 67.4427 519.5 68.7656V68.8672C519.5 69.6901 519.341 70.4297 519.023 71.0859C518.711 71.737 518.26 72.2448 517.672 72.6094C517.089 72.974 516.417 73.1562 515.656 73.1562C514.51 73.1562 513.581 72.7578 512.867 71.9609C512.159 71.1641 511.805 70.1094 511.805 68.7969V68.6953ZM513.258 68.8672C513.258 69.8047 513.474 70.5573 513.906 71.125C514.344 71.6927 514.927 71.9766 515.656 71.9766C516.391 71.9766 516.974 71.6901 517.406 71.1172C517.839 70.5391 518.055 69.7318 518.055 68.6953C518.055 67.7682 517.833 67.0182 517.391 66.4453C516.953 65.8672 516.37 65.5781 515.641 65.5781C514.927 65.5781 514.352 65.862 513.914 66.4297C513.477 66.9974 513.258 67.8099 513.258 68.8672ZM526.234 70.7578C526.234 70.3672 526.086 70.0651 525.789 69.8516C525.497 69.6328 524.984 69.4453 524.25 69.2891C523.521 69.1328 522.94 68.9453 522.508 68.7266C522.081 68.5078 521.763 68.2474 521.555 67.9453C521.352 67.6432 521.25 67.2839 521.25 66.8672C521.25 66.1745 521.542 65.5885 522.125 65.1094C522.714 64.6302 523.464 64.3906 524.375 64.3906C525.333 64.3906 526.109 64.638 526.703 65.1328C527.302 65.6276 527.602 66.2604 527.602 67.0312H526.148C526.148 66.6354 525.979 66.2943 525.641 66.0078C525.307 65.7214 524.885 65.5781 524.375 65.5781C523.849 65.5781 523.438 65.6927 523.141 65.9219C522.844 66.151 522.695 66.4505 522.695 66.8203C522.695 67.1693 522.833 67.4323 523.109 67.6094C523.385 67.7865 523.883 67.9557 524.602 68.1172C525.326 68.2786 525.911 68.4714 526.359 68.6953C526.807 68.9193 527.138 69.1901 527.352 69.5078C527.57 69.8203 527.68 70.2031 527.68 70.6562C527.68 71.4115 527.378 72.0182 526.773 72.4766C526.169 72.9297 525.385 73.1562 524.422 73.1562C523.745 73.1562 523.146 73.0365 522.625 72.7969C522.104 72.5573 521.695 72.224 521.398 71.7969C521.107 71.3646 520.961 70.8984 520.961 70.3984H522.406C522.432 70.8828 522.625 71.2682 522.984 71.5547C523.349 71.8359 523.828 71.9766 524.422 71.9766C524.969 71.9766 525.406 71.8672 525.734 71.6484C526.068 71.4245 526.234 71.1276 526.234 70.7578ZM531.133 73H529.688V64.5469H531.133V73ZM529.57 62.3047C529.57 62.0703 529.641 61.8724 529.781 61.7109C529.927 61.5495 530.141 61.4688 530.422 61.4688C530.703 61.4688 530.917 61.5495 531.062 61.7109C531.208 61.8724 531.281 62.0703 531.281 62.3047C531.281 62.5391 531.208 62.7344 531.062 62.8906C530.917 63.0469 530.703 63.125 530.422 63.125C530.141 63.125 529.927 63.0469 529.781 62.8906C529.641 62.7344 529.57 62.5391 529.57 62.3047ZM535.414 62.5V64.5469H536.992V65.6641H535.414V70.9062C535.414 71.2448 535.484 71.5 535.625 71.6719C535.766 71.8385 536.005 71.9219 536.344 71.9219C536.51 71.9219 536.74 71.8906 537.031 71.8281V73C536.651 73.1042 536.281 73.1562 535.922 73.1562C535.276 73.1562 534.789 72.9609 534.461 72.5703C534.133 72.1797 533.969 71.625 533.969 70.9062V65.6641H532.43V64.5469H533.969V62.5H535.414ZM542.195 73.1562C541.049 73.1562 540.117 72.7812 539.398 72.0312C538.68 71.276 538.32 70.2682 538.32 69.0078V68.7422C538.32 67.9036 538.479 67.1562 538.797 66.5C539.12 65.8385 539.568 65.3229 540.141 64.9531C540.719 64.5781 541.344 64.3906 542.016 64.3906C543.115 64.3906 543.969 64.7526 544.578 65.4766C545.188 66.2005 545.492 67.237 545.492 68.5859V69.1875H539.766C539.786 70.0208 540.029 70.6953 540.492 71.2109C540.961 71.7214 541.555 71.9766 542.273 71.9766C542.784 71.9766 543.216 71.8724 543.57 71.6641C543.924 71.4557 544.234 71.1797 544.5 70.8359L545.383 71.5234C544.674 72.612 543.612 73.1562 542.195 73.1562ZM542.016 65.5781C541.432 65.5781 540.943 65.7917 540.547 66.2188C540.151 66.6406 539.906 67.2344 539.812 68H544.047V67.8906C544.005 67.1562 543.807 66.5885 543.453 66.1875C543.099 65.7812 542.62 65.5781 542.016 65.5781Z" fill="black"/>
<path d="M584.711 78.6953C584.711 77.8672 584.872 77.1224 585.195 76.4609C585.523 75.7995 585.977 75.2891 586.555 74.9297C587.138 74.5703 587.802 74.3906 588.547 74.3906C589.698 74.3906 590.628 74.7891 591.336 75.5859C592.049 76.3828 592.406 77.4427 592.406 78.7656V78.8672C592.406 79.6901 592.247 80.4297 591.93 81.0859C591.617 81.737 591.167 82.2448 590.578 82.6094C589.995 82.974 589.323 83.1562 588.562 83.1562C587.417 83.1562 586.487 82.7578 585.773 81.9609C585.065 81.1641 584.711 80.1094 584.711 78.7969V78.6953ZM586.164 78.8672C586.164 79.8047 586.38 80.5573 586.812 81.125C587.25 81.6927 587.833 81.9766 588.562 81.9766C589.297 81.9766 589.88 81.6901 590.312 81.1172C590.745 80.5391 590.961 79.7318 590.961 78.6953C590.961 77.7682 590.74 77.0182 590.297 76.4453C589.859 75.8672 589.276 75.5781 588.547 75.5781C587.833 75.5781 587.258 75.862 586.82 76.4297C586.383 76.9974 586.164 77.8099 586.164 78.8672ZM601.359 78.8672C601.359 80.1536 601.065 81.1901 600.477 81.9766C599.888 82.763 599.091 83.1562 598.086 83.1562C597.06 83.1562 596.253 82.8307 595.664 82.1797V86.25H594.219V74.5469H595.539L595.609 75.4844C596.198 74.7552 597.016 74.3906 598.062 74.3906C599.078 74.3906 599.88 74.7734 600.469 75.5391C601.062 76.3047 601.359 77.3698 601.359 78.7344V78.8672ZM599.914 78.7031C599.914 77.75 599.711 76.9974 599.305 76.4453C598.898 75.8932 598.341 75.6172 597.633 75.6172C596.758 75.6172 596.102 76.0052 595.664 76.7812V80.8203C596.096 81.5911 596.758 81.9766 597.648 81.9766C598.341 81.9766 598.891 81.7031 599.297 81.1562C599.708 80.6042 599.914 79.7865 599.914 78.7031ZM610.344 78.8672C610.344 80.1536 610.049 81.1901 609.461 81.9766C608.872 82.763 608.076 83.1562 607.07 83.1562C606.044 83.1562 605.237 82.8307 604.648 82.1797V86.25H603.203V74.5469H604.523L604.594 75.4844C605.182 74.7552 606 74.3906 607.047 74.3906C608.062 74.3906 608.865 74.7734 609.453 75.5391C610.047 76.3047 610.344 77.3698 610.344 78.7344V78.8672ZM608.898 78.7031C608.898 77.75 608.695 76.9974 608.289 76.4453C607.883 75.8932 607.326 75.6172 606.617 75.6172C605.742 75.6172 605.086 76.0052 604.648 76.7812V80.8203C605.081 81.5911 605.742 81.9766 606.633 81.9766C607.326 81.9766 607.875 81.7031 608.281 81.1562C608.693 80.6042 608.898 79.7865 608.898 78.7031ZM611.805 78.6953C611.805 77.8672 611.966 77.1224 612.289 76.4609C612.617 75.7995 613.07 75.2891 613.648 74.9297C614.232 74.5703 614.896 74.3906 615.641 74.3906C616.792 74.3906 617.721 74.7891 618.43 75.5859C619.143 76.3828 619.5 77.4427 619.5 78.7656V78.8672C619.5 79.6901 619.341 80.4297 619.023 81.0859C618.711 81.737 618.26 82.2448 617.672 82.6094C617.089 82.974 616.417 83.1562 615.656 83.1562C614.51 83.1562 613.581 82.7578 612.867 81.9609C612.159 81.1641 611.805 80.1094 611.805 78.7969V78.6953ZM613.258 78.8672C613.258 79.8047 613.474 80.5573 613.906 81.125C614.344 81.6927 614.927 81.9766 615.656 81.9766C616.391 81.9766 616.974 81.6901 617.406 81.1172C617.839 80.5391 618.055 79.7318 618.055 78.6953C618.055 77.7682 617.833 77.0182 617.391 76.4453C616.953 75.8672 616.37 75.5781 615.641 75.5781C614.927 75.5781 614.352 75.862 613.914 76.4297C613.477 76.9974 613.258 77.8099 613.258 78.8672ZM626.234 80.7578C626.234 80.3672 626.086 80.0651 625.789 79.8516C625.497 79.6328 624.984 79.4453 624.25 79.2891C623.521 79.1328 622.94 78.9453 622.508 78.7266C622.081 78.5078 621.763 78.2474 621.555 77.9453C621.352 77.6432 621.25 77.2839 621.25 76.8672C621.25 76.1745 621.542 75.5885 622.125 75.1094C622.714 74.6302 623.464 74.3906 624.375 74.3906C625.333 74.3906 626.109 74.638 626.703 75.1328C627.302 75.6276 627.602 76.2604 627.602 77.0312H626.148C626.148 76.6354 625.979 76.2943 625.641 76.0078C625.307 75.7214 624.885 75.5781 624.375 75.5781C623.849 75.5781 623.438 75.6927 623.141 75.9219C622.844 76.151 622.695 76.4505 622.695 76.8203C622.695 77.1693 622.833 77.4323 623.109 77.6094C623.385 77.7865 623.883 77.9557 624.602 78.1172C625.326 78.2786 625.911 78.4714 626.359 78.6953C626.807 78.9193 627.138 79.1901 627.352 79.5078C627.57 79.8203 627.68 80.2031 627.68 80.6562C627.68 81.4115 627.378 82.0182 626.773 82.4766C626.169 82.9297 625.385 83.1562 624.422 83.1562C623.745 83.1562 623.146 83.0365 622.625 82.7969C622.104 82.5573 621.695 82.224 621.398 81.7969C621.107 81.3646 620.961 80.8984 620.961 80.3984H622.406C622.432 80.8828 622.625 81.2682 622.984 81.5547C623.349 81.8359 623.828 81.9766 624.422 81.9766C624.969 81.9766 625.406 81.8672 625.734 81.6484C626.068 81.4245 626.234 81.1276 626.234 80.7578ZM631.133 83H629.688V74.5469H631.133V83ZM629.57 72.3047C629.57 72.0703 629.641 71.8724 629.781 71.7109C629.927 71.5495 630.141 71.4688 630.422 71.4688C630.703 71.4688 630.917 71.5495 631.062 71.7109C631.208 71.8724 631.281 72.0703 631.281 72.3047C631.281 72.5391 631.208 72.7344 631.062 72.8906C630.917 73.0469 630.703 73.125 630.422 73.125C630.141 73.125 629.927 73.0469 629.781 72.8906C629.641 72.7344 629.57 72.5391 629.57 72.3047ZM635.414 72.5V74.5469H636.992V75.6641H635.414V80.9062C635.414 81.2448 635.484 81.5 635.625 81.6719C635.766 81.8385 636.005 81.9219 636.344 81.9219C636.51 81.9219 636.74 81.8906 637.031 81.8281V83C636.651 83.1042 636.281 83.1562 635.922 83.1562C635.276 83.1562 634.789 82.9609 634.461 82.5703C634.133 82.1797 633.969 81.625 633.969 80.9062V75.6641H632.43V74.5469H633.969V72.5H635.414ZM642.195 83.1562C641.049 83.1562 640.117 82.7812 639.398 82.0312C638.68 81.276 638.32 80.2682 638.32 79.0078V78.7422C638.32 77.9036 638.479 77.1562 638.797 76.5C639.12 75.8385 639.568 75.3229 640.141 74.9531C640.719 74.5781 641.344 74.3906 642.016 74.3906C643.115 74.3906 643.969 74.7526 644.578 75.4766C645.188 76.2005 645.492 77.237 645.492 78.5859V79.1875H639.766C639.786 80.0208 640.029 80.6953 640.492 81.2109C640.961 81.7214 641.555 81.9766 642.273 81.9766C642.784 81.9766 643.216 81.8724 643.57 81.6641C643.924 81.4557 644.234 81.1797 644.5 80.8359L645.383 81.5234C644.674 82.612 643.612 83.1562 642.195 83.1562ZM642.016 75.5781C641.432 75.5781 640.943 75.7917 640.547 76.2188C640.151 76.6406 639.906 77.2344 639.812 78H644.047V77.8906C644.005 77.1562 643.807 76.5885 643.453 76.1875C643.099 75.7812 642.62 75.5781 642.016 75.5781Z" fill="black"/>
<path d="M679.859 80.8828L681.828 74.5469H683.375L679.977 84.3047C679.451 85.7109 678.615 86.4141 677.469 86.4141L677.195 86.3906L676.656 86.2891V85.1172L677.047 85.1484C677.536 85.1484 677.917 85.0495 678.188 84.8516C678.464 84.6536 678.69 84.2917 678.867 83.7656L679.188 82.9062L676.172 74.5469H677.75L679.859 80.8828Z" fill="black"/>
<path d="M480.539 90.5703C481.18 89.7839 482.013 89.3906 483.039 89.3906C484.826 89.3906 485.727 90.3984 485.742 92.4141V98H484.297V92.4062C484.292 91.7969 484.151 91.3464 483.875 91.0547C483.604 90.763 483.18 90.6172 482.602 90.6172C482.133 90.6172 481.721 90.7422 481.367 90.9922C481.013 91.2422 480.737 91.5703 480.539 91.9766V98H479.094V86H480.539V90.5703ZM490.672 95.8828L492.641 89.5469H494.188L490.789 99.3047C490.263 100.711 489.427 101.414 488.281 101.414L488.008 101.391L487.469 101.289V100.117L487.859 100.148C488.349 100.148 488.729 100.049 489 99.8516C489.276 99.6536 489.503 99.2917 489.68 98.7656L490 97.9062L486.984 89.5469H488.562L490.672 95.8828ZM502.625 93.8672C502.625 95.1536 502.331 96.1901 501.742 96.9766C501.154 97.763 500.357 98.1562 499.352 98.1562C498.326 98.1562 497.518 97.8307 496.93 97.1797V101.25H495.484V89.5469H496.805L496.875 90.4844C497.464 89.7552 498.281 89.3906 499.328 89.3906C500.344 89.3906 501.146 89.7734 501.734 90.5391C502.328 91.3047 502.625 92.3698 502.625 93.7344V93.8672ZM501.18 93.7031C501.18 92.75 500.977 91.9974 500.57 91.4453C500.164 90.8932 499.607 90.6172 498.898 90.6172C498.023 90.6172 497.367 91.0052 496.93 91.7812V95.8203C497.362 96.5911 498.023 96.9766 498.914 96.9766C499.607 96.9766 500.156 96.7031 500.562 96.1562C500.974 95.6042 501.18 94.7865 501.18 93.7031ZM504.086 93.6953C504.086 92.8672 504.247 92.1224 504.57 91.4609C504.898 90.7995 505.352 90.2891 505.93 89.9297C506.513 89.5703 507.177 89.3906 507.922 89.3906C509.073 89.3906 510.003 89.7891 510.711 90.5859C511.424 91.3828 511.781 92.4427 511.781 93.7656V93.8672C511.781 94.6901 511.622 95.4297 511.305 96.0859C510.992 96.737 510.542 97.2448 509.953 97.6094C509.37 97.974 508.698 98.1562 507.938 98.1562C506.792 98.1562 505.862 97.7578 505.148 96.9609C504.44 96.1641 504.086 95.1094 504.086 93.7969V93.6953ZM505.539 93.8672C505.539 94.8047 505.755 95.5573 506.188 96.125C506.625 96.6927 507.208 96.9766 507.938 96.9766C508.672 96.9766 509.255 96.6901 509.688 96.1172C510.12 95.5391 510.336 94.7318 510.336 93.6953C510.336 92.7682 510.115 92.0182 509.672 91.4453C509.234 90.8672 508.651 90.5781 507.922 90.5781C507.208 90.5781 506.633 90.862 506.195 91.4297C505.758 91.9974 505.539 92.8099 505.539 93.8672ZM515.555 87.5V89.5469H517.133V90.6641H515.555V95.9062C515.555 96.2448 515.625 96.5 515.766 96.6719C515.906 96.8385 516.146 96.9219 516.484 96.9219C516.651 96.9219 516.88 96.8906 517.172 96.8281V98C516.792 98.1042 516.422 98.1562 516.062 98.1562C515.417 98.1562 514.93 97.9609 514.602 97.5703C514.273 97.1797 514.109 96.625 514.109 95.9062V90.6641H512.57V89.5469H514.109V87.5H515.555ZM522.336 98.1562C521.19 98.1562 520.258 97.7812 519.539 97.0312C518.82 96.276 518.461 95.2682 518.461 94.0078V93.7422C518.461 92.9036 518.62 92.1562 518.938 91.5C519.26 90.8385 519.708 90.3229 520.281 89.9531C520.859 89.5781 521.484 89.3906 522.156 89.3906C523.255 89.3906 524.109 89.7526 524.719 90.4766C525.328 91.2005 525.633 92.237 525.633 93.5859V94.1875H519.906C519.927 95.0208 520.169 95.6953 520.633 96.2109C521.102 96.7214 521.695 96.9766 522.414 96.9766C522.924 96.9766 523.357 96.8724 523.711 96.6641C524.065 96.4557 524.375 96.1797 524.641 95.8359L525.523 96.5234C524.815 97.612 523.753 98.1562 522.336 98.1562ZM522.156 90.5781C521.573 90.5781 521.083 90.7917 520.688 91.2188C520.292 91.6406 520.047 92.2344 519.953 93H524.188V92.8906C524.146 92.1562 523.948 91.5885 523.594 91.1875C523.24 90.7812 522.76 90.5781 522.156 90.5781ZM528.68 89.5469L528.727 90.6094C529.372 89.7969 530.216 89.3906 531.258 89.3906C533.044 89.3906 533.945 90.3984 533.961 92.4141V98H532.516V92.4062C532.51 91.7969 532.37 91.3464 532.094 91.0547C531.823 90.763 531.398 90.6172 530.82 90.6172C530.352 90.6172 529.94 90.7422 529.586 90.9922C529.232 91.2422 528.956 91.5703 528.758 91.9766V98H527.312V89.5469H528.68ZM541.359 97.1641C540.797 97.8255 539.971 98.1562 538.883 98.1562C537.982 98.1562 537.294 97.8958 536.82 97.375C536.352 96.849 536.115 96.0729 536.109 95.0469V89.5469H537.555V95.0078C537.555 96.2891 538.076 96.9297 539.117 96.9297C540.221 96.9297 540.956 96.5182 541.32 95.6953V89.5469H542.766V98H541.391L541.359 97.1641ZM549.891 95.7578C549.891 95.3672 549.742 95.0651 549.445 94.8516C549.154 94.6328 548.641 94.4453 547.906 94.2891C547.177 94.1328 546.596 93.9453 546.164 93.7266C545.737 93.5078 545.419 93.2474 545.211 92.9453C545.008 92.6432 544.906 92.2839 544.906 91.8672C544.906 91.1745 545.198 90.5885 545.781 90.1094C546.37 89.6302 547.12 89.3906 548.031 89.3906C548.99 89.3906 549.766 89.638 550.359 90.1328C550.958 90.6276 551.258 91.2604 551.258 92.0312H549.805C549.805 91.6354 549.635 91.2943 549.297 91.0078C548.964 90.7214 548.542 90.5781 548.031 90.5781C547.505 90.5781 547.094 90.6927 546.797 90.9219C546.5 91.151 546.352 91.4505 546.352 91.8203C546.352 92.1693 546.49 92.4323 546.766 92.6094C547.042 92.7865 547.539 92.9557 548.258 93.1172C548.982 93.2786 549.568 93.4714 550.016 93.6953C550.464 93.9193 550.794 94.1901 551.008 94.5078C551.227 94.8203 551.336 95.2031 551.336 95.6562C551.336 96.4115 551.034 97.0182 550.43 97.4766C549.826 97.9297 549.042 98.1562 548.078 98.1562C547.401 98.1562 546.802 98.0365 546.281 97.7969C545.76 97.5573 545.352 97.224 545.055 96.7969C544.763 96.3646 544.617 95.8984 544.617 95.3984H546.062C546.089 95.8828 546.281 96.2682 546.641 96.5547C547.005 96.8359 547.484 96.9766 548.078 96.9766C548.625 96.9766 549.062 96.8672 549.391 96.6484C549.724 96.4245 549.891 96.1276 549.891 95.7578ZM556.727 98.1562C555.581 98.1562 554.648 97.7812 553.93 97.0312C553.211 96.276 552.852 95.2682 552.852 94.0078V93.7422C552.852 92.9036 553.01 92.1562 553.328 91.5C553.651 90.8385 554.099 90.3229 554.672 89.9531C555.25 89.5781 555.875 89.3906 556.547 89.3906C557.646 89.3906 558.5 89.7526 559.109 90.4766C559.719 91.2005 560.023 92.237 560.023 93.5859V94.1875H554.297C554.318 95.0208 554.56 95.6953 555.023 96.2109C555.492 96.7214 556.086 96.9766 556.805 96.9766C557.315 96.9766 557.747 96.8724 558.102 96.6641C558.456 96.4557 558.766 96.1797 559.031 95.8359L559.914 96.5234C559.206 97.612 558.143 98.1562 556.727 98.1562ZM556.547 90.5781C555.964 90.5781 555.474 90.7917 555.078 91.2188C554.682 91.6406 554.438 92.2344 554.344 93H558.578V92.8906C558.536 92.1562 558.339 91.5885 557.984 91.1875C557.63 90.7812 557.151 90.5781 556.547 90.5781Z" fill="black"/>
<line x1="484" y1="80.5" x2="545" y2="80.5" stroke="black"/>
<path d="M574.703 78.6406H568.188V77.3828H574.703V78.6406ZM574.703 81.8828H568.188V80.6328H574.703V81.8828Z" fill="black"/>
<path d="M662.703 78.6406H656.188V77.3828H662.703V78.6406ZM662.703 81.8828H656.188V80.6328H662.703V81.8828Z" fill="black"/>
<path d="M447.562 144.495H444.028V143.456H447.562V144.495ZM449.709 144.345C449.709 145.315 449.545 146.163 449.217 146.888C448.893 147.612 448.431 148.168 447.829 148.556C447.228 148.943 446.523 149.137 445.717 149.137C444.933 149.137 444.238 148.945 443.632 148.562C443.026 148.175 442.554 147.626 442.217 146.915C441.884 146.2 441.713 145.372 441.704 144.434V143.716C441.704 142.759 441.87 141.913 442.203 141.18C442.536 140.446 443.005 139.885 443.611 139.498C444.222 139.106 444.919 138.91 445.703 138.91C446.501 138.91 447.2 139.102 447.802 139.484C448.403 139.867 448.868 140.419 449.196 141.139C449.529 141.854 449.7 142.684 449.709 143.627V144.345ZM448.403 143.702C448.403 142.522 448.166 141.617 447.692 140.988C447.218 140.355 446.555 140.038 445.703 140.038C444.874 140.038 444.22 140.355 443.741 140.988C443.267 141.617 443.023 142.492 443.01 143.613V144.345C443.01 145.484 443.247 146.382 443.721 147.038C444.199 147.694 444.865 148.022 445.717 148.022C446.564 148.022 447.221 147.715 447.686 147.1C448.15 146.48 448.39 145.593 448.403 144.44V143.702Z" fill="black"/>
<path d="M411.484 147.977C412 147.977 412.451 147.82 412.836 147.508C413.221 147.195 413.435 146.805 413.477 146.336H414.844C414.818 146.82 414.651 147.281 414.344 147.719C414.036 148.156 413.625 148.505 413.109 148.766C412.599 149.026 412.057 149.156 411.484 149.156C410.333 149.156 409.417 148.773 408.734 148.008C408.057 147.237 407.719 146.185 407.719 144.852V144.609C407.719 143.786 407.87 143.055 408.172 142.414C408.474 141.773 408.906 141.276 409.469 140.922C410.036 140.568 410.706 140.391 411.477 140.391C412.424 140.391 413.211 140.674 413.836 141.242C414.466 141.81 414.802 142.547 414.844 143.453H413.477C413.435 142.906 413.227 142.458 412.852 142.109C412.482 141.755 412.023 141.578 411.477 141.578C410.742 141.578 410.172 141.844 409.766 142.375C409.365 142.901 409.164 143.664 409.164 144.664V144.938C409.164 145.911 409.365 146.661 409.766 147.188C410.167 147.714 410.74 147.977 411.484 147.977ZM416.086 144.695C416.086 143.867 416.247 143.122 416.57 142.461C416.898 141.799 417.352 141.289 417.93 140.93C418.513 140.57 419.177 140.391 419.922 140.391C421.073 140.391 422.003 140.789 422.711 141.586C423.424 142.383 423.781 143.443 423.781 144.766V144.867C423.781 145.69 423.622 146.43 423.305 147.086C422.992 147.737 422.542 148.245 421.953 148.609C421.37 148.974 420.698 149.156 419.938 149.156C418.792 149.156 417.862 148.758 417.148 147.961C416.44 147.164 416.086 146.109 416.086 144.797V144.695ZM417.539 144.867C417.539 145.805 417.755 146.557 418.188 147.125C418.625 147.693 419.208 147.977 419.938 147.977C420.672 147.977 421.255 147.69 421.688 147.117C422.12 146.539 422.336 145.732 422.336 144.695C422.336 143.768 422.115 143.018 421.672 142.445C421.234 141.867 420.651 141.578 419.922 141.578C419.208 141.578 418.633 141.862 418.195 142.43C417.758 142.997 417.539 143.81 417.539 144.867ZM430.516 146.758C430.516 146.367 430.367 146.065 430.07 145.852C429.779 145.633 429.266 145.445 428.531 145.289C427.802 145.133 427.221 144.945 426.789 144.727C426.362 144.508 426.044 144.247 425.836 143.945C425.633 143.643 425.531 143.284 425.531 142.867C425.531 142.174 425.823 141.589 426.406 141.109C426.995 140.63 427.745 140.391 428.656 140.391C429.615 140.391 430.391 140.638 430.984 141.133C431.583 141.628 431.883 142.26 431.883 143.031H430.43C430.43 142.635 430.26 142.294 429.922 142.008C429.589 141.721 429.167 141.578 428.656 141.578C428.13 141.578 427.719 141.693 427.422 141.922C427.125 142.151 426.977 142.451 426.977 142.82C426.977 143.169 427.115 143.432 427.391 143.609C427.667 143.786 428.164 143.956 428.883 144.117C429.607 144.279 430.193 144.471 430.641 144.695C431.089 144.919 431.419 145.19 431.633 145.508C431.852 145.82 431.961 146.203 431.961 146.656C431.961 147.411 431.659 148.018 431.055 148.477C430.451 148.93 429.667 149.156 428.703 149.156C428.026 149.156 427.427 149.036 426.906 148.797C426.385 148.557 425.977 148.224 425.68 147.797C425.388 147.365 425.242 146.898 425.242 146.398H426.688C426.714 146.883 426.906 147.268 427.266 147.555C427.63 147.836 428.109 147.977 428.703 147.977C429.25 147.977 429.688 147.867 430.016 147.648C430.349 147.424 430.516 147.128 430.516 146.758ZM437.758 144.383C437.758 143.206 437.914 142.076 438.227 140.992C438.544 139.909 439.016 138.924 439.641 138.039C440.266 137.154 440.914 136.529 441.586 136.164L441.883 137.117C441.122 137.701 440.497 138.591 440.008 139.789C439.523 140.987 439.258 142.328 439.211 143.812L439.203 144.477C439.203 146.487 439.57 148.232 440.305 149.711C440.747 150.596 441.273 151.289 441.883 151.789L441.586 152.672C440.893 152.286 440.232 151.641 439.602 150.734C438.372 148.964 437.758 146.846 437.758 144.383ZM454.555 144.461C454.555 145.622 454.401 146.737 454.094 147.805C453.792 148.867 453.326 149.849 452.695 150.75C452.07 151.651 451.414 152.292 450.727 152.672L450.422 151.789C451.224 151.174 451.867 150.221 452.352 148.93C452.841 147.633 453.091 146.195 453.102 144.617V144.367C453.102 143.273 452.987 142.258 452.758 141.32C452.529 140.378 452.208 139.534 451.797 138.789C451.391 138.044 450.932 137.464 450.422 137.047L450.727 136.164C451.414 136.544 452.068 137.18 452.688 138.07C453.312 138.961 453.779 139.943 454.086 141.016C454.398 142.089 454.555 143.237 454.555 144.461ZM471.328 142.641H464.812V141.383H471.328V142.641ZM471.328 145.883H464.812V144.633H471.328V145.883Z" fill="black"/>
<path d="M489.312 137C489.229 136.833 489.161 136.536 489.109 136.109C488.438 136.807 487.635 137.156 486.703 137.156C485.87 137.156 485.185 136.922 484.648 136.453C484.117 135.979 483.852 135.38 483.852 134.656C483.852 133.776 484.185 133.094 484.852 132.609C485.523 132.12 486.466 131.875 487.68 131.875H489.086V131.211C489.086 130.706 488.935 130.305 488.633 130.008C488.331 129.706 487.885 129.555 487.297 129.555C486.781 129.555 486.349 129.685 486 129.945C485.651 130.206 485.477 130.521 485.477 130.891H484.023C484.023 130.469 484.172 130.062 484.469 129.672C484.771 129.276 485.177 128.964 485.688 128.734C486.203 128.505 486.768 128.391 487.383 128.391C488.357 128.391 489.12 128.635 489.672 129.125C490.224 129.609 490.51 130.279 490.531 131.133V135.023C490.531 135.799 490.63 136.417 490.828 136.875V137H489.312ZM486.914 135.898C487.367 135.898 487.797 135.781 488.203 135.547C488.609 135.312 488.904 135.008 489.086 134.633V132.898H487.953C486.182 132.898 485.297 133.417 485.297 134.453C485.297 134.906 485.448 135.26 485.75 135.516C486.052 135.771 486.44 135.898 486.914 135.898ZM492.445 132.703C492.445 131.406 492.753 130.365 493.367 129.578C493.982 128.786 494.786 128.391 495.781 128.391C496.771 128.391 497.555 128.729 498.133 129.406V125H499.578V137H498.25L498.18 136.094C497.602 136.802 496.797 137.156 495.766 137.156C494.786 137.156 493.987 136.755 493.367 135.953C492.753 135.151 492.445 134.104 492.445 132.812V132.703ZM493.891 132.867C493.891 133.826 494.089 134.576 494.484 135.117C494.88 135.659 495.427 135.93 496.125 135.93C497.042 135.93 497.711 135.518 498.133 134.695V130.812C497.701 130.016 497.036 129.617 496.141 129.617C495.432 129.617 494.88 129.891 494.484 130.438C494.089 130.984 493.891 131.794 493.891 132.867ZM503.32 128.547V137.977C503.32 139.602 502.583 140.414 501.109 140.414C500.792 140.414 500.497 140.367 500.227 140.273V139.117C500.393 139.159 500.612 139.18 500.883 139.18C501.206 139.18 501.451 139.091 501.617 138.914C501.789 138.742 501.875 138.44 501.875 138.008V128.547H503.32ZM501.727 126.305C501.727 126.076 501.797 125.88 501.938 125.719C502.083 125.552 502.294 125.469 502.57 125.469C502.852 125.469 503.065 125.549 503.211 125.711C503.357 125.872 503.43 126.07 503.43 126.305C503.43 126.539 503.357 126.734 503.211 126.891C503.065 127.047 502.852 127.125 502.57 127.125C502.289 127.125 502.078 127.047 501.938 126.891C501.797 126.734 501.727 126.539 501.727 126.305ZM510.875 137C510.792 136.833 510.724 136.536 510.672 136.109C510 136.807 509.198 137.156 508.266 137.156C507.432 137.156 506.747 136.922 506.211 136.453C505.68 135.979 505.414 135.38 505.414 134.656C505.414 133.776 505.747 133.094 506.414 132.609C507.086 132.12 508.029 131.875 509.242 131.875H510.648V131.211C510.648 130.706 510.497 130.305 510.195 130.008C509.893 129.706 509.448 129.555 508.859 129.555C508.344 129.555 507.911 129.685 507.562 129.945C507.214 130.206 507.039 130.521 507.039 130.891H505.586C505.586 130.469 505.734 130.062 506.031 129.672C506.333 129.276 506.74 128.964 507.25 128.734C507.766 128.505 508.331 128.391 508.945 128.391C509.919 128.391 510.682 128.635 511.234 129.125C511.786 129.609 512.073 130.279 512.094 131.133V135.023C512.094 135.799 512.193 136.417 512.391 136.875V137H510.875ZM508.477 135.898C508.93 135.898 509.359 135.781 509.766 135.547C510.172 135.312 510.466 135.008 510.648 134.633V132.898H509.516C507.745 132.898 506.859 133.417 506.859 134.453C506.859 134.906 507.01 135.26 507.312 135.516C507.615 135.771 508.003 135.898 508.477 135.898ZM517.75 135.977C518.266 135.977 518.716 135.82 519.102 135.508C519.487 135.195 519.701 134.805 519.742 134.336H521.109C521.083 134.82 520.917 135.281 520.609 135.719C520.302 136.156 519.891 136.505 519.375 136.766C518.865 137.026 518.323 137.156 517.75 137.156C516.599 137.156 515.682 136.773 515 136.008C514.323 135.237 513.984 134.185 513.984 132.852V132.609C513.984 131.786 514.135 131.055 514.438 130.414C514.74 129.773 515.172 129.276 515.734 128.922C516.302 128.568 516.971 128.391 517.742 128.391C518.69 128.391 519.477 128.674 520.102 129.242C520.732 129.81 521.068 130.547 521.109 131.453H519.742C519.701 130.906 519.492 130.458 519.117 130.109C518.747 129.755 518.289 129.578 517.742 129.578C517.008 129.578 516.438 129.844 516.031 130.375C515.63 130.901 515.43 131.664 515.43 132.664V132.938C515.43 133.911 515.63 134.661 516.031 135.188C516.432 135.714 517.005 135.977 517.75 135.977ZM526.242 137.156C525.096 137.156 524.164 136.781 523.445 136.031C522.727 135.276 522.367 134.268 522.367 133.008V132.742C522.367 131.904 522.526 131.156 522.844 130.5C523.167 129.839 523.615 129.323 524.188 128.953C524.766 128.578 525.391 128.391 526.062 128.391C527.161 128.391 528.016 128.753 528.625 129.477C529.234 130.201 529.539 131.237 529.539 132.586V133.188H523.812C523.833 134.021 524.076 134.695 524.539 135.211C525.008 135.721 525.602 135.977 526.32 135.977C526.831 135.977 527.263 135.872 527.617 135.664C527.971 135.456 528.281 135.18 528.547 134.836L529.43 135.523C528.721 136.612 527.659 137.156 526.242 137.156ZM526.062 129.578C525.479 129.578 524.99 129.792 524.594 130.219C524.198 130.641 523.953 131.234 523.859 132H528.094V131.891C528.052 131.156 527.854 130.589 527.5 130.188C527.146 129.781 526.667 129.578 526.062 129.578ZM532.586 128.547L532.633 129.609C533.279 128.797 534.122 128.391 535.164 128.391C536.951 128.391 537.852 129.398 537.867 131.414V137H536.422V131.406C536.417 130.797 536.276 130.346 536 130.055C535.729 129.763 535.305 129.617 534.727 129.617C534.258 129.617 533.846 129.742 533.492 129.992C533.138 130.242 532.862 130.57 532.664 130.977V137H531.219V128.547H532.586ZM542.008 126.5V128.547H543.586V129.664H542.008V134.906C542.008 135.245 542.078 135.5 542.219 135.672C542.359 135.839 542.599 135.922 542.938 135.922C543.104 135.922 543.333 135.891 543.625 135.828V137C543.245 137.104 542.875 137.156 542.516 137.156C541.87 137.156 541.383 136.961 541.055 136.57C540.727 136.18 540.562 135.625 540.562 134.906V129.664H539.023V128.547H540.562V126.5H542.008Z" fill="black"/>
<path d="M590.312 147C590.229 146.833 590.161 146.536 590.109 146.109C589.438 146.807 588.635 147.156 587.703 147.156C586.87 147.156 586.185 146.922 585.648 146.453C585.117 145.979 584.852 145.38 584.852 144.656C584.852 143.776 585.185 143.094 585.852 142.609C586.523 142.12 587.466 141.875 588.68 141.875H590.086V141.211C590.086 140.706 589.935 140.305 589.633 140.008C589.331 139.706 588.885 139.555 588.297 139.555C587.781 139.555 587.349 139.685 587 139.945C586.651 140.206 586.477 140.521 586.477 140.891H585.023C585.023 140.469 585.172 140.062 585.469 139.672C585.771 139.276 586.177 138.964 586.688 138.734C587.203 138.505 587.768 138.391 588.383 138.391C589.357 138.391 590.12 138.635 590.672 139.125C591.224 139.609 591.51 140.279 591.531 141.133V145.023C591.531 145.799 591.63 146.417 591.828 146.875V147H590.312ZM587.914 145.898C588.367 145.898 588.797 145.781 589.203 145.547C589.609 145.312 589.904 145.008 590.086 144.633V142.898H588.953C587.182 142.898 586.297 143.417 586.297 144.453C586.297 144.906 586.448 145.26 586.75 145.516C587.052 145.771 587.44 145.898 587.914 145.898ZM593.445 142.703C593.445 141.406 593.753 140.365 594.367 139.578C594.982 138.786 595.786 138.391 596.781 138.391C597.771 138.391 598.555 138.729 599.133 139.406V135H600.578V147H599.25L599.18 146.094C598.602 146.802 597.797 147.156 596.766 147.156C595.786 147.156 594.987 146.755 594.367 145.953C593.753 145.151 593.445 144.104 593.445 142.812V142.703ZM594.891 142.867C594.891 143.826 595.089 144.576 595.484 145.117C595.88 145.659 596.427 145.93 597.125 145.93C598.042 145.93 598.711 145.518 599.133 144.695V140.812C598.701 140.016 598.036 139.617 597.141 139.617C596.432 139.617 595.88 139.891 595.484 140.438C595.089 140.984 594.891 141.794 594.891 142.867ZM604.32 138.547V147.977C604.32 149.602 603.583 150.414 602.109 150.414C601.792 150.414 601.497 150.367 601.227 150.273V149.117C601.393 149.159 601.612 149.18 601.883 149.18C602.206 149.18 602.451 149.091 602.617 148.914C602.789 148.742 602.875 148.44 602.875 148.008V138.547H604.32ZM602.727 136.305C602.727 136.076 602.797 135.88 602.938 135.719C603.083 135.552 603.294 135.469 603.57 135.469C603.852 135.469 604.065 135.549 604.211 135.711C604.357 135.872 604.43 136.07 604.43 136.305C604.43 136.539 604.357 136.734 604.211 136.891C604.065 137.047 603.852 137.125 603.57 137.125C603.289 137.125 603.078 137.047 602.938 136.891C602.797 136.734 602.727 136.539 602.727 136.305ZM611.875 147C611.792 146.833 611.724 146.536 611.672 146.109C611 146.807 610.198 147.156 609.266 147.156C608.432 147.156 607.747 146.922 607.211 146.453C606.68 145.979 606.414 145.38 606.414 144.656C606.414 143.776 606.747 143.094 607.414 142.609C608.086 142.12 609.029 141.875 610.242 141.875H611.648V141.211C611.648 140.706 611.497 140.305 611.195 140.008C610.893 139.706 610.448 139.555 609.859 139.555C609.344 139.555 608.911 139.685 608.562 139.945C608.214 140.206 608.039 140.521 608.039 140.891H606.586C606.586 140.469 606.734 140.062 607.031 139.672C607.333 139.276 607.74 138.964 608.25 138.734C608.766 138.505 609.331 138.391 609.945 138.391C610.919 138.391 611.682 138.635 612.234 139.125C612.786 139.609 613.073 140.279 613.094 141.133V145.023C613.094 145.799 613.193 146.417 613.391 146.875V147H611.875ZM609.477 145.898C609.93 145.898 610.359 145.781 610.766 145.547C611.172 145.312 611.466 145.008 611.648 144.633V142.898H610.516C608.745 142.898 607.859 143.417 607.859 144.453C607.859 144.906 608.01 145.26 608.312 145.516C608.615 145.771 609.003 145.898 609.477 145.898ZM618.75 145.977C619.266 145.977 619.716 145.82 620.102 145.508C620.487 145.195 620.701 144.805 620.742 144.336H622.109C622.083 144.82 621.917 145.281 621.609 145.719C621.302 146.156 620.891 146.505 620.375 146.766C619.865 147.026 619.323 147.156 618.75 147.156C617.599 147.156 616.682 146.773 616 146.008C615.323 145.237 614.984 144.185 614.984 142.852V142.609C614.984 141.786 615.135 141.055 615.438 140.414C615.74 139.773 616.172 139.276 616.734 138.922C617.302 138.568 617.971 138.391 618.742 138.391C619.69 138.391 620.477 138.674 621.102 139.242C621.732 139.81 622.068 140.547 622.109 141.453H620.742C620.701 140.906 620.492 140.458 620.117 140.109C619.747 139.755 619.289 139.578 618.742 139.578C618.008 139.578 617.438 139.844 617.031 140.375C616.63 140.901 616.43 141.664 616.43 142.664V142.938C616.43 143.911 616.63 144.661 617.031 145.188C617.432 145.714 618.005 145.977 618.75 145.977ZM627.242 147.156C626.096 147.156 625.164 146.781 624.445 146.031C623.727 145.276 623.367 144.268 623.367 143.008V142.742C623.367 141.904 623.526 141.156 623.844 140.5C624.167 139.839 624.615 139.323 625.188 138.953C625.766 138.578 626.391 138.391 627.062 138.391C628.161 138.391 629.016 138.753 629.625 139.477C630.234 140.201 630.539 141.237 630.539 142.586V143.188H624.812C624.833 144.021 625.076 144.695 625.539 145.211C626.008 145.721 626.602 145.977 627.32 145.977C627.831 145.977 628.263 145.872 628.617 145.664C628.971 145.456 629.281 145.18 629.547 144.836L630.43 145.523C629.721 146.612 628.659 147.156 627.242 147.156ZM627.062 139.578C626.479 139.578 625.99 139.792 625.594 140.219C625.198 140.641 624.953 141.234 624.859 142H629.094V141.891C629.052 141.156 628.854 140.589 628.5 140.188C628.146 139.781 627.667 139.578 627.062 139.578ZM633.586 138.547L633.633 139.609C634.279 138.797 635.122 138.391 636.164 138.391C637.951 138.391 638.852 139.398 638.867 141.414V147H637.422V141.406C637.417 140.797 637.276 140.346 637 140.055C636.729 139.763 636.305 139.617 635.727 139.617C635.258 139.617 634.846 139.742 634.492 139.992C634.138 140.242 633.862 140.57 633.664 140.977V147H632.219V138.547H633.586ZM643.008 136.5V138.547H644.586V139.664H643.008V144.906C643.008 145.245 643.078 145.5 643.219 145.672C643.359 145.839 643.599 145.922 643.938 145.922C644.104 145.922 644.333 145.891 644.625 145.828V147C644.245 147.104 643.875 147.156 643.516 147.156C642.87 147.156 642.383 146.961 642.055 146.57C641.727 146.18 641.562 145.625 641.562 144.906V139.664H640.023V138.547H641.562V136.5H643.008Z" fill="black"/>
<path d="M679.93 141.633L681.805 138.547H683.492L680.727 142.727L683.578 147H681.906L679.953 143.836L678 147H676.32L679.172 142.727L676.406 138.547H678.078L679.93 141.633Z" fill="black"/>
<path d="M480.539 154.57C481.18 153.784 482.013 153.391 483.039 153.391C484.826 153.391 485.727 154.398 485.742 156.414V162H484.297V156.406C484.292 155.797 484.151 155.346 483.875 155.055C483.604 154.763 483.18 154.617 482.602 154.617C482.133 154.617 481.721 154.742 481.367 154.992C481.013 155.242 480.737 155.57 480.539 155.977V162H479.094V150H480.539V154.57ZM490.672 159.883L492.641 153.547H494.188L490.789 163.305C490.263 164.711 489.427 165.414 488.281 165.414L488.008 165.391L487.469 165.289V164.117L487.859 164.148C488.349 164.148 488.729 164.049 489 163.852C489.276 163.654 489.503 163.292 489.68 162.766L490 161.906L486.984 153.547H488.562L490.672 159.883ZM502.625 157.867C502.625 159.154 502.331 160.19 501.742 160.977C501.154 161.763 500.357 162.156 499.352 162.156C498.326 162.156 497.518 161.831 496.93 161.18V165.25H495.484V153.547H496.805L496.875 154.484C497.464 153.755 498.281 153.391 499.328 153.391C500.344 153.391 501.146 153.773 501.734 154.539C502.328 155.305 502.625 156.37 502.625 157.734V157.867ZM501.18 157.703C501.18 156.75 500.977 155.997 500.57 155.445C500.164 154.893 499.607 154.617 498.898 154.617C498.023 154.617 497.367 155.005 496.93 155.781V159.82C497.362 160.591 498.023 160.977 498.914 160.977C499.607 160.977 500.156 160.703 500.562 160.156C500.974 159.604 501.18 158.786 501.18 157.703ZM504.086 157.695C504.086 156.867 504.247 156.122 504.57 155.461C504.898 154.799 505.352 154.289 505.93 153.93C506.513 153.57 507.177 153.391 507.922 153.391C509.073 153.391 510.003 153.789 510.711 154.586C511.424 155.383 511.781 156.443 511.781 157.766V157.867C511.781 158.69 511.622 159.43 511.305 160.086C510.992 160.737 510.542 161.245 509.953 161.609C509.37 161.974 508.698 162.156 507.938 162.156C506.792 162.156 505.862 161.758 505.148 160.961C504.44 160.164 504.086 159.109 504.086 157.797V157.695ZM505.539 157.867C505.539 158.805 505.755 159.557 506.188 160.125C506.625 160.693 507.208 160.977 507.938 160.977C508.672 160.977 509.255 160.69 509.688 160.117C510.12 159.539 510.336 158.732 510.336 157.695C510.336 156.768 510.115 156.018 509.672 155.445C509.234 154.867 508.651 154.578 507.922 154.578C507.208 154.578 506.633 154.862 506.195 155.43C505.758 155.997 505.539 156.81 505.539 157.867ZM515.555 151.5V153.547H517.133V154.664H515.555V159.906C515.555 160.245 515.625 160.5 515.766 160.672C515.906 160.839 516.146 160.922 516.484 160.922C516.651 160.922 516.88 160.891 517.172 160.828V162C516.792 162.104 516.422 162.156 516.062 162.156C515.417 162.156 514.93 161.961 514.602 161.57C514.273 161.18 514.109 160.625 514.109 159.906V154.664H512.57V153.547H514.109V151.5H515.555ZM522.336 162.156C521.19 162.156 520.258 161.781 519.539 161.031C518.82 160.276 518.461 159.268 518.461 158.008V157.742C518.461 156.904 518.62 156.156 518.938 155.5C519.26 154.839 519.708 154.323 520.281 153.953C520.859 153.578 521.484 153.391 522.156 153.391C523.255 153.391 524.109 153.753 524.719 154.477C525.328 155.201 525.633 156.237 525.633 157.586V158.188H519.906C519.927 159.021 520.169 159.695 520.633 160.211C521.102 160.721 521.695 160.977 522.414 160.977C522.924 160.977 523.357 160.872 523.711 160.664C524.065 160.456 524.375 160.18 524.641 159.836L525.523 160.523C524.815 161.612 523.753 162.156 522.336 162.156ZM522.156 154.578C521.573 154.578 521.083 154.792 520.688 155.219C520.292 155.641 520.047 156.234 519.953 157H524.188V156.891C524.146 156.156 523.948 155.589 523.594 155.188C523.24 154.781 522.76 154.578 522.156 154.578ZM528.68 153.547L528.727 154.609C529.372 153.797 530.216 153.391 531.258 153.391C533.044 153.391 533.945 154.398 533.961 156.414V162H532.516V156.406C532.51 155.797 532.37 155.346 532.094 155.055C531.823 154.763 531.398 154.617 530.82 154.617C530.352 154.617 529.94 154.742 529.586 154.992C529.232 155.242 528.956 155.57 528.758 155.977V162H527.312V153.547H528.68ZM541.359 161.164C540.797 161.826 539.971 162.156 538.883 162.156C537.982 162.156 537.294 161.896 536.82 161.375C536.352 160.849 536.115 160.073 536.109 159.047V153.547H537.555V159.008C537.555 160.289 538.076 160.93 539.117 160.93C540.221 160.93 540.956 160.518 541.32 159.695V153.547H542.766V162H541.391L541.359 161.164ZM549.891 159.758C549.891 159.367 549.742 159.065 549.445 158.852C549.154 158.633 548.641 158.445 547.906 158.289C547.177 158.133 546.596 157.945 546.164 157.727C545.737 157.508 545.419 157.247 545.211 156.945C545.008 156.643 544.906 156.284 544.906 155.867C544.906 155.174 545.198 154.589 545.781 154.109C546.37 153.63 547.12 153.391 548.031 153.391C548.99 153.391 549.766 153.638 550.359 154.133C550.958 154.628 551.258 155.26 551.258 156.031H549.805C549.805 155.635 549.635 155.294 549.297 155.008C548.964 154.721 548.542 154.578 548.031 154.578C547.505 154.578 547.094 154.693 546.797 154.922C546.5 155.151 546.352 155.451 546.352 155.82C546.352 156.169 546.49 156.432 546.766 156.609C547.042 156.786 547.539 156.956 548.258 157.117C548.982 157.279 549.568 157.471 550.016 157.695C550.464 157.919 550.794 158.19 551.008 158.508C551.227 158.82 551.336 159.203 551.336 159.656C551.336 160.411 551.034 161.018 550.43 161.477C549.826 161.93 549.042 162.156 548.078 162.156C547.401 162.156 546.802 162.036 546.281 161.797C545.76 161.557 545.352 161.224 545.055 160.797C544.763 160.365 544.617 159.898 544.617 159.398H546.062C546.089 159.883 546.281 160.268 546.641 160.555C547.005 160.836 547.484 160.977 548.078 160.977C548.625 160.977 549.062 160.867 549.391 160.648C549.724 160.424 549.891 160.128 549.891 159.758ZM556.727 162.156C555.581 162.156 554.648 161.781 553.93 161.031C553.211 160.276 552.852 159.268 552.852 158.008V157.742C552.852 156.904 553.01 156.156 553.328 155.5C553.651 154.839 554.099 154.323 554.672 153.953C555.25 153.578 555.875 153.391 556.547 153.391C557.646 153.391 558.5 153.753 559.109 154.477C559.719 155.201 560.023 156.237 560.023 157.586V158.188H554.297C554.318 159.021 554.56 159.695 555.023 160.211C555.492 160.721 556.086 160.977 556.805 160.977C557.315 160.977 557.747 160.872 558.102 160.664C558.456 160.456 558.766 160.18 559.031 159.836L559.914 160.523C559.206 161.612 558.143 162.156 556.727 162.156ZM556.547 154.578C555.964 154.578 555.474 154.792 555.078 155.219C554.682 155.641 554.438 156.234 554.344 157H558.578V156.891C558.536 156.156 558.339 155.589 557.984 155.188C557.63 154.781 557.151 154.578 556.547 154.578Z" fill="black"/>
<line x1="489" y1="144.5" x2="550" y2="144.5" stroke="black"/>
<path d="M574.703 142.641H568.188V141.383H574.703V142.641ZM574.703 145.883H568.188V144.633H574.703V145.883Z" fill="black"/>
<path d="M662.703 142.641H656.188V141.383H662.703V142.641ZM662.703 145.883H656.188V144.633H662.703V145.883Z" fill="black"/>
<circle cx="330.5" cy="182.5" r="0.5" fill="#C4C4C4"/>
<circle cx="331" cy="178" r="5" fill="#C4C4C4"/>
<path d="M339.909 174.987C340.06 173.935 340.338 172.909 340.743 171.911C341.153 170.913 341.655 170.063 342.247 169.361C342.84 168.655 343.5 168.122 344.229 167.762L344.414 168.609C343.699 169.143 343.083 169.84 342.568 170.701C342.058 171.558 341.664 172.579 341.386 173.764C341.108 174.944 340.973 176.108 340.982 177.257C340.982 178.2 341.103 179.03 341.345 179.745C341.591 180.465 341.944 181.033 342.404 181.447L342.097 182.213C341.336 181.684 340.752 180.903 340.347 179.868C339.946 178.834 339.763 177.649 339.8 176.313C339.809 175.876 339.841 175.459 339.896 175.062L339.909 174.987ZM347.107 174.297L349.117 171.604H350.635L347.668 175.322L349.473 179H348.126L346.902 176.238L344.817 179H343.307L346.362 175.199L344.612 171.604H345.966L347.107 174.297ZM353.896 180.989L353.185 180.477C353.713 179.825 354.041 179.178 354.169 178.535L354.347 177.503H355.557L355.413 178.426C355.249 179.465 354.743 180.319 353.896 180.989ZM362.987 177.134L365.619 171.604H366.986L362.598 180.23C361.987 181.429 361.203 182.021 360.246 182.008C360.077 182.003 359.829 181.962 359.501 181.885L359.61 180.859L359.932 180.894C360.324 180.912 360.661 180.823 360.943 180.627C361.23 180.436 361.483 180.123 361.702 179.69L362.146 178.843L360.868 171.604H362.16L362.987 177.134ZM370.356 175.001C370.197 176.113 369.908 177.166 369.488 178.159C369.069 179.148 368.565 179.982 367.978 180.661C367.394 181.345 366.747 181.864 366.036 182.22L365.845 181.434C367.408 180.258 368.451 178.369 368.976 175.767C369.185 174.718 369.285 173.709 369.276 172.738C369.254 170.783 368.78 169.382 367.854 168.534L368.176 167.769C368.686 168.124 369.117 168.598 369.468 169.19C369.823 169.778 370.083 170.464 370.247 171.248C370.416 172.027 370.491 172.836 370.473 173.675C370.459 174.117 370.425 174.534 370.37 174.926L370.356 175.001Z" fill="black"/>
</svg>

