<svg width="682" height="741" viewBox="0 0 682 741" fill="none" xmlns="http://www.w3.org/2000/svg">
<rect x="237" y="103" width="68" height="230" fill="#D6D6D6"/>
<rect x="353" y="103" width="68" height="230" fill="#2D9CDB"/>
<rect x="347" y="413" width="89" height="111" fill="#2D9CDB"/>
<rect x="572" y="607" width="110" height="107" fill="#F2994A"/>
<circle cx="501.5" cy="207.5" r="25" fill="#F2994A" stroke="black"/>
<circle cx="269.5" cy="186.5" r="16" fill="white" stroke="black"/>
<circle cx="269.5" cy="137.5" r="16" fill="white" stroke="black"/>
<circle cx="386" cy="206" r="26.5" fill="white" stroke="black"/>
<path d="M285.5 237.5C285.5 246.337 278.337 253.5 269.5 253.5C260.663 253.5 253.5 246.337 253.5 237.5C253.5 228.663 260.663 221.5 269.5 221.5C278.337 221.5 285.5 228.663 285.5 237.5Z" fill="white" stroke="black"/>
<circle cx="269.5" cy="290.5" r="16" fill="white" stroke="black"/>
<line x1="498" y1="199.5" x2="484" y2="199.5" stroke="black"/>
<line x1="498" y1="214.7" x2="484" y2="214.7" stroke="black" stroke-width="1.4"/>
<line x1="492.44" y1="208.403" x2="484.518" y2="199.499" stroke="black" stroke-width="1.5"/>
<line x1="483.783" y1="214.8" x2="491.878" y2="208.324" stroke="black"/>
<line x1="497.5" y1="200" x2="497.5" y2="201" stroke="black"/>
<line x1="497.5" y1="214" x2="497.5" y2="215" stroke="black"/>
<line x1="382" y1="195.5" x2="366" y2="195.5" stroke="black"/>
<line x1="382" y1="214.7" x2="366" y2="214.7" stroke="black" stroke-width="1.4"/>
<line y1="-0.75" x2="14.3306" y2="-0.75" transform="matrix(-0.657294 -0.753634 0.740562 -0.671987 376.134 206.164)" stroke="black" stroke-width="1.5"/>
<line y1="-0.5" x2="12.4237" y2="-0.5" transform="matrix(0.774785 -0.632225 0.61714 0.786853 365.545 215)" stroke="black"/>
<line x1="381.5" y1="196" x2="381.5" y2="198" stroke="black"/>
<line x1="501.5" y1="182" x2="501.5" y2="232" stroke="black"/>
<path d="M581.354 203.354C581.549 203.158 581.549 202.842 581.354 202.646L578.172 199.464C577.976 199.269 577.66 199.269 577.464 199.464C577.269 199.66 577.269 199.976 577.464 200.172L580.293 203L577.464 205.828C577.269 206.024 577.269 206.34 577.464 206.536C577.66 206.731 577.976 206.731 578.172 206.536L581.354 203.354ZM527 203.5H581V202.5H527V203.5Z" fill="black"/>
<path d="M329.142 337.702H330.917V339.029H329.142V342H327.507V339.029H321.68V338.071L327.41 329.203H329.142V337.702ZM323.525 337.702H327.507V331.427L327.313 331.778L323.525 337.702ZM306.826 360.759L308.654 353.49H310.28L307.512 363H306.193L303.882 355.793L301.632 363H300.313L297.554 353.49H299.171L301.043 360.609L303.258 353.49H304.567L306.826 360.759ZM315.888 363.176C314.599 363.176 313.55 362.754 312.741 361.91C311.933 361.061 311.528 359.927 311.528 358.509V358.21C311.528 357.267 311.707 356.426 312.064 355.688C312.428 354.943 312.932 354.363 313.576 353.947C314.227 353.525 314.93 353.314 315.686 353.314C316.922 353.314 317.883 353.722 318.568 354.536C319.254 355.351 319.597 356.517 319.597 358.034V358.711H313.154C313.178 359.648 313.45 360.407 313.972 360.987C314.499 361.562 315.167 361.849 315.976 361.849C316.55 361.849 317.036 361.731 317.435 361.497C317.833 361.263 318.182 360.952 318.48 360.565L319.474 361.339C318.677 362.563 317.481 363.176 315.888 363.176ZM315.686 354.65C315.029 354.65 314.479 354.891 314.033 355.371C313.588 355.846 313.312 356.514 313.207 357.375H317.971V357.252C317.924 356.426 317.701 355.787 317.303 355.336C316.904 354.879 316.365 354.65 315.686 354.65ZM323.253 363H321.627V353.49H323.253V363ZM321.495 350.968C321.495 350.704 321.574 350.481 321.732 350.3C321.896 350.118 322.137 350.027 322.453 350.027C322.77 350.027 323.01 350.118 323.174 350.3C323.338 350.481 323.42 350.704 323.42 350.968C323.42 351.231 323.338 351.451 323.174 351.627C323.01 351.803 322.77 351.891 322.453 351.891C322.137 351.891 321.896 351.803 321.732 351.627C321.574 351.451 321.495 351.231 321.495 350.968ZM325.477 358.166C325.477 356.684 325.819 355.506 326.505 354.633C327.19 353.754 328.099 353.314 329.229 353.314C330.39 353.314 331.295 353.725 331.945 354.545L332.024 353.49H333.51V362.771C333.51 364.002 333.144 364.972 332.411 365.681C331.685 366.39 330.706 366.744 329.476 366.744C328.79 366.744 328.119 366.598 327.463 366.305C326.807 366.012 326.306 365.61 325.96 365.101L326.804 364.125C327.501 364.986 328.354 365.417 329.361 365.417C330.152 365.417 330.768 365.194 331.207 364.749C331.652 364.304 331.875 363.677 331.875 362.868V362.051C331.225 362.801 330.337 363.176 329.212 363.176C328.099 363.176 327.196 362.728 326.505 361.831C325.819 360.935 325.477 359.713 325.477 358.166ZM327.111 358.351C327.111 359.423 327.331 360.267 327.771 360.882C328.21 361.491 328.825 361.796 329.616 361.796C330.642 361.796 331.395 361.33 331.875 360.398V356.057C331.377 355.148 330.63 354.694 329.634 354.694C328.843 354.694 328.225 355.002 327.779 355.617C327.334 356.232 327.111 357.144 327.111 358.351ZM337.597 354.642C338.317 353.757 339.255 353.314 340.409 353.314C342.419 353.314 343.433 354.448 343.45 356.716V363H341.824V356.707C341.818 356.021 341.66 355.515 341.35 355.187C341.045 354.858 340.567 354.694 339.917 354.694C339.39 354.694 338.927 354.835 338.528 355.116C338.13 355.397 337.819 355.767 337.597 356.224V363H335.971V349.5H337.597V354.642ZM348.091 351.188V353.49H349.866V354.747H348.091V360.645C348.091 361.025 348.17 361.312 348.328 361.506C348.486 361.693 348.756 361.787 349.137 361.787C349.324 361.787 349.582 361.752 349.91 361.682V363C349.482 363.117 349.066 363.176 348.662 363.176C347.936 363.176 347.388 362.956 347.019 362.517C346.649 362.077 346.465 361.453 346.465 360.645V354.747H344.733V353.49H346.465V351.188H348.091ZM357.311 360.478C357.311 360.038 357.144 359.698 356.81 359.458C356.481 359.212 355.904 359.001 355.078 358.825C354.258 358.649 353.604 358.438 353.118 358.192C352.638 357.946 352.28 357.653 352.046 357.313C351.817 356.974 351.703 356.569 351.703 356.101C351.703 355.321 352.031 354.662 352.688 354.123C353.35 353.584 354.193 353.314 355.219 353.314C356.297 353.314 357.17 353.593 357.838 354.149C358.512 354.706 358.849 355.418 358.849 356.285H357.214C357.214 355.84 357.023 355.456 356.643 355.134C356.268 354.812 355.793 354.65 355.219 354.65C354.627 354.65 354.164 354.779 353.83 355.037C353.496 355.295 353.329 355.632 353.329 356.048C353.329 356.44 353.484 356.736 353.795 356.936C354.105 357.135 354.665 357.325 355.474 357.507C356.288 357.688 356.947 357.905 357.451 358.157C357.955 358.409 358.327 358.714 358.567 359.071C358.813 359.423 358.937 359.854 358.937 360.363C358.937 361.213 358.597 361.896 357.917 362.411C357.237 362.921 356.355 363.176 355.271 363.176C354.51 363.176 353.836 363.041 353.25 362.771C352.664 362.502 352.204 362.127 351.87 361.646C351.542 361.16 351.378 360.636 351.378 360.073H353.004C353.033 360.618 353.25 361.052 353.654 361.374C354.064 361.69 354.604 361.849 355.271 361.849C355.887 361.849 356.379 361.726 356.748 361.479C357.123 361.228 357.311 360.894 357.311 360.478Z" fill="black"/>
<path d="M456.354 343H454.719V332.163L451.44 333.367V331.891L456.099 330.142H456.354V343ZM437.967 361.759L439.795 354.49H441.421L438.652 364H437.334L435.022 356.793L432.772 364H431.454L428.694 354.49H430.312L432.184 361.609L434.398 354.49H435.708L437.967 361.759ZM447.028 364.176C445.739 364.176 444.69 363.754 443.882 362.91C443.073 362.061 442.669 360.927 442.669 359.509V359.21C442.669 358.267 442.848 357.426 443.205 356.688C443.568 355.943 444.072 355.363 444.717 354.947C445.367 354.525 446.07 354.314 446.826 354.314C448.062 354.314 449.023 354.722 449.709 355.536C450.395 356.351 450.737 357.517 450.737 359.034V359.711H444.295C444.318 360.648 444.591 361.407 445.112 361.987C445.64 362.562 446.308 362.849 447.116 362.849C447.69 362.849 448.177 362.731 448.575 362.497C448.974 362.263 449.322 361.952 449.621 361.565L450.614 362.339C449.817 363.563 448.622 364.176 447.028 364.176ZM446.826 355.65C446.17 355.65 445.619 355.891 445.174 356.371C444.729 356.846 444.453 357.514 444.348 358.375H449.111V358.252C449.064 357.426 448.842 356.787 448.443 356.336C448.045 355.879 447.506 355.65 446.826 355.65ZM454.394 364H452.768V354.49H454.394V364ZM452.636 351.968C452.636 351.704 452.715 351.481 452.873 351.3C453.037 351.118 453.277 351.027 453.594 351.027C453.91 351.027 454.15 351.118 454.314 351.3C454.479 351.481 454.561 351.704 454.561 351.968C454.561 352.231 454.479 352.451 454.314 352.627C454.15 352.803 453.91 352.891 453.594 352.891C453.277 352.891 453.037 352.803 452.873 352.627C452.715 352.451 452.636 352.231 452.636 351.968ZM456.617 359.166C456.617 357.684 456.96 356.506 457.646 355.633C458.331 354.754 459.239 354.314 460.37 354.314C461.53 354.314 462.436 354.725 463.086 355.545L463.165 354.49H464.65V363.771C464.65 365.002 464.284 365.972 463.552 366.681C462.825 367.39 461.847 367.744 460.616 367.744C459.931 367.744 459.26 367.598 458.604 367.305C457.947 367.012 457.446 366.61 457.101 366.101L457.944 365.125C458.642 365.986 459.494 366.417 460.502 366.417C461.293 366.417 461.908 366.194 462.348 365.749C462.793 365.304 463.016 364.677 463.016 363.868V363.051C462.365 363.801 461.478 364.176 460.353 364.176C459.239 364.176 458.337 363.728 457.646 362.831C456.96 361.935 456.617 360.713 456.617 359.166ZM458.252 359.351C458.252 360.423 458.472 361.267 458.911 361.882C459.351 362.491 459.966 362.796 460.757 362.796C461.782 362.796 462.535 362.33 463.016 361.398V357.057C462.518 356.148 461.771 355.694 460.774 355.694C459.983 355.694 459.365 356.002 458.92 356.617C458.475 357.232 458.252 358.144 458.252 359.351ZM468.737 355.642C469.458 354.757 470.396 354.314 471.55 354.314C473.56 354.314 474.573 355.448 474.591 357.716V364H472.965V357.707C472.959 357.021 472.801 356.515 472.49 356.187C472.186 355.858 471.708 355.694 471.058 355.694C470.53 355.694 470.067 355.835 469.669 356.116C469.271 356.397 468.96 356.767 468.737 357.224V364H467.111V350.5H468.737V355.642ZM479.231 352.188V354.49H481.007V355.747H479.231V361.645C479.231 362.025 479.311 362.312 479.469 362.506C479.627 362.693 479.896 362.787 480.277 362.787C480.465 362.787 480.723 362.752 481.051 362.682V364C480.623 364.117 480.207 364.176 479.803 364.176C479.076 364.176 478.528 363.956 478.159 363.517C477.79 363.077 477.605 362.453 477.605 361.645V355.747H475.874V354.49H477.605V352.188H479.231Z" fill="black"/>
<line x1="385.25" y1="179" x2="385.25" y2="233" stroke="black" stroke-width="0.5"/>
<path d="M516.081 203.835H513.585C514.757 204.702 515.343 205.936 515.343 207.535V207.685C515.343 208.505 515.164 209.261 514.807 209.952C514.449 210.638 513.945 211.18 513.295 211.578C512.65 211.977 511.918 212.176 511.098 212.176C509.82 212.176 508.792 211.733 508.013 210.849C507.233 209.958 506.844 208.766 506.844 207.271V207.157C506.844 206.267 507.017 205.467 507.362 204.758C507.708 204.049 508.197 203.495 508.83 203.097C509.469 202.698 510.198 202.496 511.019 202.49H516.081V203.835ZM508.479 207.351C508.479 208.423 508.713 209.275 509.182 209.908C509.65 210.535 510.289 210.849 511.098 210.849C511.912 210.849 512.551 210.532 513.014 209.899C513.482 209.261 513.717 208.347 513.717 207.157C513.717 206.149 513.479 205.344 513.005 204.74C512.536 204.137 511.895 203.835 511.08 203.835C510.277 203.835 509.642 204.134 509.173 204.731C508.71 205.329 508.479 206.202 508.479 207.351Z" fill="black"/>
<path d="M401.483 201.835H398.987C400.159 202.702 400.745 203.936 400.745 205.535V205.685C400.745 206.505 400.566 207.261 400.209 207.952C399.852 208.638 399.348 209.18 398.697 209.578C398.053 209.977 397.32 210.176 396.5 210.176C395.223 210.176 394.194 209.733 393.415 208.849C392.636 207.958 392.246 206.766 392.246 205.271V205.157C392.246 204.267 392.419 203.467 392.765 202.758C393.11 202.049 393.6 201.495 394.232 201.097C394.871 200.698 395.601 200.496 396.421 200.49H401.483V201.835ZM393.881 205.351C393.881 206.423 394.115 207.275 394.584 207.908C395.053 208.535 395.691 208.849 396.5 208.849C397.314 208.849 397.953 208.532 398.416 207.899C398.885 207.261 399.119 206.347 399.119 205.157C399.119 204.149 398.882 203.344 398.407 202.74C397.938 202.137 397.297 201.835 396.482 201.835C395.68 201.835 395.044 202.134 394.575 202.731C394.112 203.329 393.881 204.202 393.881 205.351Z" fill="black"/>
<path d="M594.442 203.99V209H592.755V196.203H597.475C598.875 196.203 599.971 196.561 600.762 197.275C601.559 197.99 601.957 198.937 601.957 200.114C601.957 201.356 601.567 202.314 600.788 202.988C600.015 203.656 598.904 203.99 597.457 203.99H594.442ZM594.442 202.61H597.475C598.377 202.61 599.068 202.399 599.549 201.978C600.029 201.55 600.27 200.935 600.27 200.132C600.27 199.37 600.029 198.761 599.549 198.304C599.068 197.847 598.409 197.609 597.571 197.592H594.442V202.61ZM603.794 203.806C603.794 202.481 603.97 201.21 604.321 199.991C604.679 198.772 605.209 197.665 605.912 196.669C606.615 195.673 607.345 194.97 608.101 194.56L608.435 195.632C607.579 196.288 606.876 197.29 606.325 198.638C605.78 199.985 605.481 201.494 605.429 203.164L605.42 203.911C605.42 206.173 605.833 208.136 606.659 209.8C607.157 210.796 607.749 211.575 608.435 212.138L608.101 213.131C607.321 212.697 606.577 211.971 605.868 210.951C604.485 208.959 603.794 206.577 603.794 203.806ZM613.119 206.618L615.334 199.49H617.074L613.251 210.468C612.659 212.05 611.719 212.841 610.43 212.841L610.122 212.814L609.516 212.7V211.382L609.955 211.417C610.506 211.417 610.934 211.306 611.238 211.083C611.549 210.86 611.804 210.453 612.003 209.861L612.363 208.895L608.971 199.49H610.746L613.119 206.618ZM630.434 201.846H623.104V200.431H630.434V201.846ZM630.434 205.493H623.104V204.087H630.434V205.493ZM642.519 209H640.884V198.163L637.605 199.367V197.891L642.264 196.142H642.519V209ZM653.531 211.373H652.222V196.203H653.531V211.373ZM663.964 202.962L666.073 199.49H667.972L664.86 204.192L668.068 209H666.188L663.99 205.44L661.793 209H659.903L663.111 204.192L660 199.49H661.881L663.964 202.962ZM673.456 203.894C673.456 205.2 673.283 206.454 672.938 207.655C672.598 208.851 672.073 209.955 671.364 210.969C670.661 211.982 669.923 212.703 669.149 213.131L668.807 212.138C669.709 211.446 670.433 210.374 670.978 208.921C671.528 207.462 671.81 205.845 671.821 204.069V203.788C671.821 202.558 671.692 201.415 671.435 200.36C671.177 199.3 670.816 198.351 670.354 197.513C669.896 196.675 669.381 196.021 668.807 195.553L669.149 194.56C669.923 194.987 670.658 195.702 671.355 196.704C672.059 197.706 672.583 198.811 672.929 200.018C673.28 201.225 673.456 202.517 673.456 203.894Z" fill="black"/>
<path d="M282.648 14.4248C282.736 13.7686 282.376 13.3057 281.567 13.0361L279.915 12.5527C278.521 12.0723 277.847 11.2754 277.894 10.1621C277.935 9.32422 278.315 8.63867 279.036 8.10547C279.763 7.56641 280.615 7.30273 281.594 7.31445C282.555 7.32617 283.334 7.60742 283.932 8.1582C284.535 8.70312 284.825 9.41504 284.802 10.2939L283.22 10.2852C283.231 9.81055 283.082 9.42383 282.771 9.125C282.461 8.82617 282.048 8.6709 281.532 8.65918C280.981 8.64746 280.507 8.78223 280.108 9.06348C279.739 9.32715 279.525 9.67285 279.467 10.1006C279.391 10.6514 279.728 11.0527 280.478 11.3047L281.277 11.5244C282.367 11.8057 283.141 12.1719 283.598 12.623C284.055 13.0742 284.266 13.6338 284.23 14.3018C284.195 14.8936 284.002 15.4092 283.65 15.8486C283.299 16.2881 282.83 16.625 282.244 16.8594C281.658 17.0879 281.034 17.1934 280.372 17.1758C279.364 17.1641 278.532 16.8711 277.876 16.2969C277.22 15.7168 276.903 14.9727 276.927 14.0645L278.518 14.0732C278.518 14.6064 278.687 15.0342 279.027 15.3564C279.367 15.6787 279.833 15.8398 280.425 15.8398C281.005 15.8516 281.506 15.7314 281.928 15.4795C282.35 15.2217 282.59 14.8701 282.648 14.4248ZM290.049 5.1875L289.645 7.49023H291.376L291.156 8.74707H289.434L288.44 14.6621C288.423 14.8145 288.42 14.9551 288.432 15.084C288.473 15.541 288.722 15.7695 289.179 15.7695C289.372 15.7695 289.63 15.7402 289.952 15.6816L289.829 17.0088C289.448 17.1143 289.062 17.167 288.669 17.167C288.036 17.1553 287.562 16.9238 287.245 16.4727C286.929 16.0156 286.806 15.4033 286.876 14.6357L287.843 8.74707H286.164L286.384 7.49023H288.062L288.467 5.1875H290.049ZM297.467 17C297.426 16.8301 297.405 16.6631 297.405 16.499L297.432 15.998C296.559 16.8066 295.633 17.1992 294.654 17.1758C293.816 17.1641 293.134 16.9004 292.606 16.3848C292.085 15.8633 291.848 15.2129 291.895 14.4336C291.953 13.4258 292.393 12.6406 293.213 12.0781C294.039 11.5098 295.123 11.2256 296.465 11.2256L298.126 11.2344L298.231 10.4785C298.29 9.91016 298.179 9.46191 297.897 9.13379C297.622 8.7998 297.206 8.62695 296.649 8.61523C296.104 8.60352 295.621 8.73828 295.199 9.01953C294.783 9.29492 294.528 9.66113 294.435 10.1182L292.835 10.127C292.888 9.57031 293.104 9.07813 293.485 8.65039C293.866 8.2168 294.355 7.88281 294.953 7.64844C295.551 7.4082 296.169 7.29394 296.808 7.30566C297.798 7.3291 298.568 7.63086 299.119 8.21094C299.67 8.78516 299.901 9.5498 299.813 10.5049L299.04 15.2158L298.996 15.8926C298.984 16.2148 299.02 16.5342 299.102 16.8506L299.084 17H297.467ZM294.971 15.7695C295.48 15.7812 295.961 15.6611 296.412 15.4092C296.869 15.1514 297.262 14.7969 297.59 14.3457L297.933 12.3857L296.729 12.377C295.727 12.377 294.959 12.5352 294.426 12.8516C293.893 13.168 293.591 13.6162 293.521 14.1963C293.468 14.6416 293.57 15.0137 293.828 15.3125C294.092 15.6055 294.473 15.7578 294.971 15.7695ZM301.712 12.2275C301.853 11.1904 302.131 10.291 302.547 9.5293C302.969 8.76172 303.479 8.19629 304.076 7.83301C304.68 7.46387 305.339 7.28809 306.054 7.30566C307.155 7.3291 307.987 7.74512 308.55 8.55371L308.866 7.49023H310.325L308.743 16.7979C308.573 18.0107 308.081 18.9805 307.267 19.707C306.452 20.4395 305.447 20.7881 304.252 20.7529C303.607 20.7412 302.989 20.5889 302.397 20.2959C301.812 20.0029 301.349 19.6016 301.009 19.0918L301.914 18.1162C302.488 18.9658 303.247 19.4023 304.19 19.4258C304.946 19.4492 305.585 19.2383 306.106 18.793C306.634 18.3477 306.982 17.7148 307.152 16.8945L307.328 16.0508C306.555 16.8242 305.649 17.1992 304.612 17.1758C304.021 17.1582 303.505 17 303.065 16.7012C302.632 16.3965 302.295 15.96 302.055 15.3916C301.814 14.8174 301.683 14.1787 301.659 13.4756C301.647 13.1299 301.665 12.7139 301.712 12.2275ZM303.25 13.1328C303.232 13.9707 303.376 14.6211 303.681 15.084C303.991 15.541 304.457 15.7812 305.078 15.8047C306.027 15.8281 306.845 15.3623 307.53 14.4072L308.277 10.0391C307.926 9.17187 307.29 8.7207 306.37 8.68555C305.509 8.66211 304.8 9.01367 304.243 9.74023C303.692 10.4668 303.367 11.4482 303.268 12.6846L303.25 13.1328ZM315.256 17.1758C314.072 17.1523 313.146 16.7158 312.479 15.8662C311.811 15.0166 311.529 13.9297 311.635 12.6055L311.679 12.2275C311.778 11.2842 312.057 10.4229 312.514 9.64355C312.977 8.86426 313.539 8.27832 314.201 7.88574C314.863 7.4873 315.578 7.29688 316.346 7.31445C317.324 7.33789 318.092 7.66309 318.648 8.29004C319.205 8.91699 319.51 9.7666 319.562 10.8389C319.58 11.2197 319.568 11.6006 319.527 11.9814L319.431 12.7109H313.217C313.111 13.5723 313.252 14.3047 313.639 14.9082C314.031 15.5117 314.614 15.8252 315.388 15.8486C316.325 15.8721 317.192 15.4502 317.989 14.583L318.903 15.3564C318.505 15.9307 317.989 16.3818 317.356 16.71C316.729 17.0322 316.029 17.1875 315.256 17.1758ZM316.267 8.6416C315.61 8.62402 315.036 8.84668 314.544 9.30957C314.058 9.77246 313.671 10.4609 313.384 11.375L318.007 11.3838L318.042 11.2432C318.136 10.5049 318.016 9.89258 317.682 9.40625C317.354 8.91406 316.882 8.65918 316.267 8.6416ZM329.925 17H328.325L330.206 6.20703L326.805 7.40234L327.077 5.85547L331.823 4.1416H332.104L329.925 17Z" fill="black"/>
<path d="M438.648 14.4248C438.736 13.7686 438.376 13.3057 437.567 13.0361L435.915 12.5527C434.521 12.0723 433.847 11.2754 433.894 10.1621C433.935 9.32422 434.315 8.63867 435.036 8.10547C435.763 7.56641 436.615 7.30273 437.594 7.31445C438.555 7.32617 439.334 7.60742 439.932 8.1582C440.535 8.70312 440.825 9.41504 440.802 10.2939L439.22 10.2852C439.231 9.81055 439.082 9.42383 438.771 9.125C438.461 8.82617 438.048 8.6709 437.532 8.65918C436.981 8.64746 436.507 8.78223 436.108 9.06348C435.739 9.32715 435.525 9.67285 435.467 10.1006C435.391 10.6514 435.728 11.0527 436.478 11.3047L437.277 11.5244C438.367 11.8057 439.141 12.1719 439.598 12.623C440.055 13.0742 440.266 13.6338 440.23 14.3018C440.195 14.8936 440.002 15.4092 439.65 15.8486C439.299 16.2881 438.83 16.625 438.244 16.8594C437.658 17.0879 437.034 17.1934 436.372 17.1758C435.364 17.1641 434.532 16.8711 433.876 16.2969C433.22 15.7168 432.903 14.9727 432.927 14.0645L434.518 14.0732C434.518 14.6064 434.687 15.0342 435.027 15.3564C435.367 15.6787 435.833 15.8398 436.425 15.8398C437.005 15.8516 437.506 15.7314 437.928 15.4795C438.35 15.2217 438.59 14.8701 438.648 14.4248ZM446.049 5.1875L445.645 7.49023H447.376L447.156 8.74707H445.434L444.44 14.6621C444.423 14.8145 444.42 14.9551 444.432 15.084C444.473 15.541 444.722 15.7695 445.179 15.7695C445.372 15.7695 445.63 15.7402 445.952 15.6816L445.829 17.0088C445.448 17.1143 445.062 17.167 444.669 17.167C444.036 17.1553 443.562 16.9238 443.245 16.4727C442.929 16.0156 442.806 15.4033 442.876 14.6357L443.843 8.74707H442.164L442.384 7.49023H444.062L444.467 5.1875H446.049ZM453.467 17C453.426 16.8301 453.405 16.6631 453.405 16.499L453.432 15.998C452.559 16.8066 451.633 17.1992 450.654 17.1758C449.816 17.1641 449.134 16.9004 448.606 16.3848C448.085 15.8633 447.848 15.2129 447.895 14.4336C447.953 13.4258 448.393 12.6406 449.213 12.0781C450.039 11.5098 451.123 11.2256 452.465 11.2256L454.126 11.2344L454.231 10.4785C454.29 9.91016 454.179 9.46191 453.897 9.13379C453.622 8.7998 453.206 8.62695 452.649 8.61523C452.104 8.60352 451.621 8.73828 451.199 9.01953C450.783 9.29492 450.528 9.66113 450.435 10.1182L448.835 10.127C448.888 9.57031 449.104 9.07813 449.485 8.65039C449.866 8.2168 450.355 7.88281 450.953 7.64844C451.551 7.4082 452.169 7.29394 452.808 7.30566C453.798 7.3291 454.568 7.63086 455.119 8.21094C455.67 8.78516 455.901 9.5498 455.813 10.5049L455.04 15.2158L454.996 15.8926C454.984 16.2148 455.02 16.5342 455.102 16.8506L455.084 17H453.467ZM450.971 15.7695C451.48 15.7812 451.961 15.6611 452.412 15.4092C452.869 15.1514 453.262 14.7969 453.59 14.3457L453.933 12.3857L452.729 12.377C451.727 12.377 450.959 12.5352 450.426 12.8516C449.893 13.168 449.591 13.6162 449.521 14.1963C449.468 14.6416 449.57 15.0137 449.828 15.3125C450.092 15.6055 450.473 15.7578 450.971 15.7695ZM457.712 12.2275C457.853 11.1904 458.131 10.291 458.547 9.5293C458.969 8.76172 459.479 8.19629 460.076 7.83301C460.68 7.46387 461.339 7.28809 462.054 7.30566C463.155 7.3291 463.987 7.74512 464.55 8.55371L464.866 7.49023H466.325L464.743 16.7979C464.573 18.0107 464.081 18.9805 463.267 19.707C462.452 20.4395 461.447 20.7881 460.252 20.7529C459.607 20.7412 458.989 20.5889 458.397 20.2959C457.812 20.0029 457.349 19.6016 457.009 19.0918L457.914 18.1162C458.488 18.9658 459.247 19.4023 460.19 19.4258C460.946 19.4492 461.585 19.2383 462.106 18.793C462.634 18.3477 462.982 17.7148 463.152 16.8945L463.328 16.0508C462.555 16.8242 461.649 17.1992 460.612 17.1758C460.021 17.1582 459.505 17 459.065 16.7012C458.632 16.3965 458.295 15.96 458.055 15.3916C457.814 14.8174 457.683 14.1787 457.659 13.4756C457.647 13.1299 457.665 12.7139 457.712 12.2275ZM459.25 13.1328C459.232 13.9707 459.376 14.6211 459.681 15.084C459.991 15.541 460.457 15.7812 461.078 15.8047C462.027 15.8281 462.845 15.3623 463.53 14.4072L464.277 10.0391C463.926 9.17187 463.29 8.7207 462.37 8.68555C461.509 8.66211 460.8 9.01367 460.243 9.74023C459.692 10.4668 459.367 11.4482 459.268 12.6846L459.25 13.1328ZM471.256 17.1758C470.072 17.1523 469.146 16.7158 468.479 15.8662C467.811 15.0166 467.529 13.9297 467.635 12.6055L467.679 12.2275C467.778 11.2842 468.057 10.4229 468.514 9.64355C468.977 8.86426 469.539 8.27832 470.201 7.88574C470.863 7.4873 471.578 7.29688 472.346 7.31445C473.324 7.33789 474.092 7.66309 474.648 8.29004C475.205 8.91699 475.51 9.7666 475.562 10.8389C475.58 11.2197 475.568 11.6006 475.527 11.9814L475.431 12.7109H469.217C469.111 13.5723 469.252 14.3047 469.639 14.9082C470.031 15.5117 470.614 15.8252 471.388 15.8486C472.325 15.8721 473.192 15.4502 473.989 14.583L474.903 15.3564C474.505 15.9307 473.989 16.3818 473.356 16.71C472.729 17.0322 472.029 17.1875 471.256 17.1758ZM472.267 8.6416C471.61 8.62402 471.036 8.84668 470.544 9.30957C470.058 9.77246 469.671 10.4609 469.384 11.375L474.007 11.3838L474.042 11.2432C474.136 10.5049 474.016 9.89258 473.682 9.40625C473.354 8.91406 472.882 8.65918 472.267 8.6416ZM488.966 17H480.818L481.012 15.7607L485.731 11.1729L486.593 10.3203C487.583 9.33008 488.131 8.41602 488.236 7.57812C488.313 6.93359 488.187 6.40918 487.858 6.00488C487.53 5.59473 487.067 5.37793 486.47 5.35449C485.702 5.33106 485.061 5.55664 484.545 6.03125C484.029 6.5 483.716 7.14453 483.604 7.96484L482.031 7.97363C482.107 7.18848 482.348 6.49414 482.752 5.89062C483.162 5.28125 483.698 4.81543 484.36 4.49316C485.028 4.16504 485.752 4.00977 486.531 4.02734C487.592 4.05078 488.433 4.37305 489.054 4.99414C489.681 5.60938 489.95 6.40918 489.862 7.39355C489.763 8.51855 489.115 9.70215 487.92 10.9443L487.111 11.7617L482.998 15.6729H489.177L488.966 17Z" fill="black"/>
<path d="M131.483 461.835H128.987C130.159 462.702 130.745 463.936 130.745 465.535V465.685C130.745 466.505 130.566 467.261 130.209 467.952C129.852 468.638 129.348 469.18 128.697 469.578C128.053 469.977 127.32 470.176 126.5 470.176C125.223 470.176 124.194 469.733 123.415 468.849C122.636 467.958 122.246 466.766 122.246 465.271V465.157C122.246 464.267 122.419 463.467 122.765 462.758C123.11 462.049 123.6 461.495 124.232 461.097C124.871 460.698 125.601 460.496 126.421 460.49H131.483V461.835ZM123.881 465.351C123.881 466.423 124.115 467.275 124.584 467.908C125.053 468.535 125.691 468.849 126.5 468.849C127.314 468.849 127.953 468.532 128.416 467.899C128.885 467.261 129.119 466.347 129.119 465.157C129.119 464.149 128.882 463.344 128.407 462.74C127.938 462.137 127.297 461.835 126.482 461.835C125.68 461.835 125.044 462.134 124.575 462.731C124.112 463.329 123.881 464.202 123.881 465.351Z" fill="black"/>
<path d="M340.483 651.835H337.987C339.159 652.702 339.745 653.936 339.745 655.535V655.685C339.745 656.505 339.566 657.261 339.209 657.952C338.852 658.638 338.348 659.18 337.697 659.578C337.053 659.977 336.32 660.176 335.5 660.176C334.223 660.176 333.194 659.733 332.415 658.849C331.636 657.958 331.246 656.766 331.246 655.271V655.157C331.246 654.267 331.419 653.467 331.765 652.758C332.11 652.049 332.6 651.495 333.232 651.097C333.871 650.698 334.601 650.496 335.421 650.49H340.483V651.835ZM332.881 655.351C332.881 656.423 333.115 657.275 333.584 657.908C334.053 658.535 334.691 658.849 335.5 658.849C336.314 658.849 336.953 658.532 337.416 657.899C337.885 657.261 338.119 656.347 338.119 655.157C338.119 654.149 337.882 653.344 337.407 652.74C336.938 652.137 336.297 651.835 335.482 651.835C334.68 651.835 334.044 652.134 333.575 652.731C333.112 653.329 332.881 654.202 332.881 655.351Z" fill="black"/>
<line x1="154.5" y1="420" x2="154.5" y2="517" stroke="black"/>
<line x1="249.9" y1="419" x2="249.9" y2="516" stroke="black"/>
<line x1="154" y1="419.5" x2="161" y2="419.5" stroke="black"/>
<line x1="243" y1="419.5" x2="250" y2="419.5" stroke="black"/>
<line x1="154" y1="516.5" x2="161" y2="516.5" stroke="black"/>
<line x1="256.5" y1="443" x2="256.5" y2="484" stroke="black"/>
<line x1="256" y1="442.5" x2="261" y2="442.5" stroke="black"/>
<line x1="256" y1="483.5" x2="261" y2="483.5" stroke="black"/>
<line x1="446.5" y1="641" x2="446.5" y2="682" stroke="black"/>
<line x1="446" y1="640.5" x2="451" y2="640.5" stroke="black"/>
<line x1="446" y1="681.5" x2="451" y2="681.5" stroke="black"/>
<line x1="312.5" y1="482" x2="312.5" y2="441" stroke="black"/>
<line x1="313" y1="482.5" x2="308" y2="482.5" stroke="black"/>
<line x1="313" y1="441.5" x2="308" y2="441.5" stroke="black"/>
<line x1="509.5" y1="682" x2="509.5" y2="641" stroke="black"/>
<line x1="510" y1="682.5" x2="505" y2="682.5" stroke="black"/>
<line x1="510" y1="641.5" x2="505" y2="641.5" stroke="black"/>
<line x1="243" y1="515.5" x2="250" y2="515.5" stroke="black"/>
<path d="M212.018 534.107L215.085 529.203H217.071L213.028 535.549L217.168 542H215.164L212.018 537.008L208.854 542H206.858L211.007 535.549L206.955 529.203H208.933L212.018 534.107Z" fill="black"/>
<path d="M285.206 541C285.112 540.812 285.036 540.479 284.978 539.998C284.222 540.783 283.319 541.176 282.271 541.176C281.333 541.176 280.562 540.912 279.959 540.385C279.361 539.852 279.062 539.178 279.062 538.363C279.062 537.373 279.438 536.605 280.188 536.061C280.943 535.51 282.004 535.234 283.369 535.234H284.951V534.487C284.951 533.919 284.781 533.468 284.441 533.134C284.102 532.794 283.601 532.624 282.938 532.624C282.358 532.624 281.872 532.771 281.479 533.063C281.087 533.356 280.891 533.711 280.891 534.127H279.256C279.256 533.652 279.423 533.195 279.757 532.756C280.097 532.311 280.554 531.959 281.128 531.701C281.708 531.443 282.344 531.314 283.035 531.314C284.131 531.314 284.989 531.59 285.61 532.141C286.231 532.686 286.554 533.438 286.577 534.399V538.776C286.577 539.649 286.688 540.344 286.911 540.859V541H285.206ZM282.508 539.761C283.018 539.761 283.501 539.629 283.958 539.365C284.415 539.102 284.746 538.759 284.951 538.337V536.386H283.677C281.685 536.386 280.688 536.969 280.688 538.135C280.688 538.645 280.858 539.043 281.198 539.33C281.538 539.617 281.975 539.761 282.508 539.761Z" fill="black"/>
<path d="M292.402 547H291.312V539.775L289.127 540.578V539.594L292.232 538.428H292.402V547Z" fill="black"/>
<path d="M295.305 523.395H292.562V531H291.443V523.395H288.707V522.469H295.305V523.395Z" fill="black"/>
<path d="M481.206 731C481.112 730.812 481.036 730.479 480.978 729.998C480.222 730.783 479.319 731.176 478.271 731.176C477.333 731.176 476.562 730.912 475.959 730.385C475.361 729.852 475.062 729.178 475.062 728.363C475.062 727.373 475.438 726.605 476.188 726.061C476.943 725.51 478.004 725.234 479.369 725.234H480.951V724.487C480.951 723.919 480.781 723.468 480.441 723.134C480.102 722.794 479.601 722.624 478.938 722.624C478.358 722.624 477.872 722.771 477.479 723.063C477.087 723.356 476.891 723.711 476.891 724.127H475.256C475.256 723.652 475.423 723.195 475.757 722.756C476.097 722.311 476.554 721.959 477.128 721.701C477.708 721.443 478.344 721.314 479.035 721.314C480.131 721.314 480.989 721.59 481.61 722.141C482.231 722.686 482.554 723.438 482.577 724.399V728.776C482.577 729.649 482.688 730.344 482.911 730.859V731H481.206ZM478.508 729.761C479.018 729.761 479.501 729.629 479.958 729.365C480.415 729.102 480.746 728.759 480.951 728.337V726.386H479.677C477.685 726.386 476.688 726.969 476.688 728.135C476.688 728.645 476.858 729.043 477.198 729.33C477.538 729.617 477.975 729.761 478.508 729.761Z" fill="black"/>
<path d="M490.43 737H484.84V736.221L487.793 732.939C488.23 732.443 488.531 732.041 488.695 731.732C488.863 731.42 488.947 731.098 488.947 730.766C488.947 730.32 488.812 729.955 488.543 729.67C488.273 729.385 487.914 729.242 487.465 729.242C486.926 729.242 486.506 729.396 486.205 729.705C485.908 730.01 485.76 730.436 485.76 730.982H484.676C484.676 730.197 484.928 729.562 485.432 729.078C485.939 728.594 486.617 728.352 487.465 728.352C488.258 728.352 488.885 728.561 489.346 728.979C489.807 729.393 490.037 729.945 490.037 730.637C490.037 731.477 489.502 732.477 488.432 733.637L486.146 736.115H490.43V737Z" fill="black"/>
<path d="M491.305 713.395H488.562V721H487.443V713.395H484.707V712.469H491.305V713.395Z" fill="black"/>
<path d="M626.339 727.62H632.403V729H624.643V716.203H626.339V727.62Z" fill="black"/>
<path d="M179.763 470H178.128V459.163L174.85 460.367V458.891L179.508 457.142H179.763V470ZM192.551 464.542C192.551 466.446 192.226 467.861 191.575 468.787C190.925 469.713 189.908 470.176 188.525 470.176C187.16 470.176 186.149 469.725 185.493 468.822C184.837 467.914 184.497 466.561 184.474 464.762V462.591C184.474 460.71 184.799 459.312 185.449 458.398C186.1 457.484 187.119 457.027 188.508 457.027C189.885 457.027 190.898 457.47 191.549 458.354C192.199 459.233 192.533 460.593 192.551 462.433V464.542ZM190.925 462.318C190.925 460.941 190.731 459.939 190.345 459.312C189.958 458.68 189.346 458.363 188.508 458.363C187.676 458.363 187.069 458.677 186.688 459.304C186.308 459.931 186.111 460.895 186.1 462.195V464.797C186.1 466.18 186.299 467.202 186.697 467.864C187.102 468.521 187.711 468.849 188.525 468.849C189.328 468.849 189.923 468.538 190.31 467.917C190.702 467.296 190.907 466.317 190.925 464.981V462.318ZM202.658 464.542C202.658 466.446 202.333 467.861 201.683 468.787C201.032 469.713 200.016 470.176 198.633 470.176C197.268 470.176 196.257 469.725 195.601 468.822C194.944 467.914 194.604 466.561 194.581 464.762V462.591C194.581 460.71 194.906 459.312 195.557 458.398C196.207 457.484 197.227 457.027 198.615 457.027C199.992 457.027 201.006 457.47 201.656 458.354C202.307 459.233 202.641 460.593 202.658 462.433V464.542ZM201.032 462.318C201.032 460.941 200.839 459.939 200.452 459.312C200.065 458.68 199.453 458.363 198.615 458.363C197.783 458.363 197.177 458.677 196.796 459.304C196.415 459.931 196.219 460.895 196.207 462.195V464.797C196.207 466.18 196.406 467.202 196.805 467.864C197.209 468.521 197.818 468.849 198.633 468.849C199.436 468.849 200.03 468.538 200.417 467.917C200.81 467.296 201.015 466.317 201.032 464.981V462.318ZM212.563 463.962L214.673 460.49H216.571L213.46 465.192L216.668 470H214.787L212.59 466.44L210.393 470H208.503L211.711 465.192L208.6 460.49H210.48L212.563 463.962Z" fill="black"/>
<path d="M229.465 465.702H231.24V467.029H229.465V470H227.83V467.029H222.003V466.071L227.733 457.203H229.465V465.702ZM223.849 465.702H227.83V459.427L227.637 459.778L223.849 465.702Z" fill="#EB5757"/>
<line x1="576.5" y1="613" x2="576.5" y2="710" stroke="black"/>
<line x1="674.9" y1="612" x2="674.9" y2="709" stroke="black"/>
<line x1="576" y1="612.5" x2="583" y2="612.5" stroke="black"/>
<line x1="668" y1="612.5" x2="675" y2="612.5" stroke="black"/>
<line x1="576" y1="709.5" x2="583" y2="709.5" stroke="black"/>
<line x1="668" y1="708.5" x2="675" y2="708.5" stroke="black"/>
<path d="M605.763 663H604.128V652.163L600.85 653.367V651.891L605.508 650.142H605.763V663ZM618.551 657.542C618.551 659.446 618.226 660.861 617.575 661.787C616.925 662.713 615.908 663.176 614.525 663.176C613.16 663.176 612.149 662.725 611.493 661.822C610.837 660.914 610.497 659.561 610.474 657.762V655.591C610.474 653.71 610.799 652.312 611.449 651.398C612.1 650.484 613.119 650.027 614.508 650.027C615.885 650.027 616.898 650.47 617.549 651.354C618.199 652.233 618.533 653.593 618.551 655.433V657.542ZM616.925 655.318C616.925 653.941 616.731 652.939 616.345 652.312C615.958 651.68 615.346 651.363 614.508 651.363C613.676 651.363 613.069 651.677 612.688 652.304C612.308 652.931 612.111 653.895 612.1 655.195V657.797C612.1 659.18 612.299 660.202 612.697 660.864C613.102 661.521 613.711 661.849 614.525 661.849C615.328 661.849 615.923 661.538 616.31 660.917C616.702 660.296 616.907 659.317 616.925 657.981V655.318ZM628.658 657.542C628.658 659.446 628.333 660.861 627.683 661.787C627.032 662.713 626.016 663.176 624.633 663.176C623.268 663.176 622.257 662.725 621.601 661.822C620.944 660.914 620.604 659.561 620.581 657.762V655.591C620.581 653.71 620.906 652.312 621.557 651.398C622.207 650.484 623.227 650.027 624.615 650.027C625.992 650.027 627.006 650.47 627.656 651.354C628.307 652.233 628.641 653.593 628.658 655.433V657.542ZM627.032 655.318C627.032 653.941 626.839 652.939 626.452 652.312C626.065 651.68 625.453 651.363 624.615 651.363C623.783 651.363 623.177 651.677 622.796 652.304C622.415 652.931 622.219 653.895 622.207 655.195V657.797C622.207 659.18 622.406 660.202 622.805 660.864C623.209 661.521 623.818 661.849 624.633 661.849C625.436 661.849 626.03 661.538 626.417 660.917C626.81 660.296 627.015 659.317 627.032 657.981V655.318ZM638.563 656.962L640.673 653.49H642.571L639.46 658.192L642.668 663H640.787L638.59 659.44L636.393 663H634.503L637.711 658.192L634.6 653.49H636.48L638.563 656.962ZM653.944 663H652.31V652.163L649.031 653.367V651.891L653.689 650.142H653.944V663Z" fill="black"/>
<path d="M273.391 465.702H275.166V467.029H273.391V470H271.756V467.029H265.929V466.071L271.659 457.203H273.391V465.702ZM267.774 465.702H271.756V459.427L271.562 459.778L267.774 465.702Z" fill="#EB5757"/>
<path d="M284.456 463.962L286.565 460.49H288.464L285.353 465.192L288.561 470H286.68L284.482 466.44L282.285 470H280.396L283.604 465.192L280.492 460.49H282.373L284.456 463.962ZM299.837 470H298.202V459.163L294.924 460.367V458.891L299.582 457.142H299.837V470Z" fill="black"/>
<path d="M548.727 655.846H541.396V654.431H548.727V655.846ZM548.727 659.493H541.396V658.087H548.727V659.493Z" fill="black"/>
<path d="M344.727 461.846H337.396V460.431H344.727V461.846ZM344.727 465.493H337.396V464.087H344.727V465.493Z" fill="black"/>
<path d="M393.339 539.62H399.403V541H391.643V528.203H393.339V539.62Z" fill="black"/>
<line x1="353.5" y1="420" x2="353.5" y2="517" stroke="black"/>
<line x1="430.9" y1="419" x2="430.9" y2="516" stroke="black"/>
<line x1="353" y1="419.5" x2="360" y2="419.5" stroke="black"/>
<line x1="424" y1="419.5" x2="431" y2="419.5" stroke="black"/>
<line x1="353" y1="516.5" x2="360" y2="516.5" stroke="black"/>
<line x1="424" y1="515.5" x2="431" y2="515.5" stroke="black"/>
<path d="M370.763 470H369.128V459.163L365.85 460.367V458.891L370.508 457.142H370.763V470ZM383.551 464.542C383.551 466.446 383.226 467.861 382.575 468.787C381.925 469.713 380.908 470.176 379.525 470.176C378.16 470.176 377.149 469.725 376.493 468.822C375.837 467.914 375.497 466.561 375.474 464.762V462.591C375.474 460.71 375.799 459.312 376.449 458.398C377.1 457.484 378.119 457.027 379.508 457.027C380.885 457.027 381.898 457.47 382.549 458.354C383.199 459.233 383.533 460.593 383.551 462.433V464.542ZM381.925 462.318C381.925 460.941 381.731 459.939 381.345 459.312C380.958 458.68 380.346 458.363 379.508 458.363C378.676 458.363 378.069 458.677 377.688 459.304C377.308 459.931 377.111 460.895 377.1 462.195V464.797C377.1 466.18 377.299 467.202 377.697 467.864C378.102 468.521 378.711 468.849 379.525 468.849C380.328 468.849 380.923 468.538 381.31 467.917C381.702 467.296 381.907 466.317 381.925 464.981V462.318ZM393.658 464.542C393.658 466.446 393.333 467.861 392.683 468.787C392.032 469.713 391.016 470.176 389.633 470.176C388.268 470.176 387.257 469.725 386.601 468.822C385.944 467.914 385.604 466.561 385.581 464.762V462.591C385.581 460.71 385.906 459.312 386.557 458.398C387.207 457.484 388.227 457.027 389.615 457.027C390.992 457.027 392.006 457.47 392.656 458.354C393.307 459.233 393.641 460.593 393.658 462.433V464.542ZM392.032 462.318C392.032 460.941 391.839 459.939 391.452 459.312C391.065 458.68 390.453 458.363 389.615 458.363C388.783 458.363 388.177 458.677 387.796 459.304C387.415 459.931 387.219 460.895 387.207 462.195V464.797C387.207 466.18 387.406 467.202 387.805 467.864C388.209 468.521 388.818 468.849 389.633 468.849C390.436 468.849 391.03 468.538 391.417 467.917C391.81 467.296 392.015 466.317 392.032 464.981V462.318ZM403.563 463.962L405.673 460.49H407.571L404.46 465.192L407.668 470H405.787L403.59 466.44L401.393 470H399.503L402.711 465.192L399.6 460.49H401.48L403.563 463.962ZM418.944 470H417.31V459.163L414.031 460.367V458.891L418.689 457.142H418.944V470Z" fill="black"/>
<line x1="356.5" y1="613" x2="356.5" y2="710" stroke="black"/>
<line x1="433.9" y1="612" x2="433.9" y2="709" stroke="black"/>
<line x1="356" y1="612.5" x2="363" y2="612.5" stroke="black"/>
<line x1="427" y1="612.5" x2="434" y2="612.5" stroke="black"/>
<line x1="356" y1="709.5" x2="363" y2="709.5" stroke="black"/>
<line x1="427" y1="708.5" x2="434" y2="708.5" stroke="black"/>
<path d="M373.763 663H372.128V652.163L368.85 653.367V651.891L373.508 650.142H373.763V663ZM386.551 657.542C386.551 659.446 386.226 660.861 385.575 661.787C384.925 662.713 383.908 663.176 382.525 663.176C381.16 663.176 380.149 662.725 379.493 661.822C378.837 660.914 378.497 659.561 378.474 657.762V655.591C378.474 653.71 378.799 652.312 379.449 651.398C380.1 650.484 381.119 650.027 382.508 650.027C383.885 650.027 384.898 650.47 385.549 651.354C386.199 652.233 386.533 653.593 386.551 655.433V657.542ZM384.925 655.318C384.925 653.941 384.731 652.939 384.345 652.312C383.958 651.68 383.346 651.363 382.508 651.363C381.676 651.363 381.069 651.677 380.688 652.304C380.308 652.931 380.111 653.895 380.1 655.195V657.797C380.1 659.18 380.299 660.202 380.697 660.864C381.102 661.521 381.711 661.849 382.525 661.849C383.328 661.849 383.923 661.538 384.31 660.917C384.702 660.296 384.907 659.317 384.925 657.981V655.318ZM396.658 657.542C396.658 659.446 396.333 660.861 395.683 661.787C395.032 662.713 394.016 663.176 392.633 663.176C391.268 663.176 390.257 662.725 389.601 661.822C388.944 660.914 388.604 659.561 388.581 657.762V655.591C388.581 653.71 388.906 652.312 389.557 651.398C390.207 650.484 391.227 650.027 392.615 650.027C393.992 650.027 395.006 650.47 395.656 651.354C396.307 652.233 396.641 653.593 396.658 655.433V657.542ZM395.032 655.318C395.032 653.941 394.839 652.939 394.452 652.312C394.065 651.68 393.453 651.363 392.615 651.363C391.783 651.363 391.177 651.677 390.796 652.304C390.415 652.931 390.219 653.895 390.207 655.195V657.797C390.207 659.18 390.406 660.202 390.805 660.864C391.209 661.521 391.818 661.849 392.633 661.849C393.436 661.849 394.03 661.538 394.417 660.917C394.81 660.296 395.015 659.317 395.032 657.981V655.318ZM406.563 656.962L408.673 653.49H410.571L407.46 658.192L410.668 663H408.787L406.59 659.44L404.393 663H402.503L405.711 658.192L402.6 653.49H404.48L406.563 656.962Z" fill="black"/>
<path d="M421.944 663H420.31V652.163L417.031 653.367V651.891L421.689 650.142H421.944V663Z" fill="#EB5757"/>
<path d="M405.402 546H404.312V538.775L402.127 539.578V538.594L405.232 537.428H405.402V546Z" fill="black"/>
<path d="M641.43 733H635.84V732.221L638.793 728.939C639.23 728.443 639.531 728.041 639.695 727.732C639.863 727.42 639.947 727.098 639.947 726.766C639.947 726.32 639.812 725.955 639.543 725.67C639.273 725.385 638.914 725.242 638.465 725.242C637.926 725.242 637.506 725.396 637.205 725.705C636.908 726.01 636.76 726.436 636.76 726.982H635.676C635.676 726.197 635.928 725.562 636.432 725.078C636.939 724.594 637.617 724.352 638.465 724.352C639.258 724.352 639.885 724.561 640.346 724.979C640.807 725.393 641.037 725.945 641.037 726.637C641.037 727.477 640.502 728.477 639.432 729.637L637.146 732.115H641.43V733Z" fill="black"/>
<path d="M396.339 729.62H402.403V731H394.643V718.203H396.339V729.62Z" fill="black"/>
<path d="M408.402 736H407.312V728.775L405.127 729.578V728.594L408.232 727.428H408.402V736Z" fill="black"/>
<path d="M466.87 665H465.235V654.163L461.957 655.367V653.891L466.615 652.142H466.87V665Z" fill="#EB5757"/>
<path d="M479.456 658.962L481.565 655.49H483.464L480.353 660.192L483.561 665H481.68L479.482 661.44L477.285 665H475.396L478.604 660.192L475.492 655.49H477.373L479.456 658.962ZM494.837 665H493.202V654.163L489.924 655.367V653.891L494.582 652.142H494.837V665Z" fill="#333333"/>
<path d="M139.965 464.074C139.965 462.309 140.199 460.613 140.668 458.988C141.145 457.363 141.852 455.887 142.789 454.559C143.727 453.23 144.699 452.293 145.707 451.746L146.152 453.176C145.012 454.051 144.074 455.387 143.34 457.184C142.613 458.98 142.215 460.992 142.145 463.219L142.133 464.215C142.133 467.23 142.684 469.848 143.785 472.066C144.449 473.395 145.238 474.434 146.152 475.184L145.707 476.508C144.668 475.93 143.676 474.961 142.73 473.602C140.887 470.945 139.965 467.77 139.965 464.074ZM325.895 464.191C325.895 465.934 325.664 467.605 325.203 469.207C324.75 470.801 324.051 472.273 323.105 473.625C322.168 474.977 321.184 475.938 320.152 476.508L319.695 475.184C320.898 474.262 321.863 472.832 322.59 470.895C323.324 468.949 323.699 466.793 323.715 464.426V464.051C323.715 462.41 323.543 460.887 323.199 459.48C322.855 458.066 322.375 456.801 321.758 455.684C321.148 454.566 320.461 453.695 319.695 453.07L320.152 451.746C321.184 452.316 322.164 453.27 323.094 454.605C324.031 455.941 324.73 457.414 325.191 459.023C325.66 460.633 325.895 462.355 325.895 464.191Z" fill="black"/>
<path d="M345.941 657.074C345.941 655.309 346.176 653.613 346.645 651.988C347.121 650.363 347.828 648.887 348.766 647.559C349.703 646.23 350.676 645.293 351.684 644.746L352.129 646.176C350.988 647.051 350.051 648.387 349.316 650.184C348.59 651.98 348.191 653.992 348.121 656.219L348.109 657.215C348.109 660.23 348.66 662.848 349.762 665.066C350.426 666.395 351.215 667.434 352.129 668.184L351.684 669.508C350.645 668.93 349.652 667.961 348.707 666.602C346.863 663.945 345.941 660.77 345.941 657.074ZM525.918 657.191C525.918 658.934 525.687 660.605 525.227 662.207C524.773 663.801 524.074 665.273 523.129 666.625C522.191 667.977 521.207 668.938 520.176 669.508L519.719 668.184C520.922 667.262 521.887 665.832 522.613 663.895C523.348 661.949 523.723 659.793 523.738 657.426V657.051C523.738 655.41 523.566 653.887 523.223 652.48C522.879 651.066 522.398 649.801 521.781 648.684C521.172 647.566 520.484 646.695 519.719 646.07L520.176 644.746C521.207 645.316 522.188 646.27 523.117 647.605C524.055 648.941 524.754 650.414 525.215 652.023C525.684 653.633 525.918 655.355 525.918 657.191Z" fill="black"/>
<path d="M6.64844 470.425C6.73633 469.769 6.37598 469.306 5.56738 469.036L3.91504 468.553C2.52051 468.072 1.84668 467.275 1.89355 466.162C1.93457 465.324 2.31543 464.639 3.03613 464.105C3.7627 463.566 4.61523 463.303 5.59375 463.314C6.55469 463.326 7.33398 463.607 7.93164 464.158C8.53516 464.703 8.8252 465.415 8.80176 466.294L7.21973 466.285C7.23145 465.811 7.08203 465.424 6.77148 465.125C6.46094 464.826 6.04785 464.671 5.53223 464.659C4.98145 464.647 4.50684 464.782 4.1084 465.063C3.73926 465.327 3.52539 465.673 3.4668 466.101C3.39063 466.651 3.72754 467.053 4.47754 467.305L5.27734 467.524C6.36719 467.806 7.14062 468.172 7.59766 468.623C8.05469 469.074 8.26562 469.634 8.23047 470.302C8.19531 470.894 8.00195 471.409 7.65039 471.849C7.29883 472.288 6.83008 472.625 6.24414 472.859C5.6582 473.088 5.03418 473.193 4.37207 473.176C3.36426 473.164 2.53223 472.871 1.87598 472.297C1.21973 471.717 0.90332 470.973 0.926758 470.064L2.51758 470.073C2.51758 470.606 2.6875 471.034 3.02734 471.356C3.36719 471.679 3.83301 471.84 4.4248 471.84C5.00488 471.852 5.50586 471.731 5.92773 471.479C6.34961 471.222 6.58984 470.87 6.64844 470.425ZM14.0488 461.188L13.6445 463.49H15.376L15.1562 464.747H13.4336L12.4404 470.662C12.4229 470.814 12.4199 470.955 12.4316 471.084C12.4727 471.541 12.7217 471.77 13.1787 471.77C13.3721 471.77 13.6299 471.74 13.9521 471.682L13.8291 473.009C13.4482 473.114 13.0615 473.167 12.6689 473.167C12.0361 473.155 11.5615 472.924 11.2451 472.473C10.9287 472.016 10.8057 471.403 10.876 470.636L11.8428 464.747H10.1641L10.3838 463.49H12.0625L12.4668 461.188H14.0488ZM21.4668 473C21.4258 472.83 21.4053 472.663 21.4053 472.499L21.4316 471.998C20.5586 472.807 19.6328 473.199 18.6543 473.176C17.8164 473.164 17.1338 472.9 16.6064 472.385C16.085 471.863 15.8477 471.213 15.8945 470.434C15.9531 469.426 16.3926 468.641 17.2129 468.078C18.0391 467.51 19.123 467.226 20.4648 467.226L22.126 467.234L22.2314 466.479C22.29 465.91 22.1787 465.462 21.8975 465.134C21.6221 464.8 21.2061 464.627 20.6494 464.615C20.1045 464.604 19.6211 464.738 19.1992 465.02C18.7832 465.295 18.5283 465.661 18.4346 466.118L16.835 466.127C16.8877 465.57 17.1045 465.078 17.4854 464.65C17.8662 464.217 18.3555 463.883 18.9531 463.648C19.5508 463.408 20.1689 463.294 20.8076 463.306C21.7979 463.329 22.5684 463.631 23.1191 464.211C23.6699 464.785 23.9014 465.55 23.8135 466.505L23.04 471.216L22.9961 471.893C22.9844 472.215 23.0195 472.534 23.1016 472.851L23.084 473H21.4668ZM18.9707 471.77C19.4805 471.781 19.9609 471.661 20.4121 471.409C20.8691 471.151 21.2617 470.797 21.5898 470.346L21.9326 468.386L20.7285 468.377C19.7266 468.377 18.959 468.535 18.4258 468.852C17.8926 469.168 17.5908 469.616 17.5205 470.196C17.4678 470.642 17.5703 471.014 17.8281 471.312C18.0918 471.605 18.4727 471.758 18.9707 471.77ZM25.7119 468.228C25.8525 467.19 26.1309 466.291 26.5469 465.529C26.9688 464.762 27.4785 464.196 28.0762 463.833C28.6797 463.464 29.3389 463.288 30.0537 463.306C31.1553 463.329 31.9873 463.745 32.5498 464.554L32.8662 463.49H34.3252L32.7432 472.798C32.5732 474.011 32.0811 474.98 31.2666 475.707C30.4521 476.439 29.4473 476.788 28.252 476.753C27.6074 476.741 26.9893 476.589 26.3975 476.296C25.8115 476.003 25.3486 475.602 25.0088 475.092L25.9141 474.116C26.4883 474.966 27.2471 475.402 28.1904 475.426C28.9463 475.449 29.585 475.238 30.1064 474.793C30.6338 474.348 30.9824 473.715 31.1523 472.895L31.3281 472.051C30.5547 472.824 29.6494 473.199 28.6123 473.176C28.0205 473.158 27.5049 473 27.0654 472.701C26.6318 472.396 26.2949 471.96 26.0547 471.392C25.8145 470.817 25.6826 470.179 25.6592 469.476C25.6475 469.13 25.665 468.714 25.7119 468.228ZM27.25 469.133C27.2324 469.971 27.376 470.621 27.6807 471.084C27.9912 471.541 28.457 471.781 29.0781 471.805C30.0273 471.828 30.8447 471.362 31.5303 470.407L32.2773 466.039C31.9258 465.172 31.29 464.721 30.3701 464.686C29.5088 464.662 28.7998 465.014 28.2432 465.74C27.6924 466.467 27.3672 467.448 27.2676 468.685L27.25 469.133ZM39.2559 473.176C38.0723 473.152 37.1465 472.716 36.4785 471.866C35.8105 471.017 35.5293 469.93 35.6348 468.605L35.6787 468.228C35.7783 467.284 36.0566 466.423 36.5137 465.644C36.9766 464.864 37.5391 464.278 38.2012 463.886C38.8633 463.487 39.5781 463.297 40.3457 463.314C41.3242 463.338 42.0918 463.663 42.6484 464.29C43.2051 464.917 43.5098 465.767 43.5625 466.839C43.5801 467.22 43.5684 467.601 43.5273 467.981L43.4307 468.711H37.2168C37.1113 469.572 37.252 470.305 37.6387 470.908C38.0312 471.512 38.6143 471.825 39.3877 471.849C40.3252 471.872 41.1924 471.45 41.9893 470.583L42.9033 471.356C42.5049 471.931 41.9893 472.382 41.3564 472.71C40.7295 473.032 40.0293 473.188 39.2559 473.176ZM40.2666 464.642C39.6104 464.624 39.0361 464.847 38.5439 465.31C38.0576 465.772 37.6709 466.461 37.3838 467.375L42.0068 467.384L42.042 467.243C42.1357 466.505 42.0156 465.893 41.6816 465.406C41.3535 464.914 40.8818 464.659 40.2666 464.642ZM53.9248 473H52.3252L54.2061 462.207L50.8047 463.402L51.0771 461.855L55.8232 460.142H56.1045L53.9248 473Z" fill="black"/>
<path d="M230.648 656.425C230.736 655.769 230.376 655.306 229.567 655.036L227.915 654.553C226.521 654.072 225.847 653.275 225.894 652.162C225.935 651.324 226.315 650.639 227.036 650.105C227.763 649.566 228.615 649.303 229.594 649.314C230.555 649.326 231.334 649.607 231.932 650.158C232.535 650.703 232.825 651.415 232.802 652.294L231.22 652.285C231.231 651.811 231.082 651.424 230.771 651.125C230.461 650.826 230.048 650.671 229.532 650.659C228.981 650.647 228.507 650.782 228.108 651.063C227.739 651.327 227.525 651.673 227.467 652.101C227.391 652.651 227.728 653.053 228.478 653.305L229.277 653.524C230.367 653.806 231.141 654.172 231.598 654.623C232.055 655.074 232.266 655.634 232.23 656.302C232.195 656.894 232.002 657.409 231.65 657.849C231.299 658.288 230.83 658.625 230.244 658.859C229.658 659.088 229.034 659.193 228.372 659.176C227.364 659.164 226.532 658.871 225.876 658.297C225.22 657.717 224.903 656.973 224.927 656.064L226.518 656.073C226.518 656.606 226.687 657.034 227.027 657.356C227.367 657.679 227.833 657.84 228.425 657.84C229.005 657.852 229.506 657.731 229.928 657.479C230.35 657.222 230.59 656.87 230.648 656.425ZM238.049 647.188L237.645 649.49H239.376L239.156 650.747H237.434L236.44 656.662C236.423 656.814 236.42 656.955 236.432 657.084C236.473 657.541 236.722 657.77 237.179 657.77C237.372 657.77 237.63 657.74 237.952 657.682L237.829 659.009C237.448 659.114 237.062 659.167 236.669 659.167C236.036 659.155 235.562 658.924 235.245 658.473C234.929 658.016 234.806 657.403 234.876 656.636L235.843 650.747H234.164L234.384 649.49H236.062L236.467 647.188H238.049ZM245.467 659C245.426 658.83 245.405 658.663 245.405 658.499L245.432 657.998C244.559 658.807 243.633 659.199 242.654 659.176C241.816 659.164 241.134 658.9 240.606 658.385C240.085 657.863 239.848 657.213 239.895 656.434C239.953 655.426 240.393 654.641 241.213 654.078C242.039 653.51 243.123 653.226 244.465 653.226L246.126 653.234L246.231 652.479C246.29 651.91 246.179 651.462 245.897 651.134C245.622 650.8 245.206 650.627 244.649 650.615C244.104 650.604 243.621 650.738 243.199 651.02C242.783 651.295 242.528 651.661 242.435 652.118L240.835 652.127C240.888 651.57 241.104 651.078 241.485 650.65C241.866 650.217 242.355 649.883 242.953 649.648C243.551 649.408 244.169 649.294 244.808 649.306C245.798 649.329 246.568 649.631 247.119 650.211C247.67 650.785 247.901 651.55 247.813 652.505L247.04 657.216L246.996 657.893C246.984 658.215 247.02 658.534 247.102 658.851L247.084 659H245.467ZM242.971 657.77C243.48 657.781 243.961 657.661 244.412 657.409C244.869 657.151 245.262 656.797 245.59 656.346L245.933 654.386L244.729 654.377C243.727 654.377 242.959 654.535 242.426 654.852C241.893 655.168 241.591 655.616 241.521 656.196C241.468 656.642 241.57 657.014 241.828 657.312C242.092 657.605 242.473 657.758 242.971 657.77ZM249.712 654.228C249.853 653.19 250.131 652.291 250.547 651.529C250.969 650.762 251.479 650.196 252.076 649.833C252.68 649.464 253.339 649.288 254.054 649.306C255.155 649.329 255.987 649.745 256.55 650.554L256.866 649.49H258.325L256.743 658.798C256.573 660.011 256.081 660.98 255.267 661.707C254.452 662.439 253.447 662.788 252.252 662.753C251.607 662.741 250.989 662.589 250.397 662.296C249.812 662.003 249.349 661.602 249.009 661.092L249.914 660.116C250.488 660.966 251.247 661.402 252.19 661.426C252.946 661.449 253.585 661.238 254.106 660.793C254.634 660.348 254.982 659.715 255.152 658.895L255.328 658.051C254.555 658.824 253.649 659.199 252.612 659.176C252.021 659.158 251.505 659 251.065 658.701C250.632 658.396 250.295 657.96 250.055 657.392C249.814 656.817 249.683 656.179 249.659 655.476C249.647 655.13 249.665 654.714 249.712 654.228ZM251.25 655.133C251.232 655.971 251.376 656.621 251.681 657.084C251.991 657.541 252.457 657.781 253.078 657.805C254.027 657.828 254.845 657.362 255.53 656.407L256.277 652.039C255.926 651.172 255.29 650.721 254.37 650.686C253.509 650.662 252.8 651.014 252.243 651.74C251.692 652.467 251.367 653.448 251.268 654.685L251.25 655.133ZM263.256 659.176C262.072 659.152 261.146 658.716 260.479 657.866C259.811 657.017 259.529 655.93 259.635 654.605L259.679 654.228C259.778 653.284 260.057 652.423 260.514 651.644C260.977 650.864 261.539 650.278 262.201 649.886C262.863 649.487 263.578 649.297 264.346 649.314C265.324 649.338 266.092 649.663 266.648 650.29C267.205 650.917 267.51 651.767 267.562 652.839C267.58 653.22 267.568 653.601 267.527 653.981L267.431 654.711H261.217C261.111 655.572 261.252 656.305 261.639 656.908C262.031 657.512 262.614 657.825 263.388 657.849C264.325 657.872 265.192 657.45 265.989 656.583L266.903 657.356C266.505 657.931 265.989 658.382 265.356 658.71C264.729 659.032 264.029 659.188 263.256 659.176ZM264.267 650.642C263.61 650.624 263.036 650.847 262.544 651.31C262.058 651.772 261.671 652.461 261.384 653.375L266.007 653.384L266.042 653.243C266.136 652.505 266.016 651.893 265.682 651.406C265.354 650.914 264.882 650.659 264.267 650.642ZM280.966 659H272.818L273.012 657.761L277.731 653.173L278.593 652.32C279.583 651.33 280.131 650.416 280.236 649.578C280.313 648.934 280.187 648.409 279.858 648.005C279.53 647.595 279.067 647.378 278.47 647.354C277.702 647.331 277.061 647.557 276.545 648.031C276.029 648.5 275.716 649.145 275.604 649.965L274.031 649.974C274.107 649.188 274.348 648.494 274.752 647.891C275.162 647.281 275.698 646.815 276.36 646.493C277.028 646.165 277.752 646.01 278.531 646.027C279.592 646.051 280.433 646.373 281.054 646.994C281.681 647.609 281.95 648.409 281.862 649.394C281.763 650.519 281.115 651.702 279.92 652.944L279.111 653.762L274.998 657.673H281.177L280.966 659Z" fill="black"/>
<path d="M394.293 589.707C394.683 590.098 395.317 590.098 395.707 589.707L402.071 583.343C402.462 582.953 402.462 582.319 402.071 581.929C401.681 581.538 401.047 581.538 400.657 581.929L395 587.586L389.343 581.929C388.953 581.538 388.319 581.538 387.929 581.929C387.538 582.319 387.538 582.953 387.929 583.343L394.293 589.707ZM394 570V589H396V570H394Z" fill="black"/>
<path d="M366.707 39.7071C367.098 39.3166 367.098 38.6834 366.707 38.2929L360.343 31.9289C359.953 31.5384 359.319 31.5384 358.929 31.9289C358.538 32.3195 358.538 32.9526 358.929 33.3431L364.586 39L358.929 44.6569C358.538 45.0474 358.538 45.6805 358.929 46.0711C359.319 46.4616 359.953 46.4616 360.343 46.0711L366.707 39.7071ZM249 40H366V38H249V40Z" fill="black"/>
<path d="M524.707 39.7071C525.098 39.3166 525.098 38.6834 524.707 38.2929L518.343 31.9289C517.953 31.5384 517.319 31.5384 516.929 31.9289C516.538 32.3195 516.538 32.9526 516.929 33.3431L522.586 39L516.929 44.6569C516.538 45.0474 516.538 45.6805 516.929 46.0711C517.319 46.4616 517.953 46.4616 518.343 46.0711L524.707 39.7071ZM407 40H524V38H407V40Z" fill="black"/>
<path d="M350.055 192.497C350.33 192.466 350.527 192.219 350.497 191.945L350 187.472C349.969 187.198 349.722 187 349.448 187.031C349.173 187.061 348.976 187.308 349.006 187.583L349.448 191.558L345.472 192C345.198 192.03 345 192.278 345.031 192.552C345.061 192.827 345.308 193.024 345.583 192.994L350.055 192.497ZM289.688 144.39L349.688 192.39L350.312 191.61L290.312 143.61L289.688 144.39Z" fill="black"/>
<path d="M350.23 207.444C350.475 207.317 350.571 207.015 350.444 206.77L348.371 202.776C348.244 202.53 347.942 202.435 347.697 202.562C347.452 202.689 347.356 202.991 347.483 203.236L349.326 206.787L345.776 208.629C345.53 208.756 345.435 209.058 345.562 209.303C345.689 209.548 345.991 209.644 346.236 209.517L350.23 207.444ZM289.849 188.477L349.849 207.477L350.151 206.523L290.151 187.523L289.849 188.477Z" fill="black"/>
<path d="M350.437 221.244C350.571 221.003 350.485 220.698 350.244 220.563L346.315 218.369C346.074 218.235 345.769 218.321 345.635 218.562C345.5 218.803 345.586 219.108 345.827 219.242L349.32 221.193L347.369 224.685C347.235 224.926 347.321 225.231 347.562 225.365C347.803 225.5 348.108 225.414 348.242 225.173L350.437 221.244ZM290.136 238.481L350.136 221.481L349.864 220.519L289.864 237.519L290.136 238.481Z" fill="black"/>
<path d="M350.5 229.996C350.498 229.72 350.272 229.498 349.996 229.5L345.496 229.537C345.22 229.539 344.998 229.765 345 230.041C345.002 230.317 345.228 230.539 345.504 230.537L349.504 230.504L349.537 234.504C349.539 234.78 349.765 235.002 350.041 235C350.317 234.998 350.539 234.772 350.537 234.496L350.5 229.996ZM290.356 291.351L350.356 230.351L349.644 229.649L289.644 290.649L290.356 291.351Z" fill="black"/>
<path d="M470.354 206.354C470.549 206.158 470.549 205.842 470.354 205.646L467.172 202.464C466.976 202.269 466.66 202.269 466.464 202.464C466.269 202.66 466.269 202.976 466.464 203.172L469.293 206L466.464 208.828C466.269 209.024 466.269 209.34 466.464 209.536C466.66 209.731 466.976 209.731 467.172 209.536L470.354 206.354ZM425 206.5H470V205.5H425V206.5Z" fill="black"/>
<path d="M275.271 146H274.182V138.775L271.996 139.578V138.594L275.102 137.428H275.271V146Z" fill="black"/>
<path d="M267.421 135.962L269.53 132.49H271.429L268.317 137.192L271.525 142H269.645L267.447 138.44L265.25 142H263.36L266.568 137.192L263.457 132.49H265.338L267.421 135.962Z" fill="black"/>
<path d="M277.299 194H271.709V193.221L274.662 189.939C275.1 189.443 275.4 189.041 275.564 188.732C275.732 188.42 275.816 188.098 275.816 187.766C275.816 187.32 275.682 186.955 275.412 186.67C275.143 186.385 274.783 186.242 274.334 186.242C273.795 186.242 273.375 186.396 273.074 186.705C272.777 187.01 272.629 187.436 272.629 187.982H271.545C271.545 187.197 271.797 186.562 272.301 186.078C272.809 185.594 273.486 185.352 274.334 185.352C275.127 185.352 275.754 185.561 276.215 185.979C276.676 186.393 276.906 186.945 276.906 187.637C276.906 188.477 276.371 189.477 275.301 190.637L273.016 193.115H277.299V194Z" fill="black"/>
<path d="M267.421 183.962L269.53 180.49H271.429L268.317 185.192L271.525 190H269.645L267.447 186.44L265.25 190H263.36L266.568 185.192L263.457 180.49H265.338L267.421 183.962Z" fill="black"/>
<path d="M273.285 240.207H274.1C274.611 240.199 275.014 240.064 275.307 239.803C275.6 239.541 275.746 239.188 275.746 238.742C275.746 237.742 275.248 237.242 274.252 237.242C273.783 237.242 273.408 237.377 273.127 237.646C272.85 237.912 272.711 238.266 272.711 238.707H271.627C271.627 238.031 271.873 237.471 272.365 237.025C272.861 236.576 273.49 236.352 274.252 236.352C275.057 236.352 275.688 236.564 276.145 236.99C276.602 237.416 276.83 238.008 276.83 238.766C276.83 239.137 276.709 239.496 276.467 239.844C276.229 240.191 275.902 240.451 275.488 240.623C275.957 240.771 276.318 241.018 276.572 241.361C276.83 241.705 276.959 242.125 276.959 242.621C276.959 243.387 276.709 243.994 276.209 244.443C275.709 244.893 275.059 245.117 274.258 245.117C273.457 245.117 272.805 244.9 272.301 244.467C271.801 244.033 271.551 243.461 271.551 242.75H272.641C272.641 243.199 272.787 243.559 273.08 243.828C273.373 244.098 273.766 244.232 274.258 244.232C274.781 244.232 275.182 244.096 275.459 243.822C275.736 243.549 275.875 243.156 275.875 242.645C275.875 242.148 275.723 241.768 275.418 241.502C275.113 241.236 274.674 241.1 274.1 241.092H273.285V240.207Z" fill="black"/>
<path d="M267.421 234.962L269.53 231.49H271.429L268.317 236.192L271.525 241H269.645L267.447 237.44L265.25 241H263.36L266.568 236.192L263.457 231.49H265.338L267.421 234.962Z" fill="black"/>
<path d="M276.285 295.135H277.469V296.02H276.285V298H275.195V296.02H271.311V295.381L275.131 289.469H276.285V295.135ZM272.541 295.135H275.195V290.951L275.066 291.186L272.541 295.135Z" fill="black"/>
<path d="M267.421 287.962L269.53 284.49H271.429L268.317 289.192L271.525 294H269.645L267.447 290.44L265.25 294H263.36L266.568 289.192L263.457 284.49H265.338L267.421 287.962Z" fill="black"/>
<path d="M322.206 156C322.112 155.812 322.036 155.479 321.978 154.998C321.222 155.783 320.319 156.176 319.271 156.176C318.333 156.176 317.562 155.912 316.959 155.385C316.361 154.852 316.062 154.178 316.062 153.363C316.062 152.373 316.438 151.605 317.188 151.061C317.943 150.51 319.004 150.234 320.369 150.234H321.951V149.487C321.951 148.919 321.781 148.468 321.441 148.134C321.102 147.794 320.601 147.624 319.938 147.624C319.358 147.624 318.872 147.771 318.479 148.063C318.087 148.356 317.891 148.711 317.891 149.127H316.256C316.256 148.652 316.423 148.195 316.757 147.756C317.097 147.311 317.554 146.959 318.128 146.701C318.708 146.443 319.344 146.314 320.035 146.314C321.131 146.314 321.989 146.59 322.61 147.141C323.231 147.686 323.554 148.438 323.577 149.399V153.776C323.577 154.649 323.688 155.344 323.911 155.859V156H322.206ZM319.508 154.761C320.018 154.761 320.501 154.629 320.958 154.365C321.415 154.102 321.746 153.759 321.951 153.337V151.386H320.677C318.685 151.386 317.688 151.969 317.688 153.135C317.688 153.645 317.858 154.043 318.198 154.33C318.538 154.617 318.975 154.761 319.508 154.761Z" fill="black"/>
<path d="M327.752 148H326.844V141.979L325.022 142.648V141.828L327.61 140.856H327.752V148Z" fill="black"/>
<path d="M327.944 162H327.036V155.979L325.215 156.648V155.828L327.803 154.856H327.944V162ZM335.249 162H330.591V161.351L333.052 158.616C333.416 158.203 333.667 157.868 333.804 157.61C333.944 157.35 334.014 157.081 334.014 156.805C334.014 156.434 333.901 156.129 333.677 155.892C333.452 155.654 333.153 155.535 332.778 155.535C332.329 155.535 331.979 155.664 331.729 155.921C331.481 156.175 331.357 156.53 331.357 156.985H330.454C330.454 156.331 330.664 155.802 331.084 155.398C331.507 154.995 332.072 154.793 332.778 154.793C333.439 154.793 333.962 154.967 334.346 155.315C334.73 155.66 334.922 156.121 334.922 156.697C334.922 157.397 334.476 158.23 333.584 159.197L331.68 161.263H335.249V162Z" fill="black"/>
<path d="M323.206 273C323.112 272.812 323.036 272.479 322.978 271.998C322.222 272.783 321.319 273.176 320.271 273.176C319.333 273.176 318.562 272.912 317.959 272.385C317.361 271.852 317.062 271.178 317.062 270.363C317.062 269.373 317.438 268.605 318.188 268.061C318.943 267.51 320.004 267.234 321.369 267.234H322.951V266.487C322.951 265.919 322.781 265.468 322.441 265.134C322.102 264.794 321.601 264.624 320.938 264.624C320.358 264.624 319.872 264.771 319.479 265.063C319.087 265.356 318.891 265.711 318.891 266.127H317.256C317.256 265.652 317.423 265.195 317.757 264.756C318.097 264.311 318.554 263.959 319.128 263.701C319.708 263.443 320.344 263.314 321.035 263.314C322.131 263.314 322.989 263.59 323.61 264.141C324.231 264.686 324.554 265.438 324.577 266.399V270.776C324.577 271.649 324.688 272.344 324.911 272.859V273H323.206ZM320.508 271.761C321.018 271.761 321.501 271.629 321.958 271.365C322.415 271.102 322.746 270.759 322.951 270.337V268.386H321.677C319.685 268.386 318.688 268.969 318.688 270.135C318.688 270.645 318.858 271.043 319.198 271.33C319.538 271.617 319.975 271.761 320.508 271.761Z" fill="black"/>
<path d="M329.597 262.612H330.583V263.35H329.597V265H328.688V263.35H325.451V262.817L328.635 257.891H329.597V262.612ZM326.477 262.612H328.688V259.126L328.581 259.321L326.477 262.612Z" fill="black"/>
<path d="M328.944 279H328.036V272.979L326.215 273.648V272.828L328.803 271.856H328.944V279ZM336.249 279H331.591V278.351L334.052 275.616C334.416 275.203 334.667 274.868 334.804 274.61C334.944 274.35 335.014 274.081 335.014 273.805C335.014 273.434 334.901 273.129 334.677 272.892C334.452 272.654 334.153 272.535 333.778 272.535C333.329 272.535 332.979 272.664 332.729 272.921C332.481 273.175 332.357 273.53 332.357 273.985H331.454C331.454 273.331 331.664 272.802 332.084 272.398C332.507 271.995 333.072 271.793 333.778 271.793C334.439 271.793 334.962 271.967 335.346 272.315C335.73 272.66 335.922 273.121 335.922 273.697C335.922 274.397 335.476 275.23 334.584 276.197L332.68 278.263H336.249V279Z" fill="black"/>
<path d="M322.206 156C322.112 155.812 322.036 155.479 321.978 154.998C321.222 155.783 320.319 156.176 319.271 156.176C318.333 156.176 317.562 155.912 316.959 155.385C316.361 154.852 316.062 154.178 316.062 153.363C316.062 152.373 316.438 151.605 317.188 151.061C317.943 150.51 319.004 150.234 320.369 150.234H321.951V149.487C321.951 148.919 321.781 148.468 321.441 148.134C321.102 147.794 320.601 147.624 319.938 147.624C319.358 147.624 318.872 147.771 318.479 148.063C318.087 148.356 317.891 148.711 317.891 149.127H316.256C316.256 148.652 316.423 148.195 316.757 147.756C317.097 147.311 317.554 146.959 318.128 146.701C318.708 146.443 319.344 146.314 320.035 146.314C321.131 146.314 321.989 146.59 322.61 147.141C323.231 147.686 323.554 148.438 323.577 149.399V153.776C323.577 154.649 323.688 155.344 323.911 155.859V156H322.206ZM319.508 154.761C320.018 154.761 320.501 154.629 320.958 154.365C321.415 154.102 321.746 153.759 321.951 153.337V151.386H320.677C318.685 151.386 317.688 151.969 317.688 153.135C317.688 153.645 317.858 154.043 318.198 154.33C318.538 154.617 318.975 154.761 319.508 154.761Z" fill="black"/>
<path d="M327.752 148H326.844V141.979L325.022 142.648V141.828L327.61 140.856H327.752V148Z" fill="black"/>
<path d="M327.944 162H327.036V155.979L325.215 156.648V155.828L327.803 154.856H327.944V162ZM335.249 162H330.591V161.351L333.052 158.616C333.416 158.203 333.667 157.868 333.804 157.61C333.944 157.35 334.014 157.081 334.014 156.805C334.014 156.434 333.901 156.129 333.677 155.892C333.452 155.654 333.153 155.535 332.778 155.535C332.329 155.535 331.979 155.664 331.729 155.921C331.481 156.175 331.357 156.53 331.357 156.985H330.454C330.454 156.331 330.664 155.802 331.084 155.398C331.507 154.995 332.072 154.793 332.778 154.793C333.439 154.793 333.962 154.967 334.346 155.315C334.73 155.66 334.922 156.121 334.922 156.697C334.922 157.397 334.476 158.23 333.584 159.197L331.68 161.263H335.249V162Z" fill="black"/>
<path d="M443.206 194C443.112 193.812 443.036 193.479 442.978 192.998C442.222 193.783 441.319 194.176 440.271 194.176C439.333 194.176 438.562 193.912 437.959 193.385C437.361 192.852 437.062 192.178 437.062 191.363C437.062 190.373 437.438 189.605 438.188 189.061C438.943 188.51 440.004 188.234 441.369 188.234H442.951V187.487C442.951 186.919 442.781 186.468 442.441 186.134C442.102 185.794 441.601 185.624 440.938 185.624C440.358 185.624 439.872 185.771 439.479 186.063C439.087 186.356 438.891 186.711 438.891 187.127H437.256C437.256 186.652 437.423 186.195 437.757 185.756C438.097 185.311 438.554 184.959 439.128 184.701C439.708 184.443 440.344 184.314 441.035 184.314C442.131 184.314 442.989 184.59 443.61 185.141C444.231 185.686 444.554 186.438 444.577 187.399V191.776C444.577 192.649 444.688 193.344 444.911 193.859V194H443.206ZM440.508 192.761C441.018 192.761 441.501 192.629 441.958 192.365C442.415 192.102 442.746 191.759 442.951 191.337V189.386H441.677C439.685 189.386 438.688 189.969 438.688 191.135C438.688 191.645 438.858 192.043 439.198 192.33C439.538 192.617 439.975 192.761 440.508 192.761Z" fill="black"/>
<path d="M448.752 186H447.844V179.979L446.022 180.648V179.828L448.61 178.856H448.752V186Z" fill="black"/>
<path d="M443.206 194C443.112 193.812 443.036 193.479 442.978 192.998C442.222 193.783 441.319 194.176 440.271 194.176C439.333 194.176 438.562 193.912 437.959 193.385C437.361 192.852 437.062 192.178 437.062 191.363C437.062 190.373 437.438 189.605 438.188 189.061C438.943 188.51 440.004 188.234 441.369 188.234H442.951V187.487C442.951 186.919 442.781 186.468 442.441 186.134C442.102 185.794 441.601 185.624 440.938 185.624C440.358 185.624 439.872 185.771 439.479 186.063C439.087 186.356 438.891 186.711 438.891 187.127H437.256C437.256 186.652 437.423 186.195 437.757 185.756C438.097 185.311 438.554 184.959 439.128 184.701C439.708 184.443 440.344 184.314 441.035 184.314C442.131 184.314 442.989 184.59 443.61 185.141C444.231 185.686 444.554 186.438 444.577 187.399V191.776C444.577 192.649 444.688 193.344 444.911 193.859V194H443.206ZM440.508 192.761C441.018 192.761 441.501 192.629 441.958 192.365C442.415 192.102 442.746 191.759 442.951 191.337V189.386H441.677C439.685 189.386 438.688 189.969 438.688 191.135C438.688 191.645 438.858 192.043 439.198 192.33C439.538 192.617 439.975 192.761 440.508 192.761Z" fill="black"/>
<path d="M448.752 186H447.844V179.979L446.022 180.648V179.828L448.61 178.856H448.752V186Z" fill="black"/>
<path d="M450.634 201H445.976V200.351L448.437 197.616C448.801 197.203 449.052 196.868 449.188 196.61C449.328 196.35 449.398 196.081 449.398 195.805C449.398 195.434 449.286 195.129 449.062 194.892C448.837 194.654 448.537 194.535 448.163 194.535C447.714 194.535 447.364 194.664 447.113 194.921C446.866 195.175 446.742 195.53 446.742 195.985H445.839C445.839 195.331 446.049 194.802 446.469 194.398C446.892 193.995 447.457 193.793 448.163 193.793C448.824 193.793 449.346 193.967 449.73 194.315C450.115 194.66 450.307 195.121 450.307 195.697C450.307 196.397 449.861 197.23 448.969 198.197L447.064 200.263H450.634V201ZM452.904 197.006H453.583C454.009 196.999 454.345 196.887 454.589 196.669C454.833 196.451 454.955 196.156 454.955 195.785C454.955 194.952 454.54 194.535 453.71 194.535C453.319 194.535 453.007 194.647 452.772 194.872C452.541 195.093 452.426 195.388 452.426 195.756H451.522C451.522 195.193 451.728 194.726 452.138 194.354C452.551 193.98 453.075 193.793 453.71 193.793C454.381 193.793 454.906 193.97 455.287 194.325C455.668 194.68 455.858 195.173 455.858 195.805C455.858 196.114 455.757 196.413 455.556 196.703C455.357 196.993 455.085 197.209 454.74 197.353C455.131 197.476 455.432 197.681 455.644 197.968C455.858 198.254 455.966 198.604 455.966 199.018C455.966 199.656 455.757 200.162 455.341 200.536C454.924 200.91 454.382 201.098 453.715 201.098C453.048 201.098 452.504 200.917 452.084 200.556C451.667 200.194 451.459 199.717 451.459 199.125H452.367C452.367 199.499 452.489 199.799 452.733 200.023C452.978 200.248 453.305 200.36 453.715 200.36C454.151 200.36 454.485 200.246 454.716 200.019C454.947 199.791 455.062 199.464 455.062 199.037C455.062 198.624 454.936 198.306 454.682 198.085C454.428 197.864 454.062 197.75 453.583 197.743H452.904V197.006Z" fill="black"/>
<path d="M322.206 218C322.112 217.812 322.036 217.479 321.978 216.998C321.222 217.783 320.319 218.176 319.271 218.176C318.333 218.176 317.562 217.912 316.959 217.385C316.361 216.852 316.062 216.178 316.062 215.363C316.062 214.373 316.438 213.605 317.188 213.061C317.943 212.51 319.004 212.234 320.369 212.234H321.951V211.487C321.951 210.919 321.781 210.468 321.441 210.134C321.102 209.794 320.601 209.624 319.938 209.624C319.358 209.624 318.872 209.771 318.479 210.063C318.087 210.356 317.891 210.711 317.891 211.127H316.256C316.256 210.652 316.423 210.195 316.757 209.756C317.097 209.311 317.554 208.959 318.128 208.701C318.708 208.443 319.344 208.314 320.035 208.314C321.131 208.314 321.989 208.59 322.61 209.141C323.231 209.686 323.554 210.438 323.577 211.399V215.776C323.577 216.649 323.688 217.344 323.911 217.859V218H322.206ZM319.508 216.761C320.018 216.761 320.501 216.629 320.958 216.365C321.415 216.102 321.746 215.759 321.951 215.337V213.386H320.677C318.685 213.386 317.688 213.969 317.688 215.135C317.688 215.645 317.858 216.043 318.198 216.33C318.538 216.617 318.975 216.761 319.508 216.761Z" fill="black"/>
<path d="M326.097 205.006H326.775C327.202 204.999 327.537 204.887 327.781 204.669C328.025 204.451 328.147 204.156 328.147 203.785C328.147 202.952 327.732 202.535 326.902 202.535C326.512 202.535 326.199 202.647 325.965 202.872C325.734 203.093 325.618 203.388 325.618 203.756H324.715C324.715 203.193 324.92 202.726 325.33 202.354C325.743 201.98 326.268 201.793 326.902 201.793C327.573 201.793 328.099 201.97 328.479 202.325C328.86 202.68 329.051 203.173 329.051 203.805C329.051 204.114 328.95 204.413 328.748 204.703C328.549 204.993 328.278 205.209 327.933 205.353C328.323 205.476 328.624 205.681 328.836 205.968C329.051 206.254 329.158 206.604 329.158 207.018C329.158 207.656 328.95 208.162 328.533 208.536C328.117 208.91 327.575 209.098 326.907 209.098C326.24 209.098 325.696 208.917 325.276 208.556C324.86 208.194 324.651 207.717 324.651 207.125H325.56C325.56 207.499 325.682 207.799 325.926 208.023C326.17 208.248 326.497 208.36 326.907 208.36C327.343 208.36 327.677 208.246 327.908 208.019C328.139 207.791 328.255 207.464 328.255 207.037C328.255 206.624 328.128 206.306 327.874 206.085C327.62 205.864 327.254 205.75 326.775 205.743H326.097V205.006Z" fill="black"/>
<path d="M326.944 224H326.036V217.979L324.215 218.648V217.828L326.803 216.856H326.944V224ZM334.249 224H329.591V223.351L332.052 220.616C332.416 220.203 332.667 219.868 332.804 219.61C332.944 219.35 333.014 219.081 333.014 218.805C333.014 218.434 332.901 218.129 332.677 217.892C332.452 217.654 332.153 217.535 331.778 217.535C331.329 217.535 330.979 217.664 330.729 217.921C330.481 218.175 330.357 218.53 330.357 218.985H329.454C329.454 218.331 329.664 217.802 330.084 217.398C330.507 216.995 331.072 216.793 331.778 216.793C332.439 216.793 332.962 216.967 333.346 217.315C333.73 217.66 333.922 218.121 333.922 218.697C333.922 219.397 333.476 220.23 332.584 221.197L330.68 223.263H334.249V224Z" fill="black"/>
<path d="M321.206 192C321.112 191.812 321.036 191.479 320.978 190.998C320.222 191.783 319.319 192.176 318.271 192.176C317.333 192.176 316.562 191.912 315.959 191.385C315.361 190.852 315.062 190.178 315.062 189.363C315.062 188.373 315.438 187.605 316.188 187.061C316.943 186.51 318.004 186.234 319.369 186.234H320.951V185.487C320.951 184.919 320.781 184.468 320.441 184.134C320.102 183.794 319.601 183.624 318.938 183.624C318.358 183.624 317.872 183.771 317.479 184.063C317.087 184.356 316.891 184.711 316.891 185.127H315.256C315.256 184.652 315.423 184.195 315.757 183.756C316.097 183.311 316.554 182.959 317.128 182.701C317.708 182.443 318.344 182.314 319.035 182.314C320.131 182.314 320.989 182.59 321.61 183.141C322.231 183.686 322.554 184.438 322.577 185.399V189.776C322.577 190.649 322.688 191.344 322.911 191.859V192H321.206ZM318.508 190.761C319.018 190.761 319.501 190.629 319.958 190.365C320.415 190.102 320.746 189.759 320.951 189.337V187.386H319.677C317.685 187.386 316.688 187.969 316.688 189.135C316.688 189.645 316.858 190.043 317.198 190.33C317.538 190.617 317.975 190.761 318.508 190.761Z" fill="black"/>
<path d="M328.441 185H323.783V184.351L326.244 181.616C326.609 181.203 326.859 180.868 326.996 180.61C327.136 180.35 327.206 180.081 327.206 179.805C327.206 179.434 327.094 179.129 326.869 178.892C326.645 178.654 326.345 178.535 325.971 178.535C325.521 178.535 325.172 178.664 324.921 178.921C324.674 179.175 324.55 179.53 324.55 179.985H323.646C323.646 179.331 323.856 178.802 324.276 178.398C324.7 177.995 325.264 177.793 325.971 177.793C326.632 177.793 327.154 177.967 327.538 178.315C327.922 178.66 328.114 179.121 328.114 179.697C328.114 180.397 327.668 181.23 326.776 182.197L324.872 184.263H328.441V185Z" fill="black"/>
<path d="M326.944 196H326.036V189.979L324.215 190.648V189.828L326.803 188.856H326.944V196ZM334.249 196H329.591V195.351L332.052 192.616C332.416 192.203 332.667 191.868 332.804 191.61C332.944 191.35 333.014 191.081 333.014 190.805C333.014 190.434 332.901 190.129 332.677 189.892C332.452 189.654 332.153 189.535 331.778 189.535C331.329 189.535 330.979 189.664 330.729 189.921C330.481 190.175 330.357 190.53 330.357 190.985H329.454C329.454 190.331 329.664 189.802 330.084 189.398C330.507 188.995 331.072 188.793 331.778 188.793C332.439 188.793 332.962 188.967 333.346 189.315C333.73 189.66 333.922 190.121 333.922 190.697C333.922 191.397 333.476 192.23 332.584 193.197L330.68 195.263H334.249V196Z" fill="black"/>
</svg>

