<svg width="453" height="496" viewBox="0 0 453 496" version="1.1" xmlns="http://www.w3.org/2000/svg" xmlns:xlink="http://www.w3.org/1999/xlink">
<title>Group 20</title>
<desc>Created using Figma</desc>
<g id="Canvas" transform="translate(-333 -2257)">
<g id="Group 20">
<g id="Rectangle 7.2">
<use xlink:href="#path0_fill" transform="translate(334 2405)" fill="#D6D6D6"/>
</g>
<g id="Rectangle 7.3">
<use xlink:href="#path1_fill" transform="translate(459 2314)" fill="#2D9CDB"/>
</g>
<g id="Ellipse 2.11">
<use xlink:href="#path2_fill" transform="translate(604 2467)" fill="#F2994A"/>
<mask id="mask0_outline_ins">
<use xlink:href="#path2_fill" fill="white" transform="translate(604 2467)"/>
</mask>
<g mask="url(#mask0_outline_ins)">
<use xlink:href="#path3_stroke_2x" transform="translate(604 2467)"/>
</g>
</g>
<g id="Ellipse 2.12">
<use xlink:href="#path4_fill" transform="translate(351 2417)" fill="#FFFFFF"/>
<mask id="mask1_outline_ins">
<use xlink:href="#path4_fill" fill="white" transform="translate(351 2417)"/>
</mask>
<g mask="url(#mask1_outline_ins)">
<use xlink:href="#path5_stroke_2x" transform="translate(351 2417)"/>
</g>
</g>
<g id="Ellipse 2.13">
<use xlink:href="#path4_fill" transform="translate(476 2389)" fill="#FFFFFF"/>
<mask id="mask2_outline_ins">
<use xlink:href="#path4_fill" fill="white" transform="translate(476 2389)"/>
</mask>
<g mask="url(#mask2_outline_ins)">
<use xlink:href="#path5_stroke_2x" transform="translate(476 2389)"/>
</g>
</g>
<g id="Ellipse 2.14">
<use xlink:href="#path4_fill" transform="translate(476 2326)" fill="#FFFFFF"/>
<mask id="mask3_outline_ins">
<use xlink:href="#path4_fill" fill="white" transform="translate(476 2326)"/>
</mask>
<g mask="url(#mask3_outline_ins)">
<use xlink:href="#path5_stroke_2x" transform="translate(476 2326)"/>
</g>
</g>
<g id="Ellipse 2.15">
<use xlink:href="#path4_fill" transform="translate(351 2482)" fill="#FFFFFF"/>
<mask id="mask4_outline_ins">
<use xlink:href="#path4_fill" fill="white" transform="translate(351 2482)"/>
</mask>
<g mask="url(#mask4_outline_ins)">
<use xlink:href="#path5_stroke_2x" transform="translate(351 2482)"/>
</g>
</g>
<g id="Ellipse 2.17">
<use xlink:href="#path4_fill" transform="translate(353 2542)" fill="#FFFFFF"/>
<mask id="mask5_outline_ins">
<use xlink:href="#path4_fill" fill="white" transform="translate(353 2542)"/>
</mask>
<g mask="url(#mask5_outline_ins)">
<use xlink:href="#path5_stroke_2x" transform="translate(353 2542)"/>
</g>
</g>
<g id="Line 14.8">
<use xlink:href="#path6_stroke" transform="matrix(-1 1.23774e-16 -1.21169e-16 -1 631 2488)"/>
</g>
<g id="Line 14.9">
<use xlink:href="#path7_stroke" transform="matrix(-1 1.23774e-16 -1.21169e-16 -1 631 2507)"/>
</g>
<g id="Line 14.10">
<use xlink:href="#path8_stroke" transform="matrix(-0.664664 -0.747142 0.747142 -0.664664 625 2499)"/>
</g>
<g id="Line 14.11">
<use xlink:href="#path9_stroke" transform="matrix(0.780869 -0.624695 0.624695 0.780869 614 2508)"/>
</g>
<g id="Line 15.4">
<use xlink:href="#path10_stroke" transform="matrix(6.12323e-17 1 -1 6.12323e-17 630 2489)"/>
</g>
<g id="Line 15.5">
<use xlink:href="#path10_stroke" transform="matrix(6.12323e-17 1 -1 6.12323e-17 630 2506)"/>
</g>
<g id="Line 14.32">
<use xlink:href="#path11_stroke" transform="matrix(-1 1.2625e-16 -1.18793e-16 -1 490 2399)"/>
</g>
<g id="Line 14.33">
<use xlink:href="#path12_stroke" transform="matrix(-1 1.2625e-16 -1.18793e-16 -1 490 2409.4)"/>
</g>
<g id="Line 14.34">
<use xlink:href="#path13_stroke" transform="matrix(-0.657294 -0.753634 0.740562 -0.671987 486.471 2405.6)"/>
</g>
<g id="Line 14.35">
<use xlink:href="#path14_stroke" transform="matrix(0.774785 -0.632225 0.61714 0.786853 480 2411)"/>
</g>
<g id="Line 15.16">
<use xlink:href="#path15_stroke" transform="matrix(6.00317e-17 1 -1 6.2457e-17 489 2400)"/>
</g>
<g id="Line 15.17">
<use xlink:href="#path15_stroke" transform="matrix(6.00317e-17 1 -1 6.2457e-17 489 2409)"/>
</g>
<g id="Line 14.28">
<use xlink:href="#path11_stroke" transform="matrix(-1 1.2625e-16 -1.18793e-16 -1 490 2336)"/>
</g>
<g id="Line 14.29">
<use xlink:href="#path12_stroke" transform="matrix(-1 1.2625e-16 -1.18793e-16 -1 490 2346.4)"/>
</g>
<g id="Line 14.30">
<use xlink:href="#path13_stroke" transform="matrix(-0.657294 -0.753634 0.740562 -0.671987 486.471 2342.6)"/>
</g>
<g id="Line 14.31">
<use xlink:href="#path14_stroke" transform="matrix(0.774785 -0.632225 0.61714 0.786853 480 2348)"/>
</g>
<g id="Line 15.14">
<use xlink:href="#path15_stroke" transform="matrix(6.00317e-17 1 -1 6.2457e-17 489 2337)"/>
</g>
<g id="Line 15.15">
<use xlink:href="#path15_stroke" transform="matrix(6.00317e-17 1 -1 6.2457e-17 489 2346)"/>
</g>
<g id="Arrow 4.6">
<use xlink:href="#path16_stroke" transform="matrix(0.625421 0.780287 -0.780287 0.625421 509 2342)"/>
</g>
<g id="Arrow 5.5">
<use xlink:href="#path17_stroke" transform="matrix(0.810468 0.585783 -0.585783 0.810468 508 2407)"/>
</g>
<g id="Arrow 6.5">
<use xlink:href="#path18_stroke" transform="matrix(0.973688 0.227884 -0.227884 0.973688 510 2469)"/>
</g>
<g id="Arrow 6.6">
<use xlink:href="#path19_stroke" transform="matrix(0.969473 -0.245196 0.245196 0.969473 509 2528.03)"/>
</g>
<g id="Arrow 6.7">
<use xlink:href="#path20_stroke" transform="matrix(0.815279 -0.579069 0.579069 0.815279 509 2585.03)"/>
</g>
<g id="Arrow 6.8">
<use xlink:href="#path21_stroke" transform="matrix(0.679447 -0.733725 0.733725 0.679447 509 2650.03)"/>
</g>
<g id="Line 16.1">
<use xlink:href="#path22_stroke" transform="matrix(6.12323e-17 1 -1 6.12323e-17 635 2467)"/>
</g>
<g id="Arrow 3.3">
<use xlink:href="#path23_stroke" transform="matrix(1 -2.44929e-16 2.44929e-16 1 667 2500)"/>
</g>
<g id="output">
<use xlink:href="#path24_fill" transform="translate(733 2489)"/>
</g>
<g id="Layer of Input Neurons">
<use xlink:href="#path25_fill" transform="translate(332 2255)"/>
</g>
<g id="Hidden Layer">
<use xlink:href="#path26_fill" transform="translate(468 2256)"/>
</g>
<g id="Arrow 7">
<use xlink:href="#path27_stroke" transform="matrix(0.723171 -0.690669 0.690669 0.723171 386 2434)"/>
</g>
<g id="Arrow 8">
<use xlink:href="#path28_stroke" transform="matrix(0.956934 -0.290306 0.290306 0.956934 384 2434)"/>
</g>
<g id="Arrow 9">
<use xlink:href="#path29_stroke" transform="matrix(0.934997 0.354654 -0.354654 0.934997 386 2434)"/>
</g>
<g id="Arrow 10">
<use xlink:href="#path30_stroke" transform="matrix(0.71109 0.703101 -0.703101 0.71109 386 2434)"/>
</g>
<g id="Arrow 11">
<use xlink:href="#path31_stroke" transform="matrix(0.528954 0.848651 -0.848651 0.528954 384 2434)"/>
</g>
<g id="Arrow 12">
<use xlink:href="#path32_stroke" transform="matrix(0.404506 0.914535 -0.914535 0.404506 384 2437)"/>
</g>
<g id="Arrow 13">
<use xlink:href="#path33_stroke" transform="matrix(0.609711 -0.792624 0.792624 0.609711 377 2485)"/>
</g>
<g id="Arrow 14">
<use xlink:href="#path34_stroke" transform="matrix(0.793878 -0.608077 0.608077 0.793878 379 2487)"/>
</g>
<g id="Arrow 15">
<use xlink:href="#path35_stroke" transform="matrix(0.980993 -0.194043 0.194043 0.980993 382 2491)"/>
</g>
<g id="Arrow 16">
<use xlink:href="#path36_stroke" transform="matrix(0.95073 0.310021 -0.310021 0.95073 384 2498)"/>
</g>
<g id="Arrow 17">
<use xlink:href="#path37_stroke" transform="matrix(0.738486 0.674269 -0.674269 0.738486 384 2501)"/>
</g>
<g id="Arrow 18">
<use xlink:href="#path38_stroke" transform="matrix(0.520306 0.85398 -0.85398 0.520306 384 2501)"/>
</g>
<g id="Arrow 19">
<use xlink:href="#path39_stroke" transform="matrix(0.460456 -0.887683 0.887683 0.460456 384 2551)"/>
</g>
<g id="Arrow 20">
<use xlink:href="#path40_stroke" transform="matrix(0.583636 -0.812015 0.812015 0.583636 384 2551)"/>
</g>
<g id="Arrow 21">
<use xlink:href="#path41_stroke" transform="matrix(0.779118 -0.626877 0.626877 0.779118 386 2551)"/>
</g>
<g id="Arrow 22">
<use xlink:href="#path42_stroke" transform="matrix(0.962739 -0.270432 0.270432 0.962739 386 2559)"/>
</g>
<g id="Arrow 23">
<use xlink:href="#path43_stroke" transform="matrix(0.945373 0.325991 -0.325991 0.945373 386 2559)"/>
</g>
<g id="Arrow 24">
<use xlink:href="#path44_stroke" transform="matrix(0.68816 0.725559 -0.725559 0.68816 386 2562)"/>
</g>
<g id="18 weights">
<use xlink:href="#path45_fill" transform="translate(396 2711)"/>
</g>
<g id="6 weights">
<use xlink:href="#path46_fill" transform="translate(554 2711)"/>
</g>
<g id="()">
<use xlink:href="#path47_fill" transform="translate(649 2487)"/>
</g>
<g id="Line 17">
<use xlink:href="#path48_stroke" transform="matrix(6.12323e-17 1 -1 6.12323e-17 492 2326)"/>
</g>
<g id="Line 17.1">
<use xlink:href="#path48_stroke" transform="matrix(6.12323e-17 1 -1 6.12323e-17 492 2389)"/>
</g>
<g id="Ellipse 2.53">
<use xlink:href="#path4_fill" transform="translate(476 2635)" fill="#FFFFFF"/>
<mask id="mask6_outline_ins">
<use xlink:href="#path4_fill" fill="white" transform="translate(476 2635)"/>
</mask>
<g mask="url(#mask6_outline_ins)">
<use xlink:href="#path5_stroke_2x" transform="translate(476 2635)"/>
</g>
</g>
<g id="Line 17.6">
<use xlink:href="#path48_stroke" transform="matrix(6.12323e-17 1 -1 6.12323e-17 493 2635)"/>
</g>
<g id="Line 14.48">
<use xlink:href="#path11_stroke" transform="matrix(-1 1.2625e-16 -1.18793e-16 -1 490 2645)"/>
</g>
<g id="Line 14.49">
<use xlink:href="#path12_stroke" transform="matrix(-1 1.2625e-16 -1.18793e-16 -1 490 2655.4)"/>
</g>
<g id="Line 14.50">
<use xlink:href="#path13_stroke" transform="matrix(-0.657294 -0.753634 0.740562 -0.671987 486.471 2651.6)"/>
</g>
<g id="Line 14.51">
<use xlink:href="#path14_stroke" transform="matrix(0.774785 -0.632225 0.61714 0.786853 480 2657)"/>
</g>
<g id="Line 15.24">
<use xlink:href="#path15_stroke" transform="matrix(6.00317e-17 1 -1 6.2457e-17 489 2646)"/>
</g>
<g id="Line 15.25">
<use xlink:href="#path15_stroke" transform="matrix(6.00317e-17 1 -1 6.2457e-17 489 2655)"/>
</g>
<g id="Ellipse 2.51">
<use xlink:href="#path4_fill" transform="translate(476 2568)" fill="#FFFFFF"/>
<mask id="mask7_outline_ins">
<use xlink:href="#path4_fill" fill="white" transform="translate(476 2568)"/>
</mask>
<g mask="url(#mask7_outline_ins)">
<use xlink:href="#path5_stroke_2x" transform="translate(476 2568)"/>
</g>
</g>
<g id="Line 17.4">
<use xlink:href="#path48_stroke" transform="matrix(6.12323e-17 1 -1 6.12323e-17 493 2568)"/>
</g>
<g id="Line 14.40">
<use xlink:href="#path11_stroke" transform="matrix(-1 1.2625e-16 -1.18793e-16 -1 490 2578)"/>
</g>
<g id="Line 14.41">
<use xlink:href="#path12_stroke" transform="matrix(-1 1.2625e-16 -1.18793e-16 -1 490 2588.4)"/>
</g>
<g id="Line 14.42">
<use xlink:href="#path13_stroke" transform="matrix(-0.657294 -0.753634 0.740562 -0.671987 486.471 2584.6)"/>
</g>
<g id="Line 14.43">
<use xlink:href="#path14_stroke" transform="matrix(0.774785 -0.632225 0.61714 0.786853 480 2590)"/>
</g>
<g id="Line 15.20">
<use xlink:href="#path15_stroke" transform="matrix(6.00317e-17 1 -1 6.2457e-17 489 2579)"/>
</g>
<g id="Line 15.21">
<use xlink:href="#path15_stroke" transform="matrix(6.00317e-17 1 -1 6.2457e-17 489 2588)"/>
</g>
<g id="Ellipse 2.52">
<use xlink:href="#path4_fill" transform="translate(476 2511)" fill="#FFFFFF"/>
<mask id="mask8_outline_ins">
<use xlink:href="#path4_fill" fill="white" transform="translate(476 2511)"/>
</mask>
<g mask="url(#mask8_outline_ins)">
<use xlink:href="#path5_stroke_2x" transform="translate(476 2511)"/>
</g>
</g>
<g id="Line 17.5">
<use xlink:href="#path48_stroke" transform="matrix(6.12323e-17 1 -1 6.12323e-17 493 2511)"/>
</g>
<g id="Line 14.44">
<use xlink:href="#path11_stroke" transform="matrix(-1 1.2625e-16 -1.18793e-16 -1 490 2521)"/>
</g>
<g id="Line 14.45">
<use xlink:href="#path12_stroke" transform="matrix(-1 1.2625e-16 -1.18793e-16 -1 490 2531.4)"/>
</g>
<g id="Line 14.46">
<use xlink:href="#path13_stroke" transform="matrix(-0.657294 -0.753634 0.740562 -0.671987 486.471 2527.6)"/>
</g>
<g id="Line 14.47">
<use xlink:href="#path14_stroke" transform="matrix(0.774785 -0.632225 0.61714 0.786853 480 2533)"/>
</g>
<g id="Line 15.22">
<use xlink:href="#path15_stroke" transform="matrix(6.00317e-17 1 -1 6.2457e-17 489 2522)"/>
</g>
<g id="Line 15.23">
<use xlink:href="#path15_stroke" transform="matrix(6.00317e-17 1 -1 6.2457e-17 489 2531)"/>
</g>
<g id="Ellipse 2.50">
<use xlink:href="#path4_fill" transform="translate(476 2455)" fill="#FFFFFF"/>
<mask id="mask9_outline_ins">
<use xlink:href="#path4_fill" fill="white" transform="translate(476 2455)"/>
</mask>
<g mask="url(#mask9_outline_ins)">
<use xlink:href="#path5_stroke_2x" transform="translate(476 2455)"/>
</g>
</g>
<g id="Line 17.3">
<use xlink:href="#path48_stroke" transform="matrix(6.12323e-17 1 -1 6.12323e-17 493 2455)"/>
</g>
<g id="Line 14.36">
<use xlink:href="#path11_stroke" transform="matrix(-1 1.2625e-16 -1.18793e-16 -1 490 2465)"/>
</g>
<g id="Line 14.37">
<use xlink:href="#path12_stroke" transform="matrix(-1 1.2625e-16 -1.18793e-16 -1 490 2475.4)"/>
</g>
<g id="Line 14.38">
<use xlink:href="#path13_stroke" transform="matrix(-0.657294 -0.753634 0.740562 -0.671987 486.471 2471.6)"/>
</g>
<g id="Line 14.39">
<use xlink:href="#path14_stroke" transform="matrix(0.774785 -0.632225 0.61714 0.786853 480 2477)"/>
</g>
<g id="Line 15.18">
<use xlink:href="#path15_stroke" transform="matrix(6.00317e-17 1 -1 6.2457e-17 489 2466)"/>
</g>
<g id="Line 15.19">
<use xlink:href="#path15_stroke" transform="matrix(6.00317e-17 1 -1 6.2457e-17 489 2475)"/>
</g>
<g id="&#207;&#131;">
<use xlink:href="#path49_fill" transform="translate(638 2488)"/>
</g>
<g id="&#207;&#131;">
<use xlink:href="#path49_fill" transform="translate(494 2331)"/>
</g>
<g id="&#207;&#131;">
<use xlink:href="#path50_fill" transform="translate(494 2394)"/>
</g>
<g id="&#207;&#131;">
<use xlink:href="#path50_fill" transform="translate(494 2460)"/>
</g>
<g id="&#207;&#131;">
<use xlink:href="#path50_fill" transform="translate(494 2517)"/>
</g>
<g id="&#207;&#131;">
<use xlink:href="#path50_fill" transform="translate(494 2573)"/>
</g>
<g id="&#207;&#131;">
<use xlink:href="#path50_fill" transform="translate(494 2640)"/>
</g>
</g>
</g>
<defs>
<path id="path0_fill" d="M 0 0L 68 0L 68 189L 0 189L 0 0Z"/>
<path id="path1_fill" d="M 0 0L 68 0L 68 373L 0 373L 0 0Z"/>
<path id="path2_fill" d="M 63 31.5C 63 48.897 48.897 63 31.5 63C 14.103 63 0 48.897 0 31.5C 0 14.103 14.103 0 31.5 0C 48.897 0 63 14.103 63 31.5Z"/>
<path id="path3_stroke_2x" d="M 62 31.5C 62 48.3447 48.3447 62 31.5 62L 31.5 64C 49.4493 64 64 49.4493 64 31.5L 62 31.5ZM 31.5 62C 14.6553 62 1 48.3447 1 31.5L -1 31.5C -1 49.4493 13.5507 64 31.5 64L 31.5 62ZM 1 31.5C 1 14.6553 14.6553 1 31.5 1L 31.5 -1C 13.5507 -1 -1 13.5507 -1 31.5L 1 31.5ZM 31.5 1C 48.3447 1 62 14.6553 62 31.5L 64 31.5C 64 13.5507 49.4493 -1 31.5 -1L 31.5 1Z"/>
<path id="path4_fill" d="M 33 16.5C 33 25.6127 25.6127 33 16.5 33C 7.3873 33 0 25.6127 0 16.5C 0 7.3873 7.3873 0 16.5 0C 25.6127 0 33 7.3873 33 16.5Z"/>
<path id="path5_stroke_2x" d="M 32 16.5C 32 25.0604 25.0604 32 16.5 32L 16.5 34C 26.165 34 34 26.165 34 16.5L 32 16.5ZM 16.5 32C 7.93959 32 1 25.0604 1 16.5L -1 16.5C -1 26.165 6.83502 34 16.5 34L 16.5 32ZM 1 16.5C 1 7.93959 7.93959 1 16.5 1L 16.5 -1C 6.83502 -1 -1 6.83502 -1 16.5L 1 16.5ZM 16.5 1C 25.0604 1 32 7.93959 32 16.5L 34 16.5C 34 6.83502 26.165 -1 16.5 -1L 16.5 1Z"/>
<path id="path6_stroke" d="M 0 0L 17 0L 17 -1L 0 -1L 0 0Z"/>
<path id="path7_stroke" d="M 0 0L 17 0L 17 -1.4L 0 -1.4L 0 0Z"/>
<path id="path8_stroke" d="M 0 0L 14.7228 0L 14.7228 -1.5L 0 -1.5L 0 0Z"/>
<path id="path9_stroke" d="M 0 0L 12.8062 0L 12.8062 -1L 0 -1L 0 0Z"/>
<path id="path10_stroke" d="M 0 0L 2 0L 2 -1L 0 -1L 0 0Z"/>
<path id="path11_stroke" d="M 0 0L 10 0L 10 -1L 0 -1L 0 0Z"/>
<path id="path12_stroke" d="M 0 0L 10 0L 10 -1.4L 0 -1.4L 0 0Z"/>
<path id="path13_stroke" d="M 0 0L 8.75757 0L 8.75757 -1.5L 0 -1.5L 0 0Z"/>
<path id="path14_stroke" d="M 0 -5.55112e-17L 7.59224 -5.55112e-17L 7.59224 -1L 0 -1L 0 -5.55112e-17Z"/>
<path id="path15_stroke" d="M 0 0L 1.2 0L 1.2 -1L 0 -1L 0 0Z"/>
<path id="path16_stroke" d="M 168.24 0.353553C 168.436 0.158291 168.436 -0.158291 168.24 -0.353553L 165.058 -3.53553C 164.863 -3.7308 164.547 -3.7308 164.351 -3.53553C 164.156 -3.34027 164.156 -3.02369 164.351 -2.82843L 167.18 0L 164.351 2.82843C 164.156 3.02369 164.156 3.34027 164.351 3.53553C 164.547 3.7308 164.863 3.7308 165.058 3.53553L 168.24 0.353553ZM 0 0.5L 167.887 0.5L 167.887 -0.5L 0 -0.5L 0 0.5Z"/>
<path id="path17_stroke" d="M 124.973 0.353553C 125.168 0.158291 125.168 -0.158291 124.973 -0.353553L 121.791 -3.53553C 121.596 -3.7308 121.279 -3.7308 121.084 -3.53553C 120.889 -3.34027 120.889 -3.02369 121.084 -2.82843L 123.912 0L 121.084 2.82843C 120.889 3.02369 120.889 3.34027 121.084 3.53553C 121.279 3.7308 121.596 3.7308 121.791 3.53553L 124.973 0.353553ZM 0 0.5L 124.619 0.5L 124.619 -0.5L 0 -0.5L 0 0.5Z"/>
<path id="path18_stroke" d="M 96.8937 0.353553C 97.089 0.158291 97.089 -0.158291 96.8937 -0.353553L 93.7117 -3.53553C 93.5165 -3.7308 93.1999 -3.7308 93.0046 -3.53553C 92.8093 -3.34027 92.8093 -3.02369 93.0046 -2.82843L 95.833 0L 93.0046 2.82843C 92.8093 3.02369 92.8093 3.34027 93.0046 3.53553C 93.1999 3.7308 93.5165 3.7308 93.7117 3.53553L 96.8937 0.353553ZM 0 0.5L 96.5401 0.5L 96.5401 -0.5L 0 -0.5L 0 0.5Z"/>
<path id="path19_stroke" d="M 98.3449 0.353553C 98.5401 0.158291 98.5401 -0.158291 98.3449 -0.353553L 95.1629 -3.53553C 94.9676 -3.7308 94.6511 -3.7308 94.4558 -3.53553C 94.2605 -3.34027 94.2605 -3.02369 94.4558 -2.82843L 97.2842 0L 94.4558 2.82843C 94.2605 3.02369 94.2605 3.34027 94.4558 3.53553C 94.6511 3.7308 94.9676 3.7308 95.1629 3.53553L 98.3449 0.353553ZM 0 0.5L 97.9913 0.5L 97.9913 -0.5L 0 -0.5L 0 0.5Z"/>
<path id="path20_stroke" d="M 123.011 0.353553C 123.206 0.158291 123.206 -0.158291 123.011 -0.353553L 119.829 -3.53553C 119.634 -3.7308 119.317 -3.7308 119.122 -3.53553C 118.927 -3.34027 118.927 -3.02369 119.122 -2.82843L 121.95 0L 119.122 2.82843C 118.927 3.02369 118.927 3.34027 119.122 3.53553C 119.317 3.7308 119.634 3.7308 119.829 3.53553L 123.011 0.353553ZM 0 0.5L 122.657 0.5L 122.657 -0.5L 0 -0.5L 0 0.5Z"/>
<path id="path21_stroke" d="M 166.665 0.353553C 166.861 0.158291 166.861 -0.158291 166.665 -0.353553L 163.483 -3.53553C 163.288 -3.7308 162.972 -3.7308 162.776 -3.53553C 162.581 -3.34027 162.581 -3.02369 162.776 -2.82843L 165.605 0L 162.776 2.82843C 162.581 3.02369 162.581 3.34027 162.776 3.53553C 162.972 3.7308 163.288 3.7308 163.483 3.53553L 166.665 0.353553ZM 0 0.5L 166.312 0.5L 166.312 -0.5L 0 -0.5L 0 0.5Z"/>
<path id="path22_stroke" d="M 0 0L 62 0L 62 -1L 0 -1L 0 0Z"/>
<path id="path23_stroke" d="M 54.3536 0.353553C 54.5488 0.158291 54.5488 -0.158291 54.3536 -0.353553L 51.1716 -3.53553C 50.9763 -3.7308 50.6597 -3.7308 50.4645 -3.53553C 50.2692 -3.34027 50.2692 -3.02369 50.4645 -2.82843L 53.2929 0L 50.4645 2.82843C 50.2692 3.02369 50.2692 3.34027 50.4645 3.53553C 50.6597 3.7308 50.9763 3.7308 51.1716 3.53553L 54.3536 0.353553ZM 0 0.5L 54 0.5L 54 -0.5L 0 -0.5L 0 0.5Z"/>
<path id="path24_fill" d="M 0.580078 12.1572C 0.580078 11.2139 0.761719 10.373 1.125 9.63477C 1.48828 8.89648 2.00977 8.3252 2.68945 7.9209C 3.375 7.5166 4.16895 7.31445 5.07129 7.31445C 6.35449 7.31445 7.40039 7.70703 8.20898 8.49219C 9.02344 9.27734 9.47754 10.3438 9.57129 11.6914L 9.58887 12.3418C 9.58887 13.8008 9.18164 14.9727 8.36719 15.8574C 7.55273 16.7363 6.45996 17.1758 5.08887 17.1758C 3.71777 17.1758 2.62207 16.7363 1.80176 15.8574C 0.987305 14.9785 0.580078 13.7832 0.580078 12.2715L 0.580078 12.1572ZM 3.12012 12.3418C 3.12012 13.2441 3.29004 13.9355 3.62988 14.416C 3.96973 14.8906 4.45605 15.1279 5.08887 15.1279C 5.7041 15.1279 6.18457 14.8936 6.53027 14.4248C 6.87598 13.9502 7.04883 13.1943 7.04883 12.1572C 7.04883 11.2725 6.87598 10.5869 6.53027 10.1006C 6.18457 9.61426 5.69824 9.37109 5.07129 9.37109C 4.4502 9.37109 3.96973 9.61426 3.62988 10.1006C 3.29004 10.5811 3.12012 11.3281 3.12012 12.3418ZM 16.8486 16.0332C 16.2217 16.7949 15.3545 17.1758 14.2471 17.1758C 13.2275 17.1758 12.4482 16.8828 11.9092 16.2969C 11.376 15.7109 11.1035 14.8525 11.0918 13.7217L 11.0918 7.49023L 13.6318 7.49023L 13.6318 13.6338C 13.6318 14.624 14.083 15.1191 14.9854 15.1191C 15.8467 15.1191 16.4385 14.8203 16.7607 14.2227L 16.7607 7.49023L 19.3096 7.49023L 19.3096 17L 16.9189 17L 16.8486 16.0332ZM 24.2666 5.15234L 24.2666 7.49023L 25.8926 7.49023L 25.8926 9.35352L 24.2666 9.35352L 24.2666 14.0996C 24.2666 14.4512 24.334 14.7031 24.4688 14.8555C 24.6035 15.0078 24.8613 15.084 25.2422 15.084C 25.5234 15.084 25.7725 15.0635 25.9893 15.0225L 25.9893 16.9473C 25.4912 17.0996 24.9785 17.1758 24.4512 17.1758C 22.6699 17.1758 21.7617 16.2764 21.7266 14.4775L 21.7266 9.35352L 20.3379 9.35352L 20.3379 7.49023L 21.7266 7.49023L 21.7266 5.15234L 24.2666 5.15234ZM 35.8682 12.333C 35.8682 13.7979 35.5342 14.9727 34.8662 15.8574C 34.2041 16.7363 33.3076 17.1758 32.1768 17.1758C 31.2158 17.1758 30.4395 16.8418 29.8477 16.1738L 29.8477 20.6562L 27.3076 20.6562L 27.3076 7.49023L 29.6631 7.49023L 29.751 8.42188C 30.3662 7.68359 31.1689 7.31445 32.1592 7.31445C 33.3311 7.31445 34.2422 7.74805 34.8926 8.61523C 35.543 9.48242 35.8682 10.6777 35.8682 12.2012L 35.8682 12.333ZM 33.3281 12.1484C 33.3281 11.2637 33.1699 10.5811 32.8535 10.1006C 32.543 9.62012 32.0889 9.37988 31.4912 9.37988C 30.6943 9.37988 30.1465 9.68457 29.8477 10.2939L 29.8477 14.1875C 30.1582 14.8145 30.7119 15.1279 31.5088 15.1279C 32.7217 15.1279 33.3281 14.1348 33.3281 12.1484ZM 43.1455 16.0332C 42.5186 16.7949 41.6514 17.1758 40.5439 17.1758C 39.5244 17.1758 38.7451 16.8828 38.2061 16.2969C 37.6729 15.7109 37.4004 14.8525 37.3887 13.7217L 37.3887 7.49023L 39.9287 7.49023L 39.9287 13.6338C 39.9287 14.624 40.3799 15.1191 41.2822 15.1191C 42.1436 15.1191 42.7354 14.8203 43.0576 14.2227L 43.0576 7.49023L 45.6064 7.49023L 45.6064 17L 43.2158 17L 43.1455 16.0332ZM 50.5635 5.15234L 50.5635 7.49023L 52.1895 7.49023L 52.1895 9.35352L 50.5635 9.35352L 50.5635 14.0996C 50.5635 14.4512 50.6309 14.7031 50.7656 14.8555C 50.9004 15.0078 51.1582 15.084 51.5391 15.084C 51.8203 15.084 52.0693 15.0635 52.2861 15.0225L 52.2861 16.9473C 51.7881 17.0996 51.2754 17.1758 50.748 17.1758C 48.9668 17.1758 48.0586 16.2764 48.0234 14.4775L 48.0234 9.35352L 46.6348 9.35352L 46.6348 7.49023L 48.0234 7.49023L 48.0234 5.15234L 50.5635 5.15234Z"/>
<path id="path25_fill" d="M 3.71094 13.1172L 8.6875 13.1172L 8.6875 15L 1.36719 15L 1.36719 3.625L 3.71094 3.625L 3.71094 13.1172ZM 14.7891 15C 14.6849 14.7969 14.6094 14.5443 14.5625 14.2422C 14.0156 14.8516 13.3047 15.1562 12.4297 15.1562C 11.6016 15.1562 10.9141 14.9167 10.3672 14.4375C 9.82552 13.9583 9.55469 13.3542 9.55469 12.625C 9.55469 11.7292 9.88542 11.0417 10.5469 10.5625C 11.2135 10.0833 12.1745 9.84115 13.4297 9.83594L 14.4688 9.83594L 14.4688 9.35156C 14.4688 8.96094 14.3672 8.64844 14.1641 8.41406C 13.9661 8.17969 13.651 8.0625 13.2188 8.0625C 12.8385 8.0625 12.5391 8.15365 12.3203 8.33594C 12.1068 8.51823 12 8.76823 12 9.08594L 9.74219 9.08594C 9.74219 8.59635 9.89323 8.14323 10.1953 7.72656C 10.4974 7.3099 10.9245 6.98438 11.4766 6.75C 12.0286 6.51042 12.6484 6.39062 13.3359 6.39062C 14.3776 6.39062 15.2031 6.65365 15.8125 7.17969C 16.4271 7.70052 16.7344 8.4349 16.7344 9.38281L 16.7344 13.0469C 16.7396 13.849 16.8516 14.4557 17.0703 14.8672L 17.0703 15L 14.7891 15ZM 12.9219 13.4297C 13.2552 13.4297 13.5625 13.3568 13.8438 13.2109C 14.125 13.0599 14.3333 12.8594 14.4688 12.6094L 14.4688 11.1562L 13.625 11.1562C 12.4948 11.1562 11.8932 11.5469 11.8203 12.3281L 11.8125 12.4609C 11.8125 12.7422 11.9115 12.974 12.1094 13.1562C 12.3073 13.3385 12.5781 13.4297 12.9219 13.4297ZM 21.5 11.8047L 23.0625 6.54688L 25.4844 6.54688L 22.0859 16.3125L 21.8984 16.7578C 21.3932 17.862 20.5599 18.4141 19.3984 18.4141C 19.0703 18.4141 18.737 18.3646 18.3984 18.2656L 18.3984 16.5547L 18.7422 16.5625C 19.1693 16.5625 19.487 16.4974 19.6953 16.3672C 19.9089 16.237 20.0755 16.0208 20.1953 15.7188L 20.4609 15.0234L 17.5 6.54688L 19.9297 6.54688L 21.5 11.8047ZM 30.1562 15.1562C 28.9167 15.1562 27.9062 14.776 27.125 14.0156C 26.349 13.2552 25.9609 12.2422 25.9609 10.9766L 25.9609 10.7578C 25.9609 9.90885 26.125 9.15104 26.4531 8.48438C 26.7812 7.8125 27.2448 7.29688 27.8438 6.9375C 28.4479 6.57292 29.1354 6.39062 29.9062 6.39062C 31.0625 6.39062 31.9714 6.75521 32.6328 7.48438C 33.2995 8.21354 33.6328 9.2474 33.6328 10.5859L 33.6328 11.5078L 28.25 11.5078C 28.3229 12.0599 28.5417 12.5026 28.9062 12.8359C 29.276 13.1693 29.7422 13.3359 30.3047 13.3359C 31.1745 13.3359 31.8542 13.0208 32.3438 12.3906L 33.4531 13.6328C 33.1146 14.112 32.6562 14.487 32.0781 14.7578C 31.5 15.0234 30.8594 15.1562 30.1562 15.1562ZM 29.8984 8.21875C 29.4505 8.21875 29.0859 8.36979 28.8047 8.67188C 28.5286 8.97396 28.3516 9.40625 28.2734 9.96875L 31.4141 9.96875L 31.4141 9.78906C 31.4036 9.28906 31.2682 8.90365 31.0078 8.63281C 30.7474 8.35677 30.3776 8.21875 29.8984 8.21875ZM 39.6719 8.66406C 39.3646 8.6224 39.0938 8.60156 38.8594 8.60156C 38.0052 8.60156 37.4453 8.89062 37.1797 9.46875L 37.1797 15L 34.9219 15L 34.9219 6.54688L 37.0547 6.54688L 37.1172 7.55469C 37.5703 6.77865 38.1979 6.39062 39 6.39062C 39.25 6.39062 39.4844 6.42448 39.7031 6.49219L 39.6719 8.66406ZM 44.3984 10.6953C 44.3984 9.85677 44.5599 9.10938 44.8828 8.45312C 45.2057 7.79688 45.6693 7.28906 46.2734 6.92969C 46.8828 6.57031 47.5885 6.39062 48.3906 6.39062C 49.5312 6.39062 50.4609 6.73958 51.1797 7.4375C 51.9036 8.13542 52.3073 9.08333 52.3906 10.2812L 52.4062 10.8594C 52.4062 12.1562 52.0443 13.1979 51.3203 13.9844C 50.5964 14.7656 49.625 15.1562 48.4062 15.1562C 47.1875 15.1562 46.2135 14.7656 45.4844 13.9844C 44.7604 13.2031 44.3984 12.1406 44.3984 10.7969L 44.3984 10.6953ZM 46.6562 10.8594C 46.6562 11.6615 46.8073 12.276 47.1094 12.7031C 47.4115 13.125 47.8438 13.3359 48.4062 13.3359C 48.9531 13.3359 49.3802 13.1276 49.6875 12.7109C 49.9948 12.2891 50.1484 11.6172 50.1484 10.6953C 50.1484 9.90885 49.9948 9.29948 49.6875 8.86719C 49.3802 8.4349 48.9479 8.21875 48.3906 8.21875C 47.8385 8.21875 47.4115 8.4349 47.1094 8.86719C 46.8073 9.29427 46.6562 9.95833 46.6562 10.8594ZM 54.4141 15L 54.4141 8.20312L 53.1562 8.20312L 53.1562 6.54688L 54.4141 6.54688L 54.4141 5.82812C 54.4141 4.88021 54.6849 4.14583 55.2266 3.625C 55.7734 3.09896 56.5365 2.83594 57.5156 2.83594C 57.8281 2.83594 58.2109 2.88802 58.6641 2.99219L 58.6406 4.74219C 58.4531 4.69531 58.224 4.67188 57.9531 4.67188C 57.1042 4.67188 56.6797 5.07031 56.6797 5.86719L 56.6797 6.54688L 58.3594 6.54688L 58.3594 8.20312L 56.6797 8.20312L 56.6797 15L 54.4141 15ZM 14.5078 34L 12.1641 34L 12.1641 22.625L 14.5078 22.625L 14.5078 34ZM 18.6172 25.5469L 18.6875 26.5234C 19.2917 25.7682 20.1016 25.3906 21.1172 25.3906C 22.013 25.3906 22.6797 25.6536 23.1172 26.1797C 23.5547 26.7057 23.7786 27.4922 23.7891 28.5391L 23.7891 34L 21.5312 34L 21.5312 28.5938C 21.5312 28.1146 21.4271 27.7682 21.2188 27.5547C 21.0104 27.3359 20.6641 27.2266 20.1797 27.2266C 19.5443 27.2266 19.0677 27.4974 18.75 28.0391L 18.75 34L 16.4922 34L 16.4922 25.5469L 18.6172 25.5469ZM 33.1172 29.8516C 33.1172 31.1536 32.8203 32.1979 32.2266 32.9844C 31.638 33.7656 30.8411 34.1562 29.8359 34.1562C 28.9818 34.1562 28.2917 33.8594 27.7656 33.2656L 27.7656 37.25L 25.5078 37.25L 25.5078 25.5469L 27.6016 25.5469L 27.6797 26.375C 28.2266 25.7188 28.9401 25.3906 29.8203 25.3906C 30.862 25.3906 31.6719 25.776 32.25 26.5469C 32.8281 27.3177 33.1172 28.3802 33.1172 29.7344L 33.1172 29.8516ZM 30.8594 29.6875C 30.8594 28.901 30.7188 28.2943 30.4375 27.8672C 30.1615 27.4401 29.7578 27.2266 29.2266 27.2266C 28.5182 27.2266 28.0312 27.4974 27.7656 28.0391L 27.7656 31.5C 28.0417 32.0573 28.5339 32.3359 29.2422 32.3359C 30.3203 32.3359 30.8594 31.4531 30.8594 29.6875ZM 39.5859 33.1406C 39.0286 33.8177 38.2578 34.1562 37.2734 34.1562C 36.3672 34.1562 35.6745 33.8958 35.1953 33.375C 34.7214 32.8542 34.4792 32.0911 34.4688 31.0859L 34.4688 25.5469L 36.7266 25.5469L 36.7266 31.0078C 36.7266 31.888 37.1276 32.3281 37.9297 32.3281C 38.6953 32.3281 39.2214 32.0625 39.5078 31.5312L 39.5078 25.5469L 41.7734 25.5469L 41.7734 34L 39.6484 34L 39.5859 33.1406ZM 46.1797 23.4688L 46.1797 25.5469L 47.625 25.5469L 47.625 27.2031L 46.1797 27.2031L 46.1797 31.4219C 46.1797 31.7344 46.2396 31.9583 46.3594 32.0938C 46.4792 32.2292 46.7083 32.2969 47.0469 32.2969C 47.2969 32.2969 47.5182 32.2786 47.7109 32.2422L 47.7109 33.9531C 47.2682 34.0885 46.8125 34.1562 46.3438 34.1562C 44.7604 34.1562 43.9531 33.3568 43.9219 31.7578L 43.9219 27.2031L 42.6875 27.2031L 42.6875 25.5469L 43.9219 25.5469L 43.9219 23.4688L 46.1797 23.4688ZM 11.4062 52L 9.0625 52L 4.5 44.5156L 4.5 52L 2.15625 52L 2.15625 40.625L 4.5 40.625L 9.07031 48.125L 9.07031 40.625L 11.4062 40.625L 11.4062 52ZM 17.1953 52.1562C 15.9557 52.1562 14.9453 51.776 14.1641 51.0156C 13.388 50.2552 13 49.2422 13 47.9766L 13 47.7578C 13 46.9089 13.1641 46.151 13.4922 45.4844C 13.8203 44.8125 14.2839 44.2969 14.8828 43.9375C 15.487 43.5729 16.1745 43.3906 16.9453 43.3906C 18.1016 43.3906 19.0104 43.7552 19.6719 44.4844C 20.3385 45.2135 20.6719 46.2474 20.6719 47.5859L 20.6719 48.5078L 15.2891 48.5078C 15.362 49.0599 15.5807 49.5026 15.9453 49.8359C 16.3151 50.1693 16.7812 50.3359 17.3438 50.3359C 18.2135 50.3359 18.8932 50.0208 19.3828 49.3906L 20.4922 50.6328C 20.1536 51.112 19.6953 51.487 19.1172 51.7578C 18.5391 52.0234 17.8984 52.1562 17.1953 52.1562ZM 16.9375 45.2188C 16.4896 45.2188 16.125 45.3698 15.8438 45.6719C 15.5677 45.974 15.3906 46.4062 15.3125 46.9688L 18.4531 46.9688L 18.4531 46.7891C 18.4427 46.2891 18.3073 45.9036 18.0469 45.6328C 17.7865 45.3568 17.4167 45.2188 16.9375 45.2188ZM 27.0234 51.1406C 26.4661 51.8177 25.6953 52.1562 24.7109 52.1562C 23.8047 52.1562 23.112 51.8958 22.6328 51.375C 22.1589 50.8542 21.9167 50.0911 21.9062 49.0859L 21.9062 43.5469L 24.1641 43.5469L 24.1641 49.0078C 24.1641 49.888 24.5651 50.3281 25.3672 50.3281C 26.1328 50.3281 26.6589 50.0625 26.9453 49.5312L 26.9453 43.5469L 29.2109 43.5469L 29.2109 52L 27.0859 52L 27.0234 51.1406ZM 35.6641 45.6641C 35.3568 45.6224 35.0859 45.6016 34.8516 45.6016C 33.9974 45.6016 33.4375 45.8906 33.1719 46.4688L 33.1719 52L 30.9141 52L 30.9141 43.5469L 33.0469 43.5469L 33.1094 44.5547C 33.5625 43.7786 34.1901 43.3906 34.9922 43.3906C 35.2422 43.3906 35.4766 43.4245 35.6953 43.4922L 35.6641 45.6641ZM 36.125 47.6953C 36.125 46.8568 36.2865 46.1094 36.6094 45.4531C 36.9323 44.7969 37.3958 44.2891 38 43.9297C 38.6094 43.5703 39.3151 43.3906 40.1172 43.3906C 41.2578 43.3906 42.1875 43.7396 42.9062 44.4375C 43.6302 45.1354 44.0339 46.0833 44.1172 47.2812L 44.1328 47.8594C 44.1328 49.1562 43.7708 50.1979 43.0469 50.9844C 42.3229 51.7656 41.3516 52.1562 40.1328 52.1562C 38.9141 52.1562 37.9401 51.7656 37.2109 50.9844C 36.487 50.2031 36.125 49.1406 36.125 47.7969L 36.125 47.6953ZM 38.3828 47.8594C 38.3828 48.6615 38.5339 49.276 38.8359 49.7031C 39.138 50.125 39.5703 50.3359 40.1328 50.3359C 40.6797 50.3359 41.1068 50.1276 41.4141 49.7109C 41.7214 49.2891 41.875 48.6172 41.875 47.6953C 41.875 46.9089 41.7214 46.2995 41.4141 45.8672C 41.1068 45.4349 40.6745 45.2188 40.1172 45.2188C 39.5651 45.2188 39.138 45.4349 38.8359 45.8672C 38.5339 46.2943 38.3828 46.9583 38.3828 47.8594ZM 47.6016 43.5469L 47.6719 44.5234C 48.276 43.7682 49.0859 43.3906 50.1016 43.3906C 50.9974 43.3906 51.6641 43.6536 52.1016 44.1797C 52.5391 44.7057 52.763 45.4922 52.7734 46.5391L 52.7734 52L 50.5156 52L 50.5156 46.5938C 50.5156 46.1146 50.4115 45.7682 50.2031 45.5547C 49.9948 45.3359 49.6484 45.2266 49.1641 45.2266C 48.5286 45.2266 48.0521 45.4974 47.7344 46.0391L 47.7344 52L 45.4766 52L 45.4766 43.5469L 47.6016 43.5469ZM 59.0703 49.6641C 59.0703 49.388 58.9323 49.1719 58.6562 49.0156C 58.3854 48.8542 57.9479 48.7109 57.3438 48.5859C 55.3333 48.1641 54.3281 47.3099 54.3281 46.0234C 54.3281 45.2734 54.638 44.6484 55.2578 44.1484C 55.8828 43.6432 56.6979 43.3906 57.7031 43.3906C 58.776 43.3906 59.6328 43.6432 60.2734 44.1484C 60.9193 44.6536 61.2422 45.3099 61.2422 46.1172L 58.9844 46.1172C 58.9844 45.7943 58.8802 45.5286 58.6719 45.3203C 58.4635 45.1068 58.138 45 57.6953 45C 57.3151 45 57.0208 45.0859 56.8125 45.2578C 56.6042 45.4297 56.5 45.6484 56.5 45.9141C 56.5 46.1641 56.6172 46.3672 56.8516 46.5234C 57.0911 46.6745 57.4922 46.8073 58.0547 46.9219C 58.6172 47.0312 59.0911 47.1562 59.4766 47.2969C 60.6693 47.7344 61.2656 48.4922 61.2656 49.5703C 61.2656 50.3411 60.9349 50.9661 60.2734 51.4453C 59.612 51.9193 58.7578 52.1562 57.7109 52.1562C 57.0026 52.1562 56.3724 52.0312 55.8203 51.7812C 55.2734 51.526 54.8438 51.1797 54.5312 50.7422C 54.2188 50.2995 54.0625 49.8229 54.0625 49.3125L 56.2031 49.3125C 56.224 49.7135 56.3724 50.0208 56.6484 50.2344C 56.9245 50.4479 57.2943 50.5547 57.7578 50.5547C 58.1901 50.5547 58.5156 50.474 58.7344 50.3125C 58.9583 50.1458 59.0703 49.9297 59.0703 49.6641Z"/>
<path id="path26_fill" d="M 10.6641 15L 8.32031 15L 8.32031 10.125L 3.75 10.125L 3.75 15L 1.40625 15L 1.40625 3.625L 3.75 3.625L 3.75 8.23438L 8.32031 8.23438L 8.32031 3.625L 10.6641 3.625L 10.6641 15ZM 14.9531 15L 12.6875 15L 12.6875 6.54688L 14.9531 6.54688L 14.9531 15ZM 12.5547 4.35938C 12.5547 4.02083 12.6667 3.74219 12.8906 3.52344C 13.1198 3.30469 13.4297 3.19531 13.8203 3.19531C 14.2057 3.19531 14.513 3.30469 14.7422 3.52344C 14.9714 3.74219 15.0859 4.02083 15.0859 4.35938C 15.0859 4.70312 14.9688 4.98438 14.7344 5.20312C 14.5052 5.42188 14.2005 5.53125 13.8203 5.53125C 13.4401 5.53125 13.1328 5.42188 12.8984 5.20312C 12.6693 4.98438 12.5547 4.70312 12.5547 4.35938ZM 16.4688 10.7109C 16.4688 9.39323 16.763 8.34375 17.3516 7.5625C 17.9453 6.78125 18.7552 6.39062 19.7812 6.39062C 20.6042 6.39062 21.2839 6.69792 21.8203 7.3125L 21.8203 3L 24.0859 3L 24.0859 15L 22.0469 15L 21.9375 14.1016C 21.375 14.8047 20.651 15.1562 19.7656 15.1562C 18.7708 15.1562 17.9714 14.7656 17.3672 13.9844C 16.7682 13.1979 16.4688 12.1068 16.4688 10.7109ZM 18.7266 10.875C 18.7266 11.6667 18.8646 12.2734 19.1406 12.6953C 19.4167 13.1172 19.8177 13.3281 20.3438 13.3281C 21.0417 13.3281 21.5339 13.0339 21.8203 12.4453L 21.8203 9.10938C 21.5391 8.52083 21.0521 8.22656 20.3594 8.22656C 19.2708 8.22656 18.7266 9.10938 18.7266 10.875ZM 25.4844 10.7109C 25.4844 9.39323 25.7786 8.34375 26.3672 7.5625C 26.9609 6.78125 27.7708 6.39062 28.7969 6.39062C 29.6198 6.39062 30.2995 6.69792 30.8359 7.3125L 30.8359 3L 33.1016 3L 33.1016 15L 31.0625 15L 30.9531 14.1016C 30.3906 14.8047 29.6667 15.1562 28.7812 15.1562C 27.7865 15.1562 26.987 14.7656 26.3828 13.9844C 25.7839 13.1979 25.4844 12.1068 25.4844 10.7109ZM 27.7422 10.875C 27.7422 11.6667 27.8802 12.2734 28.1562 12.6953C 28.4323 13.1172 28.8333 13.3281 29.3594 13.3281C 30.0573 13.3281 30.5495 13.0339 30.8359 12.4453L 30.8359 9.10938C 30.5547 8.52083 30.0677 8.22656 29.375 8.22656C 28.2865 8.22656 27.7422 9.10938 27.7422 10.875ZM 38.7422 15.1562C 37.5026 15.1562 36.4922 14.776 35.7109 14.0156C 34.9349 13.2552 34.5469 12.2422 34.5469 10.9766L 34.5469 10.7578C 34.5469 9.90885 34.7109 9.15104 35.0391 8.48438C 35.3672 7.8125 35.8307 7.29688 36.4297 6.9375C 37.0339 6.57292 37.7214 6.39062 38.4922 6.39062C 39.6484 6.39062 40.5573 6.75521 41.2188 7.48438C 41.8854 8.21354 42.2188 9.2474 42.2188 10.5859L 42.2188 11.5078L 36.8359 11.5078C 36.9089 12.0599 37.1276 12.5026 37.4922 12.8359C 37.862 13.1693 38.3281 13.3359 38.8906 13.3359C 39.7604 13.3359 40.4401 13.0208 40.9297 12.3906L 42.0391 13.6328C 41.7005 14.112 41.2422 14.487 40.6641 14.7578C 40.0859 15.0234 39.4453 15.1562 38.7422 15.1562ZM 38.4844 8.21875C 38.0365 8.21875 37.6719 8.36979 37.3906 8.67188C 37.1146 8.97396 36.9375 9.40625 36.8594 9.96875L 40 9.96875L 40 9.78906C 39.9896 9.28906 39.8542 8.90365 39.5938 8.63281C 39.3333 8.35677 38.9635 8.21875 38.4844 8.21875ZM 45.5859 6.54688L 45.6562 7.52344C 46.2604 6.76823 47.0703 6.39062 48.0859 6.39062C 48.9818 6.39062 49.6484 6.65365 50.0859 7.17969C 50.5234 7.70573 50.7474 8.49219 50.7578 9.53906L 50.7578 15L 48.5 15L 48.5 9.59375C 48.5 9.11458 48.3958 8.76823 48.1875 8.55469C 47.9792 8.33594 47.6328 8.22656 47.1484 8.22656C 46.513 8.22656 46.0365 8.4974 45.7188 9.03906L 45.7188 15L 43.4609 15L 43.4609 6.54688L 45.5859 6.54688ZM 9.58594 32.1172L 14.5625 32.1172L 14.5625 34L 7.24219 34L 7.24219 22.625L 9.58594 22.625L 9.58594 32.1172ZM 20.6641 34C 20.5599 33.7969 20.4844 33.5443 20.4375 33.2422C 19.8906 33.8516 19.1797 34.1562 18.3047 34.1562C 17.4766 34.1562 16.7891 33.9167 16.2422 33.4375C 15.7005 32.9583 15.4297 32.3542 15.4297 31.625C 15.4297 30.7292 15.7604 30.0417 16.4219 29.5625C 17.0885 29.0833 18.0495 28.8411 19.3047 28.8359L 20.3438 28.8359L 20.3438 28.3516C 20.3438 27.9609 20.2422 27.6484 20.0391 27.4141C 19.8411 27.1797 19.526 27.0625 19.0938 27.0625C 18.7135 27.0625 18.4141 27.1536 18.1953 27.3359C 17.9818 27.5182 17.875 27.7682 17.875 28.0859L 15.6172 28.0859C 15.6172 27.5964 15.7682 27.1432 16.0703 26.7266C 16.3724 26.3099 16.7995 25.9844 17.3516 25.75C 17.9036 25.5104 18.5234 25.3906 19.2109 25.3906C 20.2526 25.3906 21.0781 25.6536 21.6875 26.1797C 22.3021 26.7005 22.6094 27.4349 22.6094 28.3828L 22.6094 32.0469C 22.6146 32.849 22.7266 33.4557 22.9453 33.8672L 22.9453 34L 20.6641 34ZM 18.7969 32.4297C 19.1302 32.4297 19.4375 32.3568 19.7188 32.2109C 20 32.0599 20.2083 31.8594 20.3438 31.6094L 20.3438 30.1562L 19.5 30.1562C 18.3698 30.1562 17.7682 30.5469 17.6953 31.3281L 17.6875 31.4609C 17.6875 31.7422 17.7865 31.974 17.9844 32.1562C 18.1823 32.3385 18.4531 32.4297 18.7969 32.4297ZM 27.375 30.8047L 28.9375 25.5469L 31.3594 25.5469L 27.9609 35.3125L 27.7734 35.7578C 27.2682 36.862 26.4349 37.4141 25.2734 37.4141C 24.9453 37.4141 24.612 37.3646 24.2734 37.2656L 24.2734 35.5547L 24.6172 35.5625C 25.0443 35.5625 25.362 35.4974 25.5703 35.3672C 25.7839 35.237 25.9505 35.0208 26.0703 34.7188L 26.3359 34.0234L 23.375 25.5469L 25.8047 25.5469L 27.375 30.8047ZM 36.0312 34.1562C 34.7917 34.1562 33.7812 33.776 33 33.0156C 32.224 32.2552 31.8359 31.2422 31.8359 29.9766L 31.8359 29.7578C 31.8359 28.9089 32 28.151 32.3281 27.4844C 32.6562 26.8125 33.1198 26.2969 33.7188 25.9375C 34.3229 25.5729 35.0104 25.3906 35.7812 25.3906C 36.9375 25.3906 37.8464 25.7552 38.5078 26.4844C 39.1745 27.2135 39.5078 28.2474 39.5078 29.5859L 39.5078 30.5078L 34.125 30.5078C 34.1979 31.0599 34.4167 31.5026 34.7812 31.8359C 35.151 32.1693 35.6172 32.3359 36.1797 32.3359C 37.0495 32.3359 37.7292 32.0208 38.2188 31.3906L 39.3281 32.6328C 38.9896 33.112 38.5312 33.487 37.9531 33.7578C 37.375 34.0234 36.7344 34.1562 36.0312 34.1562ZM 35.7734 27.2188C 35.3255 27.2188 34.9609 27.3698 34.6797 27.6719C 34.4036 27.974 34.2266 28.4062 34.1484 28.9688L 37.2891 28.9688L 37.2891 28.7891C 37.2786 28.2891 37.1432 27.9036 36.8828 27.6328C 36.6224 27.3568 36.2526 27.2188 35.7734 27.2188ZM 45.5469 27.6641C 45.2396 27.6224 44.9688 27.6016 44.7344 27.6016C 43.8802 27.6016 43.3203 27.8906 43.0547 28.4688L 43.0547 34L 40.7969 34L 40.7969 25.5469L 42.9297 25.5469L 42.9922 26.5547C 43.4453 25.7786 44.0729 25.3906 44.875 25.3906C 45.125 25.3906 45.3594 25.4245 45.5781 25.4922L 45.5469 27.6641Z"/>
<path id="path27_stroke" d="M 123.423 0.353553C 123.618 0.158291 123.618 -0.158291 123.423 -0.353553L 120.241 -3.53553C 120.045 -3.7308 119.729 -3.7308 119.534 -3.53553C 119.338 -3.34027 119.338 -3.02369 119.534 -2.82843L 122.362 0L 119.534 2.82843C 119.338 3.02369 119.338 3.34027 119.534 3.53553C 119.729 3.7308 120.045 3.7308 120.241 3.53553L 123.423 0.353553ZM 0 0.5L 123.069 0.5L 123.069 -0.5L 0 -0.5L 0 0.5Z"/>
<path id="path28_stroke" d="M 93.3589 0.353553C 93.5542 0.158291 93.5542 -0.158291 93.3589 -0.353553L 90.1769 -3.53553C 89.9817 -3.7308 89.6651 -3.7308 89.4698 -3.53553C 89.2746 -3.34027 89.2746 -3.02369 89.4698 -2.82843L 92.2983 0L 89.4698 2.82843C 89.2746 3.02369 89.2746 3.34027 89.4698 3.53553C 89.6651 3.7308 89.9817 3.7308 90.1769 3.53553L 93.3589 0.353553ZM 0 0.5L 93.0054 0.5L 93.0054 -0.5L 0 -0.5L 0 0.5Z"/>
<path id="path29_stroke" d="M 93.4019 0.353553C 93.5972 0.158291 93.5972 -0.158291 93.4019 -0.353553L 90.2199 -3.53553C 90.0247 -3.7308 89.7081 -3.7308 89.5128 -3.53553C 89.3176 -3.34027 89.3176 -3.02369 89.5128 -2.82843L 92.3413 0L 89.5128 2.82843C 89.3176 3.02369 89.3176 3.34027 89.5128 3.53553C 89.7081 3.7308 90.0247 3.7308 90.2199 3.53553L 93.4019 0.353553ZM 0 0.5L 93.0484 0.5L 93.0484 -0.5L 0 -0.5L 0 0.5Z"/>
<path id="path30_stroke" d="M 125.513 0.353553C 125.709 0.158291 125.709 -0.158291 125.513 -0.353553L 122.331 -3.53553C 122.136 -3.7308 121.82 -3.7308 121.624 -3.53553C 121.429 -3.34027 121.429 -3.02369 121.624 -2.82843L 124.453 0L 121.624 2.82843C 121.429 3.02369 121.429 3.34027 121.624 3.53553C 121.82 3.7308 122.136 3.7308 122.331 3.53553L 125.513 0.353553ZM 0 0.5L 125.16 0.5L 125.16 -0.5L 0 -0.5L 0 0.5Z"/>
<path id="path31_stroke" d="M 172.391 0.353553C 172.587 0.158291 172.587 -0.158291 172.391 -0.353553L 169.209 -3.53553C 169.014 -3.7308 168.698 -3.7308 168.502 -3.53553C 168.307 -3.34027 168.307 -3.02369 168.502 -2.82843L 171.331 0L 168.502 2.82843C 168.307 3.02369 168.307 3.34027 168.502 3.53553C 168.698 3.7308 169.014 3.7308 169.209 3.53553L 172.391 0.353553ZM 0 0.5L 172.038 0.5L 172.038 -0.5L 0 -0.5L 0 0.5Z"/>
<path id="path32_stroke" d="M 227.791 0.353553C 227.987 0.158291 227.987 -0.158291 227.791 -0.353553L 224.609 -3.53553C 224.414 -3.7308 224.098 -3.7308 223.902 -3.53553C 223.707 -3.34027 223.707 -3.02369 223.902 -2.82843L 226.731 0L 223.902 2.82843C 223.707 3.02369 223.707 3.34027 223.902 3.53553C 224.098 3.7308 224.414 3.7308 224.609 3.53553L 227.791 0.353553ZM 0 0.5L 227.438 0.5L 227.438 -0.5L 0 -0.5L 0 0.5Z"/>
<path id="path33_stroke" d="M 164.366 0.353553C 164.561 0.158291 164.561 -0.158291 164.366 -0.353553L 161.184 -3.53553C 160.989 -3.7308 160.672 -3.7308 160.477 -3.53553C 160.281 -3.34027 160.281 -3.02369 160.477 -2.82843L 163.305 0L 160.477 2.82843C 160.281 3.02369 160.281 3.34027 160.477 3.53553C 160.672 3.7308 160.989 3.7308 161.184 3.53553L 164.366 0.353553ZM 0 0.5L 164.012 0.5L 164.012 -0.5L 0 -0.5L 0 0.5Z"/>
<path id="path34_stroke" d="M 118.76 0.353553C 118.955 0.158291 118.955 -0.158291 118.76 -0.353553L 115.578 -3.53553C 115.382 -3.7308 115.066 -3.7308 114.871 -3.53553C 114.675 -3.34027 114.675 -3.02369 114.871 -2.82843L 117.699 0L 114.871 2.82843C 114.675 3.02369 114.675 3.34027 114.871 3.53553C 115.066 3.7308 115.382 3.7308 115.578 3.53553L 118.76 0.353553ZM 0 0.5L 118.406 0.5L 118.406 -0.5L 0 -0.5L 0 0.5Z"/>
<path id="path35_stroke" d="M 93.1167 0.353553C 93.312 0.158291 93.312 -0.158291 93.1167 -0.353553L 89.9347 -3.53553C 89.7394 -3.7308 89.4229 -3.7308 89.2276 -3.53553C 89.0323 -3.34027 89.0323 -3.02369 89.2276 -2.82843L 92.056 0L 89.2276 2.82843C 89.0323 3.02369 89.0323 3.34027 89.2276 3.53553C 89.4229 3.7308 89.7394 3.7308 89.9347 3.53553L 93.1167 0.353553ZM 0 0.5L 92.7631 0.5L 92.7631 -0.5L 0 -0.5L 0 0.5Z"/>
<path id="path36_stroke" d="M 97.1213 0.353553C 97.3166 0.158291 97.3166 -0.158291 97.1213 -0.353553L 93.9393 -3.53553C 93.7441 -3.7308 93.4275 -3.7308 93.2322 -3.53553C 93.037 -3.34027 93.037 -3.02369 93.2322 -2.82843L 96.0607 0L 93.2322 2.82843C 93.037 3.02369 93.037 3.34027 93.2322 3.53553C 93.4275 3.7308 93.7441 3.7308 93.9393 3.53553L 97.1213 0.353553ZM 0 0.5L 96.7678 0.5L 96.7678 -0.5L 0 -0.5L 0 0.5Z"/>
<path id="path37_stroke" d="M 124.933 0.353553C 125.128 0.158291 125.128 -0.158291 124.933 -0.353553L 121.751 -3.53553C 121.556 -3.7308 121.239 -3.7308 121.044 -3.53553C 120.848 -3.34027 120.848 -3.02369 121.044 -2.82843L 123.872 0L 121.044 2.82843C 120.848 3.02369 120.848 3.34027 121.044 3.53553C 121.239 3.7308 121.556 3.7308 121.751 3.53553L 124.933 0.353553ZM 0 0.5L 124.579 0.5L 124.579 -0.5L 0 -0.5L 0 0.5Z"/>
<path id="path38_stroke" d="M 177.173 0.353553C 177.368 0.158291 177.368 -0.158291 177.173 -0.353553L 173.991 -3.53553C 173.795 -3.7308 173.479 -3.7308 173.284 -3.53553C 173.088 -3.34027 173.088 -3.02369 173.284 -2.82843L 176.112 0L 173.284 2.82843C 173.088 3.02369 173.088 3.34027 173.284 3.53553C 173.479 3.7308 173.795 3.7308 173.991 3.53553L 177.173 0.353553ZM 0 0.5L 176.819 0.5L 176.819 -0.5L 0 -0.5L 0 0.5Z"/>
<path id="path39_stroke" d="M 211.014 0.353553C 211.21 0.158291 211.21 -0.158291 211.014 -0.353553L 207.832 -3.53553C 207.637 -3.7308 207.321 -3.7308 207.125 -3.53553C 206.93 -3.34027 206.93 -3.02369 207.125 -2.82843L 209.954 0L 207.125 2.82843C 206.93 3.02369 206.93 3.34027 207.125 3.53553C 207.321 3.7308 207.637 3.7308 207.832 3.53553L 211.014 0.353553ZM 0 0.5L 210.661 0.5L 210.661 -0.5L 0 -0.5L 0 0.5Z"/>
<path id="path40_stroke" d="M 157.986 0.353553C 158.181 0.158291 158.181 -0.158291 157.986 -0.353553L 154.804 -3.53553C 154.609 -3.7308 154.292 -3.7308 154.097 -3.53553C 153.902 -3.34027 153.902 -3.02369 154.097 -2.82843L 156.925 0L 154.097 2.82843C 153.902 3.02369 153.902 3.34027 154.097 3.53553C 154.292 3.7308 154.609 3.7308 154.804 3.53553L 157.986 0.353553ZM 0 0.5L 157.632 0.5L 157.632 -0.5L 0 -0.5L 0 0.5Z"/>
<path id="path41_stroke" d="M 112.018 0.353553C 112.213 0.158291 112.213 -0.158291 112.018 -0.353553L 108.836 -3.53553C 108.641 -3.7308 108.324 -3.7308 108.129 -3.53553C 107.934 -3.34027 107.934 -3.02369 108.129 -2.82843L 110.958 0L 108.129 2.82843C 107.934 3.02369 107.934 3.34027 108.129 3.53553C 108.324 3.7308 108.641 3.7308 108.836 3.53553L 112.018 0.353553ZM 0 0.5L 111.665 0.5L 111.665 -0.5L 0 -0.5L 0 0.5Z"/>
<path id="path42_stroke" d="M 92.7981 0.353553C 92.9934 0.158291 92.9934 -0.158291 92.7981 -0.353553L 89.6161 -3.53553C 89.4209 -3.7308 89.1043 -3.7308 88.909 -3.53553C 88.7138 -3.34027 88.7138 -3.02369 88.909 -2.82843L 91.7375 0L 88.909 2.82843C 88.7138 3.02369 88.7138 3.34027 88.909 3.53553C 89.1043 3.7308 89.4209 3.7308 89.6161 3.53553L 92.7981 0.353553ZM 0 0.5L 92.4446 0.5L 92.4446 -0.5L 0 -0.5L 0 0.5Z"/>
<path id="path43_stroke" d="M 92.3807 0.353553C 92.576 0.158291 92.576 -0.158291 92.3807 -0.353553L 89.1987 -3.53553C 89.0035 -3.7308 88.6869 -3.7308 88.4916 -3.53553C 88.2964 -3.34027 88.2964 -3.02369 88.4916 -2.82843L 91.3201 0L 88.4916 2.82843C 88.2964 3.02369 88.2964 3.34027 88.4916 3.53553C 88.6869 3.7308 89.0035 3.7308 89.1987 3.53553L 92.3807 0.353553ZM 0 0.5L 92.0272 0.5L 92.0272 -0.5L 0 -0.5L 0 0.5Z"/>
<path id="path44_stroke" d="M 134.043 0.353553C 134.239 0.158291 134.239 -0.158291 134.043 -0.353553L 130.862 -3.53553C 130.666 -3.7308 130.35 -3.7308 130.154 -3.53553C 129.959 -3.34027 129.959 -3.02369 130.154 -2.82843L 132.983 0L 130.154 2.82843C 129.959 3.02369 129.959 3.34027 130.154 3.53553C 130.35 3.7308 130.666 3.7308 130.862 3.53553L 134.043 0.353553ZM 0 0.5L 133.69 0.5L 133.69 -0.5L 0 -0.5L 0 0.5Z"/>
<path id="path45_fill" d="M 27.7998 17L 26.165 17L 26.165 6.16309L 22.8867 7.36719L 22.8867 5.89062L 27.5449 4.1416L 27.7998 4.1416L 27.7998 17ZM 40.3242 7.54297C 40.3242 8.18164 40.1543 8.75 39.8145 9.24805C 39.4805 9.74609 39.0264 10.1357 38.4521 10.417C 39.1201 10.7041 39.6475 11.123 40.0342 11.6738C 40.4268 12.2246 40.623 12.8486 40.623 13.5459C 40.623 14.6533 40.248 15.5352 39.498 16.1914C 38.7539 16.8477 37.7725 17.1758 36.5537 17.1758C 35.3232 17.1758 34.3359 16.8477 33.5918 16.1914C 32.8535 15.5293 32.4844 14.6475 32.4844 13.5459C 32.4844 12.8545 32.6719 12.2305 33.0469 11.6738C 33.4277 11.1172 33.9521 10.6953 34.6201 10.4082C 34.0518 10.127 33.6035 9.7373 33.2754 9.23926C 32.9473 8.74121 32.7832 8.17578 32.7832 7.54297C 32.7832 6.46484 33.1289 5.60938 33.8203 4.97656C 34.5117 4.34375 35.4229 4.02734 36.5537 4.02734C 37.6787 4.02734 38.5869 4.34375 39.2783 4.97656C 39.9756 5.60938 40.3242 6.46484 40.3242 7.54297ZM 38.9971 13.5107C 38.9971 12.7959 38.7686 12.2129 38.3115 11.7617C 37.8604 11.3105 37.2686 11.085 36.5361 11.085C 35.8037 11.085 35.2148 11.3076 34.7695 11.7529C 34.3301 12.1982 34.1104 12.7842 34.1104 13.5107C 34.1104 14.2373 34.3242 14.8086 34.752 15.2246C 35.1855 15.6406 35.7861 15.8486 36.5537 15.8486C 37.3154 15.8486 37.9131 15.6406 38.3467 15.2246C 38.7803 14.8027 38.9971 14.2314 38.9971 13.5107ZM 36.5537 5.36328C 35.915 5.36328 35.3965 5.5625 34.998 5.96094C 34.6055 6.35352 34.4092 6.88965 34.4092 7.56934C 34.4092 8.21973 34.6025 8.74707 34.9893 9.15137C 35.3818 9.5498 35.9033 9.74902 36.5537 9.74902C 37.2041 9.74902 37.7227 9.5498 38.1094 9.15137C 38.502 8.74707 38.6982 8.21973 38.6982 7.56934C 38.6982 6.91895 38.4961 6.38867 38.0918 5.97852C 37.6875 5.56836 37.1748 5.36328 36.5537 5.36328ZM 9.82617 35.7588L 11.6543 28.4902L 13.2803 28.4902L 10.5117 38L 9.19336 38L 6.88184 30.793L 4.63184 38L 3.31348 38L 0.553711 28.4902L 2.1709 28.4902L 4.04297 35.6094L 6.25781 28.4902L 7.56738 28.4902L 9.82617 35.7588ZM 18.8877 38.1758C 17.5986 38.1758 16.5498 37.7539 15.7412 36.9102C 14.9326 36.0605 14.5283 34.9268 14.5283 33.5088L 14.5283 33.21C 14.5283 32.2666 14.707 31.4258 15.0645 30.6875C 15.4277 29.9434 15.9316 29.3633 16.5762 28.9473C 17.2266 28.5254 17.9297 28.3145 18.6855 28.3145C 19.9219 28.3145 20.8828 28.7217 21.5684 29.5361C 22.2539 30.3506 22.5967 31.5166 22.5967 33.0342L 22.5967 33.7109L 16.1543 33.7109C 16.1777 34.6484 16.4502 35.4072 16.9717 35.9873C 17.499 36.5615 18.167 36.8486 18.9756 36.8486C 19.5498 36.8486 20.0361 36.7314 20.4346 36.4971C 20.833 36.2627 21.1816 35.9521 21.4805 35.5654L 22.4736 36.3389C 21.6768 37.5635 20.4814 38.1758 18.8877 38.1758ZM 18.6855 29.6504C 18.0293 29.6504 17.4785 29.8906 17.0332 30.3711C 16.5879 30.8457 16.3125 31.5137 16.207 32.375L 20.9707 32.375L 20.9707 32.252C 20.9238 31.4258 20.7012 30.7871 20.3027 30.3359C 19.9043 29.8789 19.3652 29.6504 18.6855 29.6504ZM 26.2529 38L 24.627 38L 24.627 28.4902L 26.2529 28.4902L 26.2529 38ZM 24.4951 25.9678C 24.4951 25.7041 24.5742 25.4814 24.7324 25.2998C 24.8965 25.1182 25.1367 25.0273 25.4531 25.0273C 25.7695 25.0273 26.0098 25.1182 26.1738 25.2998C 26.3379 25.4814 26.4199 25.7041 26.4199 25.9678C 26.4199 26.2314 26.3379 26.4512 26.1738 26.627C 26.0098 26.8027 25.7695 26.8906 25.4531 26.8906C 25.1367 26.8906 24.8965 26.8027 24.7324 26.627C 24.5742 26.4512 24.4951 26.2314 24.4951 25.9678ZM 28.4766 33.166C 28.4766 31.6836 28.8193 30.5059 29.5049 29.6328C 30.1904 28.7539 31.0986 28.3145 32.2295 28.3145C 33.3896 28.3145 34.2949 28.7246 34.9453 29.5449L 35.0244 28.4902L 36.5098 28.4902L 36.5098 37.7715C 36.5098 39.002 36.1436 39.9717 35.4111 40.6807C 34.6846 41.3896 33.7061 41.7441 32.4756 41.7441C 31.79 41.7441 31.1191 41.5977 30.4629 41.3047C 29.8066 41.0117 29.3057 40.6104 28.96 40.1006L 29.8037 39.125C 30.501 39.9863 31.3535 40.417 32.3613 40.417C 33.1523 40.417 33.7676 40.1943 34.207 39.749C 34.6523 39.3037 34.875 38.6768 34.875 37.8682L 34.875 37.0508C 34.2246 37.8008 33.3369 38.1758 32.2119 38.1758C 31.0986 38.1758 30.1963 37.7275 29.5049 36.8311C 28.8193 35.9346 28.4766 34.7129 28.4766 33.166ZM 30.1113 33.3506C 30.1113 34.4229 30.3311 35.2666 30.7705 35.8818C 31.21 36.4912 31.8252 36.7959 32.6162 36.7959C 33.6416 36.7959 34.3945 36.3301 34.875 35.3984L 34.875 31.0566C 34.377 30.1484 33.6299 29.6943 32.6338 29.6943C 31.8428 29.6943 31.2246 30.002 30.7793 30.6172C 30.334 31.2324 30.1113 32.1436 30.1113 33.3506ZM 40.5967 29.6416C 41.3174 28.7568 42.2549 28.3145 43.4092 28.3145C 45.4189 28.3145 46.4326 29.4482 46.4502 31.7158L 46.4502 38L 44.8242 38L 44.8242 31.707C 44.8184 31.0215 44.6602 30.5146 44.3496 30.1865C 44.0449 29.8584 43.5674 29.6943 42.917 29.6943C 42.3896 29.6943 41.9268 29.835 41.5283 30.1162C 41.1299 30.3975 40.8193 30.7666 40.5967 31.2236L 40.5967 38L 38.9707 38L 38.9707 24.5L 40.5967 24.5L 40.5967 29.6416ZM 51.0908 26.1875L 51.0908 28.4902L 52.8662 28.4902L 52.8662 29.7471L 51.0908 29.7471L 51.0908 35.6445C 51.0908 36.0254 51.1699 36.3125 51.3281 36.5059C 51.4863 36.6934 51.7559 36.7871 52.1367 36.7871C 52.3242 36.7871 52.582 36.752 52.9102 36.6816L 52.9102 38C 52.4824 38.1172 52.0664 38.1758 51.6621 38.1758C 50.9355 38.1758 50.3877 37.9561 50.0186 37.5166C 49.6494 37.0771 49.4648 36.4531 49.4648 35.6445L 49.4648 29.7471L 47.7334 29.7471L 47.7334 28.4902L 49.4648 28.4902L 49.4648 26.1875L 51.0908 26.1875ZM 60.3105 35.4775C 60.3105 35.0381 60.1436 34.6982 59.8096 34.458C 59.4814 34.2119 58.9043 34.001 58.0781 33.8252C 57.2578 33.6494 56.6045 33.4385 56.1182 33.1924C 55.6377 32.9463 55.2803 32.6533 55.0459 32.3135C 54.8174 31.9736 54.7031 31.5693 54.7031 31.1006C 54.7031 30.3213 55.0312 29.6621 55.6875 29.123C 56.3496 28.584 57.1934 28.3145 58.2188 28.3145C 59.2969 28.3145 60.1699 28.5928 60.8379 29.1494C 61.5117 29.7061 61.8486 30.418 61.8486 31.2852L 60.2139 31.2852C 60.2139 30.8398 60.0234 30.4561 59.6426 30.1338C 59.2676 29.8115 58.793 29.6504 58.2188 29.6504C 57.627 29.6504 57.1641 29.7793 56.8301 30.0371C 56.4961 30.2949 56.3291 30.6318 56.3291 31.0479C 56.3291 31.4404 56.4844 31.7363 56.7949 31.9355C 57.1055 32.1348 57.665 32.3252 58.4736 32.5068C 59.2881 32.6885 59.9473 32.9053 60.4512 33.1572C 60.9551 33.4092 61.3271 33.7139 61.5674 34.0713C 61.8135 34.4229 61.9365 34.8535 61.9365 35.3633C 61.9365 36.2129 61.5967 36.8955 60.917 37.4111C 60.2373 37.9209 59.3555 38.1758 58.2715 38.1758C 57.5098 38.1758 56.8359 38.041 56.25 37.7715C 55.6641 37.502 55.2041 37.127 54.8701 36.6465C 54.542 36.1602 54.3779 35.6357 54.3779 35.0732L 56.0039 35.0732C 56.0332 35.6182 56.25 36.0518 56.6543 36.374C 57.0645 36.6904 57.6035 36.8486 58.2715 36.8486C 58.8867 36.8486 59.3789 36.7256 59.748 36.4795C 60.123 36.2275 60.3105 35.8936 60.3105 35.4775Z"/>
<path id="path46_fill" d="M 33.8906 4.19434L 33.8906 5.57422L 33.5918 5.57422C 32.3262 5.59766 31.3184 5.97266 30.5684 6.69922C 29.8184 7.42578 29.3848 8.44824 29.2676 9.7666C 29.9414 8.99316 30.8613 8.60645 32.0273 8.60645C 33.1406 8.60645 34.0283 8.99902 34.6904 9.78418C 35.3584 10.5693 35.6924 11.583 35.6924 12.8252C 35.6924 14.1436 35.332 15.1982 34.6113 15.9893C 33.8965 16.7803 32.9355 17.1758 31.7285 17.1758C 30.5039 17.1758 29.5107 16.707 28.749 15.7695C 27.9873 14.8262 27.6064 13.6133 27.6064 12.1309L 27.6064 11.5068C 27.6064 9.15137 28.1074 7.35254 29.1094 6.11035C 30.1172 4.8623 31.6143 4.22363 33.6006 4.19434L 33.8906 4.19434ZM 31.7549 9.95996C 31.1982 9.95996 30.6855 10.127 30.2168 10.4609C 29.748 10.7949 29.4229 11.2139 29.2412 11.7178L 29.2412 12.3154C 29.2412 13.3701 29.4785 14.2197 29.9531 14.8643C 30.4277 15.5088 31.0195 15.8311 31.7285 15.8311C 32.4609 15.8311 33.0352 15.5615 33.4512 15.0225C 33.873 14.4834 34.084 13.7773 34.084 12.9043C 34.084 12.0254 33.8701 11.3164 33.4424 10.7773C 33.0205 10.2324 32.458 9.95996 31.7549 9.95996ZM 9.82617 35.7588L 11.6543 28.4902L 13.2803 28.4902L 10.5117 38L 9.19336 38L 6.88184 30.793L 4.63184 38L 3.31348 38L 0.553711 28.4902L 2.1709 28.4902L 4.04297 35.6094L 6.25781 28.4902L 7.56738 28.4902L 9.82617 35.7588ZM 18.8877 38.1758C 17.5986 38.1758 16.5498 37.7539 15.7412 36.9102C 14.9326 36.0605 14.5283 34.9268 14.5283 33.5088L 14.5283 33.21C 14.5283 32.2666 14.707 31.4258 15.0645 30.6875C 15.4277 29.9434 15.9316 29.3633 16.5762 28.9473C 17.2266 28.5254 17.9297 28.3145 18.6855 28.3145C 19.9219 28.3145 20.8828 28.7217 21.5684 29.5361C 22.2539 30.3506 22.5967 31.5166 22.5967 33.0342L 22.5967 33.7109L 16.1543 33.7109C 16.1777 34.6484 16.4502 35.4072 16.9717 35.9873C 17.499 36.5615 18.167 36.8486 18.9756 36.8486C 19.5498 36.8486 20.0361 36.7314 20.4346 36.4971C 20.833 36.2627 21.1816 35.9521 21.4805 35.5654L 22.4736 36.3389C 21.6768 37.5635 20.4814 38.1758 18.8877 38.1758ZM 18.6855 29.6504C 18.0293 29.6504 17.4785 29.8906 17.0332 30.3711C 16.5879 30.8457 16.3125 31.5137 16.207 32.375L 20.9707 32.375L 20.9707 32.252C 20.9238 31.4258 20.7012 30.7871 20.3027 30.3359C 19.9043 29.8789 19.3652 29.6504 18.6855 29.6504ZM 26.2529 38L 24.627 38L 24.627 28.4902L 26.2529 28.4902L 26.2529 38ZM 24.4951 25.9678C 24.4951 25.7041 24.5742 25.4814 24.7324 25.2998C 24.8965 25.1182 25.1367 25.0273 25.4531 25.0273C 25.7695 25.0273 26.0098 25.1182 26.1738 25.2998C 26.3379 25.4814 26.4199 25.7041 26.4199 25.9678C 26.4199 26.2314 26.3379 26.4512 26.1738 26.627C 26.0098 26.8027 25.7695 26.8906 25.4531 26.8906C 25.1367 26.8906 24.8965 26.8027 24.7324 26.627C 24.5742 26.4512 24.4951 26.2314 24.4951 25.9678ZM 28.4766 33.166C 28.4766 31.6836 28.8193 30.5059 29.5049 29.6328C 30.1904 28.7539 31.0986 28.3145 32.2295 28.3145C 33.3896 28.3145 34.2949 28.7246 34.9453 29.5449L 35.0244 28.4902L 36.5098 28.4902L 36.5098 37.7715C 36.5098 39.002 36.1436 39.9717 35.4111 40.6807C 34.6846 41.3896 33.7061 41.7441 32.4756 41.7441C 31.79 41.7441 31.1191 41.5977 30.4629 41.3047C 29.8066 41.0117 29.3057 40.6104 28.96 40.1006L 29.8037 39.125C 30.501 39.9863 31.3535 40.417 32.3613 40.417C 33.1523 40.417 33.7676 40.1943 34.207 39.749C 34.6523 39.3037 34.875 38.6768 34.875 37.8682L 34.875 37.0508C 34.2246 37.8008 33.3369 38.1758 32.2119 38.1758C 31.0986 38.1758 30.1963 37.7275 29.5049 36.8311C 28.8193 35.9346 28.4766 34.7129 28.4766 33.166ZM 30.1113 33.3506C 30.1113 34.4229 30.3311 35.2666 30.7705 35.8818C 31.21 36.4912 31.8252 36.7959 32.6162 36.7959C 33.6416 36.7959 34.3945 36.3301 34.875 35.3984L 34.875 31.0566C 34.377 30.1484 33.6299 29.6943 32.6338 29.6943C 31.8428 29.6943 31.2246 30.002 30.7793 30.6172C 30.334 31.2324 30.1113 32.1436 30.1113 33.3506ZM 40.5967 29.6416C 41.3174 28.7568 42.2549 28.3145 43.4092 28.3145C 45.4189 28.3145 46.4326 29.4482 46.4502 31.7158L 46.4502 38L 44.8242 38L 44.8242 31.707C 44.8184 31.0215 44.6602 30.5146 44.3496 30.1865C 44.0449 29.8584 43.5674 29.6943 42.917 29.6943C 42.3896 29.6943 41.9268 29.835 41.5283 30.1162C 41.1299 30.3975 40.8193 30.7666 40.5967 31.2236L 40.5967 38L 38.9707 38L 38.9707 24.5L 40.5967 24.5L 40.5967 29.6416ZM 51.0908 26.1875L 51.0908 28.4902L 52.8662 28.4902L 52.8662 29.7471L 51.0908 29.7471L 51.0908 35.6445C 51.0908 36.0254 51.1699 36.3125 51.3281 36.5059C 51.4863 36.6934 51.7559 36.7871 52.1367 36.7871C 52.3242 36.7871 52.582 36.752 52.9102 36.6816L 52.9102 38C 52.4824 38.1172 52.0664 38.1758 51.6621 38.1758C 50.9355 38.1758 50.3877 37.9561 50.0186 37.5166C 49.6494 37.0771 49.4648 36.4531 49.4648 35.6445L 49.4648 29.7471L 47.7334 29.7471L 47.7334 28.4902L 49.4648 28.4902L 49.4648 26.1875L 51.0908 26.1875ZM 60.3105 35.4775C 60.3105 35.0381 60.1436 34.6982 59.8096 34.458C 59.4814 34.2119 58.9043 34.001 58.0781 33.8252C 57.2578 33.6494 56.6045 33.4385 56.1182 33.1924C 55.6377 32.9463 55.2803 32.6533 55.0459 32.3135C 54.8174 31.9736 54.7031 31.5693 54.7031 31.1006C 54.7031 30.3213 55.0312 29.6621 55.6875 29.123C 56.3496 28.584 57.1934 28.3145 58.2188 28.3145C 59.2969 28.3145 60.1699 28.5928 60.8379 29.1494C 61.5117 29.7061 61.8486 30.418 61.8486 31.2852L 60.2139 31.2852C 60.2139 30.8398 60.0234 30.4561 59.6426 30.1338C 59.2676 29.8115 58.793 29.6504 58.2188 29.6504C 57.627 29.6504 57.1641 29.7793 56.8301 30.0371C 56.4961 30.2949 56.3291 30.6318 56.3291 31.0479C 56.3291 31.4404 56.4844 31.7363 56.7949 31.9355C 57.1055 32.1348 57.665 32.3252 58.4736 32.5068C 59.2881 32.6885 59.9473 32.9053 60.4512 33.1572C 60.9551 33.4092 61.3271 33.7139 61.5674 34.0713C 61.8135 34.4229 61.9365 34.8535 61.9365 35.3633C 61.9365 36.2129 61.5967 36.8955 60.917 37.4111C 60.2373 37.9209 59.3555 38.1758 58.2715 38.1758C 57.5098 38.1758 56.8359 38.041 56.25 37.7715C 55.6641 37.502 55.2041 37.127 54.8701 36.6465C 54.542 36.1602 54.3779 35.6357 54.3779 35.0732L 56.0039 35.0732C 56.0332 35.6182 56.25 36.0518 56.6543 36.374C 57.0645 36.6904 57.6035 36.8486 58.2715 36.8486C 58.8867 36.8486 59.3789 36.7256 59.748 36.4795C 60.123 36.2275 60.3105 35.8936 60.3105 35.4775Z"/>
<path id="path47_fill" d="M 1.46387 11.8057C 1.46387 10.4814 1.63965 9.20996 1.99121 7.99121C 2.34863 6.77246 2.87891 5.66504 3.58203 4.66895C 4.28516 3.67285 5.01465 2.96973 5.77051 2.55957L 6.10449 3.63184C 5.24902 4.28809 4.5459 5.29004 3.99512 6.6377C 3.4502 7.98535 3.15137 9.49414 3.09863 11.1641L 3.08984 11.9111C 3.08984 14.1729 3.50293 16.1357 4.3291 17.7998C 4.82715 18.7959 5.41895 19.5752 6.10449 20.1377L 5.77051 21.1309C 4.99121 20.6973 4.24707 19.9707 3.53809 18.9512C 2.15527 16.959 1.46387 14.5771 1.46387 11.8057ZM 11.4307 11.8936C 11.4307 13.2002 11.2578 14.4541 10.9121 15.6553C 10.5723 16.8506 10.0479 17.9551 9.33887 18.9688C 8.63574 19.9824 7.89746 20.7031 7.12402 21.1309L 6.78125 20.1377C 7.68359 19.4463 8.40723 18.374 8.95215 16.9209C 9.50293 15.4619 9.78418 13.8447 9.7959 12.0693L 9.7959 11.7881C 9.7959 10.5576 9.66699 9.41504 9.40918 8.36035C 9.15137 7.2998 8.79102 6.35059 8.32812 5.5127C 7.87109 4.6748 7.35547 4.02148 6.78125 3.55273L 7.12402 2.55957C 7.89746 2.9873 8.63281 3.70215 9.33008 4.7041C 10.0332 5.70605 10.5576 6.81055 10.9033 8.01758C 11.2549 9.22461 11.4307 10.5166 11.4307 11.8936Z"/>
<path id="path48_stroke" d="M 0 0L 33 0L 33 -0.5L 0 -0.5L 0 0Z"/>
<path id="path49_fill" d="M 10.4834 8.83496L 7.9873 8.83496C 9.15918 9.70215 9.74512 10.9355 9.74512 12.5352L 9.74512 12.6846C 9.74512 13.5049 9.56641 14.2607 9.20898 14.9521C 8.85156 15.6377 8.34766 16.1797 7.69727 16.5781C 7.05273 16.9766 6.32031 17.1758 5.5 17.1758C 4.22266 17.1758 3.19434 16.7334 2.41504 15.8486C 1.63574 14.958 1.24609 13.7656 1.24609 12.2715L 1.24609 12.1572C 1.24609 11.2666 1.41895 10.4668 1.76465 9.75781C 2.11035 9.04883 2.59961 8.49512 3.23242 8.09668C 3.87109 7.69824 4.60059 7.49609 5.4209 7.49023L 10.4834 7.49023L 10.4834 8.83496ZM 2.88086 12.3506C 2.88086 13.4229 3.11523 14.2754 3.58398 14.9082C 4.05273 15.5352 4.69141 15.8486 5.5 15.8486C 6.31445 15.8486 6.95312 15.5322 7.41602 14.8994C 7.88477 14.2607 8.11914 13.3467 8.11914 12.1572C 8.11914 11.1494 7.88184 10.3438 7.40723 9.74023C 6.93848 9.13672 6.29688 8.83496 5.48242 8.83496C 4.67969 8.83496 4.04395 9.13379 3.5752 9.73145C 3.1123 10.3291 2.88086 11.2021 2.88086 12.3506Z"/>
<path id="path50_fill" d="M 10.4834 8.83496L 7.9873 8.83496C 9.15918 9.70215 9.74512 10.9355 9.74512 12.5352L 9.74512 12.6846C 9.74512 13.5049 9.56641 14.2607 9.20898 14.9521C 8.85156 15.6377 8.34766 16.1797 7.69727 16.5781C 7.05273 16.9766 6.32031 17.1758 5.5 17.1758C 4.22266 17.1758 3.19434 16.7334 2.41504 15.8486C 1.63574 14.958 1.24609 13.7656 1.24609 12.2715L 1.24609 12.1572C 1.24609 11.2666 1.41895 10.4668 1.76465 9.75781C 2.11035 9.04883 2.59961 8.49512 3.23242 8.09668C 3.87109 7.69824 4.60059 7.49609 5.4209 7.49023L 10.4834 7.49023L 10.4834 8.83496ZM 2.88086 12.3506C 2.88086 13.4229 3.11523 14.2754 3.58398 14.9082C 4.05273 15.5352 4.69141 15.8486 5.5 15.8486C 6.31445 15.8486 6.95312 15.5322 7.41602 14.8994C 7.88477 14.2607 8.11914 13.3467 8.11914 12.1572C 8.11914 11.1494 7.88184 10.3438 7.40723 9.74023C 6.93848 9.13672 6.29688 8.83496 5.48242 8.83496C 4.67969 8.83496 4.04395 9.13379 3.5752 9.73145C 3.1123 10.3291 2.88086 11.2021 2.88086 12.3506Z"/>
</defs>
</svg>

