<svg width="449" height="257" viewBox="0 0 449 257" version="1.1" xmlns="http://www.w3.org/2000/svg" xmlns:xlink="http://www.w3.org/1999/xlink">
<title>Group.svg</title>
<desc>Created using Figma</desc>
<g id="Canvas" transform="translate(240 142)">
<g id="Group">
<g id="X">
<use xlink:href="#path0_fill" transform="translate(-88 95)"/>
</g>
<g id="a">
<use xlink:href="#path1_fill" transform="translate(37 95)"/>
</g>
<g id="Line">
<use xlink:href="#path2_stroke" transform="matrix(6.12323e-17 1 -1 6.12323e-17 -170 -23)"/>
</g>
<g id="Line">
<use xlink:href="#path2_stroke" transform="matrix(6.12323e-17 1 -1 6.12323e-17 -19 -23)"/>
</g>
<g id="Line 2">
<use xlink:href="#path3_stroke" transform="translate(-170 -23)"/>
</g>
<g id="Line 2">
<use xlink:href="#path3_stroke" transform="translate(-170 83)"/>
</g>
<g id="Line">
<use xlink:href="#path2_stroke" transform="matrix(6.12323e-17 1 -1 6.12323e-17 154 -23)"/>
</g>
<g id="Line 2">
<use xlink:href="#path3_stroke" transform="translate(154 -23)"/>
</g>
<g id="Line 2">
<use xlink:href="#path3_stroke" transform="translate(154 83)"/>
</g>
<g id="Line">
<use xlink:href="#path4_stroke" transform="matrix(6.12323e-17 1 -1 6.12323e-17 -10 9)"/>
</g>
<g id="Line">
<use xlink:href="#path4_stroke" transform="matrix(6.12323e-17 1 -1 6.12323e-17 102 8)"/>
</g>
<g id="Line 2">
<use xlink:href="#path3_stroke" transform="translate(-10 9)"/>
</g>
<g id="Line 2">
<use xlink:href="#path3_stroke" transform="translate(-10 38)"/>
</g>
<g id="Line 2">
<use xlink:href="#path3_stroke" transform="matrix(-1 1.22465e-16 -1.22465e-16 -1 103 37)"/>
</g>
<g id="Line 2">
<use xlink:href="#path3_stroke" transform="matrix(-1 1.22465e-16 -1.22465e-16 -1 103 8)"/>
</g>
<g id="Line 2">
<use xlink:href="#path3_stroke" transform="translate(-24 83)"/>
</g>
<g id="Line 2">
<use xlink:href="#path3_stroke" transform="translate(-23 -23)"/>
</g>
<g id="Line">
<use xlink:href="#path2_stroke" transform="matrix(6.12323e-17 1 -1 6.12323e-17 208 -23)"/>
</g>
<g id="Line 2">
<use xlink:href="#path3_stroke" transform="translate(203 83)"/>
</g>
<g id="Line 2">
<use xlink:href="#path3_stroke" transform="translate(204 -23)"/>
</g>
<g id="x x ... x">
<use xlink:href="#path5_fill" transform="translate(-123 -44)"/>
</g>
<g id="1 2 n">
<use xlink:href="#path6_fill" transform="translate(-115 -36)" fill="#2F80ED"/>
<use xlink:href="#path7_fill" transform="translate(-115 -36)"/>
</g>
<g id="0 1 2 n">
<use xlink:href="#path8_fill" transform="translate(10 23)" fill="#2F80ED"/>
<use xlink:href="#path9_fill" transform="translate(10 23)"/>
</g>
<g id="99 95 30 ... 70">
<use xlink:href="#path10_fill" transform="translate(-126 -16)"/>
</g>
<g id="1 1 1 ... 1">
<use xlink:href="#path11_fill" transform="translate(-153 -16)"/>
</g>
<g id="50 31 20 ... 15">
<use xlink:href="#path12_fill" transform="translate(-96 -16)"/>
</g>
<g id="50 31 20 ... 15">
<use xlink:href="#path12_fill" transform="translate(-53 -16)"/>
</g>
<g id="... ... ... ... ...">
<use xlink:href="#path13_fill" transform="translate(-72 -16)"/>
</g>
<g id="Training Data">
<use xlink:href="#path14_fill" transform="translate(-149 -145)"/>
</g>
<g id="Parameters">
<use xlink:href="#path15_fill" transform="translate(5 -145)"/>
</g>
<g id="Labels">
<use xlink:href="#path16_fill" transform="translate(156 -145)"/>
</g>
<g id="m rows">
<use xlink:href="#path17_fill" transform="translate(-241 11)"/>
<use xlink:href="#path18_fill" transform="translate(-241 11)" fill="#333333"/>
</g>
<g id="n columns">
<use xlink:href="#path19_fill" transform="translate(-117 -79)"/>
<use xlink:href="#path20_fill" transform="translate(-117 -79)" fill="#2F80ED"/>
</g>
<g id="n columns">
<use xlink:href="#path21_fill" transform="translate(5 -80)"/>
<use xlink:href="#path22_fill" transform="translate(5 -80)" fill="#2F80ED"/>
</g>
<g id="a a a ... a">
<use xlink:href="#path23_fill" transform="translate(1 12)"/>
</g>
<g id="=">
<use xlink:href="#path24_fill" transform="translate(128 14)"/>
</g>
<g id="y">
<use xlink:href="#path25_fill" transform="translate(176 94)"/>
</g>
<g id="^">
<use xlink:href="#path26_fill" transform="translate(177 88)"/>
</g>
<g id="100 250 108 ... 19">
<use xlink:href="#path27_fill" transform="translate(169 -16)"/>
</g>
<g id="Line 3">
<use xlink:href="#path28_stroke" transform="translate(-170 -119)"/>
</g>
<g id="Line 4">
<use xlink:href="#path29_stroke" transform="translate(-10 -119)"/>
</g>
<g id="Line 5">
<use xlink:href="#path30_stroke" transform="translate(154 -119)"/>
</g>
<g id="Line 6">
<use xlink:href="#path3_stroke" transform="matrix(6.12323e-17 1 -1 6.12323e-17 -170 -119)"/>
</g>
<g id="Line 6">
<use xlink:href="#path3_stroke" transform="matrix(6.12323e-17 1 -1 6.12323e-17 -19 -119)"/>
</g>
<g id="Line 6">
<use xlink:href="#path3_stroke" transform="matrix(6.12323e-17 1 -1 6.12323e-17 -10 -119)"/>
</g>
<g id="Line 6">
<use xlink:href="#path3_stroke" transform="matrix(6.12323e-17 1 -1 6.12323e-17 100 -119)"/>
</g>
<g id="Line 6">
<use xlink:href="#path3_stroke" transform="matrix(6.12323e-17 1 -1 6.12323e-17 154 -119)"/>
</g>
<g id="Line 6">
<use xlink:href="#path3_stroke" transform="matrix(6.12323e-17 1 -1 6.12323e-17 203 -119)"/>
</g>
</g>
</g>
<defs>
<path id="path0_fill" d="M 5.66016 9.10742L 8.72754 4.20312L 10.7139 4.20312L 6.6709 10.5488L 10.8105 17L 8.80664 17L 5.66016 12.0078L 2.49609 17L 0.500977 17L 4.64941 10.5488L 0.597656 4.20312L 2.5752 4.20312L 5.66016 9.10742Z"/>
<path id="path1_fill" d="M 7.10156 17C 7.00781 16.8125 6.93164 16.4785 6.87305 15.998C 6.11719 16.7832 5.21484 17.1758 4.16602 17.1758C 3.22852 17.1758 2.45801 16.9121 1.85449 16.3848C 1.25684 15.8516 0.958008 15.1777 0.958008 14.3633C 0.958008 13.373 1.33301 12.6055 2.08301 12.0605C 2.83887 11.5098 3.89941 11.2344 5.26465 11.2344L 6.84668 11.2344L 6.84668 10.4873C 6.84668 9.91895 6.67676 9.46777 6.33691 9.13379C 5.99707 8.79395 5.49609 8.62402 4.83398 8.62402C 4.25391 8.62402 3.76758 8.77051 3.375 9.06348C 2.98242 9.35645 2.78613 9.71094 2.78613 10.127L 1.15137 10.127C 1.15137 9.65234 1.31836 9.19531 1.65234 8.75586C 1.99219 8.31055 2.44922 7.95898 3.02344 7.70117C 3.60352 7.44336 4.23926 7.31445 4.93066 7.31445C 6.02637 7.31445 6.88477 7.58984 7.50586 8.14062C 8.12695 8.68555 8.44922 9.43848 8.47266 10.3994L 8.47266 14.7764C 8.47266 15.6494 8.58398 16.3438 8.80664 16.8594L 8.80664 17L 7.10156 17ZM 4.40332 15.7607C 4.91309 15.7607 5.39648 15.6289 5.85352 15.3652C 6.31055 15.1016 6.6416 14.7588 6.84668 14.3369L 6.84668 12.3857L 5.57227 12.3857C 3.58008 12.3857 2.58398 12.9688 2.58398 14.1348C 2.58398 14.6445 2.75391 15.043 3.09375 15.3301C 3.43359 15.6172 3.87012 15.7607 4.40332 15.7607Z"/>
<path id="path2_stroke" d="M 0 0L 106 0L 106 -1L 0 -1L 0 0Z"/>
<path id="path3_stroke" d="M 0 0L 5 0L 5 -1L 0 -1L 0 0Z"/>
<path id="path4_stroke" d="M 0 0L 29 0L 29 -1L 0 -1L 0 0Z"/>
<path id="path5_fill" d="M 3.43848 8.30371L 5.0791 5.60352L 6.55566 5.60352L 4.13574 9.26074L 6.63086 13L 5.16797 13L 3.45898 10.2314L 1.75 13L 0.280273 13L 2.77539 9.26074L 0.355469 5.60352L 1.81836 5.60352L 3.43848 8.30371ZM 34.6924 8.30371L 36.333 5.60352L 37.8096 5.60352L 35.3896 9.26074L 37.8848 13L 36.4219 13L 34.7129 10.2314L 33.0039 13L 31.5342 13L 34.0293 9.26074L 31.6094 5.60352L 33.0723 5.60352L 34.6924 8.30371ZM 53.0742 12.3369C 53.0742 12.1182 53.138 11.9359 53.2656 11.79C 53.3978 11.6442 53.5938 11.5713 53.8535 11.5713C 54.1133 11.5713 54.3092 11.6442 54.4414 11.79C 54.5781 11.9359 54.6465 12.1182 54.6465 12.3369C 54.6465 12.5465 54.5781 12.722 54.4414 12.8633C 54.3092 13.0046 54.1133 13.0752 53.8535 13.0752C 53.5938 13.0752 53.3978 13.0046 53.2656 12.8633C 53.138 12.722 53.0742 12.5465 53.0742 12.3369ZM 56.7656 12.3369C 56.7656 12.1182 56.8294 11.9359 56.957 11.79C 57.0892 11.6442 57.2852 11.5713 57.5449 11.5713C 57.8047 11.5713 58.0007 11.6442 58.1328 11.79C 58.2695 11.9359 58.3379 12.1182 58.3379 12.3369C 58.3379 12.5465 58.2695 12.722 58.1328 12.8633C 58.0007 13.0046 57.8047 13.0752 57.5449 13.0752C 57.2852 13.0752 57.0892 13.0046 56.957 12.8633C 56.8294 12.722 56.7656 12.5465 56.7656 12.3369ZM 60.457 12.3369C 60.457 12.1182 60.5208 11.9359 60.6484 11.79C 60.7806 11.6442 60.9766 11.5713 61.2363 11.5713C 61.4961 11.5713 61.6921 11.6442 61.8242 11.79C 61.9609 11.9359 62.0293 12.1182 62.0293 12.3369C 62.0293 12.5465 61.9609 12.722 61.8242 12.8633C 61.6921 13.0046 61.4961 13.0752 61.2363 13.0752C 60.9766 13.0752 60.7806 13.0046 60.6484 12.8633C 60.5208 12.722 60.457 12.5465 60.457 12.3369ZM 73.5479 8.30371L 75.1885 5.60352L 76.665 5.60352L 74.2451 9.26074L 76.7402 13L 75.2773 13L 73.5684 10.2314L 71.8594 13L 70.3896 13L 72.8848 9.26074L 70.4648 5.60352L 71.9277 5.60352L 73.5479 8.30371Z"/>
<path id="path6_fill" d="M 72.2998 3.7168L 72.3291 4.38086C 72.7327 3.87305 73.2601 3.61914 73.9111 3.61914C 75.0277 3.61914 75.5908 4.24902 75.6006 5.50879L 75.6006 9L 74.6973 9L 74.6973 5.50391C 74.694 5.12305 74.6061 4.84147 74.4336 4.65918C 74.2643 4.47689 73.999 4.38574 73.6377 4.38574C 73.3447 4.38574 73.0876 4.46387 72.8662 4.62012C 72.6449 4.77637 72.4723 4.98145 72.3486 5.23535L 72.3486 9L 71.4453 9L 71.4453 3.7168L 72.2998 3.7168Z"/>
<path id="path7_fill" d="M 3.55957 9L 2.65137 9L 2.65137 2.97949L 0.830078 3.64844L 0.830078 2.82812L 3.41797 1.85645L 3.55957 1.85645L 3.55957 9ZM 35.6689 9L 31.0107 9L 31.0107 8.35059L 33.4717 5.61621C 33.8363 5.2028 34.0869 4.86751 34.2236 4.61035C 34.3636 4.34993 34.4336 4.08138 34.4336 3.80469C 34.4336 3.43359 34.3213 3.12923 34.0967 2.8916C 33.8721 2.65397 33.5726 2.53516 33.1982 2.53516C 32.749 2.53516 32.3991 2.66374 32.1484 2.9209C 31.901 3.1748 31.7773 3.52962 31.7773 3.98535L 30.874 3.98535C 30.874 3.33105 31.084 2.80208 31.5039 2.39844C 31.9271 1.99479 32.4919 1.79297 33.1982 1.79297C 33.859 1.79297 34.3815 1.96712 34.7656 2.31543C 35.1497 2.66048 35.3418 3.12109 35.3418 3.69727C 35.3418 4.39714 34.8958 5.23047 34.0039 6.19727L 32.0996 8.2627L 35.6689 8.2627L 35.6689 9Z"/>
<path id="path8_fill" d="M 80.3955 3.7168L 80.4248 4.38086C 80.8285 3.87305 81.3558 3.61914 82.0068 3.61914C 83.1234 3.61914 83.6865 4.24902 83.6963 5.50879L 83.6963 9L 82.793 9L 82.793 5.50391C 82.7897 5.12305 82.7018 4.84147 82.5293 4.65918C 82.36 4.47689 82.0947 4.38574 81.7334 4.38574C 81.4404 4.38574 81.1833 4.46387 80.9619 4.62012C 80.7406 4.77637 80.568 4.98145 80.4443 5.23535L 80.4443 9L 79.541 9L 79.541 3.7168L 80.3955 3.7168Z"/>
<path id="path9_fill" d="M 5.04883 5.96777C 5.04883 7.02572 4.86816 7.81185 4.50684 8.32617C 4.14551 8.84049 3.58073 9.09766 2.8125 9.09766C 2.05404 9.09766 1.49251 8.84701 1.12793 8.3457C 0.763346 7.84115 0.574544 7.08919 0.561523 6.08984L 0.561523 4.88379C 0.561523 3.83887 0.742188 3.0625 1.10352 2.55469C 1.46484 2.04688 2.03125 1.79297 2.80273 1.79297C 3.56771 1.79297 4.13086 2.03874 4.49219 2.53027C 4.85352 3.01855 5.03906 3.77376 5.04883 4.7959L 5.04883 5.96777ZM 4.14551 4.73242C 4.14551 3.96745 4.03809 3.41081 3.82324 3.0625C 3.6084 2.71094 3.26823 2.53516 2.80273 2.53516C 2.34049 2.53516 2.00358 2.70931 1.79199 3.05762C 1.5804 3.40592 1.47135 3.94141 1.46484 4.66406L 1.46484 6.10938C 1.46484 6.8776 1.57552 7.44564 1.79688 7.81348C 2.02148 8.17806 2.36003 8.36035 2.8125 8.36035C 3.25846 8.36035 3.58887 8.18783 3.80371 7.84277C 4.02181 7.49772 4.13574 6.9541 4.14551 6.21191L 4.14551 4.73242ZM 24.0576 9L 23.1494 9L 23.1494 2.97949L 21.3281 3.64844L 21.3281 2.82812L 23.916 1.85645L 24.0576 1.85645L 24.0576 9ZM 46.2451 9L 41.5869 9L 41.5869 8.35059L 44.0479 5.61621C 44.4124 5.2028 44.6631 4.86751 44.7998 4.61035C 44.9398 4.34993 45.0098 4.08138 45.0098 3.80469C 45.0098 3.43359 44.8975 3.12923 44.6729 2.8916C 44.4482 2.65397 44.1488 2.53516 43.7744 2.53516C 43.3252 2.53516 42.9753 2.66374 42.7246 2.9209C 42.4772 3.1748 42.3535 3.52962 42.3535 3.98535L 41.4502 3.98535C 41.4502 3.33105 41.6602 2.80208 42.0801 2.39844C 42.5033 1.99479 43.068 1.79297 43.7744 1.79297C 44.4352 1.79297 44.9577 1.96712 45.3418 2.31543C 45.7259 2.66048 45.918 3.12109 45.918 3.69727C 45.918 4.39714 45.472 5.23047 44.5801 6.19727L 42.6758 8.2627L 46.2451 8.2627L 46.2451 9Z"/>
<path id="path10_fill" d="M 6.5 10C 6.19792 10.3594 5.83594 10.6484 5.41406 10.8672C 4.9974 11.0859 4.53906 11.1953 4.03906 11.1953C 3.38281 11.1953 2.8099 11.0339 2.32031 10.7109C 1.83594 10.388 1.46094 9.9349 1.19531 9.35156C 0.929688 8.76302 0.796875 8.11458 0.796875 7.40625C 0.796875 6.64583 0.940104 5.96094 1.22656 5.35156C 1.51823 4.74219 1.92969 4.27604 2.46094 3.95312C 2.99219 3.63021 3.61198 3.46875 4.32031 3.46875C 5.44531 3.46875 6.33073 3.89062 6.97656 4.73438C 7.6276 5.57292 7.95312 6.71875 7.95312 8.17188L 7.95312 8.59375C 7.95312 10.8073 7.51562 12.4245 6.64062 13.4453C 5.76562 14.4609 4.44531 14.9818 2.67969 15.0078L 2.39844 15.0078L 2.39844 13.7891L 2.70312 13.7891C 3.89583 13.7682 4.8125 13.4583 5.45312 12.8594C 6.09375 12.2552 6.44271 11.3021 6.5 10ZM 4.27344 10C 4.75781 10 5.20312 9.85156 5.60938 9.55469C 6.02083 9.25781 6.32031 8.89062 6.50781 8.45312L 6.50781 7.875C 6.50781 6.92708 6.30208 6.15625 5.89062 5.5625C 5.47917 4.96875 4.95833 4.67188 4.32812 4.67188C 3.69271 4.67188 3.18229 4.91667 2.79688 5.40625C 2.41146 5.89062 2.21875 6.53125 2.21875 7.32812C 2.21875 8.10417 2.40365 8.74479 2.77344 9.25C 3.14844 9.75 3.64844 10 4.27344 10ZM 15.4844 10C 15.1823 10.3594 14.8203 10.6484 14.3984 10.8672C 13.9818 11.0859 13.5234 11.1953 13.0234 11.1953C 12.3672 11.1953 11.7943 11.0339 11.3047 10.7109C 10.8203 10.388 10.4453 9.9349 10.1797 9.35156C 9.91406 8.76302 9.78125 8.11458 9.78125 7.40625C 9.78125 6.64583 9.92448 5.96094 10.2109 5.35156C 10.5026 4.74219 10.9141 4.27604 11.4453 3.95312C 11.9766 3.63021 12.5964 3.46875 13.3047 3.46875C 14.4297 3.46875 15.3151 3.89062 15.9609 4.73438C 16.612 5.57292 16.9375 6.71875 16.9375 8.17188L 16.9375 8.59375C 16.9375 10.8073 16.5 12.4245 15.625 13.4453C 14.75 14.4609 13.4297 14.9818 11.6641 15.0078L 11.3828 15.0078L 11.3828 13.7891L 11.6875 13.7891C 12.8802 13.7682 13.7969 13.4583 14.4375 12.8594C 15.0781 12.2552 15.4271 11.3021 15.4844 10ZM 13.2578 10C 13.7422 10 14.1875 9.85156 14.5938 9.55469C 15.0052 9.25781 15.3047 8.89062 15.4922 8.45312L 15.4922 7.875C 15.4922 6.92708 15.2865 6.15625 14.875 5.5625C 14.4635 4.96875 13.9427 4.67188 13.3125 4.67188C 12.6771 4.67188 12.1667 4.91667 11.7812 5.40625C 11.3958 5.89062 11.2031 6.53125 11.2031 7.32812C 11.2031 8.10417 11.388 8.74479 11.7578 9.25C 12.1328 9.75 12.6328 10 13.2578 10ZM 6.5 29C 6.19792 29.3594 5.83594 29.6484 5.41406 29.8672C 4.9974 30.0859 4.53906 30.1953 4.03906 30.1953C 3.38281 30.1953 2.8099 30.0339 2.32031 29.7109C 1.83594 29.388 1.46094 28.9349 1.19531 28.3516C 0.929688 27.763 0.796875 27.1146 0.796875 26.4062C 0.796875 25.6458 0.940104 24.9609 1.22656 24.3516C 1.51823 23.7422 1.92969 23.276 2.46094 22.9531C 2.99219 22.6302 3.61198 22.4688 4.32031 22.4688C 5.44531 22.4688 6.33073 22.8906 6.97656 23.7344C 7.6276 24.5729 7.95312 25.7188 7.95312 27.1719L 7.95312 27.5938C 7.95312 29.8073 7.51562 31.4245 6.64062 32.4453C 5.76562 33.4609 4.44531 33.9818 2.67969 34.0078L 2.39844 34.0078L 2.39844 32.7891L 2.70312 32.7891C 3.89583 32.7682 4.8125 32.4583 5.45312 31.8594C 6.09375 31.2552 6.44271 30.3021 6.5 29ZM 4.27344 29C 4.75781 29 5.20312 28.8516 5.60938 28.5547C 6.02083 28.2578 6.32031 27.8906 6.50781 27.4531L 6.50781 26.875C 6.50781 25.9271 6.30208 25.1562 5.89062 24.5625C 5.47917 23.9688 4.95833 23.6719 4.32812 23.6719C 3.69271 23.6719 3.18229 23.9167 2.79688 24.4062C 2.41146 24.8906 2.21875 25.5312 2.21875 26.3281C 2.21875 27.1042 2.40365 27.7448 2.77344 28.25C 3.14844 28.75 3.64844 29 4.27344 29ZM 10.6094 28.2969L 11.1875 22.625L 17.0156 22.625L 17.0156 23.9609L 12.4141 23.9609L 12.0703 27.0625C 12.6276 26.7344 13.2604 26.5703 13.9688 26.5703C 15.0052 26.5703 15.8281 26.9141 16.4375 27.6016C 17.0469 28.2839 17.3516 29.2083 17.3516 30.375C 17.3516 31.5469 17.0339 32.4714 16.3984 33.1484C 15.7682 33.8203 14.8854 34.1562 13.75 34.1562C 12.7448 34.1562 11.9245 33.8776 11.2891 33.3203C 10.6536 32.763 10.2917 31.9922 10.2031 31.0078L 11.5703 31.0078C 11.6589 31.6589 11.8906 32.151 12.2656 32.4844C 12.6406 32.8125 13.1354 32.9766 13.75 32.9766C 14.4219 32.9766 14.9479 32.7474 15.3281 32.2891C 15.7135 31.8307 15.9062 31.1979 15.9062 30.3906C 15.9062 29.6302 15.6979 29.0208 15.2812 28.5625C 14.8698 28.099 14.3203 27.8672 13.6328 27.8672C 13.0026 27.8672 12.5078 28.0052 12.1484 28.2812L 11.7656 28.5938L 10.6094 28.2969ZM 3.0625 45.6094L 4.14844 45.6094C 4.83073 45.599 5.36719 45.4193 5.75781 45.0703C 6.14844 44.7214 6.34375 44.25 6.34375 43.6562C 6.34375 42.3229 5.67969 41.6562 4.35156 41.6562C 3.72656 41.6562 3.22656 41.8359 2.85156 42.1953C 2.48177 42.5495 2.29688 43.0208 2.29688 43.6094L 0.851562 43.6094C 0.851562 42.7083 1.17969 41.9609 1.83594 41.3672C 2.4974 40.7682 3.33594 40.4688 4.35156 40.4688C 5.42448 40.4688 6.26562 40.7526 6.875 41.3203C 7.48438 41.888 7.78906 42.6771 7.78906 43.6875C 7.78906 44.1823 7.6276 44.6615 7.30469 45.125C 6.98698 45.5885 6.55208 45.9349 6 46.1641C 6.625 46.362 7.10677 46.6901 7.44531 47.1484C 7.78906 47.6068 7.96094 48.1667 7.96094 48.8281C 7.96094 49.849 7.6276 50.6589 6.96094 51.2578C 6.29427 51.8568 5.42708 52.1562 4.35938 52.1562C 3.29167 52.1562 2.42188 51.8672 1.75 51.2891C 1.08333 50.7109 0.75 49.9479 0.75 49L 2.20312 49C 2.20312 49.599 2.39844 50.0781 2.78906 50.4375C 3.17969 50.7969 3.70312 50.9766 4.35938 50.9766C 5.05729 50.9766 5.59115 50.7943 5.96094 50.4297C 6.33073 50.0651 6.51562 49.5417 6.51562 48.8594C 6.51562 48.1979 6.3125 47.6901 5.90625 47.3359C 5.5 46.9818 4.91406 46.7995 4.14844 46.7891L 3.0625 46.7891L 3.0625 45.6094ZM 17.0781 47.1484C 17.0781 48.8411 16.7891 50.099 16.2109 50.9219C 15.6328 51.7448 14.7292 52.1562 13.5 52.1562C 12.2865 52.1562 11.388 51.7552 10.8047 50.9531C 10.2214 50.1458 9.91927 48.9427 9.89844 47.3438L 9.89844 45.4141C 9.89844 43.7422 10.1875 42.5 10.7656 41.6875C 11.3438 40.875 12.25 40.4688 13.4844 40.4688C 14.7083 40.4688 15.6094 40.862 16.1875 41.6484C 16.7656 42.4297 17.0625 43.638 17.0781 45.2734L 17.0781 47.1484ZM 15.6328 45.1719C 15.6328 43.9479 15.4609 43.0573 15.1172 42.5C 14.7734 41.9375 14.2292 41.6562 13.4844 41.6562C 12.7448 41.6562 12.2057 41.9349 11.8672 42.4922C 11.5286 43.0495 11.3542 43.9062 11.3438 45.0625L 11.3438 47.375C 11.3438 48.6042 11.5208 49.513 11.875 50.1016C 12.2344 50.6849 12.776 50.9766 13.5 50.9766C 14.2135 50.9766 14.7422 50.7005 15.0859 50.1484C 15.4349 49.5964 15.6172 48.7266 15.6328 47.5391L 15.6328 45.1719ZM 3.79688 70.2422C 3.79688 69.9922 3.86979 69.7839 4.01562 69.6172C 4.16667 69.4505 4.39062 69.3672 4.6875 69.3672C 4.98438 69.3672 5.20833 69.4505 5.35938 69.6172C 5.51562 69.7839 5.59375 69.9922 5.59375 70.2422C 5.59375 70.4818 5.51562 70.6823 5.35938 70.8438C 5.20833 71.0052 4.98438 71.0859 4.6875 71.0859C 4.39062 71.0859 4.16667 71.0052 4.01562 70.8438C 3.86979 70.6823 3.79688 70.4818 3.79688 70.2422ZM 8.01562 70.2422C 8.01562 69.9922 8.08854 69.7839 8.23438 69.6172C 8.38542 69.4505 8.60938 69.3672 8.90625 69.3672C 9.20312 69.3672 9.42708 69.4505 9.57812 69.6172C 9.73438 69.7839 9.8125 69.9922 9.8125 70.2422C 9.8125 70.4818 9.73438 70.6823 9.57812 70.8438C 9.42708 71.0052 9.20312 71.0859 8.90625 71.0859C 8.60938 71.0859 8.38542 71.0052 8.23438 70.8438C 8.08854 70.6823 8.01562 70.4818 8.01562 70.2422ZM 12.2344 70.2422C 12.2344 69.9922 12.3073 69.7839 12.4531 69.6172C 12.6042 69.4505 12.8281 69.3672 13.125 69.3672C 13.4219 69.3672 13.6458 69.4505 13.7969 69.6172C 13.9531 69.7839 14.0312 69.9922 14.0312 70.2422C 14.0312 70.4818 13.9531 70.6823 13.7969 70.8438C 13.6458 71.0052 13.4219 71.0859 13.125 71.0859C 12.8281 71.0859 12.6042 71.0052 12.4531 70.8438C 12.3073 70.6823 12.2344 70.4818 12.2344 70.2422ZM 8.30469 79.4375L 3.59375 90L 2.07812 90L 6.77344 79.8125L 0.617188 79.8125L 0.617188 78.625L 8.30469 78.625L 8.30469 79.4375ZM 17.0781 85.1484C 17.0781 86.8411 16.7891 88.099 16.2109 88.9219C 15.6328 89.7448 14.7292 90.1562 13.5 90.1562C 12.2865 90.1562 11.388 89.7552 10.8047 88.9531C 10.2214 88.1458 9.91927 86.9427 9.89844 85.3438L 9.89844 83.4141C 9.89844 81.7422 10.1875 80.5 10.7656 79.6875C 11.3438 78.875 12.25 78.4688 13.4844 78.4688C 14.7083 78.4688 15.6094 78.862 16.1875 79.6484C 16.7656 80.4297 17.0625 81.638 17.0781 83.2734L 17.0781 85.1484ZM 15.6328 83.1719C 15.6328 81.9479 15.4609 81.0573 15.1172 80.5C 14.7734 79.9375 14.2292 79.6562 13.4844 79.6562C 12.7448 79.6562 12.2057 79.9349 11.8672 80.4922C 11.5286 81.0495 11.3542 81.9062 11.3438 83.0625L 11.3438 85.375C 11.3438 86.6042 11.5208 87.513 11.875 88.1016C 12.2344 88.6849 12.776 88.9766 13.5 88.9766C 14.2135 88.9766 14.7422 88.7005 15.0859 88.1484C 15.4349 87.5964 15.6172 86.7266 15.6328 85.5391L 15.6328 83.1719Z"/>
<path id="path11_fill" d="M 7.70312 15L 6.25 15L 6.25 5.36719L 3.33594 6.4375L 3.33594 5.125L 7.47656 3.57031L 7.70312 3.57031L 7.70312 15ZM 7.70312 34L 6.25 34L 6.25 24.3672L 3.33594 25.4375L 3.33594 24.125L 7.47656 22.5703L 7.70312 22.5703L 7.70312 34ZM 7.70312 52L 6.25 52L 6.25 42.3672L 3.33594 43.4375L 3.33594 42.125L 7.47656 40.5703L 7.70312 40.5703L 7.70312 52ZM 1.29688 70.2422C 1.29688 69.9922 1.36979 69.7839 1.51562 69.6172C 1.66667 69.4505 1.89062 69.3672 2.1875 69.3672C 2.48438 69.3672 2.70833 69.4505 2.85938 69.6172C 3.01562 69.7839 3.09375 69.9922 3.09375 70.2422C 3.09375 70.4818 3.01562 70.6823 2.85938 70.8438C 2.70833 71.0052 2.48438 71.0859 2.1875 71.0859C 1.89062 71.0859 1.66667 71.0052 1.51562 70.8438C 1.36979 70.6823 1.29688 70.4818 1.29688 70.2422ZM 5.51562 70.2422C 5.51562 69.9922 5.58854 69.7839 5.73438 69.6172C 5.88542 69.4505 6.10938 69.3672 6.40625 69.3672C 6.70312 69.3672 6.92708 69.4505 7.07812 69.6172C 7.23438 69.7839 7.3125 69.9922 7.3125 70.2422C 7.3125 70.4818 7.23438 70.6823 7.07812 70.8438C 6.92708 71.0052 6.70312 71.0859 6.40625 71.0859C 6.10938 71.0859 5.88542 71.0052 5.73438 70.8438C 5.58854 70.6823 5.51562 70.4818 5.51562 70.2422ZM 9.73438 70.2422C 9.73438 69.9922 9.80729 69.7839 9.95312 69.6172C 10.1042 69.4505 10.3281 69.3672 10.625 69.3672C 10.9219 69.3672 11.1458 69.4505 11.2969 69.6172C 11.4531 69.7839 11.5312 69.9922 11.5312 70.2422C 11.5312 70.4818 11.4531 70.6823 11.2969 70.8438C 11.1458 71.0052 10.9219 71.0859 10.625 71.0859C 10.3281 71.0859 10.1042 71.0052 9.95312 70.8438C 9.80729 70.6823 9.73438 70.4818 9.73438 70.2422ZM 7.70312 90L 6.25 90L 6.25 80.3672L 3.33594 81.4375L 3.33594 80.125L 7.47656 78.5703L 7.70312 78.5703L 7.70312 90Z"/>
<path id="path12_fill" d="M 1.625 9.29688L 2.20312 3.625L 8.03125 3.625L 8.03125 4.96094L 3.42969 4.96094L 3.08594 8.0625C 3.64323 7.73438 4.27604 7.57031 4.98438 7.57031C 6.02083 7.57031 6.84375 7.91406 7.45312 8.60156C 8.0625 9.28385 8.36719 10.2083 8.36719 11.375C 8.36719 12.5469 8.04948 13.4714 7.41406 14.1484C 6.78385 14.8203 5.90104 15.1562 4.76562 15.1562C 3.76042 15.1562 2.9401 14.8776 2.30469 14.3203C 1.66927 13.763 1.30729 12.9922 1.21875 12.0078L 2.58594 12.0078C 2.67448 12.6589 2.90625 13.151 3.28125 13.4844C 3.65625 13.8125 4.15104 13.9766 4.76562 13.9766C 5.4375 13.9766 5.96354 13.7474 6.34375 13.2891C 6.72917 12.8307 6.92188 12.1979 6.92188 11.3906C 6.92188 10.6302 6.71354 10.0208 6.29688 9.5625C 5.88542 9.09896 5.33594 8.86719 4.64844 8.86719C 4.01823 8.86719 3.52344 9.00521 3.16406 9.28125L 2.78125 9.59375L 1.625 9.29688ZM 17.0781 10.1484C 17.0781 11.8411 16.7891 13.099 16.2109 13.9219C 15.6328 14.7448 14.7292 15.1562 13.5 15.1562C 12.2865 15.1562 11.388 14.7552 10.8047 13.9531C 10.2214 13.1458 9.91927 11.9427 9.89844 10.3438L 9.89844 8.41406C 9.89844 6.74219 10.1875 5.5 10.7656 4.6875C 11.3438 3.875 12.25 3.46875 13.4844 3.46875C 14.7083 3.46875 15.6094 3.86198 16.1875 4.64844C 16.7656 5.42969 17.0625 6.63802 17.0781 8.27344L 17.0781 10.1484ZM 15.6328 8.17188C 15.6328 6.94792 15.4609 6.05729 15.1172 5.5C 14.7734 4.9375 14.2292 4.65625 13.4844 4.65625C 12.7448 4.65625 12.2057 4.9349 11.8672 5.49219C 11.5286 6.04948 11.3542 6.90625 11.3438 8.0625L 11.3438 10.375C 11.3438 11.6042 11.5208 12.513 11.875 13.1016C 12.2344 13.6849 12.776 13.9766 13.5 13.9766C 14.2135 13.9766 14.7422 13.7005 15.0859 13.1484C 15.4349 12.5964 15.6172 11.7266 15.6328 10.5391L 15.6328 8.17188ZM 3.0625 27.6094L 4.14844 27.6094C 4.83073 27.599 5.36719 27.4193 5.75781 27.0703C 6.14844 26.7214 6.34375 26.25 6.34375 25.6562C 6.34375 24.3229 5.67969 23.6562 4.35156 23.6562C 3.72656 23.6562 3.22656 23.8359 2.85156 24.1953C 2.48177 24.5495 2.29688 25.0208 2.29688 25.6094L 0.851562 25.6094C 0.851562 24.7083 1.17969 23.9609 1.83594 23.3672C 2.4974 22.7682 3.33594 22.4688 4.35156 22.4688C 5.42448 22.4688 6.26562 22.7526 6.875 23.3203C 7.48438 23.888 7.78906 24.6771 7.78906 25.6875C 7.78906 26.1823 7.6276 26.6615 7.30469 27.125C 6.98698 27.5885 6.55208 27.9349 6 28.1641C 6.625 28.362 7.10677 28.6901 7.44531 29.1484C 7.78906 29.6068 7.96094 30.1667 7.96094 30.8281C 7.96094 31.849 7.6276 32.6589 6.96094 33.2578C 6.29427 33.8568 5.42708 34.1562 4.35938 34.1562C 3.29167 34.1562 2.42188 33.8672 1.75 33.2891C 1.08333 32.7109 0.75 31.9479 0.75 31L 2.20312 31C 2.20312 31.599 2.39844 32.0781 2.78906 32.4375C 3.17969 32.7969 3.70312 32.9766 4.35938 32.9766C 5.05729 32.9766 5.59115 32.7943 5.96094 32.4297C 6.33073 32.0651 6.51562 31.5417 6.51562 30.8594C 6.51562 30.1979 6.3125 29.6901 5.90625 29.3359C 5.5 28.9818 4.91406 28.7995 4.14844 28.7891L 3.0625 28.7891L 3.0625 27.6094ZM 14.6953 34L 13.2422 34L 13.2422 24.3672L 10.3281 25.4375L 10.3281 24.125L 14.4688 22.5703L 14.6953 22.5703L 14.6953 34ZM 8.41406 52L 0.960938 52L 0.960938 50.9609L 4.89844 46.5859C 5.48177 45.9245 5.88281 45.388 6.10156 44.9766C 6.32552 44.5599 6.4375 44.1302 6.4375 43.6875C 6.4375 43.0938 6.25781 42.6068 5.89844 42.2266C 5.53906 41.8464 5.0599 41.6562 4.46094 41.6562C 3.74219 41.6562 3.18229 41.862 2.78125 42.2734C 2.38542 42.6797 2.1875 43.2474 2.1875 43.9766L 0.742188 43.9766C 0.742188 42.9297 1.07812 42.0833 1.75 41.4375C 2.42708 40.7917 3.33073 40.4688 4.46094 40.4688C 5.51823 40.4688 6.35417 40.7474 6.96875 41.3047C 7.58333 41.8568 7.89062 42.5938 7.89062 43.5156C 7.89062 44.6354 7.17708 45.9688 5.75 47.5156L 2.70312 50.8203L 8.41406 50.8203L 8.41406 52ZM 17.0781 47.1484C 17.0781 48.8411 16.7891 50.099 16.2109 50.9219C 15.6328 51.7448 14.7292 52.1562 13.5 52.1562C 12.2865 52.1562 11.388 51.7552 10.8047 50.9531C 10.2214 50.1458 9.91927 48.9427 9.89844 47.3438L 9.89844 45.4141C 9.89844 43.7422 10.1875 42.5 10.7656 41.6875C 11.3438 40.875 12.25 40.4688 13.4844 40.4688C 14.7083 40.4688 15.6094 40.862 16.1875 41.6484C 16.7656 42.4297 17.0625 43.638 17.0781 45.2734L 17.0781 47.1484ZM 15.6328 45.1719C 15.6328 43.9479 15.4609 43.0573 15.1172 42.5C 14.7734 41.9375 14.2292 41.6562 13.4844 41.6562C 12.7448 41.6562 12.2057 41.9349 11.8672 42.4922C 11.5286 43.0495 11.3542 43.9062 11.3438 45.0625L 11.3438 47.375C 11.3438 48.6042 11.5208 49.513 11.875 50.1016C 12.2344 50.6849 12.776 50.9766 13.5 50.9766C 14.2135 50.9766 14.7422 50.7005 15.0859 50.1484C 15.4349 49.5964 15.6172 48.7266 15.6328 47.5391L 15.6328 45.1719ZM 3.79688 70.2422C 3.79688 69.9922 3.86979 69.7839 4.01562 69.6172C 4.16667 69.4505 4.39062 69.3672 4.6875 69.3672C 4.98438 69.3672 5.20833 69.4505 5.35938 69.6172C 5.51562 69.7839 5.59375 69.9922 5.59375 70.2422C 5.59375 70.4818 5.51562 70.6823 5.35938 70.8438C 5.20833 71.0052 4.98438 71.0859 4.6875 71.0859C 4.39062 71.0859 4.16667 71.0052 4.01562 70.8438C 3.86979 70.6823 3.79688 70.4818 3.79688 70.2422ZM 8.01562 70.2422C 8.01562 69.9922 8.08854 69.7839 8.23438 69.6172C 8.38542 69.4505 8.60938 69.3672 8.90625 69.3672C 9.20312 69.3672 9.42708 69.4505 9.57812 69.6172C 9.73438 69.7839 9.8125 69.9922 9.8125 70.2422C 9.8125 70.4818 9.73438 70.6823 9.57812 70.8438C 9.42708 71.0052 9.20312 71.0859 8.90625 71.0859C 8.60938 71.0859 8.38542 71.0052 8.23438 70.8438C 8.08854 70.6823 8.01562 70.4818 8.01562 70.2422ZM 12.2344 70.2422C 12.2344 69.9922 12.3073 69.7839 12.4531 69.6172C 12.6042 69.4505 12.8281 69.3672 13.125 69.3672C 13.4219 69.3672 13.6458 69.4505 13.7969 69.6172C 13.9531 69.7839 14.0312 69.9922 14.0312 70.2422C 14.0312 70.4818 13.9531 70.6823 13.7969 70.8438C 13.6458 71.0052 13.4219 71.0859 13.125 71.0859C 12.8281 71.0859 12.6042 71.0052 12.4531 70.8438C 12.3073 70.6823 12.2344 70.4818 12.2344 70.2422ZM 5.71094 90L 4.25781 90L 4.25781 80.3672L 1.34375 81.4375L 1.34375 80.125L 5.48438 78.5703L 5.71094 78.5703L 5.71094 90ZM 10.6094 84.2969L 11.1875 78.625L 17.0156 78.625L 17.0156 79.9609L 12.4141 79.9609L 12.0703 83.0625C 12.6276 82.7344 13.2604 82.5703 13.9688 82.5703C 15.0052 82.5703 15.8281 82.9141 16.4375 83.6016C 17.0469 84.2839 17.3516 85.2083 17.3516 86.375C 17.3516 87.5469 17.0339 88.4714 16.3984 89.1484C 15.7682 89.8203 14.8854 90.1562 13.75 90.1562C 12.7448 90.1562 11.9245 89.8776 11.2891 89.3203C 10.6536 88.763 10.2917 87.9922 10.2031 87.0078L 11.5703 87.0078C 11.6589 87.6589 11.8906 88.151 12.2656 88.4844C 12.6406 88.8125 13.1354 88.9766 13.75 88.9766C 14.4219 88.9766 14.9479 88.7474 15.3281 88.2891C 15.7135 87.8307 15.9062 87.1979 15.9062 86.3906C 15.9062 85.6302 15.6979 85.0208 15.2812 84.5625C 14.8698 84.099 14.3203 83.8672 13.6328 83.8672C 13.0026 83.8672 12.5078 84.0052 12.1484 84.2812L 11.7656 84.5938L 10.6094 84.2969Z"/>
<path id="path13_fill" d="M 1.29688 14.2422C 1.29688 13.9922 1.36979 13.7839 1.51562 13.6172C 1.66667 13.4505 1.89062 13.3672 2.1875 13.3672C 2.48438 13.3672 2.70833 13.4505 2.85938 13.6172C 3.01562 13.7839 3.09375 13.9922 3.09375 14.2422C 3.09375 14.4818 3.01562 14.6823 2.85938 14.8438C 2.70833 15.0052 2.48438 15.0859 2.1875 15.0859C 1.89062 15.0859 1.66667 15.0052 1.51562 14.8438C 1.36979 14.6823 1.29688 14.4818 1.29688 14.2422ZM 5.51562 14.2422C 5.51562 13.9922 5.58854 13.7839 5.73438 13.6172C 5.88542 13.4505 6.10938 13.3672 6.40625 13.3672C 6.70312 13.3672 6.92708 13.4505 7.07812 13.6172C 7.23438 13.7839 7.3125 13.9922 7.3125 14.2422C 7.3125 14.4818 7.23438 14.6823 7.07812 14.8438C 6.92708 15.0052 6.70312 15.0859 6.40625 15.0859C 6.10938 15.0859 5.88542 15.0052 5.73438 14.8438C 5.58854 14.6823 5.51562 14.4818 5.51562 14.2422ZM 9.73438 14.2422C 9.73438 13.9922 9.80729 13.7839 9.95312 13.6172C 10.1042 13.4505 10.3281 13.3672 10.625 13.3672C 10.9219 13.3672 11.1458 13.4505 11.2969 13.6172C 11.4531 13.7839 11.5312 13.9922 11.5312 14.2422C 11.5312 14.4818 11.4531 14.6823 11.2969 14.8438C 11.1458 15.0052 10.9219 15.0859 10.625 15.0859C 10.3281 15.0859 10.1042 15.0052 9.95312 14.8438C 9.80729 14.6823 9.73438 14.4818 9.73438 14.2422ZM 1.29688 33.2422C 1.29688 32.9922 1.36979 32.7839 1.51562 32.6172C 1.66667 32.4505 1.89062 32.3672 2.1875 32.3672C 2.48438 32.3672 2.70833 32.4505 2.85938 32.6172C 3.01562 32.7839 3.09375 32.9922 3.09375 33.2422C 3.09375 33.4818 3.01562 33.6823 2.85938 33.8438C 2.70833 34.0052 2.48438 34.0859 2.1875 34.0859C 1.89062 34.0859 1.66667 34.0052 1.51562 33.8438C 1.36979 33.6823 1.29688 33.4818 1.29688 33.2422ZM 5.51562 33.2422C 5.51562 32.9922 5.58854 32.7839 5.73438 32.6172C 5.88542 32.4505 6.10938 32.3672 6.40625 32.3672C 6.70312 32.3672 6.92708 32.4505 7.07812 32.6172C 7.23438 32.7839 7.3125 32.9922 7.3125 33.2422C 7.3125 33.4818 7.23438 33.6823 7.07812 33.8438C 6.92708 34.0052 6.70312 34.0859 6.40625 34.0859C 6.10938 34.0859 5.88542 34.0052 5.73438 33.8438C 5.58854 33.6823 5.51562 33.4818 5.51562 33.2422ZM 9.73438 33.2422C 9.73438 32.9922 9.80729 32.7839 9.95312 32.6172C 10.1042 32.4505 10.3281 32.3672 10.625 32.3672C 10.9219 32.3672 11.1458 32.4505 11.2969 32.6172C 11.4531 32.7839 11.5312 32.9922 11.5312 33.2422C 11.5312 33.4818 11.4531 33.6823 11.2969 33.8438C 11.1458 34.0052 10.9219 34.0859 10.625 34.0859C 10.3281 34.0859 10.1042 34.0052 9.95312 33.8438C 9.80729 33.6823 9.73438 33.4818 9.73438 33.2422ZM 1.29688 51.2422C 1.29688 50.9922 1.36979 50.7839 1.51562 50.6172C 1.66667 50.4505 1.89062 50.3672 2.1875 50.3672C 2.48438 50.3672 2.70833 50.4505 2.85938 50.6172C 3.01562 50.7839 3.09375 50.9922 3.09375 51.2422C 3.09375 51.4818 3.01562 51.6823 2.85938 51.8438C 2.70833 52.0052 2.48438 52.0859 2.1875 52.0859C 1.89062 52.0859 1.66667 52.0052 1.51562 51.8438C 1.36979 51.6823 1.29688 51.4818 1.29688 51.2422ZM 5.51562 51.2422C 5.51562 50.9922 5.58854 50.7839 5.73438 50.6172C 5.88542 50.4505 6.10938 50.3672 6.40625 50.3672C 6.70312 50.3672 6.92708 50.4505 7.07812 50.6172C 7.23438 50.7839 7.3125 50.9922 7.3125 51.2422C 7.3125 51.4818 7.23438 51.6823 7.07812 51.8438C 6.92708 52.0052 6.70312 52.0859 6.40625 52.0859C 6.10938 52.0859 5.88542 52.0052 5.73438 51.8438C 5.58854 51.6823 5.51562 51.4818 5.51562 51.2422ZM 9.73438 51.2422C 9.73438 50.9922 9.80729 50.7839 9.95312 50.6172C 10.1042 50.4505 10.3281 50.3672 10.625 50.3672C 10.9219 50.3672 11.1458 50.4505 11.2969 50.6172C 11.4531 50.7839 11.5312 50.9922 11.5312 51.2422C 11.5312 51.4818 11.4531 51.6823 11.2969 51.8438C 11.1458 52.0052 10.9219 52.0859 10.625 52.0859C 10.3281 52.0859 10.1042 52.0052 9.95312 51.8438C 9.80729 51.6823 9.73438 51.4818 9.73438 51.2422ZM 1.29688 70.2422C 1.29688 69.9922 1.36979 69.7839 1.51562 69.6172C 1.66667 69.4505 1.89062 69.3672 2.1875 69.3672C 2.48438 69.3672 2.70833 69.4505 2.85938 69.6172C 3.01562 69.7839 3.09375 69.9922 3.09375 70.2422C 3.09375 70.4818 3.01562 70.6823 2.85938 70.8438C 2.70833 71.0052 2.48438 71.0859 2.1875 71.0859C 1.89062 71.0859 1.66667 71.0052 1.51562 70.8438C 1.36979 70.6823 1.29688 70.4818 1.29688 70.2422ZM 5.51562 70.2422C 5.51562 69.9922 5.58854 69.7839 5.73438 69.6172C 5.88542 69.4505 6.10938 69.3672 6.40625 69.3672C 6.70312 69.3672 6.92708 69.4505 7.07812 69.6172C 7.23438 69.7839 7.3125 69.9922 7.3125 70.2422C 7.3125 70.4818 7.23438 70.6823 7.07812 70.8438C 6.92708 71.0052 6.70312 71.0859 6.40625 71.0859C 6.10938 71.0859 5.88542 71.0052 5.73438 70.8438C 5.58854 70.6823 5.51562 70.4818 5.51562 70.2422ZM 9.73438 70.2422C 9.73438 69.9922 9.80729 69.7839 9.95312 69.6172C 10.1042 69.4505 10.3281 69.3672 10.625 69.3672C 10.9219 69.3672 11.1458 69.4505 11.2969 69.6172C 11.4531 69.7839 11.5312 69.9922 11.5312 70.2422C 11.5312 70.4818 11.4531 70.6823 11.2969 70.8438C 11.1458 71.0052 10.9219 71.0859 10.625 71.0859C 10.3281 71.0859 10.1042 71.0052 9.95312 70.8438C 9.80729 70.6823 9.73438 70.4818 9.73438 70.2422ZM 1.29688 89.2422C 1.29688 88.9922 1.36979 88.7839 1.51562 88.6172C 1.66667 88.4505 1.89062 88.3672 2.1875 88.3672C 2.48438 88.3672 2.70833 88.4505 2.85938 88.6172C 3.01562 88.7839 3.09375 88.9922 3.09375 89.2422C 3.09375 89.4818 3.01562 89.6823 2.85938 89.8438C 2.70833 90.0052 2.48438 90.0859 2.1875 90.0859C 1.89062 90.0859 1.66667 90.0052 1.51562 89.8438C 1.36979 89.6823 1.29688 89.4818 1.29688 89.2422ZM 5.51562 89.2422C 5.51562 88.9922 5.58854 88.7839 5.73438 88.6172C 5.88542 88.4505 6.10938 88.3672 6.40625 88.3672C 6.70312 88.3672 6.92708 88.4505 7.07812 88.6172C 7.23438 88.7839 7.3125 88.9922 7.3125 89.2422C 7.3125 89.4818 7.23438 89.6823 7.07812 89.8438C 6.92708 90.0052 6.70312 90.0859 6.40625 90.0859C 6.10938 90.0859 5.88542 90.0052 5.73438 89.8438C 5.58854 89.6823 5.51562 89.4818 5.51562 89.2422ZM 9.73438 89.2422C 9.73438 88.9922 9.80729 88.7839 9.95312 88.6172C 10.1042 88.4505 10.3281 88.3672 10.625 88.3672C 10.9219 88.3672 11.1458 88.4505 11.2969 88.6172C 11.4531 88.7839 11.5312 88.9922 11.5312 89.2422C 11.5312 89.4818 11.4531 89.6823 11.2969 89.8438C 11.1458 90.0052 10.9219 90.0859 10.625 90.0859C 10.3281 90.0859 10.1042 90.0052 9.95312 89.8438C 9.80729 89.6823 9.73438 89.4818 9.73438 89.2422Z"/>
<path id="path14_fill" d="M 10.0312 4.85938L 6.375 4.85938L 6.375 15L 4.88281 15L 4.88281 4.85938L 1.23438 4.85938L 1.23438 3.625L 10.0312 3.625L 10.0312 4.85938ZM 14.9844 7.84375C 14.7656 7.80729 14.5286 7.78906 14.2734 7.78906C 13.3255 7.78906 12.6823 8.19271 12.3438 9L 12.3438 15L 10.8984 15L 10.8984 6.54688L 12.3047 6.54688L 12.3281 7.52344C 12.8021 6.76823 13.474 6.39062 14.3438 6.39062C 14.625 6.39062 14.8385 6.42708 14.9844 6.5L 14.9844 7.84375ZM 21.2266 15C 21.1432 14.8333 21.0755 14.5365 21.0234 14.1094C 20.3516 14.8073 19.5495 15.1562 18.6172 15.1562C 17.7839 15.1562 17.099 14.9219 16.5625 14.4531C 16.0312 13.9792 15.7656 13.3802 15.7656 12.6562C 15.7656 11.776 16.099 11.0938 16.7656 10.6094C 17.4375 10.1198 18.3802 9.875 19.5938 9.875L 21 9.875L 21 9.21094C 21 8.70573 20.849 8.30469 20.5469 8.00781C 20.2448 7.70573 19.7995 7.55469 19.2109 7.55469C 18.6953 7.55469 18.263 7.6849 17.9141 7.94531C 17.5651 8.20573 17.3906 8.52083 17.3906 8.89062L 15.9375 8.89062C 15.9375 8.46875 16.0859 8.0625 16.3828 7.67188C 16.6849 7.27604 17.0911 6.96354 17.6016 6.73438C 18.1172 6.50521 18.6823 6.39062 19.2969 6.39062C 20.2708 6.39062 21.0339 6.63542 21.5859 7.125C 22.138 7.60938 22.4245 8.27865 22.4453 9.13281L 22.4453 13.0234C 22.4453 13.7995 22.5443 14.4167 22.7422 14.875L 22.7422 15L 21.2266 15ZM 18.8281 13.8984C 19.2812 13.8984 19.7109 13.7812 20.1172 13.5469C 20.5234 13.3125 20.8177 13.0078 21 12.6328L 21 10.8984L 19.8672 10.8984C 18.0964 10.8984 17.2109 11.4167 17.2109 12.4531C 17.2109 12.9062 17.362 13.2604 17.6641 13.5156C 17.9661 13.7708 18.3542 13.8984 18.8281 13.8984ZM 26.2812 15L 24.8359 15L 24.8359 6.54688L 26.2812 6.54688L 26.2812 15ZM 24.7188 4.30469C 24.7188 4.07031 24.7891 3.8724 24.9297 3.71094C 25.0755 3.54948 25.2891 3.46875 25.5703 3.46875C 25.8516 3.46875 26.0651 3.54948 26.2109 3.71094C 26.3568 3.8724 26.4297 4.07031 26.4297 4.30469C 26.4297 4.53906 26.3568 4.73438 26.2109 4.89062C 26.0651 5.04688 25.8516 5.125 25.5703 5.125C 25.2891 5.125 25.0755 5.04688 24.9297 4.89062C 24.7891 4.73438 24.7188 4.53906 24.7188 4.30469ZM 29.9688 6.54688L 30.0156 7.60938C 30.6615 6.79688 31.5052 6.39062 32.5469 6.39062C 34.3333 6.39062 35.2344 7.39844 35.25 9.41406L 35.25 15L 33.8047 15L 33.8047 9.40625C 33.7995 8.79688 33.6589 8.34635 33.3828 8.05469C 33.112 7.76302 32.6875 7.61719 32.1094 7.61719C 31.6406 7.61719 31.2292 7.74219 30.875 7.99219C 30.5208 8.24219 30.2448 8.57031 30.0469 8.97656L 30.0469 15L 28.6016 15L 28.6016 6.54688L 29.9688 6.54688ZM 39 15L 37.5547 15L 37.5547 6.54688L 39 6.54688L 39 15ZM 37.4375 4.30469C 37.4375 4.07031 37.5078 3.8724 37.6484 3.71094C 37.7943 3.54948 38.0078 3.46875 38.2891 3.46875C 38.5703 3.46875 38.7839 3.54948 38.9297 3.71094C 39.0755 3.8724 39.1484 4.07031 39.1484 4.30469C 39.1484 4.53906 39.0755 4.73438 38.9297 4.89062C 38.7839 5.04688 38.5703 5.125 38.2891 5.125C 38.0078 5.125 37.7943 5.04688 37.6484 4.89062C 37.5078 4.73438 37.4375 4.53906 37.4375 4.30469ZM 42.6875 6.54688L 42.7344 7.60938C 43.3802 6.79688 44.224 6.39062 45.2656 6.39062C 47.0521 6.39062 47.9531 7.39844 47.9688 9.41406L 47.9688 15L 46.5234 15L 46.5234 9.40625C 46.5182 8.79688 46.3776 8.34635 46.1016 8.05469C 45.8307 7.76302 45.4062 7.61719 44.8281 7.61719C 44.3594 7.61719 43.9479 7.74219 43.5938 7.99219C 43.2396 8.24219 42.9635 8.57031 42.7656 8.97656L 42.7656 15L 41.3203 15L 41.3203 6.54688L 42.6875 6.54688ZM 49.8047 10.7031C 49.8047 9.38542 50.1094 8.33854 50.7188 7.5625C 51.3281 6.78125 52.1354 6.39062 53.1406 6.39062C 54.1719 6.39062 54.9766 6.75521 55.5547 7.48438L 55.625 6.54688L 56.9453 6.54688L 56.9453 14.7969C 56.9453 15.8906 56.6198 16.7526 55.9688 17.3828C 55.3229 18.013 54.4531 18.3281 53.3594 18.3281C 52.75 18.3281 52.1536 18.1979 51.5703 17.9375C 50.987 17.6771 50.5417 17.3203 50.2344 16.8672L 50.9844 16C 51.6042 16.7656 52.362 17.1484 53.2578 17.1484C 53.9609 17.1484 54.5078 16.9505 54.8984 16.5547C 55.2943 16.1589 55.4922 15.6016 55.4922 14.8828L 55.4922 14.1562C 54.9141 14.8229 54.125 15.1562 53.125 15.1562C 52.1354 15.1562 51.3333 14.7578 50.7188 13.9609C 50.1094 13.1641 49.8047 12.0781 49.8047 10.7031ZM 51.2578 10.8672C 51.2578 11.8203 51.4531 12.5703 51.8438 13.1172C 52.2344 13.6589 52.7812 13.9297 53.4844 13.9297C 54.3958 13.9297 55.0651 13.5156 55.4922 12.6875L 55.4922 8.82812C 55.0495 8.02083 54.3854 7.61719 53.5 7.61719C 52.7969 7.61719 52.2474 7.89062 51.8516 8.4375C 51.4557 8.98438 51.2578 9.79427 51.2578 10.8672ZM 63.3281 15L 63.3281 3.625L 66.5391 3.625C 67.5286 3.625 68.4036 3.84375 69.1641 4.28125C 69.9245 4.71875 70.5104 5.34115 70.9219 6.14844C 71.3385 6.95573 71.5495 7.88281 71.5547 8.92969L 71.5547 9.65625C 71.5547 10.7292 71.3464 11.6693 70.9297 12.4766C 70.5182 13.2839 69.9271 13.9036 69.1562 14.3359C 68.3906 14.7682 67.4974 14.9896 66.4766 15L 63.3281 15ZM 64.8281 4.85938L 64.8281 13.7734L 66.4062 13.7734C 67.5625 13.7734 68.4609 13.4141 69.1016 12.6953C 69.7474 11.9766 70.0703 10.9531 70.0703 9.625L 70.0703 8.96094C 70.0703 7.66927 69.7656 6.66667 69.1562 5.95312C 68.5521 5.23438 67.6927 4.86979 66.5781 4.85938L 64.8281 4.85938ZM 78.8203 15C 78.737 14.8333 78.6693 14.5365 78.6172 14.1094C 77.9453 14.8073 77.1432 15.1562 76.2109 15.1562C 75.3776 15.1562 74.6927 14.9219 74.1562 14.4531C 73.625 13.9792 73.3594 13.3802 73.3594 12.6562C 73.3594 11.776 73.6927 11.0938 74.3594 10.6094C 75.0312 10.1198 75.974 9.875 77.1875 9.875L 78.5938 9.875L 78.5938 9.21094C 78.5938 8.70573 78.4427 8.30469 78.1406 8.00781C 77.8385 7.70573 77.3932 7.55469 76.8047 7.55469C 76.2891 7.55469 75.8568 7.6849 75.5078 7.94531C 75.1589 8.20573 74.9844 8.52083 74.9844 8.89062L 73.5312 8.89062C 73.5312 8.46875 73.6797 8.0625 73.9766 7.67188C 74.2786 7.27604 74.6849 6.96354 75.1953 6.73438C 75.7109 6.50521 76.276 6.39062 76.8906 6.39062C 77.8646 6.39062 78.6276 6.63542 79.1797 7.125C 79.7318 7.60938 80.0182 8.27865 80.0391 9.13281L 80.0391 13.0234C 80.0391 13.7995 80.138 14.4167 80.3359 14.875L 80.3359 15L 78.8203 15ZM 76.4219 13.8984C 76.875 13.8984 77.3047 13.7812 77.7109 13.5469C 78.1172 13.3125 78.4115 13.0078 78.5938 12.6328L 78.5938 10.8984L 77.4609 10.8984C 75.6901 10.8984 74.8047 11.4167 74.8047 12.4531C 74.8047 12.9062 74.9557 13.2604 75.2578 13.5156C 75.5599 13.7708 75.9479 13.8984 76.4219 13.8984ZM 84.2656 4.5L 84.2656 6.54688L 85.8438 6.54688L 85.8438 7.66406L 84.2656 7.66406L 84.2656 12.9062C 84.2656 13.2448 84.3359 13.5 84.4766 13.6719C 84.6172 13.8385 84.8568 13.9219 85.1953 13.9219C 85.362 13.9219 85.5911 13.8906 85.8828 13.8281L 85.8828 15C 85.5026 15.1042 85.1328 15.1562 84.7734 15.1562C 84.1276 15.1562 83.6406 14.9609 83.3125 14.5703C 82.9844 14.1797 82.8203 13.625 82.8203 12.9062L 82.8203 7.66406L 81.2812 7.66406L 81.2812 6.54688L 82.8203 6.54688L 82.8203 4.5L 84.2656 4.5ZM 92.7578 15C 92.6745 14.8333 92.6068 14.5365 92.5547 14.1094C 91.8828 14.8073 91.0807 15.1562 90.1484 15.1562C 89.3151 15.1562 88.6302 14.9219 88.0938 14.4531C 87.5625 13.9792 87.2969 13.3802 87.2969 12.6562C 87.2969 11.776 87.6302 11.0938 88.2969 10.6094C 88.9688 10.1198 89.9115 9.875 91.125 9.875L 92.5312 9.875L 92.5312 9.21094C 92.5312 8.70573 92.3802 8.30469 92.0781 8.00781C 91.776 7.70573 91.3307 7.55469 90.7422 7.55469C 90.2266 7.55469 89.7943 7.6849 89.4453 7.94531C 89.0964 8.20573 88.9219 8.52083 88.9219 8.89062L 87.4688 8.89062C 87.4688 8.46875 87.6172 8.0625 87.9141 7.67188C 88.2161 7.27604 88.6224 6.96354 89.1328 6.73438C 89.6484 6.50521 90.2135 6.39062 90.8281 6.39062C 91.8021 6.39062 92.5651 6.63542 93.1172 7.125C 93.6693 7.60938 93.9557 8.27865 93.9766 9.13281L 93.9766 13.0234C 93.9766 13.7995 94.0755 14.4167 94.2734 14.875L 94.2734 15L 92.7578 15ZM 90.3594 13.8984C 90.8125 13.8984 91.2422 13.7812 91.6484 13.5469C 92.0547 13.3125 92.349 13.0078 92.5312 12.6328L 92.5312 10.8984L 91.3984 10.8984C 89.6276 10.8984 88.7422 11.4167 88.7422 12.4531C 88.7422 12.9062 88.8932 13.2604 89.1953 13.5156C 89.4974 13.7708 89.8854 13.8984 90.3594 13.8984Z"/>
<path id="path15_fill" d="M 3.10938 10.5469L 3.10938 15L 1.60938 15L 1.60938 3.625L 5.80469 3.625C 7.04948 3.625 8.02344 3.94271 8.72656 4.57812C 9.4349 5.21354 9.78906 6.05469 9.78906 7.10156C 9.78906 8.20573 9.44271 9.05729 8.75 9.65625C 8.0625 10.25 7.07552 10.5469 5.78906 10.5469L 3.10938 10.5469ZM 3.10938 9.32031L 5.80469 9.32031C 6.60677 9.32031 7.22135 9.13281 7.64844 8.75781C 8.07552 8.3776 8.28906 7.83073 8.28906 7.11719C 8.28906 6.4401 8.07552 5.89844 7.64844 5.49219C 7.22135 5.08594 6.63542 4.875 5.89062 4.85938L 3.10938 4.85938L 3.10938 9.32031ZM 16.6016 15C 16.5182 14.8333 16.4505 14.5365 16.3984 14.1094C 15.7266 14.8073 14.9245 15.1562 13.9922 15.1562C 13.1589 15.1562 12.474 14.9219 11.9375 14.4531C 11.4062 13.9792 11.1406 13.3802 11.1406 12.6562C 11.1406 11.776 11.474 11.0938 12.1406 10.6094C 12.8125 10.1198 13.7552 9.875 14.9688 9.875L 16.375 9.875L 16.375 9.21094C 16.375 8.70573 16.224 8.30469 15.9219 8.00781C 15.6198 7.70573 15.1745 7.55469 14.5859 7.55469C 14.0703 7.55469 13.638 7.6849 13.2891 7.94531C 12.9401 8.20573 12.7656 8.52083 12.7656 8.89062L 11.3125 8.89062C 11.3125 8.46875 11.4609 8.0625 11.7578 7.67188C 12.0599 7.27604 12.4661 6.96354 12.9766 6.73438C 13.4922 6.50521 14.0573 6.39062 14.6719 6.39062C 15.6458 6.39062 16.4089 6.63542 16.9609 7.125C 17.513 7.60938 17.7995 8.27865 17.8203 9.13281L 17.8203 13.0234C 17.8203 13.7995 17.9193 14.4167 18.1172 14.875L 18.1172 15L 16.6016 15ZM 14.2031 13.8984C 14.6562 13.8984 15.0859 13.7812 15.4922 13.5469C 15.8984 13.3125 16.1927 13.0078 16.375 12.6328L 16.375 10.8984L 15.2422 10.8984C 13.4714 10.8984 12.5859 11.4167 12.5859 12.4531C 12.5859 12.9062 12.737 13.2604 13.0391 13.5156C 13.3411 13.7708 13.7292 13.8984 14.2031 13.8984ZM 24.1719 7.84375C 23.9531 7.80729 23.7161 7.78906 23.4609 7.78906C 22.513 7.78906 21.8698 8.19271 21.5312 9L 21.5312 15L 20.0859 15L 20.0859 6.54688L 21.4922 6.54688L 21.5156 7.52344C 21.9896 6.76823 22.6615 6.39062 23.5312 6.39062C 23.8125 6.39062 24.026 6.42708 24.1719 6.5L 24.1719 7.84375ZM 30.4141 15C 30.3307 14.8333 30.263 14.5365 30.2109 14.1094C 29.5391 14.8073 28.737 15.1562 27.8047 15.1562C 26.9714 15.1562 26.2865 14.9219 25.75 14.4531C 25.2188 13.9792 24.9531 13.3802 24.9531 12.6562C 24.9531 11.776 25.2865 11.0938 25.9531 10.6094C 26.625 10.1198 27.5677 9.875 28.7812 9.875L 30.1875 9.875L 30.1875 9.21094C 30.1875 8.70573 30.0365 8.30469 29.7344 8.00781C 29.4323 7.70573 28.987 7.55469 28.3984 7.55469C 27.8828 7.55469 27.4505 7.6849 27.1016 7.94531C 26.7526 8.20573 26.5781 8.52083 26.5781 8.89062L 25.125 8.89062C 25.125 8.46875 25.2734 8.0625 25.5703 7.67188C 25.8724 7.27604 26.2786 6.96354 26.7891 6.73438C 27.3047 6.50521 27.8698 6.39062 28.4844 6.39062C 29.4583 6.39062 30.2214 6.63542 30.7734 7.125C 31.3255 7.60938 31.612 8.27865 31.6328 9.13281L 31.6328 13.0234C 31.6328 13.7995 31.7318 14.4167 31.9297 14.875L 31.9297 15L 30.4141 15ZM 28.0156 13.8984C 28.4688 13.8984 28.8984 13.7812 29.3047 13.5469C 29.7109 13.3125 30.0052 13.0078 30.1875 12.6328L 30.1875 10.8984L 29.0547 10.8984C 27.2839 10.8984 26.3984 11.4167 26.3984 12.4531C 26.3984 12.9062 26.5495 13.2604 26.8516 13.5156C 27.1536 13.7708 27.5417 13.8984 28.0156 13.8984ZM 35.2578 6.54688L 35.2969 7.48438C 35.9167 6.75521 36.7526 6.39062 37.8047 6.39062C 38.987 6.39062 39.7917 6.84375 40.2188 7.75C 40.5 7.34375 40.8646 7.01562 41.3125 6.76562C 41.7656 6.51562 42.2995 6.39062 42.9141 6.39062C 44.7682 6.39062 45.7109 7.3724 45.7422 9.33594L 45.7422 15L 44.2969 15L 44.2969 9.42188C 44.2969 8.81771 44.1589 8.36719 43.8828 8.07031C 43.6068 7.76823 43.1432 7.61719 42.4922 7.61719C 41.9557 7.61719 41.5104 7.77865 41.1562 8.10156C 40.8021 8.41927 40.5964 8.84896 40.5391 9.39062L 40.5391 15L 39.0859 15L 39.0859 9.46094C 39.0859 8.23177 38.4844 7.61719 37.2812 7.61719C 36.3333 7.61719 35.6849 8.02083 35.3359 8.82812L 35.3359 15L 33.8906 15L 33.8906 6.54688L 35.2578 6.54688ZM 51.4375 15.1562C 50.2917 15.1562 49.3594 14.7812 48.6406 14.0312C 47.9219 13.276 47.5625 12.2682 47.5625 11.0078L 47.5625 10.7422C 47.5625 9.90365 47.7214 9.15625 48.0391 8.5C 48.362 7.83854 48.8099 7.32292 49.3828 6.95312C 49.9609 6.57812 50.5859 6.39062 51.2578 6.39062C 52.3568 6.39062 53.2109 6.7526 53.8203 7.47656C 54.4297 8.20052 54.7344 9.23698 54.7344 10.5859L 54.7344 11.1875L 49.0078 11.1875C 49.0286 12.0208 49.2708 12.6953 49.7344 13.2109C 50.2031 13.7214 50.7969 13.9766 51.5156 13.9766C 52.026 13.9766 52.4583 13.8724 52.8125 13.6641C 53.1667 13.4557 53.4766 13.1797 53.7422 12.8359L 54.625 13.5234C 53.9167 14.612 52.8542 15.1562 51.4375 15.1562ZM 51.2578 7.57812C 50.6745 7.57812 50.1849 7.79167 49.7891 8.21875C 49.3932 8.64062 49.1484 9.23438 49.0547 10L 53.2891 10L 53.2891 9.89062C 53.2474 9.15625 53.0495 8.58854 52.6953 8.1875C 52.3411 7.78125 51.862 7.57812 51.2578 7.57812ZM 58.375 4.5L 58.375 6.54688L 59.9531 6.54688L 59.9531 7.66406L 58.375 7.66406L 58.375 12.9062C 58.375 13.2448 58.4453 13.5 58.5859 13.6719C 58.7266 13.8385 58.9661 13.9219 59.3047 13.9219C 59.4714 13.9219 59.7005 13.8906 59.9922 13.8281L 59.9922 15C 59.612 15.1042 59.2422 15.1562 58.8828 15.1562C 58.237 15.1562 57.75 14.9609 57.4219 14.5703C 57.0938 14.1797 56.9297 13.625 56.9297 12.9062L 56.9297 7.66406L 55.3906 7.66406L 55.3906 6.54688L 56.9297 6.54688L 56.9297 4.5L 58.375 4.5ZM 65.1562 15.1562C 64.0104 15.1562 63.0781 14.7812 62.3594 14.0312C 61.6406 13.276 61.2812 12.2682 61.2812 11.0078L 61.2812 10.7422C 61.2812 9.90365 61.4401 9.15625 61.7578 8.5C 62.0807 7.83854 62.5286 7.32292 63.1016 6.95312C 63.6797 6.57812 64.3047 6.39062 64.9766 6.39062C 66.0755 6.39062 66.9297 6.7526 67.5391 7.47656C 68.1484 8.20052 68.4531 9.23698 68.4531 10.5859L 68.4531 11.1875L 62.7266 11.1875C 62.7474 12.0208 62.9896 12.6953 63.4531 13.2109C 63.9219 13.7214 64.5156 13.9766 65.2344 13.9766C 65.7448 13.9766 66.1771 13.8724 66.5312 13.6641C 66.8854 13.4557 67.1953 13.1797 67.4609 12.8359L 68.3438 13.5234C 67.6354 14.612 66.5729 15.1562 65.1562 15.1562ZM 64.9766 7.57812C 64.3932 7.57812 63.9036 7.79167 63.5078 8.21875C 63.112 8.64062 62.8672 9.23438 62.7734 10L 67.0078 10L 67.0078 9.89062C 66.9661 9.15625 66.7682 8.58854 66.4141 8.1875C 66.0599 7.78125 65.5807 7.57812 64.9766 7.57812ZM 74.2188 7.84375C 74 7.80729 73.763 7.78906 73.5078 7.78906C 72.5599 7.78906 71.9167 8.19271 71.5781 9L 71.5781 15L 70.1328 15L 70.1328 6.54688L 71.5391 6.54688L 71.5625 7.52344C 72.0365 6.76823 72.7083 6.39062 73.5781 6.39062C 73.8594 6.39062 74.0729 6.42708 74.2188 6.5L 74.2188 7.84375ZM 80.4766 12.7578C 80.4766 12.3672 80.3281 12.0651 80.0312 11.8516C 79.7396 11.6328 79.2266 11.4453 78.4922 11.2891C 77.763 11.1328 77.1823 10.9453 76.75 10.7266C 76.3229 10.5078 76.0052 10.2474 75.7969 9.94531C 75.5938 9.64323 75.4922 9.28385 75.4922 8.86719C 75.4922 8.17448 75.7839 7.58854 76.3672 7.10938C 76.9557 6.63021 77.7057 6.39062 78.6172 6.39062C 79.5755 6.39062 80.3516 6.63802 80.9453 7.13281C 81.5443 7.6276 81.8438 8.26042 81.8438 9.03125L 80.3906 9.03125C 80.3906 8.63542 80.2214 8.29427 79.8828 8.00781C 79.5495 7.72135 79.1276 7.57812 78.6172 7.57812C 78.0911 7.57812 77.6797 7.69271 77.3828 7.92188C 77.0859 8.15104 76.9375 8.45052 76.9375 8.82031C 76.9375 9.16927 77.0755 9.43229 77.3516 9.60938C 77.6276 9.78646 78.125 9.95573 78.8438 10.1172C 79.5677 10.2786 80.1536 10.4714 80.6016 10.6953C 81.0495 10.9193 81.3802 11.1901 81.5938 11.5078C 81.8125 11.8203 81.9219 12.2031 81.9219 12.6562C 81.9219 13.4115 81.6198 14.0182 81.0156 14.4766C 80.4115 14.9297 79.6276 15.1562 78.6641 15.1562C 77.987 15.1562 77.388 15.0365 76.8672 14.7969C 76.3464 14.5573 75.9375 14.224 75.6406 13.7969C 75.349 13.3646 75.2031 12.8984 75.2031 12.3984L 76.6484 12.3984C 76.6745 12.8828 76.8672 13.2682 77.2266 13.5547C 77.5911 13.8359 78.0703 13.9766 78.6641 13.9766C 79.2109 13.9766 79.6484 13.8672 79.9766 13.6484C 80.3099 13.4245 80.4766 13.1276 80.4766 12.7578Z"/>
<path id="path16_fill" d="M 2.86719 13.7734L 8.25781 13.7734L 8.25781 15L 1.35938 15L 1.35938 3.625L 2.86719 3.625L 2.86719 13.7734ZM 14.9609 15C 14.8776 14.8333 14.8099 14.5365 14.7578 14.1094C 14.0859 14.8073 13.2839 15.1562 12.3516 15.1562C 11.5182 15.1562 10.8333 14.9219 10.2969 14.4531C 9.76562 13.9792 9.5 13.3802 9.5 12.6562C 9.5 11.776 9.83333 11.0938 10.5 10.6094C 11.1719 10.1198 12.1146 9.875 13.3281 9.875L 14.7344 9.875L 14.7344 9.21094C 14.7344 8.70573 14.5833 8.30469 14.2812 8.00781C 13.9792 7.70573 13.5339 7.55469 12.9453 7.55469C 12.4297 7.55469 11.9974 7.6849 11.6484 7.94531C 11.2995 8.20573 11.125 8.52083 11.125 8.89062L 9.67188 8.89062C 9.67188 8.46875 9.82031 8.0625 10.1172 7.67188C 10.4193 7.27604 10.8255 6.96354 11.3359 6.73438C 11.8516 6.50521 12.4167 6.39062 13.0312 6.39062C 14.0052 6.39062 14.7682 6.63542 15.3203 7.125C 15.8724 7.60938 16.1589 8.27865 16.1797 9.13281L 16.1797 13.0234C 16.1797 13.7995 16.2786 14.4167 16.4766 14.875L 16.4766 15L 14.9609 15ZM 12.5625 13.8984C 13.0156 13.8984 13.4453 13.7812 13.8516 13.5469C 14.2578 13.3125 14.5521 13.0078 14.7344 12.6328L 14.7344 10.8984L 13.6016 10.8984C 11.8307 10.8984 10.9453 11.4167 10.9453 12.4531C 10.9453 12.9062 11.0964 13.2604 11.3984 13.5156C 11.7005 13.7708 12.0885 13.8984 12.5625 13.8984ZM 25.6016 10.8672C 25.6016 12.1589 25.3047 13.1979 24.7109 13.9844C 24.1172 14.7656 23.3203 15.1562 22.3203 15.1562C 21.2526 15.1562 20.4271 14.7786 19.8438 14.0234L 19.7734 15L 18.4453 15L 18.4453 3L 19.8906 3L 19.8906 7.47656C 20.474 6.7526 21.2786 6.39062 22.3047 6.39062C 23.3307 6.39062 24.1354 6.77865 24.7188 7.55469C 25.3073 8.33073 25.6016 9.39323 25.6016 10.7422L 25.6016 10.8672ZM 24.1562 10.7031C 24.1562 9.71875 23.9661 8.95833 23.5859 8.42188C 23.2057 7.88542 22.6589 7.61719 21.9453 7.61719C 20.9922 7.61719 20.3073 8.0599 19.8906 8.94531L 19.8906 12.6016C 20.3333 13.487 21.0234 13.9297 21.9609 13.9297C 22.6536 13.9297 23.1927 13.6615 23.5781 13.125C 23.9635 12.5885 24.1562 11.7812 24.1562 10.7031ZM 30.9375 15.1562C 29.7917 15.1562 28.8594 14.7812 28.1406 14.0312C 27.4219 13.276 27.0625 12.2682 27.0625 11.0078L 27.0625 10.7422C 27.0625 9.90365 27.2214 9.15625 27.5391 8.5C 27.862 7.83854 28.3099 7.32292 28.8828 6.95312C 29.4609 6.57812 30.0859 6.39062 30.7578 6.39062C 31.8568 6.39062 32.7109 6.7526 33.3203 7.47656C 33.9297 8.20052 34.2344 9.23698 34.2344 10.5859L 34.2344 11.1875L 28.5078 11.1875C 28.5286 12.0208 28.7708 12.6953 29.2344 13.2109C 29.7031 13.7214 30.2969 13.9766 31.0156 13.9766C 31.526 13.9766 31.9583 13.8724 32.3125 13.6641C 32.6667 13.4557 32.9766 13.1797 33.2422 12.8359L 34.125 13.5234C 33.4167 14.612 32.3542 15.1562 30.9375 15.1562ZM 30.7578 7.57812C 30.1745 7.57812 29.6849 7.79167 29.2891 8.21875C 28.8932 8.64062 28.6484 9.23438 28.5547 10L 32.7891 10L 32.7891 9.89062C 32.7474 9.15625 32.5495 8.58854 32.1953 8.1875C 31.8411 7.78125 31.362 7.57812 30.7578 7.57812ZM 37.4844 15L 36.0391 15L 36.0391 3L 37.4844 3L 37.4844 15ZM 44.7266 12.7578C 44.7266 12.3672 44.5781 12.0651 44.2812 11.8516C 43.9896 11.6328 43.4766 11.4453 42.7422 11.2891C 42.013 11.1328 41.4323 10.9453 41 10.7266C 40.5729 10.5078 40.2552 10.2474 40.0469 9.94531C 39.8438 9.64323 39.7422 9.28385 39.7422 8.86719C 39.7422 8.17448 40.0339 7.58854 40.6172 7.10938C 41.2057 6.63021 41.9557 6.39062 42.8672 6.39062C 43.8255 6.39062 44.6016 6.63802 45.1953 7.13281C 45.7943 7.6276 46.0938 8.26042 46.0938 9.03125L 44.6406 9.03125C 44.6406 8.63542 44.4714 8.29427 44.1328 8.00781C 43.7995 7.72135 43.3776 7.57812 42.8672 7.57812C 42.3411 7.57812 41.9297 7.69271 41.6328 7.92188C 41.3359 8.15104 41.1875 8.45052 41.1875 8.82031C 41.1875 9.16927 41.3255 9.43229 41.6016 9.60938C 41.8776 9.78646 42.375 9.95573 43.0938 10.1172C 43.8177 10.2786 44.4036 10.4714 44.8516 10.6953C 45.2995 10.9193 45.6302 11.1901 45.8438 11.5078C 46.0625 11.8203 46.1719 12.2031 46.1719 12.6562C 46.1719 13.4115 45.8698 14.0182 45.2656 14.4766C 44.6615 14.9297 43.8776 15.1562 42.9141 15.1562C 42.237 15.1562 41.638 15.0365 41.1172 14.7969C 40.5964 14.5573 40.1875 14.224 39.8906 13.7969C 39.599 13.3646 39.4531 12.8984 39.4531 12.3984L 40.8984 12.3984C 40.9245 12.8828 41.1172 13.2682 41.4766 13.5547C 41.8411 13.8359 42.3203 13.9766 42.9141 13.9766C 43.4609 13.9766 43.8984 13.8672 44.2266 13.6484C 44.5599 13.4245 44.7266 13.1276 44.7266 12.7578Z"/>
<path id="path17_fill" d="M 23.1797 7.84375C 22.9609 7.80729 22.724 7.78906 22.4688 7.78906C 21.5208 7.78906 20.8776 8.19271 20.5391 9L 20.5391 15L 19.0938 15L 19.0938 6.54688L 20.5 6.54688L 20.5234 7.52344C 20.9974 6.76823 21.6693 6.39062 22.5391 6.39062C 22.8203 6.39062 23.0339 6.42708 23.1797 6.5L 23.1797 7.84375ZM 23.9766 10.6953C 23.9766 9.86719 24.138 9.1224 24.4609 8.46094C 24.7891 7.79948 25.2422 7.28906 25.8203 6.92969C 26.4036 6.57031 27.0677 6.39062 27.8125 6.39062C 28.9635 6.39062 29.8932 6.78906 30.6016 7.58594C 31.3151 8.38281 31.6719 9.44271 31.6719 10.7656L 31.6719 10.8672C 31.6719 11.6901 31.513 12.4297 31.1953 13.0859C 30.8828 13.737 30.4323 14.2448 29.8438 14.6094C 29.2604 14.974 28.5885 15.1562 27.8281 15.1562C 26.6823 15.1562 25.7526 14.7578 25.0391 13.9609C 24.3307 13.1641 23.9766 12.1094 23.9766 10.7969L 23.9766 10.6953ZM 25.4297 10.8672C 25.4297 11.8047 25.6458 12.5573 26.0781 13.125C 26.5156 13.6927 27.099 13.9766 27.8281 13.9766C 28.5625 13.9766 29.1458 13.6901 29.5781 13.1172C 30.0104 12.5391 30.2266 11.7318 30.2266 10.6953C 30.2266 9.76823 30.0052 9.01823 29.5625 8.44531C 29.125 7.86719 28.5417 7.57812 27.8125 7.57812C 27.099 7.57812 26.5234 7.86198 26.0859 8.42969C 25.6484 8.9974 25.4297 9.8099 25.4297 10.8672ZM 40.9688 13.0078L 42.5938 6.54688L 44.0391 6.54688L 41.5781 15L 40.4062 15L 38.3516 8.59375L 36.3516 15L 35.1797 15L 32.7266 6.54688L 34.1641 6.54688L 35.8281 12.875L 37.7969 6.54688L 38.9609 6.54688L 40.9688 13.0078ZM 50.4375 12.7578C 50.4375 12.3672 50.2891 12.0651 49.9922 11.8516C 49.7005 11.6328 49.1875 11.4453 48.4531 11.2891C 47.724 11.1328 47.1432 10.9453 46.7109 10.7266C 46.2839 10.5078 45.9661 10.2474 45.7578 9.94531C 45.5547 9.64323 45.4531 9.28385 45.4531 8.86719C 45.4531 8.17448 45.7448 7.58854 46.3281 7.10938C 46.9167 6.63021 47.6667 6.39062 48.5781 6.39062C 49.5365 6.39062 50.3125 6.63802 50.9062 7.13281C 51.5052 7.6276 51.8047 8.26042 51.8047 9.03125L 50.3516 9.03125C 50.3516 8.63542 50.1823 8.29427 49.8438 8.00781C 49.5104 7.72135 49.0885 7.57812 48.5781 7.57812C 48.0521 7.57812 47.6406 7.69271 47.3438 7.92188C 47.0469 8.15104 46.8984 8.45052 46.8984 8.82031C 46.8984 9.16927 47.0365 9.43229 47.3125 9.60938C 47.5885 9.78646 48.0859 9.95573 48.8047 10.1172C 49.5286 10.2786 50.1146 10.4714 50.5625 10.6953C 51.0104 10.9193 51.3411 11.1901 51.5547 11.5078C 51.7734 11.8203 51.8828 12.2031 51.8828 12.6562C 51.8828 13.4115 51.5807 14.0182 50.9766 14.4766C 50.3724 14.9297 49.5885 15.1562 48.625 15.1562C 47.9479 15.1562 47.349 15.0365 46.8281 14.7969C 46.3073 14.5573 45.8984 14.224 45.6016 13.7969C 45.3099 13.3646 45.1641 12.8984 45.1641 12.3984L 46.6094 12.3984C 46.6354 12.8828 46.8281 13.2682 47.1875 13.5547C 47.5521 13.8359 48.0312 13.9766 48.625 13.9766C 49.1719 13.9766 49.6094 13.8672 49.9375 13.6484C 50.2708 13.4245 50.4375 13.1276 50.4375 12.7578Z"/>
<path id="path18_fill" d="M 2.45312 6.54688L 2.49219 7.48438C 3.11198 6.75521 3.94792 6.39062 5 6.39062C 6.18229 6.39062 6.98698 6.84375 7.41406 7.75C 7.69531 7.34375 8.0599 7.01562 8.50781 6.76562C 8.96094 6.51562 9.49479 6.39062 10.1094 6.39062C 11.9635 6.39062 12.9062 7.3724 12.9375 9.33594L 12.9375 15L 11.4922 15L 11.4922 9.42188C 11.4922 8.81771 11.3542 8.36719 11.0781 8.07031C 10.8021 7.76823 10.3385 7.61719 9.6875 7.61719C 9.15104 7.61719 8.70573 7.77865 8.35156 8.10156C 7.9974 8.41927 7.79167 8.84896 7.73438 9.39062L 7.73438 15L 6.28125 15L 6.28125 9.46094C 6.28125 8.23177 5.67969 7.61719 4.47656 7.61719C 3.52865 7.61719 2.88021 8.02083 2.53125 8.82812L 2.53125 15L 1.08594 15L 1.08594 6.54688L 2.45312 6.54688Z"/>
<path id="path19_fill" d="M 17.2812 13.9766C 17.7969 13.9766 18.2474 13.8203 18.6328 13.5078C 19.0182 13.1953 19.2318 12.8047 19.2734 12.3359L 20.6406 12.3359C 20.6146 12.8203 20.4479 13.2812 20.1406 13.7188C 19.8333 14.1562 19.4219 14.5052 18.9062 14.7656C 18.3958 15.026 17.8542 15.1562 17.2812 15.1562C 16.1302 15.1562 15.2135 14.7734 14.5312 14.0078C 13.8542 13.237 13.5156 12.1849 13.5156 10.8516L 13.5156 10.6094C 13.5156 9.78646 13.6667 9.05469 13.9688 8.41406C 14.2708 7.77344 14.7031 7.27604 15.2656 6.92188C 15.8333 6.56771 16.5026 6.39062 17.2734 6.39062C 18.2214 6.39062 19.0078 6.67448 19.6328 7.24219C 20.263 7.8099 20.599 8.54688 20.6406 9.45312L 19.2734 9.45312C 19.2318 8.90625 19.0234 8.45833 18.6484 8.10938C 18.2786 7.75521 17.8203 7.57812 17.2734 7.57812C 16.5391 7.57812 15.9688 7.84375 15.5625 8.375C 15.1615 8.90104 14.9609 9.66406 14.9609 10.6641L 14.9609 10.9375C 14.9609 11.9115 15.1615 12.6615 15.5625 13.1875C 15.9635 13.7135 16.5365 13.9766 17.2812 13.9766ZM 21.8828 10.6953C 21.8828 9.86719 22.0443 9.1224 22.3672 8.46094C 22.6953 7.79948 23.1484 7.28906 23.7266 6.92969C 24.3099 6.57031 24.974 6.39062 25.7188 6.39062C 26.8698 6.39062 27.7995 6.78906 28.5078 7.58594C 29.2214 8.38281 29.5781 9.44271 29.5781 10.7656L 29.5781 10.8672C 29.5781 11.6901 29.4193 12.4297 29.1016 13.0859C 28.7891 13.737 28.3385 14.2448 27.75 14.6094C 27.1667 14.974 26.4948 15.1562 25.7344 15.1562C 24.5885 15.1562 23.6589 14.7578 22.9453 13.9609C 22.237 13.1641 21.8828 12.1094 21.8828 10.7969L 21.8828 10.6953ZM 23.3359 10.8672C 23.3359 11.8047 23.5521 12.5573 23.9844 13.125C 24.4219 13.6927 25.0052 13.9766 25.7344 13.9766C 26.4688 13.9766 27.0521 13.6901 27.4844 13.1172C 27.9167 12.5391 28.1328 11.7318 28.1328 10.6953C 28.1328 9.76823 27.9115 9.01823 27.4688 8.44531C 27.0312 7.86719 26.4479 7.57812 25.7188 7.57812C 25.0052 7.57812 24.4297 7.86198 23.9922 8.42969C 23.5547 8.9974 23.3359 9.8099 23.3359 10.8672ZM 32.9609 15L 31.5156 15L 31.5156 3L 32.9609 3L 32.9609 15ZM 40.5 14.1641C 39.9375 14.8255 39.112 15.1562 38.0234 15.1562C 37.1224 15.1562 36.4349 14.8958 35.9609 14.375C 35.4922 13.849 35.2552 13.0729 35.25 12.0469L 35.25 6.54688L 36.6953 6.54688L 36.6953 12.0078C 36.6953 13.2891 37.2161 13.9297 38.2578 13.9297C 39.362 13.9297 40.0964 13.5182 40.4609 12.6953L 40.4609 6.54688L 41.9062 6.54688L 41.9062 15L 40.5312 15L 40.5 14.1641ZM 45.4688 6.54688L 45.5078 7.48438C 46.1276 6.75521 46.9635 6.39062 48.0156 6.39062C 49.1979 6.39062 50.0026 6.84375 50.4297 7.75C 50.7109 7.34375 51.0755 7.01562 51.5234 6.76562C 51.9766 6.51562 52.5104 6.39062 53.125 6.39062C 54.9792 6.39062 55.9219 7.3724 55.9531 9.33594L 55.9531 15L 54.5078 15L 54.5078 9.42188C 54.5078 8.81771 54.3698 8.36719 54.0938 8.07031C 53.8177 7.76823 53.3542 7.61719 52.7031 7.61719C 52.1667 7.61719 51.7214 7.77865 51.3672 8.10156C 51.013 8.41927 50.8073 8.84896 50.75 9.39062L 50.75 15L 49.2969 15L 49.2969 9.46094C 49.2969 8.23177 48.6953 7.61719 47.4922 7.61719C 46.5443 7.61719 45.8958 8.02083 45.5469 8.82812L 45.5469 15L 44.1016 15L 44.1016 6.54688L 45.4688 6.54688ZM 59.5078 6.54688L 59.5547 7.60938C 60.2005 6.79688 61.0443 6.39062 62.0859 6.39062C 63.8724 6.39062 64.7734 7.39844 64.7891 9.41406L 64.7891 15L 63.3438 15L 63.3438 9.40625C 63.3385 8.79688 63.1979 8.34635 62.9219 8.05469C 62.651 7.76302 62.2266 7.61719 61.6484 7.61719C 61.1797 7.61719 60.7682 7.74219 60.4141 7.99219C 60.0599 8.24219 59.7839 8.57031 59.5859 8.97656L 59.5859 15L 58.1406 15L 58.1406 6.54688L 59.5078 6.54688ZM 71.8906 12.7578C 71.8906 12.3672 71.7422 12.0651 71.4453 11.8516C 71.1536 11.6328 70.6406 11.4453 69.9062 11.2891C 69.1771 11.1328 68.5964 10.9453 68.1641 10.7266C 67.737 10.5078 67.4193 10.2474 67.2109 9.94531C 67.0078 9.64323 66.9062 9.28385 66.9062 8.86719C 66.9062 8.17448 67.1979 7.58854 67.7812 7.10938C 68.3698 6.63021 69.1198 6.39062 70.0312 6.39062C 70.9896 6.39062 71.7656 6.63802 72.3594 7.13281C 72.9583 7.6276 73.2578 8.26042 73.2578 9.03125L 71.8047 9.03125C 71.8047 8.63542 71.6354 8.29427 71.2969 8.00781C 70.9635 7.72135 70.5417 7.57812 70.0312 7.57812C 69.5052 7.57812 69.0938 7.69271 68.7969 7.92188C 68.5 8.15104 68.3516 8.45052 68.3516 8.82031C 68.3516 9.16927 68.4896 9.43229 68.7656 9.60938C 69.0417 9.78646 69.5391 9.95573 70.2578 10.1172C 70.9818 10.2786 71.5677 10.4714 72.0156 10.6953C 72.4635 10.9193 72.7943 11.1901 73.0078 11.5078C 73.2266 11.8203 73.3359 12.2031 73.3359 12.6562C 73.3359 13.4115 73.0339 14.0182 72.4297 14.4766C 71.8255 14.9297 71.0417 15.1562 70.0781 15.1562C 69.401 15.1562 68.8021 15.0365 68.2812 14.7969C 67.7604 14.5573 67.3516 14.224 67.0547 13.7969C 66.763 13.3646 66.6172 12.8984 66.6172 12.3984L 68.0625 12.3984C 68.0885 12.8828 68.2812 13.2682 68.6406 13.5547C 69.0052 13.8359 69.4844 13.9766 70.0781 13.9766C 70.625 13.9766 71.0625 13.8672 71.3906 13.6484C 71.724 13.4245 71.8906 13.1276 71.8906 12.7578Z"/>
<path id="path20_fill" d="M 2.46094 6.54688L 2.50781 7.60938C 3.15365 6.79688 3.9974 6.39062 5.03906 6.39062C 6.82552 6.39062 7.72656 7.39844 7.74219 9.41406L 7.74219 15L 6.29688 15L 6.29688 9.40625C 6.29167 8.79688 6.15104 8.34635 5.875 8.05469C 5.60417 7.76302 5.17969 7.61719 4.60156 7.61719C 4.13281 7.61719 3.72135 7.74219 3.36719 7.99219C 3.01302 8.24219 2.73698 8.57031 2.53906 8.97656L 2.53906 15L 1.09375 15L 1.09375 6.54688L 2.46094 6.54688Z"/>
<path id="path21_fill" d="M 17.2812 13.9766C 17.7969 13.9766 18.2474 13.8203 18.6328 13.5078C 19.0182 13.1953 19.2318 12.8047 19.2734 12.3359L 20.6406 12.3359C 20.6146 12.8203 20.4479 13.2812 20.1406 13.7188C 19.8333 14.1562 19.4219 14.5052 18.9062 14.7656C 18.3958 15.026 17.8542 15.1562 17.2812 15.1562C 16.1302 15.1562 15.2135 14.7734 14.5312 14.0078C 13.8542 13.237 13.5156 12.1849 13.5156 10.8516L 13.5156 10.6094C 13.5156 9.78646 13.6667 9.05469 13.9688 8.41406C 14.2708 7.77344 14.7031 7.27604 15.2656 6.92188C 15.8333 6.56771 16.5026 6.39062 17.2734 6.39062C 18.2214 6.39062 19.0078 6.67448 19.6328 7.24219C 20.263 7.8099 20.599 8.54688 20.6406 9.45312L 19.2734 9.45312C 19.2318 8.90625 19.0234 8.45833 18.6484 8.10938C 18.2786 7.75521 17.8203 7.57812 17.2734 7.57812C 16.5391 7.57812 15.9688 7.84375 15.5625 8.375C 15.1615 8.90104 14.9609 9.66406 14.9609 10.6641L 14.9609 10.9375C 14.9609 11.9115 15.1615 12.6615 15.5625 13.1875C 15.9635 13.7135 16.5365 13.9766 17.2812 13.9766ZM 21.8828 10.6953C 21.8828 9.86719 22.0443 9.1224 22.3672 8.46094C 22.6953 7.79948 23.1484 7.28906 23.7266 6.92969C 24.3099 6.57031 24.974 6.39062 25.7188 6.39062C 26.8698 6.39062 27.7995 6.78906 28.5078 7.58594C 29.2214 8.38281 29.5781 9.44271 29.5781 10.7656L 29.5781 10.8672C 29.5781 11.6901 29.4193 12.4297 29.1016 13.0859C 28.7891 13.737 28.3385 14.2448 27.75 14.6094C 27.1667 14.974 26.4948 15.1562 25.7344 15.1562C 24.5885 15.1562 23.6589 14.7578 22.9453 13.9609C 22.237 13.1641 21.8828 12.1094 21.8828 10.7969L 21.8828 10.6953ZM 23.3359 10.8672C 23.3359 11.8047 23.5521 12.5573 23.9844 13.125C 24.4219 13.6927 25.0052 13.9766 25.7344 13.9766C 26.4688 13.9766 27.0521 13.6901 27.4844 13.1172C 27.9167 12.5391 28.1328 11.7318 28.1328 10.6953C 28.1328 9.76823 27.9115 9.01823 27.4688 8.44531C 27.0312 7.86719 26.4479 7.57812 25.7188 7.57812C 25.0052 7.57812 24.4297 7.86198 23.9922 8.42969C 23.5547 8.9974 23.3359 9.8099 23.3359 10.8672ZM 32.9609 15L 31.5156 15L 31.5156 3L 32.9609 3L 32.9609 15ZM 40.5 14.1641C 39.9375 14.8255 39.112 15.1562 38.0234 15.1562C 37.1224 15.1562 36.4349 14.8958 35.9609 14.375C 35.4922 13.849 35.2552 13.0729 35.25 12.0469L 35.25 6.54688L 36.6953 6.54688L 36.6953 12.0078C 36.6953 13.2891 37.2161 13.9297 38.2578 13.9297C 39.362 13.9297 40.0964 13.5182 40.4609 12.6953L 40.4609 6.54688L 41.9062 6.54688L 41.9062 15L 40.5312 15L 40.5 14.1641ZM 45.4688 6.54688L 45.5078 7.48438C 46.1276 6.75521 46.9635 6.39062 48.0156 6.39062C 49.1979 6.39062 50.0026 6.84375 50.4297 7.75C 50.7109 7.34375 51.0755 7.01562 51.5234 6.76562C 51.9766 6.51562 52.5104 6.39062 53.125 6.39062C 54.9792 6.39062 55.9219 7.3724 55.9531 9.33594L 55.9531 15L 54.5078 15L 54.5078 9.42188C 54.5078 8.81771 54.3698 8.36719 54.0938 8.07031C 53.8177 7.76823 53.3542 7.61719 52.7031 7.61719C 52.1667 7.61719 51.7214 7.77865 51.3672 8.10156C 51.013 8.41927 50.8073 8.84896 50.75 9.39062L 50.75 15L 49.2969 15L 49.2969 9.46094C 49.2969 8.23177 48.6953 7.61719 47.4922 7.61719C 46.5443 7.61719 45.8958 8.02083 45.5469 8.82812L 45.5469 15L 44.1016 15L 44.1016 6.54688L 45.4688 6.54688ZM 59.5078 6.54688L 59.5547 7.60938C 60.2005 6.79688 61.0443 6.39062 62.0859 6.39062C 63.8724 6.39062 64.7734 7.39844 64.7891 9.41406L 64.7891 15L 63.3438 15L 63.3438 9.40625C 63.3385 8.79688 63.1979 8.34635 62.9219 8.05469C 62.651 7.76302 62.2266 7.61719 61.6484 7.61719C 61.1797 7.61719 60.7682 7.74219 60.4141 7.99219C 60.0599 8.24219 59.7839 8.57031 59.5859 8.97656L 59.5859 15L 58.1406 15L 58.1406 6.54688L 59.5078 6.54688ZM 71.8906 12.7578C 71.8906 12.3672 71.7422 12.0651 71.4453 11.8516C 71.1536 11.6328 70.6406 11.4453 69.9062 11.2891C 69.1771 11.1328 68.5964 10.9453 68.1641 10.7266C 67.737 10.5078 67.4193 10.2474 67.2109 9.94531C 67.0078 9.64323 66.9062 9.28385 66.9062 8.86719C 66.9062 8.17448 67.1979 7.58854 67.7812 7.10938C 68.3698 6.63021 69.1198 6.39062 70.0312 6.39062C 70.9896 6.39062 71.7656 6.63802 72.3594 7.13281C 72.9583 7.6276 73.2578 8.26042 73.2578 9.03125L 71.8047 9.03125C 71.8047 8.63542 71.6354 8.29427 71.2969 8.00781C 70.9635 7.72135 70.5417 7.57812 70.0312 7.57812C 69.5052 7.57812 69.0938 7.69271 68.7969 7.92188C 68.5 8.15104 68.3516 8.45052 68.3516 8.82031C 68.3516 9.16927 68.4896 9.43229 68.7656 9.60938C 69.0417 9.78646 69.5391 9.95573 70.2578 10.1172C 70.9818 10.2786 71.5677 10.4714 72.0156 10.6953C 72.4635 10.9193 72.7943 11.1901 73.0078 11.5078C 73.2266 11.8203 73.3359 12.2031 73.3359 12.6562C 73.3359 13.4115 73.0339 14.0182 72.4297 14.4766C 71.8255 14.9297 71.0417 15.1562 70.0781 15.1562C 69.401 15.1562 68.8021 15.0365 68.2812 14.7969C 67.7604 14.5573 67.3516 14.224 67.0547 13.7969C 66.763 13.3646 66.6172 12.8984 66.6172 12.3984L 68.0625 12.3984C 68.0885 12.8828 68.2812 13.2682 68.6406 13.5547C 69.0052 13.8359 69.4844 13.9766 70.0781 13.9766C 70.625 13.9766 71.0625 13.8672 71.3906 13.6484C 71.724 13.4245 71.8906 13.1276 71.8906 12.7578Z"/>
<path id="path22_fill" d="M 2.46094 6.54688L 2.50781 7.60938C 3.15365 6.79688 3.9974 6.39062 5.03906 6.39062C 6.82552 6.39062 7.72656 7.39844 7.74219 9.41406L 7.74219 15L 6.29688 15L 6.29688 9.40625C 6.29167 8.79688 6.15104 8.34635 5.875 8.05469C 5.60417 7.76302 5.17969 7.61719 4.60156 7.61719C 4.13281 7.61719 3.72135 7.74219 3.36719 7.99219C 3.01302 8.24219 2.73698 8.57031 2.53906 8.97656L 2.53906 15L 1.09375 15L 1.09375 6.54688L 2.46094 6.54688Z"/>
<path id="path23_fill" d="M 6.3125 15C 6.22917 14.8333 6.16146 14.5365 6.10938 14.1094C 5.4375 14.8073 4.63542 15.1562 3.70312 15.1562C 2.86979 15.1562 2.1849 14.9219 1.64844 14.4531C 1.11719 13.9792 0.851562 13.3802 0.851562 12.6562C 0.851562 11.776 1.1849 11.0938 1.85156 10.6094C 2.52344 10.1198 3.46615 9.875 4.67969 9.875L 6.08594 9.875L 6.08594 9.21094C 6.08594 8.70573 5.9349 8.30469 5.63281 8.00781C 5.33073 7.70573 4.88542 7.55469 4.29688 7.55469C 3.78125 7.55469 3.34896 7.6849 3 7.94531C 2.65104 8.20573 2.47656 8.52083 2.47656 8.89062L 1.02344 8.89062C 1.02344 8.46875 1.17188 8.0625 1.46875 7.67188C 1.77083 7.27604 2.17708 6.96354 2.6875 6.73438C 3.20312 6.50521 3.76823 6.39062 4.38281 6.39062C 5.35677 6.39062 6.11979 6.63542 6.67188 7.125C 7.22396 7.60938 7.51042 8.27865 7.53125 9.13281L 7.53125 13.0234C 7.53125 13.7995 7.63021 14.4167 7.82812 14.875L 7.82812 15L 6.3125 15ZM 3.91406 13.8984C 4.36719 13.8984 4.79688 13.7812 5.20312 13.5469C 5.60938 13.3125 5.90365 13.0078 6.08594 12.6328L 6.08594 10.8984L 4.95312 10.8984C 3.18229 10.8984 2.29688 11.4167 2.29688 12.4531C 2.29688 12.9062 2.44792 13.2604 2.75 13.5156C 3.05208 13.7708 3.4401 13.8984 3.91406 13.8984ZM 26.9219 15C 26.8385 14.8333 26.7708 14.5365 26.7188 14.1094C 26.0469 14.8073 25.2448 15.1562 24.3125 15.1562C 23.4792 15.1562 22.7943 14.9219 22.2578 14.4531C 21.7266 13.9792 21.4609 13.3802 21.4609 12.6562C 21.4609 11.776 21.7943 11.0938 22.4609 10.6094C 23.1328 10.1198 24.0755 9.875 25.2891 9.875L 26.6953 9.875L 26.6953 9.21094C 26.6953 8.70573 26.5443 8.30469 26.2422 8.00781C 25.9401 7.70573 25.4948 7.55469 24.9062 7.55469C 24.3906 7.55469 23.9583 7.6849 23.6094 7.94531C 23.2604 8.20573 23.0859 8.52083 23.0859 8.89062L 21.6328 8.89062C 21.6328 8.46875 21.7812 8.0625 22.0781 7.67188C 22.3802 7.27604 22.7865 6.96354 23.2969 6.73438C 23.8125 6.50521 24.3776 6.39062 24.9922 6.39062C 25.9661 6.39062 26.7292 6.63542 27.2812 7.125C 27.8333 7.60938 28.1198 8.27865 28.1406 9.13281L 28.1406 13.0234C 28.1406 13.7995 28.2396 14.4167 28.4375 14.875L 28.4375 15L 26.9219 15ZM 24.5234 13.8984C 24.9766 13.8984 25.4062 13.7812 25.8125 13.5469C 26.2188 13.3125 26.513 13.0078 26.6953 12.6328L 26.6953 10.8984L 25.5625 10.8984C 23.7917 10.8984 22.9062 11.4167 22.9062 12.4531C 22.9062 12.9062 23.0573 13.2604 23.3594 13.5156C 23.6615 13.7708 24.0495 13.8984 24.5234 13.8984ZM 47.5312 15C 47.4479 14.8333 47.3802 14.5365 47.3281 14.1094C 46.6562 14.8073 45.8542 15.1562 44.9219 15.1562C 44.0885 15.1562 43.4036 14.9219 42.8672 14.4531C 42.3359 13.9792 42.0703 13.3802 42.0703 12.6562C 42.0703 11.776 42.4036 11.0938 43.0703 10.6094C 43.7422 10.1198 44.6849 9.875 45.8984 9.875L 47.3047 9.875L 47.3047 9.21094C 47.3047 8.70573 47.1536 8.30469 46.8516 8.00781C 46.5495 7.70573 46.1042 7.55469 45.5156 7.55469C 45 7.55469 44.5677 7.6849 44.2188 7.94531C 43.8698 8.20573 43.6953 8.52083 43.6953 8.89062L 42.2422 8.89062C 42.2422 8.46875 42.3906 8.0625 42.6875 7.67188C 42.9896 7.27604 43.3958 6.96354 43.9062 6.73438C 44.4219 6.50521 44.987 6.39062 45.6016 6.39062C 46.5755 6.39062 47.3385 6.63542 47.8906 7.125C 48.4427 7.60938 48.7292 8.27865 48.75 9.13281L 48.75 13.0234C 48.75 13.7995 48.849 14.4167 49.0469 14.875L 49.0469 15L 47.5312 15ZM 45.1328 13.8984C 45.5859 13.8984 46.0156 13.7812 46.4219 13.5469C 46.8281 13.3125 47.1224 13.0078 47.3047 12.6328L 47.3047 10.8984L 46.1719 10.8984C 44.401 10.8984 43.5156 11.4167 43.5156 12.4531C 43.5156 12.9062 43.6667 13.2604 43.9688 13.5156C 44.2708 13.7708 44.6589 13.8984 45.1328 13.8984ZM 58.9844 14.2422C 58.9844 13.9922 59.0573 13.7839 59.2031 13.6172C 59.3542 13.4505 59.5781 13.3672 59.875 13.3672C 60.1719 13.3672 60.3958 13.4505 60.5469 13.6172C 60.7031 13.7839 60.7812 13.9922 60.7812 14.2422C 60.7812 14.4818 60.7031 14.6823 60.5469 14.8438C 60.3958 15.0052 60.1719 15.0859 59.875 15.0859C 59.5781 15.0859 59.3542 15.0052 59.2031 14.8438C 59.0573 14.6823 58.9844 14.4818 58.9844 14.2422ZM 63.2031 14.2422C 63.2031 13.9922 63.276 13.7839 63.4219 13.6172C 63.5729 13.4505 63.7969 13.3672 64.0938 13.3672C 64.3906 13.3672 64.6146 13.4505 64.7656 13.6172C 64.9219 13.7839 65 13.9922 65 14.2422C 65 14.4818 64.9219 14.6823 64.7656 14.8438C 64.6146 15.0052 64.3906 15.0859 64.0938 15.0859C 63.7969 15.0859 63.5729 15.0052 63.4219 14.8438C 63.276 14.6823 63.2031 14.4818 63.2031 14.2422ZM 67.4219 14.2422C 67.4219 13.9922 67.4948 13.7839 67.6406 13.6172C 67.7917 13.4505 68.0156 13.3672 68.3125 13.3672C 68.6094 13.3672 68.8333 13.4505 68.9844 13.6172C 69.1406 13.7839 69.2188 13.9922 69.2188 14.2422C 69.2188 14.4818 69.1406 14.6823 68.9844 14.8438C 68.8333 15.0052 68.6094 15.0859 68.3125 15.0859C 68.0156 15.0859 67.7917 15.0052 67.6406 14.8438C 67.4948 14.6823 67.4219 14.4818 67.4219 14.2422ZM 84.7656 15C 84.6823 14.8333 84.6146 14.5365 84.5625 14.1094C 83.8906 14.8073 83.0885 15.1562 82.1562 15.1562C 81.3229 15.1562 80.638 14.9219 80.1016 14.4531C 79.5703 13.9792 79.3047 13.3802 79.3047 12.6562C 79.3047 11.776 79.638 11.0938 80.3047 10.6094C 80.9766 10.1198 81.9193 9.875 83.1328 9.875L 84.5391 9.875L 84.5391 9.21094C 84.5391 8.70573 84.388 8.30469 84.0859 8.00781C 83.7839 7.70573 83.3385 7.55469 82.75 7.55469C 82.2344 7.55469 81.8021 7.6849 81.4531 7.94531C 81.1042 8.20573 80.9297 8.52083 80.9297 8.89062L 79.4766 8.89062C 79.4766 8.46875 79.625 8.0625 79.9219 7.67188C 80.224 7.27604 80.6302 6.96354 81.1406 6.73438C 81.6562 6.50521 82.2214 6.39062 82.8359 6.39062C 83.8099 6.39062 84.5729 6.63542 85.125 7.125C 85.6771 7.60938 85.9635 8.27865 85.9844 9.13281L 85.9844 13.0234C 85.9844 13.7995 86.0833 14.4167 86.2812 14.875L 86.2812 15L 84.7656 15ZM 82.3672 13.8984C 82.8203 13.8984 83.25 13.7812 83.6562 13.5469C 84.0625 13.3125 84.3568 13.0078 84.5391 12.6328L 84.5391 10.8984L 83.4062 10.8984C 81.6354 10.8984 80.75 11.4167 80.75 12.4531C 80.75 12.9062 80.901 13.2604 81.2031 13.5156C 81.5052 13.7708 81.8932 13.8984 82.3672 13.8984Z"/>
<path id="path24_fill" d="M 8.66602 9.8457L 1.33594 9.8457L 1.33594 8.43066L 8.66602 8.43066L 8.66602 9.8457ZM 8.66602 13.4932L 1.33594 13.4932L 1.33594 12.0869L 8.66602 12.0869L 8.66602 13.4932Z"/>
<path id="path25_fill" d="M 4.3418 14.6182L 6.55664 7.49023L 8.29688 7.49023L 4.47363 18.4678C 3.88184 20.0498 2.94141 20.8408 1.65234 20.8408L 1.34473 20.8145L 0.738281 20.7002L 0.738281 19.3818L 1.17773 19.417C 1.72852 19.417 2.15625 19.3057 2.46094 19.083C 2.77148 18.8604 3.02637 18.4531 3.22559 17.8613L 3.58594 16.8945L 0.193359 7.49023L 1.96875 7.49023L 4.3418 14.6182Z"/>
<path id="path26_fill" d="M 2.91211 4.72168L 1.61328 8.0166L 0.4375 8.0166L 2.48145 3.04688L 3.34961 3.04688L 5.38672 8.0166L 4.21777 8.0166L 2.91211 4.72168Z"/>
<path id="path27_fill" d="M 5.71875 15L 4.26562 15L 4.26562 5.36719L 1.35156 6.4375L 1.35156 5.125L 5.49219 3.57031L 5.71875 3.57031L 5.71875 15ZM 17.0859 10.1484C 17.0859 11.8411 16.7969 13.099 16.2188 13.9219C 15.6406 14.7448 14.737 15.1562 13.5078 15.1562C 12.2943 15.1562 11.3958 14.7552 10.8125 13.9531C 10.2292 13.1458 9.92708 11.9427 9.90625 10.3438L 9.90625 8.41406C 9.90625 6.74219 10.1953 5.5 10.7734 4.6875C 11.3516 3.875 12.2578 3.46875 13.4922 3.46875C 14.7161 3.46875 15.6172 3.86198 16.1953 4.64844C 16.7734 5.42969 17.0703 6.63802 17.0859 8.27344L 17.0859 10.1484ZM 15.6406 8.17188C 15.6406 6.94792 15.4688 6.05729 15.125 5.5C 14.7812 4.9375 14.237 4.65625 13.4922 4.65625C 12.7526 4.65625 12.2135 4.9349 11.875 5.49219C 11.5365 6.04948 11.362 6.90625 11.3516 8.0625L 11.3516 10.375C 11.3516 11.6042 11.5286 12.513 11.8828 13.1016C 12.2422 13.6849 12.7839 13.9766 13.5078 13.9766C 14.2214 13.9766 14.75 13.7005 15.0938 13.1484C 15.4427 12.5964 15.625 11.7266 15.6406 10.5391L 15.6406 8.17188ZM 26.0703 10.1484C 26.0703 11.8411 25.7812 13.099 25.2031 13.9219C 24.625 14.7448 23.7214 15.1562 22.4922 15.1562C 21.2786 15.1562 20.3802 14.7552 19.7969 13.9531C 19.2135 13.1458 18.9115 11.9427 18.8906 10.3438L 18.8906 8.41406C 18.8906 6.74219 19.1797 5.5 19.7578 4.6875C 20.3359 3.875 21.2422 3.46875 22.4766 3.46875C 23.7005 3.46875 24.6016 3.86198 25.1797 4.64844C 25.7578 5.42969 26.0547 6.63802 26.0703 8.27344L 26.0703 10.1484ZM 24.625 8.17188C 24.625 6.94792 24.4531 6.05729 24.1094 5.5C 23.7656 4.9375 23.2214 4.65625 22.4766 4.65625C 21.737 4.65625 21.1979 4.9349 20.8594 5.49219C 20.5208 6.04948 20.3464 6.90625 20.3359 8.0625L 20.3359 10.375C 20.3359 11.6042 20.513 12.513 20.8672 13.1016C 21.2266 13.6849 21.7682 13.9766 22.4922 13.9766C 23.2057 13.9766 23.7344 13.7005 24.0781 13.1484C 24.4271 12.5964 24.6094 11.7266 24.625 10.5391L 24.625 8.17188ZM 8.42188 34L 0.96875 34L 0.96875 32.9609L 4.90625 28.5859C 5.48958 27.9245 5.89062 27.388 6.10938 26.9766C 6.33333 26.5599 6.44531 26.1302 6.44531 25.6875C 6.44531 25.0938 6.26562 24.6068 5.90625 24.2266C 5.54688 23.8464 5.06771 23.6562 4.46875 23.6562C 3.75 23.6562 3.1901 23.862 2.78906 24.2734C 2.39323 24.6797 2.19531 25.2474 2.19531 25.9766L 0.75 25.9766C 0.75 24.9297 1.08594 24.0833 1.75781 23.4375C 2.4349 22.7917 3.33854 22.4688 4.46875 22.4688C 5.52604 22.4688 6.36198 22.7474 6.97656 23.3047C 7.59115 23.8568 7.89844 24.5938 7.89844 25.5156C 7.89844 26.6354 7.1849 27.9688 5.75781 29.5156L 2.71094 32.8203L 8.42188 32.8203L 8.42188 34ZM 10.6172 28.2969L 11.1953 22.625L 17.0234 22.625L 17.0234 23.9609L 12.4219 23.9609L 12.0781 27.0625C 12.6354 26.7344 13.2682 26.5703 13.9766 26.5703C 15.013 26.5703 15.8359 26.9141 16.4453 27.6016C 17.0547 28.2839 17.3594 29.2083 17.3594 30.375C 17.3594 31.5469 17.0417 32.4714 16.4062 33.1484C 15.776 33.8203 14.8932 34.1562 13.7578 34.1562C 12.7526 34.1562 11.9323 33.8776 11.2969 33.3203C 10.6615 32.763 10.2995 31.9922 10.2109 31.0078L 11.5781 31.0078C 11.6667 31.6589 11.8984 32.151 12.2734 32.4844C 12.6484 32.8125 13.1432 32.9766 13.7578 32.9766C 14.4297 32.9766 14.9557 32.7474 15.3359 32.2891C 15.7214 31.8307 15.9141 31.1979 15.9141 30.3906C 15.9141 29.6302 15.7057 29.0208 15.2891 28.5625C 14.8776 28.099 14.3281 27.8672 13.6406 27.8672C 13.0104 27.8672 12.5156 28.0052 12.1562 28.2812L 11.7734 28.5938L 10.6172 28.2969ZM 26.0703 29.1484C 26.0703 30.8411 25.7812 32.099 25.2031 32.9219C 24.625 33.7448 23.7214 34.1562 22.4922 34.1562C 21.2786 34.1562 20.3802 33.7552 19.7969 32.9531C 19.2135 32.1458 18.9115 30.9427 18.8906 29.3438L 18.8906 27.4141C 18.8906 25.7422 19.1797 24.5 19.7578 23.6875C 20.3359 22.875 21.2422 22.4688 22.4766 22.4688C 23.7005 22.4688 24.6016 22.862 25.1797 23.6484C 25.7578 24.4297 26.0547 25.638 26.0703 27.2734L 26.0703 29.1484ZM 24.625 27.1719C 24.625 25.9479 24.4531 25.0573 24.1094 24.5C 23.7656 23.9375 23.2214 23.6562 22.4766 23.6562C 21.737 23.6562 21.1979 23.9349 20.8594 24.4922C 20.5208 25.0495 20.3464 25.9062 20.3359 27.0625L 20.3359 29.375C 20.3359 30.6042 20.513 31.513 20.8672 32.1016C 21.2266 32.6849 21.7682 32.9766 22.4922 32.9766C 23.2057 32.9766 23.7344 32.7005 24.0781 32.1484C 24.4271 31.5964 24.6094 30.7266 24.625 29.5391L 24.625 27.1719ZM 5.71875 52L 4.26562 52L 4.26562 42.3672L 1.35156 43.4375L 1.35156 42.125L 5.49219 40.5703L 5.71875 40.5703L 5.71875 52ZM 17.0859 47.1484C 17.0859 48.8411 16.7969 50.099 16.2188 50.9219C 15.6406 51.7448 14.737 52.1562 13.5078 52.1562C 12.2943 52.1562 11.3958 51.7552 10.8125 50.9531C 10.2292 50.1458 9.92708 48.9427 9.90625 47.3438L 9.90625 45.4141C 9.90625 43.7422 10.1953 42.5 10.7734 41.6875C 11.3516 40.875 12.2578 40.4688 13.4922 40.4688C 14.7161 40.4688 15.6172 40.862 16.1953 41.6484C 16.7734 42.4297 17.0703 43.638 17.0859 45.2734L 17.0859 47.1484ZM 15.6406 45.1719C 15.6406 43.9479 15.4688 43.0573 15.125 42.5C 14.7812 41.9375 14.237 41.6562 13.4922 41.6562C 12.7526 41.6562 12.2135 41.9349 11.875 42.4922C 11.5365 43.0495 11.362 43.9062 11.3516 45.0625L 11.3516 47.375C 11.3516 48.6042 11.5286 49.513 11.8828 50.1016C 12.2422 50.6849 12.7839 50.9766 13.5078 50.9766C 14.2214 50.9766 14.75 50.7005 15.0938 50.1484C 15.4427 49.5964 15.625 48.7266 15.6406 47.5391L 15.6406 45.1719ZM 25.8359 43.5938C 25.8359 44.1615 25.6849 44.6667 25.3828 45.1094C 25.0859 45.5521 24.6823 45.8984 24.1719 46.1484C 24.7656 46.4036 25.2344 46.776 25.5781 47.2656C 25.9271 47.7552 26.1016 48.3099 26.1016 48.9297C 26.1016 49.9141 25.7682 50.6979 25.1016 51.2812C 24.4401 51.8646 23.5677 52.1562 22.4844 52.1562C 21.3906 52.1562 20.513 51.8646 19.8516 51.2812C 19.1953 50.6927 18.8672 49.9089 18.8672 48.9297C 18.8672 48.3151 19.0339 47.7604 19.3672 47.2656C 19.7057 46.7708 20.1719 46.3958 20.7656 46.1406C 20.2604 45.8906 19.862 45.5443 19.5703 45.1016C 19.2786 44.6589 19.1328 44.1562 19.1328 43.5938C 19.1328 42.6354 19.4401 41.875 20.0547 41.3125C 20.6693 40.75 21.4792 40.4688 22.4844 40.4688C 23.4844 40.4688 24.2917 40.75 24.9062 41.3125C 25.526 41.875 25.8359 42.6354 25.8359 43.5938ZM 24.6562 48.8984C 24.6562 48.263 24.4531 47.7448 24.0469 47.3438C 23.6458 46.9427 23.1198 46.7422 22.4688 46.7422C 21.8177 46.7422 21.2943 46.9401 20.8984 47.3359C 20.5078 47.7318 20.3125 48.2526 20.3125 48.8984C 20.3125 49.5443 20.5026 50.0521 20.8828 50.4219C 21.2682 50.7917 21.8021 50.9766 22.4844 50.9766C 23.1615 50.9766 23.6927 50.7917 24.0781 50.4219C 24.4635 50.0469 24.6562 49.5391 24.6562 48.8984ZM 22.4844 41.6562C 21.9167 41.6562 21.4557 41.8333 21.1016 42.1875C 20.7526 42.5365 20.5781 43.013 20.5781 43.6172C 20.5781 44.1953 20.75 44.6641 21.0938 45.0234C 21.4427 45.3776 21.9062 45.5547 22.4844 45.5547C 23.0625 45.5547 23.5234 45.3776 23.8672 45.0234C 24.2161 44.6641 24.3906 44.1953 24.3906 43.6172C 24.3906 43.0391 24.2109 42.5677 23.8516 42.2031C 23.4922 41.8385 23.0365 41.6562 22.4844 41.6562ZM 8.29688 70.2422C 8.29688 69.9922 8.36979 69.7839 8.51562 69.6172C 8.66667 69.4505 8.89062 69.3672 9.1875 69.3672C 9.48438 69.3672 9.70833 69.4505 9.85938 69.6172C 10.0156 69.7839 10.0938 69.9922 10.0938 70.2422C 10.0938 70.4818 10.0156 70.6823 9.85938 70.8438C 9.70833 71.0052 9.48438 71.0859 9.1875 71.0859C 8.89062 71.0859 8.66667 71.0052 8.51562 70.8438C 8.36979 70.6823 8.29688 70.4818 8.29688 70.2422ZM 12.5156 70.2422C 12.5156 69.9922 12.5885 69.7839 12.7344 69.6172C 12.8854 69.4505 13.1094 69.3672 13.4062 69.3672C 13.7031 69.3672 13.9271 69.4505 14.0781 69.6172C 14.2344 69.7839 14.3125 69.9922 14.3125 70.2422C 14.3125 70.4818 14.2344 70.6823 14.0781 70.8438C 13.9271 71.0052 13.7031 71.0859 13.4062 71.0859C 13.1094 71.0859 12.8854 71.0052 12.7344 70.8438C 12.5885 70.6823 12.5156 70.4818 12.5156 70.2422ZM 16.7344 70.2422C 16.7344 69.9922 16.8073 69.7839 16.9531 69.6172C 17.1042 69.4505 17.3281 69.3672 17.625 69.3672C 17.9219 69.3672 18.1458 69.4505 18.2969 69.6172C 18.4531 69.7839 18.5312 69.9922 18.5312 70.2422C 18.5312 70.4818 18.4531 70.6823 18.2969 70.8438C 18.1458 71.0052 17.9219 71.0859 17.625 71.0859C 17.3281 71.0859 17.1042 71.0052 16.9531 70.8438C 16.8073 70.6823 16.7344 70.4818 16.7344 70.2422ZM 10.2109 90L 8.75781 90L 8.75781 80.3672L 5.84375 81.4375L 5.84375 80.125L 9.98438 78.5703L 10.2109 78.5703L 10.2109 90ZM 19.9844 85C 19.6823 85.3594 19.3203 85.6484 18.8984 85.8672C 18.4818 86.0859 18.0234 86.1953 17.5234 86.1953C 16.8672 86.1953 16.2943 86.0339 15.8047 85.7109C 15.3203 85.388 14.9453 84.9349 14.6797 84.3516C 14.4141 83.763 14.2812 83.1146 14.2812 82.4062C 14.2812 81.6458 14.4245 80.9609 14.7109 80.3516C 15.0026 79.7422 15.4141 79.276 15.9453 78.9531C 16.4766 78.6302 17.0964 78.4688 17.8047 78.4688C 18.9297 78.4688 19.8151 78.8906 20.4609 79.7344C 21.112 80.5729 21.4375 81.7188 21.4375 83.1719L 21.4375 83.5938C 21.4375 85.8073 21 87.4245 20.125 88.4453C 19.25 89.4609 17.9297 89.9818 16.1641 90.0078L 15.8828 90.0078L 15.8828 88.7891L 16.1875 88.7891C 17.3802 88.7682 18.2969 88.4583 18.9375 87.8594C 19.5781 87.2552 19.9271 86.3021 19.9844 85ZM 17.7578 85C 18.2422 85 18.6875 84.8516 19.0938 84.5547C 19.5052 84.2578 19.8047 83.8906 19.9922 83.4531L 19.9922 82.875C 19.9922 81.9271 19.7865 81.1562 19.375 80.5625C 18.9635 79.9688 18.4427 79.6719 17.8125 79.6719C 17.1771 79.6719 16.6667 79.9167 16.2812 80.4062C 15.8958 80.8906 15.7031 81.5312 15.7031 82.3281C 15.7031 83.1042 15.888 83.7448 16.2578 84.25C 16.6328 84.75 17.1328 85 17.7578 85Z"/>
<path id="path28_stroke" d="M 0 0L 152 0L 152 -1L 0 -1L 0 0Z"/>
<path id="path29_stroke" d="M 0 0L 111 0L 111 -1L 0 -1L 0 0Z"/>
<path id="path30_stroke" d="M 0 0L 50 0L 50 -1L 0 -1L 0 0Z"/>
</defs>
</svg>

