<svg width="238" height="615" viewBox="0 0 238 615" version="1.1" xmlns="http://www.w3.org/2000/svg" xmlns:xlink="http://www.w3.org/1999/xlink">
<title>Group.svg</title>
<desc>Created using Figma</desc>
<g id="Canvas" transform="translate(333 353)">
<g id="Group">
<g id="Rectangle">
<use xlink:href="#path0_fill" transform="translate(-321 -195)" fill="#F27676"/>
</g>
<g id="transform_features()">
<use xlink:href="#path1_fill" transform="translate(-307 -181)"/>
</g>
<g id="Rectangle">
<use xlink:href="#path2_fill" transform="translate(-306 -60)" fill="#F27676"/>
</g>
<g id="select_features()">
<use xlink:href="#path3_fill" transform="translate(-292 -46)"/>
</g>
<g id="Rectangle">
<use xlink:href="#path2_fill" transform="translate(-304 80)" fill="#F27676"/>
</g>
<g id="train_and_test()">
<use xlink:href="#path4_fill" transform="translate(-287 94)"/>
</g>
<g id="Arrow">
<use xlink:href="#path5_stroke" transform="matrix(6.12323e-17 1 -1 6.12323e-17 -229 -248)"/>
</g>
<g id="Arrow">
<use xlink:href="#path5_stroke" transform="matrix(6.12323e-17 1 -1 6.12323e-17 -229 22)"/>
</g>
<g id="Arrow">
<use xlink:href="#path5_stroke" transform="matrix(6.12323e-17 1 -1 6.12323e-17 -229 164)"/>
</g>
<g id="Arrow">
<use xlink:href="#path5_stroke" transform="matrix(6.12323e-17 1 -1 6.12323e-17 -229 -119)"/>
</g>
<g id="Rectangle 2">
<mask id="mask0_outline_ins">
<use xlink:href="#path6_fill" fill="white" transform="translate(-285 -331)"/>
</mask>
<g mask="url(#mask0_outline_ins)">
<use xlink:href="#path7_stroke_2x" transform="translate(-285 -331)"/>
</g>
</g>
<g id="train">
<use xlink:href="#path8_fill" transform="translate(-250 -357)"/>
</g>
<g id="rmse_values: [120.3, 119. 3 ...] avg_mse: 120.1">
<use xlink:href="#path9_fill" transform="translate(-334 220)"/>
</g>
</g>
</g>
<defs>
<path id="path0_fill" d="M 0 0L 194 0L 194 57L 0 57L 0 0Z"/>
<path id="path1_fill" d="M 3.43652 5.1875L 3.43652 7.49023L 5.21191 7.49023L 5.21191 8.74707L 3.43652 8.74707L 3.43652 14.6445C 3.43652 15.0254 3.51562 15.3125 3.67383 15.5059C 3.83203 15.6934 4.10156 15.7871 4.48242 15.7871C 4.66992 15.7871 4.92773 15.752 5.25586 15.6816L 5.25586 17C 4.82812 17.1172 4.41211 17.1758 4.00781 17.1758C 3.28125 17.1758 2.7334 16.9561 2.36426 16.5166C 1.99512 16.0771 1.81055 15.4531 1.81055 14.6445L 1.81055 8.74707L 0.0791016 8.74707L 0.0791016 7.49023L 1.81055 7.49023L 1.81055 5.1875L 3.43652 5.1875ZM 11.7158 8.94922C 11.4697 8.9082 11.2031 8.8877 10.916 8.8877C 9.84961 8.8877 9.12598 9.3418 8.74512 10.25L 8.74512 17L 7.11914 17L 7.11914 7.49023L 8.70117 7.49023L 8.72754 8.58887C 9.26074 7.73926 10.0166 7.31445 10.9951 7.31445C 11.3115 7.31445 11.5518 7.35547 11.7158 7.4375L 11.7158 8.94922ZM 18.7383 17C 18.6445 16.8125 18.5684 16.4785 18.5098 15.998C 17.7539 16.7832 16.8516 17.1758 15.8027 17.1758C 14.8652 17.1758 14.0947 16.9121 13.4912 16.3848C 12.8936 15.8516 12.5947 15.1777 12.5947 14.3633C 12.5947 13.373 12.9697 12.6055 13.7197 12.0605C 14.4756 11.5098 15.5361 11.2344 16.9014 11.2344L 18.4834 11.2344L 18.4834 10.4873C 18.4834 9.91895 18.3135 9.46777 17.9736 9.13379C 17.6338 8.79395 17.1328 8.62402 16.4707 8.62402C 15.8906 8.62402 15.4043 8.77051 15.0117 9.06348C 14.6191 9.35645 14.4229 9.71094 14.4229 10.127L 12.7881 10.127C 12.7881 9.65234 12.9551 9.19531 13.2891 8.75586C 13.6289 8.31055 14.0859 7.95898 14.6602 7.70117C 15.2402 7.44336 15.876 7.31445 16.5674 7.31445C 17.6631 7.31445 18.5215 7.58984 19.1426 8.14062C 19.7637 8.68555 20.0859 9.43848 20.1094 10.3994L 20.1094 14.7764C 20.1094 15.6494 20.2207 16.3438 20.4434 16.8594L 20.4434 17L 18.7383 17ZM 16.04 15.7607C 16.5498 15.7607 17.0332 15.6289 17.4902 15.3652C 17.9473 15.1016 18.2783 14.7588 18.4834 14.3369L 18.4834 12.3857L 17.209 12.3857C 15.2168 12.3857 14.2207 12.9688 14.2207 14.1348C 14.2207 14.6445 14.3906 15.043 14.7305 15.3301C 15.0703 15.6172 15.5068 15.7607 16.04 15.7607ZM 24.1963 7.49023L 24.249 8.68555C 24.9756 7.77148 25.9248 7.31445 27.0967 7.31445C 29.1064 7.31445 30.1201 8.44824 30.1377 10.7158L 30.1377 17L 28.5117 17L 28.5117 10.707C 28.5059 10.0215 28.3477 9.51465 28.0371 9.18652C 27.7324 8.8584 27.2549 8.69434 26.6045 8.69434C 26.0771 8.69434 25.6143 8.83496 25.2158 9.11621C 24.8174 9.39746 24.5068 9.7666 24.2842 10.2236L 24.2842 17L 22.6582 17L 22.6582 7.49023L 24.1963 7.49023ZM 38.127 14.4775C 38.127 14.0381 37.96 13.6982 37.626 13.458C 37.2979 13.2119 36.7207 13.001 35.8945 12.8252C 35.0742 12.6494 34.4209 12.4385 33.9346 12.1924C 33.4541 11.9463 33.0967 11.6533 32.8623 11.3135C 32.6338 10.9736 32.5195 10.5693 32.5195 10.1006C 32.5195 9.32129 32.8477 8.66211 33.5039 8.12305C 34.166 7.58398 35.0098 7.31445 36.0352 7.31445C 37.1133 7.31445 37.9863 7.59277 38.6543 8.14941C 39.3281 8.70605 39.665 9.41797 39.665 10.2852L 38.0303 10.2852C 38.0303 9.83984 37.8398 9.45605 37.459 9.13379C 37.084 8.81152 36.6094 8.65039 36.0352 8.65039C 35.4434 8.65039 34.9805 8.7793 34.6465 9.03711C 34.3125 9.29492 34.1455 9.63184 34.1455 10.0479C 34.1455 10.4404 34.3008 10.7363 34.6113 10.9355C 34.9219 11.1348 35.4814 11.3252 36.29 11.5068C 37.1045 11.6885 37.7637 11.9053 38.2676 12.1572C 38.7715 12.4092 39.1436 12.7139 39.3838 13.0713C 39.6299 13.4229 39.7529 13.8535 39.7529 14.3633C 39.7529 15.2129 39.4131 15.8955 38.7334 16.4111C 38.0537 16.9209 37.1719 17.1758 36.0879 17.1758C 35.3262 17.1758 34.6523 17.041 34.0664 16.7715C 33.4805 16.502 33.0205 16.127 32.6865 15.6465C 32.3584 15.1602 32.1943 14.6357 32.1943 14.0732L 33.8203 14.0732C 33.8496 14.6182 34.0664 15.0518 34.4707 15.374C 34.8809 15.6904 35.4199 15.8486 36.0879 15.8486C 36.7031 15.8486 37.1953 15.7256 37.5645 15.4795C 37.9395 15.2275 38.127 14.8936 38.127 14.4775ZM 42.6709 17L 42.6709 8.74707L 41.168 8.74707L 41.168 7.49023L 42.6709 7.49023L 42.6709 6.51465C 42.6709 5.49512 42.9434 4.70703 43.4883 4.15039C 44.0332 3.59375 44.8037 3.31543 45.7998 3.31543C 46.1748 3.31543 46.5469 3.36523 46.916 3.46484L 46.8281 4.7832C 46.5527 4.73047 46.2598 4.7041 45.9492 4.7041C 45.4219 4.7041 45.0146 4.85938 44.7275 5.16992C 44.4404 5.47461 44.2969 5.91406 44.2969 6.48828L 44.2969 7.49023L 46.3271 7.49023L 46.3271 8.74707L 44.2969 8.74707L 44.2969 17L 42.6709 17ZM 47.6982 12.1572C 47.6982 11.2256 47.8799 10.3877 48.2432 9.64355C 48.6123 8.89941 49.1221 8.3252 49.7725 7.9209C 50.4287 7.5166 51.1758 7.31445 52.0137 7.31445C 53.3086 7.31445 54.3545 7.7627 55.1514 8.65918C 55.9541 9.55566 56.3555 10.748 56.3555 12.2363L 56.3555 12.3506C 56.3555 13.2764 56.1768 14.1084 55.8193 14.8467C 55.4678 15.5791 54.9609 16.1504 54.2988 16.5605C 53.6426 16.9707 52.8867 17.1758 52.0312 17.1758C 50.7422 17.1758 49.6963 16.7275 48.8936 15.8311C 48.0967 14.9346 47.6982 13.748 47.6982 12.2715L 47.6982 12.1572ZM 49.333 12.3506C 49.333 13.4053 49.5762 14.252 50.0625 14.8906C 50.5547 15.5293 51.2109 15.8486 52.0312 15.8486C 52.8574 15.8486 53.5137 15.5264 54 14.8818C 54.4863 14.2314 54.7295 13.3232 54.7295 12.1572C 54.7295 11.1143 54.4805 10.2705 53.9824 9.62598C 53.4902 8.97559 52.834 8.65039 52.0137 8.65039C 51.2109 8.65039 50.5635 8.96973 50.0713 9.6084C 49.5791 10.2471 49.333 11.1611 49.333 12.3506ZM 62.9912 8.94922C 62.7451 8.9082 62.4785 8.8877 62.1914 8.8877C 61.125 8.8877 60.4014 9.3418 60.0205 10.25L 60.0205 17L 58.3945 17L 58.3945 7.49023L 59.9766 7.49023L 60.0029 8.58887C 60.5361 7.73926 61.292 7.31445 62.2705 7.31445C 62.5869 7.31445 62.8271 7.35547 62.9912 7.4375L 62.9912 8.94922ZM 66.0234 7.49023L 66.0674 8.54492C 66.7646 7.72461 67.7051 7.31445 68.8887 7.31445C 70.2188 7.31445 71.124 7.82422 71.6045 8.84375C 71.9209 8.38672 72.3311 8.01758 72.835 7.73633C 73.3447 7.45508 73.9453 7.31445 74.6367 7.31445C 76.7227 7.31445 77.7832 8.41895 77.8184 10.6279L 77.8184 17L 76.1924 17L 76.1924 10.7246C 76.1924 10.0449 76.0371 9.53809 75.7266 9.2041C 75.416 8.86426 74.8945 8.69434 74.1621 8.69434C 73.5586 8.69434 73.0576 8.87598 72.6592 9.23926C 72.2607 9.59668 72.0293 10.0801 71.9648 10.6895L 71.9648 17L 70.3301 17L 70.3301 10.7686C 70.3301 9.38574 69.6533 8.69434 68.2998 8.69434C 67.2334 8.69434 66.5039 9.14844 66.1113 10.0566L 66.1113 17L 64.4854 17L 64.4854 7.49023L 66.0234 7.49023ZM 87.1348 18.3271L 79.084 18.3271L 79.084 17L 87.1348 17L 87.1348 18.3271ZM 89.2002 17L 89.2002 8.74707L 87.6973 8.74707L 87.6973 7.49023L 89.2002 7.49023L 89.2002 6.51465C 89.2002 5.49512 89.4727 4.70703 90.0176 4.15039C 90.5625 3.59375 91.333 3.31543 92.3291 3.31543C 92.7041 3.31543 93.0762 3.36523 93.4453 3.46484L 93.3574 4.7832C 93.082 4.73047 92.7891 4.7041 92.4785 4.7041C 91.9512 4.7041 91.5439 4.85938 91.2568 5.16992C 90.9697 5.47461 90.8262 5.91406 90.8262 6.48828L 90.8262 7.49023L 92.8564 7.49023L 92.8564 8.74707L 90.8262 8.74707L 90.8262 17L 89.2002 17ZM 98.3936 17.1758C 97.1045 17.1758 96.0557 16.7539 95.2471 15.9102C 94.4385 15.0605 94.0342 13.9268 94.0342 12.5088L 94.0342 12.21C 94.0342 11.2666 94.2129 10.4258 94.5703 9.6875C 94.9336 8.94336 95.4375 8.36328 96.082 7.94727C 96.7324 7.52539 97.4355 7.31445 98.1914 7.31445C 99.4277 7.31445 100.389 7.72168 101.074 8.53613C 101.76 9.35059 102.103 10.5166 102.103 12.0342L 102.103 12.7109L 95.6602 12.7109C 95.6836 13.6484 95.9561 14.4072 96.4775 14.9873C 97.0049 15.5615 97.6729 15.8486 98.4814 15.8486C 99.0557 15.8486 99.542 15.7314 99.9404 15.4971C 100.339 15.2627 100.688 14.9521 100.986 14.5654L 101.979 15.3389C 101.183 16.5635 99.9873 17.1758 98.3936 17.1758ZM 98.1914 8.65039C 97.5352 8.65039 96.9844 8.89062 96.5391 9.37109C 96.0938 9.8457 95.8184 10.5137 95.7129 11.375L 100.477 11.375L 100.477 11.252C 100.43 10.4258 100.207 9.78711 99.8086 9.33594C 99.4102 8.87891 98.8711 8.65039 98.1914 8.65039ZM 109.863 17C 109.77 16.8125 109.693 16.4785 109.635 15.998C 108.879 16.7832 107.977 17.1758 106.928 17.1758C 105.99 17.1758 105.22 16.9121 104.616 16.3848C 104.019 15.8516 103.72 15.1777 103.72 14.3633C 103.72 13.373 104.095 12.6055 104.845 12.0605C 105.601 11.5098 106.661 11.2344 108.026 11.2344L 109.608 11.2344L 109.608 10.4873C 109.608 9.91895 109.438 9.46777 109.099 9.13379C 108.759 8.79395 108.258 8.62402 107.596 8.62402C 107.016 8.62402 106.529 8.77051 106.137 9.06348C 105.744 9.35645 105.548 9.71094 105.548 10.127L 103.913 10.127C 103.913 9.65234 104.08 9.19531 104.414 8.75586C 104.754 8.31055 105.211 7.95898 105.785 7.70117C 106.365 7.44336 107.001 7.31445 107.692 7.31445C 108.788 7.31445 109.646 7.58984 110.268 8.14062C 110.889 8.68555 111.211 9.43848 111.234 10.3994L 111.234 14.7764C 111.234 15.6494 111.346 16.3438 111.568 16.8594L 111.568 17L 109.863 17ZM 107.165 15.7607C 107.675 15.7607 108.158 15.6289 108.615 15.3652C 109.072 15.1016 109.403 14.7588 109.608 14.3369L 109.608 12.3857L 108.334 12.3857C 106.342 12.3857 105.346 12.9688 105.346 14.1348C 105.346 14.6445 105.516 15.043 105.855 15.3301C 106.195 15.6172 106.632 15.7607 107.165 15.7607ZM 115.989 5.1875L 115.989 7.49023L 117.765 7.49023L 117.765 8.74707L 115.989 8.74707L 115.989 14.6445C 115.989 15.0254 116.068 15.3125 116.227 15.5059C 116.385 15.6934 116.654 15.7871 117.035 15.7871C 117.223 15.7871 117.48 15.752 117.809 15.6816L 117.809 17C 117.381 17.1172 116.965 17.1758 116.561 17.1758C 115.834 17.1758 115.286 16.9561 114.917 16.5166C 114.548 16.0771 114.363 15.4531 114.363 14.6445L 114.363 8.74707L 112.632 8.74707L 112.632 7.49023L 114.363 7.49023L 114.363 5.1875L 115.989 5.1875ZM 125.543 16.0596C 124.91 16.8037 123.981 17.1758 122.757 17.1758C 121.743 17.1758 120.97 16.8828 120.437 16.2969C 119.909 15.7051 119.643 14.832 119.637 13.6777L 119.637 7.49023L 121.263 7.49023L 121.263 13.6338C 121.263 15.0752 121.849 15.7959 123.021 15.7959C 124.263 15.7959 125.089 15.333 125.499 14.4072L 125.499 7.49023L 127.125 7.49023L 127.125 17L 125.578 17L 125.543 16.0596ZM 134.2 8.94922C 133.954 8.9082 133.688 8.8877 133.4 8.8877C 132.334 8.8877 131.61 9.3418 131.229 10.25L 131.229 17L 129.604 17L 129.604 7.49023L 131.186 7.49023L 131.212 8.58887C 131.745 7.73926 132.501 7.31445 133.479 7.31445C 133.796 7.31445 134.036 7.35547 134.2 7.4375L 134.2 8.94922ZM 139.474 17.1758C 138.185 17.1758 137.136 16.7539 136.327 15.9102C 135.519 15.0605 135.114 13.9268 135.114 12.5088L 135.114 12.21C 135.114 11.2666 135.293 10.4258 135.65 9.6875C 136.014 8.94336 136.518 8.36328 137.162 7.94727C 137.812 7.52539 138.516 7.31445 139.271 7.31445C 140.508 7.31445 141.469 7.72168 142.154 8.53613C 142.84 9.35059 143.183 10.5166 143.183 12.0342L 143.183 12.7109L 136.74 12.7109C 136.764 13.6484 137.036 14.4072 137.558 14.9873C 138.085 15.5615 138.753 15.8486 139.562 15.8486C 140.136 15.8486 140.622 15.7314 141.021 15.4971C 141.419 15.2627 141.768 14.9521 142.066 14.5654L 143.06 15.3389C 142.263 16.5635 141.067 17.1758 139.474 17.1758ZM 139.271 8.65039C 138.615 8.65039 138.064 8.89062 137.619 9.37109C 137.174 9.8457 136.898 10.5137 136.793 11.375L 141.557 11.375L 141.557 11.252C 141.51 10.4258 141.287 9.78711 140.889 9.33594C 140.49 8.87891 139.951 8.65039 139.271 8.65039ZM 150.609 14.4775C 150.609 14.0381 150.442 13.6982 150.108 13.458C 149.78 13.2119 149.203 13.001 148.377 12.8252C 147.557 12.6494 146.903 12.4385 146.417 12.1924C 145.937 11.9463 145.579 11.6533 145.345 11.3135C 145.116 10.9736 145.002 10.5693 145.002 10.1006C 145.002 9.32129 145.33 8.66211 145.986 8.12305C 146.648 7.58398 147.492 7.31445 148.518 7.31445C 149.596 7.31445 150.469 7.59277 151.137 8.14941C 151.811 8.70605 152.147 9.41797 152.147 10.2852L 150.513 10.2852C 150.513 9.83984 150.322 9.45605 149.941 9.13379C 149.566 8.81152 149.092 8.65039 148.518 8.65039C 147.926 8.65039 147.463 8.7793 147.129 9.03711C 146.795 9.29492 146.628 9.63184 146.628 10.0479C 146.628 10.4404 146.783 10.7363 147.094 10.9355C 147.404 11.1348 147.964 11.3252 148.772 11.5068C 149.587 11.6885 150.246 11.9053 150.75 12.1572C 151.254 12.4092 151.626 12.7139 151.866 13.0713C 152.112 13.4229 152.235 13.8535 152.235 14.3633C 152.235 15.2129 151.896 15.8955 151.216 16.4111C 150.536 16.9209 149.654 17.1758 148.57 17.1758C 147.809 17.1758 147.135 17.041 146.549 16.7715C 145.963 16.502 145.503 16.127 145.169 15.6465C 144.841 15.1602 144.677 14.6357 144.677 14.0732L 146.303 14.0732C 146.332 14.6182 146.549 15.0518 146.953 15.374C 147.363 15.6904 147.902 15.8486 148.57 15.8486C 149.186 15.8486 149.678 15.7256 150.047 15.4795C 150.422 15.2275 150.609 14.8936 150.609 14.4775ZM 154.292 11.8057C 154.292 10.4814 154.468 9.20996 154.819 7.99121C 155.177 6.77246 155.707 5.66504 156.41 4.66895C 157.113 3.67285 157.843 2.96973 158.599 2.55957L 158.933 3.63184C 158.077 4.28809 157.374 5.29004 156.823 6.6377C 156.278 7.98535 155.979 9.49414 155.927 11.1641L 155.918 11.9111C 155.918 14.1729 156.331 16.1357 157.157 17.7998C 157.655 18.7959 158.247 19.5752 158.933 20.1377L 158.599 21.1309C 157.819 20.6973 157.075 19.9707 156.366 18.9512C 154.983 16.959 154.292 14.5771 154.292 11.8057ZM 164.259 11.8936C 164.259 13.2002 164.086 14.4541 163.74 15.6553C 163.4 16.8506 162.876 17.9551 162.167 18.9688C 161.464 19.9824 160.726 20.7031 159.952 21.1309L 159.609 20.1377C 160.512 19.4463 161.235 18.374 161.78 16.9209C 162.331 15.4619 162.612 13.8447 162.624 12.0693L 162.624 11.7881C 162.624 10.5576 162.495 9.41504 162.237 8.36035C 161.979 7.2998 161.619 6.35059 161.156 5.5127C 160.699 4.6748 160.184 4.02148 159.609 3.55273L 159.952 2.55957C 160.726 2.9873 161.461 3.70215 162.158 4.7041C 162.861 5.70605 163.386 6.81055 163.731 8.01758C 164.083 9.22461 164.259 10.5166 164.259 11.8936Z"/>
<path id="path2_fill" d="M 0 0L 163 0L 163 57L 0 57L 0 0Z"/>
<path id="path3_fill" d="M 6.76758 14.4775C 6.76758 14.0381 6.60059 13.6982 6.2666 13.458C 5.93848 13.2119 5.36133 13.001 4.53516 12.8252C 3.71484 12.6494 3.06152 12.4385 2.5752 12.1924C 2.09473 11.9463 1.7373 11.6533 1.50293 11.3135C 1.27441 10.9736 1.16016 10.5693 1.16016 10.1006C 1.16016 9.32129 1.48828 8.66211 2.14453 8.12305C 2.80664 7.58398 3.65039 7.31445 4.67578 7.31445C 5.75391 7.31445 6.62695 7.59277 7.29492 8.14941C 7.96875 8.70605 8.30566 9.41797 8.30566 10.2852L 6.6709 10.2852C 6.6709 9.83984 6.48047 9.45605 6.09961 9.13379C 5.72461 8.81152 5.25 8.65039 4.67578 8.65039C 4.08398 8.65039 3.62109 8.7793 3.28711 9.03711C 2.95312 9.29492 2.78613 9.63184 2.78613 10.0479C 2.78613 10.4404 2.94141 10.7363 3.25195 10.9355C 3.5625 11.1348 4.12207 11.3252 4.93066 11.5068C 5.74512 11.6885 6.4043 11.9053 6.9082 12.1572C 7.41211 12.4092 7.78418 12.7139 8.02441 13.0713C 8.27051 13.4229 8.39355 13.8535 8.39355 14.3633C 8.39355 15.2129 8.05371 15.8955 7.37402 16.4111C 6.69434 16.9209 5.8125 17.1758 4.72852 17.1758C 3.9668 17.1758 3.29297 17.041 2.70703 16.7715C 2.12109 16.502 1.66113 16.127 1.32715 15.6465C 0.999023 15.1602 0.834961 14.6357 0.834961 14.0732L 2.46094 14.0732C 2.49023 14.6182 2.70703 15.0518 3.11133 15.374C 3.52148 15.6904 4.06055 15.8486 4.72852 15.8486C 5.34375 15.8486 5.83594 15.7256 6.20508 15.4795C 6.58008 15.2275 6.76758 14.8936 6.76758 14.4775ZM 14.458 17.1758C 13.1689 17.1758 12.1201 16.7539 11.3115 15.9102C 10.5029 15.0605 10.0986 13.9268 10.0986 12.5088L 10.0986 12.21C 10.0986 11.2666 10.2773 10.4258 10.6348 9.6875C 10.998 8.94336 11.502 8.36328 12.1465 7.94727C 12.7969 7.52539 13.5 7.31445 14.2559 7.31445C 15.4922 7.31445 16.4531 7.72168 17.1387 8.53613C 17.8242 9.35059 18.167 10.5166 18.167 12.0342L 18.167 12.7109L 11.7246 12.7109C 11.748 13.6484 12.0205 14.4072 12.542 14.9873C 13.0693 15.5615 13.7373 15.8486 14.5459 15.8486C 15.1201 15.8486 15.6064 15.7314 16.0049 15.4971C 16.4033 15.2627 16.752 14.9521 17.0508 14.5654L 18.0439 15.3389C 17.2471 16.5635 16.0518 17.1758 14.458 17.1758ZM 14.2559 8.65039C 13.5996 8.65039 13.0488 8.89062 12.6035 9.37109C 12.1582 9.8457 11.8828 10.5137 11.7773 11.375L 16.541 11.375L 16.541 11.252C 16.4941 10.4258 16.2715 9.78711 15.873 9.33594C 15.4746 8.87891 14.9355 8.65039 14.2559 8.65039ZM 21.8232 17L 20.1973 17L 20.1973 3.5L 21.8232 3.5L 21.8232 17ZM 28.3799 17.1758C 27.0908 17.1758 26.042 16.7539 25.2334 15.9102C 24.4248 15.0605 24.0205 13.9268 24.0205 12.5088L 24.0205 12.21C 24.0205 11.2666 24.1992 10.4258 24.5566 9.6875C 24.9199 8.94336 25.4238 8.36328 26.0684 7.94727C 26.7188 7.52539 27.4219 7.31445 28.1777 7.31445C 29.4141 7.31445 30.375 7.72168 31.0605 8.53613C 31.7461 9.35059 32.0889 10.5166 32.0889 12.0342L 32.0889 12.7109L 25.6465 12.7109C 25.6699 13.6484 25.9424 14.4072 26.4639 14.9873C 26.9912 15.5615 27.6592 15.8486 28.4678 15.8486C 29.042 15.8486 29.5283 15.7314 29.9268 15.4971C 30.3252 15.2627 30.6738 14.9521 30.9727 14.5654L 31.9658 15.3389C 31.1689 16.5635 29.9736 17.1758 28.3799 17.1758ZM 28.1777 8.65039C 27.5215 8.65039 26.9707 8.89062 26.5254 9.37109C 26.0801 9.8457 25.8047 10.5137 25.6992 11.375L 30.4629 11.375L 30.4629 11.252C 30.416 10.4258 30.1934 9.78711 29.7949 9.33594C 29.3965 8.87891 28.8574 8.65039 28.1777 8.65039ZM 37.793 15.8486C 38.373 15.8486 38.8799 15.6729 39.3135 15.3213C 39.7471 14.9697 39.9873 14.5303 40.0342 14.0029L 41.5723 14.0029C 41.543 14.5479 41.3555 15.0664 41.0098 15.5586C 40.6641 16.0508 40.2012 16.4434 39.6211 16.7363C 39.0469 17.0293 38.4375 17.1758 37.793 17.1758C 36.498 17.1758 35.4668 16.7451 34.6992 15.8838C 33.9375 15.0166 33.5566 13.833 33.5566 12.333L 33.5566 12.0605C 33.5566 11.1348 33.7266 10.3115 34.0664 9.59082C 34.4062 8.87012 34.8926 8.31055 35.5254 7.91211C 36.1641 7.51367 36.917 7.31445 37.7842 7.31445C 38.8506 7.31445 39.7354 7.63379 40.4385 8.27246C 41.1475 8.91113 41.5254 9.74023 41.5723 10.7598L 40.0342 10.7598C 39.9873 10.1445 39.7529 9.64062 39.3311 9.24805C 38.915 8.84961 38.3994 8.65039 37.7842 8.65039C 36.958 8.65039 36.3164 8.94922 35.8594 9.54688C 35.4082 10.1387 35.1826 10.9971 35.1826 12.1221L 35.1826 12.4297C 35.1826 13.5254 35.4082 14.3691 35.8594 14.9609C 36.3105 15.5527 36.9551 15.8486 37.793 15.8486ZM 45.6064 5.1875L 45.6064 7.49023L 47.3818 7.49023L 47.3818 8.74707L 45.6064 8.74707L 45.6064 14.6445C 45.6064 15.0254 45.6855 15.3125 45.8438 15.5059C 46.002 15.6934 46.2715 15.7871 46.6523 15.7871C 46.8398 15.7871 47.0977 15.752 47.4258 15.6816L 47.4258 17C 46.998 17.1172 46.582 17.1758 46.1777 17.1758C 45.4512 17.1758 44.9033 16.9561 44.5342 16.5166C 44.165 16.0771 43.9805 15.4531 43.9805 14.6445L 43.9805 8.74707L 42.249 8.74707L 42.249 7.49023L 43.9805 7.49023L 43.9805 5.1875L 45.6064 5.1875ZM 56.1445 18.3271L 48.0938 18.3271L 48.0938 17L 56.1445 17L 56.1445 18.3271ZM 58.21 17L 58.21 8.74707L 56.707 8.74707L 56.707 7.49023L 58.21 7.49023L 58.21 6.51465C 58.21 5.49512 58.4824 4.70703 59.0273 4.15039C 59.5723 3.59375 60.3428 3.31543 61.3389 3.31543C 61.7139 3.31543 62.0859 3.36523 62.4551 3.46484L 62.3672 4.7832C 62.0918 4.73047 61.7988 4.7041 61.4883 4.7041C 60.9609 4.7041 60.5537 4.85938 60.2666 5.16992C 59.9795 5.47461 59.8359 5.91406 59.8359 6.48828L 59.8359 7.49023L 61.8662 7.49023L 61.8662 8.74707L 59.8359 8.74707L 59.8359 17L 58.21 17ZM 67.4033 17.1758C 66.1143 17.1758 65.0654 16.7539 64.2568 15.9102C 63.4482 15.0605 63.0439 13.9268 63.0439 12.5088L 63.0439 12.21C 63.0439 11.2666 63.2227 10.4258 63.5801 9.6875C 63.9434 8.94336 64.4473 8.36328 65.0918 7.94727C 65.7422 7.52539 66.4453 7.31445 67.2012 7.31445C 68.4375 7.31445 69.3984 7.72168 70.084 8.53613C 70.7695 9.35059 71.1123 10.5166 71.1123 12.0342L 71.1123 12.7109L 64.6699 12.7109C 64.6934 13.6484 64.9658 14.4072 65.4873 14.9873C 66.0146 15.5615 66.6826 15.8486 67.4912 15.8486C 68.0654 15.8486 68.5518 15.7314 68.9502 15.4971C 69.3486 15.2627 69.6973 14.9521 69.9961 14.5654L 70.9893 15.3389C 70.1924 16.5635 68.9971 17.1758 67.4033 17.1758ZM 67.2012 8.65039C 66.5449 8.65039 65.9941 8.89062 65.5488 9.37109C 65.1035 9.8457 64.8281 10.5137 64.7227 11.375L 69.4863 11.375L 69.4863 11.252C 69.4395 10.4258 69.2168 9.78711 68.8184 9.33594C 68.4199 8.87891 67.8809 8.65039 67.2012 8.65039ZM 78.873 17C 78.7793 16.8125 78.7031 16.4785 78.6445 15.998C 77.8887 16.7832 76.9863 17.1758 75.9375 17.1758C 75 17.1758 74.2295 16.9121 73.626 16.3848C 73.0283 15.8516 72.7295 15.1777 72.7295 14.3633C 72.7295 13.373 73.1045 12.6055 73.8545 12.0605C 74.6104 11.5098 75.6709 11.2344 77.0361 11.2344L 78.6182 11.2344L 78.6182 10.4873C 78.6182 9.91895 78.4482 9.46777 78.1084 9.13379C 77.7686 8.79395 77.2676 8.62402 76.6055 8.62402C 76.0254 8.62402 75.5391 8.77051 75.1465 9.06348C 74.7539 9.35645 74.5576 9.71094 74.5576 10.127L 72.9229 10.127C 72.9229 9.65234 73.0898 9.19531 73.4238 8.75586C 73.7637 8.31055 74.2207 7.95898 74.7949 7.70117C 75.375 7.44336 76.0107 7.31445 76.7021 7.31445C 77.7979 7.31445 78.6562 7.58984 79.2773 8.14062C 79.8984 8.68555 80.2207 9.43848 80.2441 10.3994L 80.2441 14.7764C 80.2441 15.6494 80.3555 16.3438 80.5781 16.8594L 80.5781 17L 78.873 17ZM 76.1748 15.7607C 76.6846 15.7607 77.168 15.6289 77.625 15.3652C 78.082 15.1016 78.4131 14.7588 78.6182 14.3369L 78.6182 12.3857L 77.3438 12.3857C 75.3516 12.3857 74.3555 12.9688 74.3555 14.1348C 74.3555 14.6445 74.5254 15.043 74.8652 15.3301C 75.2051 15.6172 75.6416 15.7607 76.1748 15.7607ZM 84.999 5.1875L 84.999 7.49023L 86.7744 7.49023L 86.7744 8.74707L 84.999 8.74707L 84.999 14.6445C 84.999 15.0254 85.0781 15.3125 85.2363 15.5059C 85.3945 15.6934 85.6641 15.7871 86.0449 15.7871C 86.2324 15.7871 86.4902 15.752 86.8184 15.6816L 86.8184 17C 86.3906 17.1172 85.9746 17.1758 85.5703 17.1758C 84.8438 17.1758 84.2959 16.9561 83.9268 16.5166C 83.5576 16.0771 83.373 15.4531 83.373 14.6445L 83.373 8.74707L 81.6416 8.74707L 81.6416 7.49023L 83.373 7.49023L 83.373 5.1875L 84.999 5.1875ZM 94.5527 16.0596C 93.9199 16.8037 92.9912 17.1758 91.7666 17.1758C 90.7529 17.1758 89.9795 16.8828 89.4463 16.2969C 88.9189 15.7051 88.6523 14.832 88.6465 13.6777L 88.6465 7.49023L 90.2725 7.49023L 90.2725 13.6338C 90.2725 15.0752 90.8584 15.7959 92.0303 15.7959C 93.2725 15.7959 94.0986 15.333 94.5088 14.4072L 94.5088 7.49023L 96.1348 7.49023L 96.1348 17L 94.5879 17L 94.5527 16.0596ZM 103.21 8.94922C 102.964 8.9082 102.697 8.8877 102.41 8.8877C 101.344 8.8877 100.62 9.3418 100.239 10.25L 100.239 17L 98.6133 17L 98.6133 7.49023L 100.195 7.49023L 100.222 8.58887C 100.755 7.73926 101.511 7.31445 102.489 7.31445C 102.806 7.31445 103.046 7.35547 103.21 7.4375L 103.21 8.94922ZM 108.483 17.1758C 107.194 17.1758 106.146 16.7539 105.337 15.9102C 104.528 15.0605 104.124 13.9268 104.124 12.5088L 104.124 12.21C 104.124 11.2666 104.303 10.4258 104.66 9.6875C 105.023 8.94336 105.527 8.36328 106.172 7.94727C 106.822 7.52539 107.525 7.31445 108.281 7.31445C 109.518 7.31445 110.479 7.72168 111.164 8.53613C 111.85 9.35059 112.192 10.5166 112.192 12.0342L 112.192 12.7109L 105.75 12.7109C 105.773 13.6484 106.046 14.4072 106.567 14.9873C 107.095 15.5615 107.763 15.8486 108.571 15.8486C 109.146 15.8486 109.632 15.7314 110.03 15.4971C 110.429 15.2627 110.777 14.9521 111.076 14.5654L 112.069 15.3389C 111.272 16.5635 110.077 17.1758 108.483 17.1758ZM 108.281 8.65039C 107.625 8.65039 107.074 8.89062 106.629 9.37109C 106.184 9.8457 105.908 10.5137 105.803 11.375L 110.566 11.375L 110.566 11.252C 110.52 10.4258 110.297 9.78711 109.898 9.33594C 109.5 8.87891 108.961 8.65039 108.281 8.65039ZM 119.619 14.4775C 119.619 14.0381 119.452 13.6982 119.118 13.458C 118.79 13.2119 118.213 13.001 117.387 12.8252C 116.566 12.6494 115.913 12.4385 115.427 12.1924C 114.946 11.9463 114.589 11.6533 114.354 11.3135C 114.126 10.9736 114.012 10.5693 114.012 10.1006C 114.012 9.32129 114.34 8.66211 114.996 8.12305C 115.658 7.58398 116.502 7.31445 117.527 7.31445C 118.605 7.31445 119.479 7.59277 120.146 8.14941C 120.82 8.70605 121.157 9.41797 121.157 10.2852L 119.522 10.2852C 119.522 9.83984 119.332 9.45605 118.951 9.13379C 118.576 8.81152 118.102 8.65039 117.527 8.65039C 116.936 8.65039 116.473 8.7793 116.139 9.03711C 115.805 9.29492 115.638 9.63184 115.638 10.0479C 115.638 10.4404 115.793 10.7363 116.104 10.9355C 116.414 11.1348 116.974 11.3252 117.782 11.5068C 118.597 11.6885 119.256 11.9053 119.76 12.1572C 120.264 12.4092 120.636 12.7139 120.876 13.0713C 121.122 13.4229 121.245 13.8535 121.245 14.3633C 121.245 15.2129 120.905 15.8955 120.226 16.4111C 119.546 16.9209 118.664 17.1758 117.58 17.1758C 116.818 17.1758 116.145 17.041 115.559 16.7715C 114.973 16.502 114.513 16.127 114.179 15.6465C 113.851 15.1602 113.687 14.6357 113.687 14.0732L 115.312 14.0732C 115.342 14.6182 115.559 15.0518 115.963 15.374C 116.373 15.6904 116.912 15.8486 117.58 15.8486C 118.195 15.8486 118.688 15.7256 119.057 15.4795C 119.432 15.2275 119.619 14.8936 119.619 14.4775ZM 123.302 11.8057C 123.302 10.4814 123.478 9.20996 123.829 7.99121C 124.187 6.77246 124.717 5.66504 125.42 4.66895C 126.123 3.67285 126.853 2.96973 127.608 2.55957L 127.942 3.63184C 127.087 4.28809 126.384 5.29004 125.833 6.6377C 125.288 7.98535 124.989 9.49414 124.937 11.1641L 124.928 11.9111C 124.928 14.1729 125.341 16.1357 126.167 17.7998C 126.665 18.7959 127.257 19.5752 127.942 20.1377L 127.608 21.1309C 126.829 20.6973 126.085 19.9707 125.376 18.9512C 123.993 16.959 123.302 14.5771 123.302 11.8057ZM 133.269 11.8936C 133.269 13.2002 133.096 14.4541 132.75 15.6553C 132.41 16.8506 131.886 17.9551 131.177 18.9688C 130.474 19.9824 129.735 20.7031 128.962 21.1309L 128.619 20.1377C 129.521 19.4463 130.245 18.374 130.79 16.9209C 131.341 15.4619 131.622 13.8447 131.634 12.0693L 131.634 11.7881C 131.634 10.5576 131.505 9.41504 131.247 8.36035C 130.989 7.2998 130.629 6.35059 130.166 5.5127C 129.709 4.6748 129.193 4.02148 128.619 3.55273L 128.962 2.55957C 129.735 2.9873 130.471 3.70215 131.168 4.7041C 131.871 5.70605 132.396 6.81055 132.741 8.01758C 133.093 9.22461 133.269 10.5166 133.269 11.8936Z"/>
<path id="path4_fill" d="M 3.43652 5.1875L 3.43652 7.49023L 5.21191 7.49023L 5.21191 8.74707L 3.43652 8.74707L 3.43652 14.6445C 3.43652 15.0254 3.51562 15.3125 3.67383 15.5059C 3.83203 15.6934 4.10156 15.7871 4.48242 15.7871C 4.66992 15.7871 4.92773 15.752 5.25586 15.6816L 5.25586 17C 4.82812 17.1172 4.41211 17.1758 4.00781 17.1758C 3.28125 17.1758 2.7334 16.9561 2.36426 16.5166C 1.99512 16.0771 1.81055 15.4531 1.81055 14.6445L 1.81055 8.74707L 0.0791016 8.74707L 0.0791016 7.49023L 1.81055 7.49023L 1.81055 5.1875L 3.43652 5.1875ZM 11.7158 8.94922C 11.4697 8.9082 11.2031 8.8877 10.916 8.8877C 9.84961 8.8877 9.12598 9.3418 8.74512 10.25L 8.74512 17L 7.11914 17L 7.11914 7.49023L 8.70117 7.49023L 8.72754 8.58887C 9.26074 7.73926 10.0166 7.31445 10.9951 7.31445C 11.3115 7.31445 11.5518 7.35547 11.7158 7.4375L 11.7158 8.94922ZM 18.7383 17C 18.6445 16.8125 18.5684 16.4785 18.5098 15.998C 17.7539 16.7832 16.8516 17.1758 15.8027 17.1758C 14.8652 17.1758 14.0947 16.9121 13.4912 16.3848C 12.8936 15.8516 12.5947 15.1777 12.5947 14.3633C 12.5947 13.373 12.9697 12.6055 13.7197 12.0605C 14.4756 11.5098 15.5361 11.2344 16.9014 11.2344L 18.4834 11.2344L 18.4834 10.4873C 18.4834 9.91895 18.3135 9.46777 17.9736 9.13379C 17.6338 8.79395 17.1328 8.62402 16.4707 8.62402C 15.8906 8.62402 15.4043 8.77051 15.0117 9.06348C 14.6191 9.35645 14.4229 9.71094 14.4229 10.127L 12.7881 10.127C 12.7881 9.65234 12.9551 9.19531 13.2891 8.75586C 13.6289 8.31055 14.0859 7.95898 14.6602 7.70117C 15.2402 7.44336 15.876 7.31445 16.5674 7.31445C 17.6631 7.31445 18.5215 7.58984 19.1426 8.14062C 19.7637 8.68555 20.0859 9.43848 20.1094 10.3994L 20.1094 14.7764C 20.1094 15.6494 20.2207 16.3438 20.4434 16.8594L 20.4434 17L 18.7383 17ZM 16.04 15.7607C 16.5498 15.7607 17.0332 15.6289 17.4902 15.3652C 17.9473 15.1016 18.2783 14.7588 18.4834 14.3369L 18.4834 12.3857L 17.209 12.3857C 15.2168 12.3857 14.2207 12.9688 14.2207 14.1348C 14.2207 14.6445 14.3906 15.043 14.7305 15.3301C 15.0703 15.6172 15.5068 15.7607 16.04 15.7607ZM 24.4248 17L 22.7988 17L 22.7988 7.49023L 24.4248 7.49023L 24.4248 17ZM 22.667 4.96777C 22.667 4.7041 22.7461 4.48145 22.9043 4.2998C 23.0684 4.11816 23.3086 4.02734 23.625 4.02734C 23.9414 4.02734 24.1816 4.11816 24.3457 4.2998C 24.5098 4.48145 24.5918 4.7041 24.5918 4.96777C 24.5918 5.23145 24.5098 5.45117 24.3457 5.62695C 24.1816 5.80273 23.9414 5.89062 23.625 5.89062C 23.3086 5.89062 23.0684 5.80273 22.9043 5.62695C 22.7461 5.45117 22.667 5.23145 22.667 4.96777ZM 28.5732 7.49023L 28.626 8.68555C 29.3525 7.77148 30.3018 7.31445 31.4736 7.31445C 33.4834 7.31445 34.4971 8.44824 34.5146 10.7158L 34.5146 17L 32.8887 17L 32.8887 10.707C 32.8828 10.0215 32.7246 9.51465 32.4141 9.18652C 32.1094 8.8584 31.6318 8.69434 30.9814 8.69434C 30.4541 8.69434 29.9912 8.83496 29.5928 9.11621C 29.1943 9.39746 28.8838 9.7666 28.6611 10.2236L 28.6611 17L 27.0352 17L 27.0352 7.49023L 28.5732 7.49023ZM 43.8223 18.3271L 35.7715 18.3271L 35.7715 17L 43.8223 17L 43.8223 18.3271ZM 50.959 17C 50.8652 16.8125 50.7891 16.4785 50.7305 15.998C 49.9746 16.7832 49.0723 17.1758 48.0234 17.1758C 47.0859 17.1758 46.3154 16.9121 45.7119 16.3848C 45.1143 15.8516 44.8154 15.1777 44.8154 14.3633C 44.8154 13.373 45.1904 12.6055 45.9404 12.0605C 46.6963 11.5098 47.7568 11.2344 49.1221 11.2344L 50.7041 11.2344L 50.7041 10.4873C 50.7041 9.91895 50.5342 9.46777 50.1943 9.13379C 49.8545 8.79395 49.3535 8.62402 48.6914 8.62402C 48.1113 8.62402 47.625 8.77051 47.2324 9.06348C 46.8398 9.35645 46.6436 9.71094 46.6436 10.127L 45.0088 10.127C 45.0088 9.65234 45.1758 9.19531 45.5098 8.75586C 45.8496 8.31055 46.3066 7.95898 46.8809 7.70117C 47.4609 7.44336 48.0967 7.31445 48.7881 7.31445C 49.8838 7.31445 50.7422 7.58984 51.3633 8.14062C 51.9844 8.68555 52.3066 9.43848 52.3301 10.3994L 52.3301 14.7764C 52.3301 15.6494 52.4414 16.3438 52.6641 16.8594L 52.6641 17L 50.959 17ZM 48.2607 15.7607C 48.7705 15.7607 49.2539 15.6289 49.7109 15.3652C 50.168 15.1016 50.499 14.7588 50.7041 14.3369L 50.7041 12.3857L 49.4297 12.3857C 47.4375 12.3857 46.4414 12.9688 46.4414 14.1348C 46.4414 14.6445 46.6113 15.043 46.9512 15.3301C 47.291 15.6172 47.7275 15.7607 48.2607 15.7607ZM 56.417 7.49023L 56.4697 8.68555C 57.1963 7.77148 58.1455 7.31445 59.3174 7.31445C 61.3271 7.31445 62.3408 8.44824 62.3584 10.7158L 62.3584 17L 60.7324 17L 60.7324 10.707C 60.7266 10.0215 60.5684 9.51465 60.2578 9.18652C 59.9531 8.8584 59.4756 8.69434 58.8252 8.69434C 58.2979 8.69434 57.835 8.83496 57.4365 9.11621C 57.0381 9.39746 56.7275 9.7666 56.5049 10.2236L 56.5049 17L 54.8789 17L 54.8789 7.49023L 56.417 7.49023ZM 64.415 12.166C 64.415 10.707 64.7607 9.53516 65.4521 8.65039C 66.1436 7.75977 67.0488 7.31445 68.168 7.31445C 69.2812 7.31445 70.1631 7.69531 70.8135 8.45703L 70.8135 3.5L 72.4395 3.5L 72.4395 17L 70.9453 17L 70.8662 15.9805C 70.2158 16.7773 69.3105 17.1758 68.1504 17.1758C 67.0488 17.1758 66.1494 16.7246 65.4521 15.8223C 64.7607 14.9199 64.415 13.7422 64.415 12.2891L 64.415 12.166ZM 66.041 12.3506C 66.041 13.4287 66.2637 14.2725 66.709 14.8818C 67.1543 15.4912 67.7695 15.7959 68.5547 15.7959C 69.5859 15.7959 70.3389 15.333 70.8135 14.4072L 70.8135 10.0391C 70.3271 9.14258 69.5801 8.69434 68.5723 8.69434C 67.7754 8.69434 67.1543 9.00195 66.709 9.61719C 66.2637 10.2324 66.041 11.1436 66.041 12.3506ZM 81.8262 18.3271L 73.7754 18.3271L 73.7754 17L 81.8262 17L 81.8262 18.3271ZM 85.2979 5.1875L 85.2979 7.49023L 87.0732 7.49023L 87.0732 8.74707L 85.2979 8.74707L 85.2979 14.6445C 85.2979 15.0254 85.377 15.3125 85.5352 15.5059C 85.6934 15.6934 85.9629 15.7871 86.3438 15.7871C 86.5312 15.7871 86.7891 15.752 87.1172 15.6816L 87.1172 17C 86.6895 17.1172 86.2734 17.1758 85.8691 17.1758C 85.1426 17.1758 84.5947 16.9561 84.2256 16.5166C 83.8564 16.0771 83.6719 15.4531 83.6719 14.6445L 83.6719 8.74707L 81.9404 8.74707L 81.9404 7.49023L 83.6719 7.49023L 83.6719 5.1875L 85.2979 5.1875ZM 92.9268 17.1758C 91.6377 17.1758 90.5889 16.7539 89.7803 15.9102C 88.9717 15.0605 88.5674 13.9268 88.5674 12.5088L 88.5674 12.21C 88.5674 11.2666 88.7461 10.4258 89.1035 9.6875C 89.4668 8.94336 89.9707 8.36328 90.6152 7.94727C 91.2656 7.52539 91.9688 7.31445 92.7246 7.31445C 93.9609 7.31445 94.9219 7.72168 95.6074 8.53613C 96.293 9.35059 96.6357 10.5166 96.6357 12.0342L 96.6357 12.7109L 90.1934 12.7109C 90.2168 13.6484 90.4893 14.4072 91.0107 14.9873C 91.5381 15.5615 92.2061 15.8486 93.0146 15.8486C 93.5889 15.8486 94.0752 15.7314 94.4736 15.4971C 94.8721 15.2627 95.2207 14.9521 95.5195 14.5654L 96.5127 15.3389C 95.7158 16.5635 94.5205 17.1758 92.9268 17.1758ZM 92.7246 8.65039C 92.0684 8.65039 91.5176 8.89062 91.0723 9.37109C 90.627 9.8457 90.3516 10.5137 90.2461 11.375L 95.0098 11.375L 95.0098 11.252C 94.9629 10.4258 94.7402 9.78711 94.3418 9.33594C 93.9434 8.87891 93.4043 8.65039 92.7246 8.65039ZM 104.062 14.4775C 104.062 14.0381 103.896 13.6982 103.562 13.458C 103.233 13.2119 102.656 13.001 101.83 12.8252C 101.01 12.6494 100.356 12.4385 99.8701 12.1924C 99.3896 11.9463 99.0322 11.6533 98.7979 11.3135C 98.5693 10.9736 98.4551 10.5693 98.4551 10.1006C 98.4551 9.32129 98.7832 8.66211 99.4395 8.12305C 100.102 7.58398 100.945 7.31445 101.971 7.31445C 103.049 7.31445 103.922 7.59277 104.59 8.14941C 105.264 8.70605 105.601 9.41797 105.601 10.2852L 103.966 10.2852C 103.966 9.83984 103.775 9.45605 103.395 9.13379C 103.02 8.81152 102.545 8.65039 101.971 8.65039C 101.379 8.65039 100.916 8.7793 100.582 9.03711C 100.248 9.29492 100.081 9.63184 100.081 10.0479C 100.081 10.4404 100.236 10.7363 100.547 10.9355C 100.857 11.1348 101.417 11.3252 102.226 11.5068C 103.04 11.6885 103.699 11.9053 104.203 12.1572C 104.707 12.4092 105.079 12.7139 105.319 13.0713C 105.565 13.4229 105.688 13.8535 105.688 14.3633C 105.688 15.2129 105.349 15.8955 104.669 16.4111C 103.989 16.9209 103.107 17.1758 102.023 17.1758C 101.262 17.1758 100.588 17.041 100.002 16.7715C 99.416 16.502 98.9561 16.127 98.6221 15.6465C 98.2939 15.1602 98.1299 14.6357 98.1299 14.0732L 99.7559 14.0732C 99.7852 14.6182 100.002 15.0518 100.406 15.374C 100.816 15.6904 101.355 15.8486 102.023 15.8486C 102.639 15.8486 103.131 15.7256 103.5 15.4795C 103.875 15.2275 104.062 14.8936 104.062 14.4775ZM 110.013 5.1875L 110.013 7.49023L 111.788 7.49023L 111.788 8.74707L 110.013 8.74707L 110.013 14.6445C 110.013 15.0254 110.092 15.3125 110.25 15.5059C 110.408 15.6934 110.678 15.7871 111.059 15.7871C 111.246 15.7871 111.504 15.752 111.832 15.6816L 111.832 17C 111.404 17.1172 110.988 17.1758 110.584 17.1758C 109.857 17.1758 109.31 16.9561 108.94 16.5166C 108.571 16.0771 108.387 15.4531 108.387 14.6445L 108.387 8.74707L 106.655 8.74707L 106.655 7.49023L 108.387 7.49023L 108.387 5.1875L 110.013 5.1875ZM 113.634 11.8057C 113.634 10.4814 113.81 9.20996 114.161 7.99121C 114.519 6.77246 115.049 5.66504 115.752 4.66895C 116.455 3.67285 117.185 2.96973 117.94 2.55957L 118.274 3.63184C 117.419 4.28809 116.716 5.29004 116.165 6.6377C 115.62 7.98535 115.321 9.49414 115.269 11.1641L 115.26 11.9111C 115.26 14.1729 115.673 16.1357 116.499 17.7998C 116.997 18.7959 117.589 19.5752 118.274 20.1377L 117.94 21.1309C 117.161 20.6973 116.417 19.9707 115.708 18.9512C 114.325 16.959 113.634 14.5771 113.634 11.8057ZM 123.601 11.8936C 123.601 13.2002 123.428 14.4541 123.082 15.6553C 122.742 16.8506 122.218 17.9551 121.509 18.9688C 120.806 19.9824 120.067 20.7031 119.294 21.1309L 118.951 20.1377C 119.854 19.4463 120.577 18.374 121.122 16.9209C 121.673 15.4619 121.954 13.8447 121.966 12.0693L 121.966 11.7881C 121.966 10.5576 121.837 9.41504 121.579 8.36035C 121.321 7.2998 120.961 6.35059 120.498 5.5127C 120.041 4.6748 119.525 4.02148 118.951 3.55273L 119.294 2.55957C 120.067 2.9873 120.803 3.70215 121.5 4.7041C 122.203 5.70605 122.728 6.81055 123.073 8.01758C 123.425 9.22461 123.601 10.5166 123.601 11.8936Z"/>
<path id="path5_stroke" d="M 33.7071 0.707107C 34.0976 0.316582 34.0976 -0.316582 33.7071 -0.707107L 27.3431 -7.07107C 26.9526 -7.46159 26.3195 -7.46159 25.9289 -7.07107C 25.5384 -6.68054 25.5384 -6.04738 25.9289 -5.65685L 31.5858 0L 25.9289 5.65685C 25.5384 6.04738 25.5384 6.68054 25.9289 7.07107C 26.3195 7.46159 26.9526 7.46159 27.3431 7.07107L 33.7071 0.707107ZM 0 1L 33 1L 33 -1L 0 -1L 0 1Z"/>
<path id="path6_fill" d="M 0 0L 107 0L 107 63L 0 63L 0 0Z"/>
<path id="path7_stroke_2x" d="M 0 0L 0 -1L -1 -1L -1 0L 0 0ZM 107 0L 108 0L 108 -1L 107 -1L 107 0ZM 107 63L 107 64L 108 64L 108 63L 107 63ZM 0 63L -1 63L -1 64L 0 64L 0 63ZM 0 1L 107 1L 107 -1L 0 -1L 0 1ZM 106 0L 106 63L 108 63L 108 0L 106 0ZM 107 62L 0 62L 0 64L 107 64L 107 62ZM 1 63L 1 0L -1 0L -1 63L 1 63Z"/>
<path id="path8_fill" d="M 3.43652 5.1875L 3.43652 7.49023L 5.21191 7.49023L 5.21191 8.74707L 3.43652 8.74707L 3.43652 14.6445C 3.43652 15.0254 3.51562 15.3125 3.67383 15.5059C 3.83203 15.6934 4.10156 15.7871 4.48242 15.7871C 4.66992 15.7871 4.92773 15.752 5.25586 15.6816L 5.25586 17C 4.82812 17.1172 4.41211 17.1758 4.00781 17.1758C 3.28125 17.1758 2.7334 16.9561 2.36426 16.5166C 1.99512 16.0771 1.81055 15.4531 1.81055 14.6445L 1.81055 8.74707L 0.0791016 8.74707L 0.0791016 7.49023L 1.81055 7.49023L 1.81055 5.1875L 3.43652 5.1875ZM 11.7158 8.94922C 11.4697 8.9082 11.2031 8.8877 10.916 8.8877C 9.84961 8.8877 9.12598 9.3418 8.74512 10.25L 8.74512 17L 7.11914 17L 7.11914 7.49023L 8.70117 7.49023L 8.72754 8.58887C 9.26074 7.73926 10.0166 7.31445 10.9951 7.31445C 11.3115 7.31445 11.5518 7.35547 11.7158 7.4375L 11.7158 8.94922ZM 18.7383 17C 18.6445 16.8125 18.5684 16.4785 18.5098 15.998C 17.7539 16.7832 16.8516 17.1758 15.8027 17.1758C 14.8652 17.1758 14.0947 16.9121 13.4912 16.3848C 12.8936 15.8516 12.5947 15.1777 12.5947 14.3633C 12.5947 13.373 12.9697 12.6055 13.7197 12.0605C 14.4756 11.5098 15.5361 11.2344 16.9014 11.2344L 18.4834 11.2344L 18.4834 10.4873C 18.4834 9.91895 18.3135 9.46777 17.9736 9.13379C 17.6338 8.79395 17.1328 8.62402 16.4707 8.62402C 15.8906 8.62402 15.4043 8.77051 15.0117 9.06348C 14.6191 9.35645 14.4229 9.71094 14.4229 10.127L 12.7881 10.127C 12.7881 9.65234 12.9551 9.19531 13.2891 8.75586C 13.6289 8.31055 14.0859 7.95898 14.6602 7.70117C 15.2402 7.44336 15.876 7.31445 16.5674 7.31445C 17.6631 7.31445 18.5215 7.58984 19.1426 8.14062C 19.7637 8.68555 20.0859 9.43848 20.1094 10.3994L 20.1094 14.7764C 20.1094 15.6494 20.2207 16.3438 20.4434 16.8594L 20.4434 17L 18.7383 17ZM 16.04 15.7607C 16.5498 15.7607 17.0332 15.6289 17.4902 15.3652C 17.9473 15.1016 18.2783 14.7588 18.4834 14.3369L 18.4834 12.3857L 17.209 12.3857C 15.2168 12.3857 14.2207 12.9688 14.2207 14.1348C 14.2207 14.6445 14.3906 15.043 14.7305 15.3301C 15.0703 15.6172 15.5068 15.7607 16.04 15.7607ZM 24.4248 17L 22.7988 17L 22.7988 7.49023L 24.4248 7.49023L 24.4248 17ZM 22.667 4.96777C 22.667 4.7041 22.7461 4.48145 22.9043 4.2998C 23.0684 4.11816 23.3086 4.02734 23.625 4.02734C 23.9414 4.02734 24.1816 4.11816 24.3457 4.2998C 24.5098 4.48145 24.5918 4.7041 24.5918 4.96777C 24.5918 5.23145 24.5098 5.45117 24.3457 5.62695C 24.1816 5.80273 23.9414 5.89062 23.625 5.89062C 23.3086 5.89062 23.0684 5.80273 22.9043 5.62695C 22.7461 5.45117 22.667 5.23145 22.667 4.96777ZM 28.5732 7.49023L 28.626 8.68555C 29.3525 7.77148 30.3018 7.31445 31.4736 7.31445C 33.4834 7.31445 34.4971 8.44824 34.5146 10.7158L 34.5146 17L 32.8887 17L 32.8887 10.707C 32.8828 10.0215 32.7246 9.51465 32.4141 9.18652C 32.1094 8.8584 31.6318 8.69434 30.9814 8.69434C 30.4541 8.69434 29.9912 8.83496 29.5928 9.11621C 29.1943 9.39746 28.8838 9.7666 28.6611 10.2236L 28.6611 17L 27.0352 17L 27.0352 7.49023L 28.5732 7.49023Z"/>
<path id="path9_fill" d="M 5.82715 8.94922C 5.58105 8.9082 5.31445 8.8877 5.02734 8.8877C 3.96094 8.8877 3.2373 9.3418 2.85645 10.25L 2.85645 17L 1.23047 17L 1.23047 7.49023L 2.8125 7.49023L 2.83887 8.58887C 3.37207 7.73926 4.12793 7.31445 5.10645 7.31445C 5.42285 7.31445 5.66309 7.35547 5.82715 7.4375L 5.82715 8.94922ZM 8.85938 7.49023L 8.90332 8.54492C 9.60059 7.72461 10.541 7.31445 11.7246 7.31445C 13.0547 7.31445 13.96 7.82422 14.4404 8.84375C 14.7568 8.38672 15.167 8.01758 15.6709 7.73633C 16.1807 7.45508 16.7812 7.31445 17.4727 7.31445C 19.5586 7.31445 20.6191 8.41895 20.6543 10.6279L 20.6543 17L 19.0283 17L 19.0283 10.7246C 19.0283 10.0449 18.873 9.53809 18.5625 9.2041C 18.252 8.86426 17.7305 8.69434 16.998 8.69434C 16.3945 8.69434 15.8936 8.87598 15.4951 9.23926C 15.0967 9.59668 14.8652 10.0801 14.8008 10.6895L 14.8008 17L 13.166 17L 13.166 10.7686C 13.166 9.38574 12.4893 8.69434 11.1357 8.69434C 10.0693 8.69434 9.33984 9.14844 8.94727 10.0566L 8.94727 17L 7.32129 17L 7.32129 7.49023L 8.85938 7.49023ZM 28.6523 14.4775C 28.6523 14.0381 28.4854 13.6982 28.1514 13.458C 27.8232 13.2119 27.2461 13.001 26.4199 12.8252C 25.5996 12.6494 24.9463 12.4385 24.46 12.1924C 23.9795 11.9463 23.6221 11.6533 23.3877 11.3135C 23.1592 10.9736 23.0449 10.5693 23.0449 10.1006C 23.0449 9.32129 23.373 8.66211 24.0293 8.12305C 24.6914 7.58398 25.5352 7.31445 26.5605 7.31445C 27.6387 7.31445 28.5117 7.59277 29.1797 8.14941C 29.8535 8.70605 30.1904 9.41797 30.1904 10.2852L 28.5557 10.2852C 28.5557 9.83984 28.3652 9.45605 27.9844 9.13379C 27.6094 8.81152 27.1348 8.65039 26.5605 8.65039C 25.9688 8.65039 25.5059 8.7793 25.1719 9.03711C 24.8379 9.29492 24.6709 9.63184 24.6709 10.0479C 24.6709 10.4404 24.8262 10.7363 25.1367 10.9355C 25.4473 11.1348 26.0068 11.3252 26.8154 11.5068C 27.6299 11.6885 28.2891 11.9053 28.793 12.1572C 29.2969 12.4092 29.6689 12.7139 29.9092 13.0713C 30.1553 13.4229 30.2783 13.8535 30.2783 14.3633C 30.2783 15.2129 29.9385 15.8955 29.2588 16.4111C 28.5791 16.9209 27.6973 17.1758 26.6133 17.1758C 25.8516 17.1758 25.1777 17.041 24.5918 16.7715C 24.0059 16.502 23.5459 16.127 23.2119 15.6465C 22.8838 15.1602 22.7197 14.6357 22.7197 14.0732L 24.3457 14.0732C 24.375 14.6182 24.5918 15.0518 24.9961 15.374C 25.4062 15.6904 25.9453 15.8486 26.6133 15.8486C 27.2285 15.8486 27.7207 15.7256 28.0898 15.4795C 28.4648 15.2275 28.6523 14.8936 28.6523 14.4775ZM 36.3428 17.1758C 35.0537 17.1758 34.0049 16.7539 33.1963 15.9102C 32.3877 15.0605 31.9834 13.9268 31.9834 12.5088L 31.9834 12.21C 31.9834 11.2666 32.1621 10.4258 32.5195 9.6875C 32.8828 8.94336 33.3867 8.36328 34.0312 7.94727C 34.6816 7.52539 35.3848 7.31445 36.1406 7.31445C 37.377 7.31445 38.3379 7.72168 39.0234 8.53613C 39.709 9.35059 40.0518 10.5166 40.0518 12.0342L 40.0518 12.7109L 33.6094 12.7109C 33.6328 13.6484 33.9053 14.4072 34.4268 14.9873C 34.9541 15.5615 35.6221 15.8486 36.4307 15.8486C 37.0049 15.8486 37.4912 15.7314 37.8896 15.4971C 38.2881 15.2627 38.6367 14.9521 38.9355 14.5654L 39.9287 15.3389C 39.1318 16.5635 37.9365 17.1758 36.3428 17.1758ZM 36.1406 8.65039C 35.4844 8.65039 34.9336 8.89062 34.4883 9.37109C 34.043 9.8457 33.7676 10.5137 33.6621 11.375L 38.4258 11.375L 38.4258 11.252C 38.3789 10.4258 38.1562 9.78711 37.7578 9.33594C 37.3594 8.87891 36.8203 8.65039 36.1406 8.65039ZM 48.7969 18.3271L 40.7461 18.3271L 40.7461 17L 48.7969 17L 48.7969 18.3271ZM 53.2002 14.7939L 55.5557 7.49023L 57.2168 7.49023L 53.8066 17L 52.5674 17L 49.1221 7.49023L 50.7832 7.49023L 53.2002 14.7939ZM 64.5117 17C 64.418 16.8125 64.3418 16.4785 64.2832 15.998C 63.5273 16.7832 62.625 17.1758 61.5762 17.1758C 60.6387 17.1758 59.8682 16.9121 59.2646 16.3848C 58.667 15.8516 58.3682 15.1777 58.3682 14.3633C 58.3682 13.373 58.7432 12.6055 59.4932 12.0605C 60.249 11.5098 61.3096 11.2344 62.6748 11.2344L 64.2568 11.2344L 64.2568 10.4873C 64.2568 9.91895 64.0869 9.46777 63.7471 9.13379C 63.4072 8.79395 62.9062 8.62402 62.2441 8.62402C 61.6641 8.62402 61.1777 8.77051 60.7852 9.06348C 60.3926 9.35645 60.1963 9.71094 60.1963 10.127L 58.5615 10.127C 58.5615 9.65234 58.7285 9.19531 59.0625 8.75586C 59.4023 8.31055 59.8594 7.95898 60.4336 7.70117C 61.0137 7.44336 61.6494 7.31445 62.3408 7.31445C 63.4365 7.31445 64.2949 7.58984 64.916 8.14062C 65.5371 8.68555 65.8594 9.43848 65.8828 10.3994L 65.8828 14.7764C 65.8828 15.6494 65.9941 16.3438 66.2168 16.8594L 66.2168 17L 64.5117 17ZM 61.8135 15.7607C 62.3232 15.7607 62.8066 15.6289 63.2637 15.3652C 63.7207 15.1016 64.0518 14.7588 64.2568 14.3369L 64.2568 12.3857L 62.9824 12.3857C 60.9902 12.3857 59.9941 12.9688 59.9941 14.1348C 59.9941 14.6445 60.1641 15.043 60.5039 15.3301C 60.8438 15.6172 61.2803 15.7607 61.8135 15.7607ZM 70.1982 17L 68.5723 17L 68.5723 3.5L 70.1982 3.5L 70.1982 17ZM 78.6797 16.0596C 78.0469 16.8037 77.1182 17.1758 75.8936 17.1758C 74.8799 17.1758 74.1064 16.8828 73.5732 16.2969C 73.0459 15.7051 72.7793 14.832 72.7734 13.6777L 72.7734 7.49023L 74.3994 7.49023L 74.3994 13.6338C 74.3994 15.0752 74.9854 15.7959 76.1572 15.7959C 77.3994 15.7959 78.2256 15.333 78.6357 14.4072L 78.6357 7.49023L 80.2617 7.49023L 80.2617 17L 78.7148 17L 78.6797 16.0596ZM 86.6865 17.1758C 85.3975 17.1758 84.3486 16.7539 83.54 15.9102C 82.7314 15.0605 82.3271 13.9268 82.3271 12.5088L 82.3271 12.21C 82.3271 11.2666 82.5059 10.4258 82.8633 9.6875C 83.2266 8.94336 83.7305 8.36328 84.375 7.94727C 85.0254 7.52539 85.7285 7.31445 86.4844 7.31445C 87.7207 7.31445 88.6816 7.72168 89.3672 8.53613C 90.0527 9.35059 90.3955 10.5166 90.3955 12.0342L 90.3955 12.7109L 83.9531 12.7109C 83.9766 13.6484 84.249 14.4072 84.7705 14.9873C 85.2979 15.5615 85.9658 15.8486 86.7744 15.8486C 87.3486 15.8486 87.835 15.7314 88.2334 15.4971C 88.6318 15.2627 88.9805 14.9521 89.2793 14.5654L 90.2725 15.3389C 89.4756 16.5635 88.2803 17.1758 86.6865 17.1758ZM 86.4844 8.65039C 85.8281 8.65039 85.2773 8.89062 84.832 9.37109C 84.3867 9.8457 84.1113 10.5137 84.0059 11.375L 88.7695 11.375L 88.7695 11.252C 88.7227 10.4258 88.5 9.78711 88.1016 9.33594C 87.7031 8.87891 87.1641 8.65039 86.4844 8.65039ZM 97.8223 14.4775C 97.8223 14.0381 97.6553 13.6982 97.3213 13.458C 96.9932 13.2119 96.416 13.001 95.5898 12.8252C 94.7695 12.6494 94.1162 12.4385 93.6299 12.1924C 93.1494 11.9463 92.792 11.6533 92.5576 11.3135C 92.3291 10.9736 92.2148 10.5693 92.2148 10.1006C 92.2148 9.32129 92.543 8.66211 93.1992 8.12305C 93.8613 7.58398 94.7051 7.31445 95.7305 7.31445C 96.8086 7.31445 97.6816 7.59277 98.3496 8.14941C 99.0234 8.70605 99.3604 9.41797 99.3604 10.2852L 97.7256 10.2852C 97.7256 9.83984 97.5352 9.45605 97.1543 9.13379C 96.7793 8.81152 96.3047 8.65039 95.7305 8.65039C 95.1387 8.65039 94.6758 8.7793 94.3418 9.03711C 94.0078 9.29492 93.8408 9.63184 93.8408 10.0479C 93.8408 10.4404 93.9961 10.7363 94.3066 10.9355C 94.6172 11.1348 95.1768 11.3252 95.9854 11.5068C 96.7998 11.6885 97.459 11.9053 97.9629 12.1572C 98.4668 12.4092 98.8389 12.7139 99.0791 13.0713C 99.3252 13.4229 99.4482 13.8535 99.4482 14.3633C 99.4482 15.2129 99.1084 15.8955 98.4287 16.4111C 97.749 16.9209 96.8672 17.1758 95.7832 17.1758C 95.0215 17.1758 94.3477 17.041 93.7617 16.7715C 93.1758 16.502 92.7158 16.127 92.3818 15.6465C 92.0537 15.1602 91.8896 14.6357 91.8896 14.0732L 93.5156 14.0732C 93.5449 14.6182 93.7617 15.0518 94.166 15.374C 94.5762 15.6904 95.1152 15.8486 95.7832 15.8486C 96.3984 15.8486 96.8906 15.7256 97.2598 15.4795C 97.6348 15.2275 97.8223 14.8936 97.8223 14.4775ZM 101.514 16.1475C 101.514 15.8662 101.596 15.6318 101.76 15.4443C 101.93 15.2568 102.182 15.1631 102.516 15.1631C 102.85 15.1631 103.102 15.2568 103.271 15.4443C 103.447 15.6318 103.535 15.8662 103.535 16.1475C 103.535 16.417 103.447 16.6426 103.271 16.8242C 103.102 17.0059 102.85 17.0967 102.516 17.0967C 102.182 17.0967 101.93 17.0059 101.76 16.8242C 101.596 16.6426 101.514 16.417 101.514 16.1475ZM 101.522 8.38672C 101.522 8.10547 101.604 7.87109 101.769 7.68359C 101.938 7.49609 102.19 7.40234 102.524 7.40234C 102.858 7.40234 103.11 7.49609 103.28 7.68359C 103.456 7.87109 103.544 8.10547 103.544 8.38672C 103.544 8.65625 103.456 8.88184 103.28 9.06348C 103.11 9.24512 102.858 9.33594 102.524 9.33594C 102.19 9.33594 101.938 9.24512 101.769 9.06348C 101.604 8.88184 101.522 8.65625 101.522 8.38672ZM 113.757 3.71094L 112.078 3.71094L 112.078 18.4062L 113.757 18.4062L 113.757 19.7422L 110.443 19.7422L 110.443 2.375L 113.757 2.375L 113.757 3.71094ZM 120.349 17L 118.714 17L 118.714 6.16309L 115.436 7.36719L 115.436 5.89062L 120.094 4.1416L 120.349 4.1416L 120.349 17ZM 133.497 17L 125.112 17L 125.112 15.8311L 129.542 10.9092C 130.198 10.165 130.649 9.56152 130.896 9.09863C 131.147 8.62988 131.273 8.14648 131.273 7.64844C 131.273 6.98047 131.071 6.43262 130.667 6.00488C 130.263 5.57715 129.724 5.36328 129.05 5.36328C 128.241 5.36328 127.611 5.59473 127.16 6.05762C 126.715 6.51465 126.492 7.15332 126.492 7.97363L 124.866 7.97363C 124.866 6.7959 125.244 5.84375 126 5.11719C 126.762 4.39062 127.778 4.02734 129.05 4.02734C 130.239 4.02734 131.18 4.34082 131.871 4.96777C 132.562 5.58887 132.908 6.41797 132.908 7.45508C 132.908 8.71484 132.105 10.2148 130.5 11.9551L 127.072 15.6729L 133.497 15.6729L 133.497 17ZM 143.244 11.542C 143.244 13.4463 142.919 14.8613 142.269 15.7871C 141.618 16.7129 140.602 17.1758 139.219 17.1758C 137.854 17.1758 136.843 16.7246 136.187 15.8223C 135.53 14.9141 135.19 13.5605 135.167 11.7617L 135.167 9.59082C 135.167 7.70996 135.492 6.3125 136.143 5.39844C 136.793 4.48438 137.812 4.02734 139.201 4.02734C 140.578 4.02734 141.592 4.46973 142.242 5.35449C 142.893 6.2334 143.227 7.59277 143.244 9.43262L 143.244 11.542ZM 141.618 9.31836C 141.618 7.94141 141.425 6.93945 141.038 6.3125C 140.651 5.67969 140.039 5.36328 139.201 5.36328C 138.369 5.36328 137.763 5.67676 137.382 6.30371C 137.001 6.93066 136.805 7.89453 136.793 9.19531L 136.793 11.7969C 136.793 13.1797 136.992 14.2021 137.391 14.8643C 137.795 15.5205 138.404 15.8486 139.219 15.8486C 140.021 15.8486 140.616 15.5381 141.003 14.917C 141.396 14.2959 141.601 13.3174 141.618 11.9814L 141.618 9.31836ZM 145.529 16.1475C 145.529 15.8662 145.611 15.6318 145.775 15.4443C 145.945 15.2568 146.197 15.1631 146.531 15.1631C 146.865 15.1631 147.117 15.2568 147.287 15.4443C 147.463 15.6318 147.551 15.8662 147.551 16.1475C 147.551 16.417 147.463 16.6426 147.287 16.8242C 147.117 17.0059 146.865 17.0967 146.531 17.0967C 146.197 17.0967 145.945 17.0059 145.775 16.8242C 145.611 16.6426 145.529 16.417 145.529 16.1475ZM 152.438 9.81055L 153.659 9.81055C 154.427 9.79883 155.03 9.59668 155.47 9.2041C 155.909 8.81152 156.129 8.28125 156.129 7.61328C 156.129 6.11328 155.382 5.36328 153.888 5.36328C 153.185 5.36328 152.622 5.56543 152.2 5.96973C 151.784 6.36816 151.576 6.89844 151.576 7.56055L 149.95 7.56055C 149.95 6.54688 150.319 5.70605 151.058 5.03809C 151.802 4.36426 152.745 4.02734 153.888 4.02734C 155.095 4.02734 156.041 4.34668 156.727 4.98535C 157.412 5.62402 157.755 6.51172 157.755 7.64844C 157.755 8.20508 157.573 8.74414 157.21 9.26562C 156.853 9.78711 156.363 10.1768 155.742 10.4346C 156.445 10.6572 156.987 11.0264 157.368 11.542C 157.755 12.0576 157.948 12.6875 157.948 13.4316C 157.948 14.5801 157.573 15.4912 156.823 16.165C 156.073 16.8389 155.098 17.1758 153.896 17.1758C 152.695 17.1758 151.717 16.8506 150.961 16.2002C 150.211 15.5498 149.836 14.6914 149.836 13.625L 151.471 13.625C 151.471 14.2988 151.69 14.8379 152.13 15.2422C 152.569 15.6465 153.158 15.8486 153.896 15.8486C 154.682 15.8486 155.282 15.6436 155.698 15.2334C 156.114 14.8232 156.322 14.2344 156.322 13.4668C 156.322 12.7227 156.094 12.1514 155.637 11.7529C 155.18 11.3545 154.521 11.1494 153.659 11.1377L 152.438 11.1377L 152.438 9.81055ZM 160.295 19.5488L 159.372 18.916C 159.923 18.1484 160.21 17.3574 160.233 16.543L 160.233 15.0752L 161.824 15.0752L 161.824 16.3496C 161.824 16.9414 161.678 17.5332 161.385 18.125C 161.098 18.7168 160.734 19.1914 160.295 19.5488ZM 173.522 17L 171.888 17L 171.888 6.16309L 168.609 7.36719L 168.609 5.89062L 173.268 4.1416L 173.522 4.1416L 173.522 17ZM 183.63 17L 181.995 17L 181.995 6.16309L 178.717 7.36719L 178.717 5.89062L 183.375 4.1416L 183.63 4.1416L 183.63 17ZM 194.625 11.375C 194.285 11.7793 193.878 12.1045 193.403 12.3506C 192.935 12.5967 192.419 12.7197 191.856 12.7197C 191.118 12.7197 190.474 12.5381 189.923 12.1748C 189.378 11.8115 188.956 11.3018 188.657 10.6455C 188.358 9.9834 188.209 9.25391 188.209 8.45703C 188.209 7.60156 188.37 6.83105 188.692 6.14551C 189.021 5.45996 189.483 4.93555 190.081 4.57227C 190.679 4.20898 191.376 4.02734 192.173 4.02734C 193.438 4.02734 194.435 4.50195 195.161 5.45117C 195.894 6.39453 196.26 7.68359 196.26 9.31836L 196.26 9.79297C 196.26 12.2832 195.768 14.1025 194.783 15.251C 193.799 16.3936 192.313 16.9795 190.327 17.0088L 190.011 17.0088L 190.011 15.6377L 190.354 15.6377C 191.695 15.6143 192.727 15.2656 193.447 14.5918C 194.168 13.9121 194.561 12.8398 194.625 11.375ZM 192.12 11.375C 192.665 11.375 193.166 11.208 193.623 10.874C 194.086 10.54 194.423 10.127 194.634 9.63477L 194.634 8.98438C 194.634 7.91797 194.402 7.05078 193.939 6.38281C 193.477 5.71484 192.891 5.38086 192.182 5.38086C 191.467 5.38086 190.893 5.65625 190.459 6.20703C 190.025 6.75195 189.809 7.47266 189.809 8.36914C 189.809 9.24219 190.017 9.96289 190.433 10.5312C 190.854 11.0938 191.417 11.375 192.12 11.375ZM 198.703 16.1475C 198.703 15.8662 198.785 15.6318 198.949 15.4443C 199.119 15.2568 199.371 15.1631 199.705 15.1631C 200.039 15.1631 200.291 15.2568 200.461 15.4443C 200.637 15.6318 200.725 15.8662 200.725 16.1475C 200.725 16.417 200.637 16.6426 200.461 16.8242C 200.291 17.0059 200.039 17.0967 199.705 17.0967C 199.371 17.0967 199.119 17.0059 198.949 16.8242C 198.785 16.6426 198.703 16.417 198.703 16.1475ZM 210.076 9.81055L 211.298 9.81055C 212.065 9.79883 212.669 9.59668 213.108 9.2041C 213.548 8.81152 213.768 8.28125 213.768 7.61328C 213.768 6.11328 213.021 5.36328 211.526 5.36328C 210.823 5.36328 210.261 5.56543 209.839 5.96973C 209.423 6.36816 209.215 6.89844 209.215 7.56055L 207.589 7.56055C 207.589 6.54688 207.958 5.70605 208.696 5.03809C 209.44 4.36426 210.384 4.02734 211.526 4.02734C 212.733 4.02734 213.68 4.34668 214.365 4.98535C 215.051 5.62402 215.394 6.51172 215.394 7.64844C 215.394 8.20508 215.212 8.74414 214.849 9.26562C 214.491 9.78711 214.002 10.1768 213.381 10.4346C 214.084 10.6572 214.626 11.0264 215.007 11.542C 215.394 12.0576 215.587 12.6875 215.587 13.4316C 215.587 14.5801 215.212 15.4912 214.462 16.165C 213.712 16.8389 212.736 17.1758 211.535 17.1758C 210.334 17.1758 209.355 16.8506 208.6 16.2002C 207.85 15.5498 207.475 14.6914 207.475 13.625L 209.109 13.625C 209.109 14.2988 209.329 14.8379 209.769 15.2422C 210.208 15.6465 210.797 15.8486 211.535 15.8486C 212.32 15.8486 212.921 15.6436 213.337 15.2334C 213.753 14.8232 213.961 14.2344 213.961 13.4668C 213.961 12.7227 213.732 12.1514 213.275 11.7529C 212.818 11.3545 212.159 11.1494 211.298 11.1377L 210.076 11.1377L 210.076 9.81055ZM 222.486 16.1475C 222.486 15.8662 222.568 15.6318 222.732 15.4443C 222.902 15.2568 223.154 15.1631 223.488 15.1631C 223.822 15.1631 224.074 15.2568 224.244 15.4443C 224.42 15.6318 224.508 15.8662 224.508 16.1475C 224.508 16.417 224.42 16.6426 224.244 16.8242C 224.074 17.0059 223.822 17.0967 223.488 17.0967C 223.154 17.0967 222.902 17.0059 222.732 16.8242C 222.568 16.6426 222.486 16.417 222.486 16.1475ZM 227.232 16.1475C 227.232 15.8662 227.314 15.6318 227.479 15.4443C 227.648 15.2568 227.9 15.1631 228.234 15.1631C 228.568 15.1631 228.82 15.2568 228.99 15.4443C 229.166 15.6318 229.254 15.8662 229.254 16.1475C 229.254 16.417 229.166 16.6426 228.99 16.8242C 228.82 17.0059 228.568 17.0967 228.234 17.0967C 227.9 17.0967 227.648 17.0059 227.479 16.8242C 227.314 16.6426 227.232 16.417 227.232 16.1475ZM 231.979 16.1475C 231.979 15.8662 232.061 15.6318 232.225 15.4443C 232.395 15.2568 232.646 15.1631 232.98 15.1631C 233.314 15.1631 233.566 15.2568 233.736 15.4443C 233.912 15.6318 234 15.8662 234 16.1475C 234 16.417 233.912 16.6426 233.736 16.8242C 233.566 17.0059 233.314 17.0967 232.98 17.0967C 232.646 17.0967 232.395 17.0059 232.225 16.8242C 232.061 16.6426 231.979 16.417 231.979 16.1475ZM 235.538 2.375L 238.86 2.375L 238.86 19.7422L 235.538 19.7422L 235.538 18.4062L 237.234 18.4062L 237.234 3.71094L 235.538 3.71094L 235.538 2.375ZM 38.3555 38C 38.2617 37.8125 38.1855 37.4785 38.127 36.998C 37.3711 37.7832 36.4688 38.1758 35.4199 38.1758C 34.4824 38.1758 33.7119 37.9121 33.1084 37.3848C 32.5107 36.8516 32.2119 36.1777 32.2119 35.3633C 32.2119 34.373 32.5869 33.6055 33.3369 33.0605C 34.0928 32.5098 35.1533 32.2344 36.5186 32.2344L 38.1006 32.2344L 38.1006 31.4873C 38.1006 30.9189 37.9307 30.4678 37.5908 30.1338C 37.251 29.7939 36.75 29.624 36.0879 29.624C 35.5078 29.624 35.0215 29.7705 34.6289 30.0635C 34.2363 30.3564 34.04 30.7109 34.04 31.127L 32.4053 31.127C 32.4053 30.6523 32.5723 30.1953 32.9062 29.7559C 33.2461 29.3105 33.7031 28.959 34.2773 28.7012C 34.8574 28.4434 35.4932 28.3145 36.1846 28.3145C 37.2803 28.3145 38.1387 28.5898 38.7598 29.1406C 39.3809 29.6855 39.7031 30.4385 39.7266 31.3994L 39.7266 35.7764C 39.7266 36.6494 39.8379 37.3438 40.0605 37.8594L 40.0605 38L 38.3555 38ZM 35.6572 36.7607C 36.167 36.7607 36.6504 36.6289 37.1074 36.3652C 37.5645 36.1016 37.8955 35.7588 38.1006 35.3369L 38.1006 33.3857L 36.8262 33.3857C 34.834 33.3857 33.8379 33.9688 33.8379 35.1348C 33.8379 35.6445 34.0078 36.043 34.3477 36.3301C 34.6875 36.6172 35.124 36.7607 35.6572 36.7607ZM 45.2725 35.7939L 47.6279 28.4902L 49.2891 28.4902L 45.8789 38L 44.6396 38L 41.1943 28.4902L 42.8555 28.4902L 45.2725 35.7939ZM 50.3438 33.166C 50.3438 31.6836 50.6865 30.5059 51.3721 29.6328C 52.0576 28.7539 52.9658 28.3145 54.0967 28.3145C 55.2568 28.3145 56.1621 28.7246 56.8125 29.5449L 56.8916 28.4902L 58.377 28.4902L 58.377 37.7715C 58.377 39.002 58.0107 39.9717 57.2783 40.6807C 56.5518 41.3896 55.5732 41.7441 54.3428 41.7441C 53.6572 41.7441 52.9863 41.5977 52.3301 41.3047C 51.6738 41.0117 51.1729 40.6104 50.8271 40.1006L 51.6709 39.125C 52.3682 39.9863 53.2207 40.417 54.2285 40.417C 55.0195 40.417 55.6348 40.1943 56.0742 39.749C 56.5195 39.3037 56.7422 38.6768 56.7422 37.8682L 56.7422 37.0508C 56.0918 37.8008 55.2041 38.1758 54.0791 38.1758C 52.9658 38.1758 52.0635 37.7275 51.3721 36.8311C 50.6865 35.9346 50.3438 34.7129 50.3438 33.166ZM 51.9785 33.3506C 51.9785 34.4229 52.1982 35.2666 52.6377 35.8818C 53.0771 36.4912 53.6924 36.7959 54.4834 36.7959C 55.5088 36.7959 56.2617 36.3301 56.7422 35.3984L 56.7422 31.0566C 56.2441 30.1484 55.4971 29.6943 54.501 29.6943C 53.71 29.6943 53.0918 30.002 52.6465 30.6172C 52.2012 31.2324 51.9785 32.1436 51.9785 33.3506ZM 67.6934 39.3271L 59.6426 39.3271L 59.6426 38L 67.6934 38L 67.6934 39.3271ZM 70.4883 28.4902L 70.5322 29.5449C 71.2295 28.7246 72.1699 28.3145 73.3535 28.3145C 74.6836 28.3145 75.5889 28.8242 76.0693 29.8438C 76.3857 29.3867 76.7959 29.0176 77.2998 28.7363C 77.8096 28.4551 78.4102 28.3145 79.1016 28.3145C 81.1875 28.3145 82.248 29.4189 82.2832 31.6279L 82.2832 38L 80.6572 38L 80.6572 31.7246C 80.6572 31.0449 80.502 30.5381 80.1914 30.2041C 79.8809 29.8643 79.3594 29.6943 78.627 29.6943C 78.0234 29.6943 77.5225 29.876 77.124 30.2393C 76.7256 30.5967 76.4941 31.0801 76.4297 31.6895L 76.4297 38L 74.7949 38L 74.7949 31.7686C 74.7949 30.3857 74.1182 29.6943 72.7646 29.6943C 71.6982 29.6943 70.9688 30.1484 70.5762 31.0566L 70.5762 38L 68.9502 38L 68.9502 28.4902L 70.4883 28.4902ZM 90.2812 35.4775C 90.2812 35.0381 90.1143 34.6982 89.7803 34.458C 89.4521 34.2119 88.875 34.001 88.0488 33.8252C 87.2285 33.6494 86.5752 33.4385 86.0889 33.1924C 85.6084 32.9463 85.251 32.6533 85.0166 32.3135C 84.7881 31.9736 84.6738 31.5693 84.6738 31.1006C 84.6738 30.3213 85.002 29.6621 85.6582 29.123C 86.3203 28.584 87.1641 28.3145 88.1895 28.3145C 89.2676 28.3145 90.1406 28.5928 90.8086 29.1494C 91.4824 29.7061 91.8193 30.418 91.8193 31.2852L 90.1846 31.2852C 90.1846 30.8398 89.9941 30.4561 89.6133 30.1338C 89.2383 29.8115 88.7637 29.6504 88.1895 29.6504C 87.5977 29.6504 87.1348 29.7793 86.8008 30.0371C 86.4668 30.2949 86.2998 30.6318 86.2998 31.0479C 86.2998 31.4404 86.4551 31.7363 86.7656 31.9355C 87.0762 32.1348 87.6357 32.3252 88.4443 32.5068C 89.2588 32.6885 89.918 32.9053 90.4219 33.1572C 90.9258 33.4092 91.2979 33.7139 91.5381 34.0713C 91.7842 34.4229 91.9072 34.8535 91.9072 35.3633C 91.9072 36.2129 91.5674 36.8955 90.8877 37.4111C 90.208 37.9209 89.3262 38.1758 88.2422 38.1758C 87.4805 38.1758 86.8066 38.041 86.2207 37.7715C 85.6348 37.502 85.1748 37.127 84.8408 36.6465C 84.5127 36.1602 84.3486 35.6357 84.3486 35.0732L 85.9746 35.0732C 86.0039 35.6182 86.2207 36.0518 86.625 36.374C 87.0352 36.6904 87.5742 36.8486 88.2422 36.8486C 88.8574 36.8486 89.3496 36.7256 89.7188 36.4795C 90.0938 36.2275 90.2812 35.8936 90.2812 35.4775ZM 97.9717 38.1758C 96.6826 38.1758 95.6338 37.7539 94.8252 36.9102C 94.0166 36.0605 93.6123 34.9268 93.6123 33.5088L 93.6123 33.21C 93.6123 32.2666 93.791 31.4258 94.1484 30.6875C 94.5117 29.9434 95.0156 29.3633 95.6602 28.9473C 96.3105 28.5254 97.0137 28.3145 97.7695 28.3145C 99.0059 28.3145 99.9668 28.7217 100.652 29.5361C 101.338 30.3506 101.681 31.5166 101.681 33.0342L 101.681 33.7109L 95.2383 33.7109C 95.2617 34.6484 95.5342 35.4072 96.0557 35.9873C 96.583 36.5615 97.251 36.8486 98.0596 36.8486C 98.6338 36.8486 99.1201 36.7314 99.5186 36.4971C 99.917 36.2627 100.266 35.9521 100.564 35.5654L 101.558 36.3389C 100.761 37.5635 99.5654 38.1758 97.9717 38.1758ZM 97.7695 29.6504C 97.1133 29.6504 96.5625 29.8906 96.1172 30.3711C 95.6719 30.8457 95.3965 31.5137 95.291 32.375L 100.055 32.375L 100.055 32.252C 100.008 31.4258 99.7852 30.7871 99.3867 30.3359C 98.9883 29.8789 98.4492 29.6504 97.7695 29.6504ZM 103.518 37.1475C 103.518 36.8662 103.6 36.6318 103.764 36.4443C 103.934 36.2568 104.186 36.1631 104.52 36.1631C 104.854 36.1631 105.105 36.2568 105.275 36.4443C 105.451 36.6318 105.539 36.8662 105.539 37.1475C 105.539 37.417 105.451 37.6426 105.275 37.8242C 105.105 38.0059 104.854 38.0967 104.52 38.0967C 104.186 38.0967 103.934 38.0059 103.764 37.8242C 103.6 37.6426 103.518 37.417 103.518 37.1475ZM 103.526 29.3867C 103.526 29.1055 103.608 28.8711 103.772 28.6836C 103.942 28.4961 104.194 28.4023 104.528 28.4023C 104.862 28.4023 105.114 28.4961 105.284 28.6836C 105.46 28.8711 105.548 29.1055 105.548 29.3867C 105.548 29.6562 105.46 29.8818 105.284 30.0635C 105.114 30.2451 104.862 30.3359 104.528 30.3359C 104.194 30.3359 103.942 30.2451 103.772 30.0635C 103.608 29.8818 103.526 29.6562 103.526 29.3867ZM 117.571 38L 115.937 38L 115.937 27.1631L 112.658 28.3672L 112.658 26.8906L 117.316 25.1416L 117.571 25.1416L 117.571 38ZM 130.72 38L 122.335 38L 122.335 36.8311L 126.765 31.9092C 127.421 31.165 127.872 30.5615 128.118 30.0986C 128.37 29.6299 128.496 29.1465 128.496 28.6484C 128.496 27.9805 128.294 27.4326 127.89 27.0049C 127.485 26.5771 126.946 26.3633 126.272 26.3633C 125.464 26.3633 124.834 26.5947 124.383 27.0576C 123.938 27.5146 123.715 28.1533 123.715 28.9736L 122.089 28.9736C 122.089 27.7959 122.467 26.8438 123.223 26.1172C 123.984 25.3906 125.001 25.0273 126.272 25.0273C 127.462 25.0273 128.402 25.3408 129.094 25.9678C 129.785 26.5889 130.131 27.418 130.131 28.4551C 130.131 29.7148 129.328 31.2148 127.723 32.9551L 124.295 36.6729L 130.72 36.6729L 130.72 38ZM 140.467 32.542C 140.467 34.4463 140.142 35.8613 139.491 36.7871C 138.841 37.7129 137.824 38.1758 136.441 38.1758C 135.076 38.1758 134.065 37.7246 133.409 36.8223C 132.753 35.9141 132.413 34.5605 132.39 32.7617L 132.39 30.5908C 132.39 28.71 132.715 27.3125 133.365 26.3984C 134.016 25.4844 135.035 25.0273 136.424 25.0273C 137.801 25.0273 138.814 25.4697 139.465 26.3545C 140.115 27.2334 140.449 28.5928 140.467 30.4326L 140.467 32.542ZM 138.841 30.3184C 138.841 28.9414 138.647 27.9395 138.261 27.3125C 137.874 26.6797 137.262 26.3633 136.424 26.3633C 135.592 26.3633 134.985 26.6768 134.604 27.3037C 134.224 27.9307 134.027 28.8945 134.016 30.1953L 134.016 32.7969C 134.016 34.1797 134.215 35.2021 134.613 35.8643C 135.018 36.5205 135.627 36.8486 136.441 36.8486C 137.244 36.8486 137.839 36.5381 138.226 35.917C 138.618 35.2959 138.823 34.3174 138.841 32.9814L 138.841 30.3184ZM 142.752 37.1475C 142.752 36.8662 142.834 36.6318 142.998 36.4443C 143.168 36.2568 143.42 36.1631 143.754 36.1631C 144.088 36.1631 144.34 36.2568 144.51 36.4443C 144.686 36.6318 144.773 36.8662 144.773 37.1475C 144.773 37.417 144.686 37.6426 144.51 37.8242C 144.34 38.0059 144.088 38.0967 143.754 38.0967C 143.42 38.0967 143.168 38.0059 142.998 37.8242C 142.834 37.6426 142.752 37.417 142.752 37.1475ZM 152.64 38L 151.005 38L 151.005 27.1631L 147.727 28.3672L 147.727 26.8906L 152.385 25.1416L 152.64 25.1416L 152.64 38Z"/>
</defs>
</svg>

