<svg width="124" height="181" viewBox="0 0 124 181" version="1.1" xmlns="http://www.w3.org/2000/svg" xmlns:xlink="http://www.w3.org/1999/xlink">
<title>Group.svg</title>
<desc>Created using Figma</desc>
<g id="Canvas" transform="translate(269 -1042)">
<g id="Group">
<g id="= 2.5 x + 0">
<use xlink:href="#path0_fill" transform="translate(-231 1045)"/>
</g>
<g id="1">
<use xlink:href="#path1_fill" transform="translate(-184 1055)"/>
</g>
<g id="Line 4">
<use xlink:href="#path2_stroke" transform="matrix(6.12323e-17 1 -1 6.12323e-17 -252 1091)"/>
</g>
<g id="Line 6">
<use xlink:href="#path3_stroke" transform="translate(-252 1193)"/>
</g>
<g id="Ellipse">
<use xlink:href="#path4_fill" transform="translate(-238 1173)" fill="#C4C4C4"/>
</g>
<g id="Ellipse">
<use xlink:href="#path4_fill" transform="translate(-233 1181)" fill="#C4C4C4"/>
</g>
<g id="Ellipse">
<use xlink:href="#path4_fill" transform="translate(-226 1170)" fill="#C4C4C4"/>
</g>
<g id="Ellipse">
<use xlink:href="#path4_fill" transform="translate(-232 1158)" fill="#C4C4C4"/>
</g>
<g id="Ellipse">
<use xlink:href="#path4_fill" transform="translate(-227 1166)" fill="#C4C4C4"/>
</g>
<g id="Ellipse">
<use xlink:href="#path4_fill" transform="translate(-220 1155)" fill="#C4C4C4"/>
</g>
<g id="Ellipse">
<use xlink:href="#path4_fill" transform="translate(-211 1143)" fill="#C4C4C4"/>
</g>
<g id="Ellipse">
<use xlink:href="#path4_fill" transform="translate(-206 1151)" fill="#C4C4C4"/>
</g>
<g id="Ellipse">
<use xlink:href="#path4_fill" transform="translate(-199 1140)" fill="#C4C4C4"/>
</g>
<g id="Ellipse">
<use xlink:href="#path4_fill" transform="translate(-227 1133)" fill="#C4C4C4"/>
</g>
<g id="Ellipse">
<use xlink:href="#path4_fill" transform="translate(-222 1141)" fill="#C4C4C4"/>
</g>
<g id="Ellipse">
<use xlink:href="#path4_fill" transform="translate(-215 1130)" fill="#C4C4C4"/>
</g>
<g id="Ellipse">
<use xlink:href="#path4_fill" transform="translate(-215 1163)" fill="#C4C4C4"/>
</g>
<g id="Ellipse">
<use xlink:href="#path4_fill" transform="translate(-210 1171)" fill="#C4C4C4"/>
</g>
<g id="Ellipse">
<use xlink:href="#path4_fill" transform="translate(-203 1160)" fill="#C4C4C4"/>
</g>
<g id="Ellipse">
<use xlink:href="#path4_fill" transform="translate(-205 1122)" fill="#C4C4C4"/>
</g>
<g id="Ellipse">
<use xlink:href="#path4_fill" transform="translate(-200 1130)" fill="#C4C4C4"/>
</g>
<g id="Ellipse">
<use xlink:href="#path4_fill" transform="translate(-193 1119)" fill="#C4C4C4"/>
</g>
<g id="Ellipse">
<use xlink:href="#path4_fill" transform="translate(-188 1136)" fill="#C4C4C4"/>
</g>
<g id="Ellipse">
<use xlink:href="#path4_fill" transform="translate(-181 1125)" fill="#C4C4C4"/>
</g>
<g id="Ellipse">
<use xlink:href="#path4_fill" transform="translate(-187 1103)" fill="#C4C4C4"/>
</g>
<g id="Ellipse">
<use xlink:href="#path4_fill" transform="translate(-182 1111)" fill="#C4C4C4"/>
</g>
<g id="Ellipse">
<use xlink:href="#path4_fill" transform="translate(-175 1100)" fill="#C4C4C4"/>
</g>
<g id="Ellipse">
<use xlink:href="#path4_fill" transform="translate(-170 1111)" fill="#C4C4C4"/>
</g>
<g id="Ellipse">
<use xlink:href="#path4_fill" transform="translate(-165 1119)" fill="#C4C4C4"/>
</g>
<g id="Ellipse">
<use xlink:href="#path4_fill" transform="translate(-159 1108)" fill="#C4C4C4"/>
</g>
<g id="x">
<use xlink:href="#path5_fill" transform="translate(-206 1200)"/>
</g>
<g id="1">
<use xlink:href="#path6_fill" transform="translate(-196 1212)"/>
</g>
<g id="y">
<use xlink:href="#path7_fill" transform="translate(-269 1122)"/>
</g>
<g id="Line 9">
<use xlink:href="#path8_stroke" transform="matrix(6.12323e-17 1 -1 6.12323e-17 -192 1122)" fill="#EB5757"/>
</g>
<g id="Ellipse">
<use xlink:href="#path4_fill" transform="translate(-193 1128)" fill="#C4C4C4"/>
</g>
<g id="y">
<use xlink:href="#path9_fill" transform="translate(-153 1084)" fill="#2F80ED"/>
</g>
<g id="^">
<use xlink:href="#path10_fill" transform="translate(-152 1078)" fill="#2F80ED"/>
</g>
<g id="y">
<use xlink:href="#path9_fill" transform="translate(-247 1045)" fill="#2F80ED"/>
</g>
<g id="^">
<use xlink:href="#path10_fill" transform="translate(-246 1039)" fill="#2F80ED"/>
</g>
<g id="Line 8">
<use xlink:href="#path11_stroke" transform="matrix(6.12323e-17 1 -1 6.12323e-17 -226 1136)" fill="#EB5757"/>
</g>
<g id="Line 9">
<use xlink:href="#path8_stroke" transform="matrix(6.12323e-17 1 -1 6.12323e-17 -231 1161)" fill="#EB5757"/>
</g>
<g id="Line 9">
<use xlink:href="#path12_stroke" transform="matrix(6.12323e-17 1 -1 6.12323e-17 -232 1173)" fill="#EB5757"/>
</g>
<g id="Line 9">
<use xlink:href="#path13_stroke" transform="matrix(6.12323e-17 1 -1 6.12323e-17 -237 1176)" fill="#EB5757"/>
</g>
<g id="Line 9">
<use xlink:href="#path14_stroke" transform="matrix(6.12323e-17 1 -1 6.12323e-17 -225 1166)" fill="#EB5757"/>
</g>
<g id="Line 9">
<use xlink:href="#path15_stroke" transform="matrix(6.12323e-17 1 -1 6.12323e-17 -210 1146)" fill="#EB5757"/>
</g>
<g id="Line 9">
<use xlink:href="#path16_stroke" transform="matrix(6.12323e-17 1 -1 6.12323e-17 -199 1133)" fill="#EB5757"/>
</g>
<g id="Line 9">
<use xlink:href="#path12_stroke" transform="matrix(6.12323e-17 1 -1 6.12323e-17 -187 1128)" fill="#EB5757"/>
</g>
<g id="Line 9">
<use xlink:href="#path17_stroke" transform="matrix(6.12323e-17 1 -1 6.12323e-17 -174 1103)" fill="#EB5757"/>
</g>
<g id="Line 9">
<use xlink:href="#path12_stroke" transform="matrix(6.12323e-17 1 -1 6.12323e-17 -181 1114)" fill="#EB5757"/>
</g>
<g id="Line 9">
<use xlink:href="#path18_stroke" transform="matrix(6.12323e-17 1 -1 6.12323e-17 -186 1106)" fill="#EB5757"/>
</g>
<g id="Line 9">
<use xlink:href="#path15_stroke" transform="matrix(6.12323e-17 1 -1 6.12323e-17 -205 1146)" fill="#EB5757"/>
</g>
<g id="Line 9">
<use xlink:href="#path19_stroke" transform="matrix(6.12323e-17 1 -1 6.12323e-17 -221 1144)" fill="#EB5757"/>
</g>
<g id="Line 9">
<use xlink:href="#path12_stroke" transform="matrix(6.12323e-17 1 -1 6.12323e-17 -214 1155)" fill="#EB5757"/>
</g>
<g id="Line 10">
<use xlink:href="#path13_stroke" transform="matrix(6.12323e-17 1 -1 6.12323e-17 -219 1158)" fill="#EB5757"/>
</g>
<g id="Line 10">
<use xlink:href="#path20_stroke" transform="matrix(6.12323e-17 1 -1 6.12323e-17 -198 1139)" fill="#EB5757"/>
</g>
<g id="Line 10">
<use xlink:href="#path13_stroke" transform="matrix(6.12323e-17 1 -1 6.12323e-17 -192 1131)" fill="#EB5757"/>
</g>
<g id="Line 10">
<use xlink:href="#path14_stroke" transform="matrix(6.12323e-17 1 -1 6.12323e-17 -180 1121)" fill="#EB5757"/>
</g>
<g id="Line 10">
<use xlink:href="#path21_stroke" transform="matrix(6.12323e-17 1 -1 6.12323e-17 -164 1105)" fill="#EB5757"/>
</g>
<g id="Line 9">
<use xlink:href="#path18_stroke" transform="matrix(6.12323e-17 1 -1 6.12323e-17 -209 1150)" fill="#EB5757"/>
</g>
<g id="Line 9">
<use xlink:href="#path22_stroke" transform="matrix(6.12323e-17 1 -1 6.12323e-17 -204 1125)" fill="#EB5757"/>
</g>
<g id="Line 9">
<use xlink:href="#path23_stroke" transform="matrix(6.12323e-17 1 -1 6.12323e-17 -202 1143)" fill="#EB5757"/>
</g>
<g id="Line 9">
<use xlink:href="#path24_stroke" transform="matrix(6.12323e-17 1 -1 6.12323e-17 -214 1133)" fill="#EB5757"/>
</g>
<g id="Line 10">
<use xlink:href="#path25_stroke" transform="matrix(6.12323e-17 1 -1 6.12323e-17 -158 1099)" fill="#EB5757"/>
</g>
<g id="Line 7">
<use xlink:href="#path26_stroke" transform="matrix(0.707107 -0.707107 0.707107 0.707107 -251 1193)" fill="#2F80ED"/>
</g>
</g>
</g>
<defs>
<path id="path0_fill" d="M 7.70312 8.64062L 1.1875 8.64062L 1.1875 7.38281L 7.70312 7.38281L 7.70312 8.64062ZM 7.70312 11.8828L 1.1875 11.8828L 1.1875 10.6328L 7.70312 10.6328L 7.70312 11.8828ZM 21.1484 15L 13.6953 15L 13.6953 13.9609L 17.6328 9.58594C 18.2161 8.92448 18.6172 8.38802 18.8359 7.97656C 19.0599 7.5599 19.1719 7.13021 19.1719 6.6875C 19.1719 6.09375 18.9922 5.60677 18.6328 5.22656C 18.2734 4.84635 17.7943 4.65625 17.1953 4.65625C 16.4766 4.65625 15.9167 4.86198 15.5156 5.27344C 15.1198 5.67969 14.9219 6.2474 14.9219 6.97656L 13.4766 6.97656C 13.4766 5.92969 13.8125 5.08333 14.4844 4.4375C 15.1615 3.79167 16.0651 3.46875 17.1953 3.46875C 18.2526 3.46875 19.0885 3.7474 19.7031 4.30469C 20.3177 4.85677 20.625 5.59375 20.625 6.51562C 20.625 7.63542 19.9115 8.96875 18.4844 10.5156L 15.4375 13.8203L 21.1484 13.8203L 21.1484 15ZM 22.8594 14.2422C 22.8594 13.9922 22.9323 13.7839 23.0781 13.6172C 23.2292 13.4505 23.4531 13.3672 23.75 13.3672C 24.0469 13.3672 24.2708 13.4505 24.4219 13.6172C 24.5781 13.7839 24.6562 13.9922 24.6562 14.2422C 24.6562 14.4818 24.5781 14.6823 24.4219 14.8438C 24.2708 15.0052 24.0469 15.0859 23.75 15.0859C 23.4531 15.0859 23.2292 15.0052 23.0781 14.8438C 22.9323 14.6823 22.8594 14.4818 22.8594 14.2422ZM 27.5625 9.29688L 28.1406 3.625L 33.9688 3.625L 33.9688 4.96094L 29.3672 4.96094L 29.0234 8.0625C 29.5807 7.73438 30.2135 7.57031 30.9219 7.57031C 31.9583 7.57031 32.7812 7.91406 33.3906 8.60156C 34 9.28385 34.3047 10.2083 34.3047 11.375C 34.3047 12.5469 33.987 13.4714 33.3516 14.1484C 32.7214 14.8203 31.8385 15.1562 30.7031 15.1562C 29.6979 15.1562 28.8776 14.8776 28.2422 14.3203C 27.6068 13.763 27.2448 12.9922 27.1562 12.0078L 28.5234 12.0078C 28.612 12.6589 28.8438 13.151 29.2188 13.4844C 29.5938 13.8125 30.0885 13.9766 30.7031 13.9766C 31.375 13.9766 31.901 13.7474 32.2812 13.2891C 32.6667 12.8307 32.8594 12.1979 32.8594 11.3906C 32.8594 10.6302 32.651 10.0208 32.2344 9.5625C 31.8229 9.09896 31.2734 8.86719 30.5859 8.86719C 29.9557 8.86719 29.4609 9.00521 29.1016 9.28125L 28.7188 9.59375L 27.5625 9.29688ZM 42.8359 9.63281L 44.7109 6.54688L 46.3984 6.54688L 43.6328 10.7266L 46.4844 15L 44.8125 15L 42.8594 11.8359L 40.9062 15L 39.2266 15L 42.0781 10.7266L 39.3125 6.54688L 40.9844 6.54688L 42.8359 9.63281ZM 60.0156 8.89844L 63.1875 8.89844L 63.1875 10.2656L 60.0156 10.2656L 60.0156 13.8594L 58.5625 13.8594L 58.5625 10.2656L 55.3906 10.2656L 55.3906 8.89844L 58.5625 8.89844L 58.5625 5.57812L 60.0156 5.57812L 60.0156 8.89844ZM 75.9062 10.1484C 75.9062 11.8411 75.6172 13.099 75.0391 13.9219C 74.4609 14.7448 73.5573 15.1562 72.3281 15.1562C 71.1146 15.1562 70.2161 14.7552 69.6328 13.9531C 69.0495 13.1458 68.7474 11.9427 68.7266 10.3438L 68.7266 8.41406C 68.7266 6.74219 69.0156 5.5 69.5938 4.6875C 70.1719 3.875 71.0781 3.46875 72.3125 3.46875C 73.5365 3.46875 74.4375 3.86198 75.0156 4.64844C 75.5938 5.42969 75.8906 6.63802 75.9062 8.27344L 75.9062 10.1484ZM 74.4609 8.17188C 74.4609 6.94792 74.2891 6.05729 73.9453 5.5C 73.6016 4.9375 73.0573 4.65625 72.3125 4.65625C 71.5729 4.65625 71.0339 4.9349 70.6953 5.49219C 70.3568 6.04948 70.1823 6.90625 70.1719 8.0625L 70.1719 10.375C 70.1719 11.6042 70.349 12.513 70.7031 13.1016C 71.0625 13.6849 71.6042 13.9766 72.3281 13.9766C 73.0417 13.9766 73.5703 13.7005 73.9141 13.1484C 74.263 12.5964 74.4453 11.7266 74.4609 10.5391L 74.4609 8.17188Z"/>
<path id="path1_fill" d="M 3.55957 9L 2.65137 9L 2.65137 2.97949L 0.830078 3.64844L 0.830078 2.82812L 3.41797 1.85645L 3.55957 1.85645L 3.55957 9Z"/>
<path id="path2_stroke" d="M 0 0L 102 0L 102 -1L 0 -1L 0 0Z"/>
<path id="path3_stroke" d="M 0 -5.55112e-17L 103 -5.55112e-17L 103 -1L 0 -1L 0 -5.55112e-17Z"/>
<path id="path4_fill" d="M 3 1.5C 3 2.32843 2.32843 3 1.5 3C 0.671573 3 0 2.32843 0 1.5C 0 0.671573 0.671573 0 1.5 0C 2.32843 0 3 0.671573 3 1.5Z"/>
<path id="path5_fill" d="M 4.4209 10.9619L 6.53027 7.49023L 8.42871 7.49023L 5.31738 12.1924L 8.52539 17L 6.64453 17L 4.44727 13.4404L 2.25 17L 0.360352 17L 3.56836 12.1924L 0.457031 7.49023L 2.33789 7.49023L 4.4209 10.9619Z"/>
<path id="path6_fill" d="M 4.27148 11L 3.18164 11L 3.18164 3.77539L 0.996094 4.57812L 0.996094 3.59375L 4.10156 2.42773L 4.27148 2.42773L 4.27148 11Z"/>
<path id="path7_fill" d="M 4.3418 14.6182L 6.55664 7.49023L 8.29688 7.49023L 4.47363 18.4678C 3.88184 20.0498 2.94141 20.8408 1.65234 20.8408L 1.34473 20.8145L 0.738281 20.7002L 0.738281 19.3818L 1.17773 19.417C 1.72852 19.417 2.15625 19.3057 2.46094 19.083C 2.77148 18.8604 3.02637 18.4531 3.22559 17.8613L 3.58594 16.8945L 0.193359 7.49023L 1.96875 7.49023L 4.3418 14.6182Z"/>
<path id="path8_stroke" d="M 0 0L 11 0L 11 -1L 0 -1L 0 0Z"/>
<path id="path9_fill" d="M 3.85938 12.8828L 5.82812 6.54688L 7.375 6.54688L 3.97656 16.3047C 3.45052 17.7109 2.61458 18.4141 1.46875 18.4141L 1.19531 18.3906L 0.65625 18.2891L 0.65625 17.1172L 1.04688 17.1484C 1.53646 17.1484 1.91667 17.0495 2.1875 16.8516C 2.46354 16.6536 2.6901 16.2917 2.86719 15.7656L 3.1875 14.9062L 0.171875 6.54688L 1.75 6.54688L 3.85938 12.8828Z"/>
<path id="path10_fill" d="M 3.32812 5.53906L 1.84375 9.30469L 0.5 9.30469L 2.83594 3.625L 3.82812 3.625L 6.15625 9.30469L 4.82031 9.30469L 3.32812 5.53906Z"/>
<path id="path11_stroke" d="M 0 0L 31 0L 31 -1L 0 -1L 0 0Z"/>
<path id="path12_stroke" d="M 0 0L 8 0L 8 -1L 0 -1L 0 0Z"/>
<path id="path13_stroke" d="M 0 0L 2 0L 2 -1L 0 -1L 0 0Z"/>
<path id="path14_stroke" d="M 0 0L 4 0L 4 -1L 0 -1L 0 0Z"/>
<path id="path15_stroke" d="M 0 0L 5 0L 5 -1L 0 -1L 0 0Z"/>
<path id="path16_stroke" d="M 0 0L 7 0L 7 -1L 0 -1L 0 0Z"/>
<path id="path17_stroke" d="M 0 0L 12 0L 12 -1L 0 -1L 0 0Z"/>
<path id="path18_stroke" d="M 0 0L 21 0L 21 -1L 0 -1L 0 0Z"/>
<path id="path19_stroke" d="M 0 0L 18 0L 18 -1L 0 -1L 0 0Z"/>
<path id="path20_stroke" d="M 0 0L 1 0L 1 -1L 0 -1L 0 0Z"/>
<path id="path21_stroke" d="M 0 0L 14 0L 14 -1L 0 -1L 0 0Z"/>
<path id="path22_stroke" d="M 0 0L 20 0L 20 -1L 0 -1L 0 0Z"/>
<path id="path23_stroke" d="M 0 0L 17 0L 17 -1L 0 -1L 0 0Z"/>
<path id="path24_stroke" d="M 0 0L 22 0L 22 -1L 0 -1L 0 0Z"/>
<path id="path25_stroke" d="M 0 0L 9 0L 9 -1L 0 -1L 0 0Z"/>
<path id="path26_stroke" d="M 0 0L 132.936 0L 132.936 -0.75L 0 -0.75L 0 0Z"/>
</defs>
</svg>

