<svg width="2010" height="464" viewBox="0 0 2010 464" version="1.1" xmlns="http://www.w3.org/2000/svg" xmlns:xlink="http://www.w3.org/1999/xlink">
<title>Frame</title>
<desc>Created using Figma</desc>
<g id="Canvas" transform="matrix(2 0 0 2 1176 626)">
<clipPath id="clip-0" clip-rule="evenodd">
<path d="M -588 -313L 417 -313L 417 -81L -588 -81L -588 -313Z" fill="#FFFFFF"/>
</clipPath>
<g id="Frame" clip-path="url(#clip-0)">
<path d="M -588 -313L 417 -313L 417 -81L -588 -81L -588 -313Z" fill="#FFFFFF"/>
<g id="Group">
<g id="Rectangle">
<use xlink:href="#path0_fill" transform="translate(-547 -129)" fill="#FDD6D6"/>
</g>
<g id="a INNER JOIN b">
<use xlink:href="#path1_fill" transform="translate(-542 -127)" fill="#D91D1D"/>
</g>
<g id="Intersect">
<use xlink:href="#path2_fill" transform="translate(-501.392 -274.13)" fill="#2F80ED"/>
</g>
<g id="Subtract">
<mask id="mask0_outline_ins">
<use xlink:href="#path3_fill" fill="white" transform="translate(-572 -284)"/>
</mask>
<g mask="url(#mask0_outline_ins)">
<use xlink:href="#path4_stroke_2x" transform="translate(-572 -284)"/>
</g>
</g>
<g id="Subtract">
<mask id="mask1_outline_ins">
<use xlink:href="#path5_fill" fill="white" transform="translate(-468.912 -284)"/>
</mask>
<g mask="url(#mask1_outline_ins)">
<use xlink:href="#path6_stroke_2x" transform="translate(-468.912 -284)"/>
</g>
</g>
<g id="b">
<use xlink:href="#path7_fill" transform="translate(-409.601 -228.01)"/>
</g>
<g id="a">
<use xlink:href="#path8_fill" transform="translate(-536.696 -226.6)"/>
</g>
</g>
<g id="Group">
<g id="Rectangle">
<use xlink:href="#path0_fill" transform="translate(-42 -129)" fill="#FDD6D6"/>
</g>
<g id="a RIGHT JOIN b">
<use xlink:href="#path9_fill" transform="translate(-36 -127)" fill="#D91D1D"/>
</g>
<g id="Intersect">
<use xlink:href="#path2_fill" transform="translate(4.60809 -274.13)" fill="#2F80ED"/>
</g>
<g id="Subtract">
<mask id="mask2_outline_ins">
<use xlink:href="#path3_fill" fill="white" transform="translate(-66 -284)"/>
</mask>
<g mask="url(#mask2_outline_ins)">
<use xlink:href="#path4_stroke_2x" transform="translate(-66 -284)"/>
</g>
</g>
<g id="Subtract">
<use xlink:href="#path10_fill" transform="translate(37.0878 -284)" fill="#2F80ED"/>
<mask id="mask3_outline_ins">
<use xlink:href="#path10_fill" fill="white" transform="translate(37.0878 -284)"/>
</mask>
<g mask="url(#mask3_outline_ins)">
<use xlink:href="#path6_stroke_2x" transform="translate(37.0878 -284)"/>
</g>
</g>
<g id="b">
<use xlink:href="#path7_fill" transform="translate(96.3987 -228.01)" fill="#F2F2F2"/>
</g>
<g id="a">
<use xlink:href="#path8_fill" transform="translate(-30.6959 -226.6)"/>
</g>
</g>
<g id="Group">
<g id="Rectangle">
<use xlink:href="#path11_fill" transform="translate(187 -130)" fill="#FDD6D6"/>
</g>
<g id="a FULL OUTER JOIN b">
<use xlink:href="#path12_fill" transform="translate(190 -127)" fill="#D91D1D"/>
</g>
<g id="Intersect">
<use xlink:href="#path13_fill" transform="translate(257.608 -279.13)" fill="#2F80ED"/>
</g>
<g id="Subtract">
<use xlink:href="#path14_fill" transform="translate(187 -289)" fill="#2F80ED"/>
<mask id="mask4_outline_ins">
<use xlink:href="#path14_fill" fill="white" transform="translate(187 -289)"/>
</mask>
<g mask="url(#mask4_outline_ins)">
<use xlink:href="#path15_stroke_2x" transform="translate(187 -289)"/>
</g>
</g>
<g id="Subtract">
<use xlink:href="#path16_fill" transform="translate(290.088 -289)" fill="#2F80ED"/>
<mask id="mask5_outline_ins">
<use xlink:href="#path16_fill" fill="white" transform="translate(290.088 -289)"/>
</mask>
<g mask="url(#mask5_outline_ins)">
<use xlink:href="#path17_stroke_2x" transform="translate(290.088 -289)"/>
</g>
</g>
<g id="b">
<use xlink:href="#path7_fill" transform="translate(349.399 -233.01)" fill="#F2F2F2"/>
</g>
<g id="a">
<use xlink:href="#path8_fill" transform="translate(222.304 -231.6)" fill="#F2F2F2"/>
</g>
</g>
<g id="Group">
<g id="Rectangle">
<use xlink:href="#path18_fill" transform="translate(-298 -127)" fill="#FDD6D6"/>
</g>
<g id="a LEFT JOIN b">
<use xlink:href="#path19_fill" transform="translate(-289 -127)" fill="#D91D1D"/>
</g>
<g id="Intersect">
<use xlink:href="#path2_fill" transform="translate(-248.392 -274.13)" fill="#2F80ED"/>
</g>
<g id="Subtract">
<use xlink:href="#path20_fill" transform="translate(-319 -284)" fill="#2F80ED"/>
<mask id="mask6_outline_ins">
<use xlink:href="#path20_fill" fill="white" transform="translate(-319 -284)"/>
</mask>
<g mask="url(#mask6_outline_ins)">
<use xlink:href="#path4_stroke_2x" transform="translate(-319 -284)"/>
</g>
</g>
<g id="Subtract">
<mask id="mask7_outline_ins">
<use xlink:href="#path5_fill" fill="white" transform="translate(-215.912 -284)"/>
</mask>
<g mask="url(#mask7_outline_ins)">
<use xlink:href="#path6_stroke_2x" transform="translate(-215.912 -284)"/>
</g>
</g>
<g id="b">
<use xlink:href="#path7_fill" transform="translate(-156.601 -228.01)"/>
</g>
<g id="a">
<use xlink:href="#path8_fill" transform="translate(-283.696 -226.6)" fill="#F2F2F2"/>
</g>
</g>
</g>
</g>
<defs>
<path id="path0_fill" d="M 0 0L 164 0L 164 26L 0 26L 0 0Z"/>
<path id="path1_fill" d="M 1.098 15.516C 1.098 15.012 1.206 14.574 1.422 14.202C 1.638 13.818 1.98 13.494 2.448 13.23C 2.928 12.966 3.54 12.756 4.284 12.6C 5.028 12.432 5.928 12.318 6.984 12.258C 6.936 11.85 6.756 11.532 6.444 11.304C 6.144 11.076 5.688 10.962 5.076 10.962C 4.644 10.962 4.206 11.04 3.762 11.196C 3.33 11.34 2.862 11.538 2.358 11.79L 1.422 10.062C 2.034 9.714 2.688 9.426 3.384 9.198C 4.092 8.97 4.83 8.856 5.598 8.856C 6.846 8.856 7.83 9.186 8.55 9.846C 9.27 10.506 9.63 11.52 9.63 12.888L 9.63 18L 7.47 18L 7.272 16.992L 7.2 16.992C 6.744 17.34 6.246 17.634 5.706 17.874C 5.166 18.102 4.608 18.216 4.032 18.216C 3.576 18.216 3.168 18.144 2.808 18C 2.448 17.868 2.142 17.682 1.89 17.442C 1.638 17.19 1.44 16.902 1.296 16.578C 1.164 16.254 1.098 15.9 1.098 15.516ZM 3.636 15.318C 3.636 15.606 3.744 15.822 3.96 15.966C 4.188 16.098 4.494 16.164 4.878 16.164C 5.274 16.164 5.646 16.086 5.994 15.93C 6.342 15.762 6.672 15.558 6.984 15.318L 6.984 13.842C 6.324 13.878 5.778 13.938 5.346 14.022C 4.914 14.106 4.572 14.214 4.32 14.346C 4.068 14.466 3.888 14.61 3.78 14.778C 3.684 14.946 3.636 15.126 3.636 15.318ZM 22.9179 15.768L 25.6539 15.768L 25.6539 8.496L 22.9179 8.496L 22.9179 6.264L 31.0539 6.264L 31.0539 8.496L 28.3179 8.496L 28.3179 15.768L 31.0539 15.768L 31.0539 18L 22.9179 18L 22.9179 15.768ZM 33.5669 6.264L 36.2669 6.264L 38.7509 12.114L 39.7589 14.688L 39.8309 14.688C 39.7709 14.064 39.6929 13.368 39.5969 12.6C 39.5009 11.832 39.4529 11.106 39.4529 10.422L 39.4529 6.264L 41.9909 6.264L 41.9909 18L 39.2909 18L 36.8069 12.15L 35.7989 9.594L 35.7269 9.594C 35.7869 10.242 35.8649 10.938 35.9609 11.682C 36.0569 12.426 36.1049 13.146 36.1049 13.842L 36.1049 18L 33.5669 18L 33.5669 6.264ZM 44.3599 6.264L 47.0599 6.264L 49.5439 12.114L 50.5519 14.688L 50.6239 14.688C 50.5639 14.064 50.4859 13.368 50.3899 12.6C 50.2939 11.832 50.2459 11.106 50.2459 10.422L 50.2459 6.264L 52.7839 6.264L 52.7839 18L 50.0839 18L 47.5999 12.15L 46.5919 9.594L 46.5199 9.594C 46.5799 10.242 46.6579 10.938 46.7539 11.682C 46.8499 12.426 46.8979 13.146 46.8979 13.842L 46.8979 18L 44.3599 18L 44.3599 6.264ZM 55.6568 6.264L 63.3968 6.264L 63.3968 8.496L 58.3028 8.496L 58.3028 10.854L 62.6228 10.854L 62.6228 13.068L 58.3028 13.068L 58.3028 15.768L 63.5768 15.768L 63.5768 18L 55.6568 18L 55.6568 6.264ZM 68.6638 11.664L 69.9598 11.664C 71.3878 11.664 72.1018 11.082 72.1018 9.918C 72.1018 9.342 71.9218 8.94 71.5618 8.712C 71.2018 8.484 70.6678 8.37 69.9598 8.37L 68.6638 8.37L 68.6638 11.664ZM 72.2998 18L 70.0498 13.77L 68.6638 13.77L 68.6638 18L 66.0178 18L 66.0178 6.264L 70.1758 6.264C 70.7998 6.264 71.3818 6.324 71.9218 6.444C 72.4738 6.564 72.9538 6.768 73.3618 7.056C 73.7818 7.332 74.1118 7.704 74.3518 8.172C 74.5918 8.64 74.7118 9.222 74.7118 9.918C 74.7118 10.782 74.5198 11.496 74.1358 12.06C 73.7518 12.612 73.2478 13.026 72.6238 13.302L 75.2698 18L 72.2998 18ZM 88.9357 14.634C 89.6317 15.498 90.3757 15.93 91.1677 15.93C 91.7797 15.93 92.2358 15.78 92.5358 15.48C 92.8358 15.168 92.9857 14.604 92.9857 13.788L 92.9857 8.478L 88.3958 8.478L 88.3958 6.264L 95.6317 6.264L 95.6317 14.004C 95.6317 14.58 95.5538 15.126 95.3978 15.642C 95.2537 16.146 95.0078 16.59 94.6598 16.974C 94.3118 17.358 93.8558 17.664 93.2918 17.892C 92.7398 18.108 92.0618 18.216 91.2578 18.216C 90.9338 18.216 90.5978 18.18 90.2498 18.108C 89.9018 18.048 89.5597 17.94 89.2237 17.784C 88.8877 17.628 88.5637 17.43 88.2518 17.19C 87.9398 16.938 87.6577 16.632 87.4057 16.272L 88.9357 14.634ZM 102.537 18.216C 101.841 18.216 101.199 18.078 100.611 17.802C 100.035 17.514 99.5367 17.106 99.1167 16.578C 98.7087 16.05 98.3907 15.408 98.1627 14.652C 97.9347 13.896 97.8207 13.038 97.8207 12.078C 97.8207 11.118 97.9347 10.266 98.1627 9.522C 98.3907 8.766 98.7087 8.136 99.1167 7.632C 99.5367 7.116 100.035 6.726 100.611 6.462C 101.199 6.186 101.841 6.048 102.537 6.048C 103.233 6.048 103.869 6.186 104.445 6.462C 105.033 6.726 105.531 7.116 105.939 7.632C 106.359 8.148 106.683 8.784 106.911 9.54C 107.139 10.284 107.253 11.13 107.253 12.078C 107.253 13.038 107.139 13.896 106.911 14.652C 106.683 15.408 106.359 16.05 105.939 16.578C 105.531 17.106 105.033 17.514 104.445 17.802C 103.869 18.078 103.233 18.216 102.537 18.216ZM 102.537 15.93C 103.149 15.93 103.635 15.588 103.995 14.904C 104.355 14.208 104.535 13.266 104.535 12.078C 104.535 10.902 104.355 9.984 103.995 9.324C 103.635 8.664 103.149 8.334 102.537 8.334C 101.925 8.334 101.439 8.664 101.079 9.324C 100.719 9.984 100.539 10.902 100.539 12.078C 100.539 13.266 100.719 14.208 101.079 14.904C 101.439 15.588 101.925 15.93 102.537 15.93ZM 109.262 15.768L 111.998 15.768L 111.998 8.496L 109.262 8.496L 109.262 6.264L 117.398 6.264L 117.398 8.496L 114.662 8.496L 114.662 15.768L 117.398 15.768L 117.398 18L 109.262 18L 109.262 15.768ZM 119.911 6.264L 122.611 6.264L 125.095 12.114L 126.103 14.688L 126.175 14.688C 126.115 14.064 126.037 13.368 125.941 12.6C 125.845 11.832 125.797 11.106 125.797 10.422L 125.797 6.264L 128.335 6.264L 128.335 18L 125.635 18L 123.151 12.15L 122.143 9.594L 122.071 9.594C 122.131 10.242 122.209 10.938 122.305 11.682C 122.401 12.426 122.449 13.146 122.449 13.842L 122.449 18L 119.911 18L 119.911 6.264ZM 141.605 5.382L 144.251 5.382L 144.251 8.478L 144.179 9.882C 144.527 9.558 144.917 9.306 145.349 9.126C 145.793 8.946 146.231 8.856 146.663 8.856C 147.215 8.856 147.713 8.964 148.157 9.18C 148.613 9.396 148.991 9.702 149.291 10.098C 149.603 10.482 149.843 10.956 150.011 11.52C 150.179 12.072 150.263 12.69 150.263 13.374C 150.263 14.142 150.155 14.826 149.939 15.426C 149.723 16.026 149.435 16.536 149.075 16.956C 148.715 17.364 148.301 17.676 147.833 17.892C 147.377 18.108 146.897 18.216 146.393 18.216C 145.973 18.216 145.553 18.114 145.133 17.91C 144.725 17.706 144.335 17.412 143.963 17.028L 143.891 17.028L 143.675 18L 141.605 18L 141.605 5.382ZM 144.251 15.462C 144.503 15.678 144.761 15.834 145.025 15.93C 145.301 16.014 145.559 16.056 145.799 16.056C 146.291 16.056 146.705 15.852 147.041 15.444C 147.377 15.024 147.545 14.352 147.545 13.428C 147.545 11.82 146.999 11.016 145.907 11.016C 145.343 11.016 144.791 11.292 144.251 11.844L 144.251 15.462Z"/>
<path id="path2_fill" fill-rule="evenodd" d="M 33.8919 122.67C 54.1525 110.427 67.7838 87.5439 67.7838 61.335C 67.7838 35.1261 54.1525 12.243 33.8919 0C 13.6313 12.243 0 35.1261 0 61.335C 0 87.5439 13.6313 110.427 33.8919 122.67Z"/>
<path id="path3_fill" fill-rule="evenodd" d="M 105.912 9.43164C 84.8073 21.6214 70.6081 44.405 70.6081 70.5C 70.6081 96.595 84.8073 119.379 105.912 131.568C 95.5266 137.567 83.4689 141 70.6081 141C 31.6123 141 0 109.436 0 70.5C 0 31.5639 31.6123 0 70.6081 0C 83.4689 0 95.5266 3.43314 105.912 9.43164Z"/>
<path id="path4_stroke_2x" d="M 105.912 9.43164L 106.912 11.1635L 109.911 9.43164L 106.912 7.69976L 105.912 9.43164ZM 105.912 131.568L 106.912 133.3L 109.911 131.568L 106.912 129.836L 105.912 131.568ZM 72.6081 70.5C 72.6081 45.1493 86.3999 23.0112 106.912 11.1635L 104.912 7.69976C 83.2147 20.2317 68.6081 43.6607 68.6081 70.5L 72.6081 70.5ZM 106.912 129.836C 86.3999 117.989 72.6081 95.8507 72.6081 70.5L 68.6081 70.5C 68.6081 97.3393 83.2147 120.768 104.912 133.3L 106.912 129.836ZM 104.912 129.836C 94.7467 135.725 83.1924 139.019 70.6081 139L 70.6081 143C 83.7454 142.981 96.3065 139.409 106.912 133.3L 104.912 129.836ZM 70.6081 139C 32.714 139 2 108.329 2 70.5L -2 70.5C -2 110.544 30.5107 143 70.6081 143L 70.6081 139ZM 2 70.5C 2 32.6714 32.714 2 70.6081 2L 70.6081 -2C 30.5107 -2 -2 30.4565 -2 70.5L 2 70.5ZM 70.6081 2C 83.1924 1.9808 94.7467 5.27481 104.912 11.1635L 106.912 7.69976C 96.3065 1.59147 83.7454 -1.9808 70.6081 -2L 70.6081 2Z"/>
<path id="path5_fill" fill-rule="evenodd" d="M 0 131.568C 21.1048 119.379 35.304 96.595 35.304 70.5C 35.304 44.405 21.1048 21.6214 0 9.43164C 10.3855 3.43314 22.4433 0 35.3041 0C 74.2999 0 105.912 31.5639 105.912 70.5C 105.912 109.436 74.2999 141 35.3041 141C 22.4433 141 10.3855 137.567 0 131.568Z"/>
<path id="path6_stroke_2x" d="M 0 131.568L -1.0003 129.836L -3.99879 131.568L -1.0003 133.3L 0 131.568ZM 0 9.43164L -1.0003 7.69977L -3.99879 9.43164L -1.0003 11.1635L 0 9.43164ZM 33.304 70.5C 33.304 95.8507 19.5122 117.989 -1.0003 129.836L 1.0003 133.3C 22.6974 120.768 37.304 97.3393 37.304 70.5L 33.304 70.5ZM -1.0003 11.1635C 19.5122 23.0112 33.304 45.1493 33.304 70.5L 37.304 70.5C 37.304 43.6607 22.6974 20.2317 1.0003 7.69976L -1.0003 11.1635ZM 1.0003 11.1635C 11.1654 5.27481 22.7197 1.9808 35.3041 2L 35.3041 -2C 22.1668 -1.9808 9.60561 1.59147 -1.0003 7.69977L 1.0003 11.1635ZM 35.3041 2C 73.1982 2 103.912 32.6714 103.912 70.5L 107.912 70.5C 107.912 30.4565 75.4015 -2 35.3041 -2L 35.3041 2ZM 103.912 70.5C 103.912 108.329 73.1982 139 35.3041 139L 35.3041 143C 75.4015 143 107.912 110.544 107.912 70.5L 103.912 70.5ZM 35.3041 139C 22.7197 139.019 11.1654 135.725 1.0003 129.836L -1.0003 133.3C 9.60561 139.409 22.1668 142.981 35.3041 143L 35.3041 139Z"/>
<path id="path7_fill" d="M 12.7266 15.7773C 12.7266 17.8086 12.293 19.3945 11.4258 20.5352C 10.5586 21.668 9.34766 22.2344 7.79297 22.2344C 6.41797 22.2344 5.32031 21.707 4.5 20.6523L 4.34766 22L 1.30078 22L 1.30078 4L 4.6875 4L 4.6875 10.457C 5.46875 9.54297 6.49609 9.08594 7.76953 9.08594C 9.31641 9.08594 10.5273 9.65625 11.4023 10.7969C 12.2852 11.9297 12.7266 13.5273 12.7266 15.5898L 12.7266 15.7773ZM 9.33984 15.5312C 9.33984 14.25 9.13672 13.3164 8.73047 12.7305C 8.32422 12.1367 7.71875 11.8398 6.91406 11.8398C 5.83594 11.8398 5.09375 12.2812 4.6875 13.1641L 4.6875 18.168C 5.10156 19.0586 5.85156 19.5039 6.9375 19.5039C 8.03125 19.5039 8.75 18.9648 9.09375 17.8867C 9.25781 17.3711 9.33984 16.5859 9.33984 15.5312Z"/>
<path id="path8_fill" d="M 8.64844 22C 8.49219 21.6953 8.37891 21.3164 8.30859 20.8633C 7.48828 21.7773 6.42188 22.2344 5.10938 22.2344C 3.86719 22.2344 2.83594 21.875 2.01562 21.1562C 1.20312 20.4375 0.796875 19.5312 0.796875 18.4375C 0.796875 17.0938 1.29297 16.0625 2.28516 15.3438C 3.28516 14.625 4.72656 14.2617 6.60938 14.2539L 8.16797 14.2539L 8.16797 13.5273C 8.16797 12.9414 8.01562 12.4727 7.71094 12.1211C 7.41406 11.7695 6.94141 11.5938 6.29297 11.5938C 5.72266 11.5938 5.27344 11.7305 4.94531 12.0039C 4.625 12.2773 4.46484 12.6523 4.46484 13.1289L 1.07812 13.1289C 1.07812 12.3945 1.30469 11.7148 1.75781 11.0898C 2.21094 10.4648 2.85156 9.97656 3.67969 9.625C 4.50781 9.26562 5.4375 9.08594 6.46875 9.08594C 8.03125 9.08594 9.26953 9.48047 10.1836 10.2695C 11.1055 11.0508 11.5664 12.1523 11.5664 13.5742L 11.5664 19.0703C 11.5742 20.2734 11.7422 21.1836 12.0703 21.8008L 12.0703 22L 8.64844 22ZM 5.84766 19.6445C 6.34766 19.6445 6.80859 19.5352 7.23047 19.3164C 7.65234 19.0898 7.96484 18.7891 8.16797 18.4141L 8.16797 16.2344L 6.90234 16.2344C 5.20703 16.2344 4.30469 16.8203 4.19531 17.9922L 4.18359 18.1914C 4.18359 18.6133 4.33203 18.9609 4.62891 19.2344C 4.92578 19.5078 5.33203 19.6445 5.84766 19.6445Z"/>
<path id="path9_fill" d="M 1.098 15.516C 1.098 15.012 1.206 14.574 1.422 14.202C 1.638 13.818 1.98 13.494 2.448 13.23C 2.928 12.966 3.54 12.756 4.284 12.6C 5.028 12.432 5.928 12.318 6.984 12.258C 6.936 11.85 6.756 11.532 6.444 11.304C 6.144 11.076 5.688 10.962 5.076 10.962C 4.644 10.962 4.206 11.04 3.762 11.196C 3.33 11.34 2.862 11.538 2.358 11.79L 1.422 10.062C 2.034 9.714 2.688 9.426 3.384 9.198C 4.092 8.97 4.83 8.856 5.598 8.856C 6.846 8.856 7.83 9.186 8.55 9.846C 9.27 10.506 9.63 11.52 9.63 12.888L 9.63 18L 7.47 18L 7.272 16.992L 7.2 16.992C 6.744 17.34 6.246 17.634 5.706 17.874C 5.166 18.102 4.608 18.216 4.032 18.216C 3.576 18.216 3.168 18.144 2.808 18C 2.448 17.868 2.142 17.682 1.89 17.442C 1.638 17.19 1.44 16.902 1.296 16.578C 1.164 16.254 1.098 15.9 1.098 15.516ZM 3.636 15.318C 3.636 15.606 3.744 15.822 3.96 15.966C 4.188 16.098 4.494 16.164 4.878 16.164C 5.274 16.164 5.646 16.086 5.994 15.93C 6.342 15.762 6.672 15.558 6.984 15.318L 6.984 13.842C 6.324 13.878 5.778 13.938 5.346 14.022C 4.914 14.106 4.572 14.214 4.32 14.346C 4.068 14.466 3.888 14.61 3.78 14.778C 3.684 14.946 3.636 15.126 3.636 15.318ZM 25.4919 11.664L 26.7879 11.664C 28.2159 11.664 28.9299 11.082 28.9299 9.918C 28.9299 9.342 28.7499 8.94 28.3899 8.712C 28.0299 8.484 27.4959 8.37 26.7879 8.37L 25.4919 8.37L 25.4919 11.664ZM 29.1279 18L 26.8779 13.77L 25.4919 13.77L 25.4919 18L 22.8459 18L 22.8459 6.264L 27.0039 6.264C 27.6279 6.264 28.2099 6.324 28.7499 6.444C 29.3019 6.564 29.7819 6.768 30.1899 7.056C 30.6099 7.332 30.9399 7.704 31.1799 8.172C 31.4199 8.64 31.5399 9.222 31.5399 9.918C 31.5399 10.782 31.3479 11.496 30.9639 12.06C 30.5799 12.612 30.0759 13.026 29.4519 13.302L 32.0979 18L 29.1279 18ZM 33.7109 15.768L 36.4469 15.768L 36.4469 8.496L 33.7109 8.496L 33.7109 6.264L 41.8469 6.264L 41.8469 8.496L 39.1109 8.496L 39.1109 15.768L 41.8469 15.768L 41.8469 18L 33.7109 18L 33.7109 15.768ZM 43.9639 12.204C 43.9639 11.22 44.1019 10.35 44.3779 9.594C 44.6659 8.826 45.0499 8.184 45.5299 7.668C 46.0219 7.14 46.5979 6.738 47.2579 6.462C 47.9179 6.186 48.6259 6.048 49.3819 6.048C 50.1739 6.048 50.8459 6.204 51.3979 6.516C 51.9619 6.816 52.4359 7.158 52.8199 7.542L 51.3619 9.18C 51.1099 8.928 50.8339 8.724 50.5339 8.568C 50.2339 8.412 49.8499 8.334 49.3819 8.334C 48.9979 8.334 48.6439 8.424 48.3199 8.604C 47.9959 8.772 47.7139 9.018 47.4739 9.342C 47.2339 9.666 47.0419 10.062 46.8979 10.53C 46.7659 10.998 46.6999 11.526 46.6999 12.114C 46.6999 13.326 46.9279 14.268 47.3839 14.94C 47.8519 15.6 48.5539 15.93 49.4899 15.93C 49.7179 15.93 49.9339 15.9 50.1379 15.84C 50.3419 15.78 50.5099 15.69 50.6419 15.57L 50.6419 13.554L 48.9319 13.554L 48.9319 11.394L 53.0179 11.394L 53.0179 16.794C 52.6219 17.166 52.0999 17.496 51.4519 17.784C 50.8039 18.072 50.1019 18.216 49.3459 18.216C 48.5899 18.216 47.8819 18.09 47.2219 17.838C 46.5739 17.574 46.0039 17.19 45.5119 16.686C 45.0319 16.182 44.6539 15.558 44.3779 14.814C 44.1019 14.058 43.9639 13.188 43.9639 12.204ZM 55.1168 6.264L 57.7628 6.264L 57.7628 10.782L 60.9668 10.782L 60.9668 6.264L 63.6128 6.264L 63.6128 18L 60.9668 18L 60.9668 13.104L 57.7628 13.104L 57.7628 18L 55.1168 18L 55.1168 6.264ZM 68.8258 8.496L 65.3158 8.496L 65.3158 6.264L 74.9998 6.264L 74.9998 8.496L 71.4898 8.496L 71.4898 18L 68.8258 18L 68.8258 8.496ZM 88.9357 14.634C 89.6317 15.498 90.3757 15.93 91.1677 15.93C 91.7797 15.93 92.2358 15.78 92.5358 15.48C 92.8358 15.168 92.9857 14.604 92.9857 13.788L 92.9857 8.478L 88.3958 8.478L 88.3958 6.264L 95.6317 6.264L 95.6317 14.004C 95.6317 14.58 95.5538 15.126 95.3978 15.642C 95.2537 16.146 95.0078 16.59 94.6598 16.974C 94.3118 17.358 93.8558 17.664 93.2918 17.892C 92.7398 18.108 92.0618 18.216 91.2578 18.216C 90.9338 18.216 90.5978 18.18 90.2498 18.108C 89.9018 18.048 89.5597 17.94 89.2237 17.784C 88.8877 17.628 88.5637 17.43 88.2518 17.19C 87.9398 16.938 87.6577 16.632 87.4057 16.272L 88.9357 14.634ZM 102.537 18.216C 101.841 18.216 101.199 18.078 100.611 17.802C 100.035 17.514 99.5367 17.106 99.1167 16.578C 98.7087 16.05 98.3907 15.408 98.1627 14.652C 97.9347 13.896 97.8207 13.038 97.8207 12.078C 97.8207 11.118 97.9347 10.266 98.1627 9.522C 98.3907 8.766 98.7087 8.136 99.1167 7.632C 99.5367 7.116 100.035 6.726 100.611 6.462C 101.199 6.186 101.841 6.048 102.537 6.048C 103.233 6.048 103.869 6.186 104.445 6.462C 105.033 6.726 105.531 7.116 105.939 7.632C 106.359 8.148 106.683 8.784 106.911 9.54C 107.139 10.284 107.253 11.13 107.253 12.078C 107.253 13.038 107.139 13.896 106.911 14.652C 106.683 15.408 106.359 16.05 105.939 16.578C 105.531 17.106 105.033 17.514 104.445 17.802C 103.869 18.078 103.233 18.216 102.537 18.216ZM 102.537 15.93C 103.149 15.93 103.635 15.588 103.995 14.904C 104.355 14.208 104.535 13.266 104.535 12.078C 104.535 10.902 104.355 9.984 103.995 9.324C 103.635 8.664 103.149 8.334 102.537 8.334C 101.925 8.334 101.439 8.664 101.079 9.324C 100.719 9.984 100.539 10.902 100.539 12.078C 100.539 13.266 100.719 14.208 101.079 14.904C 101.439 15.588 101.925 15.93 102.537 15.93ZM 109.262 15.768L 111.998 15.768L 111.998 8.496L 109.262 8.496L 109.262 6.264L 117.398 6.264L 117.398 8.496L 114.662 8.496L 114.662 15.768L 117.398 15.768L 117.398 18L 109.262 18L 109.262 15.768ZM 119.911 6.264L 122.611 6.264L 125.095 12.114L 126.103 14.688L 126.175 14.688C 126.115 14.064 126.037 13.368 125.941 12.6C 125.845 11.832 125.797 11.106 125.797 10.422L 125.797 6.264L 128.335 6.264L 128.335 18L 125.635 18L 123.151 12.15L 122.143 9.594L 122.071 9.594C 122.131 10.242 122.209 10.938 122.305 11.682C 122.401 12.426 122.449 13.146 122.449 13.842L 122.449 18L 119.911 18L 119.911 6.264ZM 141.605 5.382L 144.251 5.382L 144.251 8.478L 144.179 9.882C 144.527 9.558 144.917 9.306 145.349 9.126C 145.793 8.946 146.231 8.856 146.663 8.856C 147.215 8.856 147.713 8.964 148.157 9.18C 148.613 9.396 148.991 9.702 149.291 10.098C 149.603 10.482 149.843 10.956 150.011 11.52C 150.179 12.072 150.263 12.69 150.263 13.374C 150.263 14.142 150.155 14.826 149.939 15.426C 149.723 16.026 149.435 16.536 149.075 16.956C 148.715 17.364 148.301 17.676 147.833 17.892C 147.377 18.108 146.897 18.216 146.393 18.216C 145.973 18.216 145.553 18.114 145.133 17.91C 144.725 17.706 144.335 17.412 143.963 17.028L 143.891 17.028L 143.675 18L 141.605 18L 141.605 5.382ZM 144.251 15.462C 144.503 15.678 144.761 15.834 145.025 15.93C 145.301 16.014 145.559 16.056 145.799 16.056C 146.291 16.056 146.705 15.852 147.041 15.444C 147.377 15.024 147.545 14.352 147.545 13.428C 147.545 11.82 146.999 11.016 145.907 11.016C 145.343 11.016 144.791 11.292 144.251 11.844L 144.251 15.462Z"/>
<path id="path10_fill" fill-rule="evenodd" d="M 1.52588e-05 131.568C 21.1048 119.379 35.3041 96.595 35.3041 70.5C 35.3041 44.4051 21.1048 21.6214 1.52588e-05 9.43164C 10.3855 3.43314 22.4433 0 35.3041 0C 74.2998 0 105.912 31.5639 105.912 70.5C 105.912 109.436 74.2998 141 35.3041 141C 22.4433 141 10.3855 137.567 1.52588e-05 131.568Z"/>
<path id="path11_fill" d="M 0 0L 212 0L 212 26L 0 26L 0 0Z"/>
<path id="path12_fill" d="M 1.098 15.516C 1.098 15.012 1.206 14.574 1.422 14.202C 1.638 13.818 1.98 13.494 2.448 13.23C 2.928 12.966 3.54 12.756 4.284 12.6C 5.028 12.432 5.928 12.318 6.984 12.258C 6.936 11.85 6.756 11.532 6.444 11.304C 6.144 11.076 5.688 10.962 5.076 10.962C 4.644 10.962 4.206 11.04 3.762 11.196C 3.33 11.34 2.862 11.538 2.358 11.79L 1.422 10.062C 2.034 9.714 2.688 9.426 3.384 9.198C 4.092 8.97 4.83 8.856 5.598 8.856C 6.846 8.856 7.83 9.186 8.55 9.846C 9.27 10.506 9.63 11.52 9.63 12.888L 9.63 18L 7.47 18L 7.272 16.992L 7.2 16.992C 6.744 17.34 6.246 17.634 5.706 17.874C 5.166 18.102 4.608 18.216 4.032 18.216C 3.576 18.216 3.168 18.144 2.808 18C 2.448 17.868 2.142 17.682 1.89 17.442C 1.638 17.19 1.44 16.902 1.296 16.578C 1.164 16.254 1.098 15.9 1.098 15.516ZM 3.636 15.318C 3.636 15.606 3.744 15.822 3.96 15.966C 4.188 16.098 4.494 16.164 4.878 16.164C 5.274 16.164 5.646 16.086 5.994 15.93C 6.342 15.762 6.672 15.558 6.984 15.318L 6.984 13.842C 6.324 13.878 5.778 13.938 5.346 14.022C 4.914 14.106 4.572 14.214 4.32 14.346C 4.068 14.466 3.888 14.61 3.78 14.778C 3.684 14.946 3.636 15.126 3.636 15.318ZM 23.5299 6.264L 31.2699 6.264L 31.2699 8.496L 26.1759 8.496L 26.1759 11.214L 30.5139 11.214L 30.5139 13.446L 26.1759 13.446L 26.1759 18L 23.5299 18L 23.5299 6.264ZM 33.5309 6.264L 36.1769 6.264L 36.1769 13.752C 36.1769 14.46 36.3089 15 36.5729 15.372C 36.8369 15.744 37.2509 15.93 37.8149 15.93C 38.3789 15.93 38.7929 15.744 39.0569 15.372C 39.3329 15 39.4709 14.46 39.4709 13.752L 39.4709 6.264L 42.0269 6.264L 42.0269 13.482C 42.0269 15.018 41.6789 16.194 40.9829 17.01C 40.2989 17.814 39.2429 18.216 37.8149 18.216C 36.3749 18.216 35.3009 17.814 34.5929 17.01C 33.8849 16.194 33.5309 15.018 33.5309 13.482L 33.5309 6.264ZM 45.0979 6.264L 47.7439 6.264L 47.7439 15.768L 52.9639 15.768L 52.9639 18L 45.0979 18L 45.0979 6.264ZM 55.8908 6.264L 58.5368 6.264L 58.5368 15.768L 63.7568 15.768L 63.7568 18L 55.8908 18L 55.8908 6.264ZM 80.9508 18.216C 80.2548 18.216 79.6128 18.078 79.0248 17.802C 78.4488 17.514 77.9508 17.106 77.5308 16.578C 77.1228 16.05 76.8048 15.408 76.5768 14.652C 76.3488 13.896 76.2348 13.038 76.2348 12.078C 76.2348 11.118 76.3488 10.266 76.5768 9.522C 76.8048 8.766 77.1228 8.136 77.5308 7.632C 77.9508 7.116 78.4488 6.726 79.0248 6.462C 79.6128 6.186 80.2548 6.048 80.9508 6.048C 81.6468 6.048 82.2828 6.186 82.8588 6.462C 83.4468 6.726 83.9448 7.116 84.3528 7.632C 84.7728 8.148 85.0968 8.784 85.3248 9.54C 85.5528 10.284 85.6668 11.13 85.6668 12.078C 85.6668 13.038 85.5528 13.896 85.3248 14.652C 85.0968 15.408 84.7728 16.05 84.3528 16.578C 83.9448 17.106 83.4468 17.514 82.8588 17.802C 82.2828 18.078 81.6468 18.216 80.9508 18.216ZM 80.9508 15.93C 81.5628 15.93 82.0488 15.588 82.4088 14.904C 82.7688 14.208 82.9488 13.266 82.9488 12.078C 82.9488 10.902 82.7688 9.984 82.4088 9.324C 82.0488 8.664 81.5628 8.334 80.9508 8.334C 80.3388 8.334 79.8528 8.664 79.4928 9.324C 79.1328 9.984 78.9528 10.902 78.9528 12.078C 78.9528 13.266 79.1328 14.208 79.4928 14.904C 79.8528 15.588 80.3388 15.93 80.9508 15.93ZM 87.4958 6.264L 90.1418 6.264L 90.1418 13.752C 90.1418 14.46 90.2738 15 90.5378 15.372C 90.8017 15.744 91.2158 15.93 91.7798 15.93C 92.3438 15.93 92.7578 15.744 93.0217 15.372C 93.2977 15 93.4357 14.46 93.4357 13.752L 93.4357 6.264L 95.9917 6.264L 95.9917 13.482C 95.9917 15.018 95.6437 16.194 94.9477 17.01C 94.2638 17.814 93.2078 18.216 91.7798 18.216C 90.3398 18.216 89.2657 17.814 88.5577 17.01C 87.8498 16.194 87.4958 15.018 87.4958 13.482L 87.4958 6.264ZM 101.205 8.496L 97.6947 8.496L 97.6947 6.264L 107.379 6.264L 107.379 8.496L 103.869 8.496L 103.869 18L 101.205 18L 101.205 8.496ZM 109.622 6.264L 117.362 6.264L 117.362 8.496L 112.268 8.496L 112.268 10.854L 116.588 10.854L 116.588 13.068L 112.268 13.068L 112.268 15.768L 117.542 15.768L 117.542 18L 109.622 18L 109.622 6.264ZM 122.629 11.664L 123.925 11.664C 125.353 11.664 126.067 11.082 126.067 9.918C 126.067 9.342 125.887 8.94 125.527 8.712C 125.167 8.484 124.633 8.37 123.925 8.37L 122.629 8.37L 122.629 11.664ZM 126.265 18L 124.015 13.77L 122.629 13.77L 122.629 18L 119.983 18L 119.983 6.264L 124.141 6.264C 124.765 6.264 125.347 6.324 125.887 6.444C 126.439 6.564 126.919 6.768 127.327 7.056C 127.747 7.332 128.077 7.704 128.317 8.172C 128.557 8.64 128.677 9.222 128.677 9.918C 128.677 10.782 128.485 11.496 128.101 12.06C 127.717 12.612 127.213 13.026 126.589 13.302L 129.235 18L 126.265 18ZM 142.901 14.634C 143.597 15.498 144.341 15.93 145.133 15.93C 145.745 15.93 146.201 15.78 146.501 15.48C 146.801 15.168 146.951 14.604 146.951 13.788L 146.951 8.478L 142.361 8.478L 142.361 6.264L 149.597 6.264L 149.597 14.004C 149.597 14.58 149.519 15.126 149.363 15.642C 149.219 16.146 148.973 16.59 148.625 16.974C 148.277 17.358 147.821 17.664 147.257 17.892C 146.705 18.108 146.027 18.216 145.223 18.216C 144.899 18.216 144.563 18.18 144.215 18.108C 143.867 18.048 143.525 17.94 143.189 17.784C 142.853 17.628 142.529 17.43 142.217 17.19C 141.905 16.938 141.623 16.632 141.371 16.272L 142.901 14.634ZM 156.502 18.216C 155.806 18.216 155.164 18.078 154.576 17.802C 154 17.514 153.502 17.106 153.082 16.578C 152.674 16.05 152.356 15.408 152.128 14.652C 151.9 13.896 151.786 13.038 151.786 12.078C 151.786 11.118 151.9 10.266 152.128 9.522C 152.356 8.766 152.674 8.136 153.082 7.632C 153.502 7.116 154 6.726 154.576 6.462C 155.164 6.186 155.806 6.048 156.502 6.048C 157.198 6.048 157.834 6.186 158.41 6.462C 158.998 6.726 159.496 7.116 159.904 7.632C 160.324 8.148 160.648 8.784 160.876 9.54C 161.104 10.284 161.218 11.13 161.218 12.078C 161.218 13.038 161.104 13.896 160.876 14.652C 160.648 15.408 160.324 16.05 159.904 16.578C 159.496 17.106 158.998 17.514 158.41 17.802C 157.834 18.078 157.198 18.216 156.502 18.216ZM 156.502 15.93C 157.114 15.93 157.6 15.588 157.96 14.904C 158.32 14.208 158.5 13.266 158.5 12.078C 158.5 10.902 158.32 9.984 157.96 9.324C 157.6 8.664 157.114 8.334 156.502 8.334C 155.89 8.334 155.404 8.664 155.044 9.324C 154.684 9.984 154.504 10.902 154.504 12.078C 154.504 13.266 154.684 14.208 155.044 14.904C 155.404 15.588 155.89 15.93 156.502 15.93ZM 163.227 15.768L 165.963 15.768L 165.963 8.496L 163.227 8.496L 163.227 6.264L 171.363 6.264L 171.363 8.496L 168.627 8.496L 168.627 15.768L 171.363 15.768L 171.363 18L 163.227 18L 163.227 15.768ZM 173.875 6.264L 176.576 6.264L 179.06 12.114L 180.067 14.688L 180.139 14.688C 180.079 14.064 180.001 13.368 179.905 12.6C 179.809 11.832 179.762 11.106 179.762 10.422L 179.762 6.264L 182.299 6.264L 182.299 18L 179.6 18L 177.115 12.15L 176.107 9.594L 176.036 9.594C 176.096 10.242 176.173 10.938 176.269 11.682C 176.365 12.426 176.413 13.146 176.413 13.842L 176.413 18L 173.875 18L 173.875 6.264ZM 195.569 5.382L 198.215 5.382L 198.215 8.478L 198.143 9.882C 198.491 9.558 198.881 9.306 199.313 9.126C 199.757 8.946 200.195 8.856 200.627 8.856C 201.179 8.856 201.677 8.964 202.121 9.18C 202.577 9.396 202.955 9.702 203.255 10.098C 203.567 10.482 203.807 10.956 203.975 11.52C 204.143 12.072 204.227 12.69 204.227 13.374C 204.227 14.142 204.119 14.826 203.903 15.426C 203.687 16.026 203.399 16.536 203.039 16.956C 202.679 17.364 202.265 17.676 201.797 17.892C 201.341 18.108 200.861 18.216 200.357 18.216C 199.937 18.216 199.517 18.114 199.097 17.91C 198.689 17.706 198.299 17.412 197.927 17.028L 197.855 17.028L 197.639 18L 195.569 18L 195.569 5.382ZM 198.215 15.462C 198.467 15.678 198.725 15.834 198.989 15.93C 199.265 16.014 199.523 16.056 199.763 16.056C 200.255 16.056 200.669 15.852 201.005 15.444C 201.341 15.024 201.509 14.352 201.509 13.428C 201.509 11.82 200.963 11.016 199.871 11.016C 199.307 11.016 198.755 11.292 198.215 11.844L 198.215 15.462Z"/>
<path id="path13_fill" fill-rule="evenodd" d="M 33.8919 122.67C 54.1525 110.427 67.7838 87.5439 67.7838 61.335C 67.7838 35.1261 54.1525 12.243 33.8919 0C 13.6313 12.243 0 35.1261 0 61.335C 0 87.5439 13.6313 110.427 33.8919 122.67Z"/>
<path id="path14_fill" fill-rule="evenodd" d="M 105.912 9.43164C 84.8074 21.6214 70.6081 44.405 70.6081 70.5C 70.6081 96.595 84.8074 119.379 105.912 131.568C 95.5267 137.567 83.4689 141 70.6081 141C 31.6123 141 0 109.436 0 70.5C 0 31.5639 31.6123 0 70.6081 0C 83.4689 0 95.5267 3.43314 105.912 9.43164Z"/>
<path id="path15_stroke_2x" d="M 105.912 9.43164L 106.912 11.1635L 109.911 9.43164L 106.912 7.69977L 105.912 9.43164ZM 105.912 131.568L 106.912 133.3L 109.911 131.568L 106.912 129.836L 105.912 131.568ZM 72.6081 70.5C 72.6081 45.1494 86.4 23.0112 106.912 11.1635L 104.912 7.69976C 83.2148 20.2317 68.6081 43.6607 68.6081 70.5L 72.6081 70.5ZM 106.912 129.836C 86.4 117.989 72.6081 95.8507 72.6081 70.5L 68.6081 70.5C 68.6081 97.3393 83.2148 120.768 104.912 133.3L 106.912 129.836ZM 104.912 129.836C 94.7468 135.725 83.1924 139.019 70.6081 139L 70.6081 143C 83.7454 142.981 96.3066 139.409 106.912 133.3L 104.912 129.836ZM 70.6081 139C 32.714 139 2 108.329 2 70.5L -2 70.5C -2 110.544 30.5106 143 70.6081 143L 70.6081 139ZM 2 70.5C 2 32.6714 32.714 2 70.6081 2L 70.6081 -2C 30.5106 -2 -2 30.4565 -2 70.5L 2 70.5ZM 70.6081 2C 83.1924 1.9808 94.7468 5.27481 104.912 11.1635L 106.912 7.69977C 96.3066 1.59147 83.7454 -1.9808 70.6081 -2L 70.6081 2Z"/>
<path id="path16_fill" fill-rule="evenodd" d="M 0 131.568C 21.1048 119.379 35.304 96.595 35.304 70.5C 35.304 44.4051 21.1048 21.6215 0 9.43167C 10.3855 3.43317 22.4432 0 35.3041 0C 74.2999 0 105.912 31.5639 105.912 70.5C 105.912 109.436 74.2999 141 35.3041 141C 22.4432 141 10.3855 137.567 0 131.568Z"/>
<path id="path17_stroke_2x" d="M 0 131.568L -1.0003 129.836L -3.99879 131.568L -1.0003 133.3L 0 131.568ZM 0 9.43164L -1.0003 7.69977L -3.99879 9.43164L -1.0003 11.1635L 0 9.43164ZM 33.3041 70.5C 33.3041 95.8507 19.5122 117.989 -1.0003 129.836L 1.0003 133.3C 22.6974 120.768 37.3041 97.3393 37.3041 70.5L 33.3041 70.5ZM -1.0003 11.1635C 19.5122 23.0112 33.3041 45.1494 33.3041 70.5L 37.3041 70.5C 37.3041 43.6607 22.6974 20.2317 1.0003 7.69976L -1.0003 11.1635ZM 1.0003 11.1635C 11.1654 5.27481 22.7197 1.9808 35.3041 2L 35.3041 -2C 22.1668 -1.9808 9.60561 1.59147 -1.0003 7.69977L 1.0003 11.1635ZM 35.3041 2C 73.1981 2 103.912 32.6714 103.912 70.5L 107.912 70.5C 107.912 30.4565 75.4015 -2 35.3041 -2L 35.3041 2ZM 103.912 70.5C 103.912 108.329 73.1981 139 35.3041 139L 35.3041 143C 75.4015 143 107.912 110.544 107.912 70.5L 103.912 70.5ZM 35.3041 139C 22.7197 139.019 11.1654 135.725 1.0003 129.836L -1.0003 133.3C 9.60561 139.409 22.1668 142.981 35.3041 143L 35.3041 139Z"/>
<path id="path18_fill" d="M 0 0L 159 0L 159 26L 0 26L 0 0Z"/>
<path id="path19_fill" d="M 1.098 15.516C 1.098 15.012 1.206 14.574 1.422 14.202C 1.638 13.818 1.98 13.494 2.448 13.23C 2.928 12.966 3.54 12.756 4.284 12.6C 5.028 12.432 5.928 12.318 6.984 12.258C 6.936 11.85 6.756 11.532 6.444 11.304C 6.144 11.076 5.688 10.962 5.076 10.962C 4.644 10.962 4.206 11.04 3.762 11.196C 3.33 11.34 2.862 11.538 2.358 11.79L 1.422 10.062C 2.034 9.714 2.688 9.426 3.384 9.198C 4.092 8.97 4.83 8.856 5.598 8.856C 6.846 8.856 7.83 9.186 8.55 9.846C 9.27 10.506 9.63 11.52 9.63 12.888L 9.63 18L 7.47 18L 7.272 16.992L 7.2 16.992C 6.744 17.34 6.246 17.634 5.706 17.874C 5.166 18.102 4.608 18.216 4.032 18.216C 3.576 18.216 3.168 18.144 2.808 18C 2.448 17.868 2.142 17.682 1.89 17.442C 1.638 17.19 1.44 16.902 1.296 16.578C 1.164 16.254 1.098 15.9 1.098 15.516ZM 3.636 15.318C 3.636 15.606 3.744 15.822 3.96 15.966C 4.188 16.098 4.494 16.164 4.878 16.164C 5.274 16.164 5.646 16.086 5.994 15.93C 6.342 15.762 6.672 15.558 6.984 15.318L 6.984 13.842C 6.324 13.878 5.778 13.938 5.346 14.022C 4.914 14.106 4.572 14.214 4.32 14.346C 4.068 14.466 3.888 14.61 3.78 14.778C 3.684 14.946 3.636 15.126 3.636 15.318ZM 23.5119 6.264L 26.1579 6.264L 26.1579 15.768L 31.3779 15.768L 31.3779 18L 23.5119 18L 23.5119 6.264ZM 34.0709 6.264L 41.8109 6.264L 41.8109 8.496L 36.7169 8.496L 36.7169 10.854L 41.0369 10.854L 41.0369 13.068L 36.7169 13.068L 36.7169 15.768L 41.9909 15.768L 41.9909 18L 34.0709 18L 34.0709 6.264ZM 45.1159 6.264L 52.8559 6.264L 52.8559 8.496L 47.7619 8.496L 47.7619 11.214L 52.0999 11.214L 52.0999 13.446L 47.7619 13.446L 47.7619 18L 45.1159 18L 45.1159 6.264ZM 58.0328 8.496L 54.5228 8.496L 54.5228 6.264L 64.2068 6.264L 64.2068 8.496L 60.6968 8.496L 60.6968 18L 58.0328 18L 58.0328 8.496ZM 78.1428 14.634C 78.8388 15.498 79.5828 15.93 80.3748 15.93C 80.9868 15.93 81.4428 15.78 81.7428 15.48C 82.0428 15.168 82.1928 14.604 82.1928 13.788L 82.1928 8.478L 77.6028 8.478L 77.6028 6.264L 84.8388 6.264L 84.8388 14.004C 84.8388 14.58 84.7608 15.126 84.6048 15.642C 84.4608 16.146 84.2148 16.59 83.8668 16.974C 83.5188 17.358 83.0628 17.664 82.4988 17.892C 81.9468 18.108 81.2688 18.216 80.4648 18.216C 80.1408 18.216 79.8048 18.18 79.4568 18.108C 79.1088 18.048 78.7668 17.94 78.4308 17.784C 78.0948 17.628 77.7708 17.43 77.4588 17.19C 77.1468 16.938 76.8648 16.632 76.6128 16.272L 78.1428 14.634ZM 91.7438 18.216C 91.0478 18.216 90.4057 18.078 89.8178 17.802C 89.2418 17.514 88.7438 17.106 88.3238 16.578C 87.9158 16.05 87.5977 15.408 87.3697 14.652C 87.1418 13.896 87.0277 13.038 87.0277 12.078C 87.0277 11.118 87.1418 10.266 87.3697 9.522C 87.5977 8.766 87.9158 8.136 88.3238 7.632C 88.7438 7.116 89.2418 6.726 89.8178 6.462C 90.4057 6.186 91.0478 6.048 91.7438 6.048C 92.4398 6.048 93.0757 6.186 93.6518 6.462C 94.2398 6.726 94.7377 7.116 95.1457 7.632C 95.5657 8.148 95.8898 8.784 96.1178 9.54C 96.3457 10.284 96.4597 11.13 96.4597 12.078C 96.4597 13.038 96.3457 13.896 96.1178 14.652C 95.8898 15.408 95.5657 16.05 95.1457 16.578C 94.7377 17.106 94.2398 17.514 93.6518 17.802C 93.0757 18.078 92.4398 18.216 91.7438 18.216ZM 91.7438 15.93C 92.3558 15.93 92.8418 15.588 93.2018 14.904C 93.5618 14.208 93.7417 13.266 93.7417 12.078C 93.7417 10.902 93.5618 9.984 93.2018 9.324C 92.8418 8.664 92.3558 8.334 91.7438 8.334C 91.1318 8.334 90.6458 8.664 90.2858 9.324C 89.9258 9.984 89.7458 10.902 89.7458 12.078C 89.7458 13.266 89.9258 14.208 90.2858 14.904C 90.6458 15.588 91.1318 15.93 91.7438 15.93ZM 98.4687 15.768L 101.205 15.768L 101.205 8.496L 98.4687 8.496L 98.4687 6.264L 106.605 6.264L 106.605 8.496L 103.869 8.496L 103.869 15.768L 106.605 15.768L 106.605 18L 98.4687 18L 98.4687 15.768ZM 109.118 6.264L 111.818 6.264L 114.302 12.114L 115.31 14.688L 115.382 14.688C 115.322 14.064 115.244 13.368 115.148 12.6C 115.052 11.832 115.004 11.106 115.004 10.422L 115.004 6.264L 117.542 6.264L 117.542 18L 114.842 18L 112.358 12.15L 111.35 9.594L 111.278 9.594C 111.338 10.242 111.416 10.938 111.512 11.682C 111.608 12.426 111.656 13.146 111.656 13.842L 111.656 18L 109.118 18L 109.118 6.264ZM 130.812 5.382L 133.458 5.382L 133.458 8.478L 133.386 9.882C 133.734 9.558 134.124 9.306 134.556 9.126C 135 8.946 135.438 8.856 135.87 8.856C 136.422 8.856 136.92 8.964 137.364 9.18C 137.82 9.396 138.198 9.702 138.498 10.098C 138.81 10.482 139.05 10.956 139.218 11.52C 139.386 12.072 139.47 12.69 139.47 13.374C 139.47 14.142 139.362 14.826 139.146 15.426C 138.93 16.026 138.642 16.536 138.282 16.956C 137.922 17.364 137.508 17.676 137.04 17.892C 136.584 18.108 136.104 18.216 135.6 18.216C 135.18 18.216 134.76 18.114 134.34 17.91C 133.932 17.706 133.542 17.412 133.17 17.028L 133.098 17.028L 132.882 18L 130.812 18L 130.812 5.382ZM 133.458 15.462C 133.71 15.678 133.968 15.834 134.232 15.93C 134.508 16.014 134.766 16.056 135.006 16.056C 135.498 16.056 135.912 15.852 136.248 15.444C 136.584 15.024 136.752 14.352 136.752 13.428C 136.752 11.82 136.206 11.016 135.114 11.016C 134.55 11.016 133.998 11.292 133.458 11.844L 133.458 15.462Z"/>
<path id="path20_fill" fill-rule="evenodd" d="M 105.912 9.43164C 84.8074 21.6214 70.6081 44.4051 70.6081 70.5C 70.6081 96.595 84.8074 119.379 105.912 131.568C 95.5266 137.567 83.4689 141 70.6081 141C 31.6123 141 0 109.436 0 70.5C 0 31.5639 31.6123 0 70.6081 0C 83.4689 0 95.5266 3.43314 105.912 9.43164Z"/>
</defs>
</svg>
