<svg width="1384" height="464" viewBox="0 0 1384 464" version="1.1" xmlns="http://www.w3.org/2000/svg" xmlns:xlink="http://www.w3.org/1999/xlink">
<title>All</title>
<desc>Created using Figma</desc>
<g id="Canvas" transform="matrix(2 0 0 2 1166 -758)">
<clipPath id="clip-0" clip-rule="evenodd">
<path d="M -583 379L 109 379L 109 611L -583 611L -583 379Z" fill="#FFFFFF"/>
</clipPath>
<g id="All" clip-path="url(#clip-0)">
<path d="M -583 379L 109 379L 109 611L -583 611L -583 379Z" fill="#FFFFFF"/>
<g id="Group">
<g id="Rectangle">
<use xlink:href="#path0_fill" transform="translate(-73 559)" fill="#FDD6D6"/>
</g>
<g id="a EXCEPT b">
<use xlink:href="#path1_fill" transform="translate(-67 560)" fill="#D91D1D"/>
</g>
<g id="Subtract">
<use xlink:href="#path2_fill" transform="translate(-116 402)" fill="#2F80ED"/>
<mask id="mask0_outline_ins">
<use xlink:href="#path2_fill" fill="white" transform="translate(-116 402)"/>
</mask>
<g mask="url(#mask0_outline_ins)">
<use xlink:href="#path3_stroke_2x" transform="translate(-116 402)"/>
</g>
</g>
<g id="Subtract">
<mask id="mask1_outline_ins">
<use xlink:href="#path4_fill" fill="white" transform="translate(-12.9122 402)"/>
</mask>
<g mask="url(#mask1_outline_ins)">
<use xlink:href="#path5_stroke_2x" transform="translate(-12.9122 402)"/>
</g>
</g>
<g id="b">
<use xlink:href="#path6_fill" transform="translate(46.3987 457.99)"/>
</g>
<g id="a">
<use xlink:href="#path7_fill" transform="translate(-80.696 459.4)" fill="#F2F2F2"/>
</g>
</g>
<g id="Group">
<g id="Rectangle">
<use xlink:href="#path8_fill" transform="translate(-312 561)" fill="#FDD6D6"/>
</g>
<g id="a INTERSECT b">
<use xlink:href="#path9_fill" transform="translate(-307 563)" fill="#D91D1D"/>
</g>
<g id="Intersect">
<use xlink:href="#path10_fill" transform="translate(-270.392 411.87)" fill="#2F80ED"/>
</g>
<g id="Subtract">
<mask id="mask2_outline_ins">
<use xlink:href="#path11_fill" fill="white" transform="translate(-341 402)"/>
</mask>
<g mask="url(#mask2_outline_ins)">
<use xlink:href="#path12_stroke_2x" transform="translate(-341 402)"/>
</g>
</g>
<g id="Subtract">
<mask id="mask3_outline_ins">
<use xlink:href="#path4_fill" fill="white" transform="translate(-237.912 402)"/>
</mask>
<g mask="url(#mask3_outline_ins)">
<use xlink:href="#path5_stroke_2x" transform="translate(-237.912 402)"/>
</g>
</g>
<g id="b">
<use xlink:href="#path6_fill" transform="translate(-178.601 457.99)"/>
</g>
<g id="a">
<use xlink:href="#path7_fill" transform="translate(-305.696 459.4)"/>
</g>
</g>
<g id="Group">
<g id="Rectangle">
<use xlink:href="#path13_fill" transform="translate(-518 561)" fill="#FDD6D6"/>
</g>
<g id="a UNION b">
<use xlink:href="#path14_fill" transform="translate(-512 563)" fill="#D91D1D"/>
</g>
<g id="Intersect">
<use xlink:href="#path15_fill" transform="translate(-495.392 411.87)" fill="#2F80ED"/>
</g>
<g id="Subtract">
<use xlink:href="#path16_fill" transform="translate(-566 402)" fill="#2F80ED"/>
<mask id="mask4_outline_ins">
<use xlink:href="#path16_fill" fill="white" transform="translate(-566 402)"/>
</mask>
<g mask="url(#mask4_outline_ins)">
<use xlink:href="#path17_stroke_2x" transform="translate(-566 402)"/>
</g>
</g>
<g id="Subtract">
<use xlink:href="#path18_fill" transform="translate(-462.912 402)" fill="#2F80ED"/>
<mask id="mask5_outline_ins">
<use xlink:href="#path18_fill" fill="white" transform="translate(-462.912 402)"/>
</mask>
<g mask="url(#mask5_outline_ins)">
<use xlink:href="#path19_stroke_2x" transform="translate(-462.912 402)"/>
</g>
</g>
<g id="b">
<use xlink:href="#path6_fill" transform="translate(-403.601 457.99)" fill="#F2F2F2"/>
</g>
<g id="a">
<use xlink:href="#path7_fill" transform="translate(-530.696 459.4)" fill="#F2F2F2"/>
</g>
</g>
</g>
</g>
<defs>
<path id="path0_fill" d="M 0 0L 120 0L 120 26L 0 26L 0 0Z"/>
<path id="path1_fill" d="M 1.098 15.516C 1.098 15.012 1.206 14.574 1.422 14.202C 1.638 13.818 1.98 13.494 2.448 13.23C 2.928 12.966 3.54 12.756 4.284 12.6C 5.028 12.432 5.928 12.318 6.984 12.258C 6.936 11.85 6.756 11.532 6.444 11.304C 6.144 11.076 5.688 10.962 5.076 10.962C 4.644 10.962 4.206 11.04 3.762 11.196C 3.33 11.34 2.862 11.538 2.358 11.79L 1.422 10.062C 2.034 9.714 2.688 9.426 3.384 9.198C 4.092 8.97 4.83 8.856 5.598 8.856C 6.846 8.856 7.83 9.186 8.55 9.846C 9.27 10.506 9.63 11.52 9.63 12.888L 9.63 18L 7.47 18L 7.272 16.992L 7.2 16.992C 6.744 17.34 6.246 17.634 5.706 17.874C 5.166 18.102 4.608 18.216 4.032 18.216C 3.576 18.216 3.168 18.144 2.808 18C 2.448 17.868 2.142 17.682 1.89 17.442C 1.638 17.19 1.44 16.902 1.296 16.578C 1.164 16.254 1.098 15.9 1.098 15.516ZM 3.636 15.318C 3.636 15.606 3.744 15.822 3.96 15.966C 4.188 16.098 4.494 16.164 4.878 16.164C 5.274 16.164 5.646 16.086 5.994 15.93C 6.342 15.762 6.672 15.558 6.984 15.318L 6.984 13.842C 6.324 13.878 5.778 13.938 5.346 14.022C 4.914 14.106 4.572 14.214 4.32 14.346C 4.068 14.466 3.888 14.61 3.78 14.778C 3.684 14.946 3.636 15.126 3.636 15.318ZM 23.2779 6.264L 31.0179 6.264L 31.0179 8.496L 25.9239 8.496L 25.9239 10.854L 30.2439 10.854L 30.2439 13.068L 25.9239 13.068L 25.9239 15.768L 31.1979 15.768L 31.1979 18L 23.2779 18L 23.2779 6.264ZM 36.1229 11.97L 32.9009 6.264L 35.8709 6.264L 37.0049 8.478C 37.1369 8.754 37.2749 9.048 37.4189 9.36C 37.5629 9.66 37.7249 9.996 37.9049 10.368L 37.9769 10.368C 38.1209 9.996 38.2529 9.66 38.3729 9.36C 38.5049 9.048 38.6369 8.754 38.7689 8.478L 39.8129 6.264L 42.6569 6.264L 39.4349 12.096L 42.8549 18L 39.9029 18L 38.6249 15.606C 38.4569 15.294 38.3009 14.988 38.1569 14.688C 38.0129 14.376 37.8569 14.04 37.6889 13.68L 37.6169 13.68C 37.4729 14.04 37.3289 14.376 37.1849 14.688C 37.0409 14.988 36.8969 15.294 36.7529 15.606L 35.5289 18L 32.7029 18L 36.1229 11.97ZM 44.1619 12.204C 44.1619 11.232 44.3059 10.368 44.5939 9.612C 44.8819 8.844 45.2779 8.196 45.7819 7.668C 46.2859 7.14 46.8799 6.738 47.5639 6.462C 48.2479 6.186 48.9799 6.048 49.7599 6.048C 50.5159 6.048 51.1819 6.204 51.7579 6.516C 52.3459 6.816 52.8379 7.158 53.2339 7.542L 51.7759 9.18C 51.4999 8.928 51.1999 8.724 50.8759 8.568C 50.5519 8.412 50.1799 8.334 49.7599 8.334C 49.3399 8.334 48.9559 8.424 48.6079 8.604C 48.2599 8.772 47.9539 9.018 47.6899 9.342C 47.4379 9.666 47.2399 10.062 47.0959 10.53C 46.9519 10.998 46.8799 11.526 46.8799 12.114C 46.8799 13.326 47.1559 14.268 47.7079 14.94C 48.2599 15.6 48.9799 15.93 49.8679 15.93C 50.2879 15.93 50.6659 15.834 51.0019 15.642C 51.3499 15.45 51.6679 15.198 51.9559 14.886L 53.4139 16.488C 52.4299 17.64 51.1939 18.216 49.7059 18.216C 48.9499 18.216 48.2359 18.09 47.5639 17.838C 46.8919 17.574 46.3039 17.19 45.7999 16.686C 45.2959 16.182 44.8939 15.558 44.5939 14.814C 44.3059 14.058 44.1619 13.188 44.1619 12.204ZM 55.6568 6.264L 63.3968 6.264L 63.3968 8.496L 58.3028 8.496L 58.3028 10.854L 62.6228 10.854L 62.6228 13.068L 58.3028 13.068L 58.3028 15.768L 63.5768 15.768L 63.5768 18L 55.6568 18L 55.6568 6.264ZM 66.0898 6.264L 70.3738 6.264C 71.0098 6.264 71.6038 6.33 72.1558 6.462C 72.7198 6.582 73.2058 6.792 73.6138 7.092C 74.0338 7.38 74.3638 7.77 74.6038 8.262C 74.8438 8.742 74.9638 9.336 74.9638 10.044C 74.9638 10.728 74.8378 11.322 74.5858 11.826C 74.3458 12.33 74.0158 12.744 73.5958 13.068C 73.1758 13.392 72.6898 13.632 72.1378 13.788C 71.5858 13.944 70.9978 14.022 70.3738 14.022L 68.7358 14.022L 68.7358 18L 66.0898 18L 66.0898 6.264ZM 70.2118 11.916C 71.6398 11.916 72.3538 11.292 72.3538 10.044C 72.3538 9.432 72.1738 9 71.8138 8.748C 71.4538 8.496 70.9198 8.37 70.2118 8.37L 68.7358 8.37L 68.7358 11.916L 70.2118 11.916ZM 79.6188 8.496L 76.1088 8.496L 76.1088 6.264L 85.7928 6.264L 85.7928 8.496L 82.2828 8.496L 82.2828 18L 79.6188 18L 79.6188 8.496ZM 98.4327 5.382L 101.079 5.382L 101.079 8.478L 101.007 9.882C 101.355 9.558 101.745 9.306 102.177 9.126C 102.621 8.946 103.059 8.856 103.491 8.856C 104.043 8.856 104.541 8.964 104.985 9.18C 105.441 9.396 105.819 9.702 106.119 10.098C 106.431 10.482 106.671 10.956 106.839 11.52C 107.007 12.072 107.091 12.69 107.091 13.374C 107.091 14.142 106.983 14.826 106.767 15.426C 106.551 16.026 106.263 16.536 105.903 16.956C 105.543 17.364 105.129 17.676 104.661 17.892C 104.205 18.108 103.725 18.216 103.221 18.216C 102.801 18.216 102.381 18.114 101.961 17.91C 101.553 17.706 101.163 17.412 100.791 17.028L 100.719 17.028L 100.503 18L 98.4327 18L 98.4327 5.382ZM 101.079 15.462C 101.331 15.678 101.589 15.834 101.853 15.93C 102.129 16.014 102.387 16.056 102.627 16.056C 103.119 16.056 103.533 15.852 103.869 15.444C 104.205 15.024 104.373 14.352 104.373 13.428C 104.373 11.82 103.827 11.016 102.735 11.016C 102.171 11.016 101.619 11.292 101.079 11.844L 101.079 15.462Z"/>
<path id="path2_fill" fill-rule="evenodd" d="M 105.912 9.43164C 84.8074 21.6214 70.6081 44.405 70.6081 70.5C 70.6081 96.595 84.8074 119.379 105.912 131.568C 95.5267 137.567 83.4689 141 70.6081 141C 31.6123 141 0 109.436 0 70.5C 0 31.5639 31.6123 0 70.6081 0C 83.4689 0 95.5267 3.43314 105.912 9.43164Z"/>
<path id="path3_stroke_2x" d="M 105.912 9.43164L 106.912 11.1635L 109.911 9.43164L 106.912 7.69977L 105.912 9.43164ZM 105.912 131.568L 106.912 133.3L 109.911 131.568L 106.912 129.836L 105.912 131.568ZM 72.6081 70.5C 72.6081 45.1494 86.4 23.0112 106.912 11.1635L 104.912 7.69976C 83.2148 20.2317 68.6081 43.6607 68.6081 70.5L 72.6081 70.5ZM 106.912 129.836C 86.4 117.989 72.6081 95.8506 72.6081 70.5L 68.6081 70.5C 68.6081 97.3393 83.2148 120.768 104.912 133.3L 106.912 129.836ZM 104.912 129.836C 94.7468 135.725 83.1924 139.019 70.6081 139L 70.6081 143C 83.7454 142.981 96.3066 139.409 106.912 133.3L 104.912 129.836ZM 70.6081 139C 32.714 139 2 108.329 2 70.5L -2 70.5C -2 110.544 30.5106 143 70.6081 143L 70.6081 139ZM 2 70.5C 2 32.6714 32.714 2 70.6081 2L 70.6081 -2C 30.5106 -2 -2 30.4565 -2 70.5L 2 70.5ZM 70.6081 2C 83.1924 1.9808 94.7468 5.27481 104.912 11.1635L 106.912 7.69977C 96.3066 1.59147 83.7454 -1.9808 70.6081 -2L 70.6081 2Z"/>
<path id="path4_fill" fill-rule="evenodd" d="M 0 131.568C 21.1048 119.379 35.304 96.5949 35.304 70.5C 35.304 44.4051 21.1048 21.6215 0 9.43167C 10.3855 3.43317 22.4432 0 35.3041 0C 74.2999 0 105.912 31.5639 105.912 70.5C 105.912 109.436 74.2999 141 35.3041 141C 22.4432 141 10.3855 137.567 0 131.568Z"/>
<path id="path5_stroke_2x" d="M 0 131.568L -1.0003 129.836L -3.99878 131.568L -1.0003 133.3L 0 131.568ZM 0 9.43167L -1.0003 7.6998L -3.99878 9.43167L -1.0003 11.1635L 0 9.43167ZM 33.304 70.5C 33.304 95.8506 19.5122 117.989 -1.0003 129.836L 1.0003 133.3C 22.6974 120.768 37.304 97.3392 37.304 70.5L 33.304 70.5ZM -1.0003 11.1635C 19.5122 23.0112 33.304 45.1494 33.304 70.5L 37.304 70.5C 37.304 43.6608 22.6974 20.2317 1.0003 7.6998L -1.0003 11.1635ZM 1.0003 11.1635C 11.1654 5.27484 22.7197 1.98079 35.3041 2L 35.3041 -2C 22.1667 -1.98079 9.60559 1.5915 -1.0003 7.6998L 1.0003 11.1635ZM 35.3041 2C 73.1982 2 103.912 32.6714 103.912 70.5L 107.912 70.5C 107.912 30.4565 75.4015 -2 35.3041 -2L 35.3041 2ZM 103.912 70.5C 103.912 108.329 73.1982 139 35.3041 139L 35.3041 143C 75.4015 143 107.912 110.544 107.912 70.5L 103.912 70.5ZM 35.3041 139C 22.7197 139.019 11.1654 135.725 1.0003 129.836L -1.0003 133.3C 9.60559 139.409 22.1667 142.981 35.3041 143L 35.3041 139Z"/>
<path id="path6_fill" d="M 12.7266 15.7773C 12.7266 17.8086 12.293 19.3945 11.4258 20.5352C 10.5586 21.668 9.34766 22.2344 7.79297 22.2344C 6.41797 22.2344 5.32031 21.707 4.5 20.6523L 4.34766 22L 1.30078 22L 1.30078 4L 4.6875 4L 4.6875 10.457C 5.46875 9.54297 6.49609 9.08594 7.76953 9.08594C 9.31641 9.08594 10.5273 9.65625 11.4023 10.7969C 12.2852 11.9297 12.7266 13.5273 12.7266 15.5898L 12.7266 15.7773ZM 9.33984 15.5312C 9.33984 14.25 9.13672 13.3164 8.73047 12.7305C 8.32422 12.1367 7.71875 11.8398 6.91406 11.8398C 5.83594 11.8398 5.09375 12.2813 4.6875 13.1641L 4.6875 18.168C 5.10156 19.0586 5.85156 19.5039 6.9375 19.5039C 8.03125 19.5039 8.75 18.9648 9.09375 17.8867C 9.25781 17.3711 9.33984 16.5859 9.33984 15.5312Z"/>
<path id="path7_fill" d="M 8.64844 22C 8.49219 21.6953 8.37891 21.3164 8.30859 20.8633C 7.48828 21.7773 6.42188 22.2344 5.10938 22.2344C 3.86719 22.2344 2.83594 21.875 2.01562 21.1562C 1.20312 20.4375 0.796875 19.5312 0.796875 18.4375C 0.796875 17.0938 1.29297 16.0625 2.28516 15.3438C 3.28516 14.625 4.72656 14.2617 6.60938 14.2539L 8.16797 14.2539L 8.16797 13.5273C 8.16797 12.9414 8.01562 12.4727 7.71094 12.1211C 7.41406 11.7695 6.94141 11.5938 6.29297 11.5938C 5.72266 11.5938 5.27344 11.7305 4.94531 12.0039C 4.625 12.2773 4.46484 12.6523 4.46484 13.1289L 1.07812 13.1289C 1.07812 12.3945 1.30469 11.7148 1.75781 11.0898C 2.21094 10.4648 2.85156 9.97656 3.67969 9.625C 4.50781 9.26563 5.4375 9.08594 6.46875 9.08594C 8.03125 9.08594 9.26953 9.48047 10.1836 10.2695C 11.1055 11.0508 11.5664 12.1523 11.5664 13.5742L 11.5664 19.0703C 11.5742 20.2734 11.7422 21.1836 12.0703 21.8008L 12.0703 22L 8.64844 22ZM 5.84766 19.6445C 6.34766 19.6445 6.80859 19.5352 7.23047 19.3164C 7.65234 19.0898 7.96484 18.7891 8.16797 18.4141L 8.16797 16.2344L 6.90234 16.2344C 5.20703 16.2344 4.30469 16.8203 4.19531 17.9922L 4.18359 18.1914C 4.18359 18.6133 4.33203 18.9609 4.62891 19.2344C 4.92578 19.5078 5.33203 19.6445 5.84766 19.6445Z"/>
<path id="path8_fill" d="M 0 0L 154 0L 154 26L 0 26L 0 0Z"/>
<path id="path9_fill" d="M 1.098 15.516C 1.098 15.012 1.206 14.574 1.422 14.202C 1.638 13.818 1.98 13.494 2.448 13.23C 2.928 12.966 3.54 12.756 4.284 12.6C 5.028 12.432 5.928 12.318 6.984 12.258C 6.936 11.85 6.756 11.532 6.444 11.304C 6.144 11.076 5.688 10.962 5.076 10.962C 4.644 10.962 4.206 11.04 3.762 11.196C 3.33 11.34 2.862 11.538 2.358 11.79L 1.422 10.062C 2.034 9.714 2.688 9.426 3.384 9.198C 4.092 8.97 4.83 8.856 5.598 8.856C 6.846 8.856 7.83 9.186 8.55 9.846C 9.27 10.506 9.63 11.52 9.63 12.888L 9.63 18L 7.47 18L 7.272 16.992L 7.2 16.992C 6.744 17.34 6.246 17.634 5.706 17.874C 5.166 18.102 4.608 18.216 4.032 18.216C 3.576 18.216 3.168 18.144 2.808 18C 2.448 17.868 2.142 17.682 1.89 17.442C 1.638 17.19 1.44 16.902 1.296 16.578C 1.164 16.254 1.098 15.9 1.098 15.516ZM 3.636 15.318C 3.636 15.606 3.744 15.822 3.96 15.966C 4.188 16.098 4.494 16.164 4.878 16.164C 5.274 16.164 5.646 16.086 5.994 15.93C 6.342 15.762 6.672 15.558 6.984 15.318L 6.984 13.842C 6.324 13.878 5.778 13.938 5.346 14.022C 4.914 14.106 4.572 14.214 4.32 14.346C 4.068 14.466 3.888 14.61 3.78 14.778C 3.684 14.946 3.636 15.126 3.636 15.318ZM 22.9179 15.768L 25.6539 15.768L 25.6539 8.496L 22.9179 8.496L 22.9179 6.264L 31.0539 6.264L 31.0539 8.496L 28.3179 8.496L 28.3179 15.768L 31.0539 15.768L 31.0539 18L 22.9179 18L 22.9179 15.768ZM 33.5669 6.264L 36.2669 6.264L 38.7509 12.114L 39.7589 14.688L 39.8309 14.688C 39.7709 14.064 39.6929 13.368 39.5969 12.6C 39.5009 11.832 39.4529 11.106 39.4529 10.422L 39.4529 6.264L 41.9909 6.264L 41.9909 18L 39.2909 18L 36.8069 12.15L 35.7989 9.594L 35.7269 9.594C 35.7869 10.242 35.8649 10.938 35.9609 11.682C 36.0569 12.426 36.1049 13.146 36.1049 13.842L 36.1049 18L 33.5669 18L 33.5669 6.264ZM 47.2399 8.496L 43.7299 8.496L 43.7299 6.264L 53.4139 6.264L 53.4139 8.496L 49.9039 8.496L 49.9039 18L 47.2399 18L 47.2399 8.496ZM 55.6568 6.264L 63.3968 6.264L 63.3968 8.496L 58.3028 8.496L 58.3028 10.854L 62.6228 10.854L 62.6228 13.068L 58.3028 13.068L 58.3028 15.768L 63.5768 15.768L 63.5768 18L 55.6568 18L 55.6568 6.264ZM 68.6638 11.664L 69.9598 11.664C 71.3878 11.664 72.1018 11.082 72.1018 9.918C 72.1018 9.342 71.9218 8.94 71.5618 8.712C 71.2018 8.484 70.6678 8.37 69.9598 8.37L 68.6638 8.37L 68.6638 11.664ZM 72.2998 18L 70.0498 13.77L 68.6638 13.77L 68.6638 18L 66.0178 18L 66.0178 6.264L 70.1758 6.264C 70.7998 6.264 71.3818 6.324 71.9218 6.444C 72.4738 6.564 72.9538 6.768 73.3618 7.056C 73.7818 7.332 74.1118 7.704 74.3518 8.172C 74.5918 8.64 74.7118 9.222 74.7118 9.918C 74.7118 10.782 74.5198 11.496 74.1358 12.06C 73.7518 12.612 73.2478 13.026 72.6238 13.302L 75.2698 18L 72.2998 18ZM 77.9808 14.706C 78.4248 15.066 78.9048 15.36 79.4208 15.588C 79.9488 15.816 80.4708 15.93 80.9868 15.93C 81.5988 15.93 82.0428 15.828 82.3188 15.624C 82.6068 15.42 82.7508 15.144 82.7508 14.796C 82.7508 14.616 82.7088 14.46 82.6248 14.328C 82.5408 14.196 82.4208 14.082 82.2648 13.986C 82.1088 13.878 81.9168 13.782 81.6888 13.698C 81.4728 13.602 81.2208 13.5 80.9328 13.392L 79.4208 12.744C 79.0968 12.624 78.7788 12.468 78.4668 12.276C 78.1668 12.084 77.9028 11.862 77.6748 11.61C 77.4468 11.346 77.2608 11.046 77.1168 10.71C 76.9848 10.362 76.9188 9.972 76.9188 9.54C 76.9188 9.06 77.0208 8.61 77.2248 8.19C 77.4408 7.758 77.7348 7.386 78.1068 7.074C 78.4908 6.75 78.9468 6.498 79.4748 6.318C 80.0028 6.138 80.5848 6.048 81.2208 6.048C 81.9408 6.048 82.6368 6.18 83.3088 6.444C 83.9808 6.708 84.5868 7.092 85.1268 7.596L 83.7768 9.27C 83.3688 8.97 82.9668 8.742 82.5708 8.586C 82.1748 8.418 81.7248 8.334 81.2208 8.334C 80.7048 8.334 80.3028 8.43 80.0148 8.622C 79.7388 8.802 79.6008 9.06 79.6008 9.396C 79.6008 9.756 79.7808 10.026 80.1408 10.206C 80.5008 10.386 80.9628 10.578 81.5268 10.782L 82.9488 11.394C 83.7288 11.682 84.3408 12.078 84.7848 12.582C 85.2408 13.086 85.4688 13.752 85.4688 14.58C 85.4688 15.072 85.3668 15.54 85.1628 15.984C 84.9588 16.416 84.6648 16.8 84.2808 17.136C 83.8968 17.46 83.4228 17.724 82.8588 17.928C 82.2948 18.12 81.6468 18.216 80.9148 18.216C 80.1228 18.216 79.3368 18.078 78.5568 17.802C 77.7888 17.514 77.0868 17.088 76.4508 16.524L 77.9808 14.706ZM 88.0357 6.264L 95.7757 6.264L 95.7757 8.496L 90.6817 8.496L 90.6817 10.854L 95.0018 10.854L 95.0018 13.068L 90.6817 13.068L 90.6817 15.768L 95.9557 15.768L 95.9557 18L 88.0357 18L 88.0357 6.264ZM 98.1267 12.204C 98.1267 11.232 98.2707 10.368 98.5587 9.612C 98.8467 8.844 99.2427 8.196 99.7467 7.668C 100.251 7.14 100.845 6.738 101.529 6.462C 102.213 6.186 102.945 6.048 103.725 6.048C 104.481 6.048 105.147 6.204 105.723 6.516C 106.311 6.816 106.803 7.158 107.199 7.542L 105.741 9.18C 105.465 8.928 105.165 8.724 104.841 8.568C 104.517 8.412 104.145 8.334 103.725 8.334C 103.305 8.334 102.921 8.424 102.573 8.604C 102.225 8.772 101.919 9.018 101.655 9.342C 101.403 9.666 101.205 10.062 101.061 10.53C 100.917 10.998 100.845 11.526 100.845 12.114C 100.845 13.326 101.121 14.268 101.673 14.94C 102.225 15.6 102.945 15.93 103.833 15.93C 104.253 15.93 104.631 15.834 104.967 15.642C 105.315 15.45 105.633 15.198 105.921 14.886L 107.379 16.488C 106.395 17.64 105.159 18.216 103.671 18.216C 102.915 18.216 102.201 18.09 101.529 17.838C 100.857 17.574 100.269 17.19 99.7647 16.686C 99.2607 16.182 98.8587 15.558 98.5587 14.814C 98.2707 14.058 98.1267 13.188 98.1267 12.204ZM 111.998 8.496L 108.488 8.496L 108.488 6.264L 118.172 6.264L 118.172 8.496L 114.662 8.496L 114.662 18L 111.998 18L 111.998 8.496ZM 130.812 5.382L 133.458 5.382L 133.458 8.478L 133.386 9.882C 133.734 9.558 134.124 9.306 134.556 9.126C 135 8.946 135.438 8.856 135.87 8.856C 136.422 8.856 136.92 8.964 137.364 9.18C 137.82 9.396 138.198 9.702 138.498 10.098C 138.81 10.482 139.05 10.956 139.218 11.52C 139.386 12.072 139.47 12.69 139.47 13.374C 139.47 14.142 139.362 14.826 139.146 15.426C 138.93 16.026 138.642 16.536 138.282 16.956C 137.922 17.364 137.508 17.676 137.04 17.892C 136.584 18.108 136.104 18.216 135.6 18.216C 135.18 18.216 134.76 18.114 134.34 17.91C 133.932 17.706 133.542 17.412 133.17 17.028L 133.098 17.028L 132.882 18L 130.812 18L 130.812 5.382ZM 133.458 15.462C 133.71 15.678 133.968 15.834 134.232 15.93C 134.508 16.014 134.766 16.056 135.006 16.056C 135.498 16.056 135.912 15.852 136.248 15.444C 136.584 15.024 136.752 14.352 136.752 13.428C 136.752 11.82 136.206 11.016 135.114 11.016C 134.55 11.016 133.998 11.292 133.458 11.844L 133.458 15.462Z"/>
<path id="path10_fill" fill-rule="evenodd" d="M 33.8919 122.67C 54.1525 110.427 67.7838 87.5439 67.7838 61.335C 67.7838 35.1261 54.1525 12.243 33.8919 0C 13.6313 12.243 0 35.1261 0 61.335C 0 87.5439 13.6313 110.427 33.8919 122.67Z"/>
<path id="path11_fill" fill-rule="evenodd" d="M 105.912 9.43164C 84.8074 21.6214 70.6081 44.405 70.6081 70.5C 70.6081 96.595 84.8074 119.379 105.912 131.568C 95.5267 137.567 83.4689 141 70.6081 141C 31.6123 141 0 109.436 0 70.5C 0 31.5639 31.6123 0 70.6081 0C 83.4689 0 95.5267 3.43314 105.912 9.43164Z"/>
<path id="path12_stroke_2x" d="M 105.912 9.43164L 106.912 11.1635L 109.911 9.43164L 106.912 7.69977L 105.912 9.43164ZM 105.912 131.568L 106.912 133.3L 109.911 131.568L 106.912 129.836L 105.912 131.568ZM 72.6081 70.5C 72.6081 45.1494 86.4 23.0112 106.912 11.1635L 104.912 7.69976C 83.2148 20.2317 68.6081 43.6607 68.6081 70.5L 72.6081 70.5ZM 106.912 129.836C 86.4 117.989 72.6081 95.8506 72.6081 70.5L 68.6081 70.5C 68.6081 97.3393 83.2148 120.768 104.912 133.3L 106.912 129.836ZM 104.912 129.836C 94.7468 135.725 83.1924 139.019 70.6081 139L 70.6081 143C 83.7454 142.981 96.3066 139.409 106.912 133.3L 104.912 129.836ZM 70.6081 139C 32.714 139 2 108.329 2 70.5L -2 70.5C -2 110.544 30.5107 143 70.6081 143L 70.6081 139ZM 2 70.5C 2 32.6714 32.714 2 70.6081 2L 70.6081 -2C 30.5107 -2 -2 30.4565 -2 70.5L 2 70.5ZM 70.6081 2C 83.1924 1.9808 94.7468 5.27481 104.912 11.1635L 106.912 7.69977C 96.3066 1.59147 83.7454 -1.9808 70.6081 -2L 70.6081 2Z"/>
<path id="path13_fill" d="M 0 0L 112 0L 112 26L 0 26L 0 0Z"/>
<path id="path14_fill" d="M 1.098 15.516C 1.098 15.012 1.206 14.574 1.422 14.202C 1.638 13.818 1.98 13.494 2.448 13.23C 2.928 12.966 3.54 12.756 4.284 12.6C 5.028 12.432 5.928 12.318 6.984 12.258C 6.936 11.85 6.756 11.532 6.444 11.304C 6.144 11.076 5.688 10.962 5.076 10.962C 4.644 10.962 4.206 11.04 3.762 11.196C 3.33 11.34 2.862 11.538 2.358 11.79L 1.422 10.062C 2.034 9.714 2.688 9.426 3.384 9.198C 4.092 8.97 4.83 8.856 5.598 8.856C 6.846 8.856 7.83 9.186 8.55 9.846C 9.27 10.506 9.63 11.52 9.63 12.888L 9.63 18L 7.47 18L 7.272 16.992L 7.2 16.992C 6.744 17.34 6.246 17.634 5.706 17.874C 5.166 18.102 4.608 18.216 4.032 18.216C 3.576 18.216 3.168 18.144 2.808 18C 2.448 17.868 2.142 17.682 1.89 17.442C 1.638 17.19 1.44 16.902 1.296 16.578C 1.164 16.254 1.098 15.9 1.098 15.516ZM 3.636 15.318C 3.636 15.606 3.744 15.822 3.96 15.966C 4.188 16.098 4.494 16.164 4.878 16.164C 5.274 16.164 5.646 16.086 5.994 15.93C 6.342 15.762 6.672 15.558 6.984 15.318L 6.984 13.842C 6.324 13.878 5.778 13.938 5.346 14.022C 4.914 14.106 4.572 14.214 4.32 14.346C 4.068 14.466 3.888 14.61 3.78 14.778C 3.684 14.946 3.636 15.126 3.636 15.318ZM 22.7379 6.264L 25.3839 6.264L 25.3839 13.752C 25.3839 14.46 25.5159 15 25.7799 15.372C 26.0439 15.744 26.4579 15.93 27.0219 15.93C 27.5859 15.93 27.9999 15.744 28.2639 15.372C 28.5399 15 28.6779 14.46 28.6779 13.752L 28.6779 6.264L 31.2339 6.264L 31.2339 13.482C 31.2339 15.018 30.8859 16.194 30.1899 17.01C 29.5059 17.814 28.4499 18.216 27.0219 18.216C 25.5819 18.216 24.5079 17.814 23.7999 17.01C 23.0919 16.194 22.7379 15.018 22.7379 13.482L 22.7379 6.264ZM 33.5669 6.264L 36.2669 6.264L 38.7509 12.114L 39.7589 14.688L 39.8309 14.688C 39.7709 14.064 39.6929 13.368 39.5969 12.6C 39.5009 11.832 39.4529 11.106 39.4529 10.422L 39.4529 6.264L 41.9909 6.264L 41.9909 18L 39.2909 18L 36.8069 12.15L 35.7989 9.594L 35.7269 9.594C 35.7869 10.242 35.8649 10.938 35.9609 11.682C 36.0569 12.426 36.1049 13.146 36.1049 13.842L 36.1049 18L 33.5669 18L 33.5669 6.264ZM 44.5039 15.768L 47.2399 15.768L 47.2399 8.496L 44.5039 8.496L 44.5039 6.264L 52.6399 6.264L 52.6399 8.496L 49.9039 8.496L 49.9039 15.768L 52.6399 15.768L 52.6399 18L 44.5039 18L 44.5039 15.768ZM 59.3648 18.216C 58.6688 18.216 58.0268 18.078 57.4388 17.802C 56.8628 17.514 56.3648 17.106 55.9448 16.578C 55.5368 16.05 55.2188 15.408 54.9908 14.652C 54.7628 13.896 54.6488 13.038 54.6488 12.078C 54.6488 11.118 54.7628 10.266 54.9908 9.522C 55.2188 8.766 55.5368 8.136 55.9448 7.632C 56.3648 7.116 56.8628 6.726 57.4388 6.462C 58.0268 6.186 58.6688 6.048 59.3648 6.048C 60.0608 6.048 60.6968 6.186 61.2728 6.462C 61.8608 6.726 62.3588 7.116 62.7668 7.632C 63.1868 8.148 63.5108 8.784 63.7388 9.54C 63.9668 10.284 64.0808 11.13 64.0808 12.078C 64.0808 13.038 63.9668 13.896 63.7388 14.652C 63.5108 15.408 63.1868 16.05 62.7668 16.578C 62.3588 17.106 61.8608 17.514 61.2728 17.802C 60.6968 18.078 60.0608 18.216 59.3648 18.216ZM 59.3648 15.93C 59.9768 15.93 60.4628 15.588 60.8228 14.904C 61.1828 14.208 61.3628 13.266 61.3628 12.078C 61.3628 10.902 61.1828 9.984 60.8228 9.324C 60.4628 8.664 59.9768 8.334 59.3648 8.334C 58.7528 8.334 58.2668 8.664 57.9068 9.324C 57.5468 9.984 57.3668 10.902 57.3668 12.078C 57.3668 13.266 57.5468 14.208 57.9068 14.904C 58.2668 15.588 58.7528 15.93 59.3648 15.93ZM 65.9458 6.264L 68.6458 6.264L 71.1298 12.114L 72.1378 14.688L 72.2098 14.688C 72.1498 14.064 72.0718 13.368 71.9758 12.6C 71.8798 11.832 71.8318 11.106 71.8318 10.422L 71.8318 6.264L 74.3698 6.264L 74.3698 18L 71.6698 18L 69.1858 12.15L 68.1778 9.594L 68.1058 9.594C 68.1658 10.242 68.2438 10.938 68.3398 11.682C 68.4358 12.426 68.4838 13.146 68.4838 13.842L 68.4838 18L 65.9458 18L 65.9458 6.264ZM 87.6397 5.382L 90.2857 5.382L 90.2857 8.478L 90.2138 9.882C 90.5618 9.558 90.9518 9.306 91.3838 9.126C 91.8278 8.946 92.2657 8.856 92.6977 8.856C 93.2497 8.856 93.7477 8.964 94.1917 9.18C 94.6478 9.396 95.0257 9.702 95.3258 10.098C 95.6378 10.482 95.8777 10.956 96.0457 11.52C 96.2138 12.072 96.2977 12.69 96.2977 13.374C 96.2977 14.142 96.1897 14.826 95.9738 15.426C 95.7578 16.026 95.4698 16.536 95.1097 16.956C 94.7498 17.364 94.3358 17.676 93.8678 17.892C 93.4118 18.108 92.9317 18.216 92.4277 18.216C 92.0077 18.216 91.5878 18.114 91.1678 17.91C 90.7597 17.706 90.3698 17.412 89.9977 17.028L 89.9258 17.028L 89.7098 18L 87.6397 18L 87.6397 5.382ZM 90.2857 15.462C 90.5377 15.678 90.7957 15.834 91.0597 15.93C 91.3357 16.014 91.5937 16.056 91.8338 16.056C 92.3257 16.056 92.7397 15.852 93.0758 15.444C 93.4118 15.024 93.5798 14.352 93.5798 13.428C 93.5798 11.82 93.0338 11.016 91.9417 11.016C 91.3777 11.016 90.8257 11.292 90.2857 11.844L 90.2857 15.462Z"/>
<path id="path15_fill" fill-rule="evenodd" d="M 33.8918 122.67C 54.1525 110.427 67.7837 87.5439 67.7837 61.335C 67.7837 35.1261 54.1525 12.243 33.8918 0C 13.6312 12.243 0 35.1261 0 61.335C 0 87.5439 13.6312 110.427 33.8918 122.67Z"/>
<path id="path16_fill" fill-rule="evenodd" d="M 105.912 9.43167C 84.8074 21.6215 70.6082 44.4051 70.6082 70.5C 70.6082 96.5949 84.8074 119.379 105.912 131.568C 95.5267 137.567 83.469 141 70.6082 141C 31.6123 141 0 109.436 0 70.5C 0 31.5639 31.6123 0 70.6082 0C 83.469 0 95.5267 3.43317 105.912 9.43167Z"/>
<path id="path17_stroke_2x" d="M 105.912 9.43167L 106.913 11.1635L 109.911 9.43167L 106.913 7.6998L 105.912 9.43167ZM 105.912 131.568L 106.913 133.3L 109.911 131.568L 106.913 129.836L 105.912 131.568ZM 72.6082 70.5C 72.6082 45.1494 86.4 23.0112 106.913 11.1635L 104.912 7.69979C 83.2148 20.2317 68.6082 43.6608 68.6082 70.5L 72.6082 70.5ZM 106.913 129.836C 86.4 117.989 72.6082 95.8506 72.6082 70.5L 68.6082 70.5C 68.6082 97.3392 83.2148 120.768 104.912 133.3L 106.913 129.836ZM 104.912 129.836C 94.7468 135.725 83.1925 139.019 70.6082 139L 70.6082 143C 83.7455 142.981 96.3066 139.409 106.913 133.3L 104.912 129.836ZM 70.6082 139C 32.714 139 2 108.329 2 70.5L -2 70.5C -2 110.544 30.5106 143 70.6082 143L 70.6082 139ZM 2 70.5C 2 32.6714 32.714 2 70.6082 2L 70.6082 -2C 30.5106 -2 -2 30.4565 -2 70.5L 2 70.5ZM 70.6082 2C 83.1925 1.98079 94.7468 5.27484 104.912 11.1635L 106.913 7.6998C 96.3066 1.5915 83.7455 -1.98079 70.6082 -2L 70.6082 2Z"/>
<path id="path18_fill" fill-rule="evenodd" d="M 0 131.568C 21.1049 119.379 35.3041 96.595 35.3041 70.5C 35.3041 44.405 21.1049 21.6214 0 9.43164C 10.3855 3.43317 22.4432 0 35.3041 0C 74.2998 0 105.912 31.5639 105.912 70.5C 105.912 109.436 74.2998 141 35.3041 141C 22.4432 141 10.3855 137.567 0 131.568Z"/>
<path id="path19_stroke_2x" d="M 0 131.568L -1.0003 129.837L -3.99879 131.568L -1.0003 133.3L 0 131.568ZM 0 9.43164L -1.0003 7.69976L -3.9988 9.43164L -1.0003 11.1635L 0 9.43164ZM 33.3041 70.5C 33.3041 95.8507 19.5123 117.989 -1.0003 129.837L 1.0003 133.3C 22.6975 120.768 37.3041 97.3393 37.3041 70.5L 33.3041 70.5ZM -1.0003 11.1635C 19.5123 23.0112 33.3041 45.1493 33.3041 70.5L 37.3041 70.5C 37.3041 43.6607 22.6975 20.2317 1.0003 7.69976L -1.0003 11.1635ZM 1.0003 11.1635C 11.1654 5.27484 22.7197 1.98079 35.3041 2L 35.3041 -2C 22.1667 -1.98079 9.60559 1.5915 -1.0003 7.69976L 1.0003 11.1635ZM 35.3041 2C 73.1981 2 103.912 32.6714 103.912 70.5L 107.912 70.5C 107.912 30.4565 75.4015 -2 35.3041 -2L 35.3041 2ZM 103.912 70.5C 103.912 108.329 73.1981 139 35.3041 139L 35.3041 143C 75.4015 143 107.912 110.544 107.912 70.5L 103.912 70.5ZM 35.3041 139C 22.7197 139.019 11.1654 135.725 1.0003 129.837L -1.0003 133.3C 9.60559 139.409 22.1667 142.981 35.3041 143L 35.3041 139Z"/>
</defs>
</svg>
