<svg width="2010" height="464" viewBox="0 0 2010 464" version="1.1" xmlns="http://www.w3.org/2000/svg" xmlns:xlink="http://www.w3.org/1999/xlink">
<title>Right</title>
<desc>Created using Figma</desc>
<g id="Canvas" transform="matrix(2 0 0 2 1176 628)">
<clipPath id="clip-0" clip-rule="evenodd">
<path d="M -588 -314L 417 -314L 417 -82L -588 -82L -588 -314Z" fill="#FFFFFF"/>
</clipPath>
<g id="Right" clip-path="url(#clip-0)">
<path d="M -588 -314L 417 -314L 417 -82L -588 -82L -588 -314Z" fill="#FFFFFF"/>
<g id="Group">
<g id="Rectangle">
<use xlink:href="#path0_fill" transform="translate(-166 -133)" fill="#FDD6D6"/>
</g>
<g id="a RIGHT JOIN b">
<use xlink:href="#path1_fill" transform="translate(-160 -131)" fill="#D91D1D"/>
</g>
<g id="Intersect">
<use xlink:href="#path2_fill" transform="translate(-119.392 -278.13)" fill="#2F80ED"/>
</g>
<g id="Subtract">
<mask id="mask0_outline_ins">
<use xlink:href="#path3_fill" fill="white" transform="translate(-190 -288)"/>
</mask>
<g mask="url(#mask0_outline_ins)">
<use xlink:href="#path4_stroke_2x" transform="translate(-190 -288)"/>
</g>
</g>
<g id="Subtract">
<use xlink:href="#path5_fill" transform="translate(-86.9122 -288)" fill="#2F80ED"/>
<mask id="mask1_outline_ins">
<use xlink:href="#path5_fill" fill="white" transform="translate(-86.9122 -288)"/>
</mask>
<g mask="url(#mask1_outline_ins)">
<use xlink:href="#path6_stroke_2x" transform="translate(-86.9122 -288)"/>
</g>
</g>
<g id="b">
<use xlink:href="#path7_fill" transform="translate(-27.6013 -232.01)" fill="#F2F2F2"/>
</g>
<g id="a">
<use xlink:href="#path8_fill" transform="translate(-154.696 -230.6)"/>
</g>
</g>
</g>
</g>
<defs>
<path id="path0_fill" d="M 0 0L 164 0L 164 26L 0 26L 0 0Z"/>
<path id="path1_fill" d="M 1.098 15.516C 1.098 15.012 1.206 14.574 1.422 14.202C 1.638 13.818 1.98 13.494 2.448 13.23C 2.928 12.966 3.54 12.756 4.284 12.6C 5.028 12.432 5.928 12.318 6.984 12.258C 6.936 11.85 6.756 11.532 6.444 11.304C 6.144 11.076 5.688 10.962 5.076 10.962C 4.644 10.962 4.206 11.04 3.762 11.196C 3.33 11.34 2.862 11.538 2.358 11.79L 1.422 10.062C 2.034 9.714 2.688 9.426 3.384 9.198C 4.092 8.97 4.83 8.856 5.598 8.856C 6.846 8.856 7.83 9.186 8.55 9.846C 9.27 10.506 9.63 11.52 9.63 12.888L 9.63 18L 7.47 18L 7.272 16.992L 7.2 16.992C 6.744 17.34 6.246 17.634 5.706 17.874C 5.166 18.102 4.608 18.216 4.032 18.216C 3.576 18.216 3.168 18.144 2.808 18C 2.448 17.868 2.142 17.682 1.89 17.442C 1.638 17.19 1.44 16.902 1.296 16.578C 1.164 16.254 1.098 15.9 1.098 15.516ZM 3.636 15.318C 3.636 15.606 3.744 15.822 3.96 15.966C 4.188 16.098 4.494 16.164 4.878 16.164C 5.274 16.164 5.646 16.086 5.994 15.93C 6.342 15.762 6.672 15.558 6.984 15.318L 6.984 13.842C 6.324 13.878 5.778 13.938 5.346 14.022C 4.914 14.106 4.572 14.214 4.32 14.346C 4.068 14.466 3.888 14.61 3.78 14.778C 3.684 14.946 3.636 15.126 3.636 15.318ZM 25.4919 11.664L 26.7879 11.664C 28.2159 11.664 28.9299 11.082 28.9299 9.918C 28.9299 9.342 28.7499 8.94 28.3899 8.712C 28.0299 8.484 27.4959 8.37 26.7879 8.37L 25.4919 8.37L 25.4919 11.664ZM 29.1279 18L 26.8779 13.77L 25.4919 13.77L 25.4919 18L 22.8459 18L 22.8459 6.264L 27.0039 6.264C 27.6279 6.264 28.2099 6.324 28.7499 6.444C 29.3019 6.564 29.7819 6.768 30.1899 7.056C 30.6099 7.332 30.9399 7.704 31.1799 8.172C 31.4199 8.64 31.5399 9.222 31.5399 9.918C 31.5399 10.782 31.3479 11.496 30.9639 12.06C 30.5799 12.612 30.0759 13.026 29.4519 13.302L 32.0979 18L 29.1279 18ZM 33.7109 15.768L 36.4469 15.768L 36.4469 8.496L 33.7109 8.496L 33.7109 6.264L 41.8469 6.264L 41.8469 8.496L 39.1109 8.496L 39.1109 15.768L 41.8469 15.768L 41.8469 18L 33.7109 18L 33.7109 15.768ZM 43.9639 12.204C 43.9639 11.22 44.1019 10.35 44.3779 9.594C 44.6659 8.826 45.0499 8.184 45.5299 7.668C 46.0219 7.14 46.5979 6.738 47.2579 6.462C 47.9179 6.186 48.6259 6.048 49.3819 6.048C 50.1739 6.048 50.8459 6.204 51.3979 6.516C 51.9619 6.816 52.4359 7.158 52.8199 7.542L 51.3619 9.18C 51.1099 8.928 50.8339 8.724 50.5339 8.568C 50.2339 8.412 49.8499 8.334 49.3819 8.334C 48.9979 8.334 48.6439 8.424 48.3199 8.604C 47.9959 8.772 47.7139 9.018 47.4739 9.342C 47.2339 9.666 47.0419 10.062 46.8979 10.53C 46.7659 10.998 46.6999 11.526 46.6999 12.114C 46.6999 13.326 46.9279 14.268 47.3839 14.94C 47.8519 15.6 48.5539 15.93 49.4899 15.93C 49.7179 15.93 49.9339 15.9 50.1379 15.84C 50.3419 15.78 50.5099 15.69 50.6419 15.57L 50.6419 13.554L 48.9319 13.554L 48.9319 11.394L 53.0179 11.394L 53.0179 16.794C 52.6219 17.166 52.0999 17.496 51.4519 17.784C 50.8039 18.072 50.1019 18.216 49.3459 18.216C 48.5899 18.216 47.8819 18.09 47.2219 17.838C 46.5739 17.574 46.0039 17.19 45.5119 16.686C 45.0319 16.182 44.6539 15.558 44.3779 14.814C 44.1019 14.058 43.9639 13.188 43.9639 12.204ZM 55.1168 6.264L 57.7628 6.264L 57.7628 10.782L 60.9668 10.782L 60.9668 6.264L 63.6128 6.264L 63.6128 18L 60.9668 18L 60.9668 13.104L 57.7628 13.104L 57.7628 18L 55.1168 18L 55.1168 6.264ZM 68.8258 8.496L 65.3158 8.496L 65.3158 6.264L 74.9998 6.264L 74.9998 8.496L 71.4898 8.496L 71.4898 18L 68.8258 18L 68.8258 8.496ZM 88.9357 14.634C 89.6317 15.498 90.3758 15.93 91.1678 15.93C 91.7797 15.93 92.2357 15.78 92.5358 15.48C 92.8357 15.168 92.9857 14.604 92.9857 13.788L 92.9857 8.478L 88.3958 8.478L 88.3958 6.264L 95.6317 6.264L 95.6317 14.004C 95.6317 14.58 95.5537 15.126 95.3978 15.642C 95.2538 16.146 95.0078 16.59 94.6598 16.974C 94.3118 17.358 93.8558 17.664 93.2918 17.892C 92.7397 18.108 92.0618 18.216 91.2578 18.216C 90.9337 18.216 90.5978 18.18 90.2497 18.108C 89.9017 18.048 89.5597 17.94 89.2237 17.784C 88.8877 17.628 88.5638 17.43 88.2517 17.19C 87.9398 16.938 87.6577 16.632 87.4058 16.272L 88.9357 14.634ZM 102.537 18.216C 101.841 18.216 101.199 18.078 100.611 17.802C 100.035 17.514 99.5367 17.106 99.1167 16.578C 98.7087 16.05 98.3907 15.408 98.1627 14.652C 97.9347 13.896 97.8207 13.038 97.8207 12.078C 97.8207 11.118 97.9347 10.266 98.1627 9.522C 98.3907 8.766 98.7087 8.136 99.1167 7.632C 99.5367 7.116 100.035 6.726 100.611 6.462C 101.199 6.186 101.841 6.048 102.537 6.048C 103.233 6.048 103.869 6.186 104.445 6.462C 105.033 6.726 105.531 7.116 105.939 7.632C 106.359 8.148 106.683 8.784 106.911 9.54C 107.139 10.284 107.253 11.13 107.253 12.078C 107.253 13.038 107.139 13.896 106.911 14.652C 106.683 15.408 106.359 16.05 105.939 16.578C 105.531 17.106 105.033 17.514 104.445 17.802C 103.869 18.078 103.233 18.216 102.537 18.216ZM 102.537 15.93C 103.149 15.93 103.635 15.588 103.995 14.904C 104.355 14.208 104.535 13.266 104.535 12.078C 104.535 10.902 104.355 9.984 103.995 9.324C 103.635 8.664 103.149 8.334 102.537 8.334C 101.925 8.334 101.439 8.664 101.079 9.324C 100.719 9.984 100.539 10.902 100.539 12.078C 100.539 13.266 100.719 14.208 101.079 14.904C 101.439 15.588 101.925 15.93 102.537 15.93ZM 109.262 15.768L 111.998 15.768L 111.998 8.496L 109.262 8.496L 109.262 6.264L 117.398 6.264L 117.398 8.496L 114.662 8.496L 114.662 15.768L 117.398 15.768L 117.398 18L 109.262 18L 109.262 15.768ZM 119.911 6.264L 122.611 6.264L 125.095 12.114L 126.103 14.688L 126.175 14.688C 126.115 14.064 126.037 13.368 125.941 12.6C 125.845 11.832 125.797 11.106 125.797 10.422L 125.797 6.264L 128.335 6.264L 128.335 18L 125.635 18L 123.151 12.15L 122.143 9.594L 122.071 9.594C 122.131 10.242 122.209 10.938 122.305 11.682C 122.401 12.426 122.449 13.146 122.449 13.842L 122.449 18L 119.911 18L 119.911 6.264ZM 141.605 5.382L 144.251 5.382L 144.251 8.478L 144.179 9.882C 144.527 9.558 144.917 9.306 145.349 9.126C 145.793 8.946 146.231 8.856 146.663 8.856C 147.215 8.856 147.713 8.964 148.157 9.18C 148.613 9.396 148.991 9.702 149.291 10.098C 149.603 10.482 149.843 10.956 150.011 11.52C 150.179 12.072 150.263 12.69 150.263 13.374C 150.263 14.142 150.155 14.826 149.939 15.426C 149.723 16.026 149.435 16.536 149.075 16.956C 148.715 17.364 148.301 17.676 147.833 17.892C 147.377 18.108 146.897 18.216 146.393 18.216C 145.973 18.216 145.553 18.114 145.133 17.91C 144.725 17.706 144.335 17.412 143.963 17.028L 143.891 17.028L 143.675 18L 141.605 18L 141.605 5.382ZM 144.251 15.462C 144.503 15.678 144.761 15.834 145.025 15.93C 145.301 16.014 145.559 16.056 145.799 16.056C 146.291 16.056 146.705 15.852 147.041 15.444C 147.377 15.024 147.545 14.352 147.545 13.428C 147.545 11.82 146.999 11.016 145.907 11.016C 145.343 11.016 144.791 11.292 144.251 11.844L 144.251 15.462Z"/>
<path id="path2_fill" fill-rule="evenodd" d="M 33.8919 122.67C 54.1525 110.427 67.7838 87.5439 67.7838 61.335C 67.7838 35.1261 54.1525 12.243 33.8919 0C 13.6313 12.243 0 35.1261 0 61.335C 0 87.5439 13.6313 110.427 33.8919 122.67Z"/>
<path id="path3_fill" fill-rule="evenodd" d="M 105.912 9.43164C 84.8074 21.6214 70.6081 44.405 70.6081 70.5C 70.6081 96.595 84.8074 119.379 105.912 131.568C 95.5266 137.567 83.4689 141 70.6081 141C 31.6123 141 0 109.436 0 70.5C 0 31.5639 31.6123 0 70.6081 0C 83.4689 0 95.5266 3.43314 105.912 9.43164Z"/>
<path id="path4_stroke_2x" d="M 105.912 9.43164L 106.912 11.1635L 109.911 9.43164L 106.912 7.69977L 105.912 9.43164ZM 105.912 131.568L 106.912 133.3L 109.911 131.568L 106.912 129.836L 105.912 131.568ZM 72.6081 70.5C 72.6081 45.1493 86.4 23.0112 106.912 11.1635L 104.912 7.69976C 83.2148 20.2317 68.6081 43.6607 68.6081 70.5L 72.6081 70.5ZM 106.912 129.836C 86.4 117.989 72.6081 95.8507 72.6081 70.5L 68.6081 70.5C 68.6081 97.3393 83.2148 120.768 104.912 133.3L 106.912 129.836ZM 104.912 129.836C 94.7467 135.725 83.1924 139.019 70.6081 139L 70.6081 143C 83.7454 142.981 96.3066 139.409 106.912 133.3L 104.912 129.836ZM 70.6081 139C 32.714 139 2 108.329 2 70.5L -2 70.5C -2 110.544 30.5106 143 70.6081 143L 70.6081 139ZM 2 70.5C 2 32.6714 32.714 2 70.6081 2L 70.6081 -2C 30.5106 -2 -2 30.4565 -2 70.5L 2 70.5ZM 70.6081 2C 83.1924 1.9808 94.7467 5.27481 104.912 11.1635L 106.912 7.69977C 96.3066 1.59147 83.7454 -1.9808 70.6081 -2L 70.6081 2Z"/>
<path id="path5_fill" fill-rule="evenodd" d="M 0 131.568C 21.1048 119.379 35.3041 96.595 35.3041 70.5C 35.3041 44.405 21.1048 21.6214 0 9.43164C 10.3855 3.43314 22.4432 0 35.3041 0C 74.2998 0 105.912 31.5639 105.912 70.5C 105.912 109.436 74.2998 141 35.3041 141C 22.4432 141 10.3855 137.567 0 131.568Z"/>
<path id="path6_stroke_2x" d="M 0 131.568L -1.0003 129.836L -3.99879 131.568L -1.0003 133.3L 0 131.568ZM 0 9.43164L -1.0003 7.69977L -3.99879 9.43164L -1.0003 11.1635L 0 9.43164ZM 33.3041 70.5C 33.3041 95.8507 19.5122 117.989 -1.0003 129.836L 1.0003 133.3C 22.6974 120.768 37.3041 97.3393 37.3041 70.5L 33.3041 70.5ZM -1.0003 11.1635C 19.5122 23.0112 33.3041 45.1493 33.3041 70.5L 37.3041 70.5C 37.3041 43.6607 22.6974 20.2317 1.0003 7.69976L -1.0003 11.1635ZM 1.0003 11.1635C 11.1654 5.27481 22.7197 1.9808 35.3041 2L 35.3041 -2C 22.1667 -1.9808 9.60561 1.59147 -1.0003 7.69977L 1.0003 11.1635ZM 35.3041 2C 73.1982 2 103.912 32.6714 103.912 70.5L 107.912 70.5C 107.912 30.4565 75.4015 -2 35.3041 -2L 35.3041 2ZM 103.912 70.5C 103.912 108.329 73.1982 139 35.3041 139L 35.3041 143C 75.4015 143 107.912 110.544 107.912 70.5L 103.912 70.5ZM 35.3041 139C 22.7197 139.019 11.1654 135.725 1.0003 129.836L -1.0003 133.3C 9.60561 139.409 22.1667 142.981 35.3041 143L 35.3041 139Z"/>
<path id="path7_fill" d="M 12.7266 15.7773C 12.7266 17.8086 12.293 19.3945 11.4258 20.5352C 10.5586 21.668 9.34766 22.2344 7.79297 22.2344C 6.41797 22.2344 5.32031 21.707 4.5 20.6523L 4.34766 22L 1.30078 22L 1.30078 4L 4.6875 4L 4.6875 10.457C 5.46875 9.54297 6.49609 9.08594 7.76953 9.08594C 9.31641 9.08594 10.5273 9.65625 11.4023 10.7969C 12.2852 11.9297 12.7266 13.5273 12.7266 15.5898L 12.7266 15.7773ZM 9.33984 15.5312C 9.33984 14.25 9.13672 13.3164 8.73047 12.7305C 8.32422 12.1367 7.71875 11.8398 6.91406 11.8398C 5.83594 11.8398 5.09375 12.2813 4.6875 13.1641L 4.6875 18.168C 5.10156 19.0586 5.85156 19.5039 6.9375 19.5039C 8.03125 19.5039 8.75 18.9648 9.09375 17.8867C 9.25781 17.3711 9.33984 16.5859 9.33984 15.5312Z"/>
<path id="path8_fill" d="M 8.64844 22C 8.49219 21.6953 8.37891 21.3164 8.30859 20.8633C 7.48828 21.7773 6.42188 22.2344 5.10938 22.2344C 3.86719 22.2344 2.83594 21.875 2.01562 21.1562C 1.20312 20.4375 0.796875 19.5312 0.796875 18.4375C 0.796875 17.0938 1.29297 16.0625 2.28516 15.3438C 3.28516 14.625 4.72656 14.2617 6.60938 14.2539L 8.16797 14.2539L 8.16797 13.5273C 8.16797 12.9414 8.01562 12.4727 7.71094 12.1211C 7.41406 11.7695 6.94141 11.5938 6.29297 11.5938C 5.72266 11.5938 5.27344 11.7305 4.94531 12.0039C 4.625 12.2773 4.46484 12.6523 4.46484 13.1289L 1.07812 13.1289C 1.07812 12.3945 1.30469 11.7148 1.75781 11.0898C 2.21094 10.4648 2.85156 9.97656 3.67969 9.625C 4.50781 9.26563 5.4375 9.08594 6.46875 9.08594C 8.03125 9.08594 9.26953 9.48047 10.1836 10.2695C 11.1055 11.0508 11.5664 12.1523 11.5664 13.5742L 11.5664 19.0703C 11.5742 20.2734 11.7422 21.1836 12.0703 21.8008L 12.0703 22L 8.64844 22ZM 5.84766 19.6445C 6.34766 19.6445 6.80859 19.5352 7.23047 19.3164C 7.65234 19.0898 7.96484 18.7891 8.16797 18.4141L 8.16797 16.2344L 6.90234 16.2344C 5.20703 16.2344 4.30469 16.8203 4.19531 17.9922L 4.18359 18.1914C 4.18359 18.6133 4.33203 18.9609 4.62891 19.2344C 4.92578 19.5078 5.33203 19.6445 5.84766 19.6445Z"/>
</defs>
</svg>
