<svg width="2010" height="464" viewBox="0 0 2010 464" version="1.1" xmlns="http://www.w3.org/2000/svg" xmlns:xlink="http://www.w3.org/1999/xlink">
<title>Full</title>
<desc>Created using Figma</desc>
<g id="Canvas" transform="matrix(2 0 0 2 1176 -110)">
<clipPath id="clip-0" clip-rule="evenodd">
<path d="M -588 55L 417 55L 417 287L -588 287L -588 55Z" fill="#FFFFFF"/>
</clipPath>
<g id="Full" clip-path="url(#clip-0)">
<path d="M -588 55L 417 55L 417 287L -588 287L -588 55Z" fill="#FFFFFF"/>
<g id="Group">
<g id="Rectangle">
<use xlink:href="#path0_fill" transform="translate(-192 237)" fill="#FDD6D6"/>
</g>
<g id="a FULL OUTER JOIN b">
<use xlink:href="#path1_fill" transform="translate(-189 240)" fill="#D91D1D"/>
</g>
<g id="Intersect">
<use xlink:href="#path2_fill" transform="translate(-121.392 87.87)" fill="#2F80ED"/>
</g>
<g id="Subtract">
<use xlink:href="#path3_fill" transform="translate(-192 78)" fill="#2F80ED"/>
<mask id="mask0_outline_ins">
<use xlink:href="#path3_fill" fill="white" transform="translate(-192 78)"/>
</mask>
<g mask="url(#mask0_outline_ins)">
<use xlink:href="#path4_stroke_2x" transform="translate(-192 78)"/>
</g>
</g>
<g id="Subtract">
<use xlink:href="#path5_fill" transform="translate(-88.9119 78)" fill="#2F80ED"/>
<mask id="mask1_outline_ins">
<use xlink:href="#path5_fill" fill="white" transform="translate(-88.9119 78)"/>
</mask>
<g mask="url(#mask1_outline_ins)">
<use xlink:href="#path6_stroke_2x" transform="translate(-88.9119 78)"/>
</g>
</g>
<g id="b">
<use xlink:href="#path7_fill" transform="translate(-29.6013 133.99)" fill="#F2F2F2"/>
</g>
<g id="a">
<use xlink:href="#path8_fill" transform="translate(-156.696 135.4)" fill="#F2F2F2"/>
</g>
</g>
</g>
</g>
<defs>
<path id="path0_fill" d="M 0 0L 212 0L 212 26L 0 26L 0 0Z"/>
<path id="path1_fill" d="M 1.098 15.516C 1.098 15.012 1.206 14.574 1.422 14.202C 1.638 13.818 1.98 13.494 2.448 13.23C 2.928 12.966 3.54 12.756 4.284 12.6C 5.028 12.432 5.928 12.318 6.984 12.258C 6.936 11.85 6.756 11.532 6.444 11.304C 6.144 11.076 5.688 10.962 5.076 10.962C 4.644 10.962 4.206 11.04 3.762 11.196C 3.33 11.34 2.862 11.538 2.358 11.79L 1.422 10.062C 2.034 9.714 2.688 9.426 3.384 9.198C 4.092 8.97 4.83 8.856 5.598 8.856C 6.846 8.856 7.83 9.186 8.55 9.846C 9.27 10.506 9.63 11.52 9.63 12.888L 9.63 18L 7.47 18L 7.272 16.992L 7.2 16.992C 6.744 17.34 6.246 17.634 5.706 17.874C 5.166 18.102 4.608 18.216 4.032 18.216C 3.576 18.216 3.168 18.144 2.808 18C 2.448 17.868 2.142 17.682 1.89 17.442C 1.638 17.19 1.44 16.902 1.296 16.578C 1.164 16.254 1.098 15.9 1.098 15.516ZM 3.636 15.318C 3.636 15.606 3.744 15.822 3.96 15.966C 4.188 16.098 4.494 16.164 4.878 16.164C 5.274 16.164 5.646 16.086 5.994 15.93C 6.342 15.762 6.672 15.558 6.984 15.318L 6.984 13.842C 6.324 13.878 5.778 13.938 5.346 14.022C 4.914 14.106 4.572 14.214 4.32 14.346C 4.068 14.466 3.888 14.61 3.78 14.778C 3.684 14.946 3.636 15.126 3.636 15.318ZM 23.5299 6.264L 31.2699 6.264L 31.2699 8.496L 26.1759 8.496L 26.1759 11.214L 30.5139 11.214L 30.5139 13.446L 26.1759 13.446L 26.1759 18L 23.5299 18L 23.5299 6.264ZM 33.5309 6.264L 36.1769 6.264L 36.1769 13.752C 36.1769 14.46 36.3089 15 36.5729 15.372C 36.8369 15.744 37.2509 15.93 37.8149 15.93C 38.3789 15.93 38.7929 15.744 39.0569 15.372C 39.3329 15 39.4709 14.46 39.4709 13.752L 39.4709 6.264L 42.0269 6.264L 42.0269 13.482C 42.0269 15.018 41.6789 16.194 40.9829 17.01C 40.2989 17.814 39.2429 18.216 37.8149 18.216C 36.3749 18.216 35.3009 17.814 34.5929 17.01C 33.8849 16.194 33.5309 15.018 33.5309 13.482L 33.5309 6.264ZM 45.0979 6.264L 47.7439 6.264L 47.7439 15.768L 52.9639 15.768L 52.9639 18L 45.0979 18L 45.0979 6.264ZM 55.8908 6.264L 58.5368 6.264L 58.5368 15.768L 63.7568 15.768L 63.7568 18L 55.8908 18L 55.8908 6.264ZM 80.9508 18.216C 80.2548 18.216 79.6128 18.078 79.0248 17.802C 78.4488 17.514 77.9508 17.106 77.5308 16.578C 77.1228 16.05 76.8048 15.408 76.5768 14.652C 76.3488 13.896 76.2348 13.038 76.2348 12.078C 76.2348 11.118 76.3488 10.266 76.5768 9.522C 76.8048 8.766 77.1228 8.136 77.5308 7.632C 77.9508 7.116 78.4488 6.726 79.0248 6.462C 79.6128 6.186 80.2548 6.048 80.9508 6.048C 81.6468 6.048 82.2828 6.186 82.8588 6.462C 83.4468 6.726 83.9448 7.116 84.3528 7.632C 84.7728 8.148 85.0968 8.784 85.3248 9.54C 85.5528 10.284 85.6668 11.13 85.6668 12.078C 85.6668 13.038 85.5528 13.896 85.3248 14.652C 85.0968 15.408 84.7728 16.05 84.3528 16.578C 83.9448 17.106 83.4468 17.514 82.8588 17.802C 82.2828 18.078 81.6468 18.216 80.9508 18.216ZM 80.9508 15.93C 81.5628 15.93 82.0488 15.588 82.4088 14.904C 82.7688 14.208 82.9488 13.266 82.9488 12.078C 82.9488 10.902 82.7688 9.984 82.4088 9.324C 82.0488 8.664 81.5628 8.334 80.9508 8.334C 80.3388 8.334 79.8528 8.664 79.4928 9.324C 79.1328 9.984 78.9528 10.902 78.9528 12.078C 78.9528 13.266 79.1328 14.208 79.4928 14.904C 79.8528 15.588 80.3388 15.93 80.9508 15.93ZM 87.4958 6.264L 90.1417 6.264L 90.1417 13.752C 90.1417 14.46 90.2738 15 90.5377 15.372C 90.8018 15.744 91.2157 15.93 91.7797 15.93C 92.3438 15.93 92.7578 15.744 93.0217 15.372C 93.2978 15 93.4357 14.46 93.4357 13.752L 93.4357 6.264L 95.9918 6.264L 95.9918 13.482C 95.9918 15.018 95.6437 16.194 94.9477 17.01C 94.2637 17.814 93.2077 18.216 91.7797 18.216C 90.3398 18.216 89.2658 17.814 88.5578 17.01C 87.8498 16.194 87.4958 15.018 87.4958 13.482L 87.4958 6.264ZM 101.205 8.496L 97.6947 8.496L 97.6947 6.264L 107.379 6.264L 107.379 8.496L 103.869 8.496L 103.869 18L 101.205 18L 101.205 8.496ZM 109.622 6.264L 117.362 6.264L 117.362 8.496L 112.268 8.496L 112.268 10.854L 116.588 10.854L 116.588 13.068L 112.268 13.068L 112.268 15.768L 117.542 15.768L 117.542 18L 109.622 18L 109.622 6.264ZM 122.629 11.664L 123.925 11.664C 125.353 11.664 126.067 11.082 126.067 9.918C 126.067 9.342 125.887 8.94 125.527 8.712C 125.167 8.484 124.633 8.37 123.925 8.37L 122.629 8.37L 122.629 11.664ZM 126.265 18L 124.015 13.77L 122.629 13.77L 122.629 18L 119.983 18L 119.983 6.264L 124.141 6.264C 124.765 6.264 125.347 6.324 125.887 6.444C 126.439 6.564 126.919 6.768 127.327 7.056C 127.747 7.332 128.077 7.704 128.317 8.172C 128.557 8.64 128.677 9.222 128.677 9.918C 128.677 10.782 128.485 11.496 128.101 12.06C 127.717 12.612 127.213 13.026 126.589 13.302L 129.235 18L 126.265 18ZM 142.901 14.634C 143.597 15.498 144.341 15.93 145.133 15.93C 145.745 15.93 146.201 15.78 146.501 15.48C 146.801 15.168 146.951 14.604 146.951 13.788L 146.951 8.478L 142.361 8.478L 142.361 6.264L 149.597 6.264L 149.597 14.004C 149.597 14.58 149.519 15.126 149.363 15.642C 149.219 16.146 148.973 16.59 148.625 16.974C 148.277 17.358 147.821 17.664 147.257 17.892C 146.705 18.108 146.027 18.216 145.223 18.216C 144.899 18.216 144.563 18.18 144.215 18.108C 143.867 18.048 143.525 17.94 143.189 17.784C 142.853 17.628 142.529 17.43 142.217 17.19C 141.905 16.938 141.623 16.632 141.371 16.272L 142.901 14.634ZM 156.502 18.216C 155.806 18.216 155.164 18.078 154.576 17.802C 154 17.514 153.502 17.106 153.082 16.578C 152.674 16.05 152.356 15.408 152.128 14.652C 151.9 13.896 151.786 13.038 151.786 12.078C 151.786 11.118 151.9 10.266 152.128 9.522C 152.356 8.766 152.674 8.136 153.082 7.632C 153.502 7.116 154 6.726 154.576 6.462C 155.164 6.186 155.806 6.048 156.502 6.048C 157.198 6.048 157.834 6.186 158.41 6.462C 158.998 6.726 159.496 7.116 159.904 7.632C 160.324 8.148 160.648 8.784 160.876 9.54C 161.104 10.284 161.218 11.13 161.218 12.078C 161.218 13.038 161.104 13.896 160.876 14.652C 160.648 15.408 160.324 16.05 159.904 16.578C 159.496 17.106 158.998 17.514 158.41 17.802C 157.834 18.078 157.198 18.216 156.502 18.216ZM 156.502 15.93C 157.114 15.93 157.6 15.588 157.96 14.904C 158.32 14.208 158.5 13.266 158.5 12.078C 158.5 10.902 158.32 9.984 157.96 9.324C 157.6 8.664 157.114 8.334 156.502 8.334C 155.89 8.334 155.404 8.664 155.044 9.324C 154.684 9.984 154.504 10.902 154.504 12.078C 154.504 13.266 154.684 14.208 155.044 14.904C 155.404 15.588 155.89 15.93 156.502 15.93ZM 163.227 15.768L 165.963 15.768L 165.963 8.496L 163.227 8.496L 163.227 6.264L 171.363 6.264L 171.363 8.496L 168.627 8.496L 168.627 15.768L 171.363 15.768L 171.363 18L 163.227 18L 163.227 15.768ZM 173.875 6.264L 176.576 6.264L 179.06 12.114L 180.067 14.688L 180.14 14.688C 180.08 14.064 180.001 13.368 179.905 12.6C 179.809 11.832 179.762 11.106 179.762 10.422L 179.762 6.264L 182.299 6.264L 182.299 18L 179.6 18L 177.116 12.15L 176.107 9.594L 176.036 9.594C 176.096 10.242 176.174 10.938 176.27 11.682C 176.366 12.426 176.414 13.146 176.414 13.842L 176.414 18L 173.875 18L 173.875 6.264ZM 195.569 5.382L 198.215 5.382L 198.215 8.478L 198.143 9.882C 198.491 9.558 198.881 9.306 199.313 9.126C 199.757 8.946 200.195 8.856 200.627 8.856C 201.179 8.856 201.677 8.964 202.121 9.18C 202.577 9.396 202.955 9.702 203.255 10.098C 203.567 10.482 203.807 10.956 203.975 11.52C 204.143 12.072 204.227 12.69 204.227 13.374C 204.227 14.142 204.119 14.826 203.903 15.426C 203.687 16.026 203.399 16.536 203.039 16.956C 202.679 17.364 202.265 17.676 201.797 17.892C 201.341 18.108 200.861 18.216 200.357 18.216C 199.937 18.216 199.517 18.114 199.097 17.91C 198.689 17.706 198.299 17.412 197.927 17.028L 197.855 17.028L 197.639 18L 195.569 18L 195.569 5.382ZM 198.215 15.462C 198.467 15.678 198.725 15.834 198.989 15.93C 199.265 16.014 199.523 16.056 199.763 16.056C 200.255 16.056 200.669 15.852 201.005 15.444C 201.341 15.024 201.509 14.352 201.509 13.428C 201.509 11.82 200.963 11.016 199.871 11.016C 199.307 11.016 198.755 11.292 198.215 11.844L 198.215 15.462Z"/>
<path id="path2_fill" fill-rule="evenodd" d="M 33.8918 122.67C 54.1526 110.427 67.7839 87.5439 67.7839 61.335C 67.7839 35.1261 54.1526 12.243 33.8918 0C 13.6313 12.243 0 35.1261 0 61.335C 0 87.5439 13.6313 110.427 33.8918 122.67Z"/>
<path id="path3_fill" fill-rule="evenodd" d="M 105.912 9.43164C 84.8076 21.6214 70.6082 44.405 70.6082 70.5C 70.6082 96.595 84.8076 119.379 105.912 131.568C 95.5269 137.567 83.469 141 70.6082 141C 31.6123 141 0 109.436 0 70.5C 0 31.5639 31.6123 0 70.6082 0C 83.469 0 95.5269 3.43314 105.912 9.43164Z"/>
<path id="path4_stroke_2x" d="M 105.912 9.43164L 106.913 11.1635L 109.911 9.43164L 106.913 7.69977L 105.912 9.43164ZM 105.912 131.568L 106.913 133.3L 109.911 131.568L 106.913 129.836L 105.912 131.568ZM 72.6082 70.5C 72.6082 45.1494 86.4002 23.0112 106.913 11.1635L 104.912 7.69977C 83.215 20.2317 68.6082 43.6607 68.6082 70.5L 72.6082 70.5ZM 106.913 129.836C 86.4002 117.989 72.6082 95.8507 72.6082 70.5L 68.6082 70.5C 68.6082 97.3393 83.215 120.768 104.912 133.3L 106.913 129.836ZM 104.912 129.836C 94.747 135.725 83.1925 139.019 70.6082 139L 70.6082 143C 83.7455 142.981 96.3068 139.409 106.913 133.3L 104.912 129.836ZM 70.6082 139C 32.714 139 2 108.329 2 70.5L -2 70.5C -2 110.544 30.5106 143 70.6082 143L 70.6082 139ZM 2 70.5C 2 32.6714 32.714 2 70.6082 2L 70.6082 -2C 30.5106 -2 -2 30.4565 -2 70.5L 2 70.5ZM 70.6082 2C 83.1925 1.9808 94.747 5.27481 104.912 11.1635L 106.913 7.69977C 96.3068 1.59146 83.7455 -1.9808 70.6082 -2L 70.6082 2Z"/>
<path id="path5_fill" fill-rule="evenodd" d="M 0 131.568C 21.1047 119.379 35.304 96.595 35.304 70.5C 35.304 44.405 21.1047 21.6214 0 9.43164C 10.3855 3.43314 22.4431 0 35.304 0C 74.2998 0 105.912 31.5639 105.912 70.5C 105.912 109.436 74.2998 141 35.304 141C 22.4431 141 10.3855 137.567 0 131.568Z"/>
<path id="path6_stroke_2x" d="M 0 131.568L -1.0003 129.836L -3.99879 131.568L -1.0003 133.3L 0 131.568ZM 0 9.43164L -1.0003 7.69977L -3.99878 9.43164L -1.00031 11.1635L 0 9.43164ZM 33.304 70.5C 33.304 95.8507 19.5121 117.989 -1.0003 129.836L 1.0003 133.3C 22.6973 120.768 37.304 97.3393 37.304 70.5L 33.304 70.5ZM -1.00031 11.1635C 19.5121 23.0112 33.304 45.1493 33.304 70.5L 37.304 70.5C 37.304 43.6607 22.6973 20.2317 1.00031 7.69977L -1.00031 11.1635ZM 1.0003 11.1635C 11.1654 5.27481 22.7196 1.98079 35.304 2L 35.304 -2C 22.1666 -1.98079 9.60559 1.59147 -1.0003 7.69977L 1.0003 11.1635ZM 35.304 2C 73.1981 2 103.912 32.6714 103.912 70.5L 107.912 70.5C 107.912 30.4565 75.4015 -2 35.304 -2L 35.304 2ZM 103.912 70.5C 103.912 108.329 73.1981 139 35.304 139L 35.304 143C 75.4015 143 107.912 110.544 107.912 70.5L 103.912 70.5ZM 35.304 139C 22.7196 139.019 11.1654 135.725 1.0003 129.836L -1.0003 133.3C 9.60559 139.409 22.1666 142.981 35.304 143L 35.304 139Z"/>
<path id="path7_fill" d="M 12.7266 15.7773C 12.7266 17.8086 12.293 19.3945 11.4258 20.5352C 10.5586 21.668 9.34766 22.2344 7.79297 22.2344C 6.41797 22.2344 5.32031 21.707 4.5 20.6523L 4.34766 22L 1.30078 22L 1.30078 4L 4.6875 4L 4.6875 10.457C 5.46875 9.54297 6.49609 9.08594 7.76953 9.08594C 9.31641 9.08594 10.5273 9.65625 11.4023 10.7969C 12.2852 11.9297 12.7266 13.5273 12.7266 15.5898L 12.7266 15.7773ZM 9.33984 15.5312C 9.33984 14.25 9.13672 13.3164 8.73047 12.7305C 8.32422 12.1367 7.71875 11.8398 6.91406 11.8398C 5.83594 11.8398 5.09375 12.2813 4.6875 13.1641L 4.6875 18.168C 5.10156 19.0586 5.85156 19.5039 6.9375 19.5039C 8.03125 19.5039 8.75 18.9648 9.09375 17.8867C 9.25781 17.3711 9.33984 16.5859 9.33984 15.5312Z"/>
<path id="path8_fill" d="M 8.64844 22C 8.49219 21.6953 8.37891 21.3164 8.30859 20.8633C 7.48828 21.7773 6.42188 22.2344 5.10938 22.2344C 3.86719 22.2344 2.83594 21.875 2.01562 21.1562C 1.20312 20.4375 0.796875 19.5312 0.796875 18.4375C 0.796875 17.0938 1.29297 16.0625 2.28516 15.3438C 3.28516 14.625 4.72656 14.2617 6.60938 14.2539L 8.16797 14.2539L 8.16797 13.5273C 8.16797 12.9414 8.01562 12.4727 7.71094 12.1211C 7.41406 11.7695 6.94141 11.5938 6.29297 11.5938C 5.72266 11.5938 5.27344 11.7305 4.94531 12.0039C 4.625 12.2773 4.46484 12.6523 4.46484 13.1289L 1.07812 13.1289C 1.07812 12.3945 1.30469 11.7148 1.75781 11.0898C 2.21094 10.4648 2.85156 9.97656 3.67969 9.625C 4.50781 9.26563 5.4375 9.08594 6.46875 9.08594C 8.03125 9.08594 9.26953 9.48047 10.1836 10.2695C 11.1055 11.0508 11.5664 12.1523 11.5664 13.5742L 11.5664 19.0703C 11.5742 20.2734 11.7422 21.1836 12.0703 21.8008L 12.0703 22L 8.64844 22ZM 5.84766 19.6445C 6.34766 19.6445 6.80859 19.5352 7.23047 19.3164C 7.65234 19.0898 7.96484 18.7891 8.16797 18.4141L 8.16797 16.2344L 6.90234 16.2344C 5.20703 16.2344 4.30469 16.8203 4.19531 17.9922L 4.18359 18.1914C 4.18359 18.6133 4.33203 18.9609 4.62891 19.2344C 4.92578 19.5078 5.33203 19.6445 5.84766 19.6445Z"/>
</defs>
</svg>
