<svg width="1000" height="464" viewBox="0 0 1000 464" version="1.1" xmlns="http://www.w3.org/2000/svg" xmlns:xlink="http://www.w3.org/1999/xlink">
<title>Left</title>
<desc>Created using Figma</desc>
<g id="Canvas" transform="matrix(2 0 0 2 1176 1366)">
<clipPath id="clip-0" clip-rule="evenodd">
<path d="M -588 -683L -88 -683L -88 -451L -588 -451L -588 -683Z" fill="#FFFFFF"/>
</clipPath>
<g id="Left" clip-path="url(#clip-0)">
<path d="M -588 -683L -88 -683L -88 -451L -588 -451L -588 -683Z" fill="#FFFFFF"/>
<g id="Group">
<g id="Rectangle">
<use xlink:href="#path0_fill" transform="translate(-421 -501)" fill="#FDD6D6"/>
</g>
<g id="a LEFT JOIN b">
<use xlink:href="#path1_fill" transform="translate(-412 -501)" fill="#D91D1D"/>
</g>
<g id="Intersect">
<use xlink:href="#path2_fill" transform="translate(-371.392 -648.13)" fill="#2F80ED"/>
</g>
<g id="Subtract">
<use xlink:href="#path3_fill" transform="translate(-442 -658)" fill="#2F80ED"/>
<mask id="mask0_outline_ins">
<use xlink:href="#path3_fill" fill="white" transform="translate(-442 -658)"/>
</mask>
<g mask="url(#mask0_outline_ins)">
<use xlink:href="#path4_stroke_2x" transform="translate(-442 -658)"/>
</g>
</g>
<g id="Subtract">
<mask id="mask1_outline_ins">
<use xlink:href="#path5_fill" fill="white" transform="translate(-338.912 -658)"/>
</mask>
<g mask="url(#mask1_outline_ins)">
<use xlink:href="#path6_stroke_2x" transform="translate(-338.912 -658)"/>
</g>
</g>
<g id="b">
<use xlink:href="#path7_fill" transform="translate(-279.601 -602.01)"/>
</g>
<g id="a">
<use xlink:href="#path8_fill" transform="translate(-406.696 -600.6)" fill="#F2F2F2"/>
</g>
</g>
</g>
</g>
<defs>
<path id="path0_fill" d="M 0 0L 159 0L 159 26L 0 26L 0 0Z"/>
<path id="path1_fill" d="M 1.098 15.516C 1.098 15.012 1.206 14.574 1.422 14.202C 1.638 13.818 1.98 13.494 2.448 13.23C 2.928 12.966 3.54 12.756 4.284 12.6C 5.028 12.432 5.928 12.318 6.984 12.258C 6.936 11.85 6.756 11.532 6.444 11.304C 6.144 11.076 5.688 10.962 5.076 10.962C 4.644 10.962 4.206 11.04 3.762 11.196C 3.33 11.34 2.862 11.538 2.358 11.79L 1.422 10.062C 2.034 9.714 2.688 9.426 3.384 9.198C 4.092 8.97 4.83 8.856 5.598 8.856C 6.846 8.856 7.83 9.186 8.55 9.846C 9.27 10.506 9.63 11.52 9.63 12.888L 9.63 18L 7.47 18L 7.272 16.992L 7.2 16.992C 6.744 17.34 6.246 17.634 5.706 17.874C 5.166 18.102 4.608 18.216 4.032 18.216C 3.576 18.216 3.168 18.144 2.808 18C 2.448 17.868 2.142 17.682 1.89 17.442C 1.638 17.19 1.44 16.902 1.296 16.578C 1.164 16.254 1.098 15.9 1.098 15.516ZM 3.636 15.318C 3.636 15.606 3.744 15.822 3.96 15.966C 4.188 16.098 4.494 16.164 4.878 16.164C 5.274 16.164 5.646 16.086 5.994 15.93C 6.342 15.762 6.672 15.558 6.984 15.318L 6.984 13.842C 6.324 13.878 5.778 13.938 5.346 14.022C 4.914 14.106 4.572 14.214 4.32 14.346C 4.068 14.466 3.888 14.61 3.78 14.778C 3.684 14.946 3.636 15.126 3.636 15.318ZM 23.5119 6.264L 26.1579 6.264L 26.1579 15.768L 31.3779 15.768L 31.3779 18L 23.5119 18L 23.5119 6.264ZM 34.0709 6.264L 41.8109 6.264L 41.8109 8.496L 36.7169 8.496L 36.7169 10.854L 41.0369 10.854L 41.0369 13.068L 36.7169 13.068L 36.7169 15.768L 41.9909 15.768L 41.9909 18L 34.0709 18L 34.0709 6.264ZM 45.1159 6.264L 52.8559 6.264L 52.8559 8.496L 47.7619 8.496L 47.7619 11.214L 52.0999 11.214L 52.0999 13.446L 47.7619 13.446L 47.7619 18L 45.1159 18L 45.1159 6.264ZM 58.0328 8.496L 54.5228 8.496L 54.5228 6.264L 64.2068 6.264L 64.2068 8.496L 60.6968 8.496L 60.6968 18L 58.0328 18L 58.0328 8.496ZM 78.1428 14.634C 78.8388 15.498 79.5828 15.93 80.3748 15.93C 80.9868 15.93 81.4428 15.78 81.7428 15.48C 82.0428 15.168 82.1928 14.604 82.1928 13.788L 82.1928 8.478L 77.6028 8.478L 77.6028 6.264L 84.8388 6.264L 84.8388 14.004C 84.8388 14.58 84.7608 15.126 84.6048 15.642C 84.4608 16.146 84.2148 16.59 83.8668 16.974C 83.5188 17.358 83.0628 17.664 82.4988 17.892C 81.9468 18.108 81.2688 18.216 80.4648 18.216C 80.1408 18.216 79.8048 18.18 79.4568 18.108C 79.1088 18.048 78.7668 17.94 78.4308 17.784C 78.0948 17.628 77.7708 17.43 77.4588 17.19C 77.1468 16.938 76.8648 16.632 76.6128 16.272L 78.1428 14.634ZM 91.7438 18.216C 91.0478 18.216 90.4058 18.078 89.8178 17.802C 89.2417 17.514 88.7438 17.106 88.3237 16.578C 87.9158 16.05 87.5978 15.408 87.3698 14.652C 87.1418 13.896 87.0277 13.038 87.0277 12.078C 87.0277 11.118 87.1418 10.266 87.3698 9.522C 87.5978 8.766 87.9158 8.136 88.3237 7.632C 88.7438 7.116 89.2417 6.726 89.8178 6.462C 90.4058 6.186 91.0478 6.048 91.7438 6.048C 92.4398 6.048 93.0758 6.186 93.6517 6.462C 94.2398 6.726 94.7377 7.116 95.1457 7.632C 95.5658 8.148 95.8898 8.784 96.1177 9.54C 96.3458 10.284 96.4597 11.13 96.4597 12.078C 96.4597 13.038 96.3458 13.896 96.1177 14.652C 95.8898 15.408 95.5658 16.05 95.1457 16.578C 94.7377 17.106 94.2398 17.514 93.6517 17.802C 93.0758 18.078 92.4398 18.216 91.7438 18.216ZM 91.7438 15.93C 92.3557 15.93 92.8418 15.588 93.2018 14.904C 93.5617 14.208 93.7418 13.266 93.7418 12.078C 93.7418 10.902 93.5617 9.984 93.2018 9.324C 92.8418 8.664 92.3557 8.334 91.7438 8.334C 91.1318 8.334 90.6457 8.664 90.2857 9.324C 89.9258 9.984 89.7457 10.902 89.7457 12.078C 89.7457 13.266 89.9258 14.208 90.2857 14.904C 90.6457 15.588 91.1318 15.93 91.7438 15.93ZM 98.4687 15.768L 101.205 15.768L 101.205 8.496L 98.4687 8.496L 98.4687 6.264L 106.605 6.264L 106.605 8.496L 103.869 8.496L 103.869 15.768L 106.605 15.768L 106.605 18L 98.4687 18L 98.4687 15.768ZM 109.118 6.264L 111.818 6.264L 114.302 12.114L 115.31 14.688L 115.382 14.688C 115.322 14.064 115.244 13.368 115.148 12.6C 115.052 11.832 115.004 11.106 115.004 10.422L 115.004 6.264L 117.542 6.264L 117.542 18L 114.842 18L 112.358 12.15L 111.35 9.594L 111.278 9.594C 111.338 10.242 111.416 10.938 111.512 11.682C 111.608 12.426 111.656 13.146 111.656 13.842L 111.656 18L 109.118 18L 109.118 6.264ZM 130.812 5.382L 133.458 5.382L 133.458 8.478L 133.386 9.882C 133.734 9.558 134.124 9.306 134.556 9.126C 135 8.946 135.438 8.856 135.87 8.856C 136.422 8.856 136.92 8.964 137.364 9.18C 137.82 9.396 138.198 9.702 138.498 10.098C 138.81 10.482 139.05 10.956 139.218 11.52C 139.386 12.072 139.47 12.69 139.47 13.374C 139.47 14.142 139.362 14.826 139.146 15.426C 138.93 16.026 138.642 16.536 138.282 16.956C 137.922 17.364 137.508 17.676 137.04 17.892C 136.584 18.108 136.104 18.216 135.6 18.216C 135.18 18.216 134.76 18.114 134.34 17.91C 133.932 17.706 133.542 17.412 133.17 17.028L 133.098 17.028L 132.882 18L 130.812 18L 130.812 5.382ZM 133.458 15.462C 133.71 15.678 133.968 15.834 134.232 15.93C 134.508 16.014 134.766 16.056 135.006 16.056C 135.498 16.056 135.912 15.852 136.248 15.444C 136.584 15.024 136.752 14.352 136.752 13.428C 136.752 11.82 136.206 11.016 135.114 11.016C 134.55 11.016 133.998 11.292 133.458 11.844L 133.458 15.462Z"/>
<path id="path2_fill" fill-rule="evenodd" d="M 33.8918 122.67C 54.1525 110.427 67.7837 87.5439 67.7837 61.335C 67.7837 35.1261 54.1525 12.243 33.8918 0C 13.6312 12.243 0 35.1261 0 61.335C 0 87.5439 13.6312 110.427 33.8918 122.67Z"/>
<path id="path3_fill" fill-rule="evenodd" d="M 105.912 9.43167C 84.8074 21.6215 70.6082 44.4051 70.6082 70.5C 70.6082 96.5949 84.8074 119.379 105.912 131.568C 95.5267 137.567 83.469 141 70.6082 141C 31.6123 141 0 109.436 0 70.5C 0 31.5639 31.6123 0 70.6082 0C 83.469 0 95.5267 3.43317 105.912 9.43167Z"/>
<path id="path4_stroke_2x" d="M 105.912 9.43167L 106.913 11.1635L 109.911 9.43167L 106.913 7.6998L 105.912 9.43167ZM 105.912 131.568L 106.913 133.3L 109.911 131.568L 106.913 129.836L 105.912 131.568ZM 72.6082 70.5C 72.6082 45.1494 86.4 23.0112 106.913 11.1635L 104.912 7.69979C 83.2148 20.2317 68.6082 43.6608 68.6082 70.5L 72.6082 70.5ZM 106.913 129.836C 86.4 117.989 72.6082 95.8506 72.6082 70.5L 68.6082 70.5C 68.6082 97.3392 83.2148 120.768 104.912 133.3L 106.913 129.836ZM 104.912 129.836C 94.7468 135.725 83.1925 139.019 70.6082 139L 70.6082 143C 83.7455 142.981 96.3066 139.409 106.913 133.3L 104.912 129.836ZM 70.6082 139C 32.714 139 2 108.329 2 70.5L -2 70.5C -2 110.544 30.5106 143 70.6082 143L 70.6082 139ZM 2 70.5C 2 32.6714 32.714 2 70.6082 2L 70.6082 -2C 30.5106 -2 -2 30.4565 -2 70.5L 2 70.5ZM 70.6082 2C 83.1925 1.98079 94.7468 5.27484 104.912 11.1635L 106.913 7.6998C 96.3066 1.5915 83.7455 -1.98079 70.6082 -2L 70.6082 2Z"/>
<path id="path5_fill" fill-rule="evenodd" d="M 0 131.568C 21.1049 119.379 35.3041 96.595 35.3041 70.5C 35.3041 44.405 21.1049 21.6214 0 9.43161C 10.3855 3.43314 22.4432 0 35.3041 0C 74.2998 0 105.912 31.5639 105.912 70.5C 105.912 109.436 74.2998 141 35.3041 141C 22.4432 141 10.3855 137.567 0 131.568Z"/>
<path id="path6_stroke_2x" d="M 0 131.568L -1.0003 129.836L -3.99879 131.568L -1.0003 133.3L 0 131.568ZM 0 9.43161L -1.0003 7.69973L -3.9988 9.43161L -1.0003 11.1635L 0 9.43161ZM 33.3041 70.5C 33.3041 95.8507 19.5123 117.989 -1.0003 129.836L 1.0003 133.3C 22.6975 120.768 37.3041 97.3393 37.3041 70.5L 33.3041 70.5ZM -1.0003 11.1635C 19.5123 23.0112 33.3041 45.1493 33.3041 70.5L 37.3041 70.5C 37.3041 43.6607 22.6975 20.2316 1.0003 7.69973L -1.0003 11.1635ZM 1.0003 11.1635C 11.1654 5.27481 22.7197 1.9808 35.3041 2L 35.3041 -2C 22.1667 -1.9808 9.6056 1.59146 -1.0003 7.69973L 1.0003 11.1635ZM 35.3041 2C 73.1981 2 103.912 32.6714 103.912 70.5L 107.912 70.5C 107.912 30.4565 75.4015 -2 35.3041 -2L 35.3041 2ZM 103.912 70.5C 103.912 108.329 73.1981 139 35.3041 139L 35.3041 143C 75.4015 143 107.912 110.544 107.912 70.5L 103.912 70.5ZM 35.3041 139C 22.7197 139.019 11.1654 135.725 1.0003 129.836L -1.0003 133.3C 9.60559 139.409 22.1667 142.981 35.3041 143L 35.3041 139Z"/>
<path id="path7_fill" d="M 12.7266 15.7773C 12.7266 17.8086 12.293 19.3945 11.4258 20.5352C 10.5586 21.668 9.34766 22.2344 7.79297 22.2344C 6.41797 22.2344 5.32031 21.707 4.5 20.6523L 4.34766 22L 1.30078 22L 1.30078 4L 4.6875 4L 4.6875 10.457C 5.46875 9.54297 6.49609 9.08594 7.76953 9.08594C 9.31641 9.08594 10.5273 9.65625 11.4023 10.7969C 12.2852 11.9297 12.7266 13.5273 12.7266 15.5898L 12.7266 15.7773ZM 9.33984 15.5312C 9.33984 14.25 9.13672 13.3164 8.73047 12.7305C 8.32422 12.1367 7.71875 11.8398 6.91406 11.8398C 5.83594 11.8398 5.09375 12.2813 4.6875 13.1641L 4.6875 18.168C 5.10156 19.0586 5.85156 19.5039 6.9375 19.5039C 8.03125 19.5039 8.75 18.9648 9.09375 17.8867C 9.25781 17.3711 9.33984 16.5859 9.33984 15.5312Z"/>
<path id="path8_fill" d="M 8.64844 22C 8.49219 21.6953 8.37891 21.3164 8.30859 20.8633C 7.48828 21.7773 6.42188 22.2344 5.10938 22.2344C 3.86719 22.2344 2.83594 21.875 2.01562 21.1562C 1.20312 20.4375 0.796875 19.5312 0.796875 18.4375C 0.796875 17.0938 1.29297 16.0625 2.28516 15.3438C 3.28516 14.625 4.72656 14.2617 6.60938 14.2539L 8.16797 14.2539L 8.16797 13.5273C 8.16797 12.9414 8.01562 12.4727 7.71094 12.1211C 7.41406 11.7695 6.94141 11.5938 6.29297 11.5938C 5.72266 11.5938 5.27344 11.7305 4.94531 12.0039C 4.625 12.2773 4.46484 12.6523 4.46484 13.1289L 1.07812 13.1289C 1.07812 12.3945 1.30469 11.7148 1.75781 11.0898C 2.21094 10.4648 2.85156 9.97656 3.67969 9.625C 4.50781 9.26563 5.4375 9.08594 6.46875 9.08594C 8.03125 9.08594 9.26953 9.48047 10.1836 10.2695C 11.1055 11.0508 11.5664 12.1523 11.5664 13.5742L 11.5664 19.0703C 11.5742 20.2734 11.7422 21.1836 12.0703 21.8008L 12.0703 22L 8.64844 22ZM 5.84766 19.6445C 6.34766 19.6445 6.80859 19.5352 7.23047 19.3164C 7.65234 19.0898 7.96484 18.7891 8.16797 18.4141L 8.16797 16.2344L 6.90234 16.2344C 5.20703 16.2344 4.30469 16.8203 4.19531 17.9922L 4.18359 18.1914C 4.18359 18.6133 4.33203 18.9609 4.62891 19.2344C 4.92578 19.5078 5.33203 19.6445 5.84766 19.6445Z"/>
</defs>
</svg>
